<svg width="340" height="415" viewBox="0 0 340 415" fill="none" xmlns="http://www.w3.org/2000/svg">
<g clip-path="url(#clip0_176_2225)">
<rect width="340" height="415" rx="30" fill="#ADE7FF"/>
<path fill-rule="evenodd" clip-rule="evenodd" d="M28.125 45.0001C28.125 44.5028 28.3225 44.0259 28.6742 43.6743C29.0258 43.3226 29.5027 43.1251 30 43.1251H55.475L48.675 36.3251C48.3438 35.9697 48.1635 35.4996 48.1721 35.0138C48.1806 34.528 48.3774 34.0646 48.7209 33.7211C49.0645 33.3775 49.5279 33.1807 50.0137 33.1722C50.4994 33.1636 50.9696 33.3439 51.325 33.6751L61.325 43.6751C61.6761 44.0267 61.8734 44.5032 61.8734 45.0001C61.8734 45.497 61.6761 45.9735 61.325 46.3251L51.325 56.3251C51.1533 56.5093 50.9463 56.6571 50.7163 56.7596C50.4863 56.862 50.2381 56.9171 49.9863 56.9216C49.7346 56.926 49.4845 56.8797 49.251 56.7854C49.0175 56.6911 48.8055 56.5507 48.6274 56.3727C48.4494 56.1947 48.309 55.9826 48.2147 55.7491C48.1204 55.5156 48.0741 55.2656 48.0785 55.0138C48.083 54.762 48.1381 54.5138 48.2405 54.2838C48.343 54.0538 48.4908 53.8468 48.675 53.6751L55.475 46.8751H30C29.5027 46.8751 29.0258 46.6776 28.6742 46.3259C28.3225 45.9743 28.125 45.4974 28.125 45.0001Z" fill="white"/>
<path d="M159.258 395.741C155.954 395.341 151.394 391.294 147.69 390.043C139.949 387.451 131.802 386.576 123.702 386.471C113.159 386.324 105.029 389.18 95.0272 391.062C84.7252 393.006 68.5785 392.525 63.0971 381.835C59.8932 375.596 59.7542 366.696 64.014 360.912" stroke="#FFD751" stroke-width="3.3538" stroke-miterlimit="10" stroke-linecap="round" stroke-linejoin="round"/>
<path d="M56.7735 209.337C57.1905 204.397 64.9176 199.113 78.17 196.226C71.0769 184.834 71.1963 175.256 74.7563 170.704C82.6394 160.622 100.122 141.378 110.873 134.439C115.34 131.547 123.833 133.246 135.247 140.578C138.29 127.506 143.764 122.376 149.674 120.747C162.007 117.348 188.629 116.868 200.853 120.64C206.885 122.508 212.062 128.335 214.949 141.59C226.345 134.495 235.289 133.466 239.924 136.645C250.475 143.877 269.267 161.994 276.185 172.755C279.348 177.673 277.933 187.253 270.599 198.664C283.671 201.707 288.718 207.25 290.31 213.151C293.644 225.503 294.165 252.096 290.418 264.324C288.577 270.327 288.24 276.367 274.988 279.247C282.078 290.646 279.704 299.765 276.926 304.106C270.038 314.895 251.241 332.958 240.812 340.373C235.762 343.972 223.927 341.346 212.515 334.014C209.472 347.093 203.498 350.149 197.97 351.085C185.357 353.236 159.313 353.84 146.795 351.192C141.182 350.012 135.695 346.26 132.808 333.01C121.411 340.098 112.972 341.329 107.925 338.274C96.972 331.666 78.0285 313.264 71.662 302.165C68.5946 296.825 69.8333 287.342 77.1654 275.935C64.0886 272.887 57.0564 265.716 56.8857 260.513C56.4614 247.729 55.6982 222.085 56.7735 209.337Z" fill="#F58220"/>
<path d="M211.491 295.802C245.223 302.883 270.865 333.754 274.515 367.479C276.054 381.738 255.713 385.101 252.287 367.94C247.23 342.61 228.657 336.227 205.113 331.294C191.082 328.349 197.478 292.863 211.491 295.802Z" fill="#FFD751"/>
<path d="M211.492 295.802C226.532 298.962 241.749 306.981 252.339 317.744C244.407 322.865 236.721 331.316 234.215 341.123C226.212 336.3 216.23 333.63 205.111 331.294C191.083 328.349 197.479 292.863 211.492 295.802Z" fill="#F3EBB7"/>
<path d="M129.081 346.783C94.742 349.758 61.2758 327.613 48.0381 296.382C42.4372 283.176 60.9393 274.077 69.1809 289.519C81.3409 312.298 100.965 313.041 124.929 310.961C139.212 309.725 143.345 345.539 129.081 346.783Z" fill="#FFD751"/>
<path d="M101.077 311.215C108.384 312.064 116.372 311.7 124.931 310.959C139.212 309.723 142.875 347.9 128.61 349.143C115.726 350.255 103.437 345.476 91.8232 340.365C97.5655 331.09 101.567 321.232 101.077 311.215Z" fill="#F3EBB7"/>
<path d="M213.385 306.21C196.445 292.648 152.263 293.125 133.673 306.536C113.227 321.283 98.4023 384.197 112.289 403.414C126.614 423.24 225.057 422.711 235.137 400.822C246.229 376.739 232.789 321.739 213.385 306.21Z" fill="#FFD751"/>
<path d="M131.578 308.204C151.156 292.538 197.767 292.089 215.672 308.019C227.363 318.426 237.036 343.845 241.038 369.014C197.801 379.177 147.296 382.317 106.363 365.41C110.921 341.158 120.435 317.123 131.578 308.204Z" fill="#FFFCD7"/>
<path d="M220.233 190.499C220.431 199.831 228.15 207.238 237.487 207.046C246.816 206.851 254.226 199.124 254.031 189.792C253.836 180.46 246.114 173.053 236.782 173.248C227.448 173.448 220.041 181.168 220.233 190.499Z" fill="#FFD751"/>
<path d="M220.327 194.885C220.471 201.8 226.186 207.279 233.094 207.14C239.999 206.991 245.488 201.276 245.344 194.368C245.2 187.458 239.483 181.974 232.577 182.12C225.664 182.261 220.183 187.977 220.327 194.885Z" fill="#F9C0C3"/>
<path d="M124.594 192.49C124.789 201.821 117.381 209.541 108.047 209.734C98.7135 209.934 90.9938 202.519 90.7987 193.194C90.6036 183.856 98.0113 176.136 107.345 175.943C116.674 175.751 124.399 183.151 124.594 192.49Z" fill="#FFD751"/>
<path d="M124.685 196.871C124.829 203.779 119.347 209.497 112.439 209.646C105.532 209.79 99.8112 204.306 99.6698 197.396C99.5259 190.488 105.01 184.772 111.918 184.624C118.825 184.485 124.541 189.964 124.685 196.871Z" fill="#F9C0C3"/>
<path d="M225.311 186.238C203.902 170.211 147.998 170.845 124.458 186.75C98.5705 204.253 79.7051 278.776 97.2392 301.518C115.327 324.967 239.884 324.18 252.674 298.238C266.748 269.695 249.835 204.594 225.311 186.238Z" fill="#FFD751"/>
<path d="M143.206 283.708C143.54 299.781 157.875 308.567 175.321 308.206C192.77 307.845 206.727 298.47 206.393 282.396C206.059 266.318 191.495 246.618 174.046 246.982C156.602 247.342 142.874 267.637 143.206 283.708Z" fill="#FFF799"/>
<path d="M174.72 241.032C170.836 241.114 162.499 256.405 165.467 260.833C167.983 264.593 181.945 263.925 183.574 260.789C186.132 255.874 178.575 240.956 174.72 241.032Z" fill="#FDB940"/>
<path d="M210.859 259.249C210.925 262.37 212.897 264.857 215.27 264.806C217.645 264.754 219.51 262.189 219.444 259.071C219.383 255.95 217.406 253.463 215.033 253.506C212.663 253.558 210.798 256.125 210.859 259.249Z" fill="#3C2415"/>
<path d="M129.226 260.947C129.29 264.07 131.265 266.557 133.637 266.506C136.007 266.455 137.88 263.89 137.814 260.771C137.748 257.648 135.776 255.161 133.403 255.212C131.033 255.256 129.158 257.828 129.226 260.947Z" fill="#3C2415"/>
<path d="M189.45 285.113L189.584 291.636L184.769 287.713L189.45 285.113Z" fill="white"/>
<path d="M159.863 285.723L160 292.253L164.65 288.127L159.863 285.723Z" fill="white"/>
<path d="M182.809 263.395C184.613 260.496 183.296 258.172 179.875 258.25L168.732 258.482C165.313 258.55 164.087 260.925 166.018 263.746C166.018 263.746 173.08 273.404 174.43 273.373C175.832 273.334 182.809 263.395 182.809 263.395Z" fill="#3C2415"/>
<path d="M174.596 281.34C174.596 281.34 180.511 294.263 191.347 282.971" stroke="#3C2415" stroke-width="1.1179" stroke-miterlimit="10" stroke-linecap="round" stroke-linejoin="round"/>
<path d="M157.928 283.66C169.222 294.496 174.596 281.336 174.596 281.336L174.408 272.354" stroke="#3C2415" stroke-width="1.1179" stroke-miterlimit="10" stroke-linecap="round" stroke-linejoin="round"/>
<path d="M210.131 271.617C210.173 273.707 214.557 275.309 219.919 275.197C225.281 275.082 229.592 273.305 229.55 271.21C229.506 269.118 225.125 267.518 219.758 267.631C214.396 267.743 210.087 269.523 210.131 271.617Z" fill="#F6A1B2"/>
<path d="M118.649 273.52C118.693 275.612 123.074 277.212 128.436 277.1C133.798 276.988 138.114 275.208 138.07 273.113C138.029 271.021 133.642 269.422 128.28 269.526C122.916 269.641 118.605 271.428 118.649 273.52Z" fill="#F6A1B2"/>
<path d="M213.533 241.299C213.533 241.299 221.375 238.39 223.738 246.339" stroke="#3C2415" stroke-width="1.1179" stroke-miterlimit="10" stroke-linecap="round" stroke-linejoin="round"/>
<path d="M133.901 242.955C133.901 242.955 125.942 240.375 123.913 248.414" stroke="#3C2415" stroke-width="1.1179" stroke-miterlimit="10" stroke-linecap="round" stroke-linejoin="round"/>
<path d="M232.78 413.248C229.159 422.663 231.115 435.657 221.913 442.094C217.124 445.449 211.596 447.678 205.968 448.604C202.096 449.236 194.576 448.273 191.019 446.061C184.318 441.894 185.016 424.331 184.884 417.328C184.696 407.084 187.807 391.949 197.536 386.514C204.951 382.374 212.861 384.278 220.879 383.386C226.375 382.779 238.693 370.826 239.178 378.739C239.827 389.37 235.521 406.141 232.78 413.248Z" fill="#FFD751"/>
<path d="M114.859 415.705C118.872 424.956 117.455 438.023 126.916 444.077C131.844 447.225 137.459 449.222 143.124 449.912C147.018 450.385 154.491 449.105 157.951 446.752C164.474 442.31 163.045 424.788 162.882 417.792C162.64 407.544 158.907 392.551 148.964 387.53C141.38 383.702 133.558 385.938 125.509 385.374C119.994 385.001 107.188 373.568 107.031 381.495C106.827 392.136 111.83 408.722 114.859 415.705Z" fill="#FFD751"/>
<path d="M69.4279 332.389C69.4279 332.389 65.5143 338.572 69.4864 342.301C72.2978 339.372 75.948 337.224 80.1029 336.378C77.923 338.185 75.9675 343.407 75.9675 343.407C75.9675 343.407 79.447 340.204 87.891 341.457C74.2924 350.296 76.8502 357.404 71.4858 362.051C69.2182 364.019 63.3832 365.172 61.7983 363.456C48.1972 348.728 69.4279 332.389 69.4279 332.389Z" fill="#F58220"/>
</g>
<defs>
<clipPath id="clip0_176_2225">
<rect width="340" height="415" rx="30" fill="white"/>
</clipPath>
</defs>
</svg>
