<svg width="340" height="415" viewBox="0 0 340 415" fill="none" xmlns="http://www.w3.org/2000/svg">
<g clip-path="url(#clip0_168_1714)">
<rect width="340" height="415" rx="30" fill="#ADE7FF"/>
<path fill-rule="evenodd" clip-rule="evenodd" d="M28.125 45.0001C28.125 44.5028 28.3225 44.0259 28.6742 43.6743C29.0258 43.3226 29.5027 43.1251 30 43.1251H55.475L48.675 36.3251C48.3438 35.9697 48.1635 35.4996 48.1721 35.0138C48.1806 34.528 48.3774 34.0646 48.7209 33.7211C49.0645 33.3775 49.5279 33.1807 50.0137 33.1722C50.4994 33.1636 50.9696 33.3439 51.325 33.6751L61.325 43.6751C61.6761 44.0267 61.8734 44.5032 61.8734 45.0001C61.8734 45.497 61.6761 45.9735 61.325 46.3251L51.325 56.3251C51.1533 56.5093 50.9463 56.6571 50.7163 56.7596C50.4863 56.862 50.2381 56.9171 49.9863 56.9216C49.7346 56.926 49.4845 56.8797 49.251 56.7854C49.0175 56.6911 48.8055 56.5507 48.6274 56.3727C48.4494 56.1947 48.309 55.9826 48.2147 55.7491C48.1204 55.5156 48.0741 55.2656 48.0785 55.0138C48.083 54.762 48.1381 54.5138 48.2405 54.2838C48.343 54.0538 48.4908 53.8468 48.675 53.6751L55.475 46.8751H30C29.5027 46.8751 29.0258 46.6776 28.6742 46.3259C28.3225 45.9743 28.125 45.4974 28.125 45.0001Z" fill="white"/>
<path d="M120.446 321.828C116.878 309.118 116.546 307.119 105.754 309.871C92.7682 313.18 81.568 322.684 79.0104 337.819C77.6654 345.74 80.8307 359.058 78.6944 370.585C78.6944 370.585 76.7471 377.115 68.6556 378.693C68.6556 378.693 71.6507 380.251 74.7026 380.783C72.8688 383.516 70.4003 385.942 67 387.859C75.3967 397.717 107.844 391.192 120.727 365.524C126.439 354.124 124.197 335.215 120.446 321.828Z" fill="#FFD751"/>
<path d="M120.446 321.828C116.878 309.118 115.368 307.119 104.573 309.871C91.5906 313.18 80.385 322.684 77.8274 337.819C77.8058 337.957 77.8058 338.129 77.7842 338.281C94.6533 341.948 111.331 351.544 121.097 364.565C126.263 353.095 124.097 334.87 120.446 321.828Z" fill="#43D88E"/>
<path d="M261.919 338.277C263.083 346.247 260.096 359.262 262.191 370.581C262.191 370.581 264.136 377.112 272.227 378.689C272.227 378.689 269.232 380.248 266.18 380.78C268.014 383.513 270.483 385.938 273.886 387.856C265.489 397.713 233.042 391.188 220.159 365.52C220.011 365.223 219.927 364.864 219.789 364.561C229.558 351.544 245.052 341.948 261.919 338.277Z" fill="#FFD751"/>
<path d="M220.443 321.828C224.003 309.118 225.521 307.119 236.313 309.871C249.296 313.18 260.493 322.684 263.054 337.819C263.081 337.957 263.081 338.129 263.102 338.281C246.236 341.948 229.559 351.544 219.787 364.565C214.621 353.095 216.787 334.87 220.443 321.828Z" fill="#43D88E"/>
<path d="M211.369 423.861C194.222 439.939 148.727 440.452 129.309 425.403C107.951 408.853 93.4314 345.727 107.313 323.181C121.636 299.936 222.98 298.175 233.821 323.222C245.758 350.791 231.012 405.45 211.369 423.861Z" fill="#FFD751"/>
<path d="M235.495 385.963C240.845 363.768 241.947 339.81 235.549 323.959C224.414 296.359 120.325 298.29 105.62 323.924C98.0548 337.103 98.757 362.869 104.31 386.89C148.379 397.885 193.681 398.049 235.495 385.963Z" fill="#74E7AE"/>
<path d="M106.25 156.716C112.643 151.031 121.356 146.566 128.783 142.877C135.497 139.552 136.547 134.313 141.557 128.925C146.338 123.777 152.174 119.045 158.74 116.987C153.789 121.722 154.899 132.079 149.933 138.747C159.469 134.313 171.874 114.643 183.42 116.074C174.688 119.666 176.3 133.621 174.477 136.714C180.141 131.928 187.103 121.778 193.448 119.71C190.109 124.574 188.519 129.179 189.421 135.19C190.336 141.265 197.707 143.169 202.598 144.516C210.236 146.642 217.857 149.891 224.264 154.604C254.977 177.207 278.868 275.982 258.901 306.758C238.308 338.514 92.5625 340.909 76.9682 306.709C59.8047 269.066 78.008 181.857 106.25 156.716Z" fill="#FFD751"/>
<path d="M128.782 267.923C128.782 272.62 125.887 276.431 122.314 276.431C118.741 276.431 115.843 272.62 115.843 267.923C115.843 263.227 118.741 259.416 122.314 259.416C125.89 259.413 128.782 263.224 128.782 267.923Z" fill="#3C2415"/>
<path d="M130.271 286.528C130.271 289.682 123.718 292.226 115.638 292.226C107.557 292.226 101.005 289.682 101.005 286.528C101.005 283.373 107.557 280.826 115.638 280.826C123.718 280.826 130.271 283.373 130.271 286.528Z" fill="#F6A1B2"/>
<path d="M124.196 240.975C124.196 240.975 112.288 236.838 108.982 248.883" stroke="#3C2415" stroke-width="1.0818" stroke-miterlimit="10" stroke-linecap="round" stroke-linejoin="round"/>
<path d="M207.756 267.923C207.756 272.62 210.651 276.431 214.224 276.431C217.797 276.431 220.695 272.62 220.695 267.923C220.695 263.227 217.797 259.416 214.224 259.416C210.651 259.413 207.756 263.224 207.756 267.923Z" fill="#3C2415"/>
<path d="M206.264 286.528C206.264 289.682 212.818 292.226 220.897 292.226C228.985 292.226 235.537 289.682 235.537 286.528C235.537 283.373 228.985 280.826 220.897 280.826C212.818 280.826 206.264 283.373 206.264 286.528Z" fill="#F6A1B2"/>
<path d="M212.341 240.975C212.341 240.975 224.251 236.838 227.554 248.883" stroke="#3C2415" stroke-width="1.0818" stroke-miterlimit="10" stroke-linecap="round" stroke-linejoin="round"/>
<path d="M181.754 278.918L169.984 293.37L158.217 278.918H181.754Z" fill="#DE761C"/>
<path d="M158.217 278.919L169.984 264.48L181.754 278.919L169.984 281.852L158.217 278.919Z" fill="#F58220"/>
</g>
<defs>
<clipPath id="clip0_168_1714">
<rect width="340" height="415" rx="30" fill="white"/>
</clipPath>
</defs>
</svg>
