<svg width="340" height="415" viewBox="0 0 340 415" fill="none" xmlns="http://www.w3.org/2000/svg">
<g clip-path="url(#clip0_180_3060)">
<rect width="340" height="415" rx="30" fill="#F17097"/>
<path fill-rule="evenodd" clip-rule="evenodd" d="M28.125 45.0001C28.125 44.5028 28.3225 44.0259 28.6742 43.6743C29.0258 43.3226 29.5027 43.1251 30 43.1251H55.475L48.675 36.3251C48.3438 35.9697 48.1635 35.4996 48.1721 35.0138C48.1806 34.528 48.3774 34.0646 48.7209 33.7211C49.0645 33.3775 49.5279 33.1807 50.0137 33.1722C50.4994 33.1636 50.9696 33.3439 51.325 33.6751L61.325 43.6751C61.6761 44.0267 61.8734 44.5032 61.8734 45.0001C61.8734 45.497 61.6761 45.9735 61.325 46.3251L51.325 56.3251C51.1533 56.5093 50.9463 56.6571 50.7163 56.7596C50.4863 56.862 50.2381 56.9171 49.9863 56.9216C49.7346 56.926 49.4845 56.8797 49.251 56.7854C49.0175 56.6911 48.8055 56.5507 48.6274 56.3727C48.4494 56.1947 48.309 55.9826 48.2147 55.7491C48.1204 55.5156 48.0741 55.2656 48.0785 55.0138C48.083 54.762 48.1381 54.5138 48.2405 54.2838C48.343 54.0538 48.4908 53.8468 48.675 53.6751L55.475 46.8751H30C29.5027 46.8751 29.0258 46.6776 28.6742 46.3259C28.3225 45.9743 28.125 45.4974 28.125 45.0001Z" fill="white"/>
<path d="M279.29 267.603C273.86 222.799 265.319 171.803 235.239 134.081C206.627 98.2032 130.328 98.2032 99.3803 132.719C67.1699 168.643 65.8469 217.26 61.2308 262.156C58.5699 288.043 79.5793 304.273 90.0037 295.004C68.7067 311.945 86.7774 345.722 104.311 346.589C104.946 346.464 117.358 346.128 118.673 346.765C126.682 350.65 137.154 350.182 145.626 353.08C153.261 355.69 160.535 358.842 168.476 360.158V360.309C168.617 360.287 168.756 360.256 168.898 360.234C169.04 360.256 169.177 360.287 169.321 360.309V360.158C177.261 358.84 184.537 355.69 192.171 353.08C200.643 350.182 211.115 350.65 219.122 346.765C220.437 346.128 232.85 346.464 233.484 346.589C251.018 345.721 269.089 311.944 247.793 295.004C258.217 304.273 282.925 297.58 279.29 267.603Z" fill="#F2E5AD"/>
<path d="M260.984 237.179C262.544 249.875 255.532 261.185 245.327 262.44C235.119 263.691 225.582 254.414 224.022 241.717C222.463 229.021 229.474 217.711 239.682 216.459C249.89 215.207 259.427 224.484 260.984 237.179Z" fill="#FFB37F"/>
<path d="M110.773 238.558C111.426 251.331 103.629 262.115 93.3569 262.64C83.0865 263.164 74.2332 253.232 73.5792 240.456C72.9265 227.683 80.724 216.9 90.9944 216.375C101.266 215.85 110.119 225.782 110.773 238.558Z" fill="#F29555"/>
<path d="M152.734 314.152C149.675 308.351 142.494 306.128 136.696 309.183C135.952 309.574 118.271 319.016 100.854 338.532C85.2422 356.029 73.6353 378.145 68.3693 401.014C64.8118 416.454 57.8373 452.669 74.0576 464.098C90.6554 475.794 93.5901 454.534 91.7644 443.225C101.862 453.631 105.919 447.001 101.486 436.525C95.0507 421.327 88.9932 416.157 93.7946 398.75C98.2689 382.517 106.918 367.578 118.007 354.977C132.538 338.468 147.523 330.319 147.795 330.173C153.573 327.109 155.785 319.943 152.734 314.152Z" fill="#FFB37F"/>
<path d="M278.868 427.352C277.769 420.116 276.112 413.267 275.018 408.077C269.456 381.665 257.78 357.237 239.234 337.481C221.327 318.407 203.414 309.423 202.661 309.048C196.784 306.139 189.663 308.542 186.752 314.417C183.849 320.286 186.24 327.392 192.097 330.312C192.374 330.448 207.56 338.219 222.503 354.353C233.397 366.118 241.843 379.86 246.929 395.082C251.413 408.505 250.594 418.771 245.282 431.685C241.772 440.217 239.172 458.583 252.493 444.143C250.955 455.498 254.425 476.67 270.722 464.564C281.032 456.902 281.002 441.398 278.868 427.352Z" fill="#FFC695"/>
<path d="M211.823 315.866C205.095 308.526 182.189 297.449 170.168 300.677C158.145 297.449 135.238 308.528 128.511 315.866C118.58 326.702 111.746 345.43 114.546 433.989H170.003H170.333H231.236C234.038 345.43 221.754 326.702 211.823 315.866Z" fill="#F29555"/>
<path d="M211.823 315.868C210.385 314.301 208.205 312.563 205.555 310.829C198.108 321.425 185.81 328.463 172.108 328.463C157.686 328.463 144.818 320.668 137.528 309.131C133.632 311.403 130.418 313.788 128.51 315.868C118.578 326.704 111.744 345.433 114.544 433.991H231.235C234.038 345.433 221.754 326.704 211.823 315.868Z" fill="#FFD4DD"/>
<path d="M171.541 143.055C150.976 144.008 129.64 149.676 114.317 160.135C91.7437 175.543 83.4421 207.728 86.738 232.342C95.4101 297.119 157.513 311.411 171.541 312.539V143.055Z" fill="#FFC695"/>
<path d="M170.156 143.055C190.719 144.008 210.695 149.676 226.017 160.135C248.59 175.543 252.39 207.555 250.871 232.342C248.811 265.904 212.479 311.318 170.156 312.539V143.055Z" fill="#FFC695"/>
<path d="M131.214 216.686C131.214 216.686 119.306 212.549 116 224.594" stroke="#3C2415" stroke-width="1.0818" stroke-miterlimit="10" stroke-linecap="round" stroke-linejoin="round"/>
<path d="M209 217.686C209 217.686 220.91 213.549 224.214 225.594" stroke="#3C2415" stroke-width="1.0818" stroke-miterlimit="10" stroke-linecap="round" stroke-linejoin="round"/>
<path d="M137.96 233.92C137.96 238.8 134.003 242.757 129.123 242.757C124.24 242.757 120.283 238.8 120.283 233.92C120.283 229.037 124.24 225.08 129.123 225.08C134.003 225.079 137.96 229.037 137.96 233.92Z" fill="#333331"/>
<path d="M220.049 233.92C220.049 238.8 216.092 242.757 211.21 242.757C206.33 242.757 202.373 238.8 202.373 233.92C202.373 229.037 206.33 225.08 211.21 225.08C216.092 225.079 220.049 229.037 220.049 233.92Z" fill="#333331"/>
<path d="M182.881 255.055C182.881 258.818 179.7 261.868 175.776 261.868H164.555C160.629 261.868 157.449 258.818 157.449 255.055C157.449 251.293 160.629 248.242 164.555 248.242H175.776C179.7 248.242 182.881 251.294 182.881 255.055Z" fill="#F29555"/>
<path d="M169.385 120.911C139.428 119.957 113.013 130.773 97.9894 157.63C88.3294 174.894 81.6137 198.661 82.7405 218.472C83.5675 232.99 97.4635 242.94 107.257 227.82C112.547 219.653 111.219 209.238 111.888 200.029C119.041 212.14 140.373 197.21 138.913 184.812C154.964 198.157 183.399 193.331 200.941 185.401C201.756 185.032 202.561 184.64 203.354 184.226C248.831 196.214 250.872 232.342 250.872 232.342C250.872 232.342 269.301 124.09 169.385 120.911Z" fill="#FCF2C8"/>
<path d="M198.143 369.977L199.711 328.334L173.568 342.432L173.445 341.485L147.76 326.064L147.408 367.737L173.598 353.209L198.143 369.977Z" fill="#FF789F"/>
<path d="M179.917 337.547H167.201V357.532H179.917V337.547Z" fill="#FFABBF"/>
</g>
<defs>
<clipPath id="clip0_180_3060">
<rect width="340" height="415" rx="30" fill="white"/>
</clipPath>
</defs>
</svg>
