<svg width="340" height="415" viewBox="0 0 340 415" fill="none" xmlns="http://www.w3.org/2000/svg">
<g clip-path="url(#clip0_180_3028)">
<rect width="340" height="415" rx="30" fill="#ADE7FF"/>
<path fill-rule="evenodd" clip-rule="evenodd" d="M28.125 45.0001C28.125 44.5028 28.3225 44.0259 28.6742 43.6743C29.0258 43.3226 29.5027 43.1251 30 43.1251H55.475L48.675 36.3251C48.3438 35.9697 48.1635 35.4996 48.1721 35.0138C48.1806 34.528 48.3774 34.0646 48.7209 33.7211C49.0645 33.3775 49.5279 33.1807 50.0137 33.1722C50.4994 33.1636 50.9696 33.3439 51.325 33.6751L61.325 43.6751C61.6761 44.0267 61.8734 44.5032 61.8734 45.0001C61.8734 45.497 61.6761 45.9735 61.325 46.3251L51.325 56.3251C51.1533 56.5093 50.9463 56.6571 50.7163 56.7596C50.4863 56.862 50.2381 56.9171 49.9863 56.9216C49.7346 56.926 49.4845 56.8797 49.251 56.7854C49.0175 56.6911 48.8055 56.5507 48.6274 56.3727C48.4494 56.1947 48.309 55.9826 48.2147 55.7491C48.1204 55.5156 48.0741 55.2656 48.0785 55.0138C48.083 54.762 48.1381 54.5138 48.2405 54.2838C48.343 54.0538 48.4908 53.8468 48.675 53.6751L55.475 46.8751H30C29.5027 46.8751 29.0258 46.6776 28.6742 46.3259C28.3225 45.9743 28.125 45.4974 28.125 45.0001Z" fill="white"/>
<path d="M154.609 310.788C150.72 304.565 142.522 302.677 136.302 306.563C135.503 307.061 116.546 319.049 98.7131 342.265C82.7281 363.075 71.5935 388.715 67.5946 414.671C64.895 432.193 60.0883 473.187 79.1303 484.61C98.6161 496.297 100.144 472.331 97.1747 459.857C109.302 470.639 113.283 462.906 107.472 451.581C99.0413 435.148 91.8565 429.875 95.7823 410.053C99.4425 391.57 107.865 374.185 119.207 359.209C134.067 339.589 150.121 329.263 150.413 329.075C156.612 325.181 158.491 317 154.609 310.788Z" fill="#FFB37F"/>
<path d="M278.985 446.303C278.558 438.125 277.467 430.314 276.824 424.416C273.547 394.388 263.239 365.892 244.768 341.846C226.933 318.627 207.976 306.643 207.178 306.142C200.956 302.254 192.761 304.144 188.871 310.369C184.989 316.581 186.867 324.76 193.066 328.658C193.358 328.843 209.413 339.169 224.272 358.789C235.107 373.095 242.996 389.327 246.979 406.84C250.49 422.285 248.445 433.626 241.104 447.423C236.254 456.536 231.33 476.703 247.76 462.094C244.792 474.568 246.32 498.531 265.804 486.847C278.133 479.449 279.811 462.181 278.985 446.303Z" fill="#FFC695"/>
<path d="M212.7 311.587C206.14 304.43 183.804 293.628 172.081 296.776C160.358 293.629 138.023 304.431 131.462 311.587C121.779 322.153 109.8 340.415 112.532 426.768H171.921H172.242H231.631C234.362 340.415 222.385 322.153 212.7 311.587Z" fill="#F29555"/>
<path d="M145.429 328.318C145.288 328.041 145.148 327.763 145.007 327.485C144.479 326.545 143.95 325.605 143.425 324.663C139.734 319.502 136.389 314.125 133.315 308.58C127.172 312.916 112.604 324.184 98.7143 342.265C82.7292 363.076 71.5947 388.715 67.5957 414.671C67.2623 416.833 66.8982 419.353 66.5488 422.128C75.9403 421.849 85.3491 422.268 94.7592 422.405C94.5294 418.911 94.819 414.921 95.7835 410.052C99.4436 391.569 107.867 374.184 119.208 359.208C129.926 345.059 141.262 335.744 146.861 331.579C146.381 330.493 145.91 329.402 145.429 328.318Z" fill="#3A2C24"/>
<path d="M244.768 341.845C234.03 327.868 222.892 317.966 215.549 312.186C211.454 320.389 207.647 328.719 204.004 337.125C209.8 342.164 217.171 349.411 224.272 358.788C235.106 373.094 242.995 389.326 246.978 406.839C248.032 411.468 248.574 415.724 248.635 419.792C257.915 420.083 267.202 420.773 276.484 421.675C272.889 392.657 262.676 365.157 244.768 341.845Z" fill="#3A2C24"/>
<path d="M212.701 310.258C211.942 309.431 212.293 309.882 211.155 308.984C188.005 325.631 155.761 327.409 132.394 308.004C132.061 308.316 131.743 308.626 131.464 308.93C121.781 319.496 109.802 340.415 112.534 426.768H231.633C234.363 340.415 222.386 320.824 212.701 310.258Z" fill="#E1F7F9"/>
<path d="M130.237 310.303C120.801 321.144 106.615 341.694 112.531 426.768H141.249C136.327 388.951 132.381 348.358 130.237 310.303Z" fill="#3A2C24"/>
<path d="M146.474 297.41L112.816 305.381L135.402 424.951H148.245L146.474 297.41Z" fill="#4C3F38"/>
<path d="M214.029 311.587C213.273 310.762 210.971 309.888 209.836 308.994C208.751 348.336 205.437 387.538 202.512 426.768H231.631C236.812 338.152 223.714 322.153 214.029 311.587Z" fill="#3A2C24"/>
<path d="M196.958 297.41L230.614 305.381L208.029 424.951H195.188L196.958 297.41Z" fill="#4C3F38"/>
<path d="M267.34 224.391C268.86 236.771 262.024 247.798 252.072 249.02C242.118 250.242 232.818 241.196 231.297 228.815C229.779 216.436 236.614 205.408 246.567 204.187C256.522 202.965 265.822 212.011 267.34 224.391Z" fill="#FFB37F"/>
<path d="M110.263 226.34C110.483 238.812 102.534 249.064 92.5074 249.242C82.4822 249.419 74.1761 239.452 73.9556 226.981C73.7364 214.509 81.6851 204.257 91.7116 204.078C101.737 203.902 110.043 213.869 110.263 226.34Z" fill="#F29555"/>
<path d="M173.42 143.076C153.368 144.006 132.562 149.533 117.621 159.731C95.6096 174.757 89.594 205.951 90.7286 230.14C94.216 304.541 154.4 306.809 173.42 308.339V143.076Z" fill="#FFC695"/>
<path d="M172.07 143.076C192.121 144.006 211.599 149.533 226.54 159.731C248.551 174.757 252.258 205.971 250.775 230.14C248.767 262.866 235.04 308.923 172.068 308.339V143.076H172.07Z" fill="#FFC695"/>
<path d="M132.214 212.686C132.214 212.686 120.306 208.549 117 220.594" stroke="#3C2415" stroke-width="1.0818" stroke-miterlimit="10" stroke-linecap="round" stroke-linejoin="round"/>
<path d="M210 213.686C210 213.686 221.91 209.549 225.214 221.594" stroke="#3C2415" stroke-width="1.0818" stroke-miterlimit="10" stroke-linecap="round" stroke-linejoin="round"/>
<path d="M132.062 240.293C136.821 240.293 140.68 236.435 140.68 231.675C140.68 226.915 136.821 223.057 132.062 223.057C127.302 223.057 123.443 226.915 123.443 231.675C123.443 236.435 127.302 240.293 132.062 240.293Z" fill="#333331"/>
<path d="M212.105 240.293C216.864 240.293 220.723 236.435 220.723 231.675C220.723 226.915 216.864 223.057 212.105 223.057C207.345 223.057 203.486 226.915 203.486 231.675C203.486 236.435 207.345 240.293 212.105 240.293Z" fill="#333331"/>
<path d="M184.48 250.513C184.48 255.161 181.378 258.927 177.552 258.927H166.611C162.784 258.927 159.682 255.161 159.682 250.513C159.682 245.866 162.784 242.1 166.611 242.1H177.552C181.378 242.1 184.48 245.866 184.48 250.513Z" fill="#F29555"/>
<path d="M253.364 185.391C253.118 178.823 251.972 171.282 249.847 165.019C244.275 148.611 232.074 136.151 215.253 130.724C201.743 126.364 142.295 126.779 128.783 131.141C111.963 136.569 99.7627 149.029 94.1908 165.436C92.0638 171.699 90.9186 179.24 90.6728 185.808C90.4138 192.764 94.216 207.95 94.216 207.95C98.6441 182.265 110.913 176.168 129.623 177.837C145.364 179.24 156.201 187.406 172.909 186.559C172.915 186.434 172.922 186.302 172.927 186.176C188.621 186.374 199.212 178.241 214.412 177.42C239.469 176.063 251.592 206.648 251.592 206.648C253.375 199.754 253.623 192.349 253.364 185.391Z" fill="#3A2C24"/>
<path d="M94.2148 163.669C113.92 123.712 150.966 119.521 188.095 103.245C197.491 99.1255 198.579 96.0712 207.387 103.615C227.918 121.199 243.318 144.774 250.983 170.754" fill="#3A2C24"/>
</g>
<defs>
<clipPath id="clip0_180_3028">
<rect width="340" height="415" rx="30" fill="white"/>
</clipPath>
</defs>
</svg>
