<svg width="75" height="74" viewBox="0 0 75 74" fill="none" xmlns="http://www.w3.org/2000/svg">
<path d="M30.7881 8.91016C34.6624 5.65248 40.3376 5.65247 44.2119 8.91016C46.6626 10.9707 49.7007 12.2172 52.8945 12.4688H52.8955L53.0947 12.4854C58.0482 12.8754 61.9915 16.8158 62.3926 21.7744C62.6505 24.9633 63.9173 27.9933 66.0098 30.416C69.276 34.1977 69.276 39.8023 66.0098 43.584C63.9173 46.0067 62.6505 49.0367 62.3926 52.2256C61.9915 57.1842 58.0482 61.1246 53.0947 61.5146L52.8955 61.5312H52.8945C49.7007 61.7828 46.6626 63.0293 44.2119 65.0898C40.3376 68.3475 34.6624 68.3475 30.7881 65.0898C28.3373 63.0292 25.2986 61.7827 22.1045 61.5312L21.9053 61.5146C16.9518 61.1246 13.0085 57.1842 12.6074 52.2256C12.3495 49.0367 11.0827 46.0067 8.99023 43.584C5.72397 39.8023 5.72397 34.1977 8.99023 30.416C11.0827 27.9933 12.3495 24.9633 12.6074 21.7744C13.0085 16.8158 16.9518 12.8754 21.9053 12.4854L22.1055 12.4688C25.2994 12.2172 28.3374 10.9707 30.7881 8.91016Z" fill="#FFC200" stroke="#FFDE00" stroke-width="5"/>
<path d="M32.1459 47C31.4059 47 30.8559 46.83 30.4959 46.49C30.1559 46.13 29.9859 45.61 29.9859 44.93C29.9859 44.49 30.0959 44.08 30.3159 43.7C30.5359 43.32 30.8359 42.93 31.2159 42.53L36.8559 36.59C37.6959 35.69 38.2959 34.89 38.6559 34.19C39.0359 33.49 39.2259 32.79 39.2259 32.09C39.2259 31.21 38.9359 30.54 38.3559 30.08C37.7959 29.62 36.9759 29.39 35.8959 29.39C35.3159 29.39 34.7159 29.48 34.0959 29.66C33.4959 29.82 32.8659 30.09 32.2059 30.47C31.7659 30.71 31.3559 30.8 30.9759 30.74C30.6159 30.66 30.3059 30.49 30.0459 30.23C29.7859 29.95 29.6159 29.62 29.5359 29.24C29.4559 28.86 29.4959 28.48 29.6559 28.1C29.8159 27.72 30.1159 27.4 30.5559 27.14C31.4359 26.6 32.3959 26.2 33.4359 25.94C34.4759 25.66 35.5059 25.52 36.5259 25.52C38.1059 25.52 39.4359 25.76 40.5159 26.24C41.5959 26.7 42.4159 27.38 42.9759 28.28C43.5359 29.18 43.8159 30.28 43.8159 31.58C43.8159 32.42 43.6859 33.24 43.4259 34.04C43.1659 34.84 42.7559 35.65 42.1959 36.47C41.6559 37.27 40.9359 38.13 40.0359 39.05L34.7859 44.39V43.19H42.9159C43.5559 43.19 44.0359 43.35 44.3559 43.67C44.6959 43.99 44.8659 44.46 44.8659 45.08C44.8659 45.7 44.6959 46.18 44.3559 46.52C44.0359 46.84 43.5559 47 42.9159 47H32.1459Z" fill="white"/>
</svg>
