<svg width="75" height="74" viewBox="0 0 75 74" fill="none" xmlns="http://www.w3.org/2000/svg">
<path d="M30.7881 8.91016C34.6624 5.65248 40.3376 5.65247 44.2119 8.91016C46.6626 10.9707 49.7007 12.2172 52.8945 12.4688H52.8955L53.0947 12.4854C58.0482 12.8754 61.9915 16.8158 62.3926 21.7744C62.6505 24.9633 63.9173 27.9933 66.0098 30.416C69.276 34.1977 69.276 39.8023 66.0098 43.584C63.9173 46.0067 62.6505 49.0367 62.3926 52.2256C61.9915 57.1842 58.0482 61.1246 53.0947 61.5146L52.8955 61.5312H52.8945C49.7007 61.7828 46.6626 63.0293 44.2119 65.0898C40.3376 68.3475 34.6624 68.3475 30.7881 65.0898C28.3373 63.0292 25.2986 61.7827 22.1045 61.5312L21.9053 61.5146C16.9518 61.1246 13.0085 57.1842 12.6074 52.2256C12.3495 49.0367 11.0827 46.0067 8.99023 43.584C5.72397 39.8023 5.72397 34.1977 8.99023 30.416C11.0827 27.9933 12.3495 24.9633 12.6074 21.7744C13.0085 16.8158 16.9518 12.8754 21.9053 12.4854L22.1055 12.4688C25.2994 12.2172 28.3374 10.9707 30.7881 8.91016Z" fill="#25B868" stroke="#3FC07B" stroke-width="5"/>
<path d="M36.4959 47.33C35.4359 47.33 34.3559 47.21 33.2559 46.97C32.1759 46.71 31.2359 46.35 30.4359 45.89C29.9159 45.61 29.5559 45.28 29.3559 44.9C29.1759 44.5 29.1059 44.11 29.1459 43.73C29.2059 43.35 29.3659 43.02 29.6259 42.74C29.8859 42.44 30.2159 42.25 30.6159 42.17C31.0359 42.09 31.4959 42.17 31.9959 42.41C32.7759 42.79 33.5159 43.06 34.2159 43.22C34.9159 43.38 35.6159 43.46 36.3159 43.46C37.1159 43.46 37.7859 43.36 38.3259 43.16C38.8659 42.94 39.2759 42.63 39.5559 42.23C39.8359 41.83 39.9759 41.33 39.9759 40.73C39.9759 39.89 39.6859 39.26 39.1059 38.84C38.5259 38.42 37.6759 38.21 36.5559 38.21H34.7859C34.1259 38.21 33.6159 38.05 33.2559 37.73C32.9159 37.39 32.7459 36.93 32.7459 36.35C32.7459 35.75 32.9159 35.29 33.2559 34.97C33.6159 34.63 34.1259 34.46 34.7859 34.46H36.1059C36.7859 34.46 37.3559 34.36 37.8159 34.16C38.2959 33.94 38.6659 33.64 38.9259 33.26C39.2059 32.88 39.3459 32.41 39.3459 31.85C39.3459 31.05 39.0659 30.44 38.5059 30.02C37.9659 29.6 37.1759 29.39 36.1359 29.39C35.4959 29.39 34.8659 29.47 34.2459 29.63C33.6259 29.77 32.9559 30.03 32.2359 30.41C31.7959 30.63 31.3859 30.7 31.0059 30.62C30.6259 30.54 30.3059 30.36 30.0459 30.08C29.8059 29.8 29.6459 29.48 29.5659 29.12C29.5059 28.74 29.5559 28.36 29.7159 27.98C29.8959 27.6 30.2159 27.29 30.6759 27.05C31.5359 26.55 32.4659 26.17 33.4659 25.91C34.4859 25.65 35.5159 25.52 36.5559 25.52C38.0759 25.52 39.3759 25.75 40.4559 26.21C41.5359 26.67 42.3659 27.33 42.9459 28.19C43.5259 29.03 43.8159 30.05 43.8159 31.25C43.8159 32.07 43.6559 32.82 43.3359 33.5C43.0159 34.18 42.5659 34.76 41.9859 35.24C41.4259 35.7 40.7359 36.03 39.9159 36.23V35.84C41.3359 36.08 42.4459 36.67 43.2459 37.61C44.0459 38.55 44.4459 39.73 44.4459 41.15C44.4459 42.41 44.1259 43.51 43.4859 44.45C42.8459 45.37 41.9259 46.08 40.7259 46.58C39.5459 47.08 38.1359 47.33 36.4959 47.33Z" fill="white"/>
</svg>
