<svg width="75" height="74" viewBox="0 0 75 74" fill="none" xmlns="http://www.w3.org/2000/svg">
<path d="M30.7881 8.91016C34.6624 5.65248 40.3376 5.65247 44.2119 8.91016C46.6626 10.9707 49.7007 12.2172 52.8945 12.4688H52.8955L53.0947 12.4854C58.0482 12.8754 61.9915 16.8158 62.3926 21.7744C62.6505 24.9633 63.9173 27.9933 66.0098 30.416C69.276 34.1977 69.276 39.8023 66.0098 43.584C63.9173 46.0067 62.6505 49.0367 62.3926 52.2256C61.9915 57.1842 58.0482 61.1246 53.0947 61.5146L52.8955 61.5312H52.8945C49.7007 61.7828 46.6626 63.0293 44.2119 65.0898C40.3376 68.3475 34.6624 68.3475 30.7881 65.0898C28.3373 63.0292 25.2986 61.7827 22.1045 61.5312L21.9053 61.5146C16.9518 61.1246 13.0085 57.1842 12.6074 52.2256C12.3495 49.0367 11.0827 46.0067 8.99023 43.584C5.72397 39.8023 5.72397 34.1977 8.99023 30.416C11.0827 27.9933 12.3495 24.9633 12.6074 21.7744C13.0085 16.8158 16.9518 12.8754 21.9053 12.4854L22.1055 12.4688C25.2994 12.2172 28.3374 10.9707 30.7881 8.91016Z" fill="#FF4B4B" stroke="#FF9797" stroke-width="5"/>
<path d="M32.7159 47C32.0759 47 31.5859 46.83 31.2459 46.49C30.9059 46.15 30.7359 45.68 30.7359 45.08C30.7359 44.46 30.9059 43.99 31.2459 43.67C31.5859 43.35 32.0759 43.19 32.7159 43.19H35.7459V29.66H37.9359L33.5559 32.33C33.0959 32.61 32.6659 32.72 32.2659 32.66C31.8859 32.6 31.5559 32.43 31.2759 32.15C30.9959 31.87 30.8059 31.54 30.7059 31.16C30.6259 30.76 30.6659 30.37 30.8259 29.99C30.9859 29.59 31.2859 29.25 31.7259 28.97L35.8959 26.45C36.3159 26.19 36.7359 25.98 37.1559 25.82C37.5959 25.66 38.0259 25.58 38.4459 25.58C39.0459 25.58 39.5159 25.74 39.8559 26.06C40.2159 26.36 40.3959 26.83 40.3959 27.47V43.19H43.1259C43.7459 43.19 44.2259 43.35 44.5659 43.67C44.9059 43.99 45.0759 44.46 45.0759 45.08C45.0759 45.7 44.9059 46.18 44.5659 46.52C44.2259 46.84 43.7459 47 43.1259 47H32.7159Z" fill="white"/>
</svg>
