<svg width="340" height="415" viewBox="0 0 340 415" fill="none" xmlns="http://www.w3.org/2000/svg">
<g clip-path="url(#clip0_176_2221)">
<rect width="340" height="415" rx="30" fill="#FFD751"/>
<path fill-rule="evenodd" clip-rule="evenodd" d="M28.125 45.0001C28.125 44.5028 28.3225 44.0259 28.6742 43.6743C29.0258 43.3226 29.5027 43.1251 30 43.1251H55.475L48.675 36.3251C48.3438 35.9697 48.1635 35.4996 48.1721 35.0138C48.1806 34.528 48.3774 34.0646 48.7209 33.7211C49.0645 33.3775 49.5279 33.1807 50.0137 33.1722C50.4994 33.1636 50.9696 33.3439 51.325 33.6751L61.325 43.6751C61.6761 44.0267 61.8734 44.5032 61.8734 45.0001C61.8734 45.497 61.6761 45.9735 61.325 46.3251L51.325 56.3251C51.1533 56.5093 50.9463 56.6571 50.7163 56.7596C50.4863 56.862 50.2381 56.9171 49.9863 56.9216C49.7346 56.926 49.4845 56.8797 49.251 56.7854C49.0175 56.6911 48.8055 56.5507 48.6274 56.3727C48.4494 56.1947 48.309 55.9826 48.2147 55.7491C48.1204 55.5156 48.0741 55.2656 48.0785 55.0138C48.083 54.762 48.1381 54.5138 48.2405 54.2838C48.343 54.0538 48.4908 53.8468 48.675 53.6751L55.475 46.8751H30C29.5027 46.8751 29.0258 46.6776 28.6742 46.3259C28.3225 45.9743 28.125 45.4974 28.125 45.0001Z" fill="white"/>
<path d="M119.9 297.593C138.502 282.053 187.852 281.556 208.927 296.1C232.095 312.091 250.119 382.004 235.059 403.789C219.524 426.263 109.576 427.96 97.8097 403.751C84.8625 377.11 98.5898 315.386 119.9 297.593Z" fill="#414042"/>
<path d="M100.731 417.572C104.999 428.002 103.11 442.559 113.539 449.532C118.966 453.166 125.19 455.533 131.496 456.431C135.833 457.048 144.208 455.79 148.132 453.246C155.518 448.438 154.33 428.842 154.311 421.019C154.284 409.565 150.461 392.741 139.467 386.899C131.092 382.441 122.3 384.76 113.325 383.954C107.173 383.402 93.1413 370.334 92.7837 379.182C92.306 391.071 97.5074 409.702 100.731 417.572Z" fill="#414042"/>
<path d="M232.474 417.572C228.206 428.002 230.091 442.559 219.666 449.532C214.239 453.166 208.013 455.533 201.709 456.431C197.367 457.048 188.993 455.79 185.073 453.246C177.69 448.438 178.871 428.842 178.895 421.019C178.921 409.565 182.747 392.741 193.736 386.899C202.113 382.441 210.903 384.76 219.882 383.954C226.032 383.402 240.066 370.334 240.422 379.182C240.894 391.071 235.695 409.702 232.474 417.572Z" fill="#414042"/>
<path d="M121.772 285.922C84.2649 294.611 56.3542 329.677 53.061 367.426C51.6712 383.386 74.4645 386.672 77.8921 367.426C82.9495 339.023 103.544 331.465 129.722 325.409C145.319 321.796 137.352 282.319 121.772 285.922Z" fill="#414042"/>
<path d="M121.773 285.922C105.047 289.796 88.2427 299.111 76.666 311.374C85.6431 316.907 94.4235 326.175 97.4502 337.062C106.274 331.499 117.358 328.27 129.722 325.409C145.319 321.796 137.353 282.319 121.773 285.922Z" fill="#E56A90"/>
<path d="M219.593 337.334C257.102 328.645 285.01 293.579 288.304 255.829C289.693 239.867 266.903 236.583 263.47 255.829C258.413 284.232 237.821 291.79 211.645 297.851C196.048 301.461 204.012 340.937 219.593 337.334Z" fill="#414042"/>
<path d="M237.076 289.885C229.604 293.315 220.994 295.689 211.647 297.851C196.05 301.461 205.33 343.287 220.91 339.684C234.981 336.424 246.387 327.104 256.967 317.663C247.661 309.795 240.009 300.701 237.076 289.885Z" fill="#E56A90"/>
<path d="M133.194 313.459C146.508 302.341 181.838 301.986 196.917 312.396C213.503 323.841 226.402 373.884 215.618 389.479C204.502 405.564 125.801 406.773 117.381 389.446C108.118 370.38 117.942 326.2 133.194 313.459Z" fill="white"/>
<path d="M211.303 297.918C189.079 280.871 137.014 281.464 117.389 299.663C104.576 311.556 94.3675 340.173 90.4814 368.372C139.001 378.714 195.473 381.05 240.793 361.214C235.136 334.242 223.953 307.618 211.303 297.918Z" fill="#F17097"/>
<path d="M117.477 147.346C117.477 156.366 110.164 163.69 101.136 163.69C92.1134 163.69 84.7949 156.366 84.7949 147.346C84.7949 138.323 92.111 131 101.136 131C110.161 131 117.477 138.323 117.477 147.346Z" fill="#414042"/>
<path d="M117.478 151.596C117.478 158.274 112.065 163.691 105.383 163.691C98.7026 163.691 93.2852 158.274 93.2852 151.596C93.2852 144.906 98.7026 139.496 105.383 139.496C112.063 139.496 117.478 144.904 117.478 151.596Z" fill="#F9C0C3"/>
<path d="M209.965 147.346C209.965 156.366 217.283 163.69 226.306 163.69C235.329 163.69 242.647 156.366 242.647 147.346C242.647 138.323 235.331 131 226.306 131C217.283 131 209.965 138.323 209.965 147.346Z" fill="#414042"/>
<path d="M209.965 151.596C209.965 158.274 215.38 163.691 222.06 163.691C228.74 163.691 234.158 158.274 234.158 151.596C234.158 144.906 228.74 139.496 222.06 139.496C215.38 139.496 209.965 144.904 209.965 151.596Z" fill="#F9C0C3"/>
<path d="M104.527 154.722C128.065 136.307 190.506 135.71 217.166 152.953C246.484 171.916 269.284 254.798 250.228 280.628C230.575 307.276 91.4626 309.285 76.5783 280.582C60.1963 248.999 77.5673 175.821 104.527 154.722Z" fill="white"/>
<path d="M147.235 242.78C147.235 260.247 133.258 274.411 116.017 274.411C98.7753 274.411 81.9708 260.024 84.7959 242.78C89.0228 217.017 105.124 200.266 122.365 200.266C139.607 200.266 147.235 225.315 147.235 242.78Z" fill="#414042"/>
<path d="M124.237 242.16C124.237 247.006 121.251 250.933 117.566 250.933C113.884 250.933 110.898 247.004 110.898 242.16C110.898 237.309 113.884 233.387 117.566 233.387C121.251 233.387 124.237 237.306 124.237 242.16Z" fill="white"/>
<path d="M122.365 244.628C122.365 248.113 120.214 250.936 117.564 250.936C114.919 250.936 112.769 248.113 112.769 244.628C112.769 241.135 114.919 238.312 117.564 238.312C120.217 238.312 122.365 241.135 122.365 244.628Z" fill="#414042"/>
<path d="M153.792 248.606C151.703 245.409 153.124 242.783 156.943 242.783H169.396C173.217 242.783 174.636 245.409 172.55 248.606C172.55 248.606 164.886 259.554 163.376 259.547C161.806 259.545 153.792 248.606 153.792 248.606Z" fill="#414042"/>
<path d="M163.374 266.271C163.374 266.271 158.437 277.685 148.759 268.007" stroke="#414042" stroke-width="1.2685" stroke-miterlimit="10" stroke-linecap="round" stroke-linejoin="round"/>
<path d="M177.992 268.005C168.314 277.683 163.377 266.269 163.377 266.269V258.418" stroke="#414042" stroke-width="1.2685" stroke-miterlimit="10" stroke-linecap="round" stroke-linejoin="round"/>
<path d="M123.47 258.415C123.47 260.746 118.611 262.647 112.618 262.647C106.627 262.647 101.769 260.746 101.769 258.415C101.769 256.077 106.627 254.184 112.618 254.184C118.611 254.186 123.47 256.08 123.47 258.415Z" fill="#F6A1B2"/>
<path d="M118.966 224.642C118.966 224.642 110.135 221.579 107.685 230.506" stroke="white" stroke-width="0.9024" stroke-miterlimit="10" stroke-linecap="round" stroke-linejoin="round"/>
<path d="M181.478 242.78C181.478 260.247 195.455 274.411 212.696 274.411C229.937 274.411 246.742 260.024 243.914 242.78C239.69 217.017 223.588 200.266 206.347 200.266C189.101 200.266 181.478 225.315 181.478 242.78Z" fill="#414042"/>
<path d="M204.473 242.16C204.473 247.006 207.461 250.933 211.148 250.933C214.83 250.933 217.816 247.004 217.816 242.16C217.816 237.309 214.83 233.387 211.148 233.387C207.461 233.387 204.473 237.306 204.473 242.16Z" fill="white"/>
<path d="M206.345 244.628C206.345 248.113 208.495 250.936 211.143 250.936C213.79 250.936 215.939 248.113 215.939 244.628C215.939 241.135 213.788 238.312 211.143 238.312C208.495 238.312 206.345 241.135 206.345 244.628Z" fill="#414042"/>
<path d="M205.241 258.415C205.241 260.746 210.099 262.647 216.091 262.647C222.082 262.647 226.942 260.746 226.942 258.415C226.942 256.077 222.084 254.184 216.091 254.184C210.099 254.186 205.241 256.08 205.241 258.415Z" fill="#F6A1B2"/>
<path d="M209.746 224.642C209.746 224.642 218.572 221.579 221.028 230.506" stroke="white" stroke-width="0.9024" stroke-miterlimit="10" stroke-linecap="round" stroke-linejoin="round"/>
</g>
<defs>
<clipPath id="clip0_176_2221">
<rect width="340" height="415" rx="30" fill="white"/>
</clipPath>
</defs>
</svg>
