<svg width="340" height="415" viewBox="0 0 340 415" fill="none" xmlns="http://www.w3.org/2000/svg">
<g clip-path="url(#clip0_176_2217)">
<rect width="340" height="415" rx="30" fill="#74E7AE"/>
<path fill-rule="evenodd" clip-rule="evenodd" d="M28.125 45.0001C28.125 44.5028 28.3225 44.0259 28.6742 43.6743C29.0258 43.3226 29.5027 43.1251 30 43.1251H55.475L48.675 36.3251C48.3438 35.9697 48.1635 35.4996 48.1721 35.0138C48.1806 34.528 48.3774 34.0646 48.7209 33.7211C49.0645 33.3775 49.5279 33.1807 50.0137 33.1722C50.4994 33.1636 50.9696 33.3439 51.325 33.6751L61.325 43.6751C61.6761 44.0267 61.8734 44.5032 61.8734 45.0001C61.8734 45.497 61.6761 45.9735 61.325 46.3251L51.325 56.3251C51.1533 56.5093 50.9463 56.6571 50.7163 56.7596C50.4863 56.862 50.2381 56.9171 49.9863 56.9216C49.7346 56.926 49.4845 56.8797 49.251 56.7854C49.0175 56.6911 48.8055 56.5507 48.6274 56.3727C48.4494 56.1947 48.309 55.9826 48.2147 55.7491C48.1204 55.5156 48.0741 55.2656 48.0785 55.0138C48.083 54.762 48.1381 54.5138 48.2405 54.2838C48.343 54.0538 48.4908 53.8468 48.675 53.6751L55.475 46.8751H30C29.5027 46.8751 29.0258 46.6776 28.6742 46.3259C28.3225 45.9743 28.125 45.4974 28.125 45.0001Z" fill="white"/>
<path d="M209.056 301.914C192.075 287.732 147.022 287.278 127.79 300.553C106.636 315.152 90.1866 378.969 103.935 398.859C118.117 419.373 218.48 420.922 229.219 398.824C241.042 374.501 228.509 318.158 209.056 301.914Z" fill="#808285"/>
<path d="M226.557 411.435C222.663 420.953 224.383 434.238 214.867 440.612C209.91 443.924 204.229 446.077 198.474 446.904C194.512 447.469 186.866 446.323 183.291 443.995C176.545 439.609 177.629 421.712 177.648 414.577C177.676 404.124 181.162 388.766 191.198 383.432C198.844 379.363 206.867 381.481 215.059 380.743C220.674 380.239 233.484 368.306 233.809 376.393C234.243 387.239 229.501 404.246 226.557 411.435Z" fill="#808285"/>
<path d="M106.295 411.435C110.191 420.953 108.467 434.238 117.984 440.612C122.939 443.924 128.62 446.077 134.38 446.904C138.342 447.469 145.99 446.323 149.565 443.995C156.307 439.609 155.222 421.712 155.206 414.577C155.178 404.124 151.69 388.766 141.659 383.432C134.012 379.363 125.984 381.481 117.792 380.743C112.175 380.239 99.3657 368.306 99.0424 376.393C98.609 387.239 103.355 404.246 106.295 411.435Z" fill="#808285"/>
<path d="M207.351 291.264C241.588 299.198 267.066 331.207 270.069 365.664C271.341 380.235 250.532 383.236 247.402 365.664C242.783 339.741 223.986 332.837 200.092 327.311C185.854 324.003 193.123 287.968 207.351 291.264Z" fill="#808285"/>
<path d="M207.351 291.264C222.616 294.799 237.957 303.302 248.522 314.493C240.333 319.55 232.314 328.002 229.55 337.944C221.496 332.863 211.376 329.923 200.092 327.311C185.854 324.003 193.123 287.968 207.351 291.264Z" fill="#8EDEFF"/>
<path d="M118.054 338.191C83.8148 330.264 58.3369 298.248 55.3313 263.791C54.0593 249.227 74.8662 246.226 77.9958 263.791C82.6178 289.714 101.412 296.622 125.309 302.149C139.545 305.449 132.276 341.485 118.054 338.191Z" fill="#808285"/>
<path d="M102.094 294.881C108.916 298.008 116.775 300.182 125.309 302.15C139.548 305.451 131.075 343.623 116.855 340.341C104.006 337.364 93.5979 328.855 83.9395 320.239C92.4313 313.052 99.4169 304.752 102.094 294.881Z" fill="#8EDEFF"/>
<path d="M125.619 302.205C145.913 286.643 193.439 287.184 211.35 303.795C223.049 314.651 232.37 340.778 235.914 366.516C191.621 375.954 140.07 378.086 98.7002 359.982C103.863 335.366 114.07 311.057 125.619 302.205Z" fill="#ADE7FF"/>
<path d="M255.696 156.232C295.647 156.784 310.096 192.609 312.335 200.213C313.012 202.542 313.453 206.346 312.176 208.577C310.48 211.538 307.542 210.673 305.165 212.531C309.587 216.45 319.597 230.576 306.219 229.964C309.892 236.685 309.892 243.333 300.001 246.088C291.238 248.532 261.044 248.494 252.752 246.107C238.785 242.061 234.99 214.756 227.492 204.292C220.18 194.088 212.766 155.632 255.696 156.232Z" fill="#808285"/>
<path d="M270.853 223.742C267.812 232.03 257.486 237.28 245.178 234.459C244.072 233.96 237.651 204.125 233.142 192.056C230.492 184.961 284.929 185.326 270.853 223.742Z" fill="#F9C0C3"/>
<path d="M85.2977 156.232C45.3497 156.784 30.8913 192.609 28.6611 200.213C27.9794 202.542 27.5367 206.346 28.8205 208.577C30.5165 211.538 33.4494 210.673 35.8318 212.531C31.409 216.45 21.3992 230.576 34.7753 229.964C31.1021 236.685 31.1021 243.333 40.9925 246.088C49.7537 248.532 79.9472 248.494 88.247 246.107C102.209 242.061 106.004 214.756 113.502 204.292C120.814 194.088 128.225 155.632 85.2977 156.232Z" fill="#808285"/>
<path d="M70.1384 223.742C73.1814 232.03 83.5098 237.28 95.813 234.459C96.9211 233.96 103.335 204.125 107.849 192.056C110.501 184.961 56.0665 185.326 70.1384 223.742Z" fill="#F9C0C3"/>
<path d="M229.117 162.642C205.647 143.817 140.83 145.082 114.249 162.7C85.0181 182.078 64.8297 264.916 83.8327 291.312C103.433 318.545 242.144 320.599 256.987 291.27C273.317 258.994 256.001 184.203 229.117 162.642Z" fill="#939598"/>
<path d="M213.691 253.585C213.691 257.089 215.851 259.928 218.515 259.928C221.176 259.928 223.336 257.089 223.336 253.585C223.336 250.08 221.176 247.236 218.515 247.236C215.851 247.236 213.691 250.08 213.691 253.585Z" fill="#3C2415"/>
<path d="M122.01 253.585C122.01 257.089 124.167 259.928 126.831 259.928C129.497 259.928 131.654 257.089 131.654 253.585C131.654 250.08 129.497 247.236 126.831 247.236C124.167 247.236 122.01 250.08 122.01 253.585Z" fill="#3C2415"/>
<path d="M212.582 267.454C212.582 269.806 217.464 271.708 223.487 271.708C229.51 271.708 234.391 269.804 234.391 267.454C234.391 265.105 229.51 263.207 223.487 263.207C217.464 263.205 212.582 265.102 212.582 267.454Z" fill="#F6A1B2"/>
<path d="M109.843 267.454C109.843 269.806 114.722 271.708 120.745 271.708C126.77 271.708 131.652 269.804 131.652 267.454C131.652 265.105 126.77 263.207 120.745 263.207C114.722 263.205 109.843 265.102 109.843 267.454Z" fill="#F6A1B2"/>
<path d="M217.111 233.494C217.111 233.494 225.985 230.416 228.447 239.392" stroke="#3C2415" stroke-width="0.9294" stroke-miterlimit="10" stroke-linecap="round" stroke-linejoin="round"/>
<path d="M127.678 233.494C127.678 233.494 118.804 230.416 116.342 239.392" stroke="#3C2415" stroke-width="0.9294" stroke-miterlimit="10" stroke-linecap="round" stroke-linejoin="round"/>
<path d="M172.67 287.432C172.67 287.432 177.388 298.329 186.629 289.088" stroke="#3C2415" stroke-width="0.9294" stroke-miterlimit="10" stroke-linecap="round" stroke-linejoin="round"/>
<path d="M158.705 289.09C167.958 298.331 172.672 287.433 172.672 287.433V279.928" stroke="#3C2415" stroke-width="0.9294" stroke-miterlimit="10" stroke-linecap="round" stroke-linejoin="round"/>
<path d="M153.32 258.563C153.32 273.487 155.344 285.573 172.672 285.573C189.616 285.573 192.024 273.487 192.024 258.563C192.024 243.65 189.619 231.553 172.672 231.553C157.286 231.55 153.32 243.647 153.32 258.563Z" fill="#3C2415"/>
</g>
<defs>
<clipPath id="clip0_176_2217">
<rect width="340" height="415" rx="30" fill="white"/>
</clipPath>
</defs>
</svg>
