<svg width="1920" height="737" viewBox="0 0 1920 737" fill="none" xmlns="http://www.w3.org/2000/svg">
<g clip-path="url(#clip0_254_70620)">
<rect width="1920" height="737" fill="#25B868"/>
<path opacity="0.2" d="M1529.53 548.716L1838.35 548.716C1843.81 548.716 1848.24 553.146 1848.24 558.61C1848.24 564.074 1843.82 568.503 1838.35 568.505L1774.43 568.505C1763.54 568.505 1754.19 577.028 1753.99 587.921C1753.79 599.019 1762.72 608.079 1773.78 608.079L1785.09 608.079C1790.26 608.079 1794.87 611.857 1795.36 617.001C1795.93 622.903 1791.3 627.867 1785.52 627.867L1688.8 627.867C1677.91 627.867 1668.56 636.39 1668.36 647.283C1668.16 658.381 1677.09 667.442 1688.14 667.442L2156.13 667.442C2167.02 667.442 2176.37 658.918 2176.57 648.025C2176.77 636.927 2167.83 627.867 2156.78 627.867L2059.84 627.868C2054.67 627.867 2050.05 624.09 2049.56 618.946C2049 613.045 2053.63 608.082 2059.41 608.081L2266.65 608.081C2277.54 608.081 2286.89 599.557 2287.09 588.664C2287.29 577.566 2278.36 568.506 2267.31 568.506H2262.6C2257.14 568.506 2252.71 564.076 2252.71 558.613C2252.71 553.149 2257.14 548.72 2262.6 548.719L2368.1 548.719C2379 548.719 2388.35 540.195 2388.54 529.302C2388.75 518.204 2379.81 509.144 2368.76 509.144L2115.91 509.141C2105.02 509.141 2095.67 517.665 2095.47 528.558C2095.27 539.656 2104.2 548.716 2115.26 548.716H2128.81C2134.27 548.716 2138.7 553.146 2138.7 558.61C2138.7 564.074 2134.27 568.503 2128.81 568.505L1901.43 568.505C1895.97 568.505 1891.54 564.075 1891.54 558.612C1891.54 553.148 1895.97 548.719 1901.43 548.719L1911.22 548.719C1922.11 548.719 1931.46 540.195 1931.66 529.302C1931.86 518.204 1922.93 509.144 1911.87 509.144L1528.87 509.141C1517.82 509.141 1508.88 518.202 1509.08 529.299C1509.28 540.193 1518.63 548.716 1529.53 548.716Z" fill="#E9F8F0"/>
<path opacity="0.2" d="M412.157 113.954L78.5119 113.952C67.265 113.952 57.6151 122.752 57.4102 133.997C57.2001 145.454 66.4247 154.808 77.8339 154.808L103.617 154.808C109.257 154.808 113.83 159.38 113.831 165.022C113.831 170.662 109.258 175.235 103.617 175.236L-14.1101 175.236C-25.393 175.236 -34.5389 184.382 -34.5376 195.664C-34.5376 206.947 -25.3929 216.091 -14.11 216.091L297.653 216.091C308.936 216.091 318.081 206.947 318.081 195.664C318.081 184.381 308.936 175.236 297.653 175.236L263.784 175.236C258.144 175.236 253.571 170.663 253.57 165.022C253.57 159.382 258.142 154.809 263.784 154.808L411.477 154.808C422.724 154.808 432.374 146.008 432.579 134.763C432.79 123.307 423.566 113.954 412.157 113.954Z" fill="#E9F8F0"/>
</g>
<defs>
<clipPath id="clip0_254_70620">
<rect width="1920" height="737" fill="white"/>
</clipPath>
</defs>
</svg>
