<svg width="1920" height="1024" viewBox="0 0 1920 1024" fill="none" xmlns="http://www.w3.org/2000/svg">
<g clip-path="url(#clip0_226_4485)">
<rect width="1920" height="1024" fill="#25B868"/>
<path opacity="0.2" d="M-480.476 151.716L-171.651 151.716C-166.187 151.716 -161.758 156.146 -161.756 161.61C-161.756 167.074 -166.186 171.503 -171.651 171.505L-235.568 171.505C-246.463 171.505 -255.81 180.028 -256.009 190.921C-256.212 202.019 -247.277 211.079 -236.225 211.079L-224.911 211.079C-219.745 211.079 -215.131 214.857 -214.639 220.001C-214.076 225.903 -218.703 230.867 -224.486 230.867L-321.202 230.867C-332.096 230.867 -341.443 239.39 -341.642 250.283C-341.845 261.381 -332.91 270.442 -321.858 270.442L146.125 270.442C157.019 270.442 166.367 261.918 166.565 251.025C166.769 239.927 157.833 230.867 146.782 230.867L49.8349 230.868C44.6674 230.867 40.0517 227.09 39.5623 221.946C38.9992 216.045 43.6249 211.082 49.4092 211.081L256.649 211.081C267.544 211.081 276.891 202.557 277.09 191.664C277.293 180.566 268.358 171.506 257.306 171.506H252.599C247.136 171.506 242.706 167.076 242.706 161.613C242.706 156.149 247.136 151.72 252.6 151.719L358.103 151.719C368.998 151.719 378.345 143.195 378.544 132.302C378.747 121.204 369.812 112.144 358.76 112.144L105.912 112.141C95.018 112.141 85.6705 120.665 85.472 131.558C85.2685 142.656 94.2039 151.716 105.256 151.716H118.807C124.27 151.716 128.7 156.146 128.701 161.61C128.701 167.074 124.271 171.503 118.807 171.505L-108.572 171.505C-114.035 171.505 -118.465 167.075 -118.465 161.612C-118.465 156.148 -114.035 151.719 -108.572 151.719L-98.7835 151.719C-87.8891 151.719 -78.5416 143.195 -78.3431 132.302C-78.1395 121.204 -87.0751 112.144 -98.1268 112.144L-481.133 112.141C-492.184 112.141 -501.12 121.202 -500.916 132.299C-500.718 143.193 -491.37 151.716 -480.476 151.716Z" fill="#E9F8F0"/>
<path opacity="0.2" d="M913.157 790.954L579.512 790.952C568.265 790.952 558.615 799.752 558.41 810.997C558.2 822.454 567.425 831.808 578.834 831.808L604.617 831.808C610.257 831.808 614.83 836.38 614.831 842.022C614.831 847.662 610.258 852.235 604.617 852.236L486.89 852.236C475.607 852.236 466.461 861.382 466.462 872.664C466.462 883.947 475.607 893.091 486.89 893.091L798.653 893.091C809.936 893.091 819.081 883.947 819.081 872.664C819.081 861.381 809.936 852.236 798.653 852.236L764.784 852.236C759.144 852.236 754.571 847.663 754.57 842.022C754.57 836.382 759.142 831.809 764.784 831.808L912.477 831.808C923.724 831.808 933.374 823.008 933.579 811.763C933.79 800.307 924.566 790.954 913.157 790.954Z" fill="#E9F8F0"/>
<path opacity="0.2" d="M1631.26 1004.66C1631.26 993.319 1619.02 984.043 1607.68 984.043H1596.62C1585.29 984.043 1576.01 974.768 1576.01 963.43C1576.01 952.092 1585.29 942.816 1596.62 942.816H1666.19C1677.52 942.816 1686.8 933.54 1686.8 922.203C1686.8 910.865 1677.52 901.589 1666.19 901.589H1663.32C1651.99 901.589 1642.72 892.313 1642.72 880.976C1642.72 869.638 1651.99 860.362 1663.32 860.362H1769.76C1781.09 860.362 1790.37 851.086 1790.37 839.749C1790.37 828.411 1781.09 819.135 1769.76 819.135H1766.95C1755.61 819.135 1746.34 809.859 1746.34 798.522C1746.34 787.184 1755.61 777.908 1766.95 777.908H1771.16C1782.5 777.908 1791.77 768.632 1791.77 757.295C1791.77 745.957 1782.5 736.681 1771.16 736.681H1739.68C1728.35 736.681 1719.08 727.405 1719.08 716.068C1719.08 704.73 1728.35 695.454 1739.68 695.454H1742.06C1753.39 695.454 1762.66 686.178 1762.66 674.841C1762.66 663.503 1753.39 654.227 1742.06 654.227H1688.95C1677.62 654.227 1668.34 644.951 1668.34 633.613C1668.34 622.276 1677.62 613 1688.95 613H1864.74C1876.08 613 1885.35 622.276 1885.35 633.613C1885.35 644.951 1876.08 654.227 1864.74 654.227H1862.58C1851.24 654.227 1841.97 663.503 1841.97 674.841C1841.97 686.178 1851.24 695.454 1862.58 695.454H1939.8C1951.14 695.454 1960.41 686.178 1960.41 674.841C1960.41 663.503 1951.14 654.227 1939.8 654.227H1936.78C1925.44 654.227 1916.17 644.951 1916.17 633.613C1916.17 622.276 1925.44 613 1936.78 613H2085.39C2096.73 613 2106 622.276 2106 633.613C2106 644.951 2096.73 654.227 2085.39 654.227H2078.3C2066.96 654.227 2057.69 663.503 2057.69 674.841C2057.69 686.178 2066.96 695.454 2078.3 695.454H2078.47C2089.8 695.454 2099.08 704.73 2099.08 716.068C2099.08 727.405 2089.8 736.681 2078.47 736.681H1955.49C1944.15 736.681 1934.88 745.957 1934.88 757.295C1934.88 768.632 1944.15 777.908 1955.49 777.908H1999.22C2010.55 777.908 2019.83 787.184 2019.83 798.522C2019.83 809.859 2010.55 819.135 1999.22 819.135H1979.67C1968.33 819.135 1959.06 828.411 1959.06 839.749C1959.06 851.086 1968.33 860.362 1979.67 860.362H2021.36C2032.7 860.362 2041.97 869.638 2041.97 880.976C2041.97 892.313 2032.7 901.589 2021.36 901.589H2011.17C1999.83 901.589 1990.56 910.865 1990.56 922.203C1990.56 933.54 1999.83 942.816 2011.17 942.816H2019.25C2030.58 942.816 2039.86 952.092 2039.86 963.43C2039.86 974.768 2030.58 984.043 2019.25 984.043H2011.17C1999.83 984.043 1990.56 993.319 1990.56 1004.66C1990.56 1015.5 1999.04 1024.43 2009.69 1025.19H2078.47C2087.78 1025.19 2095.7 1031.47 2098.22 1040H1525C1527.52 1031.47 1535.44 1025.19 1544.76 1025.19H1609.18C1620.07 1024.43 1631.26 1015.5 1631.26 1004.66ZM1909.1 819.135H1890.28C1878.95 819.135 1869.67 828.411 1869.67 839.749C1869.67 851.086 1878.95 860.362 1890.28 860.362H1909.1C1920.43 860.362 1929.71 851.086 1929.71 839.749C1929.71 828.412 1920.43 819.135 1909.1 819.135ZM1796.66 1004.66C1796.66 1015.5 1805.14 1024.43 1815.8 1025.19H1935.43C1946.08 1024.43 1954.57 1015.5 1954.57 1004.66C1954.57 993.319 1945.29 984.043 1933.96 984.043H1931.8C1920.46 984.043 1911.19 974.768 1911.19 963.43C1911.19 952.092 1920.46 942.816 1931.8 942.816H1933.96C1945.29 942.816 1954.57 933.54 1954.57 922.203C1954.57 910.865 1945.29 901.589 1933.96 901.589H1874.59C1863.26 901.589 1853.98 910.865 1853.98 922.203C1853.98 933.54 1863.26 942.816 1874.59 942.816H1877.62C1888.95 942.816 1898.23 952.092 1898.23 963.43C1898.23 974.768 1888.95 984.043 1877.62 984.043H1817.27C1805.93 984.043 1796.66 993.319 1796.66 1004.66Z" fill="#E9F8F0"/>
</g>
<defs>
<clipPath id="clip0_226_4485">
<rect width="1920" height="1024" fill="white"/>
</clipPath>
</defs>
</svg>
