<svg width="593" height="602" viewBox="0 0 593 602" fill="none" xmlns="http://www.w3.org/2000/svg">
<g filter="url(#filter0_d_438_897)">
<path d="M257.251 33.1649C279.676 14.0541 312.66 14.054 335.085 33.1649L371.698 64.3665C381.308 72.5559 393.257 77.5051 405.842 78.5095L453.795 82.3361C483.165 84.6799 506.488 108.003 508.832 137.373L512.659 185.325C513.663 197.911 518.612 209.86 526.802 219.47L558.003 256.083C577.114 278.508 577.114 311.492 558.003 333.917L526.802 370.53C518.612 380.14 513.663 392.089 512.659 404.674L508.832 452.627C506.488 481.997 483.165 505.32 453.795 507.664L405.842 511.491C393.257 512.495 381.308 517.444 371.698 525.634L335.085 556.835C312.66 575.946 279.676 575.946 257.251 556.835L220.638 525.634C211.028 517.444 199.079 512.495 186.493 511.491L138.541 507.664C109.171 505.32 85.8479 481.997 83.5041 452.627L79.6774 404.675C78.6731 392.089 73.7239 380.14 65.5345 370.53L34.3328 333.917C15.222 311.492 15.222 278.508 34.3328 256.083L65.5345 219.47C73.7239 209.86 78.6731 197.911 79.6774 185.325L83.5041 137.373C85.8479 108.003 109.171 84.6799 138.541 82.3361L186.493 78.5095C199.079 77.5051 211.028 72.5559 220.638 64.3665L257.251 33.1649Z" fill="#FFC200"/>
<path d="M262.115 38.873C281.738 22.1511 310.598 22.1511 330.221 38.873L366.834 70.0752C377.645 79.2881 391.087 84.8555 405.246 85.9854L453.198 89.8125C478.897 91.8633 499.305 112.27 501.355 137.97L505.183 185.922C506.313 200.081 511.88 213.523 521.093 224.334L552.295 260.947C569.017 280.57 569.017 309.431 552.295 329.053L521.093 365.666C511.88 376.477 506.313 389.919 505.183 404.078L501.355 452.03C499.305 477.73 478.897 498.137 453.198 500.188L405.246 504.015C391.087 505.145 377.645 510.712 366.834 519.925L330.221 551.127C310.598 567.849 281.737 567.849 262.115 551.127L225.502 519.925C214.691 510.712 201.249 505.145 187.09 504.015L139.138 500.188C113.438 498.137 93.0313 477.73 90.9805 452.03L87.1533 404.078C86.0234 389.919 80.4561 376.477 71.2432 365.666L40.041 329.053C23.319 309.43 23.319 280.57 40.041 260.947L71.2432 224.334C80.4561 213.523 86.0234 200.081 87.1533 185.922L90.9805 137.97C93.0313 112.27 113.438 91.8633 139.138 89.8125L187.09 85.9854C201.249 84.8555 214.691 79.2881 225.502 70.0752L262.115 38.873Z" stroke="#FFDE00" stroke-width="15"/>
</g>
<path d="M430.452 42.8535C430.452 52.1853 438.018 59.7514 447.348 59.7514C438.018 59.7514 430.452 67.3159 430.452 76.6493C430.452 67.3175 422.886 59.7514 413.554 59.7514C422.886 59.7514 430.452 52.1853 430.452 42.8535Z" fill="#FFCF01"/>
<path d="M386.58 7C386.58 20.7398 397.718 31.8769 411.455 31.8769C397.718 31.8769 386.58 43.014 386.58 56.7538C386.58 43.014 375.441 31.8769 361.701 31.8769C375.441 31.8769 386.58 20.7382 386.58 7Z" fill="#FFCF01"/>
<path d="M187.641 19.4043C187.641 33.1441 198.78 44.2812 212.516 44.2812C198.78 44.2812 187.641 55.4183 187.641 69.1581C187.641 55.4183 176.502 44.2812 162.763 44.2812C176.502 44.2828 187.641 33.1441 187.641 19.4043Z" fill="#FFCF01"/>
<path d="M423.097 507.449C423.097 507.449 327.43 507.449 134.848 507.449C128.885 469.787 138.196 436.304 148.401 412.96C157.616 391.85 167.566 379.063 167.566 379.063L377.782 357.666C394.78 372.015 405.94 389.268 413.178 406.871C433.3 455.756 423.097 507.449 423.097 507.449Z" fill="#363636"/>
<path d="M232.982 379.057C232.982 379.057 214.714 435.701 219.412 507.451C299.271 507.451 338.938 507.451 338.938 507.451C338.938 507.451 346.768 411.786 320.149 357.66L232.982 379.057Z" fill="#F2F2F2"/>
<path opacity="0.2" d="M413.178 406.873C286.61 460.957 185.584 429.005 148.401 412.964C157.616 391.854 167.566 379.067 167.566 379.067L377.782 357.67C394.778 372.016 405.94 389.27 413.178 406.873Z" fill="#302F3B"/>
<path d="M500.251 376.961C487.193 394.256 442.097 403.088 385.904 404.955C320.365 407.109 239.769 399.789 177.354 385.357C134.685 375.493 100.52 362.331 85.4957 346.569C74.5626 335.14 70.1639 317.13 71.3581 295.653C76.2653 207.083 176.681 59.782 310.084 74.7383C440.986 89.3923 517.539 269.051 509.461 348.947C508.261 360.735 505.242 370.362 500.251 376.961Z" fill="#363636"/>
<path d="M338.847 104.974C331.575 114.209 372.684 141.421 381.833 132.23C390.983 123.041 352.197 88.0226 338.847 104.974Z" fill="white"/>
<path d="M459.184 321.983C449.065 353.471 415.011 383.791 385.904 404.955C320.365 407.109 239.769 399.79 177.354 385.358C149.681 364.06 110.199 323.866 119.409 272.955C133.296 196.119 191.557 160.806 237.813 173.275C267.395 181.251 272.253 238.094 279.916 267.923C284.237 284.736 297.026 283.393 297.026 283.393C297.026 283.393 308.7 286.603 315.513 268.494C325.823 241.095 336.829 188.296 373.094 187.173C433.295 185.303 477.885 263.769 459.184 321.983Z" fill="#F2F2F2"/>
<path opacity="0.2" d="M500.251 376.961C487.193 394.256 442.097 403.088 385.904 404.954C320.365 407.108 239.769 399.789 177.354 385.357C134.685 375.493 100.52 362.33 85.4957 346.568C74.5626 335.14 70.1639 317.13 71.3581 295.652C98.4157 320.598 172.501 378.512 284.101 385.829C395.63 393.166 478.508 362.646 509.461 348.946C508.261 360.735 505.242 370.361 500.251 376.961Z" fill="#302F3B"/>
<path d="M296.52 307.853C311.868 308.703 323.482 290.685 322.72 286.81C321.959 282.938 277.011 282.571 272.931 284.792C268.85 287.011 278.453 306.851 296.52 307.853Z" fill="#E3841F"/>
<path d="M296.963 302.305C307.08 302.65 314.907 292.241 314.44 290.032C313.974 287.823 284.324 288.029 281.612 289.336C278.901 290.645 285.052 301.901 296.963 302.305Z" fill="white"/>
<path d="M297.748 259.895C318.123 259.881 332.19 284.569 330.902 289.64C329.614 294.712 270.096 291.945 264.855 288.712C259.617 285.479 273.762 259.91 297.748 259.895Z" fill="#E8A226"/>
<path d="M217.89 211.873C195.03 210.919 180.76 249.29 210.24 259.657C239.717 270.024 246.963 213.085 217.89 211.873Z" fill="#302F3B"/>
<path d="M145.052 251.634C122.926 276.16 163.766 332.518 193.817 284.29C212.377 254.503 167.179 227.109 145.052 251.634Z" fill="#DC4167"/>
<path d="M448.699 292.208C463.455 321.761 409.021 365.134 392.972 310.622C383.061 276.955 433.943 262.655 448.699 292.208Z" fill="#DC4167"/>
<path d="M183.845 211.989C181.918 211.989 180.01 211.139 178.727 209.512C176.5 206.694 176.967 202.613 179.778 200.378C180.961 199.44 209.106 177.545 241.394 193.505C244.622 195.101 245.944 199.009 244.349 202.237C242.753 205.463 238.847 206.785 235.616 205.194C210.851 192.95 188.799 209.875 187.871 210.597C186.679 211.533 185.258 211.989 183.845 211.989Z" fill="#302F3B"/>
<path d="M418.935 243.023C416.755 243.023 414.625 241.93 413.391 239.943C412.739 238.906 397.749 215.556 370.313 218.659C366.739 219.068 363.508 216.492 363.104 212.915C362.697 209.337 365.271 206.109 368.848 205.702C404.633 201.663 423.683 231.795 424.476 233.078C426.366 236.142 425.417 240.16 422.353 242.048C421.284 242.71 420.103 243.023 418.935 243.023Z" fill="#302F3B"/>
<path d="M222.712 229.489C222.712 233.41 219.518 236.589 215.575 236.589C211.633 236.589 208.438 233.41 208.438 229.489C208.438 225.567 211.635 222.389 215.575 222.389C219.515 222.386 222.712 225.567 222.712 229.489Z" fill="white"/>
<path d="M217.373 257.22C221.314 257.22 224.51 255.63 224.51 253.669C224.51 251.707 221.314 250.117 217.373 250.117C213.431 250.117 210.236 251.707 210.236 253.669C210.236 255.63 213.431 257.22 217.373 257.22Z" fill="white"/>
<path d="M387.786 239.854C408.5 249.572 403.425 290.194 372.493 285.766C341.558 281.339 361.44 227.495 387.786 239.854Z" fill="#302F3B"/>
<path d="M375.365 253.246C373.553 256.724 374.917 261.022 378.413 262.842C381.91 264.662 386.212 263.319 388.024 259.84C389.836 256.362 388.473 252.065 384.976 250.245C381.482 248.425 377.177 249.77 375.365 253.246Z" fill="white"/>
<path d="M362.603 273.858C361.695 275.597 363.797 278.484 367.291 280.304C370.788 282.127 374.355 282.192 375.262 280.453C376.169 278.713 374.068 275.827 370.574 274.007C367.077 272.184 363.508 272.119 362.603 273.858Z" fill="white"/>
<path d="M471.6 454.567C470.898 455.461 470.197 456.321 469.433 457.213C442.073 489.071 389.804 500.137 389.804 500.137L390.218 474.401L390.729 441.939C390.729 441.939 425.106 440.439 448.482 418.659C471.631 396.973 495.453 423.825 471.6 454.567Z" fill="#363636"/>
<path opacity="0.2" d="M471.6 454.566C470.898 455.461 470.197 456.321 469.433 457.213C442.073 489.071 389.804 500.137 389.804 500.137L390.218 474.401C402.176 475.231 441.113 476.028 471.6 454.566Z" fill="#302F3B"/>
<path d="M183.318 333.778C182.432 334.844 181.584 335.903 180.713 337.045C149.679 377.873 149.852 443.117 149.852 443.117L180.474 436.032L219.106 427.112C219.106 427.112 212.092 385.68 232.114 352.192C252.077 318.994 213.917 297.425 183.318 333.778Z" fill="#363636"/>
<path opacity="0.2" d="M183.318 333.781C182.432 334.848 181.584 335.906 180.713 337.048C149.679 377.876 149.852 443.12 149.852 443.12L180.474 436.035C176.419 421.968 165.499 375.681 183.318 333.781Z" fill="#302F3B"/>
<g filter="url(#filter1_d_438_897)">
<rect x="374.523" y="379.742" width="96.514" height="128.158" rx="5" fill="white"/>
</g>
<path d="M407.432 403.158C407.432 403.158 415.524 401.893 423.571 401.893C431.663 401.893 439.709 403.158 439.709 403.158C447.415 404.183 452.263 409.424 453.949 417.398C453.949 417.398 455.215 425.504 455.215 433.537C455.215 441.643 453.949 449.675 453.949 449.675C452.381 457.869 447.683 462.546 439.709 463.915C439.709 463.915 431.624 465.18 423.571 465.18C415.486 465.18 407.432 463.915 407.432 463.915C399.08 462.553 394.225 457.698 393.193 449.675C393.193 449.675 391.927 441.596 391.927 433.537C391.927 425.458 393.193 417.398 393.193 417.398C394.393 408.78 397.92 404.411 407.432 403.158Z" fill="#FFDE00"/>
<path d="M409.79 407.595C409.79 407.595 416.7 406.514 423.571 406.514C430.481 406.514 437.352 407.595 437.352 407.595C443.933 408.47 448.072 412.945 449.512 419.755C449.512 419.755 450.593 426.676 450.593 433.536C450.593 440.457 449.512 447.316 449.512 447.316C448.173 454.314 444.161 458.307 437.352 459.476C437.352 459.476 430.449 460.557 423.571 460.557C416.668 460.557 409.79 459.476 409.79 459.476C402.657 458.314 398.512 454.167 397.63 447.316C397.63 447.316 396.55 440.418 396.55 433.536C396.55 426.638 397.63 419.755 397.63 419.755C398.655 412.396 401.668 408.664 409.79 407.595Z" fill="#FFC200"/>
<path d="M402.308 418.344C405.574 418.344 408.223 415.696 408.223 412.429C408.223 409.162 405.574 406.514 402.308 406.514C399.041 406.514 396.393 409.162 396.393 412.429C396.393 415.696 399.041 418.344 402.308 418.344Z" fill="#FFDE00"/>
<path d="M431.596 430.783C431.142 430.783 430.691 430.586 430.381 430.208C429.831 429.538 429.93 428.549 430.6 427.999C430.865 427.782 437.147 422.728 442.869 426.429C443.597 426.9 443.805 427.872 443.334 428.6C442.863 429.327 441.891 429.536 441.164 429.065C437.344 426.594 432.637 430.388 432.59 430.427C432.299 430.666 431.946 430.783 431.596 430.783Z" fill="black"/>
<path d="M415.549 430.308C416.003 430.308 416.454 430.112 416.764 429.733C417.314 429.063 417.215 428.074 416.545 427.524C416.28 427.308 409.998 422.253 404.276 425.954C403.548 426.425 403.34 427.397 403.811 428.125C404.282 428.853 405.254 429.061 405.981 428.591C409.802 426.119 414.508 429.913 414.555 429.952C414.847 430.191 415.2 430.308 415.549 430.308Z" fill="black"/>
<path d="M434.723 437.779L412.486 437.42C412.052 437.414 411.634 437.693 411.483 438.115C411.397 438.356 409.43 444.068 413.14 449.474C415.006 452.194 418.923 453.884 423.36 453.884C427.492 453.884 431.305 452.412 433.561 449.948C437.803 445.312 435.791 438.784 435.703 438.508C435.567 438.08 435.172 437.786 434.723 437.779Z" fill="#8E262B"/>
<path d="M423.572 452.7C427.136 452.7 430.025 450.982 430.025 448.863C430.025 446.743 427.136 445.025 423.572 445.025C420.008 445.025 417.118 446.743 417.118 448.863C417.118 450.982 420.008 452.7 423.572 452.7Z" fill="#DB616D"/>
<path d="M398.801 482.764C398.437 482.764 398.157 482.666 397.961 482.47C397.765 482.274 397.667 481.994 397.667 481.63V474.028C397.667 473.664 397.765 473.384 397.961 473.188C398.157 472.992 398.437 472.894 398.801 472.894H402.189C402.889 472.894 403.486 472.996 403.981 473.202C404.476 473.407 404.849 473.701 405.101 474.084C405.362 474.466 405.493 474.924 405.493 475.456C405.493 476.044 405.325 476.543 404.989 476.954C404.653 477.364 404.191 477.64 403.603 477.78V477.556C404.284 477.677 404.812 477.948 405.185 478.368C405.568 478.778 405.759 479.315 405.759 479.978C405.759 480.855 405.456 481.541 404.849 482.036C404.242 482.521 403.407 482.764 402.343 482.764H398.801ZM399.739 481.154H402.049C402.609 481.154 403.02 481.046 403.281 480.832C403.542 480.608 403.673 480.281 403.673 479.852C403.673 479.422 403.542 479.1 403.281 478.886C403.02 478.671 402.609 478.564 402.049 478.564H399.739V481.154ZM399.739 476.954H401.811C402.352 476.954 402.754 476.851 403.015 476.646C403.276 476.44 403.407 476.132 403.407 475.722C403.407 475.32 403.276 475.017 403.015 474.812C402.754 474.606 402.352 474.504 401.811 474.504H399.739V476.954ZM409.543 482.918C409.039 482.918 408.587 482.82 408.185 482.624C407.784 482.428 407.471 482.162 407.247 481.826C407.023 481.49 406.911 481.112 406.911 480.692C406.911 480.188 407.042 479.791 407.303 479.502C407.565 479.203 407.989 478.993 408.577 478.872C409.165 478.741 409.945 478.676 410.915 478.676H411.657V479.768H410.929C410.453 479.768 410.066 479.796 409.767 479.852C409.478 479.898 409.268 479.982 409.137 480.104C409.016 480.225 408.955 480.393 408.955 480.608C408.955 480.869 409.044 481.084 409.221 481.252C409.408 481.42 409.674 481.504 410.019 481.504C410.29 481.504 410.528 481.443 410.733 481.322C410.948 481.191 411.116 481.018 411.237 480.804C411.359 480.58 411.419 480.328 411.419 480.048V478.438C411.419 478.027 411.326 477.738 411.139 477.57C410.953 477.392 410.635 477.304 410.187 477.304C409.935 477.304 409.66 477.336 409.361 477.402C409.072 477.458 408.75 477.556 408.395 477.696C408.19 477.789 408.008 477.812 407.849 477.766C407.691 477.71 407.569 477.616 407.485 477.486C407.401 477.346 407.359 477.196 407.359 477.038C407.359 476.87 407.406 476.711 407.499 476.562C407.593 476.403 407.747 476.286 407.961 476.212C408.4 476.034 408.811 475.913 409.193 475.848C409.585 475.782 409.945 475.75 410.271 475.75C410.99 475.75 411.578 475.857 412.035 476.072C412.502 476.277 412.852 476.599 413.085 477.038C413.319 477.467 413.435 478.022 413.435 478.704V481.812C413.435 482.157 413.351 482.423 413.183 482.61C413.015 482.796 412.773 482.89 412.455 482.89C412.138 482.89 411.891 482.796 411.713 482.61C411.545 482.423 411.461 482.157 411.461 481.812V481.294L411.559 481.378C411.503 481.695 411.382 481.97 411.195 482.204C411.018 482.428 410.789 482.605 410.509 482.736C410.229 482.857 409.907 482.918 409.543 482.918ZM416.076 482.89C415.731 482.89 415.465 482.796 415.278 482.61C415.101 482.423 415.012 482.157 415.012 481.812V473.846C415.012 473.491 415.101 473.225 415.278 473.048C415.465 472.861 415.731 472.768 416.076 472.768C416.412 472.768 416.669 472.861 416.846 473.048C417.033 473.225 417.126 473.491 417.126 473.846V477.178H416.93C417.145 476.72 417.462 476.37 417.882 476.128C418.312 475.876 418.797 475.75 419.338 475.75C419.889 475.75 420.342 475.857 420.696 476.072C421.051 476.277 421.317 476.594 421.494 477.024C421.672 477.444 421.76 477.98 421.76 478.634V481.812C421.76 482.157 421.667 482.423 421.48 482.61C421.303 482.796 421.042 482.89 420.696 482.89C420.36 482.89 420.099 482.796 419.912 482.61C419.735 482.423 419.646 482.157 419.646 481.812V478.732C419.646 478.256 419.558 477.915 419.38 477.71C419.212 477.495 418.951 477.388 418.596 477.388C418.148 477.388 417.789 477.528 417.518 477.808C417.257 478.088 417.126 478.461 417.126 478.928V481.812C417.126 482.53 416.776 482.89 416.076 482.89ZM425.662 482.918C425.158 482.918 424.706 482.82 424.304 482.624C423.903 482.428 423.59 482.162 423.366 481.826C423.142 481.49 423.03 481.112 423.03 480.692C423.03 480.188 423.161 479.791 423.422 479.502C423.684 479.203 424.108 478.993 424.696 478.872C425.284 478.741 426.064 478.676 427.034 478.676H427.776V479.768H427.048C426.572 479.768 426.185 479.796 425.886 479.852C425.597 479.898 425.387 479.982 425.256 480.104C425.135 480.225 425.074 480.393 425.074 480.608C425.074 480.869 425.163 481.084 425.34 481.252C425.527 481.42 425.793 481.504 426.138 481.504C426.409 481.504 426.647 481.443 426.852 481.322C427.067 481.191 427.235 481.018 427.356 480.804C427.478 480.58 427.538 480.328 427.538 480.048V478.438C427.538 478.027 427.445 477.738 427.258 477.57C427.072 477.392 426.754 477.304 426.306 477.304C426.054 477.304 425.779 477.336 425.48 477.402C425.191 477.458 424.869 477.556 424.514 477.696C424.309 477.789 424.127 477.812 423.968 477.766C423.81 477.71 423.688 477.616 423.604 477.486C423.52 477.346 423.478 477.196 423.478 477.038C423.478 476.87 423.525 476.711 423.618 476.562C423.712 476.403 423.866 476.286 424.08 476.212C424.519 476.034 424.93 475.913 425.312 475.848C425.704 475.782 426.064 475.75 426.39 475.75C427.109 475.75 427.697 475.857 428.154 476.072C428.621 476.277 428.971 476.599 429.204 477.038C429.438 477.467 429.554 478.022 429.554 478.704V481.812C429.554 482.157 429.47 482.423 429.302 482.61C429.134 482.796 428.892 482.89 428.574 482.89C428.257 482.89 428.01 482.796 427.832 482.61C427.664 482.423 427.58 482.157 427.58 481.812V481.294L427.678 481.378C427.622 481.695 427.501 481.97 427.314 482.204C427.137 482.428 426.908 482.605 426.628 482.736C426.348 482.857 426.026 482.918 425.662 482.918ZM434.435 485.438C433.931 485.438 433.446 485.396 432.979 485.312C432.522 485.228 432.116 485.102 431.761 484.934C431.547 484.84 431.393 484.719 431.299 484.57C431.215 484.42 431.178 484.262 431.187 484.094C431.206 483.926 431.262 483.776 431.355 483.646C431.458 483.515 431.584 483.422 431.733 483.366C431.883 483.319 432.041 483.333 432.209 483.408C432.62 483.594 432.998 483.716 433.343 483.772C433.698 483.828 434.001 483.856 434.253 483.856C434.851 483.856 435.299 483.72 435.597 483.45C435.896 483.179 436.045 482.764 436.045 482.204V481.14H436.171C436.031 481.569 435.742 481.919 435.303 482.19C434.865 482.46 434.379 482.596 433.847 482.596C433.231 482.596 432.695 482.456 432.237 482.176C431.78 481.886 431.425 481.485 431.173 480.972C430.921 480.449 430.795 479.847 430.795 479.166C430.795 478.652 430.865 478.186 431.005 477.766C431.155 477.346 431.36 476.986 431.621 476.688C431.892 476.389 432.214 476.16 432.587 476.002C432.97 475.834 433.39 475.75 433.847 475.75C434.398 475.75 434.883 475.885 435.303 476.156C435.733 476.417 436.017 476.762 436.157 477.192L436.017 477.64V476.842C436.017 476.496 436.106 476.235 436.283 476.058C436.47 475.871 436.731 475.778 437.067 475.778C437.403 475.778 437.66 475.871 437.837 476.058C438.015 476.235 438.103 476.496 438.103 476.842V481.966C438.103 483.114 437.786 483.977 437.151 484.556C436.526 485.144 435.621 485.438 434.435 485.438ZM434.477 481.014C434.795 481.014 435.065 480.939 435.289 480.79C435.523 480.64 435.705 480.43 435.835 480.16C435.966 479.88 436.031 479.548 436.031 479.166C436.031 478.587 435.887 478.139 435.597 477.822C435.317 477.495 434.944 477.332 434.477 477.332C434.16 477.332 433.885 477.406 433.651 477.556C433.418 477.696 433.236 477.906 433.105 478.186C432.984 478.456 432.923 478.783 432.923 479.166C432.923 479.744 433.063 480.197 433.343 480.524C433.623 480.85 434.001 481.014 434.477 481.014ZM440.809 482.876C440.463 482.876 440.197 482.778 440.011 482.582C439.833 482.376 439.745 482.092 439.745 481.728V476.94C439.745 476.566 439.833 476.282 440.011 476.086C440.197 475.88 440.463 475.778 440.809 475.778C441.145 475.778 441.401 475.88 441.579 476.086C441.765 476.282 441.859 476.566 441.859 476.94V481.728C441.859 482.092 441.77 482.376 441.593 482.582C441.415 482.778 441.154 482.876 440.809 482.876ZM440.809 474.63C440.417 474.63 440.113 474.541 439.899 474.364C439.693 474.177 439.591 473.916 439.591 473.58C439.591 473.234 439.693 472.973 439.899 472.796C440.113 472.609 440.417 472.516 440.809 472.516C441.201 472.516 441.499 472.609 441.705 472.796C441.91 472.973 442.013 473.234 442.013 473.58C442.013 473.916 441.91 474.177 441.705 474.364C441.499 474.541 441.201 474.63 440.809 474.63ZM445.815 482.918C445.311 482.918 444.858 482.82 444.457 482.624C444.055 482.428 443.743 482.162 443.519 481.826C443.295 481.49 443.183 481.112 443.183 480.692C443.183 480.188 443.313 479.791 443.575 479.502C443.836 479.203 444.261 478.993 444.849 478.872C445.437 478.741 446.216 478.676 447.187 478.676H447.929V479.768H447.201C446.725 479.768 446.337 479.796 446.039 479.852C445.749 479.898 445.539 479.982 445.409 480.104C445.287 480.225 445.227 480.393 445.227 480.608C445.227 480.869 445.315 481.084 445.493 481.252C445.679 481.42 445.945 481.504 446.291 481.504C446.561 481.504 446.799 481.443 447.005 481.322C447.219 481.191 447.387 481.018 447.509 480.804C447.63 480.58 447.691 480.328 447.691 480.048V478.438C447.691 478.027 447.597 477.738 447.411 477.57C447.224 477.392 446.907 477.304 446.459 477.304C446.207 477.304 445.931 477.336 445.633 477.402C445.343 477.458 445.021 477.556 444.667 477.696C444.461 477.789 444.279 477.812 444.121 477.766C443.962 477.71 443.841 477.616 443.757 477.486C443.673 477.346 443.631 477.196 443.631 477.038C443.631 476.87 443.677 476.711 443.771 476.562C443.864 476.403 444.018 476.286 444.233 476.212C444.671 476.034 445.082 475.913 445.465 475.848C445.857 475.782 446.216 475.75 446.543 475.75C447.261 475.75 447.849 475.857 448.307 476.072C448.773 476.277 449.123 476.599 449.357 477.038C449.59 477.467 449.707 478.022 449.707 478.704V481.812C449.707 482.157 449.623 482.423 449.455 482.61C449.287 482.796 449.044 482.89 448.727 482.89C448.409 482.89 448.162 482.796 447.985 482.61C447.817 482.423 447.733 482.157 447.733 481.812V481.294L447.831 481.378C447.775 481.695 447.653 481.97 447.467 482.204C447.289 482.428 447.061 482.605 446.781 482.736C446.501 482.857 446.179 482.918 445.815 482.918Z" fill="black"/>
<path d="M480.53 431.953C480.53 443.313 474.509 452.522 467.081 452.522C459.654 452.522 453.633 443.313 453.633 431.953C453.633 420.594 459.654 411.385 467.081 411.385C474.509 411.385 481.321 417.714 480.53 431.953Z" fill="#363636"/>
<g filter="url(#filter2_d_438_897)">
<path d="M459.076 507C457.325 507.298 455.549 507.52 453.749 507.664L405.797 511.49C393.211 512.495 381.262 517.444 371.652 525.634L335.039 556.835C312.614 575.946 279.631 575.946 257.205 556.835L220.592 525.634C210.982 517.444 199.033 512.495 186.447 511.49L138.495 507.664C136.696 507.52 134.919 507.298 133.168 507H459.076Z" fill="#363636"/>
</g>
<path d="M338.899 507C337.61 529.089 335.213 547.241 333.532 558.076C311.156 575.935 279.134 575.522 257.205 556.835L220.592 525.634C220.404 525.474 220.213 525.317 220.023 525.159C219.655 518.925 219.394 512.871 219.229 507H338.899Z" fill="#F2F2F2"/>
<defs>
<filter id="filter0_d_438_897" x="0" y="8.83203" width="592.336" height="592.336" filterUnits="userSpaceOnUse" color-interpolation-filters="sRGB">
<feFlood flood-opacity="0" result="BackgroundImageFix"/>
<feColorMatrix in="SourceAlpha" type="matrix" values="0 0 0 0 0 0 0 0 0 0 0 0 0 0 0 0 0 0 127 0" result="hardAlpha"/>
<feOffset dy="10"/>
<feGaussianBlur stdDeviation="10"/>
<feComposite in2="hardAlpha" operator="out"/>
<feColorMatrix type="matrix" values="0 0 0 0 0 0 0 0 0 0 0 0 0 0 0 0 0 0 0.25 0"/>
<feBlend mode="normal" in2="BackgroundImageFix" result="effect1_dropShadow_438_897"/>
<feBlend mode="normal" in="SourceGraphic" in2="effect1_dropShadow_438_897" result="shape"/>
</filter>
<filter id="filter1_d_438_897" x="370.523" y="379.742" width="104.514" height="136.158" filterUnits="userSpaceOnUse" color-interpolation-filters="sRGB">
<feFlood flood-opacity="0" result="BackgroundImageFix"/>
<feColorMatrix in="SourceAlpha" type="matrix" values="0 0 0 0 0 0 0 0 0 0 0 0 0 0 0 0 0 0 127 0" result="hardAlpha"/>
<feOffset dy="4"/>
<feGaussianBlur stdDeviation="2"/>
<feComposite in2="hardAlpha" operator="out"/>
<feColorMatrix type="matrix" values="0 0 0 0 0 0 0 0 0 0 0 0 0 0 0 0 0 0 0.25 0"/>
<feBlend mode="normal" in2="BackgroundImageFix" result="effect1_dropShadow_438_897"/>
<feBlend mode="normal" in="SourceGraphic" in2="effect1_dropShadow_438_897" result="shape"/>
</filter>
<filter id="filter2_d_438_897" x="113.168" y="497" width="365.908" height="104.168" filterUnits="userSpaceOnUse" color-interpolation-filters="sRGB">
<feFlood flood-opacity="0" result="BackgroundImageFix"/>
<feColorMatrix in="SourceAlpha" type="matrix" values="0 0 0 0 0 0 0 0 0 0 0 0 0 0 0 0 0 0 127 0" result="hardAlpha"/>
<feOffset dy="10"/>
<feGaussianBlur stdDeviation="10"/>
<feComposite in2="hardAlpha" operator="out"/>
<feColorMatrix type="matrix" values="0 0 0 0 0 0 0 0 0 0 0 0 0 0 0 0 0 0 0.25 0"/>
<feBlend mode="normal" in2="BackgroundImageFix" result="effect1_dropShadow_438_897"/>
<feBlend mode="normal" in="SourceGraphic" in2="effect1_dropShadow_438_897" result="shape"/>
</filter>
</defs>
</svg>
