<svg width="161" height="28" viewBox="0 0 161 28" fill="none" xmlns="http://www.w3.org/2000/svg">
<path d="M3.72656 7.55607C3.72656 4.40768 6.28567 1.85547 9.44256 1.85547H20.4455C20.4455 5.00386 17.8864 7.55607 14.7295 7.55607H3.72656Z" fill="white"/>
<path d="M4.96914 15.2397H0C0 12.0913 2.5591 9.53906 5.716 9.53906H20.4458C20.4458 12.6875 17.8867 15.2397 14.7298 15.2397H4.96914Z" fill="white"/>
<path d="M3.72656 22.9233C3.72656 19.7749 6.28567 17.2227 9.44256 17.2227H20.4455C20.4455 20.371 17.8864 22.9233 14.7295 22.9233H3.72656Z" fill="white"/>
<path d="M39.2533 17.7909C39.7335 17.7909 40.0732 17.8983 40.272 18.1131C40.4707 18.3113 40.5701 18.6417 40.5701 19.1042V20.244C40.5701 20.7066 40.4707 21.0452 40.272 21.26C40.0732 21.4582 39.7335 21.5573 39.2533 21.5573H28.5199C28.0397 21.5573 27.7 21.4582 27.5013 21.26C27.3025 21.0452 27.2031 20.7066 27.2031 20.244V5.52546C27.2031 5.06291 27.3025 4.73254 27.5013 4.53431C27.7 4.31955 28.0397 4.21218 28.5199 4.21218H39.1539C39.6342 4.21218 39.9738 4.31955 40.1726 4.53431C40.3713 4.73254 40.4707 5.06291 40.4707 5.52546V6.66528C40.4707 7.12782 40.3713 7.46645 40.1726 7.68121C39.9738 7.87944 39.6342 7.97855 39.1539 7.97855H31.3772V11.0016H38.011C38.4749 11.0016 38.8061 11.1007 39.0048 11.2989C39.2202 11.4971 39.3278 11.8358 39.3278 12.3148V13.4051C39.3278 13.8841 39.2202 14.2228 39.0048 14.421C38.8061 14.6193 38.4749 14.7184 38.011 14.7184H31.3772V17.7909H39.2533ZM59.6277 8.42457C61.483 8.42457 62.9074 9.02751 63.9012 10.2334C64.895 11.4228 65.3919 13.0747 65.3919 15.1892V20.244C65.3919 20.7231 65.2843 21.0617 65.0689 21.26C64.8702 21.4582 64.539 21.5573 64.0751 21.5573H62.7334C62.2696 21.5573 61.9302 21.4582 61.7148 21.26C61.516 21.0617 61.4166 20.7231 61.4166 20.244V15.4617C61.4166 13.2812 60.6216 12.1909 59.0314 12.1909C58.2033 12.1909 57.5655 12.4883 57.1183 13.083C56.6711 13.6611 56.4475 14.4706 56.4475 15.5113V20.244C56.4475 20.7231 56.3399 21.0617 56.1245 21.26C55.9257 21.4582 55.5945 21.5573 55.1307 21.5573H53.789C53.3251 21.5573 52.9857 21.4582 52.7703 21.26C52.5716 21.0617 52.4722 20.7231 52.4722 20.244V15.4617C52.4722 13.2812 51.6771 12.1909 50.087 12.1909C49.2589 12.1909 48.6211 12.4883 48.1739 13.083C47.7267 13.6611 47.503 14.4706 47.503 15.5113V20.244C47.503 20.7066 47.4037 21.0452 47.2049 21.26C47.0061 21.4582 46.6665 21.5573 46.1862 21.5573H44.8446C44.3643 21.5573 44.0246 21.4582 43.8259 21.26C43.6271 21.0452 43.5277 20.7066 43.5277 20.244V9.56439C43.5277 8.9697 43.7844 8.67236 44.2979 8.67236C44.6458 8.67236 45.0351 8.82103 45.4657 9.11838C45.8963 9.39919 46.2774 9.80393 46.6086 10.3325C47.0889 9.72132 47.6936 9.25052 48.4223 8.92015C49.1677 8.58977 49.9213 8.42457 50.6833 8.42457C52.704 8.42457 54.1947 9.07707 55.1555 10.3821C55.6691 9.77088 56.3315 9.29183 57.1432 8.94492C57.9549 8.59802 58.783 8.42457 59.6277 8.42457ZM75.8306 8.42457C77.7686 8.42457 79.3505 9.06882 80.5761 10.3573C81.8018 11.6293 82.4147 13.2564 82.4147 15.2387C82.4147 17.1715 81.7769 18.7903 80.5016 20.0954C79.2427 21.4004 77.6692 22.0529 75.7809 22.0529C74.4062 22.0529 73.2136 21.6812 72.2031 20.9378V26.86C72.2031 27.4547 71.9547 27.752 71.4578 27.752C70.646 27.752 69.9007 27.2894 69.2216 26.3644C68.559 25.4558 68.2278 24.2665 68.2278 22.7963V9.56439C68.2278 8.9697 68.4845 8.67236 68.998 8.67236C69.3459 8.67236 69.7352 8.82103 70.1658 9.11838C70.5964 9.39919 70.9775 9.7874 71.3087 10.283C71.7559 9.75437 72.3852 9.31661 73.197 8.9697C74.0087 8.60627 74.8865 8.42457 75.8306 8.42457ZM75.284 18.4847C76.1618 18.4847 76.899 18.1874 77.4953 17.5927C78.0916 16.998 78.3897 16.2134 78.3897 15.2387C78.3897 14.2806 78.0916 13.5042 77.4953 12.9095C76.899 12.2983 76.1618 11.9927 75.284 11.9927C74.4062 11.9927 73.669 12.2983 73.0727 12.9095C72.4931 13.5042 72.2031 14.2806 72.2031 15.2387C72.2031 16.2134 72.5013 16.998 73.0976 17.5927C73.6939 18.1874 74.4226 18.4847 75.284 18.4847ZM97.3231 8.67236C97.8367 8.67236 98.0933 8.9697 98.0933 9.56439V20.9131C98.0933 21.5078 97.8367 21.8051 97.3231 21.8051C96.9753 21.8051 96.5859 21.6647 96.1554 21.3839C95.7248 21.0865 95.3436 20.6901 95.0125 20.1945C94.5652 20.7231 93.9359 21.1691 93.1242 21.5325C92.3125 21.8794 91.4347 22.0529 90.4905 22.0529C88.5526 22.0529 86.9707 21.4169 85.745 20.1449C84.5194 18.8564 83.9064 17.221 83.9064 15.2387C83.9064 13.2895 84.5194 11.6706 85.745 10.3821C86.9873 9.07707 88.5692 8.42457 90.4905 8.42457C91.4347 8.42457 92.3125 8.60627 93.1242 8.9697C93.9359 9.31661 94.5652 9.75437 95.0125 10.283C95.3436 9.7874 95.7248 9.39919 96.1554 9.11838C96.5859 8.82103 96.9753 8.67236 97.3231 8.67236ZM88.8259 17.5927C89.4222 18.1874 90.1593 18.4847 91.0371 18.4847C91.9149 18.4847 92.6439 18.1874 93.2236 17.5927C93.8199 16.9815 94.118 16.1969 94.118 15.2387C94.118 14.2806 93.8199 13.5042 93.2236 12.9095C92.6439 12.2983 91.9149 11.9927 91.0371 11.9927C90.1593 11.9927 89.4222 12.2983 88.8259 12.9095C88.2296 13.5042 87.9314 14.2806 87.9314 15.2387C87.9314 16.1969 88.2296 16.9815 88.8259 17.5927ZM109.797 18.0635C110.194 18.0635 110.393 18.2948 110.393 18.7573V20.2193C110.393 20.6157 110.335 20.9048 110.219 21.0865C110.12 21.2682 109.879 21.4334 109.498 21.5821C108.919 21.8134 108.157 21.929 107.213 21.929C103.933 21.929 102.293 20.1532 102.293 16.6016V12.3396H101.25C100.786 12.3396 100.446 12.2405 100.231 12.0423C100.032 11.844 99.9329 11.5054 99.9329 11.0263V10.2334C99.9329 9.75437 100.032 9.41572 100.231 9.21749C100.446 9.01926 100.786 8.92015 101.25 8.92015H102.293V7.01218C102.293 6.54964 102.393 6.21926 102.591 6.02103C102.79 5.80627 103.13 5.69891 103.61 5.69891H104.952C105.432 5.69891 105.772 5.80627 105.97 6.02103C106.169 6.21926 106.269 6.54964 106.269 7.01218V8.92015H108.803C109.266 8.92015 109.598 9.01926 109.797 9.21749C110.012 9.41572 110.12 9.75437 110.12 10.2334V11.0263C110.12 11.5054 110.012 11.844 109.797 12.0423C109.598 12.2405 109.266 12.3396 108.803 12.3396H106.269V16.1308C106.269 16.9402 106.409 17.5101 106.691 17.8405C106.989 18.1544 107.469 18.3113 108.132 18.3113C108.463 18.3113 108.794 18.27 109.126 18.1874C109.474 18.1048 109.697 18.0635 109.797 18.0635ZM124.385 10.2582C125.396 11.4311 125.901 13.1738 125.901 15.4865V20.244C125.901 20.7231 125.793 21.0617 125.578 21.26C125.379 21.4582 125.048 21.5573 124.584 21.5573H123.242C122.778 21.5573 122.439 21.4582 122.224 21.26C122.025 21.0617 121.926 20.7231 121.926 20.244V15.6104C121.926 14.4376 121.719 13.5868 121.304 13.0582C120.857 12.48 120.186 12.1909 119.292 12.1909C118.397 12.1909 117.702 12.48 117.205 13.0582C116.708 13.6364 116.459 14.4788 116.459 15.5856V20.244C116.459 20.7066 116.36 21.0452 116.161 21.26C115.963 21.4582 115.623 21.5573 115.143 21.5573H113.801C113.321 21.5573 112.981 21.4582 112.782 21.26C112.584 21.0452 112.484 20.7066 112.484 20.244V7.68121C112.484 6.21101 112.815 5.02163 113.478 4.11307C114.157 3.188 114.902 2.72546 115.714 2.72546C116.211 2.72546 116.459 3.0228 116.459 3.61749V9.73785C117.387 8.86234 118.613 8.42457 120.137 8.42457C121.893 8.42457 123.309 9.03579 124.385 10.2582ZM130.728 6.91307C130.099 6.91307 129.561 6.70659 129.113 6.2936C128.683 5.86411 128.467 5.35201 128.467 4.75731C128.467 4.1461 128.683 3.63402 129.113 3.22103C129.561 2.80804 130.099 2.60156 130.728 2.60156C131.341 2.60156 131.871 2.81632 132.318 3.24581C132.766 3.6588 132.989 4.16262 132.989 4.75731C132.989 5.35201 132.766 5.86411 132.318 6.2936C131.871 6.70659 131.341 6.91307 130.728 6.91307ZM130.058 21.5573C129.594 21.5573 129.254 21.4582 129.039 21.26C128.84 21.0617 128.741 20.7231 128.741 20.244V10.2334C128.741 9.75437 128.84 9.41572 129.039 9.21749C129.254 9.01926 129.594 8.92015 130.058 8.92015H131.399C131.863 8.92015 132.194 9.01926 132.393 9.21749C132.608 9.41572 132.716 9.75437 132.716 10.2334V20.244C132.716 20.7231 132.608 21.0617 132.393 21.26C132.194 21.4582 131.863 21.5573 131.399 21.5573H130.058ZM144.793 3.04758C145.058 3.16322 145.232 3.3119 145.315 3.4936C145.414 3.6588 145.464 3.92309 145.464 4.28652V5.8228C145.464 6.23579 145.257 6.44227 144.843 6.44227C144.694 6.44227 144.412 6.40096 143.998 6.31838C143.6 6.21926 143.211 6.1697 142.83 6.1697C141.538 6.1697 140.892 6.90482 140.892 8.37501V8.92015H143.302C143.766 8.92015 144.097 9.01926 144.296 9.21749C144.512 9.41572 144.619 9.75437 144.619 10.2334V11.0263C144.619 11.5054 144.512 11.844 144.296 12.0423C144.097 12.2405 143.766 12.3396 143.302 12.3396H140.892V20.244C140.892 20.7066 140.793 21.0452 140.594 21.26C140.395 21.4582 140.056 21.5573 139.575 21.5573H138.234C137.753 21.5573 137.414 21.4582 137.215 21.26C137.016 21.0452 136.917 20.7066 136.917 20.244V12.3396H135.873C135.41 12.3396 135.07 12.2405 134.855 12.0423C134.656 11.844 134.557 11.5054 134.557 11.0263V10.2334C134.557 9.75437 134.656 9.41572 134.855 9.21749C135.07 9.01926 135.41 8.92015 135.873 8.92015H136.917V8.6228C136.917 6.54139 137.439 5.02163 138.482 4.06351C139.542 3.08889 140.867 2.60156 142.458 2.60156C143.352 2.60156 144.131 2.75024 144.793 3.04758ZM158.053 8.92015C158.534 8.92015 158.873 9.02751 159.072 9.24227C159.271 9.4405 159.37 9.77088 159.37 10.2334V20.8387C159.37 25.5301 156.927 27.8759 152.041 27.8759C150.186 27.8759 148.803 27.6363 147.892 27.1573C147.593 27.0086 147.386 26.8352 147.27 26.637C147.155 26.4553 147.096 26.1828 147.096 25.8193V24.4564C147.096 23.8122 147.362 23.4901 147.892 23.4901C147.991 23.4901 148.463 23.6222 149.308 23.8865C150.169 24.1673 151.138 24.3078 152.215 24.3078C153.374 24.3078 154.211 24.0352 154.724 23.4901C155.238 22.9615 155.494 22.1438 155.494 21.037V20.2193C154.699 21.1113 153.507 21.5573 151.917 21.5573C150.393 21.5573 149.093 21.0452 148.016 20.021C146.807 18.8647 146.202 17.0558 146.202 14.5945V10.2334C146.202 9.75437 146.301 9.41572 146.5 9.21749C146.716 9.01926 147.055 8.92015 147.519 8.92015H148.86C149.324 8.92015 149.656 9.01926 149.854 9.21749C150.07 9.41572 150.177 9.75437 150.177 10.2334V14.2228C150.177 15.6104 150.434 16.5685 150.948 17.0971C151.378 17.5597 151.975 17.7909 152.736 17.7909C153.531 17.7909 154.169 17.5266 154.65 16.998C155.146 16.4529 155.395 15.5691 155.395 14.3467V10.2334C155.395 9.77088 155.494 9.4405 155.693 9.24227C155.892 9.02751 156.231 8.92015 156.712 8.92015H158.053Z" fill="white"/>
</svg>
