<svg width="170" height="219" viewBox="0 0 170 219" fill="none" xmlns="http://www.w3.org/2000/svg">
<path d="M36.8571 211.335C37.2644 211.7 37.6689 212.049 38.1057 212.408C53.7407 225.225 79.4472 226.102 79.4472 226.102L77.0992 213.935L74.1431 198.587C74.1431 198.587 57.7193 200.75 44.8157 192.378C32.0275 184.032 22.9781 198.754 36.8571 211.335Z" fill="#363636"/>
<path opacity="0.2" d="M30.8562 212.392C31.2636 212.757 31.668 213.106 32.1048 213.465C47.7398 226.282 73.4464 227.159 73.4464 227.159L71.0983 214.992C65.4983 216.385 47.1042 220.017 30.8562 212.392Z" fill="#302F3B"/>
<path d="M211.034 215.27C211.034 215.27 165.677 223.268 74.372 239.367C68.3962 222.01 70.0117 205.357 72.8987 193.436C75.5028 182.657 79.151 175.761 79.151 175.761L177.028 148.043C186.287 153.425 193.02 160.672 197.923 168.413C211.55 189.909 211.034 215.27 211.034 215.27Z" fill="#363636"/>
<path d="M110.165 170.29C110.165 170.29 106.239 198.673 114.465 232.298C152.327 225.621 171.133 222.305 171.133 222.305C171.133 222.305 166.848 176.295 149.703 152.859L110.165 170.29Z" fill="#F2F2F2"/>
<path opacity="0.2" d="M197.923 168.413C142.437 204.636 91.8677 197.933 72.8981 193.436C75.5022 182.657 79.1504 175.762 79.1504 175.762L177.028 148.044C186.286 153.427 193.02 160.673 197.923 168.413Z" fill="#302F3B"/>
<path d="M231.239 129.256C228.015 139.178 208.881 150.284 183.603 159.963C154.117 171.243 116.292 180.578 85.6223 183.818C64.6548 186.034 47.0393 185.415 37.7259 180.603C30.9539 177.121 26.1229 169.617 23.2918 159.655C11.6056 118.58 34.1541 35.7697 97.2097 21.6112C159.08 7.70886 222.148 77.4338 231.028 115.06C232.334 120.613 232.473 125.468 231.239 129.256Z" fill="#363636"/>
<path d="M115.05 30.8512C113.192 36.1971 136.174 42.1189 138.894 36.4987C141.614 30.8797 118.461 21.0403 115.05 30.8512Z" fill="white"/>
<path d="M203.911 110.692C204.255 126.61 193.524 145.759 183.603 159.964C154.117 171.244 116.291 180.579 85.6221 183.82C69.6824 178.478 45.3999 166.39 41.5889 141.776C35.8342 104.629 56.7967 79.4036 79.8062 77.8091C94.5209 76.79 105.664 101.894 113.839 114.263C118.448 121.235 124.057 118.615 124.057 118.615C124.057 118.615 129.874 118.24 130.129 108.93C130.515 94.8416 127.227 69.0856 143.552 62.875C170.651 52.5622 203.274 81.2628 203.911 110.692Z" fill="#F2F2F2"/>
<path opacity="0.2" d="M231.239 129.258C228.015 139.18 208.881 150.286 183.604 159.965C154.117 171.245 116.292 180.579 85.6226 183.82C64.6551 186.036 47.0395 185.417 37.7261 180.605C30.9541 177.122 26.1232 169.619 23.2921 159.657C39.525 166.756 82.3399 181.469 134.272 167.26C186.177 153.073 219.095 126.16 231.028 115.061C232.335 120.615 232.473 125.47 231.239 129.258Z" fill="#302F3B"/>
<path d="M127.197 127.601C134.314 125.576 136.767 115.551 135.812 113.909C134.857 112.266 114.346 119.162 112.838 120.814C111.33 122.465 118.818 129.986 127.197 127.601Z" fill="#E3841F"/>
<path d="M120.693 107.808C129.962 104.599 140.243 113.624 140.455 116.133C140.665 118.643 113.147 126.738 110.254 126.089C107.361 125.442 109.781 111.585 120.693 107.808Z" fill="#E8A226"/>
<path d="M71.9857 94.1968C56.3372 98.877 55.6947 128.226 78.0146 128.388C100.334 128.55 91.889 88.2438 71.9857 94.1968Z" fill="#302F3B"/>
<path d="M76.4386 123.749C76.5386 127.107 86.4997 123.584 86.0462 121.251C85.593 118.919 76.3751 121.582 76.4386 123.749Z" fill="white"/>
<path d="M67.0489 118.036C65.3515 120.229 69.3425 124.061 72.3472 120.932C75.3528 117.802 69.5008 114.867 67.0489 118.036Z" fill="white"/>
<path d="M71.3381 100.312C67.5418 105.219 76.4674 113.787 83.1872 106.789C89.9086 99.7912 76.8203 93.2273 71.3381 100.312Z" fill="white"/>
<path d="M48.443 132.736C45.5879 139.46 64.6307 148.384 67.4314 136.133C69.1615 128.566 51.2994 126.012 48.443 132.736Z" fill="#DC4167"/>
<path d="M158.518 78.9384C174.823 77.9842 185.465 105.343 164.546 113.13C143.628 120.915 137.779 80.1517 158.518 78.9384Z" fill="#302F3B"/>
<path d="M164.492 107.867C165.547 111.056 154.981 111.153 154.609 108.807C154.238 106.46 163.81 105.809 164.492 107.867Z" fill="white"/>
<path d="M171.363 99.2874C173.708 100.769 171.268 105.734 167.375 103.821C163.48 101.909 167.975 97.1494 171.363 99.2874Z" fill="white"/>
<path d="M161.27 84.1001C166.516 87.4134 161.059 98.5169 152.35 94.2386C143.641 89.9619 153.695 79.3162 161.27 84.1001Z" fill="white"/>
</svg>
