<svg width="203" height="254" viewBox="0 0 203 254" fill="none" xmlns="http://www.w3.org/2000/svg">
<path d="M66.4561 245.865C66.8647 246.231 67.2705 246.582 67.7099 246.942C83.3966 259.8 109.185 260.68 109.185 260.68L106.829 248.474L103.864 233.076C103.864 233.076 87.3868 235.246 74.4416 226.847C61.6109 218.474 52.5323 233.243 66.4561 245.865Z" fill="#363636"/>
<path opacity="0.2" d="M66.457 245.865C66.8657 246.232 67.2714 246.582 67.7109 246.942C83.3976 259.8 109.186 260.68 109.186 260.68L106.83 248.474C101.211 249.871 82.7576 253.517 66.457 245.865Z" fill="#302F3B"/>
<path d="M240.844 250.083C240.844 250.083 195.34 258.106 103.74 274.258C97.7451 256.844 99.3658 240.138 102.262 228.178C104.875 217.365 108.535 210.448 108.535 210.448L206.728 182.64C216.016 188.04 222.771 195.31 227.69 203.076C241.361 224.64 240.844 250.083 240.844 250.083Z" fill="#363636"/>
<path d="M139.649 204.961C139.649 204.961 135.711 233.435 143.963 267.168C181.947 260.471 200.815 257.144 200.815 257.144C200.815 257.144 196.516 210.985 179.315 187.473L139.649 204.961Z" fill="#F2F2F2"/>
<path opacity="0.2" d="M227.69 203.077C172.025 239.417 121.293 232.692 102.262 228.181C104.875 217.367 108.535 210.451 108.535 210.451L206.728 182.643C216.016 188.041 222.771 195.312 227.69 203.077Z" fill="#302F3B"/>
<path d="M262.605 172.6C258.798 182.349 238.987 192.357 213.105 200.577C182.917 210.155 144.489 217.299 113.584 218.757C92.4558 219.754 74.8494 218.107 65.803 212.745C59.2246 208.863 54.8227 201.065 52.5679 190.924C43.2592 149.105 70.6687 67.4815 134.647 56.978C197.422 46.6609 256.522 120.17 263.221 158.371C264.205 164.008 264.061 168.879 262.605 172.6Z" fill="#363636"/>
<path d="M151.974 67.2696C149.801 72.5161 172.474 79.7867 175.525 74.3165C178.577 68.8462 155.962 57.6419 151.974 67.2696Z" fill="white"/>
<path d="M235.636 146.597C235.257 164.312 223.614 184.759 213.01 199.773C182.899 210.017 144.506 217.455 113.573 218.675C97.8166 211.501 73.9905 196.184 71.2856 168.537C67.1979 126.81 89.3865 100.408 112.557 100.422C127.374 100.432 137.417 129.193 145.062 143.573C149.371 151.677 155.119 149.201 155.119 149.201C155.119 149.201 160.975 149.236 161.655 138.91C162.684 123.285 160.554 94.4087 177.223 88.7751C204.894 79.4189 236.335 113.844 235.636 146.597Z" fill="#F2F2F2"/>
<path opacity="0.2" d="M262.604 172.6C258.798 182.349 238.987 192.356 213.105 200.577C182.916 210.155 144.488 217.299 113.584 218.757C92.4553 219.754 74.8489 218.106 65.8025 212.745C59.2241 208.863 54.8222 201.065 52.5674 190.924C68.4113 198.981 110.433 216.21 163.274 205.008C216.084 193.825 250.622 168.791 263.22 158.371C264.204 164.008 264.061 168.879 262.604 172.6Z" fill="#302F3B"/>
<path d="M158.561 163.801C166.005 162.684 168.731 147.469 167.552 144.965C166.372 142.46 143.98 149.048 142.518 150.98C141.055 152.911 149.798 165.116 158.561 163.801Z" fill="#E3841F"/>
<path d="M157.828 159.05C163.312 158.115 165.66 147.637 164.852 145.949C164.044 144.262 147.475 149.286 146.358 150.641C145.242 151.997 151.373 160.151 157.828 159.05Z" fill="#DD4C12"/>
<path d="M151.527 136.836C162.299 134.011 173.219 143.514 173.253 146.044C173.288 148.574 141.427 155.524 138.2 154.749C134.972 153.974 138.846 140.162 151.527 136.836Z" fill="#E8A226"/>
<path d="M103.62 115.704C87.6742 119.48 85.3198 148.836 107.665 150.299C130.01 151.762 123.901 110.903 103.62 115.704Z" fill="#302F3B"/>
<path d="M102.616 121.791C98.5278 126.484 106.968 135.585 114.107 128.968C121.244 122.352 108.518 115.015 102.616 121.791Z" fill="white"/>
<path d="M188.32 101.045C204.707 101.04 213.77 129.061 192.365 135.64C170.96 142.217 167.479 101.051 188.32 101.045Z" fill="#302F3B"/>
<path d="M190.773 106.374C195.834 109.997 189.721 120.8 181.248 116.009C172.776 111.218 183.467 101.142 190.773 106.374Z" fill="white"/>
<path d="M84.1493 142.41C83.896 142.221 115.654 128.367 122.908 149.902C130.161 171.439 94.5572 154.978 94.7698 154.864" fill="#F2F2F2"/>
<path d="M211.956 119.875C212.129 119.61 177.548 117.453 178.097 140.171C178.648 162.89 206.473 135.244 206.235 135.21" fill="#F2F2F2"/>
<path d="M103.571 174.536C111.117 169.729 113.337 159.714 108.53 152.168C103.722 144.622 93.7076 142.402 86.1615 147.209C78.6154 152.017 76.3953 162.031 81.2028 169.578C86.0102 177.124 96.0248 179.344 103.571 174.536Z" fill="#DC4167"/>
<path d="M218.568 154.259C226.114 149.451 228.334 139.437 223.527 131.891C218.719 124.345 208.705 122.125 201.159 126.932C193.612 131.739 191.392 141.754 196.2 149.3C201.007 156.846 211.022 159.066 218.568 154.259Z" fill="#DC4167"/>
<path d="M103.45 45.6716C103.177 46.8067 102.29 48.2292 100.938 49.7719C98.1416 52.9887 93.3584 56.6838 87.9574 59.1963C80.5588 62.6364 72.0131 63.8491 65.783 58.541C62.9404 56.1266 61.172 45.7351 61.4897 38.1087C61.6361 34.5151 62.25 31.5424 63.4393 30.3097C67.6959 25.8762 71.8662 23.4913 75.8101 22.5785C92.2322 18.7493 104.786 40.2697 103.45 45.6716Z" fill="#FF6D59"/>
<path opacity="0.2" d="M87.9573 59.1959C80.5587 62.6361 72.013 63.8488 65.7829 58.5407C62.9403 56.1263 61.1719 45.7348 61.4896 38.1084C70.434 39.6642 83.1175 44.5122 87.9573 59.1959Z" fill="#302F3B"/>
<path opacity="0.2" d="M103.45 45.6719C103.177 46.807 102.29 48.2294 100.938 49.7722C92.5216 46.9339 80.9028 39.9289 75.8102 22.5787C92.2323 18.7496 104.787 40.27 103.45 45.6719Z" fill="#302F3B"/>
<path d="M197.449 58.006C196.282 58.0111 194.689 57.4875 192.87 56.5398C189.081 54.5877 184.355 50.8199 180.631 46.1697C175.532 39.8002 172.324 31.7879 175.999 24.475C177.669 21.1395 187.342 16.953 194.826 15.4506C198.351 14.7394 201.384 14.6292 202.865 15.4909C208.183 18.5723 211.49 22.0569 213.313 25.6703C220.935 40.7127 203.014 58.021 197.449 58.006Z" fill="#FFDE00"/>
<path d="M180.631 46.1702C175.532 39.8007 172.324 31.7883 175.999 24.4754C177.669 21.14 187.342 16.9535 194.826 15.4511C195.439 24.5079 193.744 37.9794 180.631 46.1702Z" fill="#E8A226"/>
<path d="M197.45 58.0052C196.282 58.0104 194.69 57.4868 192.87 56.539C193.628 47.6892 197.671 34.7398 213.315 25.6706C220.935 40.7119 203.014 58.0203 197.45 58.0052Z" fill="#E8A226"/>
<path d="M33.7691 213.138C33.0226 212.24 32.4122 210.679 31.9831 208.673C31.076 204.508 30.9721 198.465 32.1868 192.633C33.8512 184.645 37.9873 177.069 45.9666 175.248C49.6007 174.413 58.9894 179.206 64.9136 184.02C67.707 186.286 69.7234 188.554 70.0009 190.244C71.0111 196.307 70.4299 201.075 68.8048 204.783C62.058 220.237 37.3011 217.439 33.7691 213.138Z" fill="#00C0C3"/>
<path opacity="0.2" d="M32.1871 192.633C33.8516 184.646 37.9876 177.07 45.967 175.248C49.6011 174.413 58.9898 179.207 64.914 184.02C58.32 190.261 46.8525 197.531 32.1871 192.633Z" fill="#302F3B"/>
<path opacity="0.2" d="M33.769 213.14C33.0225 212.242 32.4122 210.681 31.983 208.675C39.2894 203.624 51.8494 198.496 68.8035 204.784C62.0579 220.239 37.301 217.44 33.769 213.14Z" fill="#302F3B"/>
</svg>
