<svg width="166" height="251" viewBox="0 0 166 251" fill="none" xmlns="http://www.w3.org/2000/svg">
<path d="M33.284 158.804C33.284 158.804 12.6944 136.556 23.5144 103.398C29.9076 108.938 32.9974 107.56 32.9974 107.56C32.9974 107.56 17.6925 70.2596 58.509 43.0632C67.1846 55.6992 78.1028 56.2749 78.1028 56.2749C78.1028 56.2749 69.6272 32.3535 75.8002 23.349C92.4531 38.3284 145.034 22.0907 160.529 49.9515C169.109 40.644 179.949 38.3167 179.949 38.3167C179.949 38.3167 171.709 55.3911 187.211 70.0547C202.713 84.7183 239.933 108.103 221.861 138.966" fill="#FFC200"/>
<path d="M42.0861 145.038C42.0861 145.038 29.1615 130.71 30.6314 117.778C43.9047 119.802 55.5579 113.383 55.5579 113.383C55.5579 113.383 34.272 86.4468 50.9085 57.9171C74.6675 76.8795 102.241 67.8515 102.241 67.8515C102.241 67.8515 81.2284 59.4733 82.6822 37.1352C123.542 37.4305 161.024 35.1141 156.622 79.7845" fill="#FF4B4B"/>
<path d="M210.68 244.521C210.68 244.521 166.096 252.383 76.3465 268.208C70.4726 251.146 72.0606 234.777 74.8984 223.059C77.458 212.464 81.0441 205.686 81.0441 205.686L177.253 178.44C186.354 183.73 192.972 190.854 197.792 198.463C211.188 219.592 210.68 244.521 210.68 244.521Z" fill="#363636"/>
<path d="M111.532 200.311C111.532 200.311 107.673 228.21 115.757 261.261C152.974 254.699 171.46 251.44 171.46 251.44C171.46 251.44 167.248 206.213 150.395 183.176L111.532 200.311Z" fill="#F2F2F2"/>
<path opacity="0.2" d="M197.793 198.463C143.253 234.068 93.5457 227.479 74.8994 223.059C77.4591 212.464 81.0451 205.686 81.0451 205.686L177.254 178.44C186.354 183.732 192.973 190.854 197.793 198.463Z" fill="#302F3B"/>
<path d="M234.218 170.96C230.613 180.561 211.332 190.619 186.081 199.004C156.628 208.773 119.071 216.265 88.8114 218.09C68.1248 219.337 50.8538 217.948 41.9217 212.811C35.4258 209.091 31.0152 201.508 28.6758 191.601C19.0206 150.75 44.8283 70.4321 107.374 59.3222C168.744 48.4109 227.586 119.672 234.639 157.011C235.676 162.522 235.596 167.296 234.218 170.96Z" fill="#363636"/>
<path d="M124.484 69.1827C122.422 74.35 144.729 81.1832 147.648 75.7847C150.568 70.3857 128.267 59.6987 124.484 69.1827Z" fill="white"/>
<path d="M208.205 151.52C207.838 167.167 196.452 185.495 186.081 199.005C156.628 208.774 119.072 216.266 88.8119 218.091C73.3974 212.138 50.0869 199.194 47.4356 174.855C43.4294 138.123 65.1313 114.282 87.7959 113.736C102.291 113.386 112.12 138.531 119.6 151.04C123.817 158.09 129.441 155.765 129.441 155.765C129.441 155.765 135.169 155.654 135.833 146.524C136.836 132.707 134.747 107.27 151.054 101.894C178.12 92.9667 208.883 122.593 208.205 151.52Z" fill="#F2F2F2"/>
<path d="M69.1863 138.623C64.8886 148.485 68.6311 162.526 83.7976 163.32C96.0087 163.959 99.3933 151.832 96.567 141.829" fill="#302F3B"/>
<path d="M75.6334 141.445C72.843 147.847 75.2732 156.961 85.1182 157.477C93.0449 157.892 95.2415 150.02 93.4073 143.526" fill="#FF4B4B"/>
<path d="M170.632 119.422C182.916 124.555 187.75 146.283 169.445 152.171C156.018 156.491 149.595 141.384 152.145 129.97" fill="#302F3B"/>
<path d="M167.635 122.008C176.079 125.537 179.404 140.476 166.819 144.524C157.588 147.493 153.172 137.107 154.925 129.26" fill="#FF4B4B"/>
<path opacity="0.2" d="M234.219 170.959C230.614 180.559 211.333 190.617 186.082 199.002C156.629 208.772 119.072 216.263 88.8124 218.088C68.1258 219.335 50.8548 217.946 41.9227 212.809C35.4268 209.09 31.0162 201.506 28.6768 191.6C44.3025 199.29 85.6931 215.632 137.317 203.981C188.914 192.349 222.431 167.38 234.639 157.01C235.677 162.52 235.597 167.294 234.219 170.959Z" fill="#302F3B"/>
<path d="M129.955 163.369C139.339 161.706 144.437 152.852 143.56 151.375C142.683 149.899 115.426 155.633 113.194 157.071C110.961 158.509 118.907 165.329 129.955 163.369Z" fill="#E3841F"/>
<path d="M125.701 145.672C138.039 142.999 149.207 151.206 148.972 153.439C148.737 155.672 112.399 162.337 108.877 161.706C105.357 161.077 111.178 148.818 125.701 145.672Z" fill="#E8A226"/>
<path d="M74.3748 153.992C72.6101 156.071 76.3607 160.01 79.4494 157.07C82.5396 154.131 76.9225 150.989 74.3748 153.992Z" fill="white"/>
<path d="M60.5719 163.439C58.7752 167.191 69.3791 172.756 71.2876 165.858C72.4658 161.597 62.3685 159.687 60.5719 163.439Z" fill="#FF4B4B"/>
<path d="M163.434 141.227C165.672 142.786 163.056 147.554 159.316 145.503C155.578 143.452 160.203 138.977 163.434 141.227Z" fill="white"/>
<path d="M89.1801 274.945C88.8831 274.498 88.5995 274.054 88.3114 273.578C78.0429 256.564 80.8074 231.434 80.8074 231.434L92.3124 235.43L106.828 240.465C106.828 240.465 102.413 256.138 108.742 269.868C115.061 283.486 99.4658 290.218 89.1801 274.945Z" fill="#363636"/>
<path opacity="0.2" d="M89.1801 274.945C88.8831 274.498 88.5995 274.054 88.3114 273.578C78.0429 256.564 80.8074 231.434 80.8074 231.434L92.3124 235.43C90.169 240.683 84.0463 258.066 89.1801 274.945Z" fill="#302F3B"/>
<path d="M101.734 145.162C101.421 145.217 101.095 145.225 100.764 145.178L60.9329 139.519C59.2455 139.279 58.0731 137.718 58.312 136.032C58.5508 134.344 60.116 133.174 61.7991 133.411L101.631 139.07C103.318 139.31 104.49 140.871 104.251 142.557C104.06 143.914 103.013 144.936 101.734 145.162Z" fill="#302F3B"/>
<path d="M146.945 136.079C145.723 136.294 144.438 135.754 143.762 134.625C142.887 133.163 143.362 131.269 144.824 130.394L179.342 109.728C180.804 108.855 182.697 109.328 183.574 110.79C184.449 112.252 183.974 114.146 182.512 115.021L147.994 135.687C147.66 135.886 147.305 136.015 146.945 136.079Z" fill="#302F3B"/>
</svg>
