<svg width="185" height="220" viewBox="0 0 185 220" fill="none" xmlns="http://www.w3.org/2000/svg">
<path d="M228.152 218.966C228.152 218.966 181.978 227.107 89.0302 243.497C82.9469 225.827 84.5915 208.874 87.5304 196.739C90.1814 185.766 93.8953 178.746 93.8953 178.746L193.534 150.529C202.959 156.008 209.813 163.386 214.805 171.266C228.677 193.148 228.152 218.966 228.152 218.966Z" fill="#363636"/>
<path d="M125.469 173.177C125.469 173.177 121.473 202.07 129.847 236.3C168.39 229.504 187.535 226.128 187.535 226.128C187.535 226.128 183.173 179.289 165.719 155.431L125.469 173.177Z" fill="#F2F2F2"/>
<path opacity="0.2" d="M214.805 171.266C158.321 208.14 106.842 201.317 87.5311 196.739C90.182 185.766 93.8959 178.747 93.8959 178.747L193.534 150.53C202.958 156.01 209.814 163.386 214.805 171.266Z" fill="#302F3B"/>
<path d="M250.095 125.352C250.404 127.179 250.61 128.933 250.682 130.594C250.85 134.12 250.45 137.227 249.437 139.793C247.087 145.748 238.847 151.782 226.921 157.44C219.054 161.176 209.577 164.754 199.126 168.037C168.463 177.674 129.457 184.812 98.093 186.203C86.3768 186.724 75.7268 186.448 66.9919 185.186C59.7257 184.157 53.7809 182.454 49.6188 179.97C42.9511 176.007 38.5047 168.085 36.2483 157.79C26.9188 115.33 54.9669 32.5802 119.919 22.1005C183.647 11.8109 243.399 86.5662 250.095 125.352Z" fill="#363636"/>
<path d="M137.471 32.6007C135.252 37.9178 158.238 45.3589 161.349 39.8171C164.461 34.2765 141.544 22.8434 137.471 32.6007Z" fill="white"/>
<path d="M222.814 119.232C222.176 135.428 210.085 154.221 199.125 168.04C168.465 177.672 129.453 184.815 98.0873 186.207C82.2228 179.79 58.2971 166.004 55.9515 140.757C52.4056 102.654 75.2687 78.322 98.7485 78.1291C113.763 78.0055 123.53 104.204 131.07 117.279C135.32 124.648 141.182 122.333 141.182 122.333C141.182 122.333 147.115 122.313 147.952 112.868C149.218 98.5777 147.472 72.2032 164.445 66.9032C192.622 58.1044 223.991 89.2887 222.814 119.232Z" fill="#F2F2F2"/>
<path d="M47.9141 117.206C37.7974 124.333 47.2541 154.85 63.2789 139.65C73.1771 130.261 58.0296 110.078 47.9141 117.206Z" fill="#DC4167"/>
<path d="M143.816 131.662C151.174 130.045 154.288 120.012 153.418 118.284C152.549 116.556 131.281 122.292 129.646 123.877C128.013 125.461 135.155 133.565 143.816 131.662Z" fill="#E3841F"/>
<path d="M138.436 111.146C148.054 108.461 157.941 118.266 158 120.83C158.059 123.394 129.596 129.913 126.696 129.075C123.796 128.238 127.114 114.307 138.436 111.146Z" fill="#E8A226"/>
<path d="M107.336 120.134C101.856 122.982 97.0278 126.065 92.7745 129.32C83.3549 128.294 78.5581 122.211 77.4539 115.36C76.0345 106.501 80.8055 96.3949 89.7903 94.2916C103.599 91.0652 110.88 108.661 107.336 120.134Z" fill="#302F3B"/>
<path d="M107.335 120.134C82.6197 140.024 71.7238 167.275 66.9925 185.185C62.3475 184.525 58.2525 183.599 54.8038 182.365C52.8622 181.656 51.1279 180.872 49.6194 179.97C47.8214 178.899 46.1952 177.55 44.7305 175.94C40.7167 171.574 37.8994 165.31 36.2489 157.79C46.4695 127.298 77.4532 115.36 77.4532 115.36L84.182 116.431L97.5471 118.564L107.335 120.134Z" fill="#7BB4FF"/>
<path opacity="0.2" d="M97.5478 118.564C62.4726 136.22 55.6056 165.42 54.8045 182.365C52.8629 181.656 51.1286 180.872 49.62 179.97C47.8221 178.899 46.1959 177.551 44.7312 175.941C43.5379 143.711 68.7049 124.909 84.1827 116.431L97.5478 118.564Z" fill="#302F3B"/>
<path d="M90.1288 109.902C85.4805 112.211 92.919 117.646 100.853 114.47C108.789 111.296 96.84 106.569 90.1288 109.902Z" fill="white"/>
<path d="M84.2322 100.91C82.0845 103.205 85.5463 108.657 89.2142 105.505C92.8832 102.352 87.3329 97.5956 84.2322 100.91Z" fill="white"/>
<path d="M166.501 109.702C172.624 110.504 178.216 111.75 183.326 113.354C191.827 109.169 194.253 101.811 192.948 94.9957C191.252 86.1857 183.312 78.3208 174.15 79.4173C160.069 81.1086 159.247 100.134 166.501 109.702Z" fill="#302F3B"/>
<path d="M250.683 130.593C250.766 132.317 250.714 133.935 250.524 135.435C250.31 137.017 249.958 138.48 249.437 139.792C248.136 143.084 245.047 146.392 240.521 149.643C236.863 152.299 232.261 154.901 226.921 157.439C216.437 142.211 196.798 120.02 166.496 109.701L179.46 102.497L190.686 96.249L192.943 94.9946C192.943 94.9946 226.141 95.6158 246.174 120.773C248.108 124.234 249.593 127.502 250.683 130.593Z" fill="#7BB4FF"/>
<path opacity="0.2" d="M250.524 135.435C250.309 137.017 249.958 138.48 249.436 139.792C248.135 143.084 245.046 146.392 240.52 149.643C226.884 122.202 195.911 108.226 179.46 102.498L190.685 96.2491C216.21 101.48 236.467 118.93 250.524 135.435Z" fill="#302F3B"/>
<path opacity="0.2" d="M249.431 139.792C245.541 149.674 225.41 159.772 199.125 168.042C168.465 177.674 129.452 184.816 98.0866 186.209C76.6443 187.161 58.7829 185.439 49.6182 179.973C42.9526 176.015 38.5098 168.09 36.249 157.793C52.3028 166.012 94.8951 183.615 148.545 172.396C202.165 161.198 237.281 135.892 250.095 125.354C251.079 131.077 250.919 136.019 249.431 139.792Z" fill="#302F3B"/>
<path d="M179.168 94.2031C184.324 94.7835 179.195 102.434 170.653 102.164C162.11 101.895 171.721 93.366 179.168 94.2031Z" fill="white"/>
<path d="M181.635 83.734C184.438 85.1563 183.049 91.4635 178.523 89.7559C173.997 88.0483 177.586 81.6801 181.635 83.734Z" fill="white"/>
<path d="M210.66 156.082C210.937 156.565 211.2 157.041 211.466 157.553C220.926 175.83 216.37 201.615 216.37 201.615L204.75 196.707L190.089 190.522C190.089 190.522 195.712 174.623 190.101 160.005C184.491 145.505 201.064 139.602 210.66 156.082Z" fill="#363636"/>
<path d="M87.1431 177.862C87.0479 178.411 86.9649 178.949 86.8892 179.52C84.2505 199.931 97.3508 222.602 97.3508 222.602L106.591 214.016L118.253 203.19C118.253 203.19 107.531 190.173 107.804 174.518C108.117 158.973 90.5255 159.094 87.1431 177.862Z" fill="#363636"/>
<path opacity="0.2" d="M87.1426 177.863C87.0473 178.412 86.9644 178.949 86.8886 179.521C84.25 199.931 97.3503 222.603 97.3503 222.603L106.591 214.017C102.369 209.93 89.315 196.004 87.1426 177.863Z" fill="#302F3B"/>
<path d="M88.0557 100.318C82.5096 101.296 78.0796 100.744 77.729 100.699C75.9805 100.467 74.7501 98.8609 74.9826 97.111C75.2145 95.365 76.8169 94.1352 78.5637 94.3644C78.7582 94.3859 92.0041 95.9535 99.4412 87.5378C100.611 86.2144 102.629 86.0908 103.951 87.2591C105.272 88.4274 105.398 90.4465 104.229 91.7684C99.505 97.1132 93.2846 99.396 88.0557 100.318Z" fill="#302F3B"/>
<path d="M177.756 84.5016C172.526 85.4238 165.901 85.4072 159.634 81.9993C158.084 81.1567 157.511 79.2166 158.353 77.6666C159.197 76.1164 161.136 75.5436 162.686 76.3862C172.644 81.801 184.516 75.7252 184.635 75.6628C186.2 74.8443 188.13 75.4526 188.945 77.0165C189.762 78.5801 189.155 80.5102 187.591 81.327C187.278 81.4901 183.301 83.5239 177.756 84.5016Z" fill="#302F3B"/>
<path d="M25.6504 176.204C21.1368 182.065 29.8781 190.392 34.9997 185.175C40.1198 179.956 31.2685 168.908 25.6504 176.204Z" fill="#7BB4FF"/>
<path d="M34.8011 191.182C26.474 200.908 41.9946 214.257 51.3983 205.566C60.8005 196.874 45.164 179.077 34.8011 191.182Z" fill="#7BB4FF"/>
</svg>
