<svg width="1920" height="368" viewBox="0 0 1920 368" fill="none" xmlns="http://www.w3.org/2000/svg">
<path d="M720.284 277.29C701.467 255.865 683.523 235.432 653.296 222.071C607.978 202.037 574.331 200.096 543.677 198.329C511.914 196.496 483.362 194.85 448.366 173.451C409.686 149.8 394.067 127.395 378.015 104.366C365.529 86.4539 352.78 68.1645 328.71 48.6182C284.19 12.463 237.937 0 182.922 0H0V431H1920V0H1737.08C1682.06 0 1635.82 12.463 1591.29 48.6182C1567.22 68.1645 1554.47 86.4539 1541.99 104.366C1525.93 127.394 1510.31 149.8 1471.63 173.451C1436.64 194.85 1408.09 196.496 1376.32 198.329C1345.67 200.096 1312.02 202.037 1266.7 222.071C1236.48 235.432 1218.53 255.865 1199.72 277.29C1161.17 321.181 1118.96 369.241 960 369.241C801.038 369.241 758.831 321.181 720.284 277.29Z" fill="#1C8A4E"/>
</svg>
