<svg width="179" height="31" viewBox="0 0 179 31" fill="none" xmlns="http://www.w3.org/2000/svg">
<path d="M4.14355 8.36607C4.14355 4.88035 6.98877 2.05469 10.4986 2.05469H22.7317C22.7317 5.5404 19.8864 8.36607 16.3766 8.36607H4.14355Z" fill="#1C8A4E"/>
<path d="M5.52469 16.8719H0C0 13.3862 2.84522 10.5605 6.35505 10.5605H22.7316C22.7316 14.0463 19.8864 16.8719 16.3766 16.8719H5.52469Z" fill="#1C8A4E"/>
<path d="M4.14355 25.3778C4.14355 21.8921 6.98877 19.0664 10.4986 19.0664H22.7317C22.7317 22.5521 19.8864 25.3778 16.3766 25.3778H4.14355Z" fill="#1C8A4E"/>
<path d="M43.6425 19.6977C44.1765 19.6977 44.5541 19.8165 44.7751 20.0543C44.996 20.2738 45.1065 20.6396 45.1065 21.1517V22.4136C45.1065 22.9257 44.996 23.3006 44.7751 23.5384C44.5541 23.7579 44.1765 23.8676 43.6425 23.8676H31.7092C31.1752 23.8676 30.7976 23.7579 30.5766 23.5384C30.3556 23.3006 30.2451 22.9257 30.2451 22.4136V6.11803C30.2451 5.60592 30.3556 5.24015 30.5766 5.02068C30.7976 4.78291 31.1752 4.66405 31.7092 4.66405H43.532C44.066 4.66405 44.4436 4.78291 44.6646 5.02068C44.8855 5.24015 44.996 5.60592 44.996 6.11803V7.37997C44.996 7.89208 44.8855 8.26699 44.6646 8.50475C44.4436 8.72422 44.066 8.83396 43.532 8.83396H34.8859V12.1809H42.2613C42.7771 12.1809 43.1453 12.2906 43.3663 12.5101C43.6058 12.7295 43.7254 13.1045 43.7254 13.6348V14.8419C43.7254 15.3723 43.6058 15.7472 43.3663 15.9667C43.1453 16.1862 42.7771 16.2959 42.2613 16.2959H34.8859V19.6977H43.6425ZM66.2948 9.32776C68.3575 9.32776 69.9411 9.9953 71.0461 11.3304C72.151 12.6472 72.7035 14.4761 72.7035 16.8171V22.4136C72.7035 22.944 72.5839 23.3189 72.3444 23.5384C72.1234 23.7579 71.7552 23.8676 71.2394 23.8676H69.7478C69.232 23.8676 68.8547 23.7579 68.6152 23.5384C68.3942 23.3189 68.2837 22.944 68.2837 22.4136V17.1189C68.2837 14.7048 67.3998 13.4977 65.6319 13.4977C64.7112 13.4977 64.0021 13.8269 63.5049 14.4853C63.0076 15.1254 62.759 16.0216 62.759 17.1738V22.4136C62.759 22.944 62.6394 23.3189 62.3999 23.5384C62.1789 23.7579 61.8107 23.8676 61.295 23.8676H59.8033C59.2876 23.8676 58.9103 23.7579 58.6708 23.5384C58.4498 23.3189 58.3393 22.944 58.3393 22.4136V17.1189C58.3393 14.7048 57.4553 13.4977 55.6874 13.4977C54.7667 13.4977 54.0576 13.8269 53.5604 14.4853C53.0632 15.1254 52.8146 16.0216 52.8146 17.1738V22.4136C52.8146 22.9257 52.7041 23.3006 52.4831 23.5384C52.2621 23.7579 51.8845 23.8676 51.3505 23.8676H49.8589C49.3249 23.8676 48.9473 23.7579 48.7263 23.5384C48.5053 23.3006 48.3948 22.9257 48.3948 22.4136V10.5897C48.3948 9.9313 48.6802 9.6021 49.2512 9.6021C49.6379 9.6021 50.0707 9.7667 50.5495 10.0959C51.0282 10.4068 51.4519 10.8549 51.8201 11.4402C52.3541 10.7634 53.0265 10.2422 53.8367 9.87643C54.6654 9.51066 55.5032 9.32776 56.3504 9.32776C58.597 9.32776 60.2544 10.0502 61.3226 11.495C61.8936 10.8183 62.63 10.2879 63.5325 9.90387C64.4349 9.5198 65.3556 9.32776 66.2948 9.32776ZM84.3092 9.32776C86.4638 9.32776 88.2226 10.041 89.5853 11.4676C90.9479 12.8758 91.6294 14.6773 91.6294 16.872C91.6294 19.0118 90.9203 20.8042 89.5024 22.249C88.1027 23.6938 86.3533 24.4163 84.2539 24.4163C82.7255 24.4163 81.3996 24.0048 80.2762 23.1817V29.7384C80.2762 30.3968 79.9999 30.726 79.4475 30.726C78.545 30.726 77.7163 30.2138 76.9614 29.1897C76.2246 28.1837 75.8564 26.867 75.8564 25.2393V10.5897C75.8564 9.9313 76.1418 9.6021 76.7127 9.6021C77.0995 9.6021 77.5323 9.7667 78.011 10.0959C78.4898 10.4068 78.9135 10.8366 79.2817 11.3853C79.7789 10.8 80.4787 10.3154 81.3811 9.9313C82.2836 9.52893 83.2595 9.32776 84.3092 9.32776ZM83.7015 20.4658C84.6774 20.4658 85.497 20.1366 86.16 19.4782C86.8229 18.8198 87.1544 17.9511 87.1544 16.872C87.1544 15.8112 86.8229 14.9517 86.16 14.2932C85.497 13.6165 84.6774 13.2782 83.7015 13.2782C82.7255 13.2782 81.906 13.6165 81.243 14.2932C80.5985 14.9517 80.2762 15.8112 80.2762 16.872C80.2762 17.9511 80.6077 18.8198 81.2706 19.4782C81.9336 20.1366 82.7438 20.4658 83.7015 20.4658ZM108.205 9.6021C108.776 9.6021 109.061 9.9313 109.061 10.5897V23.1543C109.061 23.8127 108.776 24.1419 108.205 24.1419C107.818 24.1419 107.385 23.9865 106.906 23.6756C106.428 23.3463 106.004 22.9074 105.636 22.3587C105.138 22.944 104.439 23.4378 103.536 23.8402C102.634 24.2242 101.658 24.4163 100.608 24.4163C98.4535 24.4163 96.6947 23.7121 95.3321 22.3039C93.9694 20.8773 93.2879 19.0667 93.2879 16.872C93.2879 14.7139 93.9694 12.9216 95.3321 11.495C96.7132 10.0502 98.472 9.32776 100.608 9.32776C101.658 9.32776 102.634 9.52893 103.536 9.9313C104.439 10.3154 105.138 10.8 105.636 11.3853C106.004 10.8366 106.428 10.4068 106.906 10.0959C107.385 9.7667 107.818 9.6021 108.205 9.6021ZM98.7574 19.4782C99.4203 20.1366 100.24 20.4658 101.216 20.4658C102.192 20.4658 103.002 20.1366 103.647 19.4782C104.31 18.8015 104.641 17.9328 104.641 16.872C104.641 15.8112 104.31 14.9517 103.647 14.2932C103.002 13.6165 102.192 13.2782 101.216 13.2782C100.24 13.2782 99.4203 13.6165 98.7574 14.2932C98.0944 14.9517 97.7629 15.8112 97.7629 16.872C97.7629 17.9328 98.0944 18.8015 98.7574 19.4782ZM122.073 19.9994C122.515 19.9994 122.736 20.2555 122.736 20.7676V22.3862C122.736 22.8251 122.671 23.1452 122.542 23.3463C122.432 23.5475 122.165 23.7304 121.741 23.895C121.096 24.1511 120.25 24.2791 119.2 24.2791C115.554 24.2791 113.73 22.313 113.73 18.3809V13.6623H112.57C112.054 13.6623 111.677 13.5525 111.438 13.3331C111.217 13.1136 111.106 12.7387 111.106 12.2083V11.3304C111.106 10.8 111.217 10.4251 111.438 10.2056C111.677 9.98617 112.054 9.87643 112.57 9.87643H113.73V7.76404C113.73 7.25194 113.841 6.88617 114.062 6.6667C114.283 6.42893 114.66 6.31006 115.194 6.31006H116.686C117.22 6.31006 117.598 6.42893 117.819 6.6667C118.04 6.88617 118.15 7.25194 118.15 7.76404V9.87643H120.968C121.483 9.87643 121.852 9.98617 122.073 10.2056C122.312 10.4251 122.432 10.8 122.432 11.3304V12.2083C122.432 12.7387 122.312 13.1136 122.073 13.3331C121.852 13.5525 121.483 13.6623 120.968 13.6623H118.15V17.8596C118.15 18.7558 118.306 19.3868 118.62 19.7525C118.951 20.1 119.485 20.2738 120.222 20.2738C120.59 20.2738 120.958 20.228 121.327 20.1366C121.714 20.0452 121.962 19.9994 122.073 19.9994ZM138.292 11.3579C139.416 12.6564 139.977 14.5859 139.977 17.1463V22.4136C139.977 22.944 139.858 23.3189 139.618 23.5384C139.397 23.7579 139.029 23.8676 138.513 23.8676H137.022C136.506 23.8676 136.129 23.7579 135.889 23.5384C135.668 23.3189 135.558 22.944 135.558 22.4136V17.2835C135.558 15.985 135.328 15.0431 134.867 14.4579C134.37 13.8177 133.624 13.4977 132.63 13.4977C131.635 13.4977 130.862 13.8177 130.309 14.4579C129.757 15.098 129.48 16.0307 129.48 17.2561V22.4136C129.48 22.9257 129.37 23.3006 129.149 23.5384C128.928 23.7579 128.55 23.8676 128.016 23.8676H126.525C125.991 23.8676 125.613 23.7579 125.392 23.5384C125.171 23.3006 125.061 22.9257 125.061 22.4136V8.50475C125.061 6.87703 125.429 5.56022 126.166 4.55431C126.921 3.53013 127.749 3.01803 128.652 3.01803C129.204 3.01803 129.48 3.34723 129.48 4.00564V10.7817C130.512 9.81243 131.875 9.32776 133.569 9.32776C135.521 9.32776 137.095 10.0045 138.292 11.3579ZM145.345 7.65431C144.645 7.65431 144.046 7.42571 143.549 6.96847C143.07 6.49296 142.831 5.92599 142.831 5.26759C142.831 4.59088 143.07 4.02394 143.549 3.5667C144.046 3.10946 144.645 2.88086 145.345 2.88086C146.026 2.88086 146.615 3.11863 147.113 3.59413C147.61 4.05137 147.858 4.60918 147.858 5.26759C147.858 5.92599 147.61 6.49296 147.113 6.96847C146.615 7.42571 146.026 7.65431 145.345 7.65431ZM144.599 23.8676C144.083 23.8676 143.705 23.7579 143.466 23.5384C143.245 23.3189 143.135 22.944 143.135 22.4136V11.3304C143.135 10.8 143.245 10.4251 143.466 10.2056C143.705 9.98617 144.083 9.87643 144.599 9.87643H146.09C146.606 9.87643 146.974 9.98617 147.195 10.2056C147.435 10.4251 147.554 10.8 147.554 11.3304V22.4136C147.554 22.944 147.435 23.3189 147.195 23.5384C146.974 23.7579 146.606 23.8676 146.09 23.8676H144.599ZM160.982 3.37466C161.276 3.5027 161.47 3.6673 161.562 3.86847C161.672 4.05137 161.728 4.34398 161.728 4.74635V6.44723C161.728 6.90447 161.497 7.13307 161.037 7.13307C160.871 7.13307 160.558 7.08734 160.098 6.9959C159.656 6.88617 159.223 6.8313 158.799 6.8313C157.363 6.8313 156.645 7.64517 156.645 9.27289V9.87643H159.324C159.84 9.87643 160.208 9.98617 160.429 10.2056C160.669 10.4251 160.788 10.8 160.788 11.3304V12.2083C160.788 12.7387 160.669 13.1136 160.429 13.3331C160.208 13.5525 159.84 13.6623 159.324 13.6623H156.645V22.4136C156.645 22.9257 156.534 23.3006 156.313 23.5384C156.092 23.7579 155.715 23.8676 155.181 23.8676H153.689C153.155 23.8676 152.778 23.7579 152.557 23.5384C152.336 23.3006 152.225 22.9257 152.225 22.4136V13.6623H151.065C150.549 13.6623 150.172 13.5525 149.932 13.3331C149.711 13.1136 149.601 12.7387 149.601 12.2083V11.3304C149.601 10.8 149.711 10.4251 149.932 10.2056C150.172 9.98617 150.549 9.87643 151.065 9.87643H152.225V9.54723C152.225 7.24281 152.805 5.56022 153.965 4.49944C155.144 3.4204 156.617 2.88086 158.385 2.88086C159.38 2.88086 160.245 3.04546 160.982 3.37466ZM175.725 9.87643C176.259 9.87643 176.636 9.9953 176.857 10.2331C177.078 10.4525 177.189 10.8183 177.189 11.3304V23.072C177.189 28.266 174.472 30.8632 169.04 30.8632C166.977 30.8632 165.44 30.5979 164.427 30.0676C164.095 29.903 163.865 29.7109 163.736 29.4915C163.607 29.2904 163.543 28.9886 163.543 28.5862V27.0773C163.543 26.364 163.837 26.0074 164.427 26.0074C164.537 26.0074 165.062 26.1537 166.001 26.4463C166.959 26.7573 168.036 26.9127 169.233 26.9127C170.522 26.9127 171.452 26.6109 172.023 26.0074C172.594 25.4222 172.879 24.5169 172.879 23.2915V22.3862C171.995 23.3738 170.67 23.8676 168.902 23.8676C167.207 23.8676 165.762 23.3006 164.565 22.1667C163.221 20.8865 162.548 18.8838 162.548 16.1587V11.3304C162.548 10.8 162.659 10.4251 162.88 10.2056C163.119 9.98617 163.497 9.87643 164.012 9.87643H165.504C166.02 9.87643 166.388 9.98617 166.609 10.2056C166.848 10.4251 166.968 10.8 166.968 11.3304V15.7472C166.968 17.2835 167.254 18.3443 167.824 18.9295C168.303 19.4416 168.966 19.6977 169.813 19.6977C170.697 19.6977 171.406 19.405 171.94 18.8198C172.493 18.2163 172.769 17.2378 172.769 15.8844V11.3304C172.769 10.8183 172.879 10.4525 173.1 10.2331C173.321 9.9953 173.699 9.87643 174.233 9.87643H175.725Z" fill="#1C8A4E"/>
</svg>
