<svg width="185" height="185" viewBox="0 0 185 185" fill="none" xmlns="http://www.w3.org/2000/svg">
<path d="M45.3254 3.70013C45.3254 3.70013 68.9793 0 92.5 0C116.154 0 139.675 3.70013 139.675 3.70013C162.201 6.69511 176.373 22.0157 181.3 45.3254C181.3 45.3254 185 69.0205 185 92.5C185 116.195 181.3 139.675 181.3 139.675C176.717 163.628 162.984 177.298 139.675 181.3C139.675 181.3 116.042 185 92.5 185C68.8676 185 45.3254 181.3 45.3254 181.3C20.9098 177.32 6.71805 163.127 3.70013 139.675C3.70013 139.675 0 116.061 0 92.5C0 68.8859 3.70013 45.3254 3.70013 45.3254C7.20905 20.1358 17.5202 7.36049 45.3254 3.70013Z" fill="#FFDE00"/>
<path d="M52.2162 16.6699C52.2162 16.6699 72.4147 13.5098 92.5 13.5098C112.698 13.5098 132.784 16.6699 132.784 16.6699C152.02 19.2274 164.121 32.3102 168.329 52.215C168.329 52.215 171.487 72.4502 171.487 92.4987C171.487 112.732 168.329 132.783 168.329 132.783C164.414 153.238 152.689 164.91 132.784 168.328C132.784 168.328 112.604 171.488 92.5 171.488C72.3199 171.488 52.2162 168.328 52.2162 168.328C31.3661 164.929 19.2486 152.808 16.6712 132.783C16.6712 132.783 13.511 112.618 13.511 92.4987C13.511 72.3354 16.6712 52.215 16.6712 52.215C19.6677 30.7041 28.4721 19.7949 52.2162 16.6699Z" fill="#FFC200"/>
<path d="M33.112 47.8909C42.5391 46.3668 48.9459 37.4891 47.4218 28.0619C45.8977 18.6347 37.0199 12.228 27.5928 13.7521C18.1656 15.2762 11.759 24.1539 13.283 33.5811C14.8071 43.0082 23.6848 49.415 33.112 47.8909Z" fill="#FFDE00"/>
<path opacity="0.7" d="M159.356 90.2156C162.567 76.5074 154.058 62.7912 140.35 59.5795C126.642 56.3679 112.926 64.877 109.714 78.5853C106.502 92.2935 115.011 106.01 128.72 109.221C142.428 112.433 156.144 103.924 159.356 90.2156Z" fill="black"/>
<path d="M149.338 96.616C157.502 88.4521 157.502 75.2158 149.338 67.0519C141.174 58.888 127.938 58.888 119.774 67.0519C111.61 75.2158 111.61 88.4521 119.774 96.616C127.938 104.78 141.174 104.78 149.338 96.616Z" fill="white"/>
<path d="M144.22 81.8322C144.22 87.1644 139.898 91.4886 134.564 91.4886C129.232 91.4886 124.907 87.1659 124.907 81.8322C124.907 76.4985 129.23 72.1758 134.564 72.1758C139.896 72.1758 144.22 76.5 144.22 81.8322Z" fill="#3549AA"/>
<path d="M134.564 87.6116C137.757 87.6116 140.345 85.0236 140.345 81.8312C140.345 78.6387 137.757 76.0508 134.564 76.0508C131.372 76.0508 128.784 78.6387 128.784 81.8312C128.784 85.0236 131.372 87.6116 134.564 87.6116Z" fill="#172156"/>
<path d="M137.56 79.0446C137.56 81.4293 135.627 83.3627 133.242 83.3627C130.858 83.3627 128.924 81.4293 128.924 79.0446C128.924 76.66 130.858 74.7266 133.242 74.7266C135.627 74.7266 137.56 76.66 137.56 79.0446Z" fill="white"/>
<path opacity="0.7" d="M75.2295 90.2137C78.4412 76.5054 69.932 62.7892 56.2238 59.5776C42.5155 56.3659 28.7993 64.8751 25.5876 78.5833C22.376 92.2915 30.8852 106.008 44.5934 109.219C58.3016 112.431 72.0179 103.922 75.2295 90.2137Z" fill="black"/>
<path d="M65.2104 96.616C73.3743 88.4521 73.3743 75.2158 65.2104 67.0519C57.0465 58.888 43.8102 58.888 35.6463 67.0519C27.4824 75.2158 27.4824 88.4521 35.6463 96.616C43.8102 104.78 57.0465 104.78 65.2104 96.616Z" fill="white"/>
<path d="M60.0919 81.8322C60.0919 87.1644 55.7692 91.4886 50.4355 91.4886C45.1018 91.4886 40.7791 87.1659 40.7791 81.8322C40.7791 76.4985 45.1018 72.1758 50.4355 72.1758C55.7677 72.1758 60.0919 76.5 60.0919 81.8322Z" fill="#3549AA"/>
<path d="M50.4359 87.6116C53.6284 87.6116 56.2163 85.0236 56.2163 81.8312C56.2163 78.6387 53.6284 76.0508 50.4359 76.0508C47.2435 76.0508 44.6555 78.6387 44.6555 81.8312C44.6555 85.0236 47.2435 87.6116 50.4359 87.6116Z" fill="#172156"/>
<path d="M53.4321 79.0446C53.4321 81.4293 51.4986 83.3627 49.114 83.3627C46.7293 83.3627 44.7959 81.4293 44.7959 79.0446C44.7959 76.66 46.7293 74.7266 49.114 74.7266C51.4986 74.7266 53.4321 76.66 53.4321 79.0446Z" fill="white"/>
<path d="M89.5708 130.285C84.3702 130.285 81.0815 129.092 80.823 128.994C79.2429 128.4 78.4414 126.635 79.0364 125.054C79.6284 123.477 81.3782 122.674 82.9614 123.261C83.4126 123.422 92.9665 126.713 105.525 119.795C107.005 118.978 108.867 119.519 109.681 120.997C110.496 122.476 109.957 124.338 108.478 125.153C101.104 129.219 94.4855 130.285 89.5708 130.285Z" fill="black"/>
<path d="M116.396 128.781C116.1 128.781 115.797 128.738 115.499 128.646C111.568 127.442 108.769 125.278 107.177 122.209C104.703 117.445 106.219 112.463 106.4 111.911C106.926 110.304 108.659 109.43 110.259 109.956C111.857 110.479 112.732 112.195 112.22 113.795C112.189 113.894 111.297 116.92 112.625 119.43C113.437 120.964 115.007 122.098 117.289 122.795C118.906 123.289 119.814 124.999 119.32 126.616C118.918 127.933 117.706 128.781 116.396 128.781Z" fill="black"/>
</svg>
