<svg width="121" height="121" viewBox="0 0 121 121" fill="none" xmlns="http://www.w3.org/2000/svg">
<path d="M29.632 2.41898C29.632 2.41898 45.096 0 60.473 0C75.937 0 91.314 2.41898 91.314 2.41898C106.041 4.37698 115.306 14.393 118.527 29.632C118.527 29.632 120.946 45.123 120.946 60.473C120.946 75.964 118.527 91.314 118.527 91.314C115.531 106.974 106.553 115.911 91.314 118.527C91.314 118.527 75.864 120.946 60.473 120.946C45.023 120.946 29.632 118.527 29.632 118.527C13.67 115.925 4.39201 106.646 2.41901 91.314C2.41901 91.314 0 75.876 0 60.473C0 45.035 2.41901 29.632 2.41901 29.632C4.71301 13.163 11.454 4.81198 29.632 2.41898Z" fill="#FFDE00"/>
<path d="M34.136 10.898C34.136 10.898 47.341 8.83203 60.472 8.83203C73.677 8.83203 86.808 10.898 86.808 10.898C99.384 12.57 107.295 21.123 110.046 34.136C110.046 34.136 112.111 47.364 112.111 60.472C112.111 73.7 110.046 86.808 110.046 86.808C107.487 100.18 99.821 107.812 86.808 110.046C86.808 110.046 73.615 112.112 60.472 112.112C47.279 112.112 34.136 110.046 34.136 110.046C20.505 107.824 12.583 99.9 10.898 86.808C10.898 86.808 8.83203 73.625 8.83203 60.472C8.83203 47.29 10.898 34.136 10.898 34.136C12.857 20.073 18.613 12.941 34.136 10.898Z" fill="#FFC200"/>
<path d="M19.8372 31.44C26.0802 31.44 31.1412 26.3791 31.1412 20.136C31.1412 13.893 26.0802 8.83203 19.8372 8.83203C13.5942 8.83203 8.5332 13.893 8.5332 20.136C8.5332 26.3791 13.5942 31.44 19.8372 31.44Z" fill="#FFDE00"/>
<path opacity="0.7" d="M87.9737 71.834C97.1786 71.834 104.641 64.3719 104.641 55.167C104.641 45.9621 97.1786 38.5 87.9737 38.5C78.7687 38.5 71.3066 45.9621 71.3066 55.167C71.3066 64.3719 78.7687 71.834 87.9737 71.834Z" fill="black"/>
<path d="M101.285 56.599C103.009 49.2502 98.4489 41.8952 91.1001 40.1713C83.7513 38.4473 76.3963 43.0071 74.6723 50.3559C72.9483 57.7047 77.5082 65.0597 84.857 66.7837C92.2058 68.5076 99.5607 63.9478 101.285 56.599Z" fill="white"/>
<path d="M94.2861 53.5005C94.2861 56.9875 91.4601 59.8135 87.9731 59.8135C84.4871 59.8135 81.6602 56.9875 81.6602 53.5005C81.6602 50.0135 84.4861 47.1875 87.9731 47.1875C91.4591 47.1875 94.2861 50.0145 94.2861 53.5005Z" fill="#3549AA"/>
<path d="M91.7513 53.4997C91.7513 55.5867 90.0594 57.2787 87.9724 57.2787C85.8854 57.2787 84.1934 55.5867 84.1934 53.4997C84.1934 51.4127 85.8854 49.7207 87.9724 49.7207C90.0594 49.7207 91.7513 51.4127 91.7513 53.4997Z" fill="#172156"/>
<path d="M89.9312 51.6785C89.9312 53.2375 88.6672 54.5015 87.1082 54.5015C85.5492 54.5015 84.2852 53.2375 84.2852 51.6785C84.2852 50.1195 85.5492 48.8555 87.1082 48.8555C88.6672 48.8555 89.9312 50.1195 89.9312 51.6785Z" fill="white"/>
<path d="M71.3906 53.5H104.556C103.72 45.078 96.6156 38.5 87.9726 38.5C79.3316 38.5 72.2276 45.078 71.3906 53.5Z" fill="#FFDE00"/>
<path opacity="0.7" d="M32.9737 71.834C42.1786 71.834 49.6407 64.3719 49.6407 55.167C49.6407 45.9621 42.1786 38.5 32.9737 38.5C23.7687 38.5 16.3066 45.9621 16.3066 55.167C16.3066 64.3719 23.7687 71.834 32.9737 71.834Z" fill="black"/>
<path d="M46.2847 56.6009C48.0087 49.2521 43.4489 41.8972 36.1001 40.1732C28.7513 38.4492 21.3963 43.009 19.6723 50.3578C17.9483 57.7067 22.5082 65.0616 29.857 66.7856C37.2058 68.5096 44.5607 63.9497 46.2847 56.6009Z" fill="white"/>
<path d="M39.2862 53.5005C39.2862 56.9875 36.4602 59.8135 32.9732 59.8135C29.4862 59.8135 26.6602 56.9875 26.6602 53.5005C26.6602 50.0135 29.4862 47.1875 32.9732 47.1875C36.4592 47.1875 39.2862 50.0145 39.2862 53.5005Z" fill="#3549AA"/>
<path d="M36.7514 53.4997C36.7514 55.5867 35.0594 57.2787 32.9724 57.2787C30.8854 57.2787 29.1934 55.5867 29.1934 53.4997C29.1934 51.4127 30.8854 49.7207 32.9724 49.7207C35.0594 49.7207 36.7514 51.4127 36.7514 53.4997Z" fill="#172156"/>
<path d="M34.9331 51.6785C34.9331 53.2375 33.6691 54.5015 32.1101 54.5015C30.5511 54.5015 29.2871 53.2375 29.2871 51.6785C29.2871 50.1195 30.5511 48.8555 32.1101 48.8555C33.6691 48.8555 34.9331 50.1195 34.9331 51.6785Z" fill="white"/>
<path d="M16.3906 53.5H49.5556C48.7196 45.078 41.6156 38.5 32.9736 38.5C24.3316 38.5 17.2276 45.078 16.3906 53.5Z" fill="#FFDE00"/>
<path d="M68.7513 83.3095C68.7513 88.8775 65.0453 90.4395 60.4733 90.4395C55.9013 90.4395 52.1953 88.8765 52.1953 83.3095C52.1953 77.7425 55.9013 73.2285 60.4733 73.2285C65.0443 73.2295 68.7513 77.7425 68.7513 83.3095Z" fill="black"/>
</svg>
