<svg width="131" height="121" viewBox="0 0 131 121" fill="none" xmlns="http://www.w3.org/2000/svg">
<path d="M29.632 2.41901C29.632 2.41901 45.096 0 60.473 0C75.937 0 91.314 2.41901 91.314 2.41901C106.041 4.37701 115.306 14.393 118.527 29.632C118.527 29.632 120.946 45.123 120.946 60.473C120.946 75.964 118.527 91.314 118.527 91.314C115.531 106.974 106.553 115.911 91.314 118.527C91.314 118.527 75.864 120.946 60.473 120.946C45.023 120.946 29.632 118.527 29.632 118.527C13.67 115.925 4.392 106.646 2.419 91.314C2.419 91.314 0 75.876 0 60.473C0 45.035 2.419 29.632 2.419 29.632C4.714 13.163 11.455 4.81101 29.632 2.41901Z" fill="#FFDE00"/>
<path d="M34.136 10.898C34.136 10.898 47.341 8.83203 60.472 8.83203C73.677 8.83203 86.808 10.898 86.808 10.898C99.384 12.57 107.295 21.123 110.046 34.136C110.046 34.136 112.112 47.364 112.112 60.472C112.112 73.7 110.046 86.808 110.046 86.808C107.487 100.18 99.821 107.812 86.808 110.046C86.808 110.046 73.615 112.112 60.472 112.112C47.279 112.112 34.136 110.046 34.136 110.046C20.505 107.824 12.583 99.9 10.898 86.808C10.898 86.808 8.83203 73.626 8.83203 60.472C8.83203 47.29 10.898 34.136 10.898 34.136C12.858 20.073 18.614 12.941 34.136 10.898Z" fill="#FFC200"/>
<path d="M19.8372 31.44C26.0802 31.44 31.1412 26.3791 31.1412 20.136C31.1412 13.893 26.0802 8.83203 19.8372 8.83203C13.5942 8.83203 8.5332 13.893 8.5332 20.136C8.5332 26.3791 13.5942 31.44 19.8372 31.44Z" fill="#FFDE00"/>
<path d="M60.8575 76.4805C66.4065 76.4805 70.8015 79.1865 72.9965 81.4875C73.7585 82.2865 73.7285 83.5525 72.9305 84.3155C72.1325 85.0765 70.8695 85.0475 70.1085 84.2545C69.7645 83.9025 61.6965 75.8275 50.6295 84.4465C49.7585 85.1255 48.5025 84.9695 47.8225 84.0975C47.1435 83.2255 47.3005 81.9695 48.1725 81.2905C52.7165 77.7505 57.0575 76.4805 60.8575 76.4805Z" fill="black"/>
<path d="M45.477 48.5977C46.345 48.5977 47.207 48.9727 47.798 49.6957C48.849 50.9767 48.661 52.8667 47.38 53.9177C46.874 54.3317 34.868 63.9907 23.934 56.9177C22.542 56.0177 22.144 54.1607 23.044 52.7697C23.944 51.3787 25.802 50.9806 27.193 51.8796C34.494 56.6026 43.488 49.3516 43.578 49.2776C44.135 48.8196 44.809 48.5977 45.477 48.5977Z" fill="black"/>
<path d="M76.1458 49.502C75.2778 49.502 74.4157 49.8769 73.8247 50.5999C72.7737 51.8809 72.9618 53.771 74.2428 54.822C74.7488 55.236 86.7548 64.895 97.6888 57.822C99.0808 56.922 99.4788 55.0649 98.5788 53.674C97.6788 52.283 95.8208 51.8849 94.4308 52.7839C87.1298 57.5069 78.1358 50.2559 78.0458 50.1819C77.4878 49.7239 76.8138 49.502 76.1458 49.502Z" fill="black"/>
<path d="M103.518 31.2632C103.518 38.6792 109.53 44.6912 116.946 44.6912C124.362 44.6912 130.374 38.6792 130.374 31.2632C130.374 23.8472 116.946 3.36719 116.946 3.36719C116.946 3.36719 103.518 23.8462 103.518 31.2632Z" fill="#88BDD3"/>
<path d="M105.188 30.7074C105.188 36.2724 109.699 40.7834 115.264 40.7834C120.829 40.7834 125.34 36.2724 125.34 30.7074C125.34 25.1424 115.264 9.77539 115.264 9.77539C115.264 9.77539 105.188 25.1424 105.188 30.7074Z" fill="#B5E8F7"/>
<path d="M110.771 35.584C112.152 35.584 113.271 33.5133 113.271 30.959C113.271 28.4047 112.152 26.334 110.771 26.334C109.391 26.334 108.271 28.4047 108.271 30.959C108.271 33.5133 109.391 35.584 110.771 35.584Z" fill="white"/>
</svg>
