<svg width="190" height="142" viewBox="0 0 190 142" fill="none" xmlns="http://www.w3.org/2000/svg">
<path d="M187.916 115.528C183.542 123.755 164.992 130.555 141.259 135.148C113.577 140.495 78.8626 142.839 51.3867 140.934C32.6023 139.631 17.2058 136.354 9.7609 130.678C4.3451 126.565 1.25996 119.217 0.314912 110.016C-3.59308 72.0786 29.08 2.74483 86.7324 0.0711157C143.303 -2.56112 187.958 68.5416 189.932 103.011C190.22 108.097 189.589 112.388 187.916 115.528Z" fill="#363636"/>
<path d="M100.99 10.9623C98.527 15.3759 117.821 24.1481 121.085 19.6269C124.348 15.1068 105.511 2.86266 100.99 10.9623Z" fill="white"/>
<path d="M166.761 94.9614C164.595 109.015 152.187 124.192 141.259 135.147C113.577 140.494 78.8626 142.838 51.3868 140.932C38.1965 133.762 18.7148 119.366 19.1801 97.1273C19.8796 63.5641 42.2278 44.6295 62.7116 46.7954C75.8111 48.181 81.718 71.9876 86.9903 84.1342C89.9622 90.9805 95.3018 89.5456 95.3018 89.5456C95.3018 89.5456 100.475 90.1184 102.144 81.9695C104.668 69.639 105.77 46.477 121.092 43.5465C146.524 38.6789 170.764 68.9799 166.761 94.9614Z" fill="#F2F2F2"/>
<path opacity="0.2" d="M187.916 115.529C183.541 123.755 164.991 130.555 141.259 135.148C113.577 140.496 78.8621 142.84 51.3862 140.934C32.6019 139.631 17.2054 136.354 9.76044 130.678C4.34464 126.565 1.2595 119.217 0.314453 110.016C13.4902 118.777 48.8639 138.357 96.7407 133.914C144.591 129.486 177.715 110.921 189.931 103.01C190.22 108.097 189.588 112.388 187.916 115.529Z" fill="#302F3B"/>
<path d="M96.6686 97.9379C103.242 97.2608 106.954 88.8249 106.369 87.2319C105.784 85.6388 86.6755 88.5233 85.0926 89.7419C83.5108 90.9605 88.9299 98.7361 96.6686 97.9379Z" fill="#E3841F"/>
<path d="M94.018 79.5215C102.668 78.137 110.31 87.6682 110.107 89.9081C109.903 92.1479 84.4464 94.9999 82.0026 93.9809C79.5587 92.963 83.8355 81.1515 94.018 79.5215Z" fill="#E8A226"/>
<path d="M53.2908 59.997C38.8023 61.6864 33.6858 87.3989 53.2908 91.0031C72.8958 94.6062 71.7187 57.848 53.2908 59.997Z" fill="#302F3B"/>
<path d="M52.626 86.6766C52.1932 89.6451 61.5002 88.0913 61.4632 85.9692C61.4262 83.8482 52.9062 84.7607 52.626 86.6766Z" fill="white"/>
<path d="M45.2524 80.1971C43.4195 81.863 46.3353 85.8517 49.4631 83.5659C52.5919 81.2789 47.9003 77.7902 45.2524 80.1971Z" fill="white"/>
<path d="M51.7733 65.2747C47.6736 69.0011 54.1947 77.9213 61.1901 72.8082C68.1866 67.6962 57.6935 59.8937 51.7733 65.2747Z" fill="white"/>
<path d="M131.762 59.997C146.25 61.6864 151.367 87.3989 131.762 91.0031C112.157 94.6062 113.334 57.848 131.762 59.997Z" fill="#302F3B"/>
<path d="M26.6098 90.2408C23.0561 95.7115 38.4201 106.513 42.7832 96.1723C45.4782 89.7857 30.1646 84.7701 26.6098 90.2408Z" fill="#DC4167"/>
<path d="M158.754 85.7413C163.358 90.3634 150.545 104.095 144.147 94.8745C140.196 89.1784 154.151 81.118 158.754 85.7413Z" fill="#DC4167"/>
<path d="M132.53 86.3653C132.964 89.3338 123.655 87.7801 123.692 85.659C123.729 83.538 132.249 84.4494 132.53 86.3653Z" fill="white"/>
<path d="M139.902 79.886C141.735 81.553 138.819 85.5406 135.692 83.2547C132.563 80.9689 137.254 77.4802 139.902 79.886Z" fill="white"/>
<path d="M133.382 64.9627C137.481 68.6902 130.96 77.6093 123.965 72.4962C116.968 67.3842 127.461 59.5805 133.382 64.9627Z" fill="white"/>
<path d="M126.38 93.9154C126.38 93.9154 113.864 83.6829 111.073 69.0009C108.347 54.6627 124.897 47.7606 132.52 62.029C142.527 51.3743 158.86 64.4031 150.457 76.9636C142.058 89.5154 126.38 93.9154 126.38 93.9154Z" fill="#FF3F69"/>
<path d="M126.232 94.6244L125.973 94.4134C125.847 94.3094 113.244 83.8629 110.441 69.1218C108.927 61.1515 113.195 55.7715 117.805 54.1447C122.024 52.654 128.359 53.6019 132.666 60.9712C137.974 55.9183 144.61 56.9596 148.672 60.1904C153.004 63.6358 155.578 70.4663 150.991 77.322C142.557 89.9263 126.713 94.491 126.555 94.5352L126.232 94.6244ZM122.173 54.8727C120.748 54.7481 119.398 54.9449 118.233 55.3566C113.987 56.8552 110.324 61.617 111.704 68.8812C114.2 82.0094 124.741 91.6444 126.53 93.1973C128.798 92.4845 142.416 87.8219 149.921 76.6051C154.079 70.3919 151.886 64.3886 147.87 61.1953C143.97 58.0936 137.855 57.285 132.988 62.4681L132.375 63.1216L131.952 62.331C129.211 57.1972 125.489 55.1628 122.173 54.8727Z" fill="#C72752"/>
<path d="M58.7658 93.4545C58.7658 93.4545 71.2824 83.222 74.0736 68.54C76.7993 54.2018 60.2489 47.2997 52.6257 61.5681C42.6194 50.9134 26.286 63.9422 34.6896 76.5027C43.0886 89.0545 58.7658 93.4545 58.7658 93.4545Z" fill="#FF3F69"/>
<path d="M58.9144 94.1637L58.5915 94.0732C58.4328 94.029 42.5889 89.4643 34.1556 76.8599C29.5692 70.0042 32.1426 63.1738 36.4744 59.7284C40.5346 56.4977 47.1726 55.4562 52.4802 60.5092C56.7852 53.1427 63.1228 52.1933 67.3417 53.6827C71.9507 55.3095 76.2196 60.6895 74.7049 68.6598C71.9034 83.4008 59.2997 93.8473 59.1733 93.9513L58.9144 94.1637ZM43.2477 58.3008C41.032 58.4946 38.9497 59.4034 37.2749 60.7347C33.2579 63.928 31.0665 69.9326 35.2236 76.1444C42.7289 87.3612 56.3472 92.0226 58.6153 92.7366C60.4035 91.1812 70.9477 81.5356 73.4411 68.4206C74.8215 61.1564 71.1564 56.3947 66.9122 54.8959C63.0317 53.528 57.1106 54.5326 53.1917 61.8704L52.7692 62.6611L52.1557 62.0075C49.3776 59.0486 46.1935 58.0431 43.2477 58.3008Z" fill="#C72752"/>
</svg>
