<svg width="28" height="28" viewBox="0 0 28 28" fill="none" xmlns="http://www.w3.org/2000/svg">
<path d="M9.3291 17.5007H13.3296M9.3291 12.834H18.6624M16.9124 2.33398H11.0791C10.615 2.33398 10.1699 2.51836 9.84167 2.84655C9.51348 3.17474 9.3291 3.61986 9.3291 4.08398C9.3291 4.54811 9.51348 4.99323 9.84167 5.32142C10.1699 5.64961 10.615 5.83398 11.0791 5.83398H16.9124C17.3766 5.83398 17.8217 5.64961 18.1499 5.32142C18.4781 4.99323 18.6624 4.54811 18.6624 4.08398C18.6624 3.61986 18.4781 3.17474 18.1499 2.84655C17.8217 2.51836 17.3766 2.33398 16.9124 2.33398Z" stroke="#25B868" stroke-width="1.75" stroke-linecap="round" stroke-linejoin="round"/>
<path d="M18.6621 4.08398C20.4751 4.13882 21.5554 4.34065 22.3033 5.08965C23.3299 6.11398 23.3299 7.76482 23.3299 11.063V18.6673C23.3299 21.9667 23.3299 23.6163 22.3033 24.6418C21.2789 25.6673 19.6281 25.6673 16.3299 25.6673H11.6633C8.36161 25.6673 6.71194 25.6673 5.68761 24.6418C4.66328 23.6163 4.66211 21.9667 4.66211 18.6673V11.0642C4.66211 7.76482 4.66211 6.11398 5.68761 5.08965C6.43544 4.34065 7.51694 4.13882 9.32878 4.08398" stroke="#25B868" stroke-width="1.75" stroke-linecap="round" stroke-linejoin="round"/>
</svg>
