<svg width="758" height="627" viewBox="0 0 758 627" fill="none" xmlns="http://www.w3.org/2000/svg">
<g filter="url(#filter0_d_587_1354)">
<path d="M731.948 87.4068C733.402 86.3016 735.492 86.9016 736.16 88.5675L736.221 88.7318L748.997 127.325L749.001 127.337L749.005 127.35C751.721 135.263 751.785 144.129 748.566 152.555C741.273 171.648 719.882 181.214 700.788 173.921C681.694 166.626 672.13 145.235 679.423 126.142C681.692 120.2 685.322 115.188 689.821 111.315L689.843 111.295L708.962 94.4457L708.963 94.4446C710.571 93.0274 713.111 93.9151 713.486 96.0272L713.486 96.0301L713.618 96.7685L714.337 100.793L717.592 98.3187L731.948 87.4068Z" fill="#E8A226" stroke="#FFDE00" stroke-width="5"/>
<path d="M728.952 124.913C730.324 123.452 732.76 124.005 733.366 125.915L738.263 141.334C739.131 144.737 739.375 149.34 738.145 153.298C735.287 162.493 727.438 167.138 720.438 164.962C713.438 162.787 709.877 154.753 712.734 145.558C713.924 141.733 716.749 137.517 719.273 135.219L728.952 124.913Z" fill="#FFDE00"/>
</g>
<g filter="url(#filter1_d_587_1354)">
<path d="M159.614 510.305C177.076 504.859 195.649 514.603 201.093 532.067C204.077 541.636 202.503 551.533 197.589 559.432L167.858 605.804C166.042 608.637 162.455 609.756 159.349 608.459L159.348 608.459L109.717 587.725L109.681 587.711L109.646 587.696L108.802 587.353C100.123 583.69 93.0679 576.378 90.0467 566.69C84.6023 549.226 94.3444 530.655 111.808 525.211L111.809 525.211C120.244 522.579 128.931 523.492 136.281 527.108L139.05 528.469L140.554 525.776C144.548 518.623 151.178 512.936 159.614 510.306L159.614 510.305Z" fill="#FF4B4B" stroke="#FF9797" stroke-width="6.5"/>
<path d="M131.301 549.355C133.561 556.602 129.518 564.309 122.27 566.569C115.024 568.829 107.317 564.784 105.057 557.538C102.796 550.29 106.841 542.585 114.087 540.324C121.336 538.064 129.041 542.107 131.301 549.355Z" fill="#FFB2B2"/>
</g>
<g filter="url(#filter2_d_587_1354)">
<rect x="26.5953" y="165.767" width="169.897" height="169.897" rx="35.5" transform="rotate(-55 26.5953 165.767)" fill="#EBEBEB" stroke="#AFAFAF" stroke-width="7"/>
<path d="M171.436 103.016C162.308 102.528 153.801 105.524 147.203 110.841C138.665 97.98 122.373 91.7255 106.901 96.5679C88.1308 102.442 77.677 122.42 83.5512 141.19C89.07 158.824 107.038 169.117 124.757 165.426C125.493 165.273 126.229 165.094 126.963 164.892C127.367 164.781 127.77 164.665 128.173 164.539C129.308 164.184 130.413 163.776 131.485 163.321C134.562 162.015 137.375 160.314 139.88 158.295C145.286 166.412 153.954 172.224 164.124 173.776C164.867 173.889 165.619 173.978 166.378 174.045C166.795 174.082 167.213 174.115 167.635 174.137C168.823 174.201 170 174.204 171.164 174.152C189.245 173.346 204.11 158.929 205.096 140.477C206.146 120.838 191.076 104.066 171.436 103.016Z" fill="white"/>
<path d="M171.206 107.325C153.945 106.402 139.205 119.647 138.282 136.907C138.21 138.26 138.24 139.477 138.34 140.793C143.409 145.304 149.961 148.216 157.251 148.651C156.533 147.029 156.162 145.238 156.235 143.371L175.01 144.374C179.213 141.892 182.793 138.449 185.444 134.332C184.638 132.989 183.165 132.046 181.437 131.954C178.729 131.809 176.413 133.804 176.274 136.4C176.245 136.933 175.791 137.341 175.259 137.313C174.726 137.284 174.318 136.83 174.346 136.297C174.542 132.638 177.768 129.825 181.54 130.026C183.571 130.135 185.346 131.1 186.526 132.535C188.742 128.525 190.11 123.966 190.371 119.084C190.441 117.771 190.403 116.48 190.314 115.202C185.204 110.644 178.577 107.719 171.206 107.325Z" fill="#BDBDBD"/>
<path d="M199.942 131.149C199.894 130.956 199.845 130.763 199.794 130.571C199.728 130.321 199.658 130.072 199.585 129.823C199.497 129.524 199.406 129.225 199.309 128.929C199.266 128.795 199.221 128.662 199.176 128.528C199.023 128.079 198.861 127.633 198.688 127.192C198.672 127.153 198.657 127.113 198.642 127.074C196.824 122.498 193.952 118.435 190.314 115.197C190.404 116.477 190.442 117.769 190.372 119.083C190.111 123.965 188.743 128.524 186.527 132.534C187.539 133.764 188.116 135.338 188.026 137.028C188.001 137.485 187.663 137.85 187.23 137.927C187.159 137.939 187.086 137.944 187.01 137.94C186.478 137.911 186.069 137.457 186.098 136.925C186.148 135.984 185.903 135.094 185.445 134.331C182.794 138.448 179.214 141.891 175.011 144.373L182.064 144.75C181.819 148.619 179.709 151.971 176.607 154.02C174.31 155.564 171.501 156.398 168.499 156.238C165.497 156.077 162.793 154.948 160.673 153.169C159.198 151.942 158.024 150.394 157.252 148.65C149.962 148.215 143.41 145.303 138.341 140.792C139.082 151.397 145.144 160.657 153.99 165.738C154.069 165.783 154.146 165.83 154.225 165.874C154.523 166.042 154.826 166.201 155.13 166.359C155.265 166.429 155.399 166.501 155.535 166.569C155.809 166.707 156.087 166.838 156.366 166.967C156.537 167.047 156.709 167.126 156.882 167.203C157.141 167.318 157.403 167.428 157.666 167.536C157.865 167.618 158.064 167.698 158.266 167.775C158.514 167.871 158.764 167.964 159.016 168.054C159.238 168.133 159.461 168.209 159.685 168.283C159.925 168.363 160.166 168.441 160.409 168.515C160.651 168.588 160.894 168.657 161.139 168.725C161.372 168.789 161.605 168.854 161.84 168.914C162.101 168.98 162.366 169.039 162.63 169.099C162.854 169.149 163.077 169.201 163.303 169.247C163.589 169.305 163.878 169.354 164.167 169.404C164.377 169.44 164.586 169.48 164.798 169.513C165.124 169.562 165.454 169.601 165.784 169.641C165.963 169.662 166.14 169.689 166.32 169.707C166.816 169.758 167.316 169.798 167.819 169.825C167.834 169.826 167.85 169.828 167.865 169.829C185.126 170.752 199.866 157.507 200.789 140.247C200.789 140.246 200.789 140.246 200.789 140.246C200.815 139.755 200.826 139.268 200.83 138.782C200.831 138.706 200.832 138.63 200.832 138.554C200.832 138.097 200.821 137.642 200.801 137.189C200.797 137.089 200.792 136.989 200.787 136.889C200.763 136.448 200.732 136.008 200.691 135.571C200.681 135.47 200.669 135.369 200.658 135.268C200.617 134.875 200.569 134.483 200.513 134.094C200.496 133.976 200.478 133.859 200.46 133.741C200.404 133.381 200.34 133.022 200.272 132.665C200.242 132.513 200.214 132.36 200.183 132.209C200.108 131.854 200.028 131.5 199.942 131.149Z" fill="#AFAFAF"/>
<path d="M125.8 118.35C127.741 117.742 129.741 118.027 131.348 118.959C132.024 114.428 131.714 109.678 130.254 105.013C129.861 103.757 129.374 102.559 128.843 101.392L128.842 101.389C122.445 98.8793 115.259 98.4734 108.189 100.686C91.6926 105.849 82.5051 123.407 87.6677 139.903C88.0639 141.169 88.5406 142.348 89.0785 143.524C95.4611 146.003 102.69 146.433 109.733 144.229C109.943 144.163 110.147 144.087 110.355 144.017C111.5 140.483 114.77 137.31 119.215 135.919C120.713 135.451 122.238 135.217 123.726 135.211C127.312 131.189 129.809 126.291 130.962 121.021C129.737 120.044 128.029 119.675 126.376 120.192C125.117 120.586 124.081 121.429 123.462 122.564C122.848 123.688 122.717 124.966 123.091 126.162C123.25 126.67 122.967 127.212 122.458 127.371C122.418 127.384 122.377 127.394 122.336 127.401C121.865 127.484 121.395 127.206 121.249 126.738C120.716 125.038 120.901 123.227 121.767 121.639C122.628 120.062 124.06 118.894 125.8 118.35Z" fill="#BDBDBD"/>
<path d="M137.683 154.513C135.805 150.767 134.572 146.654 134.119 142.325C134.023 142.607 133.802 142.842 133.496 142.938C132.988 143.097 132.445 142.814 132.286 142.305C131.656 140.292 130.04 138.703 127.735 137.833C125.889 137.135 123.784 136.969 121.659 137.322C119.124 139.674 116.168 141.631 112.857 143.065C111.863 144.83 111.544 146.782 112.118 148.617C112.277 149.126 111.994 149.667 111.485 149.826C111.445 149.839 111.404 149.849 111.363 149.856C110.893 149.939 110.422 149.662 110.276 149.193C109.742 147.488 109.806 145.711 110.355 144.017C110.147 144.087 109.944 144.163 109.734 144.229C102.691 146.433 95.4618 146.003 89.0791 143.523C93.477 153.202 102.391 159.762 112.454 161.435C112.544 161.449 112.633 161.466 112.722 161.481C113.06 161.534 113.399 161.577 113.738 161.619C113.89 161.638 114.041 161.658 114.193 161.674C114.497 161.707 114.802 161.733 115.108 161.757C115.298 161.772 115.487 161.787 115.677 161.798C115.959 161.815 116.242 161.827 116.525 161.836C116.741 161.843 116.957 161.848 117.173 161.851C117.439 161.854 117.705 161.853 117.972 161.85C118.208 161.847 118.444 161.84 118.68 161.831C118.932 161.822 119.185 161.811 119.438 161.795C119.691 161.78 119.944 161.759 120.197 161.737C120.437 161.716 120.678 161.696 120.918 161.669C121.187 161.64 121.456 161.603 121.725 161.567C121.952 161.536 122.179 161.507 122.407 161.471C122.695 161.425 122.983 161.37 123.271 161.316C123.481 161.277 123.69 161.241 123.9 161.198C124.224 161.13 124.548 161.051 124.873 160.973C125.046 160.93 125.22 160.894 125.394 160.849C125.879 160.722 126.364 160.585 126.848 160.434C126.86 160.43 126.872 160.427 126.885 160.423C130.968 159.145 134.602 157.106 137.683 154.513Z" fill="#AFAFAF"/>
<path d="M142.839 199.598L131.486 163.322C130.413 163.777 129.308 164.185 128.173 164.54C127.77 164.666 127.367 164.782 126.963 164.893L138.046 200.306C138.615 202.124 140.526 203.156 142.377 202.64C142.971 201.777 143.174 200.669 142.839 199.598Z" fill="#979797"/>
<path d="M138.046 200.307L126.963 164.894C126.228 165.096 125.493 165.275 124.756 165.428L136.109 201.705C136.182 201.936 136.276 202.155 136.39 202.359C136.843 203.177 137.601 203.766 138.469 204.027C138.686 204.092 138.91 204.137 139.137 204.159C139.593 204.204 140.064 204.161 140.527 204.016C140.634 203.982 140.738 203.943 140.839 203.901C140.876 203.885 140.912 203.867 140.948 203.85C141.01 203.821 141.072 203.792 141.132 203.76C141.176 203.737 141.218 203.711 141.261 203.686C141.309 203.658 141.356 203.629 141.402 203.598C141.449 203.567 141.496 203.536 141.541 203.502C141.577 203.476 141.612 203.449 141.647 203.421C141.697 203.381 141.748 203.341 141.796 203.298C141.815 203.282 141.833 203.264 141.852 203.246C142.049 203.063 142.226 202.861 142.376 202.64C140.551 203.161 138.616 202.128 138.046 200.307Z" fill="#777777"/>
<path d="M167.635 174.138C167.214 174.115 166.795 174.083 166.378 174.046L164.398 211.1C164.296 213.001 165.742 214.651 167.641 214.799C168.498 214.198 169.076 213.23 169.136 212.11L171.164 174.152C170 174.204 168.823 174.201 167.635 174.138Z" fill="#979797"/>
<path d="M164.397 211.099L166.378 174.046C165.619 173.979 164.867 173.889 164.123 173.776L162.094 211.733C162.035 212.841 162.503 213.86 163.275 214.55C163.447 214.703 163.634 214.84 163.833 214.958C164.01 215.062 164.196 215.154 164.391 215.227C164.716 215.348 165.064 215.422 165.427 215.442C165.427 215.442 165.428 215.442 165.428 215.442C165.54 215.448 165.65 215.447 165.76 215.443C165.8 215.441 165.84 215.436 165.88 215.433C165.948 215.428 166.016 215.422 166.083 215.413C166.132 215.406 166.181 215.398 166.23 215.389C166.285 215.379 166.339 215.368 166.393 215.356C166.448 215.343 166.502 215.33 166.557 215.315C166.6 215.303 166.642 215.289 166.684 215.275C166.745 215.256 166.807 215.236 166.867 215.213C166.89 215.204 166.914 215.193 166.937 215.183C167.186 215.081 167.422 214.952 167.64 214.799C165.748 214.649 164.295 213.005 164.397 211.099Z" fill="#777777"/>
<path d="M112.857 143.064C116.167 141.63 119.124 139.672 121.659 137.32C121.036 137.424 120.412 137.566 119.792 137.76C116.635 138.748 114.163 140.745 112.857 143.064Z" fill="#BDBDBD"/>
<path d="M128.842 101.389C129.372 102.556 129.861 103.756 130.254 105.012C131.714 109.678 132.025 114.428 131.348 118.959C132.726 119.758 133.816 121.032 134.321 122.646C134.481 123.155 134.197 123.696 133.689 123.856C133.179 124.015 132.638 123.732 132.479 123.223C132.198 122.324 131.657 121.575 130.962 121.02C129.809 126.29 127.313 131.188 123.726 135.21C125.363 135.204 126.956 135.474 128.417 136.026C131.194 137.075 133.179 139.005 134.04 141.475C133.914 139.9 133.888 138.298 133.975 136.677C134.453 127.737 138.189 119.745 143.969 113.789C143.795 113.515 143.617 113.244 143.435 112.977C143.323 112.812 143.21 112.649 143.095 112.487C142.945 112.276 142.793 112.067 142.639 111.861C142.452 111.61 142.261 111.362 142.067 111.117C141.979 111.007 141.891 110.898 141.802 110.789C141.502 110.421 141.194 110.06 140.879 109.708C140.85 109.676 140.822 109.644 140.793 109.612C137.492 105.959 133.381 103.152 128.842 101.389Z" fill="#AFAFAF"/>
<path d="M128.417 136.026C126.956 135.474 125.363 135.204 123.726 135.21C122.238 135.216 120.713 135.45 119.216 135.918C114.77 137.309 111.501 140.482 110.355 144.016C109.805 145.711 109.742 147.488 110.275 149.193C110.422 149.661 110.892 149.938 111.363 149.855C111.404 149.848 111.444 149.838 111.485 149.825C111.994 149.666 112.277 149.125 112.118 148.616C111.543 146.781 111.862 144.829 112.857 143.064C114.163 140.746 116.635 138.748 119.792 137.76C120.412 137.567 121.036 137.424 121.659 137.321C123.783 136.968 125.889 137.135 127.735 137.832C130.039 138.702 131.656 140.291 132.286 142.304C132.445 142.813 132.987 143.096 133.495 142.937C133.801 142.841 134.023 142.606 134.119 142.325C134.089 142.042 134.063 141.759 134.04 141.475C133.179 139.005 131.194 137.075 128.417 136.026Z" fill="#777777"/>
<path d="M100.827 134.131C100.868 134.124 100.909 134.114 100.949 134.102C101.458 133.942 101.741 133.401 101.582 132.892C100.805 130.41 102.279 127.732 104.868 126.922C107.457 126.111 110.194 127.472 110.97 129.954C111.129 130.463 111.671 130.748 112.18 130.587C112.688 130.427 112.972 129.886 112.813 129.377C111.718 125.88 107.896 123.951 104.291 125.08C100.687 126.208 98.645 129.971 99.7395 133.469C99.8862 133.937 100.357 134.214 100.827 134.131Z" fill="#777777"/>
<path d="M133.689 123.856C134.198 123.697 134.481 123.155 134.322 122.646C133.816 121.032 132.726 119.758 131.348 118.959C129.741 118.026 127.741 117.741 125.8 118.349C124.06 118.894 122.628 120.062 121.768 121.638C120.901 123.226 120.717 125.037 121.249 126.738C121.395 127.206 121.866 127.483 122.336 127.4C122.377 127.393 122.418 127.383 122.458 127.37C122.967 127.211 123.25 126.67 123.091 126.161C122.717 124.965 122.849 123.687 123.462 122.563C124.082 121.428 125.117 120.586 126.377 120.191C128.029 119.674 129.738 120.043 130.962 121.02C131.657 121.575 132.198 122.324 132.479 123.223C132.639 123.732 133.18 124.015 133.689 123.856Z" fill="#777777"/>
<path d="M152.753 136.109C153.285 136.137 153.74 135.729 153.769 135.197C153.907 132.6 156.223 130.605 158.932 130.751C160.25 130.821 161.461 131.381 162.343 132.328C163.215 133.265 163.659 134.471 163.592 135.722C163.563 136.254 163.972 136.709 164.504 136.738C164.579 136.741 164.653 136.737 164.724 136.724C165.156 136.648 165.495 136.282 165.519 135.825C165.615 134.046 164.988 132.337 163.756 131.013C162.532 129.698 160.855 128.92 159.035 128.823C155.264 128.622 152.037 131.435 151.841 135.094C151.812 135.626 152.221 136.081 152.753 136.109Z" fill="#777777"/>
<path d="M181.541 130.026C177.769 129.825 174.542 132.638 174.347 136.297C174.318 136.83 174.727 137.284 175.259 137.313C175.791 137.341 176.246 136.933 176.275 136.401C176.413 133.804 178.729 131.809 181.438 131.954C183.165 132.046 184.638 132.989 185.445 134.332C185.903 135.095 186.148 135.985 186.098 136.926C186.069 137.458 186.478 137.913 187.01 137.941C187.085 137.945 187.159 137.94 187.23 137.928C187.662 137.852 188.001 137.486 188.025 137.029C188.116 135.34 187.539 133.765 186.527 132.535C185.346 131.1 183.571 130.135 181.541 130.026Z" fill="#777777"/>
<path d="M157.251 148.652C158.023 150.396 159.197 151.944 160.672 153.17C162.71 151.159 165.632 149.989 168.823 150.16C172.014 150.33 174.794 151.805 176.606 154.022C179.708 151.972 181.818 148.62 182.063 144.752L175.01 144.375L156.235 143.371C156.162 145.238 156.533 147.03 157.251 148.652Z" fill="#777777"/>
<path d="M168.824 150.158C165.633 149.988 162.711 151.157 160.673 153.168C162.793 154.948 165.497 156.077 168.499 156.237C171.501 156.398 174.309 155.563 176.607 154.02C174.795 151.803 172.014 150.329 168.824 150.158Z" fill="#8E8E8E"/>
</g>
<g filter="url(#filter3_d_587_1354)">
<path d="M546.31 183.589C533.724 182.585 521.776 177.636 512.166 169.446L492.084 152.333C469.659 133.222 436.676 133.222 414.25 152.333L394.169 169.446C384.559 177.636 372.611 182.585 360.025 183.589L333.724 185.688C304.354 188.032 281.031 211.355 278.687 240.725L276.588 267.026C275.584 279.612 270.635 291.56 262.445 301.17L245.332 321.251C226.221 343.677 226.221 376.66 245.332 399.085L262.445 419.167C270.635 428.776 275.584 440.725 276.588 453.311L278.687 479.611C281.031 508.982 304.354 532.305 333.724 534.648L360.025 536.747C372.611 537.752 384.559 542.701 394.169 550.89L414.25 568.003C436.676 587.114 469.659 587.114 492.084 568.003L512.166 550.89C521.776 542.701 533.724 537.752 546.31 536.747L572.61 534.648C601.981 532.305 625.304 508.982 627.647 479.611L629.746 453.311C630.751 440.725 635.7 428.777 643.889 419.167L661.002 399.085C680.113 376.66 680.113 343.677 661.002 321.251L643.889 301.17C635.7 291.56 630.751 279.612 629.746 267.026L627.647 240.725C625.304 211.355 601.981 188.032 572.61 185.688L546.31 183.589Z" fill="white"/>
</g>
<path d="M577.85 534C576.13 534.29 574.384 534.507 572.617 534.648L546.316 536.747C533.731 537.751 521.783 542.701 512.173 550.891L492.091 568.003C469.665 587.114 436.682 587.114 414.257 568.003L394.176 550.891C384.566 542.701 372.617 537.751 360.031 536.747L333.731 534.648C331.964 534.507 330.219 534.29 328.499 534H577.85Z" fill="#363636"/>
<path d="M632.671 474.583C632.084 475.332 631.497 476.052 630.857 476.799C607.951 503.47 564.192 512.734 564.192 512.734L564.539 491.188L564.967 464.011C564.967 464.011 593.747 462.756 613.317 444.522C632.697 426.366 652.64 448.846 632.671 474.583Z" fill="#363636"/>
<path opacity="0.2" d="M632.671 474.582C632.084 475.331 631.497 476.051 630.857 476.798C607.951 503.469 564.192 512.733 564.192 512.733L564.539 491.188C574.55 491.882 607.148 492.548 632.671 474.582Z" fill="#302F3B"/>
<path d="M574.337 534.274C574.337 534.274 494.245 534.274 333.018 534.274C328.025 502.743 335.821 474.712 344.365 455.168C352.079 437.495 360.409 426.788 360.409 426.788L536.399 408.875C550.63 420.888 559.973 435.332 566.033 450.069C582.878 490.997 574.337 534.274 574.337 534.274Z" fill="#363636"/>
<path d="M415.175 426.788C415.175 426.788 399.881 474.21 403.815 534.278C470.671 534.278 503.88 534.278 503.88 534.278C503.88 534.278 510.436 454.188 488.15 408.875L415.175 426.788Z" fill="#F2F2F2"/>
<path opacity="0.2" d="M566.032 450.069C460.071 495.347 375.493 468.598 344.364 455.168C352.079 437.495 360.409 426.788 360.409 426.788L536.399 408.875C550.63 420.89 559.973 435.332 566.032 450.069Z" fill="#302F3B"/>
<path d="M566.506 561.434C553.186 586.269 510.739 590.785 512.771 552.178C514.126 525.311 505.772 488.058 500.353 467.738C498.096 458.707 496.289 453.063 496.289 453.063C496.289 453.063 527.22 412.197 545.508 435.227C553.411 445.387 561.087 465.932 565.828 488.058C572.376 516.505 574.182 547.437 566.506 561.434Z" fill="#EA2A21"/>
<path d="M566.054 488.061C544.831 444.712 500.353 467.742 500.353 467.742C498.096 458.711 496.289 453.066 496.289 453.066C496.289 453.066 527.22 412.201 545.508 435.231C553.637 445.389 561.313 465.935 566.054 488.061Z" fill="#D11313"/>
<path d="M535.348 582.432C532.865 582.432 530.381 582.207 527.898 581.529C516.383 578.368 510.287 567.53 511.191 552.178C513.222 514.249 494.935 454.418 494.708 453.966C494.483 453.515 494.709 452.838 494.934 452.386C495.611 451.257 514.351 427.1 531.961 426.873C537.832 426.873 542.798 429.357 547.088 434.549C566.054 458.482 581.632 537.728 568.086 562.563C561.538 574.304 547.992 582.432 535.348 582.432ZM498.322 453.515C500.579 461.191 516.609 516.281 514.804 552.178C514.127 565.95 519.094 575.208 529.028 577.917C541.446 581.529 558.153 573.401 565.152 560.531C578.247 536.599 562.895 459.61 544.381 436.354C540.994 432.065 536.93 429.807 532.189 430.032C517.738 430.034 501.483 449.451 498.322 453.515Z" fill="#B7130B"/>
<path d="M574.573 420.372C573.668 424.122 572.344 428.153 570.094 432.068C560.588 450.978 538.11 471.707 504.147 482.247C451.548 498.487 362.167 481.938 340.911 457.024C339.039 454.751 337.168 452.479 335.772 450.376C330.244 442.411 328.019 435.406 327.135 430.055C326.062 421.316 328.873 416.421 328.873 416.421L574.046 404.971C575.941 409.285 575.902 414.522 574.573 420.372Z" fill="#EA2A21"/>
<path d="M575.281 420.266C555.541 431.789 525.187 443.933 478.736 452.82C365.778 473.969 328.097 430.145 328.097 430.145C327.024 421.406 329.835 416.511 329.835 416.511L575.008 405.061C576.649 409.179 576.61 414.416 575.281 420.266Z" fill="#D11313"/>
<path d="M569.308 432.082C559.801 450.992 537.324 471.722 503.361 482.262C450.761 498.501 361.381 481.952 340.124 457.038C338.253 454.766 336.382 452.493 334.985 450.391C334.985 450.391 387.552 487.611 468.12 474.989C512.576 468.392 547.204 448.445 569.308 432.082Z" fill="#FC3838"/>
<path d="M480.841 489.154C427.283 495.731 359.352 479.732 341.001 458.101C319.213 432.569 328.575 416.179 328.941 415.452C329.334 414.949 329.755 414.671 330.427 414.588L575.599 403.138C576.271 403.055 577.026 403.644 577.332 404.29C580.061 411.689 578.555 421.656 573.239 432.089C561.931 454.86 536.77 474.1 506.112 483.779C498.238 486.336 489.803 488.054 480.841 489.154ZM331.565 418.316C330.157 421.673 325.927 435.386 343.693 455.951C364.14 479.827 452.456 496.962 505.026 480.498C534.815 471.154 559.162 452.696 570.104 430.653C574.464 421.7 576.135 413.08 574.44 406.691L331.565 418.316Z" fill="#FC3838"/>
<path d="M634.913 393.074C626.395 409.092 590.274 422.334 544.061 431.277C490.158 441.69 422.562 446.255 369.06 442.544C332.483 440.007 302.502 433.626 288.006 422.574C277.46 414.565 271.452 400.256 269.612 382.34C262.003 308.468 325.624 173.46 437.886 168.254C548.041 163.128 634.994 301.581 638.838 368.699C639.399 378.603 638.17 386.96 634.913 393.074Z" fill="#363636"/>
<path d="M465.648 189.461C460.852 198.056 498.423 215.137 504.777 206.333C511.132 197.532 474.452 173.69 465.648 189.461Z" fill="white"/>
<path d="M593.719 353.027C589.502 380.392 565.341 409.945 544.062 431.277C490.159 441.689 422.562 446.254 369.06 442.543C343.376 428.581 305.441 400.548 306.347 357.245C307.709 291.89 351.226 255.02 391.112 259.238C416.62 261.936 428.122 308.292 438.388 331.944C444.175 345.276 454.572 342.481 454.572 342.481C454.572 342.481 464.647 343.597 467.895 327.729C472.811 303.719 474.957 258.618 504.791 252.911C554.313 243.433 601.514 302.436 593.719 353.027Z" fill="#F2F2F2"/>
<path opacity="0.2" d="M634.913 393.074C626.395 409.092 590.274 422.334 544.061 431.278C490.158 441.69 422.562 446.255 369.06 442.544C332.483 440.007 302.503 433.626 288.006 422.574C277.46 414.565 271.453 400.256 269.612 382.341C295.268 399.4 364.149 437.525 457.375 428.874C550.549 420.252 615.05 384.102 638.838 368.697C639.399 378.603 638.17 386.96 634.913 393.074Z" fill="#302F3B"/>
<path d="M457.233 358.821C470.034 357.503 477.261 341.076 476.122 337.974C474.983 334.872 437.774 340.489 434.692 342.862C431.612 345.235 442.164 360.375 457.233 358.821Z" fill="#E3841F"/>
<path d="M452.072 322.96C468.916 320.264 483.797 338.823 483.402 343.185C483.005 347.546 433.435 353.099 428.676 351.115C423.917 349.133 432.245 326.134 452.072 322.96Z" fill="#E8A226"/>
<path d="M372.768 284.94C344.556 288.23 334.593 338.298 372.768 345.316C410.943 352.332 408.651 280.756 372.768 284.94Z" fill="#302F3B"/>
<path d="M371.472 336.894C370.629 342.674 388.752 339.649 388.68 335.517C388.608 331.386 372.018 333.163 371.472 336.894Z" fill="white"/>
<path d="M357.115 324.275C353.546 327.519 359.224 335.286 365.314 330.835C371.407 326.382 362.271 319.588 357.115 324.275Z" fill="white"/>
<path d="M369.813 295.217C361.83 302.473 374.529 319.843 388.15 309.887C401.774 299.932 381.341 284.739 369.813 295.217Z" fill="white"/>
<path d="M525.568 284.94C553.78 288.23 563.743 338.298 525.568 345.316C487.392 352.332 489.684 280.756 525.568 284.94Z" fill="#302F3B"/>
<path d="M320.813 343.833C313.893 354.486 343.81 375.518 352.306 355.383C357.554 342.947 327.735 333.18 320.813 343.833Z" fill="#DC4167"/>
<path d="M578.125 335.07C587.091 344.07 562.142 370.809 549.684 352.855C541.989 341.763 569.162 326.068 578.125 335.07Z" fill="#DC4167"/>
<path d="M527.063 336.287C527.908 342.068 509.783 339.042 509.855 334.912C509.927 330.782 526.517 332.557 527.063 336.287Z" fill="white"/>
<path d="M541.42 323.669C544.989 326.915 539.311 334.679 533.221 330.228C527.128 325.777 536.264 318.984 541.42 323.669Z" fill="white"/>
<path d="M528.722 294.613C536.705 301.871 524.007 319.238 510.385 309.282C496.762 299.328 517.194 284.133 528.722 294.613Z" fill="white"/>
<path d="M461.828 144.055C461.828 144.055 451.585 164.069 424.623 170.149C397.663 176.258 388.592 147.357 388.592 147.357C388.592 147.357 388.985 136.997 395.422 127.205C400.07 120.194 407.813 113.435 420.82 111.02C437.049 108.004 447.526 117.094 453.808 126.524C459.581 135.147 461.828 144.055 461.828 144.055Z" fill="#AF89BE"/>
<path opacity="0.2" d="M462.441 144.477C462.441 144.477 452.198 164.491 425.236 170.571C398.276 176.68 389.205 147.779 389.205 147.779C389.205 147.779 389.598 137.419 396.035 127.627C404.114 134.828 425.276 148.259 454.421 126.944C460.194 135.569 462.441 144.477 462.441 144.477Z" fill="#2D2B39"/>
<path d="M472.135 124.49L466.184 169.535L463.795 187.61L391.827 192.691L387.596 179.88L371.665 131.639L405.538 152.163L422.132 122.74L442.589 145.629L472.135 124.49Z" fill="#FFA500"/>
<path d="M466.136 169.907L463.796 187.613L391.828 192.693L387.598 179.882C400.265 175.37 435.386 164.824 466.136 169.907Z" fill="#363636"/>
<path d="M427.185 165.581C431.27 164.861 433.999 160.965 433.278 156.879C432.558 152.793 428.661 150.065 424.576 150.785C420.49 151.506 417.762 155.402 418.482 159.488C419.203 163.574 423.099 166.302 427.185 165.581Z" fill="white"/>
<path d="M309.834 185.803C309.834 194.216 303.013 201.036 294.602 201.036C303.013 201.036 309.834 207.856 309.834 216.268C309.834 207.856 316.654 201.036 325.067 201.036C316.656 201.036 309.834 194.216 309.834 185.803Z" fill="#FFCF01"/>
<path d="M529.054 139.441C529.054 151.146 519.566 160.636 507.861 160.636C519.564 160.636 529.054 170.124 529.054 181.828C529.054 170.124 538.544 160.636 550.248 160.636C538.544 160.636 529.054 151.146 529.054 139.441Z" fill="#FFCF01"/>
<path d="M347.585 169.908C347.585 174.297 344.027 177.856 339.638 177.856C344.027 177.856 347.585 181.414 347.585 185.803C347.585 181.414 351.144 177.856 355.533 177.856C351.144 177.858 347.585 174.299 347.585 169.908Z" fill="#FFCF01"/>
<path d="M578.064 181.83C578.064 189.146 572.133 195.076 564.819 195.076C572.133 195.076 578.064 201.006 578.064 208.322C578.064 201.006 583.996 195.076 591.311 195.076C583.996 195.076 578.064 189.144 578.064 181.83Z" fill="#FFCF01"/>
<path d="M503.461 534C503.791 542.908 503.818 551.102 503.703 558.129L492.117 568.003C469.692 587.114 436.709 587.114 414.283 568.003L405.988 560.934C404.717 551.722 404.057 542.683 403.844 534H503.461Z" fill="#F2F2F2"/>
<path d="M504.499 520L503.499 558L487.499 532.5L504.499 520Z" fill="#F2F2F2"/>
<defs>
<filter id="filter0_d_587_1354" x="670.476" y="84.3438" width="87.0381" height="102.523" filterUnits="userSpaceOnUse" color-interpolation-filters="sRGB">
<feFlood flood-opacity="0" result="BackgroundImageFix"/>
<feColorMatrix in="SourceAlpha" type="matrix" values="0 0 0 0 0 0 0 0 0 0 0 0 0 0 0 0 0 0 127 0" result="hardAlpha"/>
<feOffset dy="4"/>
<feGaussianBlur stdDeviation="2"/>
<feComposite in2="hardAlpha" operator="out"/>
<feColorMatrix type="matrix" values="0 0 0 0 0 0 0 0 0 0 0 0 0 0 0 0 0 0 0.25 0"/>
<feBlend mode="normal" in2="BackgroundImageFix" result="effect1_dropShadow_587_1354"/>
<feBlend mode="normal" in="SourceGraphic" in2="effect1_dropShadow_587_1354" result="shape"/>
</filter>
<filter id="filter1_d_587_1354" x="81.2852" y="505.543" width="128.569" height="114.703" filterUnits="userSpaceOnUse" color-interpolation-filters="sRGB">
<feFlood flood-opacity="0" result="BackgroundImageFix"/>
<feColorMatrix in="SourceAlpha" type="matrix" values="0 0 0 0 0 0 0 0 0 0 0 0 0 0 0 0 0 0 127 0" result="hardAlpha"/>
<feOffset dy="4"/>
<feGaussianBlur stdDeviation="2"/>
<feComposite in2="hardAlpha" operator="out"/>
<feColorMatrix type="matrix" values="0 0 0 0 0 0 0 0 0 0 0 0 0 0 0 0 0 0 0.25 0"/>
<feBlend mode="normal" in2="BackgroundImageFix" result="effect1_dropShadow_587_1354"/>
<feBlend mode="normal" in="SourceGraphic" in2="effect1_dropShadow_587_1354" result="shape"/>
</filter>
<filter id="filter2_d_587_1354" x="33.0342" y="37.0352" width="223.743" height="223.742" filterUnits="userSpaceOnUse" color-interpolation-filters="sRGB">
<feFlood flood-opacity="0" result="BackgroundImageFix"/>
<feColorMatrix in="SourceAlpha" type="matrix" values="0 0 0 0 0 0 0 0 0 0 0 0 0 0 0 0 0 0 127 0" result="hardAlpha"/>
<feOffset dy="4"/>
<feGaussianBlur stdDeviation="2"/>
<feComposite in2="hardAlpha" operator="out"/>
<feColorMatrix type="matrix" values="0 0 0 0 0 0 0 0 0 0 0 0 0 0 0 0 0 0 0.25 0"/>
<feBlend mode="normal" in2="BackgroundImageFix" result="effect1_dropShadow_587_1354"/>
<feBlend mode="normal" in="SourceGraphic" in2="effect1_dropShadow_587_1354" result="shape"/>
</filter>
<filter id="filter3_d_587_1354" x="210.999" y="128" width="484.337" height="484.336" filterUnits="userSpaceOnUse" color-interpolation-filters="sRGB">
<feFlood flood-opacity="0" result="BackgroundImageFix"/>
<feColorMatrix in="SourceAlpha" type="matrix" values="0 0 0 0 0 0 0 0 0 0 0 0 0 0 0 0 0 0 127 0" result="hardAlpha"/>
<feOffset dy="10"/>
<feGaussianBlur stdDeviation="10"/>
<feComposite in2="hardAlpha" operator="out"/>
<feColorMatrix type="matrix" values="0 0 0 0 0 0 0 0 0 0 0 0 0 0 0 0 0 0 0.25 0"/>
<feBlend mode="normal" in2="BackgroundImageFix" result="effect1_dropShadow_587_1354"/>
<feBlend mode="normal" in="SourceGraphic" in2="effect1_dropShadow_587_1354" result="shape"/>
</filter>
</defs>
</svg>
