<svg width="202" height="180" viewBox="0 0 202 180" fill="none" xmlns="http://www.w3.org/2000/svg">
<path d="M44.1003 3.60013C44.1003 3.60013 67.1149 0 90 0C113.015 0 135.9 3.60013 135.9 3.60013C157.817 6.51416 171.606 21.4207 176.4 44.1004C176.4 44.1004 180 67.1551 180 90C180 113.055 176.4 135.9 176.4 135.9C171.941 159.206 158.579 172.507 135.9 176.4C135.9 176.4 112.906 180 90 180C67.0063 180 44.1003 176.4 44.1003 176.4C20.3446 172.527 6.53647 158.718 3.60012 135.9C3.60012 135.9 0 112.924 0 90C0 67.0242 3.60012 44.1004 3.60012 44.1004C7.01569 19.5901 17.0481 7.16007 44.1003 3.60013Z" fill="#FFDE00"/>
<path d="M50.805 16.2193C50.805 16.2193 70.4576 13.1445 90 13.1445C109.653 13.1445 129.195 16.2193 129.195 16.2193C147.911 18.7076 159.685 31.4369 163.779 50.8037C163.779 50.8037 166.854 70.4905 166.854 89.9987C166.854 109.686 163.779 129.194 163.779 129.194C159.971 149.095 148.562 160.453 129.195 163.778C129.195 163.778 109.56 166.853 90 166.853C70.3653 166.853 50.805 163.778 50.805 163.778C30.5184 160.471 18.7284 148.678 16.2206 129.194C16.2206 129.194 13.1459 109.575 13.1459 89.9987C13.1459 70.3804 16.2206 50.8037 16.2206 50.8037C19.1376 29.8742 27.7041 19.2598 50.805 16.2193Z" fill="#FFC200"/>
<path d="M29.5231 46.7912C38.8144 46.7912 46.3465 39.2592 46.3465 29.9679C46.3465 20.6766 38.8144 13.1445 29.5231 13.1445C20.2318 13.1445 12.6997 20.6766 12.6997 29.9679C12.6997 39.2592 20.2318 46.7912 29.5231 46.7912Z" fill="#FFDE00"/>
<path d="M90.5707 113.824C98.8291 113.824 105.37 117.851 108.637 121.276C109.771 122.465 109.726 124.349 108.539 125.485C107.351 126.617 105.471 126.574 104.339 125.394C103.827 124.87 91.8194 112.852 75.3487 125.68C74.0524 126.69 72.1832 126.458 71.1712 125.16C70.1606 123.863 70.3943 121.993 71.692 120.983C78.4547 115.714 84.9153 113.824 90.5707 113.824Z" fill="black"/>
<path d="M67.6838 72.3262C68.9756 72.3262 70.2585 72.8843 71.1381 73.9603C72.7022 75.8668 72.4224 78.6796 70.516 80.2438C69.7629 80.8599 51.8947 95.2351 35.622 84.7086C33.5504 83.3691 32.958 80.6054 34.2975 78.5352C35.6369 76.465 38.4021 75.8727 40.4723 77.2106C51.3381 84.2397 64.7236 73.4483 64.8575 73.3382C65.6865 72.6566 66.6896 72.3262 67.6838 72.3262Z" fill="black"/>
<path d="M113.326 73.6719C112.034 73.6719 110.751 74.2299 109.871 75.3059C108.307 77.2124 108.587 80.0253 110.493 81.5895C111.247 82.2056 129.115 96.5808 145.387 86.0543C147.459 84.7148 148.051 81.9511 146.712 79.8809C145.373 77.8107 142.607 77.2184 140.539 78.5563C129.673 85.5854 116.287 74.794 116.153 74.6839C115.323 74.0023 114.32 73.6719 113.326 73.6719Z" fill="black"/>
<path d="M201.051 38.011C199.126 44.7312 194.201 50.2808 188.689 54.7623C184.152 58.4505 179.151 61.5647 174.408 65C169.663 61.5648 164.663 58.4505 160.126 54.7623C154.615 50.2808 149.689 44.7312 147.764 38.011C145.837 31.292 147.519 23.2648 153.222 18.9566C157.792 15.5034 164.524 15.0323 169.546 17.7692L174.588 28.9684L169.205 32.3805L175.65 42.0867L173.603 51.793L178.456 41.708L174.026 33.8208L179.365 30.4845L177.377 19.0208C177.856 18.6421 178.36 18.2955 178.89 17.9835C183.948 15.0105 190.907 15.4161 195.593 18.9566C201.295 23.2648 202.978 31.2919 201.051 38.011Z" fill="#EF2656"/>
</svg>
