<svg width="180" height="180" viewBox="0 0 180 180" fill="none" xmlns="http://www.w3.org/2000/svg">
<path d="M44.1004 3.60013C44.1004 3.60013 67.1149 0 90 0C113.015 0 135.9 3.60013 135.9 3.60013C157.817 6.51416 171.606 21.4207 176.4 44.1004C176.4 44.1004 180 67.1551 180 90C180 113.055 176.4 135.9 176.4 135.9C171.941 159.206 158.579 172.507 135.9 176.4C135.9 176.4 112.906 180 90 180C67.0063 180 44.1004 176.4 44.1004 176.4C20.3446 172.527 6.53648 158.718 3.60013 135.9C3.60013 135.9 0 112.925 0 90C0 67.0256 3.60013 44.1004 3.60013 44.1004C7.01421 19.5901 17.0466 7.16006 44.1004 3.60013Z" fill="#FFDE00"/>
<path d="M50.805 16.2193C50.805 16.2193 70.4576 13.1445 90 13.1445C109.653 13.1445 129.195 16.2193 129.195 16.2193C147.911 18.7077 159.685 31.4368 163.779 50.8036C163.779 50.8036 166.854 70.4905 166.854 89.9987C166.854 109.685 163.779 129.194 163.779 129.194C159.971 149.096 148.562 160.453 129.195 163.778C129.195 163.778 109.56 166.853 90 166.853C70.3653 166.853 50.805 163.778 50.805 163.778C30.5184 160.471 18.7284 148.678 16.2206 129.194C16.2206 129.194 13.1459 109.575 13.1459 89.9987C13.1459 70.3803 16.2206 50.8036 16.2206 50.8036C19.1362 29.8741 27.7026 19.2598 50.805 16.2193Z" fill="#FFC200"/>
<path d="M32.1578 46.5881C41.3348 45.1349 47.5963 36.5174 46.1431 27.3404C44.69 18.1634 36.0725 11.902 26.8955 13.3552C17.7185 14.8083 11.4571 23.4257 12.9102 32.6028C14.3634 41.7798 22.9808 48.0412 32.1578 46.5881Z" fill="#FFDE00"/>
<path opacity="0.7" d="M148.387 64.4902L106.209 83.8139C107.092 96.7112 117.806 106.906 130.928 106.906C144.627 106.906 155.733 95.8004 155.733 82.1009C155.731 75.2147 152.921 68.9848 148.387 64.4902Z" fill="black"/>
<mask id="mask0_307_1657" style="mask-type:luminance" maskUnits="userSpaceOnUse" x="106" y="67" width="50" height="40">
<path d="M106.81 87.8133C109.392 98.755 119.197 106.908 130.927 106.908C144.627 106.908 155.732 95.8023 155.732 82.1028C155.732 76.6677 153.963 71.6551 150.998 67.5684L106.81 87.8133Z" fill="white"/>
</mask>
<g mask="url(#mask0_307_1657)">
<path d="M130.928 99.9616C142.161 99.9616 151.268 90.8549 151.268 79.6214C151.268 68.3878 142.161 59.2812 130.928 59.2812C119.694 59.2812 110.587 68.3878 110.587 79.6214C110.587 90.8549 119.694 99.9616 130.928 99.9616Z" fill="white"/>
<path d="M140.323 79.62C140.323 84.8081 136.117 89.0155 130.928 89.0155C125.738 89.0155 121.532 84.8096 121.532 79.62C121.532 74.4304 125.738 70.2246 130.928 70.2246C136.116 70.2246 140.323 74.4319 140.323 79.62Z" fill="#3549AA"/>
<path d="M136.552 79.6183C136.552 82.7243 134.034 85.2425 130.928 85.2425C127.822 85.2425 125.304 82.7243 125.304 79.6183C125.304 76.5123 127.822 73.9941 130.928 73.9941C134.034 73.9941 136.552 76.5123 136.552 79.6183Z" fill="#172156"/>
<path d="M133.843 76.9065C133.843 79.2267 131.962 81.1078 129.642 81.1078C127.321 81.1078 125.44 79.2267 125.44 76.9065C125.44 74.5862 127.321 72.7051 129.642 72.7051C131.962 72.7051 133.843 74.5862 133.843 76.9065Z" fill="white"/>
</g>
<path opacity="0.7" d="M31.6123 64.4902L73.7898 83.8139C72.9073 96.7112 62.1932 106.906 49.0712 106.906C35.3717 106.906 24.2662 95.8004 24.2662 82.1009C24.2677 75.2147 27.0791 68.9848 31.6123 64.4902Z" fill="black"/>
<mask id="mask1_307_1657" style="mask-type:luminance" maskUnits="userSpaceOnUse" x="24" y="67" width="50" height="40">
<path d="M73.1897 87.8133C70.6075 98.755 60.8028 106.908 49.0723 106.908C35.3728 106.908 24.2673 95.8023 24.2673 82.1028C24.2673 76.6677 26.0369 71.6551 29.0015 67.5684L73.1897 87.8133Z" fill="white"/>
</mask>
<g mask="url(#mask1_307_1657)">
<path d="M49.0721 99.9616C60.3057 99.9616 69.4123 90.8549 69.4123 79.6214C69.4123 68.3878 60.3057 59.2812 49.0721 59.2812C37.8386 59.2812 28.7319 68.3878 28.7319 79.6214C28.7319 90.8549 37.8386 99.9616 49.0721 99.9616Z" fill="white"/>
<path d="M39.6768 79.62C39.6768 84.8081 43.8826 89.0155 49.0722 89.0155C54.2603 89.0155 58.4676 84.8096 58.4676 79.62C58.4676 74.4304 54.2618 70.2246 49.0722 70.2246C43.8826 70.2246 39.6768 74.4319 39.6768 79.62Z" fill="#3549AA"/>
<path d="M49.0727 85.2425C52.1788 85.2425 54.6968 82.7244 54.6968 79.6183C54.6968 76.5122 52.1788 73.9941 49.0727 73.9941C45.9665 73.9941 43.4485 76.5122 43.4485 79.6183C43.4485 82.7244 45.9665 85.2425 49.0727 85.2425Z" fill="#172156"/>
<path d="M46.1554 76.9065C46.1554 79.2267 48.0366 81.1078 50.3568 81.1078C52.677 81.1078 54.5582 79.2267 54.5582 76.9065C54.5582 74.5862 52.677 72.7051 50.3568 72.7051C48.0366 72.7051 46.1554 74.5862 46.1554 76.9065Z" fill="white"/>
</g>
<path d="M59.1128 153.598L122.358 154.62C123.59 154.637 124.781 153.845 125.21 152.642C125.454 151.959 131.05 135.713 120.498 120.337C115.191 112.601 104.051 107.795 91.4305 107.795C79.6791 107.795 68.8326 111.98 62.4182 118.99C50.3543 132.174 56.0752 150.74 56.3252 151.525C56.7122 152.742 57.8359 153.577 59.1128 153.598Z" fill="#8E262B"/>
<path d="M58.4624 124.552C58.4624 124.552 65.7177 133.384 66.4618 132.888C67.206 132.392 78.1194 124.552 78.1194 124.552L90.8307 134.128L103.171 124.552C103.171 124.552 114.582 133.135 115.326 133.135C116.07 133.135 122.998 124.552 122.998 124.552C122.998 124.552 119.172 106.904 90.7295 106.904C62.2887 106.906 58.4624 124.552 58.4624 124.552Z" fill="white"/>
<path d="M75.4268 67.569C73.2123 67.569 70.9859 67.438 68.7966 67.1641C59.7599 66.036 53.2606 62.4672 47.0605 55.2342C45.9904 53.9855 46.1363 52.1059 47.3834 51.0373C48.6336 49.9672 50.5118 50.1116 51.5804 51.3603C56.7982 57.4488 62.0012 60.3166 69.5363 61.2572C73.8999 61.8004 78.3037 61.6903 82.3086 61.1337C82.2297 61.0593 82.1523 60.9849 82.0734 60.9105C77.4985 56.4442 75.9135 48.2527 78.396 41.8577C80.5093 36.4076 85.245 33.1647 91.3915 32.9593C100.355 32.6572 103.929 37.3214 105.252 40.1268C108.265 46.5219 105.661 54.7669 101.68 59.2778C101.107 59.9252 100.433 60.5428 99.6648 61.1277C105.813 61.4492 112.446 60.3286 116.948 58.0783C124.485 54.3085 126.659 49.1695 127.793 44.6407C128.192 43.0453 129.807 42.0749 131.401 42.4738C132.996 42.8727 133.968 44.4889 133.566 46.0829C132.191 51.585 129.363 58.5248 119.608 63.4033C112.514 66.9528 99.824 68.6078 90.2292 65.5553C85.7778 66.8457 80.6328 67.569 75.4268 67.569ZM92.219 38.8975C92.0121 38.8975 91.8008 38.9005 91.585 38.9079C87.7765 39.0344 85.2048 40.7504 83.9427 44.0082C82.3562 48.1024 83.4025 53.8903 86.2302 56.6481C87.3151 57.7077 88.7305 58.5694 90.3721 59.2466C93.5108 58.1572 95.9322 56.7835 97.2121 55.3354C100.314 51.8231 101.503 46.1379 99.8627 42.6628C98.687 40.1625 96.1138 38.8975 92.219 38.8975Z" fill="black"/>
</svg>
