<svg width="112" height="112" viewBox="0 0 112 112" fill="none" xmlns="http://www.w3.org/2000/svg">
<path d="M55.9985 111.998C86.9256 111.998 111.997 86.9261 111.997 55.9988C111.997 25.0715 86.9256 0 55.9985 0C25.0714 0 0 25.0715 0 55.9988C0 86.9261 25.0714 111.998 55.9985 111.998Z" fill="#FFB612"/>
<path opacity="0.7" d="M3.73566 57.8682C3.73566 26.447 29.2072 0.975318 60.6282 0.975318C63.7695 0.975318 66.847 1.24058 69.8487 1.72923C65.4189 0.602345 60.7798 0 55.999 0C25.0706 0 0 25.0727 0 55.9993C0 76.8078 11.3566 94.9517 28.2019 104.605C13.4209 94.3314 3.73566 77.2367 3.73566 57.8682Z" fill="#FFB612"/>
<path opacity="0.5" d="M66.0575 0.917969C79.5661 11.7381 88.2261 28.3622 88.2261 47.0166C88.2261 79.0721 62.6768 105.144 30.835 106.022C38.404 109.837 46.9484 111.999 56.0013 111.999C86.9297 111.999 112 86.9264 112 55.9998C112 28.5058 92.1832 5.65688 66.0575 0.917969Z" fill="#FFB612"/>
<path d="M91.9604 61.8809C95.2032 42.0153 81.7278 23.2822 61.8623 20.0394C41.9968 16.7965 23.2639 30.272 20.021 50.1376C16.7782 70.0032 30.2536 88.7363 50.1191 91.9791C69.9846 95.2219 88.7176 81.7465 91.9604 61.8809Z" fill="#D37416"/>
<path opacity="0.5" d="M22.9453 58.6308C22.9453 38.9212 38.9231 22.9454 58.6305 22.9454C70.4957 22.9454 80.9767 28.7593 87.4667 37.6667C81.1462 26.8446 69.4386 19.5527 56.0018 19.5527C35.8715 19.5527 19.5547 35.8716 19.5547 56C19.5547 69.4369 26.8465 81.1446 37.6686 87.4651C28.7592 80.979 22.9453 70.496 22.9453 58.6308Z" fill="#D37416"/>
<path d="M57.67 35.5099L63.1907 46.697C63.462 47.2474 63.9885 47.6304 64.5968 47.7181L76.9427 49.5112C78.4744 49.7326 79.0847 51.6154 77.9778 52.6944L69.0445 61.4023C68.6057 61.8312 68.4043 62.4495 68.508 63.0538L70.6162 75.3498C70.8775 76.8756 69.2779 78.0384 67.9077 77.3184L56.8662 71.5144C56.3217 71.2292 55.6735 71.2292 55.129 71.5144L44.0876 77.3184C42.7174 78.0384 41.1178 76.8756 41.3791 75.3498L43.4873 63.0538C43.591 62.4475 43.3895 61.8312 42.9507 61.4023L34.0175 52.6944C32.9105 51.6134 33.5208 49.7326 35.0526 49.5112L47.3984 47.7181C48.0067 47.6304 48.5313 47.2474 48.8045 46.697L54.3253 35.5099C55.0074 34.1217 56.9859 34.1217 57.67 35.5099Z" fill="#FFB612"/>
<path opacity="0.7" d="M43.248 75.3502L45.3562 63.0562C45.4599 62.4499 45.2584 61.8336 44.8196 61.4028L35.8864 52.6948C34.7774 51.6138 35.3897 49.733 36.9215 49.5116L49.2653 47.7186C49.8737 47.6308 50.3982 47.2479 50.6715 46.6974L56.1922 35.5103C56.3677 35.1553 56.629 34.894 56.9301 34.7205C56.0546 34.2179 54.8299 34.4792 54.3213 35.5103L48.8006 46.6974C48.5294 47.2479 48.0028 47.6308 47.3945 47.7186L35.0487 49.5116C33.5169 49.733 32.9066 51.6158 34.0136 52.6948L42.9468 61.4028C43.3876 61.8316 43.5871 62.4499 43.4833 63.0562L41.3752 75.3502C41.1139 76.876 42.7135 78.0388 44.0837 77.3188L44.1695 77.2749C43.5352 76.9079 43.1044 76.1919 43.248 75.3502Z" fill="#FFB612"/>
<path opacity="0.5" d="M44.091 77.317L55.1325 71.5131C55.677 71.2279 56.3252 71.2279 56.8697 71.5131L67.9111 77.317C69.2813 78.0371 70.8809 76.8743 70.6196 75.3485L68.5115 63.0544C68.4077 62.4481 68.6092 61.8318 69.048 61.401L77.9812 52.6931C79.0902 51.6121 78.4779 49.7312 76.9461 49.5098L64.6003 47.7168L42.7148 77.4487C43.1496 77.5743 43.6303 77.5584 44.091 77.317Z" fill="#FFB612"/>
<path opacity="0.7" d="M51.5488 50.5123C51.8281 51.5375 50.5317 52.7841 48.6569 53.2927C46.7801 53.8033 45.0329 53.3844 44.7537 52.3592C44.4744 51.3341 45.7708 50.0875 47.6456 49.5789C49.5225 49.0683 51.2696 49.4872 51.5488 50.5123Z" fill="#FFB612"/>
</svg>
