<svg width="180" height="180" viewBox="0 0 180 180" fill="none" xmlns="http://www.w3.org/2000/svg">
<path d="M44.1003 3.60013C44.1003 3.60013 67.1149 0 90 0C113.015 0 135.9 3.60013 135.9 3.60013C157.817 6.51416 171.606 21.4207 176.4 44.1004C176.4 44.1004 180 67.1551 180 90C180 113.055 176.4 135.9 176.4 135.9C171.941 159.206 158.579 172.507 135.9 176.4C135.9 176.4 112.906 180 90 180C67.0063 180 44.1003 176.4 44.1003 176.4C20.3446 172.527 6.53647 158.718 3.60012 135.9C3.60012 135.9 0 112.924 0 90C0 67.0242 3.60012 44.1004 3.60012 44.1004C7.01569 19.5901 17.0481 7.16006 44.1003 3.60013Z" fill="#FFDE00"/>
<path d="M50.8051 16.2212C50.8051 16.2212 70.4577 13.1465 90.0001 13.1465C109.653 13.1465 129.195 16.2212 129.195 16.2212C147.912 18.7096 159.685 31.4388 163.78 50.8056C163.78 50.8056 166.854 70.4924 166.854 90.0006C166.854 109.687 163.78 129.196 163.78 129.196C159.971 149.097 148.562 160.455 129.195 163.78C129.195 163.78 109.56 166.855 90.0001 166.855C70.3654 166.855 50.8051 163.78 50.8051 163.78C30.5185 160.473 18.7285 148.68 16.2207 129.196C16.2207 129.196 13.146 109.577 13.146 90.0006C13.146 70.3823 16.2207 50.8056 16.2207 50.8056C19.1378 29.8761 27.7042 19.2617 50.8051 16.2212Z" fill="#FFC200"/>
<path d="M29.5231 46.7932C38.8144 46.7932 46.3465 39.2612 46.3465 29.9699C46.3465 20.6786 38.8144 13.1465 29.5231 13.1465C20.2318 13.1465 12.6997 20.6786 12.6997 29.9699C12.6997 39.2612 20.2318 46.7932 29.5231 46.7932Z" fill="#FFDE00"/>
<path d="M90.5717 113.822C98.8301 113.822 105.371 117.85 108.638 121.274C109.772 122.463 109.727 124.347 108.54 125.483C107.352 126.615 105.472 126.572 104.34 125.392C103.828 124.868 91.8204 112.85 75.3497 125.678C74.0534 126.688 72.1842 126.456 71.1721 125.158C70.1616 123.861 70.3953 121.991 71.693 120.981C78.4557 115.712 84.9163 113.822 90.5717 113.822Z" fill="black"/>
<path d="M67.6835 72.3262C68.9753 72.3262 70.2582 72.8843 71.1378 73.9603C72.702 75.8668 72.4222 78.6796 70.5157 80.2438C69.7626 80.8599 51.8945 95.2351 35.6218 84.7086C33.5501 83.3691 32.9578 80.6054 34.2972 78.5352C35.6367 76.465 38.4019 75.8727 40.472 77.2106C51.3379 84.2397 64.7234 73.4483 64.8573 73.3382C65.6863 72.6566 66.6894 72.3262 67.6835 72.3262Z" fill="black"/>
<path d="M113.326 73.6719C112.034 73.6719 110.751 74.2299 109.872 75.3059C108.308 77.2124 108.587 80.0253 110.494 81.5895C111.247 82.2056 129.115 96.5808 145.388 86.0543C147.459 84.7148 148.052 81.9511 146.712 79.8809C145.373 77.8107 142.608 77.2184 140.539 78.5563C129.673 85.5854 116.288 74.794 116.154 74.6839C115.323 74.0023 114.32 73.6719 113.326 73.6719Z" fill="black"/>
</svg>
