<svg width="180" height="180" viewBox="0 0 180 180" fill="none" xmlns="http://www.w3.org/2000/svg">
<path d="M44.1003 3.60008C44.1003 3.60008 67.1134 0 90 0C113.015 0 135.9 3.60008 135.9 3.60008C157.817 6.51411 171.606 21.4206 176.4 44.1003C176.4 44.1003 180 67.1551 180 90C180 113.055 176.4 135.9 176.4 135.9C171.941 159.206 158.579 172.507 135.9 176.4C135.9 176.4 112.906 180 90 180C67.0062 180 44.1003 176.4 44.1003 176.4C20.3446 172.527 6.53648 158.718 3.60013 135.9C3.60013 135.9 0 112.924 0 90C0 67.0241 3.60013 44.1003 3.60013 44.1003C7.01421 19.59 17.0466 7.16151 44.1003 3.60008Z" fill="#FFDE00"/>
<path d="M50.8052 16.2213C50.8052 16.2213 70.4578 13.1465 90.0002 13.1465C109.653 13.1465 129.195 16.2213 129.195 16.2213C147.912 18.7096 159.685 31.4388 163.78 50.8056C163.78 50.8056 166.854 70.4924 166.854 90.0007C166.854 109.687 163.78 129.196 163.78 129.196C159.971 149.097 148.562 160.455 129.195 163.78C129.195 163.78 109.561 166.855 90.0002 166.855C70.3655 166.855 50.8052 163.78 50.8052 163.78C30.5186 160.473 18.7286 148.68 16.2209 129.196C16.2209 129.196 13.1476 109.576 13.1476 90.0007C13.1476 70.3823 16.2209 50.8056 16.2209 50.8056C19.1364 29.8761 27.7043 19.2618 50.8052 16.2213Z" fill="#FFC200"/>
<path d="M29.523 46.7932C38.8143 46.7932 46.3464 39.2612 46.3464 29.9699C46.3464 20.6786 38.8143 13.1465 29.523 13.1465C20.2317 13.1465 12.6996 20.6786 12.6996 29.9699C12.6996 39.2612 20.2317 46.7932 29.523 46.7932Z" fill="#FFDE00"/>
<path d="M112.82 82.1677C111.528 82.1677 110.247 81.6096 109.366 80.5336C107.801 78.6272 108.081 75.8143 109.988 74.2501C110.741 73.634 128.609 59.2588 144.882 69.7853C146.953 71.1248 147.545 73.8885 146.206 75.9587C144.867 78.0289 142.101 78.6212 140.033 77.2832C129.167 70.2541 115.781 81.0456 115.648 81.1557C114.819 81.8359 113.815 82.1677 112.82 82.1677Z" fill="black"/>
<path d="M67.1793 80.822C68.4712 80.822 69.7525 80.2639 70.6336 79.1879C72.1978 77.2815 71.918 74.4686 70.0115 72.9044C69.2585 72.2883 51.3904 57.9131 35.1176 68.4396C33.046 69.7791 32.4536 72.5428 33.7931 74.613C35.1325 76.6832 37.8977 77.2755 39.9664 75.9375C50.8323 68.9084 64.2177 79.6999 64.3516 79.81C65.1821 80.4902 66.1852 80.822 67.1793 80.822Z" fill="black"/>
<path d="M121.718 102.071L58.473 101.049C57.2408 101.033 56.0501 101.824 55.6215 103.027C55.3774 103.712 49.7816 119.956 60.3334 135.333C65.6405 143.069 76.7802 147.874 89.4007 147.874C101.152 147.874 111.999 143.689 118.413 136.68C130.478 123.495 124.756 104.927 124.506 104.145C124.119 102.926 122.995 102.091 121.718 102.071Z" fill="#8E262B"/>
<path d="M90.0004 144.499C100.138 144.499 108.355 139.613 108.355 133.585C108.355 127.558 100.138 122.672 90.0004 122.672C79.8634 122.672 71.6456 127.558 71.6456 133.585C71.6456 139.613 79.8634 144.499 90.0004 144.499Z" fill="#DB616D"/>
</svg>
