<svg width="24" height="24" viewBox="0 0 24 24" fill="none" xmlns="http://www.w3.org/2000/svg">
<path d="M8 8C9.72 8 11.3333 8.54667 12.6267 9.48L19.44 2.66667H13.3333V0H24V10.6667H21.3333V4.54667L14.52 11.3333C15.4533 12.6667 16 14.2667 16 16C16 18.1217 15.1571 20.1566 13.6569 21.6569C12.1566 23.1571 10.1217 24 8 24C5.87827 24 3.84344 23.1571 2.34315 21.6569C0.842855 20.1566 0 18.1217 0 16C0 13.8783 0.842855 11.8434 2.34315 10.3431C3.84344 8.84286 5.87827 8 8 8ZM8 10.6667C6.58551 10.6667 5.22896 11.2286 4.22876 12.2288C3.22857 13.229 2.66667 14.5855 2.66667 16C2.66667 17.4145 3.22857 18.771 4.22876 19.7712C5.22896 20.7714 6.58551 21.3333 8 21.3333C9.41449 21.3333 10.771 20.7714 11.7712 19.7712C12.7714 18.771 13.3333 17.4145 13.3333 16C13.3333 14.5855 12.7714 13.229 11.7712 12.2288C10.771 11.2286 9.41449 10.6667 8 10.6667Z" fill="#63B5F5"/>
</svg>
