<svg width="121" height="121" viewBox="0 0 121 121" fill="none" xmlns="http://www.w3.org/2000/svg">
<path d="M29.632 2.41901C29.632 2.41901 45.096 0 60.473 0C75.937 0 91.314 2.41901 91.314 2.41901C106.041 4.37701 115.306 14.393 118.527 29.632C118.527 29.632 120.946 45.123 120.946 60.473C120.946 75.964 118.527 91.314 118.527 91.314C115.531 106.974 106.553 115.911 91.314 118.527C91.314 118.527 75.864 120.946 60.473 120.946C45.023 120.946 29.632 118.527 29.632 118.527C13.67 115.925 4.392 106.646 2.419 91.314C2.419 91.314 0 75.877 0 60.473C0 45.036 2.419 29.632 2.419 29.632C4.714 13.163 11.455 4.81101 29.632 2.41901Z" fill="#FFDE00"/>
<path d="M34.136 10.9C34.136 10.9 47.341 8.83398 60.472 8.83398C73.677 8.83398 86.808 10.9 86.808 10.9C99.384 12.572 107.295 21.125 110.046 34.138C110.046 34.138 112.112 47.366 112.112 60.474C112.112 73.702 110.046 86.81 110.046 86.81C107.487 100.183 99.821 107.814 86.808 110.048C86.808 110.048 73.615 112.114 60.472 112.114C47.279 112.114 34.136 110.048 34.136 110.048C20.505 107.826 12.583 99.902 10.898 86.81C10.898 86.81 8.83203 73.628 8.83203 60.474C8.83203 47.292 10.898 34.138 10.898 34.138C12.858 20.075 18.614 12.943 34.136 10.9Z" fill="#FFC200"/>
<path d="M22.414 31.1337C28.4947 29.7196 32.2778 23.6439 30.8637 17.5632C29.4497 11.4825 23.374 7.69943 17.2933 9.11347C11.2126 10.5275 7.42951 16.6032 8.84356 22.6839C10.2576 28.7646 16.3333 32.5477 22.414 31.1337Z" fill="#FFDE00"/>
<path opacity="0.7" d="M104.445 57.8325C105.927 48.7472 99.7637 40.1807 90.6785 38.6987C81.5932 37.2168 73.0267 43.3804 71.5447 52.4657C70.0627 61.5509 76.2264 70.1174 85.3117 71.5994C94.3969 73.0814 102.963 66.9177 104.445 57.8325Z" fill="black"/>
<path d="M87.9736 67.166C95.5217 67.166 101.641 61.0471 101.641 53.499C101.641 45.9509 95.5217 39.832 87.9736 39.832C80.4256 39.832 74.3066 45.9509 74.3066 53.499C74.3066 61.0471 80.4256 67.166 87.9736 67.166Z" fill="white"/>
<path d="M94.2862 53.5005C94.2862 56.9865 91.4602 59.8135 87.9732 59.8135C84.4872 59.8135 81.6602 56.9875 81.6602 53.5005C81.6602 50.0135 84.4862 47.1875 87.9732 47.1875C91.4602 47.1875 94.2862 50.0145 94.2862 53.5005Z" fill="#3549AA"/>
<path d="M87.9724 57.2787C90.0595 57.2787 91.7514 55.5868 91.7514 53.4997C91.7514 51.4126 90.0595 49.7207 87.9724 49.7207C85.8853 49.7207 84.1934 51.4126 84.1934 53.4997C84.1934 55.5868 85.8853 57.2787 87.9724 57.2787Z" fill="#172156"/>
<path d="M89.9331 51.6765C89.9331 53.2355 88.6691 54.4995 87.1101 54.4995C85.5511 54.4995 84.2871 53.2355 84.2871 51.6765C84.2871 50.1175 85.5511 48.8535 87.1101 48.8535C88.6691 48.8535 89.9331 50.1175 89.9331 51.6765Z" fill="white"/>
<path opacity="0.7" d="M49.3975 57.9122C50.9145 48.8334 44.7844 40.2438 35.7056 38.7268C26.6267 37.2099 18.0371 43.3399 16.5202 52.4188C15.0032 61.4976 21.1333 70.0872 30.2121 71.6041C39.2909 73.1211 47.8805 66.991 49.3975 57.9122Z" fill="black"/>
<path d="M32.9717 67.168C40.5198 67.168 46.6387 61.0491 46.6387 53.501C46.6387 45.9529 40.5198 39.834 32.9717 39.834C25.4236 39.834 19.3047 45.9529 19.3047 53.501C19.3047 61.0491 25.4236 67.168 32.9717 67.168Z" fill="white"/>
<path d="M39.2862 53.5005C39.2862 56.9865 36.4602 59.8135 32.9732 59.8135C29.4872 59.8135 26.6602 56.9875 26.6602 53.5005C26.6602 50.0135 29.4862 47.1875 32.9732 47.1875C36.4602 47.1875 39.2862 50.0145 39.2862 53.5005Z" fill="#3549AA"/>
<path d="M32.9724 57.2787C35.0594 57.2787 36.7514 55.5868 36.7514 53.4997C36.7514 51.4126 35.0594 49.7207 32.9724 49.7207C30.8853 49.7207 29.1934 51.4126 29.1934 53.4997C29.1934 55.5868 30.8853 57.2787 32.9724 57.2787Z" fill="#172156"/>
<path d="M34.9331 51.6765C34.9331 53.2355 33.6691 54.4995 32.1101 54.4995C30.5511 54.4995 29.2871 53.2355 29.2871 51.6765C29.2871 50.1175 30.5511 48.8535 32.1101 48.8535C33.6691 48.8535 34.9331 50.1175 34.9331 51.6765Z" fill="white"/>
<path d="M96.2595 88.2502H92.4805V66.0963L96.2595 64.3652V88.2502Z" fill="#60C3E5"/>
<path d="M88.5586 89.5239C88.5586 92.6869 91.1226 95.2509 94.2856 95.2509C97.4486 95.2509 100.013 92.6869 100.013 89.5239C100.013 86.3609 97.4486 83.7969 94.2856 83.7969C91.1226 83.7969 88.5586 86.3609 88.5586 89.5239Z" fill="#60C3E5"/>
<path d="M91.5039 90.9453C92.6775 90.9453 93.6289 89.9939 93.6289 88.8203C93.6289 87.6467 92.6775 86.6953 91.5039 86.6953C90.3303 86.6953 89.3789 87.6467 89.3789 88.8203C89.3789 89.9939 90.3303 90.9453 91.5039 90.9453Z" fill="white"/>
<path d="M38.2695 89.2345C37.9065 89.2345 37.5405 89.1225 37.2275 88.8885C36.4525 88.3125 36.2905 87.2165 36.8665 86.4405C37.5175 85.5655 40.9055 81.1605 43.7305 80.4175C45.7625 79.8835 47.1505 80.9685 48.3735 81.9275C49.3885 82.7205 50.4375 83.5415 52.1525 83.8945C53.6585 84.2015 54.1515 83.7395 55.4775 82.2285C56.3725 81.2075 57.4855 79.9365 59.2675 79.0445C62.9905 77.1855 64.9905 79.5265 66.4505 81.2355C67.1435 82.0485 67.8605 82.8865 68.8075 83.5525C69.5905 84.1055 70.0125 84.0385 72.0525 82.1795C73.1125 81.2115 74.3145 80.1145 75.8105 79.6795C79.8575 78.4955 83.6565 83.3735 84.0755 83.9345C84.6555 84.7075 84.4985 85.8045 83.7255 86.3845C82.9545 86.9615 81.8575 86.8075 81.2775 86.0365C80.1595 84.5575 77.9765 82.6905 76.7905 83.0385C76.0735 83.2475 75.2285 84.0185 74.4115 84.7645C72.6825 86.3405 70.0725 88.7205 66.7935 86.4155C65.4855 85.4945 64.5455 84.3935 63.7895 83.5085C62.2325 81.6865 62.0115 81.5835 60.8335 82.1745C59.6655 82.7585 58.9105 83.6205 58.1105 84.5335C56.7355 86.1015 55.0275 88.0605 51.4495 87.3205C48.9285 86.8025 47.3615 85.5775 46.2175 84.6815C45.1935 83.8815 44.9115 83.7265 44.6215 83.8005C43.4585 84.1065 41.0025 86.7415 39.6765 88.5275C39.3315 88.9895 38.8035 89.2345 38.2695 89.2345Z" fill="black"/>
</svg>
