<svg width="60" height="42" viewBox="0 0 60 42" fill="none" xmlns="http://www.w3.org/2000/svg">
<g clip-path="url(#clip0_577_125)">
<path d="M15.0863 2.14453L15.084 2.16163C15.0825 2.17304 15.0816 2.17874 15.0854 2.19109C15.0464 3.27915 15.0298 4.41661 15.1153 5.52794C15.2493 7.64655 15.7363 9.69389 17.1014 11.2552L17.1071 11.2561C17.1413 11.3017 17.1764 11.3417 17.2173 11.3825C17.1261 11.3288 17.0406 11.2761 16.9484 11.2281C16.2637 10.8513 15.5691 10.6242 14.7514 10.9321C14.5542 11.0086 14.3865 11.1245 14.2663 11.2756C13.899 11.6885 13.8315 12.3247 14.1185 12.8421C14.3318 13.2217 14.6811 13.504 15.0346 13.7582C15.6161 14.1668 16.2333 14.5284 16.8785 14.8182C16.8719 14.8229 16.8662 14.822 16.8605 14.8215L16.8548 14.8206C16.5436 14.9622 16.1886 15.0049 15.8513 15.0847C15.3833 15.1869 14.8749 15.3237 14.6136 15.7281C14.5998 15.7433 14.5908 15.7656 14.5818 15.7875C14.3717 16.159 14.4473 16.6465 14.6749 17.0104C14.9177 17.3882 15.2978 17.6576 15.6831 17.8928C16.3217 18.2686 17.0339 18.452 17.6772 18.7936C18.1471 19.0469 18.8541 19.636 19.4238 19.5952C19.2889 19.6051 19.1592 19.6156 19.0233 19.6313C19.0185 19.6246 19.0185 19.6246 19.0119 19.6294C18.5771 19.6603 18.1348 19.7021 17.6991 19.7387C17.1266 19.7966 16.4989 20.3235 16.7336 20.84C16.7555 20.8894 16.7887 20.9407 16.8239 20.9806C17.0135 21.1997 17.3508 21.2828 17.6449 21.3422C19.1117 21.6211 20.5993 21.8744 21.9373 22.5243C23.1498 23.1164 24.1799 24.0077 25.0655 25.0178C25.4604 25.4697 25.9075 25.8826 26.3028 26.3344C26.6073 26.686 26.7465 26.9735 27.2369 27.125C27.2483 27.1265 27.253 27.1331 27.2644 27.135L27.2701 27.136C27.3319 27.1507 27.3832 27.1578 27.4436 27.1431C27.4735 27.136 27.4992 27.1222 27.5191 27.1018C27.6517 26.9868 27.5866 26.7103 27.503 26.5235C27.3295 26.1501 27.1993 25.759 27.1167 25.3576C27.1167 25.3576 27.111 25.3566 27.1176 25.3519C26.9261 24.4928 26.9209 23.5905 27.0055 22.7125C27.1257 21.4211 27.417 20.1539 27.5486 18.8639C27.6023 18.3655 27.6013 17.8011 27.244 17.4537C27.1314 17.3445 26.9908 17.2722 26.8387 17.239C26.6211 17.1729 26.3802 17.191 26.1659 17.2651C25.8101 17.3948 25.5245 17.6856 25.3316 18.0187C25.3501 17.9688 25.3701 17.9137 25.3829 17.8633C25.3839 17.8576 25.3839 17.8576 25.3843 17.8519C25.6138 17.181 25.8319 16.5082 26.0557 15.8364C26.269 15.1978 26.4838 14.5483 26.5332 13.8746C26.576 13.2469 26.4643 12.1955 25.8861 11.8049C25.859 11.7892 25.8324 11.774 25.8048 11.764C25.8048 11.764 25.8058 11.7583 25.8001 11.7574C25.4955 11.6091 25.1007 11.7275 24.8208 11.9375C24.5229 12.1508 24.3015 12.4392 24.0141 12.6601L24.0074 12.6649C23.9993 12.681 23.9803 12.6901 23.9675 12.7001C24.4616 11.3977 24.4521 9.9134 23.9513 8.61487C23.8478 8.36163 23.7266 8.11171 23.5123 7.94161C23.5076 7.93496 23.5076 7.93496 23.5019 7.93401C23.1241 7.6475 22.5663 7.72495 22.1682 7.98817C21.7824 8.24712 21.5163 8.64528 21.2678 9.04059C21.2602 9.05104 21.2521 9.06767 21.245 9.07812C21.4403 8.76881 20.8402 7.55485 20.6957 7.26075C20.4083 6.66731 20.0301 6.13611 19.5678 5.66906C18.8917 4.98534 18.2312 4.31541 17.4729 3.71864C17.2743 3.56232 15.819 2.71516 15.2816 2.32413C15.1605 2.23671 15.083 2.16734 15.0863 2.14453Z" fill="#007537"/>
<path opacity="0.5" d="M14.121 12.8443C14.3344 13.224 14.6841 13.5062 15.0376 13.7604C15.6191 14.169 16.2363 14.5306 16.8816 14.8204C16.8749 14.8251 16.8692 14.8247 16.8635 14.8237C17.7672 14.9701 18.6533 15.2418 19.4824 15.6276C18.6605 14.6612 17.6313 13.8863 16.5271 13.2691C16.0206 12.9873 15.4928 12.7317 15.0452 12.3654C14.7853 12.1483 14.5491 11.8874 14.3886 11.5852C14.3372 11.4964 14.3068 11.3819 14.2693 11.2773C13.902 11.6907 13.8345 12.3264 14.121 12.8443Z" fill="#007537"/>
<path opacity="0.5" d="M14.6786 17.0121C14.9213 17.3898 15.3015 17.6592 15.6868 17.8944C16.3254 18.2702 17.0376 18.4536 17.6809 18.7952C18.1508 19.0485 18.8578 19.6376 19.4275 19.5968C19.2926 19.6067 19.1628 19.6172 19.027 19.6329C19.9592 19.7835 20.8899 19.945 21.7485 20.3294C20.8272 19.2442 19.8409 18.1262 18.52 17.6007C17.9085 17.3622 17.2547 17.2572 16.6152 17.0905C15.9766 16.918 15.3366 16.6752 14.8743 16.2081C14.7783 16.1069 14.6862 15.9368 14.5854 15.7891C14.3754 16.1601 14.451 16.6481 14.6786 17.0121Z" fill="#007537"/>
<path opacity="0.5" d="M16.8281 20.9824C17.0177 21.2015 17.3551 21.2846 17.6492 21.3435C19.1159 21.6224 20.6035 21.8757 21.9415 22.5256C23.154 23.1172 24.1846 24.009 25.0698 25.0191C25.4646 25.471 25.9122 25.8839 26.307 26.3357C26.6116 26.6873 26.7508 26.9748 27.2411 27.1264C27.2525 27.1278 27.2573 27.1344 27.2687 27.1358C27.2525 27.0465 27.2136 26.9534 27.1727 26.8722C26.9128 26.3291 26.6462 25.7908 26.3802 25.2529C26.1953 24.8775 26.0043 24.5012 25.7758 24.1487C24.721 22.4919 22.8438 21.3806 20.8839 21.258C20.0999 21.21 19.3188 21.3022 18.5291 21.2941C17.9542 21.2827 17.3588 21.2152 16.8281 20.9824Z" fill="#007537"/>
<path opacity="0.5" d="M15.1162 5.52734C15.2502 7.64596 15.7372 9.6933 17.1023 11.2546L17.108 11.2555C17.3636 11.3791 17.6392 11.4475 17.8948 11.5715C18.4398 11.8295 18.8493 12.3008 19.2375 12.7574C19.0769 11.5188 18.4279 10.4027 17.6938 9.39064C16.9592 8.38431 16.1225 7.43928 15.5167 6.34647C15.3685 6.08088 15.2336 5.80577 15.1162 5.52734Z" fill="#007537"/>
<path opacity="0.3" d="M14.2672 11.2751C13.9 11.688 13.8325 12.3242 14.1195 12.8416C14.3328 13.2212 14.682 13.5034 15.0355 13.7576C15.6171 14.1663 16.2343 14.5278 16.8795 14.8177C16.8729 14.8224 16.8672 14.8215 16.8615 14.821L16.8558 14.82C16.5446 14.9616 16.1896 15.0044 15.8523 15.0842C15.3843 15.1864 14.8759 15.3232 14.6146 15.7275C14.6008 15.7427 14.5918 15.7651 14.5827 15.7869C14.3727 16.1585 14.4483 16.646 14.6759 17.0099C14.9186 17.3876 15.2988 17.657 15.6841 17.8922C16.3227 18.2681 17.0349 18.4515 17.6782 18.7931C18.1481 19.0463 18.8551 19.6355 19.4248 19.5946C19.2899 19.6046 19.1601 19.6151 19.0243 19.6307C19.0195 19.6241 19.0195 19.6241 19.0129 19.6288C18.5781 19.6597 18.1358 19.7015 17.7001 19.7381C17.1275 19.7961 16.4999 20.323 16.7346 20.8395C16.7565 20.8889 16.7897 20.9402 16.8249 20.9801C17.0145 21.1992 17.3518 21.2823 17.6459 21.3417C19.1126 21.6206 20.6003 21.8738 21.9382 22.5238C23.1508 23.1158 24.1809 24.0072 25.0665 25.0173C25.4613 25.4692 25.9084 25.882 26.3038 26.3339C26.6083 26.6855 26.7475 26.973 27.2379 27.1245C27.2493 27.1259 27.254 27.1326 27.2654 27.1345L27.2711 27.1354C27.3329 27.1502 27.3842 27.1573 27.4445 27.1426C27.4745 27.1354 27.5001 27.1217 27.5201 27.1012C27.2896 26.475 27.0046 25.8645 26.7803 25.2335C26.3109 23.916 26.1355 22.4953 26.2643 21.106C26.299 20.7387 26.3399 20.3316 26.1013 20.0474C25.5982 19.4578 25.3654 20.3553 25.076 20.5059C24.9069 20.5924 24.6916 20.5093 24.5728 20.3643C24.4531 20.2251 24.4051 20.0322 24.3619 19.8455C24.1134 18.6933 24.0512 17.4979 24.178 16.3238C24.2079 16.072 24.2445 15.8154 24.1633 15.5712C24.0811 15.3327 23.843 15.1241 23.5922 15.1697C23.2696 15.2287 23.1665 15.6268 23.0638 15.9375C22.9612 16.2488 22.6391 16.5923 22.3621 16.4132C22.2822 16.3609 22.2357 16.2787 22.1896 16.1965C21.8784 15.6054 21.7373 14.9222 21.8038 14.2513C21.8926 13.2635 22.401 12.2253 21.9767 11.3273C21.9406 11.2523 21.8936 11.1758 21.8242 11.1311C21.6955 11.0546 21.5268 11.0945 21.4051 11.1758C20.8483 11.5326 20.873 12.3389 20.6449 12.9575C20.5984 13.0787 20.5033 13.2165 20.3803 13.1813C20.3019 13.1585 20.2558 13.0763 20.2254 13.0022C19.603 11.5754 19.4856 9.95374 18.7449 8.58013C18.3638 7.86839 17.8303 7.24596 17.347 6.59503C16.6937 5.71081 16.1383 4.75343 15.6884 3.7471C15.4731 3.25676 15.2769 2.75787 15.1116 2.24568C15.1035 2.22145 15.0959 2.19104 15.083 2.16016C15.0484 3.26056 15.0308 4.40373 15.1149 5.52646C15.2489 7.64507 15.7359 9.69242 17.1009 11.2537L17.1066 11.2546C17.1408 11.3003 17.176 11.3402 17.2169 11.381C17.1256 11.3273 17.0401 11.2746 16.9479 11.2266C16.2633 10.8498 15.5686 10.6227 14.7509 10.9306C14.5552 11.0076 14.3874 11.1235 14.2672 11.2751Z" fill="#007537"/>
<path opacity="0.5" d="M15.0866 2.14453L15.0843 2.16163C15.0828 2.17304 15.0819 2.17874 15.0857 2.19109C15.29 2.42961 15.6126 2.65577 15.8088 2.78881C16.8389 3.4768 17.7935 4.28737 18.6416 5.19345C18.8482 5.41486 19.0488 5.64102 19.2417 5.87811C19.4346 6.11473 19.6146 6.3618 19.7881 6.61314C19.9605 6.87019 20.1154 7.13103 20.257 7.40138C20.3996 7.66603 20.5236 7.93971 20.6286 8.22241C20.7279 8.50417 20.8153 8.79019 20.8723 9.08287C20.8951 9.20831 20.917 9.33945 20.9336 9.46963C20.9498 9.59982 20.9759 9.74331 20.9578 9.86874C20.9398 9.99418 20.9512 10.1177 20.993 10.2346C20.9897 10.1762 20.9863 10.1172 21.0001 10.0612C21.0187 9.93003 21.0491 9.80032 21.079 9.67109C21.0947 9.60362 21.1089 9.54185 21.1303 9.47486C21.1645 9.3575 21.2111 9.23634 21.251 9.11994C21.261 9.09238 21.2638 9.06957 21.2681 9.04106C21.2605 9.05152 21.2524 9.06814 21.2453 9.0786C21.4406 8.76929 20.8405 7.55533 20.696 7.26122C20.4086 6.66778 20.0304 6.13659 19.5681 5.66953C18.892 4.98582 18.2315 4.31588 17.4732 3.71911C17.2746 3.5628 15.8193 2.71564 15.2819 2.32461C15.1608 2.23671 15.0833 2.16734 15.0866 2.14453Z" fill="#007537"/>
<path opacity="0.5" d="M23.8377 8.52202C24.1252 9.31929 24.1522 10.1897 24.0662 11.0383C23.9883 11.7486 23.8358 12.448 23.6058 13.1246C23.794 13.0291 23.9118 12.8543 24.0088 12.6647C24.0007 12.6808 23.9817 12.6899 23.9688 12.6998C24.463 11.3975 24.4535 9.9132 23.9527 8.61467C23.8491 8.36142 23.728 8.1115 23.5137 7.94141C23.6648 8.102 23.7569 8.31296 23.8377 8.52202Z" fill="#007537"/>
<path opacity="0.5" d="M26.2356 12.7904C26.3073 13.8766 26.2004 14.4662 25.9909 15.4426C25.7894 16.3677 25.1742 18.1119 25.1152 18.2782C25.1323 18.2397 25.2421 18.081 25.3837 17.8629C25.3846 17.8572 25.3846 17.8572 25.3851 17.8515C25.6146 17.1806 25.8327 16.5079 26.0565 15.836C26.2698 15.1974 26.4846 14.5479 26.534 13.8742C26.5767 13.2466 26.4651 12.1951 25.8869 11.8045C25.8598 11.7889 25.8332 11.7736 25.8056 11.7637C26.0142 11.9794 26.199 12.3144 26.2356 12.7904Z" fill="#007537"/>
<path opacity="0.5" d="M26.8402 17.2402C27.0174 17.4227 27.1861 17.7491 27.2597 18.3354C27.4374 19.7394 26.9214 20.8289 26.7888 22.4097C26.6938 23.5652 26.7437 24.5611 27.1191 25.3531C26.9276 24.4941 26.9224 23.5918 27.0069 22.7138C27.1271 21.4223 27.4184 20.1552 27.55 18.8652C27.6037 18.3668 27.6027 17.8023 27.2454 17.455C27.1333 17.3457 26.9922 17.2735 26.8402 17.2402Z" fill="#007537"/>
<path d="M7 11.3223L7.00665 11.3379C7.01092 11.3484 7.01331 11.3536 7.02281 11.3622C7.53548 12.3096 8.09137 13.2884 8.72187 14.1935C9.89877 15.9334 11.3413 17.4353 13.2888 18.0829L13.2941 18.0805C13.3459 18.1024 13.3957 18.1185 13.4513 18.1333C13.3463 18.1333 13.247 18.1309 13.1444 18.1361C12.3714 18.158 11.6648 18.3129 11.1218 18.9857C10.9921 19.1496 10.907 19.3325 10.8804 19.5221C10.7744 20.0585 11.0358 20.6348 11.5399 20.9328C11.9124 21.1494 12.3519 21.215 12.7809 21.2544C13.4817 21.3114 14.1897 21.31 14.8853 21.2335C14.882 21.2411 14.8767 21.243 14.8715 21.2454L14.8663 21.2478C14.6719 21.5248 14.3902 21.7391 14.1427 21.9761C13.7944 22.2978 13.4295 22.6694 13.41 23.1459C13.4062 23.1659 13.409 23.1892 13.4128 23.2124C13.42 23.6343 13.7293 24.0126 14.1056 24.2093C14.5023 24.4098 14.9618 24.4487 15.4084 24.4563C16.1415 24.4568 16.8414 24.2558 17.5612 24.2249C18.0891 24.2055 18.9876 24.3537 19.4532 24.033C19.343 24.109 19.238 24.1831 19.1296 24.2644C19.122 24.2611 19.122 24.261 19.1192 24.2686C18.7638 24.5133 18.4074 24.7704 18.0544 25.0203C17.595 25.3567 17.3241 26.1212 17.7831 26.4438C17.8268 26.4752 17.881 26.5022 17.9309 26.5184C18.2026 26.6101 18.5319 26.5117 18.8122 26.4148C20.2034 25.9174 21.5994 25.3871 23.0666 25.2707C24.3974 25.1676 25.7235 25.4109 26.9855 25.829C27.549 26.0162 28.1376 26.144 28.7012 26.3317C29.1373 26.479 29.4001 26.6543 29.8942 26.5374C29.9047 26.5331 29.9123 26.536 29.9227 26.5317L29.9279 26.5293C29.9883 26.5108 30.0353 26.4913 30.0795 26.4486C30.1014 26.4272 30.1161 26.4029 30.1232 26.3754C30.1788 26.211 29.9845 26.0072 29.8196 25.8903C29.4842 25.6584 29.1768 25.3904 28.9055 25.0892C28.9055 25.0892 28.9002 25.0916 28.9036 25.084C28.3092 24.4473 27.8526 23.68 27.4843 22.8889C26.9394 21.7267 26.5521 20.4999 26.0176 19.3335C25.8133 18.8816 25.5297 18.4003 25.0502 18.2834C24.8996 18.2468 24.7433 18.2554 24.5965 18.3034C24.3779 18.3561 24.1812 18.4925 24.0358 18.663C23.7973 18.9519 23.6994 19.3434 23.7018 19.724C23.6928 19.6722 23.6819 19.6152 23.6676 19.5653C23.6652 19.5601 23.6652 19.5601 23.6633 19.5549C23.5227 18.8674 23.3711 18.1841 23.2253 17.499C23.087 16.8476 22.9445 16.1852 22.6489 15.5861C22.371 15.0288 21.7481 14.1883 21.0591 14.145C21.0287 14.145 20.9978 14.1455 20.9693 14.1512C20.9693 14.1512 20.967 14.146 20.9617 14.1484C20.6277 14.1745 20.3502 14.4733 20.2167 14.7931C20.0694 15.1247 20.0253 15.4816 19.8908 15.8142L19.8875 15.8218C19.8889 15.8398 19.8775 15.8569 19.8708 15.8717C19.639 14.5133 18.8868 13.2513 17.8083 12.3951C17.5931 12.2312 17.364 12.0787 17.0961 12.0411C17.0885 12.0378 17.0885 12.0378 17.0832 12.0402C16.6171 11.9851 16.18 12.331 15.9724 12.7553C15.7728 13.1696 15.7457 13.6428 15.732 14.1046C15.731 14.1175 15.7324 14.135 15.7315 14.1479C15.7429 13.7858 14.6221 13.0513 14.3517 12.8731C13.8086 12.511 13.2199 12.2478 12.5913 12.0811C11.6715 11.8368 10.7721 11.5964 9.82608 11.4677C9.57806 11.4339 7.91177 11.4411 7.25752 11.3774C7.10928 11.3636 7.00855 11.3432 7 11.3223Z" fill="#009245"/>
<path opacity="0.5" d="M11.5422 20.9341C11.9147 21.1508 12.3542 21.2163 12.7832 21.2558C13.484 21.3128 14.192 21.3114 14.8876 21.2349C14.8842 21.2425 14.879 21.2444 14.8738 21.2467C15.7181 20.9184 16.6104 20.7056 17.5108 20.6191C16.3253 20.2067 15.0586 20.0622 13.8071 20.0898C13.2336 20.1036 12.6554 20.1501 12.0895 20.0622C11.7588 20.0071 11.4267 19.9031 11.1383 19.7263C11.0499 19.6764 10.9668 19.5938 10.8827 19.5234C10.7767 20.0599 11.0381 20.6362 11.5422 20.9341Z" fill="#009245"/>
<path opacity="0.5" d="M14.1078 24.2094C14.504 24.4099 14.964 24.4494 15.4106 24.4565C16.1437 24.457 16.8436 24.256 17.5634 24.2246C18.0913 24.2051 18.9898 24.3534 19.4554 24.0322C19.3452 24.1082 19.2397 24.1823 19.1318 24.2641C20.0027 23.9248 20.8779 23.596 21.8025 23.4934C20.4726 23.0297 19.0705 22.5707 17.6803 22.7845C17.0389 22.8876 16.4283 23.1261 15.7997 23.3048C15.1687 23.4777 14.5012 23.5917 13.8721 23.4254C13.7396 23.3874 13.5756 23.2886 13.415 23.2126C13.4222 23.6345 13.7315 24.0127 14.1078 24.2094Z" fill="#009245"/>
<path opacity="0.5" d="M17.9336 26.5196C18.2054 26.6113 18.5346 26.513 18.815 26.4161C20.2061 25.9186 21.6021 25.3884 23.0693 25.272C24.4006 25.1688 25.7262 25.4121 26.9882 25.8302C27.5517 26.0174 28.1404 26.1452 28.7039 26.3329C29.14 26.4802 29.4033 26.6555 29.8969 26.5387C29.9074 26.5344 29.915 26.5372 29.9254 26.533C29.8665 26.4645 29.7867 26.4051 29.7112 26.3562C29.217 26.0231 28.72 25.6977 28.2226 25.3722C27.8767 25.1446 27.5255 24.9194 27.153 24.7336C25.4221 23.8494 23.2636 23.8428 21.5303 24.7213C20.8376 25.0738 20.2175 25.5437 19.54 25.9333C19.0449 26.2108 18.5033 26.4517 17.9336 26.5196Z" fill="#009245"/>
<path opacity="0.5" d="M8.72168 14.1934C9.89858 15.9333 11.3411 17.4352 13.2886 18.0828L13.2939 18.0804C13.5742 18.0576 13.8431 17.9778 14.1235 17.9555C14.7178 17.9022 15.3032 18.0989 15.8639 18.2937C15.1055 17.3178 13.9918 16.6911 12.8587 16.196C11.7274 15.7062 10.5395 15.3194 9.47477 14.6913C9.21439 14.5393 8.96115 14.3725 8.72168 14.1934Z" fill="#009245"/>
<path opacity="0.3" d="M10.8801 19.523C10.7741 20.0595 11.0355 20.6358 11.5396 20.9337C11.9121 21.1504 12.3516 21.2159 12.7806 21.2554C13.4814 21.3124 14.1894 21.311 14.885 21.2345C14.8816 21.2421 14.8764 21.244 14.8712 21.2463L14.866 21.2487C14.6716 21.5257 14.3899 21.74 14.1423 21.9771C13.7941 22.2988 13.4292 22.6703 13.4097 23.1469C13.4059 23.1668 13.4087 23.1901 13.4125 23.2134C13.4197 23.6353 13.729 24.0135 14.1053 24.2102C14.502 24.4107 14.9615 24.4497 15.4081 24.4573C16.1412 24.4578 16.8411 24.2568 17.5609 24.2259C18.0888 24.2064 18.9873 24.3546 19.4529 24.0339C19.3427 24.11 19.2376 24.1841 19.1293 24.2653C19.1217 24.262 19.1217 24.262 19.1189 24.2696C18.7635 24.5143 18.4071 24.7713 18.0541 25.0213C17.5946 25.3576 17.3238 26.1221 17.7828 26.4447C17.8265 26.4761 17.8807 26.5032 17.9306 26.5193C18.2023 26.611 18.5316 26.5127 18.8119 26.4158C20.2031 25.9183 21.599 25.3881 23.0663 25.2717C24.3971 25.1685 25.7232 25.4118 26.9851 25.8299C27.5486 26.0171 28.1373 26.1449 28.7008 26.3326C29.137 26.4799 29.3998 26.6552 29.8939 26.5384C29.9043 26.5341 29.912 26.5369 29.9224 26.5326L29.9276 26.5303C29.988 26.5117 30.035 26.4923 30.0792 26.4495C30.1011 26.4281 30.1158 26.4039 30.1229 26.3763C29.6121 25.9577 29.0629 25.58 28.5555 25.1543C27.4945 24.2658 26.6321 23.1416 26.0449 21.892C25.8904 21.5613 25.7208 21.1936 25.3749 21.071C24.6499 20.8206 24.9017 21.7029 24.7306 21.9766C24.6294 22.1353 24.4047 22.1724 24.2303 22.1082C24.0583 22.0493 23.9205 21.9091 23.7904 21.7718C23.0002 20.9137 22.3479 19.925 21.867 18.8597C21.7663 18.6303 21.6689 18.3927 21.4769 18.2254C21.2869 18.0634 20.9795 18.0045 20.7885 18.1694C20.5428 18.3813 20.6545 18.7728 20.7229 19.0897C20.7913 19.4066 20.6887 19.8613 20.3628 19.8475C20.2687 19.8433 20.1879 19.7962 20.1071 19.7492C19.5451 19.4009 19.0823 18.8892 18.8024 18.2834C18.3824 17.3963 18.2959 16.2556 17.4835 15.7025C17.415 15.6564 17.3366 15.6151 17.2549 15.6118C17.1067 15.6108 16.9831 15.7296 16.92 15.8602C16.6239 16.4437 17.0492 17.1193 17.1651 17.7612C17.1865 17.8881 17.1742 18.053 17.0516 18.0848C16.9736 18.1048 16.8924 18.0577 16.8297 18.0097C15.5834 17.1051 14.6697 15.7804 13.3489 14.9798C12.6666 14.5641 11.8992 14.3004 11.1609 13.9878C10.1603 13.5611 9.20619 13.0228 8.3177 12.3899C7.88865 12.0796 7.47054 11.7523 7.07286 11.3983C7.05385 11.3817 7.03247 11.3593 7.00586 11.3398C7.52803 12.2958 8.08631 13.2798 8.72108 14.1954C9.89798 15.9353 11.3405 17.4372 13.288 18.0848L13.2933 18.0824C13.3451 18.1043 13.395 18.1204 13.4505 18.1352C13.3455 18.1352 13.2462 18.1328 13.1436 18.138C12.3706 18.1599 11.6641 18.3148 11.121 18.9876C10.9917 19.1505 10.9067 19.3335 10.8801 19.523Z" fill="#009245"/>
<path opacity="0.5" d="M7 11.3223L7.00665 11.3379C7.01092 11.3484 7.01331 11.3536 7.02281 11.3622C7.31691 11.4629 7.70557 11.4943 7.93934 11.509C9.16328 11.5793 10.3839 11.7922 11.5617 12.14C11.8492 12.225 12.1338 12.3177 12.417 12.4231C12.7006 12.5286 12.9776 12.6488 13.2518 12.7762C13.5283 12.9092 13.7906 13.0536 14.0472 13.2133C14.3013 13.3677 14.5441 13.5388 14.7755 13.7269C15.0017 13.9174 15.2193 14.1175 15.4151 14.3389C15.4973 14.4344 15.5818 14.5351 15.6612 14.6382C15.7405 14.7413 15.8346 14.8501 15.8821 14.9661C15.9296 15.082 16.0014 15.1818 16.0954 15.2602C16.0631 15.2117 16.0313 15.1632 16.0147 15.1086C15.9648 14.9874 15.9258 14.862 15.8864 14.7361C15.8655 14.6705 15.8469 14.6107 15.8317 14.5432C15.8023 14.4258 15.7809 14.2994 15.7562 14.1797C15.7505 14.1512 15.7419 14.1303 15.731 14.1037C15.7301 14.1165 15.7315 14.1341 15.7305 14.1469C15.7419 13.7849 14.6211 13.0503 14.3508 12.8721C13.8077 12.5101 13.219 12.2469 12.5904 12.0801C11.6705 11.8359 10.7711 11.5955 9.82513 11.4667C9.57711 11.433 7.91082 11.4401 7.25657 11.3764C7.10928 11.3636 7.00855 11.3432 7 11.3223Z" fill="#009245"/>
<path opacity="0.5" d="M17.663 12.3741C18.3082 12.91 18.7677 13.6389 19.1197 14.4057C19.4091 15.0505 19.63 15.7233 19.773 16.416C19.8857 16.2407 19.8985 16.0316 19.8861 15.8216C19.8875 15.8397 19.8762 15.8568 19.8695 15.8715C19.6376 14.5131 18.8855 13.2512 17.807 12.395C17.5917 12.2311 17.3627 12.0786 17.0947 12.041C17.3047 12.1023 17.4891 12.2363 17.663 12.3741Z" fill="#009245"/>
<path opacity="0.5" d="M21.8492 14.8126C22.4554 15.703 22.6597 16.2599 22.971 17.1978C23.2627 18.0882 23.6129 19.8846 23.6461 20.0557C23.6414 20.0144 23.6556 19.8238 23.667 19.5668C23.6646 19.5616 23.6646 19.5616 23.6627 19.5563C23.5221 18.8688 23.3705 18.1856 23.2247 17.5004C23.0864 16.849 22.9439 16.1867 22.6483 15.5876C22.3704 15.0302 21.7475 14.1897 21.0586 14.1465C21.0281 14.1465 20.9973 14.147 20.9688 14.1527C21.2538 14.232 21.5793 14.4249 21.8492 14.8126Z" fill="#009245"/>
<path opacity="0.5" d="M24.5957 18.3046C24.8385 18.3711 25.1464 18.565 25.5027 19.0282C26.3584 20.1367 26.4644 21.325 27.1443 22.7395C27.6427 23.7729 28.1848 24.5972 28.9023 25.0847C28.3079 24.4481 27.8513 23.6807 27.4831 22.8896C26.9381 21.7275 26.5509 20.5007 26.0163 19.3342C25.812 18.8824 25.5284 18.4011 25.049 18.2842C24.8988 18.2476 24.742 18.2566 24.5957 18.3046Z" fill="#009245"/>
<path d="M45.9133 40.1165L45.9156 40.0994C45.9171 40.088 45.918 40.0823 45.9142 40.07C45.9532 38.9819 45.9698 37.8444 45.8843 36.7331C45.7503 34.6145 45.2628 32.5672 43.8977 31.0059L43.8921 31.0049C43.8578 30.9593 43.8227 30.9194 43.7823 30.8785C43.8735 30.9322 43.9591 30.985 44.0508 31.033C44.7354 31.4097 45.4301 31.6369 46.2478 31.329C46.4449 31.2525 46.6127 31.137 46.7329 30.9855C47.1001 30.5726 47.1676 29.9364 46.8806 29.4189C46.6673 29.0393 46.3181 28.7571 45.9646 28.5029C45.383 28.0943 44.7658 27.7327 44.1206 27.4429C44.1272 27.4381 44.1329 27.4391 44.1387 27.4395L44.1443 27.4405C44.4556 27.2989 44.8105 27.2561 45.1478 27.1763C45.6158 27.0746 46.1242 26.9373 46.3855 26.5325C46.3993 26.5168 46.4083 26.495 46.4174 26.4731C46.6274 26.102 46.5518 25.6141 46.3242 25.2501C46.0815 24.8724 45.7014 24.603 45.316 24.3678C44.6774 23.992 43.9647 23.8086 43.3219 23.467C42.852 23.2137 42.145 22.6246 41.5753 22.6654C41.7102 22.6554 41.84 22.645 41.9759 22.6293C41.9806 22.636 41.9806 22.636 41.9872 22.6312C42.422 22.6003 42.8643 22.5585 43.3 22.5219C43.8726 22.464 44.5002 21.937 44.2655 21.4206C44.2437 21.3712 44.2099 21.3198 44.1752 21.2799C43.9857 21.0609 43.6483 20.9778 43.3542 20.9184C41.8875 20.6395 40.3998 20.3862 39.0619 19.7362C37.8493 19.1442 36.8192 18.2529 35.9336 17.2427C35.5388 16.7909 35.0917 16.378 34.6964 15.9262C34.3918 15.5746 34.2526 15.2871 33.7622 15.1355C33.7508 15.1341 33.7461 15.1275 33.7347 15.1256L33.729 15.1246C33.6672 15.1099 33.6159 15.1028 33.5556 15.1175C33.5256 15.1246 33.5004 15.1384 33.48 15.1588C33.3475 15.2738 33.4125 15.5503 33.4962 15.7371C33.6696 16.1105 33.8003 16.5015 33.8825 16.903C33.8825 16.903 33.8882 16.904 33.8815 16.9087C34.073 17.7678 34.0782 18.67 33.9936 19.5476C33.8734 20.839 33.5822 22.1062 33.4506 23.3962C33.3969 23.8946 33.3978 24.459 33.7551 24.8064C33.8677 24.9156 34.0084 24.9879 34.1609 25.0211C34.3785 25.0872 34.6194 25.0691 34.8337 24.995C35.1895 24.8653 35.4751 24.5745 35.668 24.2414C35.6495 24.2913 35.63 24.3464 35.6167 24.3968C35.6157 24.4025 35.6157 24.4025 35.6153 24.4082C35.3858 25.0791 35.1677 25.7519 34.9439 26.4237C34.7306 27.0623 34.5158 27.7118 34.4664 28.3855C34.4231 29.0132 34.5353 30.0646 35.1135 30.4552C35.1401 30.4709 35.1672 30.4861 35.1948 30.4961C35.1948 30.4961 35.1938 30.5018 35.1995 30.5027C35.5041 30.651 35.8989 30.5326 36.1792 30.3226C36.4771 30.1093 36.6986 29.8209 36.986 29.6004L36.9927 29.5957C37.0007 29.5795 37.0193 29.5705 37.0326 29.5605C36.5384 30.8629 36.548 32.3472 37.0487 33.6457C37.1523 33.899 37.2735 34.1489 37.4878 34.319C37.4925 34.3256 37.4925 34.3256 37.4982 34.3261C37.8759 34.6126 38.4337 34.5352 38.8319 34.2719C39.2177 34.013 39.4838 33.6148 39.7323 33.2195C39.7394 33.2091 39.748 33.1929 39.7551 33.182C39.5598 33.4913 40.1599 34.7053 40.3043 34.9994C40.5918 35.5928 40.97 36.124 41.4323 36.591C42.1084 37.2748 42.7688 37.9452 43.5271 38.5415C43.7258 38.6978 45.1811 39.5449 45.7185 39.936C45.8391 40.0248 45.9166 40.0937 45.9133 40.1165Z" fill="#007537"/>
<path opacity="0.5" d="M46.8785 29.4161C46.6652 29.0365 46.3155 28.7543 45.9624 28.5001C45.3809 28.0915 44.7637 27.7299 44.1184 27.4401C44.1251 27.4353 44.1308 27.4358 44.1365 27.4367C43.2328 27.2904 42.3467 27.0186 41.5176 26.6328C42.3396 27.5992 43.3687 28.3742 44.4729 28.9914C44.9794 29.2731 45.5073 29.5287 45.9548 29.8951C46.2147 30.1122 46.4509 30.3731 46.6115 30.6752C46.6628 30.7641 46.6932 30.8786 46.7307 30.9831C47.098 30.5702 47.1655 29.934 46.8785 29.4161Z" fill="#007537"/>
<path opacity="0.5" d="M46.3224 25.249C46.0796 24.8713 45.6995 24.6019 45.3142 24.3667C44.6756 23.9909 43.9629 23.8075 43.3196 23.4658C42.8497 23.2126 42.1427 22.6234 41.573 22.6643C41.7079 22.6543 41.8376 22.6439 41.9735 22.6282C41.0413 22.4776 40.11 22.316 39.252 21.9316C40.1732 23.0168 41.1596 24.1348 42.4805 24.6603C43.092 24.8988 43.7462 25.0038 44.3853 25.1706C45.0234 25.3431 45.6638 25.5859 46.1261 26.0529C46.2221 26.1537 46.3143 26.3242 46.4155 26.472C46.6255 26.1004 46.5495 25.613 46.3224 25.249Z" fill="#007537"/>
<path opacity="0.5" d="M44.172 21.2789C43.9824 21.0599 43.6451 20.9772 43.351 20.9178C41.8842 20.6389 40.3966 20.3857 39.0586 19.7357C37.8461 19.1437 36.8155 18.2523 35.9304 17.2422C35.5355 16.7903 35.088 16.3774 34.6931 15.9256C34.3886 15.574 34.2493 15.2865 33.759 15.135C33.7476 15.1331 33.7428 15.1269 33.7314 15.125C33.7476 15.2143 33.7866 15.3075 33.8274 15.3887C34.0873 15.9318 34.3534 16.4701 34.62 17.0079C34.8048 17.3833 34.9953 17.7596 35.2243 18.1121C36.2791 19.7689 38.1564 20.8803 40.1163 21.0028C40.9002 21.0508 41.6814 20.9587 42.471 20.9667C43.0459 20.9786 43.6413 21.0461 44.172 21.2789Z" fill="#007537"/>
<path opacity="0.5" d="M45.884 36.734C45.75 34.6154 45.2625 32.568 43.8974 31.0068L43.8917 31.0058C43.6361 30.8823 43.361 30.8138 43.1049 30.6898C42.5599 30.4318 42.1504 29.9605 41.7617 29.5039C41.9223 30.7426 42.5718 31.8587 43.3054 32.8707C44.04 33.877 44.8767 34.8221 45.4825 35.9149C45.6312 36.1805 45.7666 36.4556 45.884 36.734Z" fill="#007537"/>
<path opacity="0.3" d="M46.7333 30.9854C47.1006 30.5726 47.1681 29.9364 46.8811 29.4189C46.6677 29.0393 46.3185 28.7571 45.965 28.5029C45.3835 28.0943 44.7663 27.7327 44.121 27.4429C44.1277 27.4381 44.1334 27.4391 44.1391 27.4395L44.1448 27.4405C44.456 27.2989 44.8109 27.2561 45.1483 27.1763C45.6163 27.0746 46.1247 26.9373 46.386 26.5325C46.3998 26.5168 46.4088 26.495 46.4178 26.4731C46.6278 26.102 46.5523 25.6141 46.3247 25.2501C46.0819 24.8724 45.7018 24.603 45.3165 24.3678C44.6779 23.992 43.9652 23.8086 43.3223 23.467C42.8524 23.2137 42.1454 22.6246 41.5758 22.6654C41.7107 22.6554 41.8404 22.645 41.9763 22.6293C41.981 22.636 41.981 22.636 41.9877 22.6312C42.4224 22.6003 42.8648 22.5585 43.3005 22.5219C43.873 22.464 44.5007 21.937 44.2659 21.4206C44.2441 21.3712 44.2104 21.3198 44.1757 21.2799C43.9861 21.0609 43.6488 20.9778 43.3546 20.9184C41.8879 20.6395 40.4003 20.3862 39.0623 19.7362C37.8498 19.1442 36.8197 18.2529 35.934 17.2427C35.5392 16.7909 35.0921 16.378 34.6968 15.9262C34.3922 15.5746 34.253 15.2871 33.7627 15.1355C33.7513 15.1341 33.7465 15.1275 33.7351 15.1256L33.7294 15.1246C33.6677 15.1099 33.6164 15.1028 33.556 15.1175C33.5261 15.1246 33.5009 15.1384 33.4805 15.1588C33.7109 15.785 33.996 16.3956 34.2203 17.0266C34.6897 18.3441 34.865 19.7652 34.7362 21.154C34.7016 21.5213 34.6607 21.9285 34.8992 22.2126C35.4024 22.8023 35.6352 21.9047 35.9245 21.7541C36.0937 21.6676 36.3089 21.7508 36.4277 21.8957C36.5474 22.0349 36.5954 22.2278 36.6387 22.4146C36.8872 23.5667 36.9494 24.7622 36.8225 25.9362C36.7926 26.188 36.756 26.4446 36.8373 26.6888C36.9195 26.9273 37.1575 27.1359 37.4084 27.0903C37.731 27.0314 37.8341 26.6332 37.9367 26.3225C38.0394 26.0113 38.3615 25.6678 38.6385 25.8469C38.7183 25.8992 38.7649 25.9814 38.811 26.0636C39.1222 26.6546 39.2633 27.3379 39.1968 28.0087C39.1084 28.9965 38.5995 30.0347 39.0238 30.9327C39.0595 31.0078 39.107 31.0843 39.1763 31.1289C39.3051 31.2054 39.4733 31.1655 39.5954 31.0843C40.1523 30.7275 40.128 29.9212 40.3556 29.3025C40.4022 29.1814 40.4972 29.0436 40.6203 29.0787C40.6982 29.1015 40.7448 29.1837 40.7752 29.2579C41.3976 30.6847 41.5149 32.3063 42.2557 33.6799C42.6367 34.3917 43.1703 35.0146 43.6535 35.665C44.3068 36.5492 44.8622 37.5066 45.3117 38.513C45.527 39.0033 45.7232 39.5022 45.8885 40.0144C45.8966 40.0386 45.9042 40.069 45.917 40.0999C45.9517 39 45.9693 37.8563 45.8852 36.7336C45.7512 34.615 45.2637 32.5676 43.8987 31.0064L43.893 31.0054C43.8588 30.9598 43.8236 30.9199 43.7832 30.879C43.8744 30.9327 43.96 30.9854 44.0517 31.0334C44.7363 31.4102 45.431 31.6373 46.2487 31.3294C46.4449 31.2525 46.6126 31.137 46.7333 30.9854Z" fill="#007537"/>
<path opacity="0.5" d="M45.9132 40.1174L45.9155 40.1003C45.917 40.0889 45.9179 40.0832 45.9141 40.0708C45.7098 39.8323 45.3872 39.6062 45.191 39.4731C44.1609 38.7851 43.2063 37.9746 42.3582 37.0685C42.1516 36.8471 41.9511 36.6209 41.7581 36.3838C41.5652 36.1467 41.3852 35.9001 41.2117 35.6488C41.0393 35.3917 40.8844 35.1309 40.7428 34.8606C40.6003 34.5959 40.4762 34.3222 40.3712 34.0395C40.2719 33.7578 40.1845 33.4722 40.1275 33.1791C40.1047 33.0536 40.0828 32.9225 40.0662 32.7923C40.05 32.6621 40.0239 32.5186 40.0415 32.3932C40.0595 32.2678 40.0481 32.1442 40.0063 32.0273C40.0097 32.0858 40.013 32.1447 39.9992 32.2008C39.9802 32.3319 39.9503 32.4616 39.9203 32.5909C39.9047 32.6583 39.8904 32.7206 39.869 32.7871C39.8348 32.9044 39.7887 33.0256 39.7488 33.142C39.7388 33.1696 39.7355 33.1924 39.7317 33.2209C39.7388 33.2104 39.7474 33.1943 39.7545 33.1833C39.5592 33.4926 40.1593 34.7066 40.3038 35.0007C40.5912 35.5942 40.9694 36.1254 41.4317 36.5924C42.1078 37.2761 42.7683 37.9465 43.5266 38.5428C43.7252 38.6991 45.1805 39.5463 45.7179 39.9373C45.839 40.0257 45.9165 40.0946 45.9132 40.1174Z" fill="#007537"/>
<path opacity="0.5" d="M37.1622 33.7393C36.8748 32.942 36.8477 32.0716 36.9337 31.223C37.0116 30.5127 37.1637 29.8133 37.3941 29.1367C37.206 29.2322 37.0881 29.4071 36.9912 29.5966C36.9993 29.5805 37.0178 29.5715 37.0311 29.5615C36.537 30.8638 36.5465 32.3481 37.0473 33.6467C37.1508 33.8999 37.272 34.1498 37.4863 34.3199C37.3352 34.1593 37.243 33.9488 37.1622 33.7393Z" fill="#007537"/>
<path opacity="0.5" d="M34.7647 29.4702C34.693 28.384 34.8004 27.7944 35.0094 26.818C35.2109 25.8929 35.8262 24.1487 35.8851 23.9824C35.868 24.0209 35.7582 24.1796 35.6166 24.3977C35.6157 24.4034 35.6157 24.4034 35.6152 24.4091C35.3857 25.08 35.1676 25.7528 34.9438 26.4246C34.7305 27.0632 34.5157 27.7127 34.4663 28.3864C34.4231 29.0141 34.5352 30.0655 35.1135 30.4561C35.1401 30.4718 35.1671 30.487 35.1947 30.497C34.9866 30.2812 34.8018 29.9467 34.7647 29.4702Z" fill="#007537"/>
<path opacity="0.5" d="M34.1603 25.023C33.9831 24.8406 33.8139 24.5142 33.7407 23.9279C33.563 22.5238 34.079 21.4344 34.2116 19.8536C34.3066 18.6981 34.2567 17.7022 33.8814 16.9102C34.0729 17.7692 34.0781 18.6715 33.9935 19.549C33.8733 20.8404 33.582 22.1076 33.4504 23.3976C33.3967 23.896 33.3977 24.4605 33.755 24.8078C33.8676 24.9171 34.0082 24.9898 34.1603 25.023Z" fill="#007537"/>
<path d="M54.0006 30.9389L53.9939 30.9232C53.9897 30.9127 53.9873 30.9075 53.9778 30.8989C53.4651 29.9515 52.9092 28.9728 52.2787 28.0676C51.1018 26.3277 49.6593 24.8258 47.7117 24.1782L47.7065 24.1806C47.6543 24.1587 47.6044 24.1426 47.5493 24.1283C47.6543 24.1283 47.7536 24.1307 47.8562 24.1255C48.6292 24.1036 49.3357 23.9487 49.8788 23.2759C50.0085 23.112 50.0936 22.9291 50.1202 22.7395C50.2261 22.2031 49.9648 21.6268 49.4607 21.3288C49.0882 21.1122 48.6487 21.0466 48.2197 21.0072C47.5184 20.9502 46.8109 20.9516 46.1153 21.0276C46.1186 21.02 46.1239 21.0181 46.1291 21.0157L46.1343 21.0134C46.3286 20.7364 46.6099 20.5221 46.8575 20.285C47.2057 19.9633 47.5706 19.5918 47.5906 19.1152C47.5949 19.0953 47.5911 19.072 47.5877 19.0487C47.5806 18.6268 47.2713 18.2486 46.895 18.0519C46.4983 17.8514 46.0388 17.8124 45.5922 17.8048C44.8591 17.8043 44.1592 18.0053 43.4394 18.0362C42.9115 18.0561 42.013 17.9074 41.5474 18.2281C41.6576 18.1521 41.7631 18.078 41.8709 17.9967C41.8786 17.9996 41.8786 17.9996 41.8814 17.9925C42.2368 17.7478 42.5932 17.4907 42.9462 17.2408C43.4056 16.9044 43.6765 16.1399 43.2175 15.8173C43.1738 15.786 43.1196 15.7589 43.0697 15.7427C42.7979 15.651 42.4687 15.7494 42.1883 15.8463C40.7972 16.3438 39.4012 16.874 37.934 16.9904C36.6027 17.0935 35.2771 16.8503 34.0151 16.4321C33.4516 16.2449 32.8629 16.1171 32.2994 15.9295C31.8633 15.7822 31.6 15.6068 31.1059 15.7237C31.0954 15.728 31.0878 15.7251 31.0774 15.7294L31.0722 15.7318C31.0123 15.7503 30.9648 15.7698 30.9206 15.8126C30.8987 15.8339 30.884 15.8582 30.8769 15.8857C30.8213 16.0501 31.0156 16.2535 31.181 16.3708C31.5164 16.6027 31.8238 16.8707 32.0951 17.1719C32.0951 17.1719 32.1003 17.17 32.097 17.1771C32.6914 17.8138 33.148 18.5812 33.5162 19.3723C34.0612 20.5344 34.4485 21.7612 34.983 22.9277C35.1873 23.3795 35.4709 23.8608 35.9503 23.9777C36.101 24.0143 36.2578 24.0057 36.4041 23.9577C36.6227 23.905 36.8194 23.7686 36.9647 23.5981C37.2033 23.3092 37.3011 22.9177 37.2988 22.5371C37.3078 22.5889 37.3187 22.6459 37.333 22.6958C37.3349 22.701 37.3349 22.701 37.3372 22.7063C37.4779 23.3938 37.6295 24.077 37.7753 24.7621C37.9136 25.4136 38.0561 26.0759 38.3517 26.675C38.6296 27.2324 39.2525 28.0729 39.9414 28.1161C39.9718 28.1156 40.0027 28.1156 40.0313 28.1099C40.0313 28.1099 40.0331 28.1151 40.0388 28.1128C40.3729 28.0866 40.6508 27.7878 40.7839 27.468C40.9311 27.1364 40.9753 26.7796 41.1098 26.447L41.1131 26.4394C41.1117 26.4213 41.1231 26.4042 41.1297 26.3895C41.3616 27.7479 42.1137 29.0098 43.1928 29.866C43.408 30.0299 43.637 30.1824 43.905 30.2205C43.9126 30.2233 43.9126 30.2233 43.9178 30.2214C44.3839 30.2765 44.8206 29.9306 45.0287 29.5063C45.2278 29.092 45.2553 28.6188 45.2691 28.157C45.27 28.1441 45.2686 28.1266 45.2696 28.1137C45.2582 28.4758 46.379 29.2103 46.6494 29.3885C47.1924 29.7506 47.7811 30.0138 48.4102 30.1805C49.33 30.4248 50.2295 30.6652 51.1755 30.7939C51.4235 30.8277 53.0898 30.8205 53.744 30.8842C53.8908 30.8975 53.992 30.9179 54.0006 30.9389Z" fill="#009245"/>
<path opacity="0.5" d="M49.4579 21.3285C49.0854 21.1118 48.6459 21.0462 48.2168 21.0068C47.516 20.9498 46.808 20.9512 46.1125 21.0272C46.1158 21.0196 46.121 21.0177 46.1262 21.0154C45.2819 21.3437 44.3896 21.5565 43.4893 21.643C44.6752 22.0554 45.9419 22.1999 47.1934 22.1723C47.7669 22.1585 48.3451 22.112 48.911 22.1999C49.2417 22.255 49.5738 22.3586 49.8622 22.5358C49.9506 22.5857 50.0337 22.6688 50.1183 22.7387C50.2238 22.2027 49.9625 21.6264 49.4579 21.3285Z" fill="#009245"/>
<path opacity="0.5" d="M46.892 18.0518C46.4957 17.8512 46.0358 17.8123 45.5892 17.8047C44.8561 17.8042 44.1562 18.0052 43.4364 18.0366C42.9085 18.0565 42.01 17.9078 41.5444 18.229C41.6546 18.153 41.7601 18.0788 41.868 17.9976C40.9971 18.3368 40.1219 18.6656 39.1973 18.7683C40.5272 19.232 41.9293 19.691 43.3195 19.4767C43.9609 19.3736 44.571 19.1351 45.2001 18.9564C45.8311 18.7835 46.4986 18.6694 47.1277 18.8357C47.2602 18.8737 47.4242 18.9726 47.5848 19.0486C47.5776 18.6262 47.2688 18.248 46.892 18.0518Z" fill="#009245"/>
<path opacity="0.5" d="M43.0665 15.7427C42.7948 15.651 42.4655 15.7494 42.1852 15.8463C40.7945 16.3438 39.398 16.874 37.9308 16.9904C36.5995 17.0935 35.2739 16.8503 34.012 16.4321C33.4485 16.2449 32.8598 16.1171 32.2963 15.9295C31.8601 15.7822 31.5969 15.6068 31.1027 15.7237C31.0923 15.728 31.0847 15.7251 31.0742 15.7294C31.1331 15.7978 31.213 15.8572 31.2885 15.9062C31.7826 16.2392 32.2796 16.5647 32.7766 16.8902C33.1225 17.1178 33.4736 17.343 33.8461 17.5287C35.577 18.413 37.7356 18.4196 39.4688 17.5411C40.1616 17.1885 40.7816 16.7186 41.4596 16.329C41.9557 16.0516 42.4969 15.8102 43.0665 15.7427Z" fill="#009245"/>
<path opacity="0.5" d="M52.2789 28.0672C51.102 26.3272 49.6595 24.8254 47.7119 24.1778L47.7067 24.1801C47.4264 24.2029 47.1575 24.2828 46.8771 24.3051C46.2832 24.3583 45.6969 24.1616 45.1367 23.9668C45.895 24.9427 47.0087 25.5694 48.1419 26.0645C49.2732 26.5544 50.461 26.9411 51.5258 27.5692C51.7857 27.7218 52.0389 27.8885 52.2789 28.0672Z" fill="#009245"/>
<path opacity="0.3" d="M50.1202 22.7395C50.2262 22.2031 49.9649 21.6268 49.4608 21.3288C49.0883 21.1122 48.6488 21.0466 48.2197 21.0072C47.5184 20.9502 46.811 20.9516 46.1154 21.0276C46.1187 21.02 46.1239 21.0181 46.1291 21.0157L46.1344 21.0134C46.3287 20.7364 46.61 20.5221 46.8575 20.285C47.2058 19.9633 47.5707 19.5918 47.5906 19.1152C47.5949 19.0953 47.5911 19.072 47.5878 19.0487C47.5807 18.6268 47.2714 18.2486 46.8951 18.0519C46.4983 17.8514 46.0389 17.8124 45.5922 17.8048C44.8591 17.8043 44.1592 18.0053 43.4394 18.0362C42.9116 18.0561 42.0131 17.9074 41.5475 18.2281C41.6577 18.1521 41.7632 18.078 41.871 17.9968C41.8786 17.9996 41.8786 17.9996 41.8815 17.9925C42.2369 17.7478 42.5932 17.4907 42.9462 17.2408C43.4057 16.9044 43.6765 16.1399 43.2175 15.8173C43.1738 15.786 43.1197 15.7589 43.0698 15.7427C42.798 15.651 42.4687 15.7494 42.1884 15.8463C40.7972 16.3438 39.4013 16.874 37.9341 16.9904C36.6028 17.0935 35.2771 16.8503 34.0152 16.4321C33.4517 16.2449 32.863 16.1171 32.2995 15.9295C31.8633 15.7822 31.6001 15.6068 31.106 15.7237C31.0955 15.728 31.0879 15.7251 31.0775 15.7294L31.0722 15.7318C31.0124 15.7503 30.9649 15.7698 30.9207 15.8126C30.8988 15.834 30.8841 15.8582 30.877 15.8857C31.3877 16.3043 31.937 16.6821 32.4449 17.1083C33.5059 17.9967 34.3682 19.1209 34.955 20.3705C35.1094 20.7012 35.279 21.069 35.6249 21.1915C36.35 21.4419 36.0982 20.5596 36.2692 20.2859C36.3704 20.1272 36.5952 20.0902 36.7695 20.1543C36.9415 20.2128 37.0793 20.3534 37.2095 20.4907C37.9996 21.3488 38.652 22.3376 39.1328 23.4028C39.2336 23.6323 39.331 23.8699 39.5229 24.0371C39.713 24.1991 40.0204 24.2576 40.2109 24.0932C40.4566 23.8813 40.3449 23.4897 40.2765 23.1733C40.2081 22.8564 40.3107 22.4017 40.6366 22.4155C40.7307 22.4198 40.812 22.4668 40.8927 22.5138C41.4548 22.8621 41.9176 23.3738 42.1974 23.9796C42.6175 24.8667 42.7039 26.0075 43.5164 26.5605C43.5843 26.6066 43.6632 26.6479 43.7449 26.6513C43.8932 26.6522 44.0167 26.5334 44.0799 26.4028C44.3759 25.8188 43.9507 25.1437 43.8347 24.5013C43.8134 24.3744 43.8257 24.2096 43.9483 24.1777C44.0262 24.1578 44.1075 24.2048 44.1702 24.2528C45.4165 25.1575 46.3301 26.4821 47.651 27.2827C48.3333 27.6985 49.1006 27.9622 49.839 28.2748C50.8396 28.7015 51.7937 29.2393 52.6822 29.8727C53.1117 30.1829 53.5293 30.5103 53.927 30.8643C53.946 30.8809 53.9674 30.9032 53.9945 30.9227C53.4723 29.9667 52.914 28.9827 52.2792 28.0672C51.1023 26.3272 49.6599 24.8253 47.7123 24.1777L47.7071 24.1801C47.6548 24.1583 47.6049 24.1421 47.5498 24.1278C47.6548 24.1278 47.7541 24.1302 47.8567 24.125C48.6298 24.1031 49.3363 23.9482 49.8794 23.2755C50.0086 23.112 50.0936 22.9291 50.1202 22.7395Z" fill="#009245"/>
<path opacity="0.5" d="M54.0007 30.9398L53.9941 30.9242C53.9898 30.9137 53.9874 30.9085 53.9779 30.8999C53.6838 30.7992 53.2951 30.7678 53.0614 30.7531C51.8374 30.6828 50.6168 30.4699 49.439 30.1221C49.1515 30.0371 48.8669 29.9444 48.5837 29.839C48.3001 29.7335 48.0231 29.6133 47.7489 29.4859C47.4724 29.3529 47.2097 29.2085 46.9536 29.0488C46.6994 28.8944 46.4566 28.7233 46.2252 28.5352C45.999 28.3447 45.7814 28.1446 45.5857 27.9232C45.5035 27.8277 45.4189 27.727 45.3395 27.6239C45.2602 27.5208 45.1661 27.412 45.1186 27.2961C45.0711 27.1801 44.9993 27.0803 44.9053 27.002C44.9376 27.0504 44.9694 27.0989 44.986 27.1535C45.0359 27.2747 45.0749 27.4001 45.1143 27.526C45.1352 27.5916 45.1538 27.6515 45.169 27.7189C45.1984 27.8363 45.2198 27.9631 45.2445 28.0824C45.2502 28.1109 45.2588 28.1318 45.2697 28.1584C45.2706 28.1456 45.2692 28.128 45.2702 28.1152C45.2588 28.4772 46.3796 29.2118 46.65 29.39C47.193 29.752 47.7817 30.0152 48.4108 30.182C49.3306 30.4262 50.2301 30.6666 51.1761 30.7954C51.4241 30.8291 53.0904 30.822 53.7446 30.8857C53.891 30.8985 53.9922 30.9189 54.0007 30.9398Z" fill="#009245"/>
<path opacity="0.5" d="M43.3368 29.8881C42.6916 29.3526 42.2321 28.6233 41.88 27.8565C41.5902 27.2117 41.3693 26.5389 41.2263 25.8457C41.1137 26.0215 41.1008 26.2301 41.1132 26.4401C41.1118 26.422 41.1232 26.4049 41.1298 26.3902C41.3617 27.7486 42.1138 29.0106 43.1928 29.8667C43.4081 30.0307 43.6371 30.1832 43.9051 30.2212C43.6946 30.1599 43.5102 30.0264 43.3368 29.8881Z" fill="#009245"/>
<path opacity="0.5" d="M39.1504 27.4501C38.5441 26.5597 38.3403 26.0029 38.0291 25.0649C37.7369 24.1745 37.3872 22.3781 37.3539 22.207C37.3587 22.2484 37.3444 22.4389 37.333 22.6959C37.3349 22.7012 37.3349 22.7012 37.3373 22.7064C37.4779 23.3939 37.6295 24.0771 37.7754 24.7623C37.9136 25.4137 38.0561 26.076 38.3517 26.6752C38.6296 27.2325 39.2525 28.073 39.9415 28.1162C39.9719 28.1158 40.0028 28.1158 40.0313 28.1101C39.7462 28.0307 39.4207 27.8378 39.1504 27.4501Z" fill="#009245"/>
<path opacity="0.5" d="M36.4042 23.9579C36.1615 23.8913 35.8536 23.6975 35.4972 23.2342C34.6415 22.1258 34.5351 20.9374 33.8556 19.523C33.3572 18.4896 32.8151 17.6652 32.0977 17.1777C32.692 17.8144 33.1486 18.5817 33.5169 19.3728C34.0618 20.535 34.4491 21.7618 34.9836 22.9282C35.1879 23.3801 35.4716 23.8614 35.951 23.9783C36.1011 24.0144 36.2574 24.0054 36.4042 23.9579Z" fill="#009245"/>
<path d="M31.5441 26.3744L27.1748 30.7437L20.9805 24.5494L25.3498 20.1801C25.614 19.9159 26.1109 19.9287 26.7272 20.1611C27.5477 20.4723 28.5854 21.1831 29.5632 22.1609C29.7989 22.3966 30.0222 22.6389 30.2237 22.8779C31.4908 24.3712 32.0757 25.8427 31.5441 26.3744Z" fill="#6D8EA6"/>
<path opacity="0.5" d="M31.5444 26.3754L27.175 30.7447L24.7666 28.3363L30.224 22.8789C31.4911 24.3722 32.076 25.8437 31.5444 26.3754Z" fill="#6D8EA6"/>
<path opacity="0.7" d="M26.7272 20.1613L21.6599 25.2286L20.9805 24.5492L25.3498 20.1798C25.614 19.9161 26.1105 19.9285 26.7272 20.1613Z" fill="#6D8EA6"/>
<path opacity="0.5" d="M29.1926 28.7266L27.1748 30.7445L20.9805 24.5502L22.9955 22.5352C24.0802 23.0664 25.3351 23.9881 26.5362 25.1888C26.7719 25.4244 26.9952 25.6606 27.2061 25.8962C28.0761 26.8679 28.7617 27.8552 29.1926 28.7266Z" fill="#6D8EA6"/>
<path d="M25.9077 25.8154C23.4066 23.3143 20.6484 22.0177 19.7466 22.9195L9.99219 32.6739L19.0491 41.7309L28.8036 31.9764C29.7049 31.0751 28.4083 28.3165 25.9077 25.8154Z" fill="#CA7300"/>
<path opacity="0.5" d="M25.9483 27.1532C25.7378 26.9175 25.5145 26.6814 25.2784 26.4457C23.7594 24.9272 22.1496 23.8515 20.911 23.449C20.1123 23.1787 19.4708 23.1972 19.1188 23.5498L17.7822 24.8863C18.1343 24.5342 18.7757 24.5152 19.5744 24.7856C20.8131 25.188 22.4233 26.2632 23.9418 27.7822C24.1775 28.0179 24.4008 28.254 24.6118 28.4897C26.6653 30.7817 27.6555 33.1246 26.8382 33.9418L28.1748 32.6053C28.992 31.7881 28.0014 29.4452 25.9483 27.1532Z" fill="#CA7300"/>
<path d="M26.5772 26.5243C26.3667 26.2886 26.1434 26.0525 25.9073 25.8168C24.3883 24.2978 22.7785 23.2226 21.5399 22.8201C20.7412 22.5498 20.0998 22.5683 19.7477 22.9209L18.4111 24.2574C18.7632 23.9053 19.4046 23.8863 20.2033 24.1567C21.442 24.5591 23.0522 25.6343 24.5707 27.1533C24.8064 27.389 25.0297 27.6251 25.2407 27.8608C27.2942 30.1528 28.2844 32.4957 27.4671 33.3129L28.8037 31.9764C29.6209 31.1592 28.6307 28.8168 26.5772 26.5243Z" fill="#FFB612"/>
<path opacity="0.3" d="M27.0885 27.127L15.7676 38.4479L19.0503 41.7306L28.8038 31.9776C29.5497 31.2316 28.7871 29.2156 27.0885 27.127Z" fill="#CA7300"/>
<path opacity="0.5" d="M21.5389 22.8203L10.8389 33.5198L9.99316 32.6741L19.7462 22.9211C20.0987 22.5685 20.7402 22.5495 21.5389 22.8203Z" fill="#CA7300"/>
<path d="M19.0485 41.7323C18.1467 42.6341 15.3886 41.3375 12.8875 38.8364C10.3864 36.3353 9.09024 33.5771 9.99156 32.6753C10.8934 31.7735 13.6515 33.0702 16.1526 35.5713C18.6537 38.0724 19.9503 40.8305 19.0485 41.7323Z" fill="#E89B3F"/>
<path opacity="0.3" d="M17.3112 36.8528C17.3302 37.2443 17.2437 37.5626 17.0313 37.7755C16.1295 38.6773 13.3714 37.3807 10.8703 34.8796C10.4469 34.4562 10.0616 34.0257 9.71191 33.5977C9.77273 34.8658 10.9767 36.9245 12.8882 38.836C15.3893 41.3371 18.1474 42.6337 19.0492 41.7319C19.798 40.9831 19.0264 38.9529 17.3112 36.8528Z" fill="#CA7300"/>
<path d="M49.1663 9.23276L44.2141 3.72266L41.3414 6.5953C38.4022 6.93787 35.3139 8.40793 32.7767 10.9447C30.2395 13.4814 28.7694 16.5702 28.4273 19.5094L25.5547 22.382L31.0648 27.3343C35.0654 30.9301 42.0703 29.8378 46.87 25.038C51.6698 20.2387 52.7621 13.2334 49.1663 9.23276Z" fill="#6D8EA6"/>
<path opacity="0.8" d="M51.2769 15.7441C50.4183 17.456 49.2471 19.1009 47.7785 20.5701C42.1278 26.2208 33.8809 27.5065 29.1704 23.2731L26.7967 21.1397L25.5547 22.3822L31.0648 27.3345C35.0654 30.9303 42.0703 29.838 46.87 25.0382C49.5783 22.3304 51.1054 18.9204 51.2769 15.7441Z" fill="#ADC8DB"/>
<path d="M43.328 21.497C48.5426 16.2824 48.9522 8.23743 44.2429 3.52806C39.5335 -1.1813 31.4885 -0.77172 26.2739 4.44289C21.0593 9.65749 20.6497 17.7025 25.3591 22.4118C30.0685 27.1212 38.1134 26.7116 43.328 21.497Z" fill="#ADC8DB"/>
<path opacity="0.5" d="M26.953 5.11992C32.0416 0.0312665 39.8243 -0.479022 44.5737 3.87556C44.4659 3.7582 44.3575 3.64084 44.244 3.52681C39.5345 -1.18269 31.4895 -0.773128 26.2745 4.44191C21.0599 9.65648 20.6504 17.7019 25.3599 22.4114C25.4734 22.5249 25.5908 22.6333 25.7086 22.7411C21.354 17.9908 21.8643 10.2086 26.953 5.11992Z" fill="#ADC8DB"/>
<path opacity="0.8" d="M45.4522 4.96289C45.7021 8.67082 44.2966 12.6201 41.2886 15.6282C36.074 20.8427 28.0286 21.2523 23.3191 16.5428C22.8696 16.0933 22.4677 15.613 22.1113 15.1084C22.2947 17.829 23.3671 20.4199 25.3603 22.4126C30.0698 27.1221 38.1147 26.7125 43.3298 21.4979C48.0464 16.7804 48.8308 9.74794 45.4522 4.96289Z" fill="#ADC8DB"/>
<path d="M39.906 18.0754C43.8374 14.144 44.4426 8.37507 41.2576 5.19013C38.0727 2.00519 32.3038 2.61031 28.3723 6.54171C24.4409 10.4731 23.8358 16.2421 27.0208 19.427C30.2057 22.6119 35.9746 22.0068 39.906 18.0754Z" fill="#CEEDFC"/>
<path d="M29.5254 7.69305C33.2167 4.00176 38.5277 3.24345 41.799 5.80108C41.6327 5.58822 41.4526 5.38392 41.2583 5.18959C38.0735 2.00478 32.3045 2.60962 28.3732 6.54134C24.442 10.4726 23.8367 16.2416 27.0215 19.4264C27.2158 19.6208 27.4206 19.8008 27.633 19.9671C25.0753 16.6954 25.8341 11.3844 29.5254 7.69305Z" fill="#CEEDFC"/>
<path d="M35.9841 11.129C33.7496 11.5899 31.6785 10.7052 31.3583 9.15249C31.038 7.59976 32.5898 5.96768 34.8244 5.5068C37.0589 5.04593 39.13 5.93062 39.4502 7.48335C39.771 9.0356 38.2187 10.6682 35.9841 11.129Z" fill="#CEEDFC"/>
</g>
<defs>
<clipPath id="clip0_577_125">
<rect width="60" height="42" fill="white"/>
</clipPath>
</defs>
</svg>
