<svg width="60" height="43" viewBox="0 0 60 43" fill="none" xmlns="http://www.w3.org/2000/svg">
<path d="M9.26608 6.86719L9.26344 6.88695C9.26168 6.90012 9.2608 6.90671 9.26519 6.92077C9.22083 8.16737 9.2015 9.47065 9.29946 10.7445C9.45276 13.1722 10.0115 15.5179 11.5752 17.307L11.5818 17.3078C11.6209 17.3601 11.6613 17.4058 11.7079 17.4523C11.6033 17.3908 11.5054 17.3302 11.4 17.2753C10.6155 16.8435 9.81909 16.5831 8.8826 16.9362C8.65682 17.0241 8.46443 17.1563 8.32651 17.3302C7.9057 17.8033 7.82839 18.532 8.15695 19.1255C8.40161 19.5603 8.80178 19.8841 9.20677 20.1748C9.87312 20.6431 10.5803 21.0573 11.3196 21.3894C11.3121 21.3951 11.3055 21.3938 11.2989 21.3929L11.2923 21.392C10.9361 21.5545 10.5289 21.6029 10.1428 21.6947C9.6065 21.8115 9.02448 21.9683 8.7249 22.4322C8.70909 22.4497 8.699 22.4752 8.68846 22.5003C8.44774 22.9259 8.53471 23.4846 8.79519 23.9015C9.07324 24.3342 9.50898 24.6429 9.95043 24.9127C10.6818 25.3436 11.4984 25.5531 12.2354 25.9449C12.774 26.2348 13.5839 26.9104 14.2371 26.8634C14.0821 26.8744 13.934 26.8867 13.7781 26.9047C13.7724 26.8972 13.7724 26.8972 13.7649 26.9029C13.2668 26.9385 12.7599 26.9864 12.2609 27.0281C11.6051 27.0944 10.8856 27.6984 11.1544 28.2896C11.1795 28.3467 11.2177 28.4052 11.2581 28.4508C11.4755 28.7017 11.8621 28.797 12.199 28.8651C13.8796 29.1848 15.5843 29.4748 17.1173 30.2197C18.5067 30.8979 19.6874 31.9192 20.7016 33.0771C21.1541 33.5949 21.6667 34.068 22.1191 34.5855C22.4679 34.9883 22.6278 35.3177 23.1896 35.4912C23.2028 35.493 23.2085 35.5004 23.2212 35.5022L23.2278 35.5031C23.2985 35.5198 23.3574 35.5281 23.4263 35.5114C23.461 35.5031 23.49 35.4873 23.5129 35.464C23.6648 35.3326 23.5902 35.0151 23.494 34.8016C23.295 34.3733 23.1456 33.9257 23.0516 33.4654C23.0516 33.4654 23.0451 33.4645 23.0525 33.4588C22.8329 32.4744 22.8272 31.4409 22.9243 30.435C23.0622 28.9551 23.396 27.5034 23.5467 26.0253C23.6082 25.4542 23.6073 24.8077 23.1975 24.4093C23.0688 24.2841 22.9071 24.2011 22.7327 24.1628C22.4832 24.0873 22.2074 24.1079 21.9618 24.1927C21.5542 24.3412 21.2265 24.6741 21.0056 25.0558C21.0271 24.9987 21.0495 24.9355 21.0645 24.8775C21.0653 24.8709 21.0653 24.8709 21.0662 24.8643C21.3293 24.0956 21.5788 23.3247 21.8353 22.5552C22.0796 21.8238 22.326 21.0788 22.3827 20.3075C22.4319 19.588 22.3036 18.3836 21.6412 17.936C21.6104 17.9184 21.5797 17.9004 21.5476 17.8894C21.5476 17.8894 21.5485 17.8828 21.5419 17.8819C21.1932 17.7124 20.7403 17.8477 20.4196 18.0884C20.0783 18.333 19.8244 18.6634 19.495 18.9164L19.4875 18.9221C19.4783 18.9405 19.4568 18.9511 19.4418 18.9621C20.008 17.4699 19.9971 15.7691 19.423 14.2809C19.3044 13.991 19.1656 13.7042 18.92 13.5096C18.9143 13.5021 18.9143 13.5021 18.9077 13.5013C18.4746 13.1727 17.8355 13.2614 17.3795 13.5632C16.9372 13.8601 16.6324 14.3165 16.3477 14.7689C16.3394 14.7808 16.3302 14.7997 16.3218 14.812C16.5458 14.4575 15.858 13.0664 15.6928 12.7295C15.3634 12.0495 14.9303 11.4411 14.4001 10.9057C13.6257 10.1221 12.8684 9.35424 11.9996 8.67076C11.772 8.49155 10.1046 7.52079 9.48877 7.07275C9.35085 6.9726 9.26212 6.89354 9.26608 6.86719Z" fill="#007537"/>
<path opacity="0.5" d="M8.1597 19.1277C8.40436 19.5626 8.80453 19.8863 9.20952 20.1771C9.87587 20.6453 10.5831 21.0595 11.3223 21.3916C11.3149 21.3973 11.3083 21.3965 11.3017 21.3951C12.3374 21.5629 13.3526 21.8744 14.3027 22.3162C13.3609 21.2089 12.1815 20.3207 10.916 19.6139C10.3358 19.2911 9.73091 18.9986 9.21786 18.5786C8.92005 18.3296 8.64947 18.0309 8.46542 17.6847C8.40656 17.5828 8.37229 17.4515 8.32924 17.332C7.90844 17.8055 7.83157 18.5343 8.1597 19.1277Z" fill="#007537"/>
<path opacity="0.5" d="M8.79801 23.9036C9.07606 24.3363 9.5118 24.6451 9.95325 24.9148C10.6846 25.3457 11.5012 25.5556 12.2387 25.947C12.7772 26.2374 13.5872 26.9125 14.2404 26.8655C14.0853 26.8769 13.9373 26.8888 13.7814 26.9068C14.8496 27.079 15.9161 27.2648 16.8996 27.7049C15.8441 26.4614 14.7139 25.1805 13.2002 24.5783C12.4996 24.3051 11.7502 24.1847 11.0176 23.9937C10.2862 23.796 9.55264 23.5179 9.02246 22.9825C8.91265 22.867 8.80679 22.6719 8.69127 22.502C8.45055 22.928 8.53753 23.4868 8.79801 23.9036Z" fill="#007537"/>
<path opacity="0.5" d="M11.2607 28.4531C11.4782 28.7039 11.8647 28.7993 12.2016 28.8674C13.8822 29.1871 15.587 29.477 17.12 30.222C18.5093 30.9002 19.69 31.9215 20.7043 33.0794C21.1567 33.5972 21.6693 34.0703 22.1222 34.5878C22.471 34.9906 22.6309 35.32 23.1927 35.4935C23.2058 35.4953 23.2115 35.5027 23.2243 35.5045C23.2054 35.4017 23.161 35.2954 23.114 35.2023C22.8162 34.5799 22.5109 33.9636 22.2056 33.3469C21.9939 32.9168 21.7752 32.4859 21.5129 32.0818C20.3041 30.1834 18.1535 28.91 15.9076 28.7698C15.0089 28.7149 14.1141 28.8208 13.2093 28.8116C12.5513 28.7971 11.8691 28.7198 11.2607 28.4531Z" fill="#007537"/>
<path opacity="0.5" d="M9.2998 10.7441C9.4531 13.1719 10.0118 15.5175 11.5756 17.3066L11.5822 17.3075C11.8751 17.4494 12.1905 17.5275 12.4835 17.6694C13.1077 17.965 13.5773 18.5053 14.0222 19.0285C13.8382 17.6092 13.0941 16.3301 12.2534 15.1705C11.4117 14.0175 10.4533 12.9343 9.75883 11.6824C9.58928 11.3784 9.43422 11.0635 9.2998 10.7441Z" fill="#007537"/>
<path opacity="0.3" d="M8.32651 17.3289C7.9057 17.802 7.82839 18.5307 8.15695 19.1242C8.40161 19.559 8.80178 19.8827 9.20677 20.1735C9.87312 20.6418 10.5803 21.056 11.3196 21.3881C11.3121 21.3938 11.3055 21.3925 11.2989 21.3916L11.2923 21.3907C10.9361 21.5532 10.5289 21.6015 10.1428 21.6934C9.6065 21.8102 9.02448 21.967 8.7249 22.4309C8.70909 22.4484 8.699 22.4739 8.68846 22.499C8.44775 22.9246 8.53471 23.4833 8.79519 23.9002C9.07324 24.3328 9.50898 24.6416 9.95043 24.9113C10.6818 25.3423 11.4984 25.5518 12.2354 25.9436C12.774 26.2335 13.5839 26.9091 14.2371 26.8621C14.0821 26.8731 13.934 26.8854 13.7781 26.9034C13.7724 26.8959 13.7724 26.8959 13.7649 26.9016C13.2668 26.9372 12.7599 26.9851 12.2609 27.0268C11.6051 27.0931 10.8856 27.6971 11.1544 28.2883C11.1795 28.3454 11.2177 28.4039 11.2581 28.4495C11.4755 28.7003 11.8621 28.7957 12.199 28.8637C13.8796 29.1835 15.5843 29.4734 17.1173 30.2184C18.5067 30.8966 19.6874 31.9179 20.7016 33.0758C21.1541 33.5937 21.6667 34.0667 22.1191 34.5842C22.4679 34.987 22.6278 35.3164 23.1896 35.4899C23.2028 35.4917 23.2085 35.4991 23.2212 35.5009L23.2278 35.5018C23.2985 35.5185 23.3574 35.5268 23.4263 35.5101C23.461 35.5018 23.49 35.486 23.5129 35.4627C23.2489 34.7454 22.9221 34.0452 22.6651 33.3226C22.1275 31.8129 21.9263 30.185 22.0734 28.5932C22.1134 28.1724 22.16 27.7059 21.8863 27.3804C21.3096 26.7048 21.0429 27.7331 20.7117 27.9062C20.5176 28.005 20.2712 27.9101 20.135 27.7441C19.9975 27.5846 19.9426 27.3637 19.893 27.1498C19.6083 25.8294 19.5367 24.4598 19.6821 23.1143C19.7164 22.8258 19.7585 22.5319 19.665 22.2521C19.5705 21.9789 19.2982 21.7399 19.0109 21.7922C18.6415 21.8594 18.5229 22.3158 18.4056 22.672C18.2879 23.0283 17.9185 23.4223 17.6014 23.2171C17.51 23.1574 17.4569 23.0634 17.4037 22.969C17.047 22.2916 16.8854 21.5089 16.9618 20.7397C17.0633 19.6082 17.6462 18.4183 17.1599 17.3891C17.1186 17.3034 17.0646 17.2156 16.9855 17.1642C16.8384 17.0764 16.6451 17.1225 16.505 17.2156C15.8667 17.6245 15.8949 18.5483 15.6339 19.2572C15.5808 19.3961 15.4714 19.5542 15.3309 19.5138C15.2412 19.4879 15.1881 19.3934 15.1534 19.3086C14.4405 17.6742 14.3056 15.8152 13.457 14.2414C13.0199 13.4261 12.4089 12.7124 11.8555 11.9669C11.107 10.954 10.4705 9.85676 9.95527 8.70327C9.70885 8.14147 9.48395 7.56956 9.29419 6.98272C9.28496 6.9546 9.27617 6.92035 9.26124 6.88477C9.22127 8.14543 9.20106 9.45529 9.2977 10.7419C9.451 13.1696 10.0097 15.5152 11.5735 17.3043L11.5801 17.3052C11.6192 17.3575 11.6596 17.4032 11.7061 17.4497C11.6016 17.3882 11.5036 17.3276 11.3982 17.2727C10.6137 16.8409 9.81734 16.5804 8.88085 16.9336C8.65683 17.0228 8.46487 17.1554 8.32651 17.3289Z" fill="#007537"/>
<path opacity="0.5" d="M9.2658 6.86719L9.26316 6.88695C9.2614 6.90012 9.26052 6.90671 9.26491 6.92077C9.49904 7.19398 9.86889 7.45359 10.0938 7.60557C11.2745 8.3936 12.3678 9.32305 13.3394 10.361C13.5766 10.6149 13.8059 10.8741 14.0273 11.1455C14.2487 11.417 14.4547 11.6999 14.6537 11.988C14.8514 12.2828 15.0288 12.5814 15.1913 12.8911C15.3547 13.1942 15.4966 13.5078 15.617 13.8316C15.7307 14.1544 15.8309 14.4817 15.8964 14.8177C15.9223 14.9613 15.9477 15.1115 15.9662 15.2609C15.9851 15.4102 16.0145 15.5745 15.9943 15.7182C15.9737 15.8618 15.9868 16.0037 16.0347 16.1372C16.0312 16.07 16.0272 16.0028 16.0431 15.9382C16.0646 15.788 16.0988 15.6395 16.1335 15.4915C16.1511 15.4142 16.1678 15.343 16.1924 15.2666C16.2315 15.1322 16.2846 14.993 16.3303 14.8599C16.3417 14.8282 16.3453 14.8019 16.3497 14.7694C16.3413 14.7812 16.3321 14.8001 16.3237 14.8124C16.5478 14.4579 15.8599 13.0668 15.6947 12.7299C15.3653 12.0499 14.9322 11.4416 14.402 10.9061C13.6276 10.1225 12.8703 9.35468 12.0015 8.6712C11.7739 8.49199 10.1065 7.52124 9.4907 7.0732C9.35057 6.97261 9.26185 6.89354 9.2658 6.86719Z" fill="#007537"/>
<path opacity="0.5" d="M19.2925 14.1757C19.622 15.0889 19.6531 16.0864 19.5543 17.059C19.4647 17.8729 19.2903 18.6741 19.0268 19.4494C19.2424 19.34 19.3777 19.1397 19.4884 18.9223C19.4792 18.9407 19.4577 18.9513 19.4427 18.9622C20.0089 17.4701 19.9979 15.7693 19.4238 14.2811C19.3052 13.9912 19.1664 13.7044 18.9209 13.5098C19.0948 13.6943 19.2003 13.9358 19.2925 14.1757Z" fill="#007537"/>
<path opacity="0.5" d="M22.0413 19.0661C22.1239 20.3105 22.0009 20.9865 21.7611 22.1053C21.53 23.1652 20.825 25.1638 20.7578 25.3544C20.7776 25.3105 20.9032 25.1287 21.0657 24.8787C21.0666 24.8721 21.0666 24.8721 21.0675 24.8656C21.3306 24.0969 21.5801 23.326 21.8366 22.5564C22.0808 21.825 22.3273 21.0801 22.3839 20.3087C22.4331 19.5892 22.3049 18.3848 21.6425 17.9372C21.6117 17.9196 21.581 17.9016 21.5489 17.8906C21.7874 18.137 21.9991 18.5205 22.0413 19.0661Z" fill="#007537"/>
<path opacity="0.5" d="M22.7337 24.1641C22.9371 24.3731 23.1304 24.747 23.2143 25.419C23.4181 27.0276 22.8268 28.2759 22.6749 30.0874C22.5659 31.4113 22.623 32.5525 23.0535 33.4605C22.8339 32.4761 22.8281 31.4425 22.9252 30.4366C23.0631 28.9568 23.397 27.505 23.5477 26.0269C23.6092 25.4559 23.6083 24.8093 23.1984 24.4109C23.0693 24.2853 22.9081 24.2023 22.7337 24.1641Z" fill="#007537"/>
<path d="M0 17.3828L0.00746658 17.4008C0.0122984 17.4127 0.0149305 17.4188 0.0259118 17.4285C0.613195 18.5143 1.25055 19.6358 1.97312 20.6728C3.32163 22.6666 4.97456 24.3876 7.20597 25.1295L7.21211 25.1269C7.27185 25.1519 7.32896 25.1708 7.39221 25.187C7.27229 25.187 7.15809 25.1844 7.04081 25.1906C6.15483 25.2156 5.34529 25.3931 4.7233 26.164C4.57483 26.352 4.47732 26.5615 4.44657 26.7789C4.3249 27.3934 4.62447 28.0536 5.20209 28.3954C5.6286 28.6436 6.13287 28.7191 6.62396 28.7639C7.42735 28.8294 8.23822 28.8276 9.03503 28.7402C9.03152 28.749 9.02537 28.7512 9.01966 28.7538L9.0135 28.7564C8.7908 29.0736 8.46839 29.3191 8.18463 29.591C7.78579 29.9596 7.36761 30.3856 7.34477 30.9312C7.34038 30.9545 7.3439 30.9808 7.34785 31.0076C7.35576 31.4912 7.71024 31.9243 8.14159 32.1497C8.59578 32.3794 9.12243 32.4242 9.63417 32.4326C10.4745 32.4334 11.2761 32.2028 12.101 32.1673C12.7059 32.1449 13.7355 32.3144 14.2692 31.9472C14.1427 32.0346 14.0223 32.1189 13.898 32.2125C13.8897 32.209 13.8897 32.209 13.8861 32.2173C13.479 32.4976 13.0709 32.7923 12.6663 33.0787C12.1401 33.4644 11.8296 34.3402 12.3554 34.7097C12.4054 34.7457 12.4674 34.7764 12.5245 34.7953C12.8359 34.9003 13.2132 34.7878 13.5343 34.6767C15.1284 34.1066 16.7277 33.4991 18.4092 33.3655C19.9343 33.2469 21.4536 33.5263 22.8997 34.0051C23.5454 34.2199 24.2196 34.3662 24.8653 34.581C25.3652 34.7496 25.6665 34.9504 26.2327 34.8168C26.245 34.812 26.2534 34.8155 26.2657 34.8103L26.2718 34.8076C26.3408 34.7865 26.3953 34.7641 26.4458 34.7149C26.4708 34.6903 26.4875 34.6622 26.4958 34.631C26.5595 34.4426 26.3368 34.2093 26.1475 34.0754C25.7632 33.8096 25.4109 33.5026 25.0999 33.1578C25.0999 33.1578 25.0937 33.16 25.0977 33.1516C24.4168 32.422 23.8933 31.5431 23.4716 30.6364C22.847 29.3051 22.4037 27.899 21.791 26.5628C21.5569 26.0449 21.2318 25.4937 20.6827 25.3597C20.5101 25.3175 20.3309 25.3276 20.1627 25.3825C19.9123 25.4431 19.687 25.5991 19.52 25.7946C19.2468 26.1257 19.1344 26.5742 19.1374 27.0104C19.1273 26.9511 19.1146 26.8857 19.0983 26.829C19.0957 26.8228 19.0957 26.8228 19.0935 26.8171C18.9323 26.0291 18.7588 25.2464 18.5914 24.4614C18.4329 23.7147 18.2695 22.9561 17.9308 22.2695C17.6119 21.6313 16.8986 20.668 16.1088 20.6184C16.0736 20.6188 16.0385 20.6188 16.006 20.6254C16.006 20.6254 16.0034 20.6193 15.9977 20.6219C15.6146 20.6522 15.2966 20.9944 15.1437 21.3607C14.9751 21.7407 14.9245 22.1496 14.7704 22.5304L14.7669 22.5392C14.7682 22.5599 14.755 22.5792 14.748 22.5963C14.4827 21.0396 13.6204 19.594 12.3843 18.6127C12.1375 18.4247 11.8753 18.2499 11.5682 18.2069C11.5599 18.2033 11.5599 18.2034 11.5537 18.206C11.0196 18.1432 10.5188 18.5394 10.2812 19.0252C10.0528 19.5 10.0216 20.0425 10.0058 20.5709C10.0049 20.5854 10.0062 20.6061 10.0049 20.6206C10.0181 20.2059 8.7337 19.3643 8.42359 19.1596C7.80116 18.7449 7.1269 18.4432 6.40608 18.2521C5.35231 17.9723 4.32183 17.6969 3.23775 17.5493C2.95399 17.5106 1.04454 17.519 0.294293 17.4456C0.125619 17.4303 0.0101029 17.407 0 17.3828Z" fill="#009245"/>
<path opacity="0.5" d="M5.20544 28.3958C5.63196 28.6439 6.13578 28.719 6.62731 28.7643C7.4307 28.8297 8.24157 28.828 9.03838 28.7406C9.03487 28.7494 9.02871 28.7516 9.02256 28.7542C9.99024 28.3777 11.0124 28.1344 12.0442 28.0351C10.6856 27.5629 9.23429 27.3969 7.80012 27.4285C7.143 27.4443 6.4806 27.4975 5.83226 27.3969C5.45362 27.3336 5.07279 27.2146 4.74247 27.0117C4.64144 26.9546 4.54569 26.8597 4.44949 26.7793C4.32826 27.3943 4.62782 28.0545 5.20544 28.3958Z" fill="#009245"/>
<path opacity="0.5" d="M8.14521 32.1493C8.5994 32.379 9.12605 32.4238 9.63779 32.4326C10.4781 32.4331 11.2797 32.2029 12.1046 32.1673C12.7095 32.1449 13.7391 32.3145 14.2728 31.9473C14.1463 32.0347 14.0259 32.1194 13.9016 32.2126C14.8996 31.8238 15.9024 31.4474 16.9619 31.3292C15.4377 30.7977 13.8314 30.2719 12.2382 30.517C11.5033 30.6356 10.804 30.9084 10.0832 31.1131C9.36018 31.3112 8.595 31.4421 7.87418 31.2515C7.7222 31.208 7.53463 31.0947 7.35059 31.0077C7.35937 31.4909 7.71386 31.924 8.14521 32.1493Z" fill="#009245"/>
<path opacity="0.5" d="M12.5283 34.7955C12.8398 34.9005 13.2171 34.788 13.5382 34.6769C15.1322 34.1067 16.7315 33.4992 18.413 33.3657C19.9385 33.2471 21.4575 33.5265 22.9035 34.0052C23.5492 34.22 24.2235 34.3663 24.8692 34.5811C25.3691 34.7498 25.6704 34.9505 26.2366 34.817C26.2484 34.8122 26.2572 34.8157 26.2691 34.8108C26.2019 34.7326 26.1101 34.6646 26.0235 34.6083C25.4573 34.2271 24.8881 33.8537 24.3179 33.4808C23.9217 33.2199 23.5189 32.962 23.0928 32.749C21.1096 31.7356 18.6362 31.7282 16.6503 32.7349C15.8561 33.1386 15.1458 33.6776 14.3692 34.1238C13.8017 34.4419 13.1811 34.7182 12.5283 34.7955Z" fill="#009245"/>
<path opacity="0.5" d="M1.97266 20.6719C3.32117 22.6657 4.9741 24.3867 7.20551 25.1286L7.21165 25.1259C7.53274 25.1 7.8411 25.0086 8.1622 24.9827C8.84304 24.9217 9.51423 25.147 10.1564 25.3701C9.28801 24.2518 8.01154 23.5341 6.71266 22.9665C5.41642 22.4052 4.05561 21.962 2.83536 21.2425C2.53755 21.0681 2.24719 20.877 1.97266 20.6719Z" fill="#009245"/>
<path opacity="0.3" d="M4.44638 26.7776C4.32471 27.3921 4.62428 28.0523 5.2019 28.3941C5.62842 28.6422 6.13268 28.7178 6.62377 28.7626C7.42716 28.828 8.23803 28.8263 9.03484 28.7389C9.03133 28.7477 9.02518 28.7499 9.01947 28.7525L9.01331 28.7551C8.79061 29.0723 8.4682 29.3178 8.18444 29.5897C7.7856 29.9582 7.36743 30.3843 7.34459 30.9299C7.3402 30.9532 7.34371 30.9795 7.34766 31.0063C7.35557 31.4899 7.71005 31.923 8.1414 32.1484C8.59559 32.3781 9.12225 32.4229 9.63398 32.4312C10.4743 32.4321 11.2759 32.2015 12.1008 32.1659C12.7057 32.1435 13.7353 32.3131 14.269 31.9459C14.1425 32.0333 14.0221 32.1176 13.8978 32.2112C13.8895 32.2077 13.8895 32.2077 13.886 32.216C13.4788 32.4962 13.0707 32.791 12.6662 33.0774C12.1399 33.463 11.8294 34.3389 12.3552 34.7083C12.4052 34.7444 12.4672 34.7751 12.5243 34.794C12.8357 34.899 13.213 34.7865 13.5341 34.6754C15.1282 34.1052 16.7275 33.4978 18.409 33.3642C19.9341 33.2456 21.4534 33.525 22.8995 34.0038C23.5452 34.2186 24.2194 34.3648 24.8651 34.5796C25.365 34.7483 25.6663 34.949 26.2325 34.8155C26.2448 34.8107 26.2532 34.8142 26.2655 34.8089L26.2716 34.8063C26.3406 34.7852 26.3951 34.7628 26.4456 34.7136C26.4706 34.689 26.4873 34.6609 26.4957 34.6297C25.9106 34.1501 25.2811 33.7169 24.6991 33.2294C23.4832 32.2112 22.4954 30.9233 21.8224 29.4917C21.6454 29.1127 21.4512 28.6914 21.0546 28.5509C20.224 28.264 20.5121 29.2748 20.3162 29.5884C20.2003 29.7702 19.9424 29.8124 19.743 29.7391C19.5458 29.6718 19.3881 29.5106 19.2387 29.3534C18.3334 28.3699 17.5858 27.2375 17.035 26.0168C16.9199 25.7537 16.8083 25.4818 16.5883 25.2898C16.3708 25.104 16.0185 25.0368 15.7994 25.2257C15.5178 25.4682 15.6456 25.9171 15.7243 26.2799C15.8029 26.6427 15.6852 27.1641 15.3114 27.1483C15.2033 27.1431 15.1106 27.0895 15.0184 27.0359C14.3744 26.637 13.8438 26.0502 13.5236 25.3562C13.0426 24.3397 12.9429 23.0325 12.0121 22.3987C11.9339 22.346 11.8439 22.2985 11.7503 22.2946C11.5808 22.2937 11.4389 22.4294 11.3664 22.5792C11.0273 23.2482 11.5144 24.0217 11.6475 24.7579C11.6721 24.9033 11.6581 25.0926 11.5175 25.1286C11.4279 25.1515 11.3352 25.0979 11.2632 25.0425C9.83516 24.0059 8.78798 22.4878 7.27518 21.5711C6.49331 21.0945 5.61436 20.7923 4.76836 20.4343C3.6219 19.9454 2.5286 19.3287 1.51041 18.6035C1.01844 18.2481 0.53966 17.873 0.0837136 17.4676C0.0617508 17.4483 0.0371445 17.4232 0.00683594 17.4004C0.605101 18.4955 1.24466 19.623 1.9725 20.6724C3.32102 22.6662 4.97393 24.3872 7.20534 25.1291L7.21149 25.1264C7.27123 25.1515 7.32834 25.1704 7.39159 25.1866C7.27167 25.1866 7.15746 25.184 7.04018 25.1901C6.1542 25.2152 5.34466 25.3926 4.72267 26.1635C4.57464 26.3511 4.47713 26.5606 4.44638 26.7776Z" fill="#009245"/>
<path opacity="0.5" d="M0 17.3828L0.00746658 17.4008C0.0122984 17.4127 0.0149305 17.4188 0.0259118 17.4285C0.36282 17.544 0.808221 17.58 1.07617 17.5967C2.47827 17.6771 3.8773 17.9213 5.22669 18.3197C5.55613 18.4173 5.88205 18.5236 6.20666 18.6439C6.53171 18.7647 6.84929 18.9022 7.16336 19.0485C7.48006 19.2005 7.78096 19.3665 8.07482 19.5492C8.36604 19.7258 8.64453 19.9221 8.9094 20.1378C9.16856 20.3561 9.41806 20.5854 9.64208 20.8389C9.73652 20.9482 9.83315 21.0638 9.92408 21.1819C10.015 21.2997 10.1226 21.4248 10.1771 21.5579C10.2316 21.6906 10.3141 21.8052 10.4213 21.8948C10.3844 21.8395 10.3475 21.7842 10.3286 21.7213C10.2715 21.5825 10.2267 21.4385 10.1815 21.2948C10.1578 21.2197 10.1362 21.1507 10.1187 21.0734C10.0848 20.939 10.0602 20.7936 10.0321 20.657C10.026 20.6245 10.0159 20.6004 10.0036 20.57C10.0027 20.5845 10.004 20.6052 10.0027 20.6197C10.0159 20.205 8.7315 19.3634 8.42139 19.1587C7.79897 18.7441 7.1247 18.4423 6.40389 18.2512C5.35011 17.9714 4.31963 17.696 3.23555 17.5484C2.95179 17.5098 1.04234 17.5181 0.292095 17.4448C0.125617 17.4303 0.0101029 17.407 0 17.3828Z" fill="#009245"/>
<path opacity="0.5" d="M12.2188 18.5888C12.9581 19.2024 13.4847 20.0378 13.888 20.9168C14.2196 21.6556 14.4731 22.427 14.6369 23.2207C14.766 23.0195 14.7805 22.7806 14.766 22.5394C14.7674 22.56 14.7542 22.5794 14.7472 22.5965C14.4818 21.0398 13.6196 19.5942 12.3835 18.6129C12.1367 18.4249 11.8744 18.2501 11.5674 18.207C11.8085 18.2773 12.0198 18.4306 12.2188 18.5888Z" fill="#009245"/>
<path opacity="0.5" d="M17.0157 21.3826C17.7102 22.403 17.9443 23.0408 18.301 24.1156C18.6352 25.1356 19.0363 27.1943 19.0745 27.3903C19.0692 27.3428 19.0855 27.1245 19.0982 26.8298C19.0956 26.8236 19.0956 26.8236 19.0934 26.8179C18.9322 26.0299 18.7587 25.2471 18.5913 24.4622C18.4327 23.7155 18.2693 22.9569 17.9307 22.2703C17.6118 21.6321 16.8984 20.6688 16.1086 20.6191C16.0735 20.6196 16.0384 20.6196 16.0059 20.6262C16.3331 20.7171 16.7065 20.938 17.0157 21.3826Z" fill="#009245"/>
<path opacity="0.5" d="M20.1631 25.3829C20.4416 25.4593 20.7939 25.6815 21.2024 26.2122C22.1828 27.4821 22.3045 28.8437 23.0837 30.4646C23.6547 31.6488 24.2758 32.5932 25.0981 33.152C24.4173 32.4224 23.8937 31.5434 23.472 30.6368C22.8474 29.3054 22.4042 27.8993 21.7914 26.5631C21.5573 26.0453 21.2322 25.494 20.6832 25.36C20.5101 25.3178 20.3309 25.3279 20.1631 25.3829Z" fill="#009245"/>
<path d="M50.7339 6.86719L50.7366 6.88695C50.7383 6.90012 50.7392 6.90671 50.7348 6.92077C50.7792 8.16737 50.7985 9.47065 50.7006 10.7445C50.5473 13.1722 49.9885 15.5179 48.4244 17.307L48.4178 17.3078C48.3787 17.3601 48.3383 17.4058 48.2917 17.4523C48.3962 17.3908 48.4942 17.3302 48.5996 17.2753C49.3841 16.8435 50.1805 16.5831 51.117 16.9362C51.3428 17.0241 51.5352 17.1563 51.6731 17.3302C52.0939 17.8033 52.1712 18.532 51.8426 19.1255C51.598 19.5603 51.1978 19.8841 50.7928 20.1748C50.1265 20.6431 49.4193 21.0573 48.68 21.3894C48.6875 21.3951 48.6941 21.3938 48.7006 21.3929L48.7072 21.392C49.0635 21.5545 49.4707 21.6029 49.8568 21.6947C50.3931 21.8115 50.9751 21.9683 51.2747 22.4322C51.2905 22.4497 51.301 22.4752 51.3111 22.5003C51.5519 22.9259 51.4649 23.4846 51.2044 23.9015C50.9263 24.3342 50.4906 24.6429 50.0492 24.9127C49.3178 25.3436 48.5012 25.5531 47.7642 25.9449C47.2256 26.2348 46.4156 26.9104 45.7625 26.8634C45.9171 26.8744 46.0656 26.8867 46.2215 26.9047C46.2272 26.8972 46.2272 26.8972 46.2347 26.9029C46.7328 26.9385 47.2397 26.9864 47.7387 27.0281C48.3945 27.0944 49.114 27.6984 48.8452 28.2896C48.8197 28.3467 48.7815 28.4052 48.7415 28.4508C48.5241 28.7017 48.1375 28.797 47.801 28.8651C46.1205 29.1848 44.4157 29.4748 42.8827 30.2197C41.4934 30.8979 40.3126 31.9192 39.2984 33.0771C38.846 33.5949 38.3334 34.068 37.8809 34.5855C37.5317 34.9883 37.3723 35.3177 36.8105 35.4912C36.7973 35.493 36.7916 35.5004 36.7788 35.5022L36.7723 35.5031C36.7015 35.5198 36.6427 35.5281 36.5737 35.5114C36.539 35.5031 36.5104 35.4873 36.4872 35.464C36.3352 35.3326 36.4099 35.0151 36.5061 34.8016C36.705 34.3733 36.8544 33.9257 36.9484 33.4654C36.9484 33.4654 36.955 33.4645 36.9475 33.4588C37.1671 32.4744 37.1728 31.4409 37.0762 30.435C36.9383 28.9551 36.6045 27.5034 36.4538 26.0253C36.3923 25.4542 36.3932 24.8077 36.803 24.4093C36.9317 24.2841 37.0933 24.2011 37.2677 24.1628C37.5168 24.0873 37.7931 24.1079 38.0386 24.1927C38.4462 24.3412 38.7739 24.6741 38.9949 25.0558C38.9734 24.9987 38.951 24.9355 38.936 24.8775C38.9351 24.8709 38.9351 24.8709 38.9343 24.8643C38.6711 24.0956 38.4212 23.3247 38.1647 22.5552C37.9205 21.8238 37.674 21.0788 37.6174 20.3075C37.5682 19.588 37.696 18.3836 38.3588 17.936C38.3896 17.9184 38.4203 17.9004 38.4519 17.8894C38.4519 17.8894 38.4511 17.8828 38.4577 17.8819C38.8064 17.7124 39.2593 17.8477 39.58 18.0884C39.9213 18.333 40.1751 18.6634 40.5046 18.9164L40.5121 18.9221C40.5213 18.9405 40.5428 18.9511 40.5577 18.9621C39.9915 17.4699 40.0025 15.7691 40.5766 14.2809C40.6952 13.991 40.8345 13.7042 41.0796 13.5096C41.0853 13.5021 41.0853 13.5021 41.0919 13.5013C41.525 13.1727 42.1641 13.2614 42.62 13.5632C43.0624 13.8601 43.3672 14.3165 43.6519 14.7689C43.6602 14.7808 43.6694 14.7997 43.6778 14.812C43.4537 14.4575 44.1421 13.0664 44.3068 12.7295C44.6362 12.0495 45.0693 11.4411 45.5995 10.9057C46.3743 10.1221 47.1308 9.35424 47.9996 8.67076C48.2271 8.49155 49.895 7.52079 50.5108 7.07275C50.6487 6.9726 50.7375 6.89354 50.7339 6.86719Z" fill="#007537"/>
<path opacity="0.5" d="M51.8402 19.1277C51.5956 19.5626 51.1954 19.8863 50.7904 20.1771C50.1241 20.6453 49.4169 21.0595 48.6776 21.3916C48.6851 21.3973 48.6917 21.3965 48.6983 21.3951C47.6625 21.5629 46.6474 21.8744 45.6973 22.3162C46.639 21.2089 47.8184 20.3207 49.0839 19.6139C49.6642 19.2911 50.269 18.9986 50.7821 18.5786C51.0799 18.3296 51.3505 18.0309 51.5341 17.6847C51.5929 17.5828 51.6276 17.4515 51.6702 17.332C52.0915 17.8055 52.1688 18.5343 51.8402 19.1277Z" fill="#007537"/>
<path opacity="0.5" d="M51.2022 23.9036C50.9242 24.3363 50.4884 24.6451 50.047 24.9148C49.3156 25.3457 48.499 25.5556 47.762 25.947C47.2234 26.2374 46.4135 26.9125 45.7603 26.8655C45.9153 26.8769 46.0638 26.8888 46.2193 26.9068C45.151 27.079 44.0845 27.2648 43.1006 27.7049C44.1561 26.4614 45.2863 25.1805 46.8 24.5783C47.5006 24.3051 48.25 24.1847 48.9827 23.9937C49.714 23.796 50.4476 23.5179 50.9777 22.9825C51.088 22.867 51.1934 22.6719 51.3089 22.502C51.5497 22.928 51.4627 23.4868 51.2022 23.9036Z" fill="#007537"/>
<path opacity="0.5" d="M48.739 28.4531C48.5216 28.7039 48.1355 28.7993 47.7986 28.8674C46.118 29.1871 44.4132 29.477 42.8802 30.222C41.4909 30.9002 40.3102 31.9215 39.2959 33.0794C38.8431 33.5972 38.3309 34.0703 37.8785 34.5878C37.5293 34.9906 37.3698 35.32 36.808 35.4935C36.7948 35.4953 36.7891 35.5027 36.7764 35.5045C36.7953 35.4017 36.8396 35.2954 36.8866 35.2023C37.1844 34.5799 37.4897 33.9636 37.795 33.3469C38.0067 32.9168 38.225 32.4859 38.4877 32.0818C39.6965 30.1834 41.8476 28.91 44.093 28.7698C44.9917 28.7149 45.8865 28.8208 46.7914 28.8116C47.4485 28.7971 48.1307 28.7198 48.739 28.4531Z" fill="#007537"/>
<path opacity="0.5" d="M50.7004 10.7441C50.5471 13.1719 49.9884 15.5175 48.4242 17.3066L48.4176 17.3075C48.1246 17.4494 47.8092 17.5275 47.5162 17.6694C46.8921 17.965 46.4225 18.5053 45.9775 19.0285C46.1616 17.6092 46.9057 16.3301 47.7464 15.1705C48.5885 14.0175 49.5465 12.9343 50.2409 11.6824C50.4114 11.3784 50.566 11.0635 50.7004 10.7441Z" fill="#007537"/>
<path opacity="0.3" d="M51.6732 17.3289C52.094 17.802 52.1713 18.5307 51.8428 19.1242C51.5981 19.559 51.1979 19.8827 50.7929 20.1735C50.1266 20.6418 49.4194 21.056 48.6801 21.3881C48.6876 21.3938 48.6942 21.3925 48.7008 21.3916L48.7074 21.3907C49.0636 21.5532 49.4708 21.6015 49.8569 21.6934C50.3932 21.8102 50.9752 21.967 51.2748 22.4309C51.2906 22.4484 51.3012 22.4739 51.3113 22.499C51.552 22.9246 51.465 23.4833 51.2045 23.9002C50.9265 24.3328 50.4907 24.6416 50.0493 24.9113C49.3179 25.3423 48.5014 25.5518 47.7643 25.9436C47.2258 26.2335 46.4158 26.9091 45.7626 26.8621C45.9172 26.8731 46.0657 26.8854 46.2216 26.9034C46.2273 26.8959 46.2273 26.8959 46.2348 26.9016C46.7329 26.9372 47.2398 26.9851 47.7388 27.0268C48.3946 27.0931 49.1141 27.6971 48.8453 28.2883C48.8198 28.3454 48.7816 28.4039 48.7416 28.4495C48.5242 28.7003 48.1377 28.7957 47.8012 28.8637C46.1206 29.1835 44.4159 29.4734 42.8829 30.2184C41.4935 30.8966 40.3128 31.9179 39.2985 33.0758C38.8461 33.5937 38.3335 34.0667 37.8811 34.5842C37.5319 34.987 37.3724 35.3164 36.8106 35.4899C36.7974 35.4917 36.7917 35.4991 36.779 35.5009L36.7724 35.5018C36.7017 35.5185 36.6428 35.5268 36.5738 35.5101C36.5391 35.5018 36.5106 35.486 36.4873 35.4627C36.7513 34.7454 37.0781 34.0452 37.3351 33.3226C37.8727 31.8129 38.0739 30.185 37.9267 28.5932C37.8868 28.1724 37.8402 27.7059 38.1139 27.3804C38.6906 26.7048 38.9572 27.7331 39.2884 27.9062C39.4826 28.005 39.729 27.9101 39.8652 27.7441C40.0022 27.5846 40.0576 27.3637 40.1068 27.1498C40.3918 25.8294 40.463 24.4598 40.3176 23.1143C40.2833 22.8258 40.2412 22.5319 40.3347 22.2521C40.4292 21.9789 40.7015 21.7399 40.9888 21.7922C41.3582 21.8594 41.4768 22.3158 41.5941 22.672C41.7118 23.0283 42.0812 23.4223 42.3984 23.2171C42.4897 23.1574 42.5429 23.0634 42.596 22.969C42.9527 22.2916 43.1143 21.5089 43.0379 20.7397C42.9364 19.6082 42.3536 18.4183 42.8398 17.3891C42.8811 17.3034 42.9351 17.2156 43.0142 17.1642C43.1618 17.0764 43.3546 17.1225 43.4947 17.2156C44.133 17.6245 44.1049 18.5483 44.3658 19.2572C44.4189 19.3961 44.5283 19.5542 44.6693 19.5138C44.7589 19.4879 44.8121 19.3934 44.8468 19.3086C45.5601 17.6742 45.6945 15.8152 46.5432 14.2414C46.9802 13.4261 47.5912 12.7124 48.1447 11.9669C48.8932 10.954 49.5297 9.85676 50.0449 8.70327C50.2913 8.14147 50.5162 7.56956 50.706 6.98272C50.7152 6.9546 50.7236 6.92035 50.7389 6.88477C50.7789 8.14543 50.7991 9.45529 50.7025 10.7419C50.5492 13.1696 49.9904 15.5152 48.4262 17.3043L48.4197 17.3052C48.3806 17.3575 48.3401 17.4032 48.2936 17.4497C48.3981 17.3882 48.4961 17.3276 48.6015 17.2727C49.386 16.8409 50.1824 16.5804 51.1189 16.9336C51.3429 17.0228 51.5353 17.1554 51.6732 17.3289Z" fill="#007537"/>
<path opacity="0.5" d="M50.7346 6.86719L50.7373 6.88695C50.739 6.90012 50.7399 6.90671 50.7355 6.92077C50.5014 7.19398 50.1315 7.45359 49.9066 7.60557C48.7264 8.3936 47.6326 9.32305 46.661 10.361C46.4238 10.6149 46.1945 10.8741 45.9731 11.1455C45.7517 11.417 45.5457 11.6999 45.3467 11.988C45.1491 12.2828 44.9716 12.5814 44.8091 12.8911C44.6457 13.1942 44.5038 13.5078 44.3834 13.8316C44.2697 14.1544 44.1695 14.4817 44.1041 14.8177C44.0781 14.9613 44.0527 15.1115 44.0342 15.2609C44.0153 15.4102 43.9855 15.5745 44.0061 15.7182C44.0268 15.8618 44.0136 16.0037 43.9657 16.1372C43.9697 16.07 43.9732 16.0028 43.9574 15.9382C43.9358 15.788 43.9016 15.6395 43.8669 15.4915C43.8493 15.4142 43.8326 15.343 43.808 15.2666C43.7689 15.1322 43.7158 14.993 43.6701 14.8599C43.6591 14.8282 43.6552 14.8019 43.6503 14.7694C43.6587 14.7812 43.6679 14.8001 43.6762 14.8124C43.4522 14.4579 44.1405 13.0668 44.3052 12.7299C44.6347 12.0499 45.0678 11.4416 45.598 10.9061C46.3728 10.1225 47.1292 9.35468 47.9981 8.6712C48.2256 8.49199 49.8934 7.52124 50.5093 7.0732C50.6494 6.97261 50.7381 6.89354 50.7346 6.86719Z" fill="#007537"/>
<path opacity="0.5" d="M40.7071 14.1757C40.3777 15.0889 40.3465 16.0864 40.4453 17.059C40.5345 17.8729 40.7089 18.6741 40.9729 19.4494C40.7572 19.34 40.6224 19.1397 40.5112 18.9223C40.5205 18.9407 40.542 18.9513 40.5569 18.9622C39.9907 17.4701 40.0017 15.7693 40.5758 14.2811C40.6944 13.9912 40.8336 13.7044 41.0787 13.5098C40.9048 13.6943 40.7994 13.9358 40.7071 14.1757Z" fill="#007537"/>
<path opacity="0.5" d="M37.959 19.0661C37.8764 20.3105 37.9994 20.9865 38.2392 22.1053C38.4703 23.1652 39.1753 25.1638 39.2425 25.3544C39.2227 25.3105 39.0971 25.1287 38.9345 24.8787C38.9337 24.8721 38.9337 24.8721 38.9328 24.8656C38.6697 24.0969 38.4197 23.326 38.1632 22.5564C37.919 21.825 37.6726 21.0801 37.6159 20.3087C37.5667 19.5892 37.6945 18.3848 38.3574 17.9372C38.3881 17.9196 38.4189 17.9016 38.4505 17.8906C38.2128 18.137 38.0011 18.5205 37.959 19.0661Z" fill="#007537"/>
<path opacity="0.5" d="M37.2662 24.1641C37.0628 24.3731 36.8695 24.747 36.7852 25.419C36.5814 27.0276 37.1726 28.2759 37.3246 30.0874C37.4335 31.4113 37.3764 32.5525 36.946 33.4605C37.1656 32.4761 37.1713 31.4425 37.0747 30.4366C36.9367 28.9568 36.6029 27.505 36.4522 26.0269C36.3907 25.4559 36.3916 24.8093 36.8014 24.4109C36.9301 24.2853 37.0918 24.2023 37.2662 24.1641Z" fill="#007537"/>
<path d="M59.9998 17.3828L59.9923 17.4008C59.9875 17.4127 59.9848 17.4188 59.9739 17.4285C59.3866 18.5143 58.7492 19.6358 58.0271 20.6728C56.6786 22.6666 55.0257 24.3876 52.7942 25.1295L52.7881 25.1269C52.7284 25.1519 52.6713 25.1708 52.608 25.187C52.7279 25.187 52.8421 25.1844 52.9594 25.1906C53.8454 25.2156 54.6549 25.3931 55.2769 26.164C55.4254 26.352 55.5229 26.5615 55.5536 26.7789C55.6753 27.3934 55.3757 28.0536 54.7981 28.3954C54.3716 28.6436 53.8678 28.7191 53.3763 28.7639C52.5729 28.8294 51.762 28.8276 50.9652 28.7402C50.9687 28.749 50.9749 28.7512 50.981 28.7538L50.9872 28.7564C51.2099 29.0736 51.5323 29.3191 51.816 29.591C52.2153 29.9596 52.633 30.3856 52.6559 30.9312C52.6607 30.9545 52.6568 30.9808 52.6528 31.0076C52.6449 31.4912 52.2904 31.9243 51.8591 32.1497C51.4049 32.3794 50.8782 32.4242 50.3665 32.4326C49.5262 32.4334 48.7245 32.2028 47.8996 32.1673C47.2948 32.1449 46.2652 32.3144 45.7315 31.9472C45.858 32.0346 45.9783 32.1189 46.1022 32.2125C46.1105 32.209 46.1105 32.209 46.1145 32.2173C46.5217 32.4976 46.9298 32.7923 47.3348 33.0787C47.861 33.4644 48.1715 34.3402 47.6457 34.7097C47.5957 34.7457 47.5337 34.7764 47.4762 34.7953C47.1652 34.9003 46.7874 34.7878 46.4663 34.6767C44.8723 34.1066 43.273 33.4991 41.5915 33.3655C40.066 33.2469 38.547 33.5263 37.101 34.0051C36.4553 34.2199 35.781 34.3662 35.1353 34.581C34.6355 34.7496 34.3341 34.9504 33.7679 34.8168C33.7556 34.812 33.7473 34.8155 33.7354 34.8103L33.7293 34.8076C33.6603 34.7865 33.6058 34.7641 33.5553 34.7149C33.5303 34.6903 33.5136 34.6622 33.5053 34.631C33.4416 34.4426 33.6643 34.2093 33.8536 34.0754C34.2379 33.8096 34.5898 33.5026 34.9012 33.1578C34.9012 33.1578 34.9074 33.16 34.9034 33.1516C35.5842 32.422 36.1078 31.5431 36.5295 30.6364C37.1541 29.3051 37.5978 27.899 38.2101 26.5628C38.4442 26.0449 38.7693 25.4937 39.3184 25.3597C39.491 25.3175 39.6702 25.3276 39.8384 25.3825C40.0888 25.4431 40.3141 25.5991 40.4811 25.7946C40.7543 26.1257 40.8667 26.5742 40.8637 27.0104C40.8738 26.9511 40.8865 26.8857 40.9032 26.829C40.9054 26.8228 40.9054 26.8228 40.908 26.8171C41.0692 26.0291 41.2427 25.2464 41.4101 24.4614C41.5687 23.7147 41.7321 22.9561 42.0707 22.2695C42.3892 21.6313 43.103 20.668 43.8923 20.6184C43.9274 20.6188 43.9626 20.6188 43.9951 20.6254C43.9951 20.6254 43.9977 20.6193 44.0034 20.6219C44.386 20.6522 44.7045 20.9944 44.8573 21.3607C45.026 21.7407 45.0765 22.1496 45.2307 22.5304L45.2342 22.5392C45.2329 22.5599 45.2461 22.5792 45.2531 22.5963C45.5184 21.0396 46.3807 19.594 47.6168 18.6127C47.8632 18.4247 48.1254 18.2499 48.4329 18.2069C48.4417 18.2033 48.4417 18.2034 48.4474 18.206C48.9815 18.1432 49.4818 18.5394 49.7199 19.0252C49.9483 19.5 49.9795 20.0425 49.9953 20.5709C49.9962 20.5854 49.9949 20.6061 49.9962 20.6206C49.983 20.2059 51.2674 19.3643 51.5771 19.1596C52.1995 18.7449 52.8738 18.4432 53.5946 18.2521C54.6483 17.9723 55.6788 17.6969 56.7629 17.5493C57.0471 17.5106 58.9561 17.519 59.7064 17.4456C59.8746 17.4303 59.9897 17.407 59.9998 17.3828Z" fill="#009245"/>
<path opacity="0.5" d="M54.7948 28.3958C54.3683 28.6439 53.8645 28.719 53.3729 28.7643C52.57 28.8297 51.7587 28.828 50.9619 28.7406C50.9654 28.7494 50.9715 28.7516 50.9777 28.7542C50.01 28.3777 48.9879 28.1344 47.9561 28.0351C49.3147 27.5629 50.766 27.3969 52.2001 27.4285C52.8573 27.4443 53.5201 27.4975 54.168 27.3969C54.5471 27.3336 54.9275 27.2146 55.2578 27.0117C55.3588 26.9546 55.4541 26.8597 55.5508 26.7793C55.6724 27.3943 55.3729 28.0545 54.7948 28.3958Z" fill="#009245"/>
<path opacity="0.5" d="M51.8547 32.1493C51.4005 32.379 50.8739 32.4238 50.3621 32.4326C49.5218 32.4331 48.7202 32.2029 47.8948 32.1673C47.29 32.1449 46.2604 32.3145 45.7267 31.9473C45.8532 32.0347 45.9735 32.1194 46.0974 32.2126C45.0994 31.8238 44.0966 31.4474 43.0371 31.3292C44.5613 30.7977 46.1677 30.2719 47.7609 30.517C48.4957 30.6356 49.195 30.9084 49.9158 31.1131C50.6389 31.3112 51.404 31.4421 52.1248 31.2515C52.2768 31.208 52.4644 31.0947 52.6484 31.0077C52.6405 31.4909 52.2861 31.924 51.8547 32.1493Z" fill="#009245"/>
<path opacity="0.5" d="M47.4712 34.7955C47.1598 34.9005 46.7829 34.788 46.4614 34.6769C44.8678 34.1067 43.268 33.4992 41.5865 33.3657C40.061 33.2471 38.5421 33.5265 37.096 34.0052C36.4503 34.22 35.7761 34.3663 35.1304 34.5811C34.6305 34.7498 34.3292 34.9505 33.763 34.817C33.7507 34.8122 33.7423 34.8157 33.7305 34.8108C33.7981 34.7326 33.8895 34.6646 33.976 34.6083C34.5422 34.2271 35.1115 33.8537 35.6812 33.4808C36.0774 33.2199 36.4802 32.962 36.9063 32.749C38.8895 31.7356 41.363 31.7282 43.3488 32.7349C44.143 33.1386 44.8533 33.6776 45.6299 34.1238C46.1978 34.4419 46.8185 34.7182 47.4712 34.7955Z" fill="#009245"/>
<path opacity="0.5" d="M58.0265 20.6719C56.678 22.6657 55.0251 24.3867 52.7937 25.1286L52.7875 25.1259C52.4664 25.1 52.1581 25.0086 51.837 24.9827C51.1561 24.9217 50.485 25.147 49.8428 25.3701C50.7116 24.2518 51.9877 23.5341 53.2865 22.9665C54.5828 22.4052 55.9436 21.962 57.1638 21.2425C57.4612 21.0681 57.7515 20.877 58.0265 20.6719Z" fill="#009245"/>
<path opacity="0.3" d="M55.5533 26.7776C55.675 27.3921 55.3754 28.0523 54.7978 28.3941C54.3712 28.6422 53.8674 28.7178 53.3759 28.7626C52.5725 28.828 51.7616 28.8263 50.9648 28.7389C50.9683 28.7477 50.9745 28.7499 50.9806 28.7525L50.9868 28.7551C51.2095 29.0723 51.5319 29.3178 51.8157 29.5897C52.2149 29.9582 52.6327 30.3843 52.6555 30.9299C52.6603 30.9532 52.6564 30.9795 52.6524 31.0063C52.6445 31.4899 52.2901 31.923 51.8587 32.1484C51.4045 32.3781 50.8779 32.4229 50.3661 32.4312C49.5258 32.4321 48.7242 32.2015 47.8993 32.1659C47.2944 32.1435 46.2648 32.3131 45.7311 31.9459C45.8576 32.0333 45.978 32.1176 46.1018 32.2112C46.1102 32.2077 46.1102 32.2077 46.1141 32.216C46.5213 32.4962 46.9294 32.791 47.3344 33.0774C47.8606 33.463 48.1712 34.3389 47.6454 34.7083C47.5953 34.7444 47.5334 34.7751 47.4758 34.794C47.1648 34.899 46.7871 34.7865 46.466 34.6754C44.8719 34.1052 43.2726 33.4978 41.5911 33.3642C40.0656 33.2456 38.5467 33.525 37.1006 34.0038C36.4549 34.2186 35.7807 34.3648 35.135 34.5796C34.6351 34.7483 34.3338 34.949 33.7676 34.8155C33.7553 34.8107 33.7469 34.8142 33.7351 34.8089L33.7289 34.8063C33.6599 34.7852 33.6055 34.7628 33.555 34.7136C33.5299 34.689 33.5132 34.6609 33.5049 34.6297C34.09 34.1501 34.7199 33.7169 35.3014 33.2294C36.5173 32.2112 37.5052 30.9233 38.1777 29.4917C38.3547 29.1127 38.5489 28.6914 38.9455 28.5509C39.7761 28.264 39.488 29.2748 39.6839 29.5884C39.7998 29.7702 40.0577 29.8124 40.2571 29.7391C40.4543 29.6718 40.612 29.5106 40.7614 29.3534C41.6662 28.3699 42.4139 27.2375 42.9651 26.0168C43.0802 25.7537 43.1918 25.4818 43.4118 25.2898C43.6293 25.104 43.9815 25.0368 44.2003 25.2257C44.4819 25.4682 44.354 25.9171 44.2754 26.2799C44.1968 26.6427 44.3145 27.1641 44.6879 27.1483C44.7959 27.1431 44.8886 27.0895 44.9809 27.0359C45.6248 26.637 46.155 26.0502 46.4756 25.3562C46.9566 24.3397 47.0559 23.0325 47.9871 22.3987C48.0653 22.346 48.1554 22.2985 48.2489 22.2946C48.4185 22.2937 48.5603 22.4294 48.6328 22.5792C48.9719 23.2482 48.4848 24.0217 48.3517 24.7579C48.3271 24.9033 48.3412 25.0926 48.4817 25.1286C48.5713 25.1515 48.664 25.0979 48.736 25.0425C50.1641 24.0059 51.2112 22.4878 52.724 21.5711C53.5059 21.0945 54.3853 20.7923 55.2309 20.4343C56.3773 19.9454 57.4706 19.3287 58.4888 18.6035C58.9808 18.2481 59.4596 17.873 59.9155 17.4676C59.9375 17.4483 59.9621 17.4232 59.9924 17.4004C59.3941 18.4955 58.7546 19.623 58.0272 20.6724C56.6786 22.6662 55.0257 24.3872 52.7943 25.1291L52.7882 25.1264C52.7284 25.1515 52.6713 25.1704 52.6081 25.1866C52.728 25.1866 52.8422 25.184 52.9595 25.1901C53.8455 25.2152 54.655 25.3926 55.277 26.1635C55.4255 26.3511 55.523 26.5606 55.5533 26.7776Z" fill="#009245"/>
<path opacity="0.5" d="M59.9994 17.3828L59.9919 17.4008C59.9871 17.4127 59.9844 17.4188 59.9734 17.4285C59.6365 17.544 59.1911 17.58 58.9232 17.5967C57.5211 17.6771 56.122 17.9213 54.7727 18.3197C54.4432 18.4173 54.1173 18.5236 53.7922 18.6439C53.4676 18.7647 53.1496 18.9022 52.8355 19.0485C52.5188 19.2005 52.218 19.3665 51.9241 19.5492C51.6329 19.7258 51.3544 19.9221 51.0895 20.1378C50.8303 20.3561 50.5808 20.5854 50.3568 20.8389C50.2624 20.9482 50.1657 21.0638 50.0748 21.1819C49.9839 21.2997 49.8763 21.4248 49.8218 21.5579C49.7673 21.6906 49.6848 21.8052 49.5771 21.8948C49.614 21.8395 49.6509 21.7842 49.6698 21.7213C49.7269 21.5825 49.7717 21.4385 49.817 21.2948C49.8407 21.2197 49.8622 21.1507 49.8798 21.0734C49.9136 20.939 49.9382 20.7936 49.9663 20.657C49.9729 20.6245 49.9826 20.6004 49.9949 20.57C49.9958 20.5845 49.9944 20.6052 49.9958 20.6197C49.9826 20.205 51.267 19.3634 51.5766 19.1587C52.1991 18.7441 52.8733 18.4423 53.5941 18.2512C54.6479 17.9714 55.6784 17.696 56.7625 17.5484C57.0467 17.5098 58.9557 17.5181 59.7059 17.4448C59.8742 17.4303 59.9893 17.407 59.9994 17.3828Z" fill="#009245"/>
<path opacity="0.5" d="M47.7805 18.5888C47.0413 19.2024 46.5146 20.0378 46.1114 20.9168C45.7797 21.6556 45.5263 22.427 45.3624 23.2207C45.2333 23.0195 45.2188 22.7806 45.2328 22.5394C45.2315 22.56 45.2447 22.5794 45.2517 22.5965C45.517 21.0398 46.3793 19.5942 47.6154 18.6129C47.8618 18.4249 48.124 18.2501 48.4315 18.207C48.1908 18.2773 47.9795 18.4306 47.7805 18.5888Z" fill="#009245"/>
<path opacity="0.5" d="M42.9843 21.3826C42.2899 22.403 42.0557 23.0408 41.699 24.1156C41.3643 25.1356 40.9637 27.1943 40.9251 27.3903C40.9304 27.3428 40.9141 27.1245 40.9014 26.8298C40.9036 26.8236 40.9036 26.8236 40.9062 26.8179C41.0674 26.0299 41.2409 25.2471 41.4083 24.4622C41.5668 23.7155 41.7302 22.9569 42.0689 22.2703C42.3874 21.6321 43.1012 20.6688 43.8905 20.6191C43.9256 20.6196 43.9608 20.6196 43.9933 20.6262C43.6669 20.7171 43.294 20.938 42.9843 21.3826Z" fill="#009245"/>
<path opacity="0.5" d="M39.8374 25.3829C39.5589 25.4593 39.2066 25.6815 38.7981 26.2122C37.8177 27.4821 37.696 28.8437 36.9168 30.4646C36.3457 31.6488 35.7246 32.5932 34.9023 33.152C35.5832 32.4224 36.1068 31.5434 36.5285 30.6368C37.1531 29.3054 37.5967 27.8993 38.2091 26.5631C38.4432 26.0453 38.7682 25.494 39.3173 25.36C39.4899 25.3178 39.6691 25.3279 39.8374 25.3829Z" fill="#009245"/>
<path d="M22.7 38.0918V42.3881L20.5292 41.5659L18.5438 42.3183L18.3545 42.3881V38.0918H22.7Z" fill="#FFB612"/>
<path opacity="0.7" d="M18.5438 38.0918V42.3183L18.3545 42.3881V38.0918H18.5438Z" fill="#FFB612"/>
<path opacity="0.5" d="M22.7001 38.0922V42.3881L20.5293 41.5659C21.7957 40.3285 22.075 38.9593 22.0996 38.0918L22.7001 38.0922Z" fill="#FFB612"/>
<path d="M22.7 38.0918H18.3545V39.9951H22.7V38.0918Z" fill="#FFB612"/>
<path d="M44.2995 39.5088H23.3137C22.0051 39.5088 20.9443 38.448 20.9443 37.1394V2.36933C20.9443 1.06079 22.0051 0 23.3137 0H44.2995C45.608 0 46.6688 1.06079 46.6688 2.36933V37.1394C46.6684 38.4484 45.608 39.5088 44.2995 39.5088Z" fill="#AF3345"/>
<path d="M43.6775 38.9836H23.2504C21.977 38.9836 20.9443 37.9514 20.9443 36.6776V2.83343C20.9443 1.55959 21.977 0.527344 23.2504 0.527344H43.6775C44.9514 0.527344 45.9836 1.56003 45.9836 2.83343V36.6776C45.9836 37.951 44.9514 38.9836 43.6775 38.9836Z" fill="#CEEDFC"/>
<path d="M42.8284 38.9821H23.2091C21.9586 38.9821 20.9443 37.9683 20.9443 36.7173V2.79019C20.9443 1.53963 21.9581 0.525391 23.2091 0.525391H42.8284C44.0794 0.525391 45.0932 1.53919 45.0932 2.79019V36.7173C45.0932 37.9683 44.0794 38.9821 42.8284 38.9821Z" fill="#B6E4FA"/>
<path d="M41.8001 38.9836H23.1577C21.9353 38.9836 20.9443 37.9927 20.9443 36.7702V2.74074C20.9443 1.51829 21.9353 0.527344 23.1577 0.527344H41.8001C43.0226 0.527344 44.0135 1.51829 44.0135 2.74074V36.7702C44.0135 37.9927 43.0226 38.9836 41.8001 38.9836Z" fill="#B6E4FA"/>
<path d="M40.8228 38.9821H23.1081C21.9133 38.9821 20.9443 38.0136 20.9443 36.8184V2.68916C20.9443 1.49438 21.9129 0.525391 23.1081 0.525391H40.8228C42.0176 0.525391 42.9866 1.49395 42.9866 2.68916V36.8184C42.9866 38.0136 42.0176 38.9821 40.8228 38.9821Z" fill="#B6E4FA"/>
<path d="M40.0897 38.9836H23.0699C21.8962 38.9836 20.9443 38.0322 20.9443 36.8581V2.65289C20.9443 1.4792 21.8962 0.527344 23.0699 0.527344H40.0897C41.2634 0.527344 42.2152 1.4792 42.2152 2.65289V36.8581C42.2152 38.0318 41.2634 38.9836 40.0897 38.9836Z" fill="#B6E4FA"/>
<path d="M41.7193 2.48705V37.0265C41.7193 38.3957 40.6677 39.5096 39.3719 39.5096H17.3415C16.0457 39.5096 14.9941 38.3957 14.9941 37.0265V2.48705C14.9941 1.11394 16.0457 0 17.3415 0H39.3719C40.6681 0 41.7193 1.11394 41.7193 2.48705Z" fill="#FF5766"/>
<path d="M17.848 37.0265V2.48705C17.848 1.11394 18.8996 0 20.1954 0H17.3415C16.0457 0 14.9941 1.11394 14.9941 2.48705V37.0265C14.9941 38.3957 16.0457 39.5096 17.3415 39.5096H20.1954C18.8991 39.5096 17.848 38.3957 17.848 37.0265Z" fill="#FF5766"/>
<path opacity="0.5" d="M41.7195 2.48705V37.0265C41.7195 38.3957 40.668 39.5096 39.3722 39.5096H37.5488C38.8446 39.5096 39.8962 38.3957 39.8962 37.0265V2.48705C39.8962 1.11394 38.8446 0 37.5488 0H39.3722C40.6684 0 41.7195 1.11394 41.7195 2.48705Z" fill="#B24250"/>
<path d="M20.5294 4.46341C20.5294 5.44163 19.7317 6.23931 18.7534 6.23931C18.6546 6.23931 18.5602 6.23097 18.4697 6.21472C17.6268 6.07899 16.9775 5.34323 16.9775 4.46341C16.9775 3.58358 17.6272 2.84783 18.4697 2.7121C18.5602 2.69541 18.6546 2.6875 18.7534 2.6875C19.7321 2.68706 20.5294 3.48475 20.5294 4.46341Z" fill="#AF3345"/>
<path opacity="0.5" d="M19.9628 4.4642C19.9628 5.34403 19.3175 6.07978 18.4707 6.21551C17.6277 6.07978 16.9785 5.34403 16.9785 4.4642C16.9785 3.58437 17.6282 2.84862 18.4707 2.71289C19.3171 2.84818 19.9628 3.58437 19.9628 4.4642Z" fill="#AF3345"/>
<path d="M18.4094 5.86651H14.6691C13.9338 5.86651 13.332 5.26472 13.332 4.52897V4.39764C13.332 3.66233 13.9338 3.06055 14.6691 3.06055H18.4094C19.1447 3.06055 19.7465 3.66233 19.7465 4.39764V4.52897C19.7469 5.26472 19.1451 5.86651 18.4094 5.86651Z" fill="#ADC8DB"/>
<path opacity="0.5" d="M18.4094 3.06055H14.6691C13.9338 3.06055 13.332 3.66233 13.332 4.39764V4.52897C13.332 4.57377 13.3408 4.61639 13.3452 4.66031C13.4124 3.9865 13.9786 3.45412 14.6691 3.45412H18.4094C19.0999 3.45412 19.6661 3.9865 19.7333 4.66031C19.7377 4.61639 19.7465 4.57377 19.7465 4.52897V4.39764C19.7469 3.66233 19.1451 3.06055 18.4094 3.06055Z" fill="#ADC8DB"/>
<path opacity="0.8" d="M18.4094 4.94239H14.6691C14.0726 4.94239 13.5701 4.54399 13.3992 4.00195C13.3593 4.12802 13.332 4.25979 13.332 4.39859V4.52994C13.332 5.26569 13.9338 5.86747 14.6691 5.86747H18.4094C19.1447 5.86747 19.7469 5.26569 19.7469 4.52994V4.39859C19.7469 4.25979 19.7192 4.12802 19.6797 4.00195C19.5088 4.54399 19.0059 4.94239 18.4094 4.94239Z" fill="#ADC8DB"/>
<path d="M20.5294 10.5806C20.5294 11.5593 19.7317 12.3565 18.7534 12.3565C18.6546 12.3565 18.5602 12.3482 18.4697 12.3319C17.6268 12.1962 16.9775 11.4604 16.9775 10.5806C16.9775 9.70077 17.6272 8.96502 18.4697 8.82929C18.5602 8.81259 18.6546 8.80469 18.7534 8.80469C19.7321 8.80469 20.5294 9.60193 20.5294 10.5806Z" fill="#AF3345"/>
<path opacity="0.5" d="M19.9628 10.5814C19.9628 11.4612 19.3175 12.197 18.4707 12.3327C17.6277 12.197 16.9785 11.4612 16.9785 10.5814C16.9785 9.70156 17.6282 8.96581 18.4707 8.83008C19.3171 8.96581 19.9628 9.70156 19.9628 10.5814Z" fill="#AF3345"/>
<path d="M18.4094 11.9833H14.6691C13.9338 11.9833 13.332 11.3815 13.332 10.6462V10.5148C13.332 9.77952 13.9338 9.17773 14.6691 9.17773H18.4094C19.1447 9.17773 19.7465 9.77952 19.7465 10.5148V10.6462C19.7469 11.3815 19.1451 11.9833 18.4094 11.9833Z" fill="#ADC8DB"/>
<path opacity="0.5" d="M18.4094 9.17773H14.6691C13.9338 9.17773 13.332 9.7795 13.332 10.5148V10.6462C13.332 10.691 13.3408 10.7336 13.3452 10.7775C13.4124 10.1037 13.9786 9.5713 14.6691 9.5713H18.4094C19.0999 9.5713 19.6661 10.1037 19.7333 10.7775C19.7377 10.7336 19.7465 10.691 19.7465 10.6462V10.5148C19.7469 9.7795 19.1451 9.17773 18.4094 9.17773Z" fill="#ADC8DB"/>
<path opacity="0.8" d="M18.4094 11.0596H14.6691C14.0726 11.0596 13.5701 10.6612 13.3992 10.1191C13.3593 10.2452 13.332 10.377 13.332 10.5158V10.6471C13.332 11.3829 13.9338 11.9846 14.6691 11.9846H18.4094C19.1447 11.9846 19.7469 11.3829 19.7469 10.6471V10.5158C19.7469 10.377 19.7192 10.2452 19.6797 10.1191C19.5088 10.6612 19.0059 11.0596 18.4094 11.0596Z" fill="#ADC8DB"/>
<path d="M20.5294 16.6958C20.5294 17.6745 19.7317 18.4717 18.7534 18.4717C18.6546 18.4717 18.5602 18.4634 18.4697 18.4471C17.6268 18.3114 16.9775 17.5757 16.9775 16.6958C16.9775 15.816 17.6272 15.0802 18.4697 14.9445C18.5602 14.9278 18.6546 14.9199 18.7534 14.9199C19.7321 14.9199 20.5294 15.7176 20.5294 16.6958Z" fill="#AF3345"/>
<path opacity="0.5" d="M19.9628 16.6966C19.9628 17.5764 19.3175 18.3122 18.4707 18.4479C17.6277 18.3122 16.9785 17.5764 16.9785 16.6966C16.9785 15.8168 17.6282 15.081 18.4707 14.9453C19.3171 15.081 19.9628 15.8168 19.9628 16.6966Z" fill="#AF3345"/>
<path d="M18.4094 18.0985H14.6691C13.9338 18.0985 13.332 17.4967 13.332 16.7614V16.63C13.332 15.8947 13.9338 15.293 14.6691 15.293H18.4094C19.1447 15.293 19.7465 15.8947 19.7465 16.63V16.7614C19.7469 17.4967 19.1451 18.0985 18.4094 18.0985Z" fill="#ADC8DB"/>
<path opacity="0.5" d="M18.4094 15.293H14.6691C13.9338 15.293 13.332 15.8948 13.332 16.6301V16.7614C13.332 16.8062 13.3408 16.8488 13.3452 16.8927C13.4124 16.2189 13.9786 15.6865 14.6691 15.6865H18.4094C19.0999 15.6865 19.6661 16.2189 19.7333 16.8927C19.7377 16.8488 19.7465 16.8062 19.7465 16.7614V16.6301C19.7469 15.8948 19.1451 15.293 18.4094 15.293Z" fill="#ADC8DB"/>
<path opacity="0.8" d="M18.4094 17.1748H14.6691C14.0726 17.1748 13.5701 16.7764 13.3992 16.2344C13.3593 16.3604 13.332 16.4922 13.332 16.631V16.7624C13.332 17.4977 13.9338 18.0995 14.6691 18.0995H18.4094C19.1447 18.0995 19.7469 17.4977 19.7469 16.7624V16.631C19.7469 16.4922 19.7192 16.3604 19.6797 16.2344C19.5088 16.776 19.0059 17.1748 18.4094 17.1748Z" fill="#ADC8DB"/>
<path d="M20.5294 22.8111C20.5294 23.7897 19.7317 24.587 18.7534 24.587C18.6546 24.587 18.5602 24.5786 18.4697 24.5624C17.6268 24.4266 16.9775 23.6909 16.9775 22.8111C16.9775 21.9312 17.6272 21.1955 18.4697 21.0598C18.5602 21.0431 18.6546 21.0352 18.7534 21.0352C19.7321 21.0352 20.5294 21.8328 20.5294 22.8111Z" fill="#AF3345"/>
<path opacity="0.5" d="M19.9628 22.8119C19.9628 23.6917 19.3175 24.4274 18.4707 24.5632C17.6277 24.4274 16.9785 23.6917 16.9785 22.8119C16.9785 21.932 17.6282 21.1963 18.4707 21.0605C19.3171 21.1963 19.9628 21.9325 19.9628 22.8119Z" fill="#AF3345"/>
<path d="M18.4094 24.2142H14.6691C13.9338 24.2142 13.332 23.6124 13.332 22.8771V22.7457C13.332 22.0104 13.9338 21.4082 14.6691 21.4082H18.4094C19.1447 21.4082 19.7465 22.01 19.7465 22.7457V22.8771C19.7469 23.6124 19.1451 24.2142 18.4094 24.2142Z" fill="#ADC8DB"/>
<path opacity="0.5" d="M18.4094 21.4082H14.6691C13.9338 21.4082 13.332 22.01 13.332 22.7453V22.8766C13.332 22.9214 13.3408 22.964 13.3452 23.008C13.4124 22.3342 13.9786 21.8018 14.6691 21.8018H18.4094C19.0999 21.8018 19.6661 22.3342 19.7333 23.008C19.7377 22.964 19.7465 22.9214 19.7465 22.8766V22.7453C19.7469 22.01 19.1451 21.4082 18.4094 21.4082Z" fill="#ADC8DB"/>
<path opacity="0.8" d="M18.4094 23.2905H14.6691C14.0726 23.2905 13.5701 22.8921 13.3992 22.3496C13.3593 22.4757 13.332 22.6074 13.332 22.7462V22.8776C13.332 23.6129 13.9338 24.2147 14.6691 24.2147H18.4094C19.1447 24.2147 19.7469 23.6129 19.7469 22.8776V22.7462C19.7469 22.6074 19.7192 22.4757 19.6797 22.3496C19.5088 22.8921 19.0059 23.2905 18.4094 23.2905Z" fill="#ADC8DB"/>
<path d="M20.5294 28.9283C20.5294 29.9065 19.7317 30.7042 18.7534 30.7042C18.6546 30.7042 18.5602 30.6958 18.4697 30.6796C17.6268 30.5438 16.9775 29.8081 16.9775 28.9283C16.9775 28.0484 17.6272 27.3127 18.4697 27.1769C18.5602 27.1603 18.6546 27.1523 18.7534 27.1523C19.7321 27.1523 20.5294 27.9496 20.5294 28.9283Z" fill="#AF3345"/>
<path opacity="0.5" d="M19.9628 28.929C19.9628 29.8089 19.3175 30.5446 18.4707 30.6804C17.6277 30.5446 16.9785 29.8089 16.9785 28.929C16.9785 28.0492 17.6282 27.3135 18.4707 27.1777C19.3171 27.3135 19.9628 28.0492 19.9628 28.929Z" fill="#AF3345"/>
<path d="M18.4094 30.3314H14.6691C13.9338 30.3314 13.332 29.7296 13.332 28.9943V28.8629C13.332 28.1276 13.9338 27.5254 14.6691 27.5254H18.4094C19.1447 27.5254 19.7465 28.1272 19.7465 28.8629V28.9943C19.7469 29.7296 19.1451 30.3314 18.4094 30.3314Z" fill="#ADC8DB"/>
<path opacity="0.5" d="M18.4094 27.5254H14.6691C13.9338 27.5254 13.332 28.1272 13.332 28.8625V28.9938C13.332 29.0386 13.3408 29.0812 13.3452 29.1252C13.4124 28.4513 13.9786 27.919 14.6691 27.919H18.4094C19.0999 27.919 19.6661 28.4513 19.7333 29.1252C19.7377 29.0812 19.7465 29.0386 19.7465 28.9938V28.8625C19.7469 28.1272 19.1451 27.5254 18.4094 27.5254Z" fill="#ADC8DB"/>
<path opacity="0.8" d="M18.4094 29.4057H14.6691C14.0726 29.4057 13.5701 29.0073 13.3992 28.4648C13.3593 28.5909 13.332 28.7227 13.332 28.8615V28.9928C13.332 29.7282 13.9338 30.3299 14.6691 30.3299H18.4094C19.1447 30.3299 19.7469 29.7282 19.7469 28.9928V28.8615C19.7469 28.7227 19.7192 28.5909 19.6797 28.4648C19.5088 29.0073 19.0059 29.4057 18.4094 29.4057Z" fill="#ADC8DB"/>
<path d="M20.5294 35.0454C20.5294 36.0241 19.7317 36.8213 18.7534 36.8213C18.6546 36.8213 18.5602 36.813 18.4697 36.7967C17.6268 36.661 16.9775 35.9253 16.9775 35.0454C16.9775 34.1656 17.6272 33.4299 18.4697 33.2941C18.5602 33.2779 18.6546 33.2695 18.7534 33.2695C19.7321 33.2695 20.5294 34.0672 20.5294 35.0454Z" fill="#AF3345"/>
<path opacity="0.5" d="M19.9628 35.0462C19.9628 35.9261 19.3175 36.6618 18.4707 36.7975C17.6277 36.6618 16.9785 35.9261 16.9785 35.0462C16.9785 34.1664 17.6282 33.4307 18.4707 33.2949C19.3171 33.4307 19.9628 34.1664 19.9628 35.0462Z" fill="#AF3345"/>
<path d="M18.4094 36.449H14.6691C13.9338 36.449 13.332 35.8472 13.332 35.1114V34.9801C13.332 34.2448 13.9338 33.6426 14.6691 33.6426H18.4094C19.1447 33.6426 19.7465 34.2443 19.7465 34.9801V35.1114C19.7469 35.8472 19.1451 36.449 18.4094 36.449Z" fill="#ADC8DB"/>
<path opacity="0.5" d="M18.4094 33.6426H14.6691C13.9338 33.6426 13.332 34.2443 13.332 34.9801V35.1114C13.332 35.1562 13.3408 35.1988 13.3452 35.2428C13.4124 34.569 13.9786 34.0366 14.6691 34.0366H18.4094C19.0999 34.0366 19.6661 34.569 19.7333 35.2428C19.7377 35.1988 19.7465 35.1562 19.7465 35.1114V34.9801C19.7469 34.2443 19.1451 33.6426 18.4094 33.6426Z" fill="#ADC8DB"/>
<path opacity="0.8" d="M18.4094 35.5249H14.6691C14.0726 35.5249 13.5701 35.1265 13.3992 34.584C13.3593 34.7101 13.332 34.8418 13.332 34.9806V35.112C13.332 35.8473 13.9338 36.4491 14.6691 36.4491H18.4094C19.1447 36.4491 19.7469 35.8473 19.7469 35.112V34.9806C19.7469 34.8418 19.7192 34.7101 19.6797 34.584C19.5088 35.126 19.0059 35.5249 18.4094 35.5249Z" fill="#ADC8DB"/>
<path d="M30.092 13.616L31.7454 16.9666C31.8267 17.1318 31.9844 17.246 32.1662 17.2724L35.8639 17.8096C36.3224 17.8763 36.5056 18.4399 36.174 18.7632L33.4985 21.3715C33.3667 21.4998 33.3065 21.6851 33.3377 21.8665L33.9693 25.5492C34.0475 26.0061 33.5683 26.3544 33.158 26.1387L29.8509 24.4001C29.6879 24.3145 29.4933 24.3145 29.3304 24.4001L26.0232 26.1387C25.613 26.3544 25.1337 26.0061 25.2119 25.5492L25.8436 21.8665C25.8748 21.6851 25.8146 21.5002 25.6828 21.3715L23.0073 18.7632C22.6757 18.4399 22.8584 17.8763 23.317 17.8096L27.0146 17.2724C27.1969 17.246 27.3542 17.1314 27.4354 16.9666L29.0892 13.616C29.2944 13.2009 29.8869 13.2009 30.092 13.616Z" fill="#FFB612"/>
<path opacity="0.7" d="M25.7723 25.549L26.4039 21.8663C26.4351 21.6849 26.375 21.4999 26.2432 21.3712L23.5677 18.7629C23.236 18.4397 23.4188 17.8761 23.8774 17.8093L27.575 17.2721C27.7573 17.2458 27.9145 17.1311 27.9958 16.9664L29.6492 13.6158C29.7019 13.5095 29.7801 13.4308 29.8705 13.379C29.6083 13.2283 29.2415 13.3065 29.0891 13.6158L27.4358 16.9664C27.3545 17.1316 27.1968 17.2458 27.0149 17.2721L23.3173 17.8093C22.8587 17.8761 22.6755 18.4397 23.0072 18.7629L25.6827 21.3712C25.8145 21.4995 25.8746 21.6849 25.8435 21.8663L25.2118 25.549C25.1336 26.0058 25.6128 26.3541 26.0231 26.1385L26.0486 26.1253C25.858 26.0155 25.7293 25.8007 25.7723 25.549Z" fill="#FFB612"/>
<path opacity="0.5" d="M26.0239 26.1378L29.331 24.3993C29.494 24.3136 29.6886 24.3136 29.8516 24.3993L33.1587 26.1378C33.569 26.3535 34.0482 26.0052 33.97 25.5484L33.3384 21.8656C33.3072 21.6842 33.3674 21.4993 33.4991 21.3706L36.1746 18.7623C36.5063 18.439 36.3235 17.8755 35.865 17.8087L32.1673 17.2715L25.6123 26.1769C25.7419 26.2147 25.886 26.2103 26.0239 26.1378Z" fill="#FFB612"/>
<path opacity="0.7" d="M28.2577 18.1106C28.3412 18.4176 27.9533 18.791 27.3911 18.9434C26.8289 19.0963 26.3057 18.9711 26.2222 18.6636C26.1388 18.3566 26.5266 17.9832 27.0889 17.8308C27.6511 17.6779 28.1743 17.8031 28.2577 18.1106Z" fill="#FFB612"/>
</svg>
