<svg width="60" height="38" viewBox="0 0 60 38" fill="none" xmlns="http://www.w3.org/2000/svg">
<path d="M9.26608 5L9.26344 5.01976C9.26168 5.03294 9.2608 5.03952 9.26519 5.05358C9.22083 6.30018 9.2015 7.60346 9.29946 8.8773C9.45276 11.3051 10.0115 13.6507 11.5752 15.4398L11.5818 15.4406C11.6209 15.4929 11.6613 15.5386 11.7079 15.5852C11.6033 15.5237 11.5054 15.463 11.4 15.4081C10.6155 14.9763 9.81909 14.7159 8.8826 15.069C8.65682 15.1569 8.46443 15.2891 8.32651 15.463C7.9057 15.9361 7.82839 16.6648 8.15695 17.2583C8.40161 17.6931 8.80178 18.0169 9.20677 18.3077C9.87312 18.7759 10.5803 19.1901 11.3196 19.5222C11.3121 19.5279 11.3055 19.5266 11.2989 19.5257L11.2923 19.5248C10.9361 19.6874 10.5289 19.7357 10.1428 19.8275C9.6065 19.9443 9.02448 20.1011 8.7249 20.565C8.70909 20.5826 8.699 20.608 8.68846 20.6331C8.44774 21.0587 8.53471 21.6174 8.79519 22.0343C9.07324 22.467 9.50898 22.7758 9.95043 23.0455C10.6818 23.4764 11.4984 23.6859 12.2354 24.0777C12.774 24.3676 13.5839 25.0432 14.2371 24.9962C14.0821 25.0072 13.934 25.0195 13.7781 25.0375C13.7724 25.03 13.7724 25.03 13.7649 25.0357C13.2668 25.0713 12.7599 25.1192 12.2609 25.1609C11.6051 25.2272 10.8856 25.8312 11.1544 26.4224C11.1795 26.4796 11.2177 26.538 11.2581 26.5837C11.4755 26.8345 11.8621 26.9298 12.199 26.9979C13.8796 27.3176 15.5843 27.6076 17.1173 28.3525C18.5067 29.0307 19.6874 30.052 20.7016 31.2099C21.1541 31.7278 21.6667 32.2008 22.1191 32.7183C22.4679 33.1211 22.6278 33.4505 23.1896 33.624C23.2028 33.6258 23.2085 33.6333 23.2212 33.635L23.2278 33.6359C23.2985 33.6526 23.3574 33.6609 23.4263 33.6442C23.461 33.6359 23.49 33.6201 23.5129 33.5968C23.6648 33.4655 23.5902 33.1479 23.494 32.9344C23.295 32.5061 23.1456 32.0585 23.0516 31.5982C23.0516 31.5982 23.0451 31.5973 23.0525 31.5916C22.8329 30.6072 22.8272 29.5737 22.9243 28.5678C23.0622 27.0879 23.396 25.6362 23.5467 24.1581C23.6082 23.5871 23.6073 22.9405 23.1975 22.5421C23.0688 22.4169 22.9071 22.3339 22.7327 22.2957C22.4832 22.2201 22.2074 22.2407 21.9618 22.3255C21.5542 22.474 21.2265 22.8069 21.0056 23.1887C21.0271 23.1316 21.0495 23.0683 21.0645 23.0103C21.0653 23.0037 21.0653 23.0037 21.0662 22.9971C21.3293 22.2284 21.5788 21.4576 21.8353 20.688C22.0796 19.9566 22.326 19.2116 22.3827 18.4403C22.4319 17.7208 22.3036 16.5164 21.6412 16.0688C21.6104 16.0512 21.5797 16.0332 21.5476 16.0222C21.5476 16.0222 21.5485 16.0156 21.5419 16.0147C21.1932 15.8452 20.7403 15.9805 20.4196 16.2212C20.0783 16.4659 19.8244 16.7962 19.495 17.0492L19.4875 17.0549C19.4783 17.0734 19.4568 17.0839 19.4418 17.0949C20.008 15.6027 19.9971 13.9019 19.423 12.4137C19.3044 12.1238 19.1656 11.837 18.92 11.6424C18.9143 11.6349 18.9143 11.6349 18.9077 11.6341C18.4746 11.3055 17.8355 11.3942 17.3795 11.696C16.9372 11.9929 16.6324 12.4493 16.3477 12.9017C16.3394 12.9136 16.3302 12.9325 16.3218 12.9448C16.5458 12.5903 15.858 11.1992 15.6928 10.8623C15.3634 10.1823 14.9303 9.57396 14.4001 9.03851C13.6257 8.25488 12.8684 7.48705 11.9996 6.80357C11.772 6.62436 10.1046 5.65361 9.48877 5.20557C9.35085 5.10542 9.26212 5.02636 9.26608 5Z" fill="#007537"/>
<path opacity="0.5" d="M8.1597 17.2605C8.40436 17.6954 8.80453 18.0191 9.20952 18.3099C9.87587 18.7781 10.5831 19.1924 11.3223 19.5244C11.3149 19.5301 11.3083 19.5293 11.3017 19.5279C12.3374 19.6957 13.3526 20.0072 14.3027 20.4491C13.3609 19.3417 12.1815 18.4535 10.916 17.7468C10.3358 17.4239 9.73091 17.1314 9.21786 16.7114C8.92005 16.4624 8.64947 16.1637 8.46542 15.8176C8.40656 15.7156 8.37229 15.5843 8.32924 15.4648C7.90844 15.9384 7.83157 16.6671 8.1597 17.2605Z" fill="#007537"/>
<path opacity="0.5" d="M8.79801 22.0364C9.07606 22.4691 9.5118 22.7779 9.95325 23.0476C10.6846 23.4785 11.5012 23.6885 12.2387 24.0798C12.7772 24.3702 13.5872 25.0453 14.2404 24.9983C14.0853 25.0097 13.9373 25.0216 13.7814 25.0396C14.8496 25.2118 15.9161 25.3976 16.8996 25.8377C15.8441 24.5942 14.7139 23.3133 13.2002 22.7111C12.4996 22.4379 11.7502 22.3175 11.0176 22.1265C10.2862 21.9288 9.55264 21.6508 9.02246 21.1153C8.91265 20.9998 8.80679 20.8048 8.69127 20.6348C8.45055 21.0608 8.53753 21.6196 8.79801 22.0364Z" fill="#007537"/>
<path opacity="0.5" d="M11.2607 26.5859C11.4782 26.8368 11.8647 26.9321 12.2016 27.0002C13.8822 27.3199 15.587 27.6098 17.12 28.3548C18.5093 29.033 19.69 30.0543 20.7043 31.2122C21.1567 31.7301 21.6693 32.2031 22.1222 32.7206C22.471 33.1234 22.6309 33.4528 23.1927 33.6263C23.2058 33.6281 23.2115 33.6355 23.2243 33.6373C23.2054 33.5345 23.161 33.4282 23.114 33.3351C22.8162 32.7127 22.5109 32.0964 22.2056 31.4797C21.9939 31.0497 21.7752 30.6187 21.5129 30.2146C20.3041 28.3162 18.1535 27.0428 15.9076 26.9026C15.0089 26.8477 14.1141 26.9536 13.2093 26.9444C12.5513 26.9299 11.8691 26.8526 11.2607 26.5859Z" fill="#007537"/>
<path opacity="0.5" d="M9.2998 8.87695C9.4531 11.3047 10.0118 13.6503 11.5756 15.4394L11.5822 15.4403C11.8751 15.5822 12.1905 15.6604 12.4835 15.8022C13.1077 16.0979 13.5773 16.6381 14.0222 17.1613C13.8382 15.7421 13.0941 14.463 12.2534 13.3033C11.4117 12.1503 10.4533 11.0671 9.75883 9.8152C9.58928 9.51123 9.43422 9.19629 9.2998 8.87695Z" fill="#007537"/>
<path opacity="0.3" d="M8.32651 15.4617C7.9057 15.9348 7.82839 16.6635 8.15695 17.257C8.40161 17.6918 8.80178 18.0156 9.20677 18.3063C9.87312 18.7746 10.5803 19.1888 11.3196 19.5209C11.3121 19.5266 11.3055 19.5253 11.2989 19.5244L11.2923 19.5235C10.9361 19.686 10.5289 19.7344 10.1428 19.8262C9.6065 19.943 9.02448 20.0998 8.7249 20.5637C8.70909 20.5813 8.699 20.6067 8.68846 20.6318C8.44775 21.0574 8.53471 21.6161 8.79519 22.033C9.07324 22.4657 9.50898 22.7745 9.95043 23.0442C10.6818 23.4751 11.4984 23.6846 12.2354 24.0764C12.774 24.3663 13.5839 25.0419 14.2371 24.9949C14.0821 25.0059 13.934 25.0182 13.7781 25.0362C13.7724 25.0287 13.7724 25.0287 13.7649 25.0344C13.2668 25.07 12.7599 25.1179 12.2609 25.1596C11.6051 25.2259 10.8856 25.8299 11.1544 26.4211C11.1795 26.4782 11.2177 26.5367 11.2581 26.5823C11.4755 26.8332 11.8621 26.9285 12.199 26.9966C13.8796 27.3163 15.5843 27.6063 17.1173 28.3512C18.5067 29.0294 19.6874 30.0507 20.7016 31.2086C21.1541 31.7265 21.6667 32.1995 22.1191 32.717C22.4679 33.1198 22.6278 33.4492 23.1896 33.6227C23.2028 33.6245 23.2085 33.632 23.2212 33.6337L23.2278 33.6346C23.2985 33.6513 23.3574 33.6596 23.4263 33.6429C23.461 33.6346 23.49 33.6188 23.5129 33.5955C23.2489 32.8782 22.9221 32.178 22.6651 31.4554C22.1275 29.9457 21.9263 28.3178 22.0734 26.726C22.1134 26.3052 22.16 25.8387 21.8863 25.5132C21.3096 24.8376 21.0429 25.8659 20.7117 26.039C20.5176 26.1378 20.2712 26.0429 20.135 25.8769C19.9975 25.7175 19.9426 25.4965 19.893 25.2826C19.6083 23.9622 19.5367 22.5926 19.6821 21.2472C19.7164 20.9586 19.7585 20.6647 19.665 20.3849C19.5705 20.1117 19.2982 19.8727 19.0109 19.925C18.6415 19.9922 18.5229 20.4486 18.4056 20.8048C18.2879 21.1611 17.9185 21.5551 17.6014 21.35C17.51 21.2902 17.4569 21.1962 17.4037 21.1018C17.047 20.4244 16.8854 19.6417 16.9618 18.8725C17.0633 17.741 17.6462 16.5511 17.1599 15.5219C17.1186 15.4363 17.0646 15.3484 16.9855 15.297C16.8384 15.2092 16.6451 15.2553 16.505 15.3484C15.8667 15.7573 15.8949 16.6811 15.6339 17.3901C15.5808 17.5289 15.4714 17.687 15.3309 17.6466C15.2412 17.6207 15.1881 17.5262 15.1534 17.4415C14.4405 15.807 14.3056 13.9481 13.457 12.3742C13.0199 11.559 12.4089 10.8452 11.8555 10.0998C11.107 9.08684 10.4705 7.98957 9.95527 6.83609C9.70885 6.27428 9.48395 5.70237 9.29419 5.11553C9.28496 5.08742 9.27617 5.05316 9.26124 5.01758C9.22127 6.27824 9.20106 7.5881 9.2977 8.87468C9.451 11.3024 10.0097 13.6481 11.5735 15.4371L11.5801 15.438C11.6192 15.4903 11.6596 15.536 11.7061 15.5825C11.6016 15.521 11.5036 15.4604 11.3982 15.4055C10.6137 14.9737 9.81734 14.7132 8.88085 15.0664C8.65683 15.1556 8.46487 15.2882 8.32651 15.4617Z" fill="#007537"/>
<path opacity="0.5" d="M9.2658 5L9.26316 5.01976C9.2614 5.03294 9.26052 5.03952 9.26491 5.05358C9.49904 5.3268 9.86889 5.5864 10.0938 5.73839C11.2745 6.52641 12.3678 7.45586 13.3394 8.49382C13.5766 8.74771 13.8059 9.00688 14.0273 9.27834C14.2487 9.5498 14.4547 9.83268 14.6537 10.1208C14.8514 10.4156 15.0288 10.7143 15.1913 11.0239C15.3547 11.327 15.4966 11.6406 15.617 11.9644C15.7307 12.2872 15.8309 12.6145 15.8964 12.9505C15.9223 13.0941 15.9477 13.2444 15.9662 13.3937C15.9851 13.5431 16.0145 13.7073 15.9943 13.851C15.9737 13.9946 15.9868 14.1365 16.0347 14.27C16.0312 14.2028 16.0272 14.1356 16.0431 14.071C16.0646 13.9208 16.0988 13.7724 16.1335 13.6243C16.1511 13.547 16.1678 13.4758 16.1924 13.3994C16.2315 13.265 16.2846 13.1258 16.3303 12.9927C16.3417 12.961 16.3453 12.9347 16.3497 12.9022C16.3413 12.914 16.3321 12.9329 16.3237 12.9452C16.5478 12.5908 15.8599 11.1996 15.6947 10.8627C15.3653 10.1828 14.9322 9.57439 14.402 9.03894C13.6276 8.25531 12.8703 7.4875 12.0015 6.80402C11.7739 6.6248 10.1065 5.65405 9.4907 5.20601C9.35057 5.10542 9.26185 5.02636 9.2658 5Z" fill="#007537"/>
<path opacity="0.5" d="M19.2925 12.3085C19.622 13.2217 19.6531 14.2193 19.5543 15.1918C19.4647 16.0057 19.2903 16.8069 19.0268 17.5822C19.2424 17.4728 19.3777 17.2725 19.4884 17.0551C19.4792 17.0735 19.4577 17.0841 19.4427 17.095C20.0089 15.6029 19.9979 13.9021 19.4238 12.4139C19.3052 12.124 19.1664 11.8372 18.9209 11.6426C19.0948 11.8271 19.2003 12.0687 19.2925 12.3085Z" fill="#007537"/>
<path opacity="0.5" d="M22.0413 17.1989C22.1239 18.4433 22.0009 19.1193 21.7611 20.2381C21.53 21.298 20.825 23.2966 20.7578 23.4873C20.7776 23.4433 20.9032 23.2615 21.0657 23.0115C21.0666 23.005 21.0666 23.005 21.0675 22.9984C21.3306 22.2297 21.5801 21.4588 21.8366 20.6892C22.0808 19.9578 22.3273 19.2129 22.3839 18.4415C22.4331 17.722 22.3049 16.5176 21.6425 16.07C21.6117 16.0524 21.581 16.0344 21.5489 16.0234C21.7874 16.2699 21.9991 16.6533 22.0413 17.1989Z" fill="#007537"/>
<path opacity="0.5" d="M22.7337 22.2969C22.9371 22.506 23.1304 22.8798 23.2143 23.5518C23.4181 25.1604 22.8268 26.4087 22.6749 28.2202C22.5659 29.5441 22.623 30.6853 23.0535 31.5933C22.8339 30.6089 22.8281 29.5753 22.9252 28.5694C23.0631 27.0896 23.397 25.6378 23.5477 24.1598C23.6092 23.5887 23.6083 22.9421 23.1984 22.5437C23.0693 22.4181 22.9081 22.3351 22.7337 22.2969Z" fill="#007537"/>
<path d="M0 15.5156L0.00746658 15.5336C0.0122984 15.5455 0.0149305 15.5516 0.0259118 15.5613C0.613195 16.6471 1.25055 17.7686 1.97312 18.8057C3.32163 20.7994 4.97456 22.5204 7.20597 23.2623L7.21211 23.2597C7.27185 23.2847 7.32896 23.3036 7.39221 23.3199C7.27229 23.3199 7.15809 23.3172 7.04081 23.3234C6.15483 23.3484 5.34529 23.5259 4.7233 24.2968C4.57483 24.4848 4.47732 24.6943 4.44657 24.9117C4.3249 25.5262 4.62447 26.1864 5.20209 26.5282C5.6286 26.7764 6.13287 26.8519 6.62396 26.8967C7.42735 26.9622 8.23822 26.9604 9.03503 26.873C9.03152 26.8818 9.02537 26.884 9.01966 26.8866L9.0135 26.8892C8.7908 27.2064 8.46839 27.4519 8.18463 27.7238C7.78579 28.0924 7.36761 28.5185 7.34477 29.064C7.34038 29.0873 7.3439 29.1136 7.34785 29.1404C7.35576 29.624 7.71024 30.0572 8.14159 30.2825C8.59578 30.5122 9.12243 30.557 9.63417 30.5654C10.4745 30.5663 11.2761 30.3356 12.101 30.3001C12.7059 30.2777 13.7355 30.4472 14.2692 30.08C14.1427 30.1674 14.0223 30.2517 13.898 30.3453C13.8897 30.3418 13.8897 30.3418 13.8861 30.3501C13.479 30.6304 13.0709 30.9251 12.6663 31.2115C12.1401 31.5972 11.8296 32.4731 12.3554 32.8425C12.4054 32.8785 12.4674 32.9092 12.5245 32.9281C12.8359 33.0331 13.2132 32.9207 13.5343 32.8095C15.1284 32.2394 16.7277 31.6319 18.4092 31.4984C19.9343 31.3798 21.4536 31.6591 22.8997 32.1379C23.5454 32.3527 24.2196 32.499 24.8653 32.7138C25.3652 32.8824 25.6665 33.0832 26.2327 32.9496C26.245 32.9448 26.2534 32.9483 26.2657 32.9431L26.2718 32.9404C26.3408 32.9193 26.3953 32.8969 26.4458 32.8477C26.4708 32.8231 26.4875 32.795 26.4958 32.7638C26.5595 32.5754 26.3368 32.3422 26.1475 32.2082C25.7632 31.9424 25.4109 31.6354 25.0999 31.2906C25.0999 31.2906 25.0937 31.2928 25.0977 31.2844C24.4168 30.5548 23.8933 29.6759 23.4716 28.7693C22.847 27.4379 22.4037 26.0318 21.791 24.6956C21.5569 24.1777 21.2318 23.6265 20.6827 23.4925C20.5101 23.4503 20.3309 23.4604 20.1627 23.5153C19.9123 23.576 19.687 23.7319 19.52 23.9274C19.2468 24.2586 19.1344 24.707 19.1374 25.1432C19.1273 25.0839 19.1146 25.0185 19.0983 24.9618C19.0957 24.9557 19.0957 24.9556 19.0935 24.9499C18.9323 24.1619 18.7588 23.3792 18.5914 22.5942C18.4329 21.8475 18.2695 21.0889 17.9308 20.4023C17.6119 19.7641 16.8986 18.8008 16.1088 18.7512C16.0736 18.7516 16.0385 18.7516 16.006 18.7582C16.006 18.7582 16.0034 18.7521 15.9977 18.7547C15.6146 18.785 15.2966 19.1272 15.1437 19.4935C14.9751 19.8735 14.9245 20.2824 14.7704 20.6633L14.7669 20.672C14.7682 20.6927 14.755 20.712 14.748 20.7291C14.4827 19.1724 13.6204 17.7268 12.3843 16.7455C12.1375 16.5575 11.8753 16.3827 11.5682 16.3397C11.5599 16.3362 11.5599 16.3362 11.5537 16.3388C11.0196 16.276 10.5188 16.6722 10.2812 17.158C10.0528 17.6328 10.0216 18.1753 10.0058 18.7037C10.0049 18.7182 10.0062 18.7389 10.0049 18.7534C10.0181 18.3387 8.7337 17.4971 8.42359 17.2924C7.80116 16.8778 7.1269 16.576 6.40608 16.3849C5.35231 16.1051 4.32183 15.8297 3.23775 15.6821C2.95399 15.6434 1.04454 15.6518 0.294293 15.5784C0.125619 15.5631 0.0101029 15.5398 0 15.5156Z" fill="#009245"/>
<path opacity="0.5" d="M5.20544 26.5286C5.63196 26.7767 6.13578 26.8519 6.62731 26.8971C7.4307 26.9625 8.24157 26.9608 9.03838 26.8734C9.03487 26.8822 9.02871 26.8844 9.02256 26.887C9.99024 26.5106 11.0124 26.2672 12.0442 26.1679C10.6856 25.6957 9.23429 25.5297 7.80012 25.5613C7.143 25.5771 6.4806 25.6303 5.83226 25.5297C5.45362 25.4664 5.07279 25.3474 4.74247 25.1445C4.64144 25.0874 4.54569 24.9925 4.44949 24.9121C4.32826 25.5271 4.62782 26.1873 5.20544 26.5286Z" fill="#009245"/>
<path opacity="0.5" d="M8.14521 30.2821C8.5994 30.5118 9.12605 30.5566 9.63779 30.5654C10.4781 30.5659 11.2797 30.3357 12.1046 30.3001C12.7095 30.2777 13.7391 30.4473 14.2728 30.0801C14.1463 30.1675 14.0259 30.2523 13.9016 30.3454C14.8996 29.9566 15.9024 29.5802 16.9619 29.462C15.4377 28.9305 13.8314 28.4047 12.2382 28.6498C11.5033 28.7684 10.804 29.0412 10.0832 29.2459C9.36018 29.444 8.595 29.5749 7.87418 29.3843C7.7222 29.3408 7.53463 29.2275 7.35059 29.1405C7.35937 29.6237 7.71386 30.0568 8.14521 30.2821Z" fill="#009245"/>
<path opacity="0.5" d="M12.5283 32.9283C12.8398 33.0333 13.2171 32.9208 13.5382 32.8097C15.1322 32.2395 16.7315 31.632 18.413 31.4985C19.9385 31.3799 21.4575 31.6593 22.9035 32.1381C23.5492 32.3529 24.2235 32.4991 24.8692 32.7139C25.3691 32.8826 25.6704 33.0833 26.2366 32.9498C26.2484 32.945 26.2572 32.9485 26.2691 32.9436C26.2019 32.8655 26.1101 32.7974 26.0235 32.7411C25.4573 32.3599 24.8881 31.9865 24.3179 31.6136C23.9217 31.3527 23.5189 31.0948 23.0928 30.8818C21.1096 29.8684 18.6362 29.861 16.6503 30.8677C15.8561 31.2714 15.1458 31.8104 14.3692 32.2567C13.8017 32.5747 13.1811 32.851 12.5283 32.9283Z" fill="#009245"/>
<path opacity="0.5" d="M1.97266 18.8047C3.32117 20.7985 4.9741 22.5195 7.20551 23.2614L7.21165 23.2587C7.53274 23.2328 7.8411 23.1414 8.1622 23.1155C8.84304 23.0545 9.51423 23.2798 10.1564 23.5029C9.28801 22.3846 8.01154 21.6669 6.71266 21.0994C5.41642 20.538 4.05561 20.0948 2.83536 19.3753C2.53755 19.2009 2.24719 19.0098 1.97266 18.8047Z" fill="#009245"/>
<path opacity="0.3" d="M4.44638 24.9104C4.32471 25.5249 4.62428 26.1851 5.2019 26.5269C5.62842 26.775 6.13268 26.8506 6.62377 26.8954C7.42716 26.9608 8.23803 26.9591 9.03484 26.8717C9.03133 26.8805 9.02518 26.8827 9.01947 26.8853L9.01331 26.8879C8.79061 27.2051 8.4682 27.4506 8.18444 27.7225C7.7856 28.0911 7.36743 28.5171 7.34459 29.0627C7.3402 29.086 7.34371 29.1123 7.34766 29.1391C7.35557 29.6227 7.71005 30.0558 8.1414 30.2812C8.59559 30.5109 9.12225 30.5557 9.63398 30.5641C10.4743 30.5649 11.2759 30.3343 12.1008 30.2987C12.7057 30.2763 13.7353 30.4459 14.269 30.0787C14.1425 30.1661 14.0221 30.2504 13.8978 30.344C13.8895 30.3405 13.8895 30.3405 13.886 30.3488C13.4788 30.6291 13.0707 30.9238 12.6662 31.2102C12.1399 31.5959 11.8294 32.4717 12.3552 32.8412C12.4052 32.8772 12.4672 32.9079 12.5243 32.9268C12.8357 33.0318 13.213 32.9193 13.5341 32.8082C15.1282 32.238 16.7275 31.6306 18.409 31.497C19.9341 31.3784 21.4534 31.6578 22.8995 32.1366C23.5452 32.3514 24.2194 32.4977 24.8651 32.7125C25.365 32.8811 25.6663 33.0819 26.2325 32.9483C26.2448 32.9435 26.2532 32.947 26.2655 32.9417L26.2716 32.9391C26.3406 32.918 26.3951 32.8956 26.4456 32.8464C26.4706 32.8218 26.4873 32.7937 26.4957 32.7625C25.9106 32.2829 25.2811 31.8498 24.6991 31.3622C23.4832 30.344 22.4954 29.0561 21.8224 27.6246C21.6454 27.2455 21.4512 26.8242 21.0546 26.6837C20.224 26.3968 20.5121 27.4076 20.3162 27.7212C20.2003 27.903 19.9424 27.9452 19.743 27.8719C19.5458 27.8047 19.3881 27.6434 19.2387 27.4862C18.3334 26.5027 17.5858 25.3703 17.035 24.1496C16.9199 23.8865 16.8083 23.6146 16.5883 23.4227C16.3708 23.2369 16.0185 23.1696 15.7994 23.3585C15.5178 23.601 15.6456 24.0499 15.7243 24.4127C15.8029 24.7756 15.6852 25.297 15.3114 25.2811C15.2033 25.2759 15.1106 25.2223 15.0184 25.1687C14.3744 24.7698 13.8438 24.183 13.5236 23.489C13.0426 22.4725 12.9429 21.1653 12.0121 20.5315C11.9339 20.4788 11.8439 20.4313 11.7503 20.4274C11.5808 20.4265 11.4389 20.5622 11.3664 20.712C11.0273 21.381 11.5144 22.1545 11.6475 22.8907C11.6721 23.0361 11.6581 23.2254 11.5175 23.2614C11.4279 23.2843 11.3352 23.2307 11.2632 23.1753C9.83516 22.1387 8.78798 20.6206 7.27518 19.7039C6.49331 19.2273 5.61436 18.9251 4.76836 18.5671C3.6219 18.0782 2.5286 17.4615 1.51041 16.7363C1.01844 16.381 0.53966 16.0058 0.0837136 15.6004C0.0617508 15.5811 0.0371445 15.556 0.00683594 15.5332C0.605101 16.6283 1.24466 17.7558 1.9725 18.8052C3.32102 20.799 4.97393 22.52 7.20534 23.2619L7.21149 23.2592C7.27123 23.2843 7.32834 23.3032 7.39159 23.3194C7.27167 23.3194 7.15746 23.3168 7.04018 23.3229C6.1542 23.348 5.34466 23.5254 4.72267 24.2963C4.57464 24.4839 4.47713 24.6934 4.44638 24.9104Z" fill="#009245"/>
<path opacity="0.5" d="M0 15.5156L0.00746658 15.5336C0.0122984 15.5455 0.0149305 15.5516 0.0259118 15.5613C0.36282 15.6768 0.808221 15.7129 1.07617 15.7295C2.47827 15.8099 3.8773 16.0541 5.22669 16.4526C5.55613 16.5501 5.88205 16.6564 6.20666 16.7767C6.53171 16.8975 6.84929 17.035 7.16336 17.1813C7.48006 17.3333 7.78096 17.4993 8.07482 17.682C8.36604 17.8586 8.64453 18.055 8.9094 18.2706C9.16856 18.4889 9.41806 18.7182 9.64208 18.9717C9.73652 19.0811 9.83315 19.1966 9.92408 19.3147C10.015 19.4325 10.1226 19.5576 10.1771 19.6907C10.2316 19.8234 10.3141 19.938 10.4213 20.0277C10.3844 19.9723 10.3475 19.917 10.3286 19.8541C10.2715 19.7153 10.2267 19.5713 10.1815 19.4276C10.1578 19.3525 10.1362 19.2836 10.1187 19.2062C10.0848 19.0718 10.0602 18.9264 10.0321 18.7898C10.026 18.7573 10.0159 18.7332 10.0036 18.7029C10.0027 18.7174 10.004 18.738 10.0027 18.7525C10.0159 18.3378 8.7315 17.4962 8.42139 17.2915C7.79897 16.8769 7.1247 16.5751 6.40389 16.384C5.35011 16.1042 4.31963 15.8288 3.23555 15.6812C2.95179 15.6426 1.04234 15.6509 0.292095 15.5776C0.125617 15.5631 0.0101029 15.5398 0 15.5156Z" fill="#009245"/>
<path opacity="0.5" d="M12.2188 16.7216C12.9581 17.3352 13.4847 18.1707 13.888 19.0496C14.2196 19.7884 14.4731 20.5598 14.6369 21.3535C14.766 21.1523 14.7805 20.9134 14.766 20.6722C14.7674 20.6929 14.7542 20.7122 14.7472 20.7293C14.4818 19.1726 13.6196 17.727 12.3835 16.7457C12.1367 16.5577 11.8744 16.3829 11.5674 16.3398C11.8085 16.4101 12.0198 16.5634 12.2188 16.7216Z" fill="#009245"/>
<path opacity="0.5" d="M17.0157 19.5154C17.7102 20.5358 17.9443 21.1736 18.301 22.2484C18.6352 23.2684 19.0363 25.3272 19.0745 25.5231C19.0692 25.4756 19.0855 25.2573 19.0982 24.9626C19.0956 24.9564 19.0956 24.9564 19.0934 24.9507C18.9322 24.1627 18.7587 23.38 18.5913 22.595C18.4327 21.8483 18.2693 21.0897 17.9307 20.4031C17.6118 19.7649 16.8984 18.8016 16.1086 18.752C16.0735 18.7524 16.0384 18.7524 16.0059 18.759C16.3331 18.8499 16.7065 19.0709 17.0157 19.5154Z" fill="#009245"/>
<path opacity="0.5" d="M20.1631 23.5157C20.4416 23.5921 20.7939 23.8144 21.2024 24.345C22.1828 25.6149 22.3045 26.9766 23.0837 28.5974C23.6547 29.7816 24.2758 30.726 25.0981 31.2848C24.4173 30.5552 23.8937 29.6762 23.472 28.7696C22.8474 27.4382 22.4042 26.0322 21.7914 24.6959C21.5573 24.1781 21.2322 23.6268 20.6832 23.4928C20.5101 23.4507 20.3309 23.4608 20.1631 23.5157Z" fill="#009245"/>
<path d="M50.7339 5L50.7366 5.01976C50.7383 5.03294 50.7392 5.03952 50.7348 5.05358C50.7792 6.30018 50.7985 7.60346 50.7006 8.8773C50.5473 11.3051 49.9885 13.6507 48.4244 15.4398L48.4178 15.4406C48.3787 15.4929 48.3383 15.5386 48.2917 15.5852C48.3962 15.5237 48.4942 15.463 48.5996 15.4081C49.3841 14.9763 50.1805 14.7159 51.117 15.069C51.3428 15.1569 51.5352 15.2891 51.6731 15.463C52.0939 15.9361 52.1712 16.6648 51.8426 17.2583C51.598 17.6931 51.1978 18.0169 50.7928 18.3077C50.1265 18.7759 49.4193 19.1901 48.68 19.5222C48.6875 19.5279 48.6941 19.5266 48.7006 19.5257L48.7072 19.5248C49.0635 19.6874 49.4707 19.7357 49.8568 19.8275C50.3931 19.9443 50.9751 20.1011 51.2747 20.565C51.2905 20.5826 51.301 20.608 51.3111 20.6331C51.5519 21.0587 51.4649 21.6174 51.2044 22.0343C50.9263 22.467 50.4906 22.7758 50.0492 23.0455C49.3178 23.4764 48.5012 23.6859 47.7642 24.0777C47.2256 24.3676 46.4156 25.0432 45.7625 24.9962C45.9171 25.0072 46.0656 25.0195 46.2215 25.0375C46.2272 25.03 46.2272 25.03 46.2347 25.0357C46.7328 25.0713 47.2397 25.1192 47.7387 25.1609C48.3945 25.2272 49.114 25.8312 48.8452 26.4224C48.8197 26.4796 48.7815 26.538 48.7415 26.5837C48.5241 26.8345 48.1375 26.9298 47.801 26.9979C46.1205 27.3176 44.4157 27.6076 42.8827 28.3525C41.4934 29.0307 40.3126 30.052 39.2984 31.2099C38.846 31.7278 38.3334 32.2008 37.8809 32.7183C37.5317 33.1211 37.3723 33.4505 36.8105 33.624C36.7973 33.6258 36.7916 33.6333 36.7788 33.635L36.7723 33.6359C36.7015 33.6526 36.6427 33.6609 36.5737 33.6442C36.539 33.6359 36.5104 33.6201 36.4872 33.5968C36.3352 33.4655 36.4099 33.1479 36.5061 32.9344C36.705 32.5061 36.8544 32.0585 36.9484 31.5982C36.9484 31.5982 36.955 31.5973 36.9475 31.5916C37.1671 30.6072 37.1728 29.5737 37.0762 28.5678C36.9383 27.0879 36.6045 25.6362 36.4538 24.1581C36.3923 23.5871 36.3932 22.9405 36.803 22.5421C36.9317 22.4169 37.0933 22.3339 37.2677 22.2957C37.5168 22.2201 37.7931 22.2407 38.0386 22.3255C38.4462 22.474 38.7739 22.8069 38.9949 23.1887C38.9734 23.1316 38.951 23.0683 38.936 23.0103C38.9351 23.0037 38.9351 23.0037 38.9343 22.9971C38.6711 22.2284 38.4212 21.4576 38.1647 20.688C37.9205 19.9566 37.674 19.2116 37.6174 18.4403C37.5682 17.7208 37.696 16.5164 38.3588 16.0688C38.3896 16.0512 38.4203 16.0332 38.4519 16.0222C38.4519 16.0222 38.4511 16.0156 38.4577 16.0147C38.8064 15.8452 39.2593 15.9805 39.58 16.2212C39.9213 16.4659 40.1751 16.7962 40.5046 17.0492L40.5121 17.0549C40.5213 17.0734 40.5428 17.0839 40.5577 17.0949C39.9915 15.6027 40.0025 13.9019 40.5766 12.4137C40.6952 12.1238 40.8345 11.837 41.0796 11.6424C41.0853 11.6349 41.0853 11.6349 41.0919 11.6341C41.525 11.3055 42.1641 11.3942 42.62 11.696C43.0624 11.9929 43.3672 12.4493 43.6519 12.9017C43.6602 12.9136 43.6694 12.9325 43.6778 12.9448C43.4537 12.5903 44.1421 11.1992 44.3068 10.8623C44.6362 10.1823 45.0693 9.57396 45.5995 9.03851C46.3743 8.25488 47.1308 7.48705 47.9996 6.80357C48.2271 6.62436 49.895 5.65361 50.5108 5.20557C50.6487 5.10542 50.7375 5.02636 50.7339 5Z" fill="#007537"/>
<path opacity="0.5" d="M51.8402 17.2605C51.5956 17.6954 51.1954 18.0191 50.7904 18.3099C50.1241 18.7781 49.4169 19.1924 48.6776 19.5244C48.6851 19.5301 48.6917 19.5293 48.6983 19.5279C47.6625 19.6957 46.6474 20.0072 45.6973 20.4491C46.639 19.3417 47.8184 18.4535 49.0839 17.7468C49.6642 17.4239 50.269 17.1314 50.7821 16.7114C51.0799 16.4624 51.3505 16.1637 51.5341 15.8176C51.5929 15.7156 51.6276 15.5843 51.6702 15.4648C52.0915 15.9384 52.1688 16.6671 51.8402 17.2605Z" fill="#007537"/>
<path opacity="0.5" d="M51.2022 22.0364C50.9242 22.4691 50.4884 22.7779 50.047 23.0476C49.3156 23.4785 48.499 23.6885 47.762 24.0798C47.2234 24.3702 46.4135 25.0453 45.7603 24.9983C45.9153 25.0097 46.0638 25.0216 46.2193 25.0396C45.151 25.2118 44.0845 25.3976 43.1006 25.8377C44.1561 24.5942 45.2863 23.3133 46.8 22.7111C47.5006 22.4379 48.25 22.3175 48.9827 22.1265C49.714 21.9288 50.4476 21.6508 50.9777 21.1153C51.088 20.9998 51.1934 20.8048 51.3089 20.6348C51.5497 21.0608 51.4627 21.6196 51.2022 22.0364Z" fill="#007537"/>
<path opacity="0.5" d="M48.739 26.5859C48.5216 26.8368 48.1355 26.9321 47.7986 27.0002C46.118 27.3199 44.4132 27.6098 42.8802 28.3548C41.4909 29.033 40.3102 30.0543 39.2959 31.2122C38.8431 31.7301 38.3309 32.2031 37.8785 32.7206C37.5293 33.1234 37.3698 33.4528 36.808 33.6263C36.7948 33.6281 36.7891 33.6355 36.7764 33.6373C36.7953 33.5345 36.8396 33.4282 36.8866 33.3351C37.1844 32.7127 37.4897 32.0964 37.795 31.4797C38.0067 31.0497 38.225 30.6187 38.4877 30.2146C39.6965 28.3162 41.8476 27.0428 44.093 26.9026C44.9917 26.8477 45.8865 26.9536 46.7914 26.9444C47.4485 26.9299 48.1307 26.8526 48.739 26.5859Z" fill="#007537"/>
<path opacity="0.5" d="M50.7004 8.87695C50.5471 11.3047 49.9884 13.6503 48.4242 15.4394L48.4176 15.4403C48.1246 15.5822 47.8092 15.6604 47.5162 15.8022C46.8921 16.0979 46.4225 16.6381 45.9775 17.1613C46.1616 15.7421 46.9057 14.463 47.7464 13.3033C48.5885 12.1503 49.5465 11.0671 50.2409 9.8152C50.4114 9.51123 50.566 9.19629 50.7004 8.87695Z" fill="#007537"/>
<path opacity="0.3" d="M51.6732 15.4617C52.094 15.9348 52.1713 16.6635 51.8428 17.257C51.5981 17.6918 51.1979 18.0156 50.7929 18.3063C50.1266 18.7746 49.4194 19.1888 48.6801 19.5209C48.6876 19.5266 48.6942 19.5253 48.7008 19.5244L48.7074 19.5235C49.0636 19.686 49.4708 19.7344 49.8569 19.8262C50.3932 19.943 50.9752 20.0998 51.2748 20.5637C51.2906 20.5813 51.3012 20.6067 51.3113 20.6318C51.552 21.0574 51.465 21.6161 51.2045 22.033C50.9265 22.4657 50.4907 22.7745 50.0493 23.0442C49.3179 23.4751 48.5014 23.6846 47.7643 24.0764C47.2258 24.3663 46.4158 25.0419 45.7626 24.9949C45.9172 25.0059 46.0657 25.0182 46.2216 25.0362C46.2273 25.0287 46.2273 25.0287 46.2348 25.0344C46.7329 25.07 47.2398 25.1179 47.7388 25.1596C48.3946 25.2259 49.1141 25.8299 48.8453 26.4211C48.8198 26.4782 48.7816 26.5367 48.7416 26.5823C48.5242 26.8332 48.1377 26.9285 47.8012 26.9966C46.1206 27.3163 44.4159 27.6063 42.8829 28.3512C41.4935 29.0294 40.3128 30.0507 39.2985 31.2086C38.8461 31.7265 38.3335 32.1995 37.8811 32.717C37.5319 33.1198 37.3724 33.4492 36.8106 33.6227C36.7974 33.6245 36.7917 33.632 36.779 33.6337L36.7724 33.6346C36.7017 33.6513 36.6428 33.6596 36.5738 33.6429C36.5391 33.6346 36.5106 33.6188 36.4873 33.5955C36.7513 32.8782 37.0781 32.178 37.3351 31.4554C37.8727 29.9457 38.0739 28.3178 37.9267 26.726C37.8868 26.3052 37.8402 25.8387 38.1139 25.5132C38.6906 24.8376 38.9572 25.8659 39.2884 26.039C39.4826 26.1378 39.729 26.0429 39.8652 25.8769C40.0022 25.7175 40.0576 25.4965 40.1068 25.2826C40.3918 23.9622 40.463 22.5926 40.3176 21.2472C40.2833 20.9586 40.2412 20.6647 40.3347 20.3849C40.4292 20.1117 40.7015 19.8727 40.9888 19.925C41.3582 19.9922 41.4768 20.4486 41.5941 20.8048C41.7118 21.1611 42.0812 21.5551 42.3984 21.35C42.4897 21.2902 42.5429 21.1962 42.596 21.1018C42.9527 20.4244 43.1143 19.6417 43.0379 18.8725C42.9364 17.741 42.3536 16.5511 42.8398 15.5219C42.8811 15.4363 42.9351 15.3484 43.0142 15.297C43.1618 15.2092 43.3546 15.2553 43.4947 15.3484C44.133 15.7573 44.1049 16.6811 44.3658 17.3901C44.4189 17.5289 44.5283 17.687 44.6693 17.6466C44.7589 17.6207 44.8121 17.5262 44.8468 17.4415C45.5601 15.807 45.6945 13.9481 46.5432 12.3742C46.9802 11.559 47.5912 10.8452 48.1447 10.0998C48.8932 9.08684 49.5297 7.98957 50.0449 6.83609C50.2913 6.27428 50.5162 5.70237 50.706 5.11553C50.7152 5.08742 50.7236 5.05316 50.7389 5.01758C50.7789 6.27824 50.7991 7.5881 50.7025 8.87468C50.5492 11.3024 49.9904 13.6481 48.4262 15.4371L48.4197 15.438C48.3806 15.4903 48.3401 15.536 48.2936 15.5825C48.3981 15.521 48.4961 15.4604 48.6015 15.4055C49.386 14.9737 50.1824 14.7132 51.1189 15.0664C51.3429 15.1556 51.5353 15.2882 51.6732 15.4617Z" fill="#007537"/>
<path opacity="0.5" d="M50.7346 5L50.7373 5.01976C50.739 5.03294 50.7399 5.03952 50.7355 5.05358C50.5014 5.3268 50.1315 5.5864 49.9066 5.73839C48.7264 6.52641 47.6326 7.45586 46.661 8.49382C46.4238 8.74771 46.1945 9.00688 45.9731 9.27834C45.7517 9.5498 45.5457 9.83268 45.3467 10.1208C45.1491 10.4156 44.9716 10.7143 44.8091 11.0239C44.6457 11.327 44.5038 11.6406 44.3834 11.9644C44.2697 12.2872 44.1695 12.6145 44.1041 12.9505C44.0781 13.0941 44.0527 13.2444 44.0342 13.3937C44.0153 13.5431 43.9855 13.7073 44.0061 13.851C44.0268 13.9946 44.0136 14.1365 43.9657 14.27C43.9697 14.2028 43.9732 14.1356 43.9574 14.071C43.9358 13.9208 43.9016 13.7724 43.8669 13.6243C43.8493 13.547 43.8326 13.4758 43.808 13.3994C43.7689 13.265 43.7158 13.1258 43.6701 12.9927C43.6591 12.961 43.6552 12.9347 43.6503 12.9022C43.6587 12.914 43.6679 12.9329 43.6762 12.9452C43.4522 12.5908 44.1405 11.1996 44.3052 10.8627C44.6347 10.1828 45.0678 9.57439 45.598 9.03894C46.3728 8.25531 47.1292 7.4875 47.9981 6.80402C48.2256 6.6248 49.8934 5.65405 50.5093 5.20601C50.6494 5.10542 50.7381 5.02636 50.7346 5Z" fill="#007537"/>
<path opacity="0.5" d="M40.7071 12.3085C40.3777 13.2217 40.3465 14.2193 40.4453 15.1918C40.5345 16.0057 40.7089 16.8069 40.9729 17.5822C40.7572 17.4728 40.6224 17.2725 40.5112 17.0551C40.5205 17.0735 40.542 17.0841 40.5569 17.095C39.9907 15.6029 40.0017 13.9021 40.5758 12.4139C40.6944 12.124 40.8336 11.8372 41.0787 11.6426C40.9048 11.8271 40.7994 12.0687 40.7071 12.3085Z" fill="#007537"/>
<path opacity="0.5" d="M37.959 17.1989C37.8764 18.4433 37.9994 19.1193 38.2392 20.2381C38.4703 21.298 39.1753 23.2966 39.2425 23.4873C39.2227 23.4433 39.0971 23.2615 38.9345 23.0115C38.9337 23.005 38.9337 23.005 38.9328 22.9984C38.6697 22.2297 38.4197 21.4588 38.1632 20.6892C37.919 19.9578 37.6726 19.2129 37.6159 18.4415C37.5667 17.722 37.6945 16.5176 38.3574 16.07C38.3881 16.0524 38.4189 16.0344 38.4505 16.0234C38.2128 16.2699 38.0011 16.6533 37.959 17.1989Z" fill="#007537"/>
<path opacity="0.5" d="M37.2662 22.2969C37.0628 22.506 36.8695 22.8798 36.7852 23.5518C36.5814 25.1604 37.1726 26.4087 37.3246 28.2202C37.4335 29.5441 37.3764 30.6853 36.946 31.5933C37.1656 30.6089 37.1713 29.5753 37.0747 28.5694C36.9367 27.0896 36.6029 25.6378 36.4522 24.1598C36.3907 23.5887 36.3916 22.9421 36.8014 22.5437C36.9301 22.4181 37.0918 22.3351 37.2662 22.2969Z" fill="#007537"/>
<path d="M59.9998 15.5156L59.9923 15.5336C59.9875 15.5455 59.9848 15.5516 59.9739 15.5613C59.3866 16.6471 58.7492 17.7686 58.0271 18.8057C56.6786 20.7994 55.0257 22.5204 52.7942 23.2623L52.7881 23.2597C52.7284 23.2847 52.6713 23.3036 52.608 23.3199C52.7279 23.3199 52.8421 23.3172 52.9594 23.3234C53.8454 23.3484 54.6549 23.5259 55.2769 24.2968C55.4254 24.4848 55.5229 24.6943 55.5536 24.9117C55.6753 25.5262 55.3757 26.1864 54.7981 26.5282C54.3716 26.7764 53.8678 26.8519 53.3763 26.8967C52.5729 26.9622 51.762 26.9604 50.9652 26.873C50.9687 26.8818 50.9749 26.884 50.981 26.8866L50.9872 26.8892C51.2099 27.2064 51.5323 27.4519 51.816 27.7238C52.2153 28.0924 52.633 28.5185 52.6559 29.064C52.6607 29.0873 52.6568 29.1136 52.6528 29.1404C52.6449 29.624 52.2904 30.0572 51.8591 30.2825C51.4049 30.5122 50.8782 30.557 50.3665 30.5654C49.5262 30.5663 48.7245 30.3356 47.8996 30.3001C47.2948 30.2777 46.2652 30.4472 45.7315 30.08C45.858 30.1674 45.9783 30.2517 46.1022 30.3453C46.1105 30.3418 46.1105 30.3418 46.1145 30.3501C46.5217 30.6304 46.9298 30.9251 47.3348 31.2115C47.861 31.5972 48.1715 32.4731 47.6457 32.8425C47.5957 32.8785 47.5337 32.9092 47.4762 32.9281C47.1652 33.0331 46.7874 32.9207 46.4663 32.8095C44.8723 32.2394 43.273 31.6319 41.5915 31.4984C40.066 31.3798 38.547 31.6591 37.101 32.1379C36.4553 32.3527 35.781 32.499 35.1353 32.7138C34.6355 32.8824 34.3341 33.0832 33.7679 32.9496C33.7556 32.9448 33.7473 32.9483 33.7354 32.9431L33.7293 32.9404C33.6603 32.9193 33.6058 32.8969 33.5553 32.8477C33.5303 32.8231 33.5136 32.795 33.5053 32.7638C33.4416 32.5754 33.6643 32.3422 33.8536 32.2082C34.2379 31.9424 34.5898 31.6354 34.9012 31.2906C34.9012 31.2906 34.9074 31.2928 34.9034 31.2844C35.5842 30.5548 36.1078 29.6759 36.5295 28.7693C37.1541 27.4379 37.5978 26.0318 38.2101 24.6956C38.4442 24.1777 38.7693 23.6265 39.3184 23.4925C39.491 23.4503 39.6702 23.4604 39.8384 23.5153C40.0888 23.576 40.3141 23.7319 40.4811 23.9274C40.7543 24.2586 40.8667 24.707 40.8637 25.1432C40.8738 25.0839 40.8865 25.0185 40.9032 24.9618C40.9054 24.9557 40.9054 24.9556 40.908 24.9499C41.0692 24.1619 41.2427 23.3792 41.4101 22.5942C41.5687 21.8475 41.7321 21.0889 42.0707 20.4023C42.3892 19.7641 43.103 18.8008 43.8923 18.7512C43.9274 18.7516 43.9626 18.7516 43.9951 18.7582C43.9951 18.7582 43.9977 18.7521 44.0034 18.7547C44.386 18.785 44.7045 19.1272 44.8573 19.4935C45.026 19.8735 45.0765 20.2824 45.2307 20.6633L45.2342 20.672C45.2329 20.6927 45.2461 20.712 45.2531 20.7291C45.5184 19.1724 46.3807 17.7268 47.6168 16.7455C47.8632 16.5575 48.1254 16.3827 48.4329 16.3397C48.4417 16.3362 48.4417 16.3362 48.4474 16.3388C48.9815 16.276 49.4818 16.6722 49.7199 17.158C49.9483 17.6328 49.9795 18.1753 49.9953 18.7037C49.9962 18.7182 49.9949 18.7389 49.9962 18.7534C49.983 18.3387 51.2674 17.4971 51.5771 17.2924C52.1995 16.8778 52.8738 16.576 53.5946 16.3849C54.6483 16.1051 55.6788 15.8297 56.7629 15.6821C57.0471 15.6434 58.9561 15.6518 59.7064 15.5784C59.8746 15.5631 59.9897 15.5398 59.9998 15.5156Z" fill="#009245"/>
<path opacity="0.5" d="M54.7948 26.5286C54.3683 26.7767 53.8645 26.8519 53.3729 26.8971C52.57 26.9625 51.7587 26.9608 50.9619 26.8734C50.9654 26.8822 50.9715 26.8844 50.9777 26.887C50.01 26.5106 48.9879 26.2672 47.9561 26.1679C49.3147 25.6957 50.766 25.5297 52.2001 25.5613C52.8573 25.5771 53.5201 25.6303 54.168 25.5297C54.5471 25.4664 54.9275 25.3474 55.2578 25.1445C55.3588 25.0874 55.4541 24.9925 55.5508 24.9121C55.6724 25.5271 55.3729 26.1873 54.7948 26.5286Z" fill="#009245"/>
<path opacity="0.5" d="M51.8547 30.2821C51.4005 30.5118 50.8739 30.5566 50.3621 30.5654C49.5218 30.5659 48.7202 30.3357 47.8948 30.3001C47.29 30.2777 46.2604 30.4473 45.7267 30.0801C45.8532 30.1675 45.9735 30.2523 46.0974 30.3454C45.0994 29.9566 44.0966 29.5802 43.0371 29.462C44.5613 28.9305 46.1677 28.4047 47.7609 28.6498C48.4957 28.7684 49.195 29.0412 49.9158 29.2459C50.6389 29.444 51.404 29.5749 52.1248 29.3843C52.2768 29.3408 52.4644 29.2275 52.6484 29.1405C52.6405 29.6237 52.2861 30.0568 51.8547 30.2821Z" fill="#009245"/>
<path opacity="0.5" d="M47.4712 32.9283C47.1598 33.0333 46.7829 32.9208 46.4614 32.8097C44.8678 32.2395 43.268 31.632 41.5865 31.4985C40.061 31.3799 38.5421 31.6593 37.096 32.1381C36.4503 32.3529 35.7761 32.4991 35.1304 32.7139C34.6305 32.8826 34.3292 33.0833 33.763 32.9498C33.7507 32.945 33.7423 32.9485 33.7305 32.9436C33.7981 32.8655 33.8895 32.7974 33.976 32.7411C34.5422 32.3599 35.1115 31.9865 35.6812 31.6136C36.0774 31.3527 36.4802 31.0948 36.9063 30.8818C38.8895 29.8684 41.363 29.861 43.3488 30.8677C44.143 31.2714 44.8533 31.8104 45.6299 32.2567C46.1978 32.5747 46.8185 32.851 47.4712 32.9283Z" fill="#009245"/>
<path opacity="0.5" d="M58.0265 18.8047C56.678 20.7985 55.0251 22.5195 52.7937 23.2614L52.7875 23.2587C52.4664 23.2328 52.1581 23.1414 51.837 23.1155C51.1561 23.0545 50.485 23.2798 49.8428 23.5029C50.7116 22.3846 51.9877 21.6669 53.2865 21.0994C54.5828 20.538 55.9436 20.0948 57.1638 19.3753C57.4612 19.2009 57.7515 19.0098 58.0265 18.8047Z" fill="#009245"/>
<path opacity="0.3" d="M55.5533 24.9104C55.675 25.5249 55.3754 26.1851 54.7978 26.5269C54.3712 26.775 53.8674 26.8506 53.3759 26.8954C52.5725 26.9608 51.7616 26.9591 50.9648 26.8717C50.9683 26.8805 50.9745 26.8827 50.9806 26.8853L50.9868 26.8879C51.2095 27.2051 51.5319 27.4506 51.8157 27.7225C52.2149 28.0911 52.6327 28.5171 52.6555 29.0627C52.6603 29.086 52.6564 29.1123 52.6524 29.1391C52.6445 29.6227 52.2901 30.0558 51.8587 30.2812C51.4045 30.5109 50.8779 30.5557 50.3661 30.5641C49.5258 30.5649 48.7242 30.3343 47.8993 30.2987C47.2944 30.2763 46.2648 30.4459 45.7311 30.0787C45.8576 30.1661 45.978 30.2504 46.1018 30.344C46.1102 30.3405 46.1102 30.3405 46.1141 30.3488C46.5213 30.6291 46.9294 30.9238 47.3344 31.2102C47.8606 31.5959 48.1712 32.4717 47.6454 32.8412C47.5953 32.8772 47.5334 32.9079 47.4758 32.9268C47.1648 33.0318 46.7871 32.9193 46.466 32.8082C44.8719 32.238 43.2726 31.6306 41.5911 31.497C40.0656 31.3784 38.5467 31.6578 37.1006 32.1366C36.4549 32.3514 35.7807 32.4977 35.135 32.7125C34.6351 32.8811 34.3338 33.0819 33.7676 32.9483C33.7553 32.9435 33.7469 32.947 33.7351 32.9417L33.7289 32.9391C33.6599 32.918 33.6055 32.8956 33.555 32.8464C33.5299 32.8218 33.5132 32.7937 33.5049 32.7625C34.09 32.2829 34.7199 31.8498 35.3014 31.3622C36.5173 30.344 37.5052 29.0561 38.1777 27.6246C38.3547 27.2455 38.5489 26.8242 38.9455 26.6837C39.7761 26.3968 39.488 27.4076 39.6839 27.7212C39.7998 27.903 40.0577 27.9452 40.2571 27.8719C40.4543 27.8047 40.612 27.6434 40.7614 27.4862C41.6662 26.5027 42.4139 25.3703 42.9651 24.1496C43.0802 23.8865 43.1918 23.6146 43.4118 23.4227C43.6293 23.2369 43.9815 23.1696 44.2003 23.3585C44.4819 23.601 44.354 24.0499 44.2754 24.4127C44.1968 24.7756 44.3145 25.297 44.6879 25.2811C44.7959 25.2759 44.8886 25.2223 44.9809 25.1687C45.6248 24.7698 46.155 24.183 46.4756 23.489C46.9566 22.4725 47.0559 21.1653 47.9871 20.5315C48.0653 20.4788 48.1554 20.4313 48.2489 20.4274C48.4185 20.4265 48.5603 20.5622 48.6328 20.712C48.9719 21.381 48.4848 22.1545 48.3517 22.8907C48.3271 23.0361 48.3412 23.2254 48.4817 23.2614C48.5713 23.2843 48.664 23.2307 48.736 23.1753C50.1641 22.1387 51.2112 20.6206 52.724 19.7039C53.5059 19.2273 54.3853 18.9251 55.2309 18.5671C56.3773 18.0782 57.4706 17.4615 58.4888 16.7363C58.9808 16.381 59.4596 16.0058 59.9155 15.6004C59.9375 15.5811 59.9621 15.556 59.9924 15.5332C59.3941 16.6283 58.7546 17.7558 58.0272 18.8052C56.6786 20.799 55.0257 22.52 52.7943 23.2619L52.7882 23.2592C52.7284 23.2843 52.6713 23.3032 52.6081 23.3194C52.728 23.3194 52.8422 23.3168 52.9595 23.3229C53.8455 23.348 54.655 23.5254 55.277 24.2963C55.4255 24.4839 55.523 24.6934 55.5533 24.9104Z" fill="#009245"/>
<path opacity="0.5" d="M59.9994 15.5156L59.9919 15.5336C59.9871 15.5455 59.9844 15.5516 59.9734 15.5613C59.6365 15.6768 59.1911 15.7129 58.9232 15.7295C57.5211 15.8099 56.122 16.0541 54.7727 16.4526C54.4432 16.5501 54.1173 16.6564 53.7922 16.7767C53.4676 16.8975 53.1496 17.035 52.8355 17.1813C52.5188 17.3333 52.218 17.4993 51.9241 17.682C51.6329 17.8586 51.3544 18.055 51.0895 18.2706C50.8303 18.4889 50.5808 18.7182 50.3568 18.9717C50.2624 19.0811 50.1657 19.1966 50.0748 19.3147C49.9839 19.4325 49.8763 19.5576 49.8218 19.6907C49.7673 19.8234 49.6848 19.938 49.5771 20.0277C49.614 19.9723 49.6509 19.917 49.6698 19.8541C49.7269 19.7153 49.7717 19.5713 49.817 19.4276C49.8407 19.3525 49.8622 19.2836 49.8798 19.2062C49.9136 19.0718 49.9382 18.9264 49.9663 18.7898C49.9729 18.7573 49.9826 18.7332 49.9949 18.7029C49.9958 18.7174 49.9944 18.738 49.9958 18.7525C49.9826 18.3378 51.267 17.4962 51.5766 17.2915C52.1991 16.8769 52.8733 16.5751 53.5941 16.384C54.6479 16.1042 55.6784 15.8288 56.7625 15.6812C57.0467 15.6426 58.9557 15.6509 59.7059 15.5776C59.8742 15.5631 59.9893 15.5398 59.9994 15.5156Z" fill="#009245"/>
<path opacity="0.5" d="M47.7805 16.7216C47.0413 17.3352 46.5146 18.1707 46.1114 19.0496C45.7797 19.7884 45.5263 20.5598 45.3624 21.3535C45.2333 21.1523 45.2188 20.9134 45.2328 20.6722C45.2315 20.6929 45.2447 20.7122 45.2517 20.7293C45.517 19.1726 46.3793 17.727 47.6154 16.7457C47.8618 16.5577 48.124 16.3829 48.4315 16.3398C48.1908 16.4101 47.9795 16.5634 47.7805 16.7216Z" fill="#009245"/>
<path opacity="0.5" d="M42.9843 19.5154C42.2899 20.5358 42.0557 21.1736 41.699 22.2484C41.3643 23.2684 40.9637 25.3272 40.9251 25.5231C40.9304 25.4756 40.9141 25.2573 40.9014 24.9626C40.9036 24.9564 40.9036 24.9564 40.9062 24.9507C41.0674 24.1627 41.2409 23.38 41.4083 22.595C41.5668 21.8483 41.7302 21.0897 42.0689 20.4031C42.3874 19.7649 43.1012 18.8016 43.8905 18.752C43.9256 18.7524 43.9608 18.7524 43.9933 18.759C43.6669 18.8499 43.294 19.0709 42.9843 19.5154Z" fill="#009245"/>
<path opacity="0.5" d="M39.8374 23.5157C39.5589 23.5921 39.2066 23.8144 38.7981 24.345C37.8177 25.6149 37.696 26.9766 36.9168 28.5974C36.3457 29.7816 35.7246 30.726 34.9023 31.2848C35.5832 30.5552 36.1068 29.6762 36.5285 28.7696C37.1531 27.4382 37.5967 26.0322 38.2091 24.6959C38.4432 24.1781 38.7682 23.6268 39.3173 23.4928C39.4899 23.4507 39.6691 23.4608 39.8374 23.5157Z" fill="#009245"/>
<path d="M48.0562 18.9997C48.0562 28.9722 39.9723 37.0565 29.9998 37.0565C20.0277 37.0565 11.9434 28.9722 11.9434 18.9997C11.9434 9.02763 20.0277 0.943359 29.9998 0.943359C39.9727 0.943359 48.0562 9.02763 48.0562 18.9997Z" fill="#FF5766"/>
<path opacity="0.1" d="M12.4209 14.8795C14.2865 15.5317 16.2898 15.8902 18.3773 15.8902C26.9315 15.8902 34.0915 9.93947 35.9559 1.9537C34.0907 1.3019 32.0874 0.943359 29.9995 0.943359C21.4457 0.942982 14.2861 6.89371 12.4209 14.8795Z" fill="white"/>
<path opacity="0.2" d="M41.7867 5.32812C42.2192 6.87629 42.4555 8.50711 42.4555 10.1938C42.4555 20.1663 34.3712 28.2505 24.3991 28.2505C19.8931 28.2505 15.7754 26.5959 12.6123 23.8665C14.7372 31.4741 21.7145 37.0572 29.9999 37.0572C39.9721 37.0572 48.0564 28.9729 48.0564 19.0004C48.0564 13.5343 45.6243 8.63883 41.7867 5.32812Z" fill="#09244C"/>
<path d="M30 37.9995C19.5232 37.9995 11 29.4763 11 18.9995C11 8.52283 19.5232 0 30 0C40.4767 0 48.9999 8.52321 48.9999 18.9995C48.9996 29.4763 40.4763 37.9995 30 37.9995ZM30 1.88708C20.5638 1.88708 12.8871 9.56337 12.8871 18.9995C12.8871 28.4357 20.5638 36.1124 30 36.1124C39.4362 36.1124 47.1129 28.4357 47.1129 18.9995C47.1125 9.56337 39.4362 1.88708 30 1.88708Z" fill="#D84C5B"/>
<path d="M31.7014 30.0344C27.8535 29.998 24.2812 27.6021 22.9518 23.9519C21.6092 20.2647 22.7182 16.0992 25.7045 13.5602C27.3752 12.1397 29.5193 11.4012 31.7009 11.3808C32.5885 11.372 32.5907 9.99121 31.7009 10C27.2361 10.0426 23.2213 12.8201 21.6517 17.0094C20.0848 21.1903 21.4158 26.118 24.8667 28.9464C26.8052 30.5354 29.1956 31.3909 31.7009 31.4146C32.5901 31.424 32.5912 30.0432 31.7014 30.0344Z" fill="#FFB612"/>
<path d="M37.6923 21.4702C38.162 21.0708 38.162 20.3458 37.6924 19.9465L33.6791 16.534C33.0297 15.9817 32.0313 16.4433 32.0313 17.2958V17.8929C32.0313 18.4452 31.5836 18.8929 31.0313 18.8929H26.9355C26.3833 18.8929 25.9355 19.3406 25.9355 19.8929V21.5232C25.9355 22.0755 26.3833 22.5232 26.9355 22.5232H31.0313C31.5836 22.5232 32.0313 22.9709 32.0313 23.5232V24.1205C32.0313 24.973 33.0296 25.4346 33.6791 24.8824L37.6923 21.4702Z" fill="#FFB612"/>
</svg>
