<svg width="59" height="69" viewBox="0 0 59 69" fill="none" xmlns="http://www.w3.org/2000/svg">
<path d="M19.2604 59.418V65.4994L16.1877 64.3355L13.3774 65.4006L13.1094 65.4994V59.418H19.2604Z" fill="#FFB612"/>
<path opacity="0.7" d="M13.3774 59.418V65.4006L13.1094 65.4994V59.418H13.3774Z" fill="#FFB612"/>
<path opacity="0.5" d="M19.2602 59.4186V65.4994L16.1875 64.3355C17.98 62.584 18.3755 60.6459 18.4103 59.418L19.2602 59.4186Z" fill="#FFB612"/>
<path d="M19.2604 59.418H13.1094V62.1121H19.2604V59.418Z" fill="#FFB612"/>
<path d="M49.8344 61.4242H20.1292C18.2769 61.4242 16.7754 59.9227 16.7754 58.0705V8.85377C16.7754 7.00154 18.2769 5.5 20.1292 5.5H49.8344C51.6866 5.5 53.1882 7.00154 53.1882 8.85377V58.0705C53.1876 59.9233 51.6866 61.4242 49.8344 61.4242Z" fill="#AF3345"/>
<path d="M48.954 60.6806H20.0396C18.2371 60.6806 16.7754 59.2195 16.7754 57.4164V9.51034C16.7754 7.70723 18.2371 6.24609 20.0396 6.24609H48.954C50.7571 6.24609 52.2182 7.70785 52.2182 9.51034V57.4164C52.2182 59.2188 50.7571 60.6806 48.954 60.6806Z" fill="#CEEDFC"/>
<path d="M47.7521 60.6793H19.9812C18.211 60.6793 16.7754 59.2443 16.7754 57.4735V9.44994C16.7754 7.67979 18.2104 6.24414 19.9812 6.24414H47.7521C49.5229 6.24414 50.9579 7.67917 50.9579 9.44994V57.4735C50.9579 59.2443 49.5229 60.6793 47.7521 60.6793Z" fill="#B6E4FA"/>
<path d="M46.2966 60.6806H19.9084C18.1781 60.6806 16.7754 59.2779 16.7754 57.5476V9.37913C16.7754 7.64877 18.1781 6.24609 19.9084 6.24609H46.2966C48.0269 6.24609 49.4296 7.64877 49.4296 9.37913V57.5476C49.4296 59.2779 48.0269 60.6806 46.2966 60.6806Z" fill="#B6E4FA"/>
<path d="M44.9132 60.6793H19.8382C18.147 60.6793 16.7754 59.3083 16.7754 57.6165V9.30693C16.7754 7.61574 18.1464 6.24414 19.8382 6.24414H44.9132C46.6044 6.24414 47.976 7.61512 47.976 9.30693V57.6165C47.976 59.3083 46.6044 60.6793 44.9132 60.6793Z" fill="#B6E4FA"/>
<path d="M43.8755 60.6806H19.7841C18.1227 60.6806 16.7754 59.3339 16.7754 57.6719V9.25479C16.7754 7.59344 18.1227 6.24609 19.7841 6.24609H43.8755C45.5368 6.24609 46.8841 7.59344 46.8841 9.25479V57.6719C46.8841 59.3333 45.5368 60.6806 43.8755 60.6806Z" fill="#B6E4FA"/>
<path d="M46.1817 9.0204V57.9107C46.1817 59.8487 44.6932 61.4255 42.859 61.4255H11.6752C9.84103 61.4255 8.35254 59.8487 8.35254 57.9107V9.0204C8.35254 7.07678 9.84103 5.5 11.6752 5.5H42.859C44.6938 5.5 46.1817 7.07678 46.1817 9.0204Z" fill="#FF5766"/>
<path d="M12.3921 57.9107V9.0204C12.3921 7.07678 13.8806 5.5 15.7148 5.5H11.6752C9.84103 5.5 8.35254 7.07678 8.35254 9.0204V57.9107C8.35254 59.8487 9.84103 61.4255 11.6752 61.4255H15.7148C13.88 61.4255 12.3921 59.8487 12.3921 57.9107Z" fill="#FF5766"/>
<path opacity="0.5" d="M46.1819 9.0204V57.9107C46.1819 59.8487 44.6934 61.4255 42.8592 61.4255H40.2783C42.1125 61.4255 43.601 59.8487 43.601 57.9107V9.0204C43.601 7.07678 42.1125 5.5 40.2783 5.5H42.8592C44.6941 5.5 46.1819 7.07678 46.1819 9.0204Z" fill="#B24250"/>
<path d="M16.1877 11.8185C16.1877 13.2031 15.0586 14.3322 13.6739 14.3322C13.534 14.3322 13.4004 14.3204 13.2723 14.2974C12.0791 14.1053 11.1602 13.0639 11.1602 11.8185C11.1602 10.5731 12.0797 9.53163 13.2723 9.33951C13.4004 9.31588 13.534 9.30469 13.6739 9.30469C15.0592 9.30407 16.1877 10.4332 16.1877 11.8185Z" fill="#AF3345"/>
<path opacity="0.5" d="M15.3854 11.8188C15.3854 13.0642 14.472 14.1056 13.2732 14.2978C12.0801 14.1056 11.1611 13.0642 11.1611 11.8188C11.1611 10.5734 12.0807 9.53197 13.2732 9.33984C14.4714 9.53135 15.3854 10.5734 15.3854 11.8188Z" fill="#AF3345"/>
<path d="M13.1869 13.8038H7.89264C6.85182 13.8038 6 12.952 6 11.9106V11.7247C6 10.6838 6.85182 9.83203 7.89264 9.83203H13.1869C14.2278 9.83203 15.0796 10.6838 15.0796 11.7247V11.9106C15.0802 12.952 14.2284 13.8038 13.1869 13.8038Z" fill="#ADC8DB"/>
<path opacity="0.5" d="M13.1869 9.83203H7.89264C6.85182 9.83203 6 10.6838 6 11.7247V11.9106C6 11.974 6.01243 12.0343 6.01865 12.0965C6.11378 11.1427 6.91524 10.3891 7.89264 10.3891H13.1869C14.1644 10.3891 14.9658 11.1427 15.0609 12.0965C15.0671 12.0343 15.0796 11.974 15.0796 11.9106V11.7247C15.0802 10.6838 14.2284 9.83203 13.1869 9.83203Z" fill="#ADC8DB"/>
<path opacity="0.8" d="M13.1869 12.4952H7.89264C7.04829 12.4952 6.337 11.9313 6.09514 11.1641C6.03856 11.3425 6 11.529 6 11.7255V11.9114C6 12.9529 6.85182 13.8047 7.89264 13.8047H13.1869C14.2278 13.8047 15.0802 12.9529 15.0802 11.9114V11.7255C15.0802 11.529 15.041 11.3425 14.9851 11.1641C14.7432 11.9313 14.0313 12.4952 13.1869 12.4952Z" fill="#ADC8DB"/>
<path d="M16.1877 20.4747C16.1877 21.86 15.0586 22.9885 13.6739 22.9885C13.534 22.9885 13.4004 22.9767 13.2723 22.9537C12.0791 22.7616 11.1602 21.7201 11.1602 20.4747C11.1602 19.2293 12.0797 18.1879 13.2723 17.9958C13.4004 17.9721 13.534 17.9609 13.6739 17.9609C15.0592 17.9609 16.1877 19.0894 16.1877 20.4747Z" fill="#AF3345"/>
<path opacity="0.5" d="M15.3854 20.4751C15.3854 21.7204 14.472 22.7619 13.2732 22.954C12.0801 22.7619 11.1611 21.7204 11.1611 20.4751C11.1611 19.2297 12.0807 18.1882 13.2732 17.9961C14.4714 18.1882 15.3854 19.2297 15.3854 20.4751Z" fill="#AF3345"/>
<path d="M13.1869 22.4595H7.89264C6.85182 22.4595 6 21.6076 6 20.5668V20.3809C6 19.3401 6.85182 18.4883 7.89264 18.4883H13.1869C14.2278 18.4883 15.0796 19.3401 15.0796 20.3809V20.5668C15.0802 21.6076 14.2284 22.4595 13.1869 22.4595Z" fill="#ADC8DB"/>
<path opacity="0.5" d="M13.1869 18.4883H7.89264C6.85182 18.4883 6 19.3401 6 20.3809V20.5668C6 20.6302 6.01243 20.6906 6.01865 20.7527C6.11378 19.799 6.91524 19.0454 7.89264 19.0454H13.1869C14.1644 19.0454 14.9658 19.799 15.0609 20.7527C15.0671 20.6906 15.0796 20.6302 15.0796 20.5668V20.3809C15.0802 19.3401 14.2284 18.4883 13.1869 18.4883Z" fill="#ADC8DB"/>
<path opacity="0.8" d="M13.1869 21.1515H7.89264C7.04829 21.1515 6.337 20.5876 6.09514 19.8203C6.03856 19.9988 6 20.1853 6 20.3818V20.5677C6 21.6091 6.85182 22.4609 7.89264 22.4609H13.1869C14.2278 22.4609 15.0802 21.6091 15.0802 20.5677V20.3818C15.0802 20.1853 15.041 19.9988 14.9851 19.8203C14.7432 20.5876 14.0313 21.1515 13.1869 21.1515Z" fill="#ADC8DB"/>
<path d="M16.1877 29.1329C16.1877 30.5182 15.0586 31.6467 13.6739 31.6467C13.534 31.6467 13.4004 31.6349 13.2723 31.6119C12.0791 31.4198 11.1602 30.3783 11.1602 29.1329C11.1602 27.8875 12.0797 26.8461 13.2723 26.654C13.4004 26.6303 13.534 26.6191 13.6739 26.6191C15.0592 26.6191 16.1877 27.7483 16.1877 29.1329Z" fill="#AF3345"/>
<path opacity="0.5" d="M15.3854 29.1333C15.3854 30.3786 14.472 31.4201 13.2732 31.6122C12.0801 31.4201 11.1611 30.3786 11.1611 29.1333C11.1611 27.8879 12.0807 26.8464 13.2732 26.6543C14.4714 26.8464 15.3854 27.8879 15.3854 29.1333Z" fill="#AF3345"/>
<path d="M13.1869 31.1177H7.89264C6.85182 31.1177 6 30.2658 6 29.225V29.0391C6 27.9983 6.85182 27.1465 7.89264 27.1465H13.1869C14.2278 27.1465 15.0796 27.9983 15.0796 29.0391V29.225C15.0802 30.2658 14.2284 31.1177 13.1869 31.1177Z" fill="#ADC8DB"/>
<path opacity="0.5" d="M13.1869 27.1465H7.89264C6.85182 27.1465 6 27.9983 6 29.0391V29.225C6 29.2884 6.01243 29.3488 6.01865 29.4109C6.11378 28.4572 6.91524 27.7036 7.89264 27.7036H13.1869C14.1644 27.7036 14.9658 28.4572 15.0609 29.4109C15.0671 29.3488 15.0796 29.2884 15.0796 29.225V29.0391C15.0802 27.9983 14.2284 27.1465 13.1869 27.1465Z" fill="#ADC8DB"/>
<path opacity="0.8" d="M13.1869 29.8117H7.89264C7.04829 29.8117 6.337 29.2477 6.09514 28.4805C6.03856 28.6589 6 28.8454 6 29.0419V29.2278C6 30.2686 6.85182 31.1205 7.89264 31.1205H13.1869C14.2278 31.1205 15.0802 30.2686 15.0802 29.2278V29.0419C15.0802 28.8454 15.041 28.6589 14.9851 28.4805C14.7432 29.2471 14.0313 29.8117 13.1869 29.8117Z" fill="#ADC8DB"/>
<path d="M16.1877 37.7892C16.1877 39.1745 15.0586 40.3029 13.6739 40.3029C13.534 40.3029 13.4004 40.2911 13.2723 40.2681C12.0791 40.076 11.1602 39.0346 11.1602 37.7892C11.1602 36.5438 12.0797 35.5023 13.2723 35.3102C13.4004 35.2866 13.534 35.2754 13.6739 35.2754C15.0592 35.2754 16.1877 36.4045 16.1877 37.7892Z" fill="#AF3345"/>
<path opacity="0.5" d="M15.3854 37.7895C15.3854 39.0349 14.472 40.0763 13.2732 40.2685C12.0801 40.0763 11.1611 39.0349 11.1611 37.7895C11.1611 36.5441 12.0807 35.5027 13.2732 35.3105C14.4714 35.5027 15.3854 36.5447 15.3854 37.7895Z" fill="#AF3345"/>
<path d="M13.1869 39.7745H7.89264C6.85182 39.7745 6 38.9227 6 37.8819V37.696C6 36.6552 6.85182 35.8027 7.89264 35.8027H13.1869C14.2278 35.8027 15.0796 36.6545 15.0796 37.696V37.8819C15.0802 38.9227 14.2284 39.7745 13.1869 39.7745Z" fill="#ADC8DB"/>
<path opacity="0.5" d="M13.1869 35.8027H7.89264C6.85182 35.8027 6 36.6545 6 37.6954V37.8813C6 37.9447 6.01243 38.005 6.01865 38.0672C6.11378 37.1134 6.91524 36.3598 7.89264 36.3598H13.1869C14.1644 36.3598 14.9658 37.1134 15.0609 38.0672C15.0671 38.005 15.0796 37.9447 15.0796 37.8813V37.6954C15.0802 36.6545 14.2284 35.8027 13.1869 35.8027Z" fill="#ADC8DB"/>
<path opacity="0.8" d="M13.1869 38.4666H7.89264C7.04829 38.4666 6.337 37.9026 6.09514 37.1348C6.03856 37.3132 6 37.4997 6 37.6962V37.8821C6 38.9229 6.85182 39.7748 7.89264 39.7748H13.1869C14.2278 39.7748 15.0802 38.9229 15.0802 37.8821V37.6962C15.0802 37.4997 15.041 37.3132 14.9851 37.1348C14.7432 37.9026 14.0313 38.4666 13.1869 38.4666Z" fill="#ADC8DB"/>
<path d="M16.1877 46.4474C16.1877 47.832 15.0586 48.9611 13.6739 48.9611C13.534 48.9611 13.4004 48.9493 13.2723 48.9263C12.0791 48.7342 11.1602 47.6928 11.1602 46.4474C11.1602 45.202 12.0797 44.1605 13.2723 43.9684C13.4004 43.9448 13.534 43.9336 13.6739 43.9336C15.0592 43.9336 16.1877 45.0621 16.1877 46.4474Z" fill="#AF3345"/>
<path opacity="0.5" d="M15.3854 46.4497C15.3854 47.695 14.472 48.7365 13.2732 48.9286C12.0801 48.7365 11.1611 47.695 11.1611 46.4497C11.1611 45.2043 12.0807 44.1628 13.2732 43.9707C14.4714 44.1628 15.3854 45.2043 15.3854 46.4497Z" fill="#AF3345"/>
<path d="M13.1869 48.4347H7.89264C6.85182 48.4347 6 47.5829 6 46.5421V46.3562C6 45.3153 6.85182 44.4629 7.89264 44.4629H13.1869C14.2278 44.4629 15.0796 45.3147 15.0796 46.3562V46.5421C15.0802 47.5829 14.2284 48.4347 13.1869 48.4347Z" fill="#ADC8DB"/>
<path opacity="0.5" d="M13.1869 44.4629H7.89264C6.85182 44.4629 6 45.3147 6 46.3555V46.5414C6 46.6049 6.01243 46.6652 6.01865 46.7273C6.11378 45.7736 6.91524 45.02 7.89264 45.02H13.1869C14.1644 45.02 14.9658 45.7736 15.0609 46.7273C15.0671 46.6652 15.0796 46.6049 15.0796 46.5414V46.3555C15.0802 45.3147 14.2284 44.4629 13.1869 44.4629Z" fill="#ADC8DB"/>
<path opacity="0.8" d="M13.1869 47.1228H7.89264C7.04829 47.1228 6.337 46.5589 6.09514 45.791C6.03856 45.9695 6 46.156 6 46.3525V46.5384C6 47.5792 6.85182 48.431 7.89264 48.431H13.1869C14.2278 48.431 15.0802 47.5792 15.0802 46.5384V46.3525C15.0802 46.156 15.041 45.9695 14.9851 45.791C14.7432 46.5589 14.0313 47.1228 13.1869 47.1228Z" fill="#ADC8DB"/>
<path d="M16.1877 55.1056C16.1877 56.4909 15.0586 57.6194 13.6739 57.6194C13.534 57.6194 13.4004 57.6075 13.2723 57.5845C12.0791 57.3924 11.1602 56.351 11.1602 55.1056C11.1602 53.8602 12.0797 52.8187 13.2723 52.6266C13.4004 52.6036 13.534 52.5918 13.6739 52.5918C15.0592 52.5918 16.1877 53.7209 16.1877 55.1056Z" fill="#AF3345"/>
<path opacity="0.5" d="M15.3854 55.1079C15.3854 56.3533 14.472 57.3947 13.2732 57.5868C12.0801 57.3947 11.1611 56.3533 11.1611 55.1079C11.1611 53.8625 12.0807 52.821 13.2732 52.6289C14.4714 52.821 15.3854 53.8625 15.3854 55.1079Z" fill="#AF3345"/>
<path d="M13.1869 57.0935H7.89264C6.85182 57.0935 6 56.2417 6 55.2003V55.0143C6 53.9735 6.85182 53.1211 7.89264 53.1211H13.1869C14.2278 53.1211 15.0796 53.9729 15.0796 55.0143V55.2003C15.0802 56.2417 14.2284 57.0935 13.1869 57.0935Z" fill="#ADC8DB"/>
<path opacity="0.5" d="M13.1869 53.1211H7.89264C6.85182 53.1211 6 53.9729 6 55.0143V55.2003C6 55.2637 6.01243 55.324 6.01865 55.3862C6.11378 54.4324 6.91524 53.6788 7.89264 53.6788H13.1869C14.1644 53.6788 14.9658 54.4324 15.0609 55.3862C15.0671 55.324 15.0796 55.2637 15.0796 55.2003V55.0143C15.0802 53.9729 14.2284 53.1211 13.1869 53.1211Z" fill="#ADC8DB"/>
<path opacity="0.8" d="M13.1869 55.7849H7.89264C7.04829 55.7849 6.337 55.221 6.09514 54.4531C6.03856 54.6316 6 54.8181 6 55.0146V55.2005C6 56.2413 6.85182 57.0931 7.89264 57.0931H13.1869C14.2278 57.0931 15.0802 56.2413 15.0802 55.2005V55.0146C15.0802 54.8181 15.041 54.6316 14.9851 54.4531C14.7432 55.2204 14.0313 55.7849 13.1869 55.7849Z" fill="#ADC8DB"/>
<path d="M29.7233 24.7727L32.0636 29.5155C32.1786 29.7493 32.4018 29.9109 32.6592 29.9482L37.8932 30.7087C38.5423 30.8032 38.8016 31.6009 38.3322 32.0585L34.545 35.7505C34.3585 35.9321 34.2733 36.1944 34.3175 36.4512L35.2115 41.6641C35.3222 42.3107 34.6439 42.8038 34.0632 42.4985L29.3819 40.0375C29.1512 39.9163 28.8758 39.9163 28.6451 40.0375L23.9639 42.4985C23.3832 42.8038 22.7048 42.3107 22.8155 41.6641L23.7096 36.4512C23.7537 36.1944 23.6686 35.9327 23.482 35.7505L19.6949 32.0585C19.2255 31.6009 19.4841 30.8032 20.1332 30.7087L25.3672 29.9482C25.6252 29.9109 25.8478 29.7486 25.9628 29.5155L28.3038 24.7727C28.5941 24.1851 29.4329 24.1851 29.7233 24.7727Z" fill="#FFB612"/>
<path opacity="0.7" d="M23.6087 41.6637L24.5028 36.4509C24.5469 36.1941 24.4618 35.9323 24.2752 35.7502L20.4881 32.0581C20.0186 31.6005 20.2773 30.8028 20.9264 30.7083L26.1604 29.9479C26.4184 29.9106 26.641 29.7483 26.756 29.5151L29.0964 24.7724C29.171 24.6219 29.2816 24.5106 29.4097 24.4372C29.0385 24.224 28.5194 24.3346 28.3036 24.7724L25.9633 29.5151C25.8483 29.7489 25.6251 29.9106 25.3677 29.9479L20.1337 30.7083C19.4846 30.8028 19.2253 31.6005 19.6947 32.0581L23.4819 35.7502C23.6684 35.9317 23.7536 36.1941 23.7094 36.4509L22.8153 41.6637C22.7047 42.3104 23.383 42.8034 23.9637 42.4981L23.9998 42.4795C23.7299 42.324 23.5478 42.02 23.6087 41.6637Z" fill="#FFB612"/>
<path opacity="0.5" d="M23.9654 42.4975L28.6466 40.0366C28.8773 39.9153 29.1528 39.9153 29.3834 40.0366L34.0647 42.4975C34.6454 42.8028 35.3237 42.3097 35.2131 41.6631L34.319 36.4503C34.2748 36.1935 34.36 35.9317 34.5465 35.7495L38.3337 32.0575C38.8031 31.5999 38.5444 30.8022 37.8953 30.7077L32.6613 29.9473L23.3828 42.5528C23.5662 42.6063 23.7702 42.6001 23.9654 42.4975Z" fill="#FFB612"/>
<path opacity="0.7" d="M27.1267 31.1348C27.2449 31.5694 26.6959 32.0979 25.9 32.3137C25.1041 32.53 24.3636 32.3528 24.2455 31.9176C24.1274 31.483 24.6764 30.9545 25.4722 30.7387C26.2681 30.5224 27.0086 30.6996 27.1267 31.1348Z" fill="#FFB612"/>
</svg>
