<svg width="60" height="43" viewBox="0 0 60 43" fill="none" xmlns="http://www.w3.org/2000/svg">
<path d="M9.26564 6.86719L9.263 6.88695C9.26125 6.90012 9.26037 6.90671 9.26476 6.92077C9.2204 8.16738 9.20107 9.47067 9.29946 10.7445C9.45276 13.1723 10.0115 15.5179 11.5753 17.307L11.5818 17.3079C11.6209 17.3602 11.6614 17.4059 11.7079 17.4524C11.6034 17.3909 11.5054 17.3303 11.4 17.2754C10.6155 16.8436 9.81955 16.5831 8.88261 16.9363C8.65683 17.0241 8.46487 17.1564 8.3265 17.3303C7.9057 17.8034 7.82839 18.5321 8.15695 19.1256C8.40162 19.5604 8.80178 19.8842 9.20678 20.1749C9.87313 20.6432 10.5803 21.0574 11.3196 21.3895C11.3121 21.3952 11.3056 21.3939 11.299 21.393L11.2924 21.3921C10.9361 21.5546 10.5289 21.603 10.1428 21.6948C9.6065 21.8116 9.02405 21.9684 8.72491 22.4323C8.7091 22.4499 8.699 22.4753 8.68846 22.5004C8.44774 22.926 8.53471 23.4848 8.79519 23.9016C9.07324 24.3343 9.50899 24.6431 9.95044 24.9128C10.6818 25.3437 11.4984 25.5532 12.2355 25.945C12.774 26.2349 13.584 26.9105 14.2372 26.8635C14.0821 26.8745 13.9341 26.8868 13.7781 26.9048C13.7724 26.8973 13.7724 26.8973 13.765 26.903C13.2668 26.9386 12.7599 26.9865 12.2609 27.0282C11.6051 27.0946 10.8856 27.6986 11.1544 28.2898C11.1795 28.3469 11.2177 28.4053 11.2581 28.451C11.4755 28.7018 11.8617 28.7971 12.199 28.8652C13.8796 29.185 15.5844 29.4749 17.1174 30.2199C18.5067 30.8981 19.6875 31.9194 20.7017 33.0773C21.1546 33.5951 21.6668 34.0682 22.1196 34.5857C22.4689 34.9885 22.6283 35.3179 23.1901 35.4914C23.2033 35.4932 23.209 35.5007 23.2217 35.5024L23.2283 35.5033C23.2991 35.52 23.3579 35.5283 23.4269 35.5116C23.4611 35.5033 23.4906 35.4875 23.5134 35.4642C23.6654 35.3329 23.5907 35.0153 23.495 34.8018C23.296 34.3735 23.1466 33.9259 23.0526 33.4656C23.0526 33.4656 23.046 33.4647 23.0535 33.459C22.8339 32.4746 22.8282 31.441 22.9252 30.4351C23.0632 28.9553 23.397 27.5035 23.5477 26.0254C23.6092 25.4544 23.6083 24.8078 23.1985 24.4094C23.0698 24.2842 22.9081 24.2012 22.7337 24.163C22.4842 24.0874 22.2084 24.1081 21.9628 24.1928C21.5552 24.3413 21.2275 24.6743 21.0066 25.056C21.0281 24.9989 21.0505 24.9356 21.0654 24.8776C21.0663 24.871 21.0663 24.871 21.0672 24.8645C21.3303 24.0958 21.5798 23.3249 21.8363 22.5553C22.0806 21.8239 22.327 21.0789 22.3836 20.3076C22.4328 19.5881 22.305 18.3836 21.6422 17.936C21.6114 17.9185 21.5807 17.9005 21.5486 17.8895C21.5486 17.8895 21.5495 17.8829 21.5429 17.882C21.1941 17.7125 20.7413 17.8478 20.4206 18.0885C20.0793 18.3331 19.8254 18.6635 19.496 18.9165L19.4885 18.9222C19.4793 18.9406 19.4577 18.9512 19.4428 18.9622C20.009 17.47 19.998 15.7692 19.4239 14.281C19.3053 13.9911 19.1661 13.7042 18.921 13.5096C18.9153 13.5022 18.9153 13.5022 18.9091 13.5013C18.476 13.1727 17.8369 13.2615 17.3809 13.5632C16.9386 13.8602 16.6338 14.3166 16.3491 14.769C16.3408 14.7809 16.3315 14.7997 16.3232 14.812C16.5472 14.4576 15.8593 13.0664 15.6942 12.7295C15.3647 12.0495 14.9316 11.4412 14.4014 10.9057C13.627 10.1221 12.8702 9.35426 12.0009 8.67078C11.7734 8.49156 10.1059 7.5208 9.48966 7.07275C9.35086 6.9726 9.26212 6.89354 9.26564 6.86719Z" fill="#007537"/>
<path opacity="0.5" d="M8.15985 19.1277C8.40452 19.5626 8.80468 19.8863 9.20968 20.1771C9.87603 20.6453 10.5832 21.0596 11.3225 21.3917C11.315 21.3974 11.3085 21.3965 11.3019 21.3952C12.3376 21.563 13.3528 21.8744 14.3029 22.3163C13.3611 21.2089 12.1817 20.3207 10.9162 19.614C10.3359 19.2911 9.73108 18.9986 9.21802 18.5786C8.92021 18.3296 8.64962 18.0309 8.46601 17.6847C8.40715 17.5828 8.37245 17.4515 8.32984 17.332C7.9086 17.8056 7.83129 18.5343 8.15985 19.1277Z" fill="#007537"/>
<path opacity="0.5" d="M8.79801 23.9036C9.07606 24.3363 9.5118 24.6451 9.95326 24.9148C10.6846 25.3457 11.5012 25.5557 12.2383 25.947C12.7768 26.2374 13.5868 26.9125 14.24 26.8655C14.0849 26.877 13.9369 26.8888 13.781 26.9068C14.8492 27.079 15.9157 27.2648 16.8992 27.705C15.8437 26.4614 14.7135 25.1805 13.2003 24.5783C12.4992 24.3051 11.7503 24.1847 11.0176 23.9937C10.2862 23.796 9.55265 23.518 9.02247 22.9825C8.91222 22.867 8.80679 22.6719 8.69127 22.502C8.45055 22.928 8.53753 23.4868 8.79801 23.9036Z" fill="#007537"/>
<path opacity="0.5" d="M11.2607 28.4531C11.4782 28.7039 11.8647 28.7993 12.2016 28.8674C13.8822 29.1871 15.587 29.477 17.12 30.222C18.5094 30.9002 19.6901 31.9215 20.7043 33.0794C21.1568 33.5973 21.6694 34.0704 22.1218 34.5878C22.471 34.9906 22.6305 35.3201 23.1923 35.4936C23.2055 35.4953 23.2108 35.5028 23.2239 35.5045C23.205 35.4018 23.1607 35.2955 23.1137 35.2023C22.8159 34.5799 22.5106 33.9636 22.2053 33.3469C21.9936 32.9169 21.7748 32.486 21.5126 32.0818C20.3037 30.1834 18.1531 28.91 15.9072 28.7698C15.0085 28.7149 14.1137 28.8208 13.2089 28.8116C12.5517 28.7971 11.8696 28.7198 11.2607 28.4531Z" fill="#007537"/>
<path opacity="0.5" d="M9.2998 10.7441C9.45311 13.1719 10.0118 15.5176 11.5756 17.3067L11.5822 17.3075C11.8752 17.4494 12.1906 17.5276 12.4835 17.6695C13.1077 17.9651 13.5773 18.5054 14.0223 19.0285C13.8382 17.6093 13.0941 16.3302 12.2534 15.1705C11.4118 14.0175 10.4533 12.9343 9.75883 11.6824C9.58884 11.3784 9.43422 11.0635 9.2998 10.7441Z" fill="#007537"/>
<path opacity="0.3" d="M8.3265 17.329C7.9057 17.8021 7.82839 18.5308 8.15695 19.1242C8.40162 19.5591 8.80178 19.8828 9.20678 20.1736C9.87313 20.6419 10.5803 21.0561 11.3196 21.3882C11.3121 21.3939 11.3056 21.3926 11.299 21.3917L11.2924 21.3908C10.9361 21.5533 10.5289 21.6017 10.1428 21.6935C9.6065 21.8103 9.02405 21.9671 8.72491 22.431C8.7091 22.4486 8.699 22.474 8.68846 22.4991C8.44774 22.9247 8.53471 23.4834 8.79519 23.9003C9.07324 24.333 9.50899 24.6418 9.95044 24.9115C10.6818 25.3424 11.4984 25.5519 12.2355 25.9437C12.774 26.2336 13.584 26.9092 14.2372 26.8622C14.0821 26.8732 13.9341 26.8855 13.7781 26.9035C13.7724 26.896 13.7724 26.896 13.765 26.9018C13.2668 26.9373 12.7599 26.9852 12.2609 27.0269C11.6051 27.0933 10.8856 27.6972 11.1544 28.2885C11.1795 28.3456 11.2177 28.404 11.2581 28.4497C11.4755 28.7005 11.8617 28.7958 12.199 28.8639C13.8796 29.1837 15.5844 29.4736 17.1174 30.2186C18.5067 30.8968 19.6875 31.9181 20.7017 33.076C21.1546 33.5939 21.6668 34.0669 22.1196 34.5844C22.4689 34.9872 22.6283 35.3166 23.1901 35.4901C23.2033 35.4919 23.209 35.4993 23.2217 35.5011L23.2283 35.502C23.2991 35.5187 23.3579 35.527 23.4269 35.5103C23.4611 35.502 23.4906 35.4862 23.5134 35.4629C23.2494 34.7456 22.9226 34.0454 22.6661 33.3228C22.1284 31.8131 21.9273 30.1852 22.0744 28.5933C22.1144 28.1725 22.1609 27.706 21.8873 27.3805C21.3105 26.705 21.0439 27.7333 20.7127 27.9063C20.519 28.0052 20.2726 27.9103 20.136 27.7443C19.9985 27.5848 19.9436 27.3639 19.8939 27.1499C19.6093 25.8295 19.5377 24.4599 19.6835 23.1145C19.7178 22.8259 19.76 22.532 19.6664 22.2522C19.5719 21.979 19.2996 21.74 19.0123 21.7923C18.6429 21.8595 18.5243 22.3159 18.407 22.6721C18.2893 23.0284 17.9199 23.4224 17.6028 23.2173C17.5114 23.1575 17.4582 23.0635 17.4051 22.9691C17.0484 22.2917 16.8868 21.509 16.9632 20.7398C17.0647 19.6083 17.6476 18.4184 17.1613 17.3892C17.12 17.3035 17.066 17.2157 16.9865 17.1643C16.8393 17.0764 16.6461 17.1225 16.5059 17.2157C15.8677 17.6246 15.8958 18.5484 15.6349 19.2573C15.5817 19.3961 15.4724 19.5543 15.3318 19.5139C15.2422 19.488 15.189 19.3935 15.1543 19.3087C14.4414 17.6743 14.3066 15.8153 13.4579 14.2415C13.0213 13.4262 12.4098 12.7124 11.8564 11.967C11.1079 10.9541 10.4714 9.85678 9.95616 8.70329C9.70973 8.14148 9.48483 7.56957 9.29507 6.98272C9.28585 6.9546 9.27706 6.92035 9.26213 6.88477C9.22215 8.14544 9.20195 9.45531 9.29859 10.7419C9.45189 13.1697 10.0106 15.5153 11.5744 17.3044L11.581 17.3053C11.6201 17.3576 11.6605 17.4032 11.707 17.4498C11.6025 17.3883 11.5045 17.3277 11.3991 17.2728C10.6146 16.841 9.81867 16.5805 8.88173 16.9337C8.65639 17.0228 8.46443 17.1555 8.3265 17.329Z" fill="#007537"/>
<path opacity="0.5" d="M9.26579 6.86719L9.26316 6.88695C9.2614 6.90012 9.26052 6.90671 9.26491 6.92077C9.49904 7.19399 9.86889 7.4536 10.0938 7.60558C11.2741 8.39361 12.3678 9.32307 13.3395 10.361C13.5767 10.6149 13.806 10.8741 14.0274 11.1456C14.2487 11.417 14.4548 11.6999 14.6537 11.9881C14.8514 12.2828 15.0289 12.5815 15.1914 12.8912C15.3548 13.1943 15.4967 13.5079 15.617 13.8316C15.7308 14.1545 15.8309 14.4817 15.8964 14.8177C15.9223 14.9614 15.9478 15.1116 15.9667 15.261C15.9856 15.4103 16.015 15.5746 15.9948 15.7182C15.9741 15.8619 15.9873 16.0037 16.0352 16.1373C16.0317 16.0701 16.0277 16.0029 16.0435 15.9383C16.0651 15.7881 16.0993 15.6396 16.134 15.4916C16.152 15.4143 16.1683 15.3431 16.1929 15.2667C16.232 15.1323 16.2851 14.993 16.3308 14.8599C16.3422 14.8283 16.3458 14.8019 16.3501 14.7694C16.3418 14.7813 16.3326 14.8002 16.3242 14.8125C16.5483 14.458 15.8604 13.0669 15.6952 12.73C15.3658 12.05 14.9327 11.4416 14.4025 10.9062C13.6281 10.1225 12.8712 9.3547 12.0019 8.67122C11.7744 8.492 10.107 7.52124 9.49069 7.0732C9.35101 6.97261 9.26228 6.89354 9.26579 6.86719Z" fill="#007537"/>
<path opacity="0.5" d="M19.2935 14.1757C19.6229 15.0889 19.6541 16.0865 19.5553 17.059C19.4657 17.8729 19.2913 18.6741 19.0277 19.4494C19.2434 19.34 19.3787 19.1397 19.4894 18.9223C19.4802 18.9407 19.4586 18.9513 19.4437 18.9623C20.0099 17.4701 19.9989 15.7693 19.4248 14.2811C19.3062 13.9912 19.167 13.7044 18.9219 13.5098C19.0954 13.6943 19.2008 13.9358 19.2935 14.1757Z" fill="#007537"/>
<path opacity="0.5" d="M22.0403 19.0661C22.1229 20.3105 21.9999 20.9865 21.7601 22.1053C21.529 23.1652 20.824 25.1639 20.7568 25.3545C20.7766 25.3106 20.9022 25.1287 21.0648 24.8788C21.0656 24.8722 21.0656 24.8722 21.0665 24.8656C21.3296 24.0969 21.5791 23.326 21.8357 22.5564C22.0799 21.8251 22.3263 21.0801 22.383 20.3087C22.4322 19.5892 22.3043 18.3848 21.6415 17.9372C21.6108 17.9196 21.58 17.9016 21.5479 17.8906C21.7865 18.137 21.9986 18.5205 22.0403 19.0661Z" fill="#007537"/>
<path opacity="0.5" d="M22.7337 24.1641C22.9371 24.3731 23.1304 24.747 23.2143 25.419C23.4181 27.0276 22.8268 28.276 22.6749 30.0875C22.5659 31.4114 22.623 32.5526 23.0535 33.4605C22.8339 32.4761 22.8282 31.4426 22.9252 30.4367C23.0632 28.9568 23.397 27.5051 23.5477 26.027C23.6092 25.4559 23.6083 24.8093 23.1985 24.4109C23.0693 24.2853 22.9081 24.2023 22.7337 24.1641Z" fill="#007537"/>
<path d="M0 17.3828L0.00746831 17.4008C0.0123001 17.4127 0.0149356 17.4188 0.0259171 17.4285C0.613205 18.5143 1.25057 19.6358 1.97315 20.6729C3.32167 22.6667 4.9746 24.3877 7.20603 25.1296L7.21218 25.1269C7.27192 25.152 7.32902 25.1709 7.39227 25.1871C7.27235 25.1871 7.15815 25.1845 7.04087 25.1906C6.15488 25.2157 5.34533 25.3931 4.72334 26.164C4.57487 26.352 4.47736 26.5616 4.44661 26.779C4.32493 27.3935 4.62451 28.0537 5.20257 28.3955C5.62909 28.6436 6.13292 28.7192 6.62445 28.764C7.42785 28.8294 8.23872 28.8277 9.03554 28.7403C9.03202 28.7491 9.02587 28.7513 9.02016 28.7539L9.01401 28.7565C8.79131 29.0737 8.46889 29.3192 8.18513 29.5911C7.78629 29.9596 7.36811 30.3857 7.34527 30.9313C7.34044 30.9546 7.34439 30.9809 7.34835 31.0077C7.35625 31.4913 7.71073 31.9245 8.14209 32.1498C8.59628 32.3795 9.12295 32.4243 9.63469 32.4327C10.475 32.4336 11.2766 32.2029 12.102 32.1674C12.7069 32.145 13.7365 32.3145 14.2702 31.9473C14.1437 32.0347 14.0233 32.119 13.8994 32.2126C13.8911 32.2091 13.8911 32.2091 13.8871 32.2174C13.4799 32.4977 13.0719 32.7924 12.6669 33.0788C12.1407 33.4645 11.8301 34.3404 12.3559 34.7098C12.406 34.7458 12.4679 34.7766 12.525 34.7954C12.8364 34.9004 13.2133 34.788 13.5349 34.6768C15.1289 34.1067 16.7283 33.4992 18.4097 33.3657C19.9348 33.2471 21.4542 33.5264 22.9003 34.0052C23.546 34.22 24.2202 34.3663 24.866 34.5811C25.3658 34.7498 25.6672 34.9505 26.2334 34.817C26.2457 34.8121 26.254 34.8157 26.2663 34.8104L26.2725 34.8077C26.3414 34.7867 26.3959 34.7643 26.4464 34.7151C26.4714 34.6905 26.4881 34.6623 26.4965 34.6312C26.5602 34.4427 26.3375 34.2095 26.1482 34.0755C25.7638 33.8097 25.412 33.5027 25.1005 33.1579C25.1005 33.1579 25.0944 33.1601 25.0979 33.1517C24.417 32.4221 23.8934 31.5432 23.4718 30.6365C22.8471 29.3052 22.4039 27.8991 21.7912 26.5629C21.557 26.045 21.232 25.4937 20.6829 25.3597C20.5103 25.3176 20.3311 25.3277 20.1628 25.3826C19.9124 25.4432 19.6871 25.5991 19.5202 25.7946C19.247 26.1258 19.1345 26.5743 19.1376 27.0105C19.1275 26.9512 19.1147 26.8857 19.0985 26.8291C19.0959 26.8229 19.0959 26.8229 19.0937 26.8172C18.9325 26.0292 18.759 25.2464 18.5916 24.4615C18.433 23.7147 18.2696 22.9561 17.931 22.2696C17.612 21.6313 16.8987 20.668 16.1093 20.6184C16.0742 20.6188 16.0391 20.6188 16.0061 20.6254C16.0061 20.6254 16.0035 20.6193 15.9978 20.6219C15.6147 20.6522 15.2967 20.9944 15.1439 21.3607C14.9752 21.7407 14.9247 22.1497 14.7705 22.5305L14.767 22.5393C14.7687 22.5599 14.7556 22.5792 14.7481 22.5964C14.4828 21.0396 13.6205 19.594 12.3844 18.6127C12.1376 18.4247 11.8753 18.2499 11.5683 18.2069C11.56 18.2033 11.56 18.2034 11.5538 18.206C11.0197 18.1432 10.5189 18.5394 10.2813 19.0252C10.0529 19.5 10.0217 20.0425 10.0059 20.5709C10.005 20.5854 10.0063 20.6061 10.005 20.6206C10.0182 20.2059 8.73377 19.3643 8.42365 19.1596C7.80122 18.745 7.12696 18.4432 6.40614 18.2521C5.35236 17.9723 4.32186 17.6969 3.23777 17.5493C2.95357 17.5106 1.04412 17.519 0.294304 17.4456C0.125189 17.4303 0.00966368 17.407 0 17.3828Z" fill="#009245"/>
<path opacity="0.5" d="M5.20448 28.3958C5.63144 28.6439 6.13483 28.7191 6.62636 28.7643C7.42976 28.8297 8.24063 28.828 9.03744 28.7406C9.03393 28.7494 9.02778 28.7516 9.02163 28.7542C9.98931 28.3778 11.0115 28.1344 12.0433 28.0351C10.6847 27.5629 9.23335 27.3969 7.79917 27.4285C7.14204 27.4443 6.47964 27.4975 5.8313 27.3969C5.45266 27.3336 5.07182 27.2146 4.7415 27.0117C4.64047 26.9546 4.54471 26.8597 4.44851 26.7793C4.32728 27.3943 4.62685 28.0545 5.20448 28.3958Z" fill="#009245"/>
<path opacity="0.5" d="M8.14476 32.1493C8.59896 32.3791 9.12562 32.4239 9.63736 32.4326C10.4777 32.4331 11.2793 32.2029 12.1047 32.1673C12.7095 32.1449 13.7392 32.3145 14.2729 31.9473C14.1463 32.0347 14.026 32.1195 13.9017 32.2126C14.8997 31.8238 15.9025 31.4474 16.962 31.3292C15.4378 30.7977 13.8314 30.2719 12.2382 30.517C11.5033 30.6356 10.804 30.9084 10.0832 31.1131C9.36019 31.3112 8.595 31.4421 7.87418 31.2515C7.7222 31.208 7.53464 31.0947 7.35059 31.0077C7.35893 31.4909 7.71341 31.924 8.14476 32.1493Z" fill="#009245"/>
<path opacity="0.5" d="M12.5283 34.7955C12.8398 34.9005 13.2171 34.788 13.5382 34.6769C15.1322 34.1067 16.7316 33.4992 18.4131 33.3657C19.9386 33.2471 21.4576 33.5265 22.9036 34.0053C23.5493 34.2201 24.2236 34.3663 24.8693 34.5811C25.3691 34.7498 25.6705 34.9505 26.2367 34.817C26.2485 34.8122 26.2573 34.8157 26.2692 34.8109C26.202 34.7327 26.1102 34.6646 26.0236 34.6084C25.4574 34.2271 24.8882 33.8537 24.318 33.4808C23.9218 33.2199 23.519 32.962 23.0929 32.749C21.1097 31.7356 18.6362 31.7281 16.6503 32.7349C15.8561 33.1386 15.1459 33.6776 14.3693 34.1239C13.8017 34.4419 13.1811 34.7182 12.5283 34.7955Z" fill="#009245"/>
<path opacity="0.5" d="M1.97266 20.6738C3.32118 22.6676 4.97411 24.3886 7.20554 25.1305L7.21169 25.1279C7.53278 25.102 7.84114 25.0106 8.16224 24.9847C8.84309 24.9236 9.51428 25.149 10.1565 25.3721C9.28762 24.2538 8.01158 23.536 6.71269 22.9685C5.41644 22.4071 4.05562 21.9639 2.83536 21.2444C2.53754 21.07 2.24763 20.879 1.97266 20.6738Z" fill="#009245"/>
<path opacity="0.3" d="M4.44598 26.7777C4.3243 27.3922 4.62388 28.0524 5.20194 28.3941C5.62846 28.6423 6.13229 28.7179 6.62382 28.7627C7.42722 28.8281 8.23809 28.8264 9.03491 28.739C9.03139 28.7477 9.02524 28.7499 9.01953 28.7526L9.01338 28.7552C8.79068 29.0723 8.46826 29.3179 8.1845 29.5898C7.78566 29.9583 7.36748 30.3844 7.34464 30.93C7.33981 30.9533 7.34376 30.9796 7.34772 31.0064C7.35562 31.49 7.7101 31.9231 8.14145 32.1485C8.59565 32.3782 9.12232 32.423 9.63405 32.4314C10.4744 32.4322 11.276 32.2016 12.1014 32.166C12.7062 32.1436 13.7358 32.3132 14.2695 31.946C14.143 32.0334 14.0227 32.1177 13.8988 32.2113C13.8905 32.2078 13.8905 32.2078 13.8865 32.2161C13.4793 32.4964 13.0712 32.7911 12.6663 33.0775C12.14 33.4632 11.8295 34.339 12.3553 34.7085C12.4053 34.7445 12.4673 34.7752 12.5244 34.7941C12.8358 34.8991 13.2127 34.7866 13.5342 34.6755C15.1283 34.1054 16.7276 33.4979 18.4091 33.3643C19.9342 33.2457 21.4536 33.5251 22.8996 34.0039C23.5454 34.2187 24.2196 34.365 24.8653 34.5798C25.3652 34.7484 25.6665 34.9492 26.2327 34.8156C26.245 34.8108 26.2534 34.8143 26.2657 34.8091L26.2718 34.8064C26.3408 34.7853 26.3953 34.7629 26.4458 34.7137C26.4708 34.6891 26.4875 34.661 26.4958 34.6298C25.9108 34.1502 25.2813 33.7171 24.6993 33.2295C23.4834 32.2113 22.4955 30.9234 21.8226 29.4918C21.6456 29.1128 21.4514 28.6915 21.0548 28.5509C20.2241 28.2641 20.5123 29.2748 20.3164 29.5885C20.2004 29.7703 19.9426 29.8125 19.7431 29.7391C19.5459 29.6719 19.3882 29.5107 19.2389 29.3535C18.334 28.37 17.5859 27.2376 17.0351 26.0169C16.92 25.7538 16.8085 25.4819 16.5884 25.2899C16.371 25.1041 16.0187 25.0369 15.7995 25.2258C15.5179 25.4682 15.6457 25.9172 15.7244 26.28C15.803 26.6428 15.6853 27.1642 15.3115 27.1484C15.2034 27.1431 15.1112 27.0895 15.0185 27.0359C14.3745 26.6371 13.8439 26.0503 13.5237 25.3562C13.0427 24.3398 12.943 23.0326 12.0122 22.3987C11.934 22.346 11.844 22.2986 11.7504 22.2946C11.5808 22.2937 11.439 22.4294 11.3665 22.5792C11.0274 23.2482 11.5145 24.0218 11.6476 24.758C11.6722 24.9034 11.6582 25.0927 11.5176 25.1287C11.428 25.1515 11.3353 25.0979 11.2633 25.0426C9.83523 24.0059 8.78804 22.4879 7.27524 21.5711C6.4938 21.0945 5.6144 20.7923 4.76839 20.4343C3.62193 19.9454 2.52862 19.3287 1.51042 18.6035C1.01845 18.2482 0.539657 17.873 0.0837074 17.4676C0.0617445 17.4483 0.0371447 17.4232 0.00683594 17.4004C0.605105 18.4955 1.24467 19.623 1.97252 20.6724C3.32104 22.6662 4.97397 24.3872 7.2054 25.1291L7.21155 25.1265C7.27129 25.1515 7.32839 25.1704 7.39164 25.1867C7.27172 25.1867 7.15752 25.184 7.04023 25.1902C6.15425 25.2152 5.3447 25.3927 4.72271 26.1636C4.57424 26.3511 4.47673 26.5607 4.44598 26.7777Z" fill="#009245"/>
<path opacity="0.5" d="M0 17.3828L0.00746831 17.4008C0.0123001 17.4127 0.0149356 17.4188 0.0259171 17.4285C0.362828 17.544 0.808235 17.58 1.07618 17.5967C2.47829 17.6771 3.87733 17.9213 5.22673 18.3197C5.55618 18.4173 5.8821 18.5236 6.20672 18.6439C6.53177 18.7647 6.84935 18.9022 7.16342 19.0485C7.48013 19.2005 7.78102 19.3665 8.07488 19.5492C8.36611 19.7258 8.6446 19.9222 8.90947 20.1378C9.16863 20.3562 9.41813 20.5854 9.64215 20.8389C9.73659 20.9483 9.83323 21.0638 9.92416 21.182C10.0151 21.2997 10.1227 21.4249 10.1772 21.558C10.2316 21.6906 10.3142 21.8053 10.4214 21.8949C10.3845 21.8395 10.3476 21.7842 10.3287 21.7214C10.2716 21.5826 10.2268 21.4385 10.1816 21.2948C10.1578 21.2197 10.1363 21.1508 10.1187 21.0735C10.0849 20.939 10.0603 20.7937 10.0322 20.657C10.0261 20.6245 10.016 20.6004 10.0037 20.5701C10.0028 20.5846 10.0041 20.6052 10.0028 20.6197C10.016 20.2051 8.73157 19.3634 8.42145 19.1587C7.79903 18.7441 7.12477 18.4423 6.40394 18.2512C5.35016 17.9714 4.31966 17.696 3.23557 17.5484C2.95137 17.5098 1.04192 17.5181 0.292107 17.4448C0.125189 17.4303 0.00966368 17.407 0 17.3828Z" fill="#009245"/>
<path opacity="0.5" d="M12.2188 18.5888C12.9581 19.2024 13.4847 20.0379 13.888 20.9168C14.2196 21.6556 14.4731 22.427 14.6369 23.2207C14.7661 23.0195 14.7806 22.7806 14.7661 22.5394C14.7678 22.5601 14.7546 22.5794 14.7472 22.5965C14.4819 21.0398 13.6196 19.5942 12.3835 18.6129C12.1367 18.4249 11.8744 18.2501 11.5674 18.207C11.8085 18.2773 12.0194 18.4306 12.2188 18.5888Z" fill="#009245"/>
<path opacity="0.5" d="M17.0153 21.3826C17.7097 22.403 17.9439 23.0408 18.3005 24.1156C18.6348 25.1356 19.0359 27.1944 19.0741 27.3903C19.0688 27.3429 19.0851 27.1246 19.0982 26.8298C19.0956 26.8237 19.0956 26.8237 19.0934 26.8179C18.9322 26.0299 18.7587 25.2472 18.5913 24.4622C18.4328 23.7155 18.2694 22.9569 17.9307 22.2703C17.6118 21.6321 16.8984 20.6688 16.1091 20.6191C16.0739 20.6196 16.0388 20.6196 16.0059 20.6262C16.3327 20.7171 16.7056 20.938 17.0153 21.3826Z" fill="#009245"/>
<path opacity="0.5" d="M20.1621 25.3829C20.4406 25.4593 20.7929 25.6815 21.2014 26.2122C22.1818 27.4821 22.3035 28.8438 23.0827 30.4646C23.6538 31.6489 24.2749 32.5933 25.0972 33.152C24.4163 32.4224 23.8927 31.5434 23.471 30.6368C22.8464 29.3054 22.4032 27.8994 21.7904 26.5631C21.5563 26.0453 21.2313 25.494 20.6822 25.36C20.5096 25.3178 20.3299 25.3279 20.1621 25.3829Z" fill="#009245"/>
<path d="M50.7341 6.86719L50.7367 6.88695C50.7385 6.90012 50.7393 6.90671 50.7349 6.92077C50.7793 8.16738 50.7986 9.47067 50.7007 10.7445C50.5474 13.1723 49.9886 15.5179 48.4244 17.307L48.4179 17.3079C48.3788 17.3602 48.3384 17.4059 48.2918 17.4524C48.3963 17.3909 48.4943 17.3303 48.5997 17.2754C49.3842 16.8436 50.1802 16.5831 51.1171 16.9363C51.3429 17.0241 51.5353 17.1564 51.6732 17.3303C52.094 17.8034 52.1713 18.5321 51.8427 19.1256C51.5981 19.5604 51.1979 19.8842 50.7929 20.1749C50.1266 20.6432 49.4194 21.0574 48.6801 21.3895C48.6876 21.3952 48.6941 21.3939 48.7007 21.393L48.7073 21.3921C49.0636 21.5546 49.4708 21.603 49.8569 21.6948C50.3932 21.8116 50.9752 21.9684 51.2748 22.4323C51.2906 22.4499 51.3011 22.4753 51.3112 22.5004C51.552 22.926 51.465 23.4848 51.2045 23.9016C50.9265 24.3343 50.4907 24.6431 50.0493 24.9128C49.3179 25.3437 48.5013 25.5532 47.7642 25.945C47.2257 26.2349 46.4157 26.9105 45.7625 26.8635C45.9172 26.8745 46.0656 26.8868 46.2216 26.9048C46.2273 26.8973 46.2273 26.8973 46.2347 26.903C46.7329 26.9386 47.2398 26.9865 47.7388 27.0282C48.3946 27.0946 49.1141 27.6986 48.8453 28.2898C48.8198 28.3469 48.7816 28.4053 48.7416 28.451C48.5242 28.7018 48.1376 28.7971 47.8011 28.8652C46.1205 29.185 44.4158 29.4749 42.8828 30.2199C41.4934 30.8981 40.3127 31.9194 39.2984 33.0773C38.8455 33.5951 38.3334 34.0682 37.8809 34.5857C37.5317 34.9885 37.3723 35.3179 36.8105 35.4914C36.7973 35.4932 36.7916 35.5007 36.7788 35.5024L36.7722 35.5033C36.7015 35.52 36.6427 35.5283 36.5737 35.5116C36.5394 35.5033 36.5104 35.4875 36.4872 35.4642C36.3352 35.3329 36.4099 35.0153 36.5061 34.8018C36.705 34.3735 36.8544 33.9259 36.9484 33.4656C36.9484 33.4656 36.955 33.4647 36.9475 33.459C37.1671 32.4746 37.1729 31.441 37.0762 30.4351C36.9383 28.9553 36.6044 27.5035 36.4538 26.0254C36.3923 25.4544 36.3932 24.8078 36.803 24.4094C36.9317 24.2842 37.0933 24.2012 37.2677 24.163C37.5168 24.0874 37.7931 24.1081 38.0386 24.1928C38.4463 24.3413 38.7739 24.6743 38.9949 25.056C38.9734 24.9989 38.951 24.9356 38.936 24.8776C38.9352 24.871 38.9352 24.871 38.9343 24.8645C38.6712 24.0958 38.4212 23.3249 38.1647 22.5553C37.9205 21.8239 37.674 21.0789 37.6174 20.3076C37.5677 19.5881 37.696 18.3836 38.3588 17.936C38.3896 17.9185 38.4203 17.9005 38.452 17.8895C38.452 17.8895 38.4511 17.8829 38.4577 17.882C38.8065 17.7125 39.2593 17.8478 39.58 18.0885C39.9213 18.3331 40.1752 18.6635 40.5046 18.9165L40.5121 18.9222C40.5213 18.9406 40.5428 18.9512 40.5578 18.9622C39.9916 17.47 40.0026 15.7692 40.5762 14.281C40.6948 13.9911 40.8341 13.7042 41.0792 13.5096C41.0849 13.5022 41.0849 13.5022 41.0915 13.5013C41.5246 13.1727 42.1637 13.2615 42.6196 13.5632C43.062 13.8602 43.3668 14.3166 43.6515 14.769C43.6598 14.7809 43.669 14.7997 43.6774 14.812C43.4534 14.4576 44.1412 13.0664 44.3064 12.7295C44.6358 12.0495 45.069 11.4412 45.5991 10.9057C46.374 10.1221 47.1304 9.35426 47.9992 8.67078C48.2268 8.49156 49.8942 7.5208 50.5105 7.07275C50.6488 6.9726 50.7376 6.89354 50.7341 6.86719Z" fill="#007537"/>
<path opacity="0.5" d="M51.8403 19.1277C51.5956 19.5626 51.1955 19.8863 50.7905 20.1771C50.1241 20.6453 49.4169 21.0596 48.6776 21.3917C48.6851 21.3974 48.6917 21.3965 48.6983 21.3952C47.6625 21.563 46.6474 21.8744 45.6973 22.3163C46.639 21.2089 47.8184 20.3207 49.0839 19.614C49.6642 19.2911 50.2691 18.9986 50.7821 18.5786C51.0799 18.3296 51.3505 18.0309 51.5341 17.6847C51.593 17.5828 51.6277 17.4515 51.6703 17.332C52.0915 17.8056 52.1688 18.5343 51.8403 19.1277Z" fill="#007537"/>
<path opacity="0.5" d="M51.2017 23.9036C50.9237 24.3363 50.4879 24.6451 50.0465 24.9148C49.3147 25.3457 48.4985 25.5557 47.761 25.947C47.2225 26.2374 46.4125 26.9125 45.7593 26.8655C45.9144 26.877 46.0624 26.8888 46.2183 26.9068C45.1501 27.079 44.0835 27.2648 43.0996 27.705C44.1551 26.4614 45.2854 25.1805 46.799 24.5783C47.5001 24.3051 48.249 24.1847 48.9817 23.9937C49.7131 23.796 50.4466 23.518 50.9768 22.9825C51.0871 22.867 51.1925 22.6719 51.308 22.502C51.5492 22.928 51.4622 23.4868 51.2017 23.9036Z" fill="#007537"/>
<path opacity="0.5" d="M48.7391 28.4531C48.5217 28.7039 48.1356 28.7993 47.7987 28.8674C46.1181 29.1871 44.4133 29.477 42.8803 30.222C41.4909 30.9002 40.3102 31.9215 39.2959 33.0794C38.8435 33.5973 38.3309 34.0704 37.8785 34.5878C37.5293 34.9906 37.3698 35.3201 36.808 35.4936C36.7948 35.4953 36.7891 35.5028 36.7764 35.5045C36.7953 35.4018 36.8396 35.2955 36.8866 35.2023C37.1844 34.5799 37.4897 33.9636 37.795 33.3469C38.0067 32.9169 38.2255 32.486 38.4877 32.0818C39.6966 30.1834 41.8472 28.91 44.0931 28.7698C44.9918 28.7149 45.8866 28.8208 46.7914 28.8116C47.4486 28.7971 48.1307 28.7198 48.7391 28.4531Z" fill="#007537"/>
<path opacity="0.5" d="M50.7004 10.7441C50.5471 13.1719 49.9884 15.5176 48.4242 17.3067L48.4176 17.3075C48.1246 17.4494 47.8092 17.5276 47.5163 17.6695C46.8921 17.9651 46.4225 18.5054 45.9775 19.0285C46.1616 17.6093 46.9057 16.3302 47.7464 15.1705C48.5885 14.0175 49.5469 12.9343 50.241 11.6824C50.411 11.3784 50.566 11.0635 50.7004 10.7441Z" fill="#007537"/>
<path opacity="0.3" d="M51.6733 17.329C52.0941 17.8021 52.1715 18.5308 51.8429 19.1242C51.5982 19.5591 51.1981 19.8828 50.7931 20.1736C50.1267 20.6419 49.4195 21.0561 48.6802 21.3882C48.6877 21.3939 48.6943 21.3926 48.7009 21.3917L48.7075 21.3908C49.0637 21.5533 49.4709 21.6017 49.857 21.6935C50.3933 21.8103 50.9754 21.9671 51.2749 22.431C51.2907 22.4486 51.3013 22.474 51.3114 22.4991C51.5521 22.9247 51.4651 23.4834 51.2046 23.9003C50.9266 24.333 50.4908 24.6418 50.0494 24.9115C49.318 25.3424 48.5015 25.5519 47.7644 25.9437C47.2258 26.2336 46.4159 26.9092 45.7627 26.8622C45.9173 26.8732 46.0658 26.8855 46.2217 26.9035C46.2274 26.896 46.2274 26.896 46.2349 26.9018C46.733 26.9373 47.2399 26.9852 47.7389 27.0269C48.3947 27.0933 49.1142 27.6972 48.8454 28.2885C48.8199 28.3456 48.7817 28.404 48.7417 28.4497C48.5243 28.7005 48.1377 28.7958 47.8013 28.8639C46.1207 29.1837 44.4159 29.4736 42.8829 30.2186C41.4935 30.8968 40.3128 31.9181 39.2986 33.076C38.8457 33.5939 38.3335 34.0669 37.8811 34.5844C37.5319 34.9872 37.3724 35.3166 36.8106 35.4901C36.7974 35.4919 36.7917 35.4993 36.779 35.5011L36.7724 35.502C36.7017 35.5187 36.6428 35.527 36.5738 35.5103C36.5396 35.502 36.5106 35.4862 36.4873 35.4629C36.7513 34.7456 37.0781 34.0454 37.3351 33.3228C37.8727 31.8131 38.0739 30.1852 37.9268 28.5933C37.8868 28.1725 37.8402 27.706 38.1139 27.3805C38.6906 26.705 38.9573 27.7333 39.2885 27.9063C39.4826 28.0052 39.729 27.9103 39.8652 27.7443C40.0022 27.5848 40.0576 27.3639 40.1068 27.1499C40.3914 25.8295 40.463 24.4599 40.3176 23.1145C40.2834 22.8259 40.2412 22.532 40.3343 22.2522C40.4288 21.979 40.7011 21.74 40.9884 21.7923C41.3578 21.8595 41.4764 22.3159 41.5937 22.6721C41.7114 23.0284 42.0808 23.4224 42.398 23.2173C42.4893 23.1575 42.5425 23.0635 42.5956 22.9691C42.9523 22.2917 43.114 21.509 43.0375 20.7398C42.9361 19.6083 42.3532 18.4184 42.8394 17.3892C42.8803 17.3035 42.9347 17.2157 43.0138 17.1643C43.1614 17.0764 43.3542 17.1225 43.4943 17.2157C44.1326 17.6246 44.1045 18.5484 44.3654 19.2573C44.4185 19.3961 44.5279 19.5543 44.6689 19.5139C44.7585 19.488 44.8117 19.3935 44.8464 19.3087C45.5593 17.6743 45.6942 15.8153 46.5428 14.2415C46.9799 13.4262 47.5909 12.7124 48.1443 11.967C48.8928 10.9541 49.5293 9.85678 50.0446 8.70329C50.291 8.14148 50.5159 7.56957 50.7056 6.98272C50.7149 6.9546 50.7232 6.92035 50.7386 6.88477C50.7786 8.14544 50.7988 9.45531 50.7021 10.7419C50.5488 13.1697 49.9901 15.5153 48.4259 17.3044L48.4193 17.3053C48.3802 17.3576 48.3398 17.4032 48.2932 17.4498C48.3978 17.3883 48.4957 17.3277 48.6012 17.2728C49.3857 16.841 50.1816 16.5805 51.1186 16.9337C51.3435 17.0228 51.5354 17.1555 51.6733 17.329Z" fill="#007537"/>
<path opacity="0.5" d="M50.7337 6.86719L50.7363 6.88695C50.7381 6.90012 50.739 6.90671 50.7346 6.92077C50.5005 7.19399 50.1306 7.4536 49.9057 7.60558C48.7254 8.39361 47.6317 9.32307 46.66 10.361C46.4228 10.6149 46.1935 10.8741 45.9722 11.1456C45.7508 11.417 45.5448 11.6999 45.3458 11.9881C45.1481 12.2828 44.9706 12.5815 44.8081 12.8912C44.6447 13.1943 44.5028 13.5079 44.3825 13.8316C44.2687 14.1545 44.1686 14.4817 44.1031 14.8177C44.0772 14.9614 44.0517 15.1116 44.0333 15.261C44.0144 15.4103 43.9845 15.5746 44.0052 15.7182C44.0258 15.8619 44.0126 16.0037 43.9647 16.1373C43.9687 16.0701 43.9722 16.0029 43.9564 15.9383C43.9349 15.7881 43.9002 15.6396 43.8659 15.4916C43.8483 15.4143 43.8317 15.3431 43.8071 15.2667C43.768 15.1323 43.7148 14.993 43.6691 14.8599C43.6577 14.8283 43.6542 14.8019 43.6494 14.7694C43.6577 14.7813 43.6669 14.8002 43.6753 14.8125C43.4513 14.458 44.1391 13.0669 44.3043 12.73C44.6337 12.05 45.0668 11.4416 45.597 10.9062C46.3719 10.1225 47.1283 9.3547 47.9971 8.67122C48.2247 8.492 49.8921 7.52124 50.5084 7.0732C50.6485 6.97261 50.7372 6.89354 50.7337 6.86719Z" fill="#007537"/>
<path opacity="0.5" d="M40.7062 14.1757C40.3768 15.0889 40.3456 16.0865 40.4444 17.059C40.5336 17.8729 40.7084 18.6741 40.972 19.4494C40.7563 19.34 40.6214 19.1397 40.5103 18.9223C40.5195 18.9407 40.5411 18.9513 40.556 18.9623C39.9898 17.4701 40.0008 15.7693 40.5744 14.2811C40.693 13.9912 40.8323 13.7044 41.0774 13.5098C40.9043 13.6943 40.7989 13.9358 40.7062 14.1757Z" fill="#007537"/>
<path opacity="0.5" d="M37.9591 19.0661C37.8765 20.3105 37.9995 20.9865 38.2393 22.1053C38.4704 23.1652 39.1754 25.1639 39.2426 25.3545C39.2228 25.3106 39.0972 25.1287 38.9347 24.8788C38.9338 24.8722 38.9338 24.8722 38.9329 24.8656C38.6698 24.0969 38.4199 23.326 38.1633 22.5564C37.9191 21.8251 37.6727 21.0801 37.616 20.3087C37.5664 19.5892 37.6946 18.3848 38.3575 17.9372C38.3882 17.9196 38.419 17.9016 38.4506 17.8906C38.213 18.137 38.0012 18.5205 37.9591 19.0661Z" fill="#007537"/>
<path opacity="0.5" d="M37.2662 24.1641C37.0628 24.3731 36.8695 24.747 36.7852 25.419C36.5818 27.0276 37.1726 28.276 37.3246 30.0875C37.4335 31.4114 37.3764 32.5526 36.946 33.4605C37.1656 32.4761 37.1713 31.4426 37.0747 30.4367C36.9367 28.9568 36.6029 27.5051 36.4522 26.027C36.3907 25.4559 36.3916 24.8093 36.8014 24.4109C36.9306 24.2853 37.0918 24.2023 37.2662 24.1641Z" fill="#007537"/>
<path d="M59.9999 17.3828L59.9924 17.4008C59.9876 17.4127 59.9849 17.4188 59.974 17.4285C59.3867 18.5143 58.7493 19.6358 58.0272 20.6729C56.6786 22.6667 55.0257 24.3877 52.7943 25.1296L52.7881 25.1269C52.7284 25.152 52.6713 25.1709 52.608 25.1871C52.728 25.1871 52.8422 25.1845 52.9599 25.1906C53.8459 25.2157 54.655 25.3931 55.2774 26.164C55.4259 26.352 55.5234 26.5616 55.5541 26.779C55.6758 27.3935 55.3762 28.0537 54.7982 28.3955C54.3717 28.6436 53.8678 28.7192 53.3763 28.764C52.5729 28.8294 51.762 28.8277 50.9652 28.7403C50.9687 28.7491 50.9749 28.7513 50.9806 28.7539L50.9867 28.7565C51.2094 29.0737 51.5319 29.3192 51.8156 29.5911C52.2149 29.9596 52.6326 30.3857 52.6555 30.9313C52.6603 30.9546 52.6564 30.9809 52.6524 31.0077C52.6445 31.4913 52.29 31.9245 51.8587 32.1498C51.4045 32.3795 50.8778 32.4243 50.3661 32.4327C49.5258 32.4336 48.7241 32.2029 47.8988 32.1674C47.2939 32.145 46.2643 32.3145 45.7306 31.9473C45.8571 32.0347 45.9774 32.119 46.1013 32.2126C46.1097 32.2091 46.1097 32.2091 46.1136 32.2174C46.5208 32.4977 46.9289 32.7924 47.3339 33.0788C47.8601 33.4645 48.1707 34.3404 47.6449 34.7098C47.5948 34.7458 47.5329 34.7766 47.4753 34.7954C47.1639 34.9004 46.7866 34.788 46.4655 34.6768C44.8718 34.1067 43.2721 33.4992 41.5906 33.3657C40.0655 33.2471 38.5461 33.5264 37.1 34.0052C36.4543 34.22 35.7801 34.3663 35.1344 34.5811C34.6345 34.7498 34.3332 34.9505 33.767 34.817C33.7547 34.8121 33.7463 34.8157 33.7344 34.8104L33.7283 34.8077C33.6593 34.7867 33.6049 34.7643 33.5544 34.7151C33.5293 34.6905 33.5126 34.6623 33.5043 34.6312C33.4406 34.4427 33.6633 34.2095 33.8526 34.0755C34.237 33.8097 34.5888 33.5027 34.9002 33.1579C34.9002 33.1579 34.9064 33.1601 34.9029 33.1517C35.5837 32.4221 36.1073 31.5432 36.529 30.6365C37.1536 29.3052 37.5973 27.8991 38.2096 26.5629C38.4437 26.045 38.7688 25.4937 39.3179 25.3597C39.4905 25.3176 39.6697 25.3277 39.8379 25.3826C40.0883 25.4432 40.3137 25.5991 40.4806 25.7946C40.7538 26.1258 40.8662 26.5743 40.8632 27.0105C40.8733 26.9512 40.886 26.8857 40.9023 26.8291C40.9049 26.8229 40.9049 26.8229 40.9071 26.8172C41.0683 26.0292 41.2418 25.2464 41.4092 24.4615C41.5677 23.7147 41.7311 22.9561 42.0698 22.2696C42.3887 21.6313 43.1021 20.668 43.8914 20.6184C43.9265 20.6188 43.9617 20.6188 43.9942 20.6254C43.9942 20.6254 43.9968 20.6193 44.0025 20.6219C44.3856 20.6522 44.7036 20.9944 44.8565 21.3607C45.0251 21.7407 45.0761 22.1497 45.2298 22.5305L45.2333 22.5393C45.232 22.5599 45.2452 22.5792 45.2522 22.5964C45.5175 21.0396 46.3798 19.594 47.6159 18.6127C47.8623 18.4247 48.125 18.2499 48.432 18.2069C48.4408 18.2033 48.4408 18.2034 48.4465 18.206C48.9806 18.1432 49.481 18.5394 49.719 19.0252C49.9475 19.5 49.9786 20.0425 49.9945 20.5709C49.9953 20.5854 49.994 20.6061 49.9953 20.6206C49.9822 20.2059 51.2666 19.3643 51.5767 19.1596C52.1991 18.745 52.8734 18.4432 53.5942 18.2521C54.648 17.9723 55.6785 17.6969 56.7625 17.5493C57.0463 17.5106 58.9558 17.519 59.706 17.4456C59.8747 17.4303 59.9902 17.407 59.9999 17.3828Z" fill="#009245"/>
<path opacity="0.5" d="M54.7949 28.3958C54.3683 28.6439 53.8645 28.7191 53.373 28.7643C52.57 28.8297 51.7587 28.828 50.9619 28.7406C50.9654 28.7494 50.9716 28.7516 50.9777 28.7542C50.01 28.3778 48.9879 28.1344 47.9561 28.0351C49.3147 27.5629 50.7664 27.3969 52.2002 27.4285C52.8573 27.4443 53.5201 27.4975 54.168 27.3969C54.5471 27.3336 54.9275 27.2146 55.2578 27.0117C55.3589 26.9546 55.4542 26.8597 55.5508 26.7793C55.6721 27.3943 55.3725 28.0545 54.7949 28.3958Z" fill="#009245"/>
<path opacity="0.5" d="M51.8548 32.1493C51.4006 32.3791 50.8739 32.4239 50.3622 32.4326C49.5219 32.4331 48.7202 32.2029 47.8949 32.1673C47.29 32.1449 46.2604 32.3145 45.7267 31.9473C45.8532 32.0347 45.9735 32.1195 46.0974 32.2126C45.0994 31.8238 44.097 31.4474 43.0371 31.3292C44.5613 30.7977 46.1677 30.2719 47.7609 30.517C48.4958 30.6356 49.1951 30.9084 49.9159 31.1131C50.6389 31.3112 51.4041 31.4421 52.1249 31.2515C52.2769 31.208 52.4645 31.0947 52.6485 31.0077C52.6406 31.4909 52.2861 31.924 51.8548 32.1493Z" fill="#009245"/>
<path opacity="0.5" d="M47.4718 34.7955C47.1603 34.9005 46.7835 34.788 46.4619 34.6769C44.8683 34.1067 43.2685 33.4992 41.587 33.3657C40.0615 33.2471 38.5425 33.5265 37.0965 34.0053C36.4508 34.2201 35.7765 34.3663 35.1304 34.5811C34.6305 34.7498 34.3292 34.9505 33.763 34.817C33.7507 34.8122 33.7423 34.8157 33.7305 34.8109C33.7981 34.7327 33.8895 34.6646 33.976 34.6084C34.5422 34.2271 35.1119 33.8537 35.6812 33.4808C36.0774 33.2199 36.4802 32.962 36.9063 32.749C38.8896 31.7356 41.363 31.7281 43.3489 32.7349C44.1431 33.1386 44.8534 33.6776 45.63 34.1239C46.1988 34.4419 46.819 34.7182 47.4718 34.7955Z" fill="#009245"/>
<path opacity="0.5" d="M58.0276 20.6738C56.679 22.6676 55.0261 24.3886 52.7947 25.1305L52.7885 25.1279C52.4674 25.102 52.1591 25.0106 51.838 24.9847C51.1571 24.9236 50.4859 25.149 49.8438 25.3721C50.7126 24.2538 51.9886 23.536 53.2875 22.9685C54.5838 22.4071 55.9446 21.9639 57.1649 21.2444C57.4627 21.07 57.753 20.879 58.0276 20.6738Z" fill="#009245"/>
<path opacity="0.3" d="M55.5538 26.7777C55.6755 27.3922 55.3759 28.0524 54.7978 28.3941C54.3713 28.6423 53.8675 28.7179 53.3759 28.7627C52.5725 28.8281 51.7617 28.8264 50.9649 28.739C50.9684 28.7477 50.9745 28.7499 50.9802 28.7526L50.9864 28.7552C51.2091 29.0723 51.5315 29.3179 51.8153 29.5898C52.2145 29.9583 52.6323 30.3844 52.6551 30.93C52.6599 30.9533 52.656 30.9796 52.652 31.0064C52.6441 31.49 52.2897 31.9231 51.8583 32.1485C51.4041 32.3782 50.8774 32.423 50.3657 32.4314C49.5254 32.4322 48.7238 32.2016 47.8984 32.166C47.2935 32.1436 46.2639 32.3132 45.7302 31.946C45.8567 32.0334 45.9771 32.1177 46.1009 32.2113C46.1093 32.2078 46.1093 32.2078 46.1132 32.2161C46.5204 32.4964 46.9285 32.7911 47.3335 33.0775C47.8597 33.4632 48.1703 34.339 47.6445 34.7085C47.5944 34.7445 47.5325 34.7752 47.4749 34.7941C47.1635 34.8991 46.7862 34.7866 46.4651 34.6755C44.8715 34.1054 43.2717 33.4979 41.5902 33.3643C40.0651 33.2457 38.5457 33.5251 37.0997 34.0039C36.454 34.2187 35.7797 34.365 35.134 34.5798C34.6341 34.7484 34.3328 34.9492 33.7666 34.8156C33.7543 34.8108 33.7459 34.8143 33.7341 34.8091L33.7279 34.8064C33.659 34.7853 33.6045 34.7629 33.554 34.7137C33.5289 34.6891 33.5123 34.661 33.5039 34.6298C34.089 34.1502 34.7189 33.7171 35.3005 33.2295C36.5163 32.2113 37.5042 30.9234 38.1772 29.4918C38.3542 29.1128 38.5483 28.6915 38.945 28.5509C39.7756 28.2641 39.4875 29.2748 39.6834 29.5885C39.7994 29.7703 40.0572 29.8125 40.2566 29.7391C40.4534 29.6719 40.6115 29.5107 40.7609 29.3535C41.6662 28.37 42.4134 27.2376 42.9646 26.0169C43.0797 25.7538 43.1913 25.4819 43.4114 25.2899C43.6288 25.1041 43.9811 25.0369 44.1998 25.2258C44.4814 25.4682 44.3536 25.9172 44.2749 26.28C44.1963 26.6428 44.314 27.1642 44.6874 27.1484C44.7955 27.1431 44.8882 27.0895 44.9804 27.0359C45.6244 26.6371 46.1545 26.0503 46.4752 25.3562C46.9562 24.3398 47.0559 23.0326 47.9867 22.3987C48.0649 22.346 48.1549 22.2986 48.2485 22.2946C48.418 22.2937 48.5599 22.4294 48.6324 22.5792C48.9715 23.2482 48.4844 24.0218 48.3513 24.758C48.3267 24.9034 48.3407 25.0927 48.4813 25.1287C48.5709 25.1515 48.6636 25.0979 48.7356 25.0426C50.1636 24.0059 51.2108 22.4879 52.7241 21.5711C53.5055 21.0945 54.3849 20.7923 55.2309 20.4343C56.3774 19.9454 57.4707 19.3287 58.4889 18.6035C58.9809 18.2482 59.4597 17.873 59.9156 17.4676C59.9376 17.4483 59.9622 17.4232 59.9925 17.4004C59.3942 18.4955 58.7547 19.623 58.0272 20.6724C56.6787 22.6662 55.0258 24.3872 52.7944 25.1291L52.7882 25.1265C52.7285 25.1515 52.6714 25.1704 52.6081 25.1867C52.728 25.1867 52.8422 25.184 52.96 25.1902C53.8459 25.2152 54.6551 25.3927 55.2775 26.1636C55.4255 26.3511 55.523 26.5607 55.5538 26.7777Z" fill="#009245"/>
<path opacity="0.5" d="M60 17.3828L59.9925 17.4008C59.9877 17.4127 59.985 17.4188 59.974 17.4285C59.6371 17.544 59.1917 17.58 58.9238 17.5967C57.5217 17.6771 56.1226 17.9213 54.7732 18.3197C54.4438 18.4173 54.1179 18.5236 53.7932 18.6439C53.4686 18.7647 53.1506 18.9022 52.8365 19.0485C52.5198 19.2005 52.2189 19.3665 51.9251 19.5492C51.6339 19.7258 51.3554 19.9222 51.0905 20.1378C50.8313 20.3562 50.5818 20.5854 50.3578 20.8389C50.2634 20.9483 50.1667 21.0638 50.0758 21.182C49.9849 21.2997 49.8773 21.4249 49.8228 21.558C49.7683 21.6906 49.6857 21.8053 49.5781 21.8949C49.615 21.8395 49.6519 21.7842 49.6708 21.7214C49.7279 21.5826 49.7727 21.4385 49.818 21.2948C49.8417 21.2197 49.8632 21.1508 49.8808 21.0735C49.9146 20.939 49.9392 20.7937 49.9673 20.657C49.9739 20.6245 49.9836 20.6004 49.9959 20.5701C49.9967 20.5846 49.9954 20.6052 49.9967 20.6197C49.9836 20.2051 51.2679 19.3634 51.5781 19.1587C52.2005 18.7441 52.8748 18.4423 53.5956 18.2512C54.6494 17.9714 55.6799 17.696 56.764 17.5484C57.0477 17.5098 58.9572 17.5181 59.7074 17.4448C59.8748 17.4303 59.9903 17.407 60 17.3828Z" fill="#009245"/>
<path opacity="0.5" d="M47.7805 18.5888C47.0413 19.2024 46.5146 20.0379 46.1114 20.9168C45.7797 21.6556 45.5263 22.427 45.3624 23.2207C45.2333 23.0195 45.2188 22.7806 45.2328 22.5394C45.2315 22.5601 45.2447 22.5794 45.2517 22.5965C45.517 21.0398 46.3793 19.5942 47.6154 18.6129C47.8618 18.4249 48.1245 18.2501 48.4315 18.207C48.1908 18.2773 47.98 18.4306 47.7805 18.5888Z" fill="#009245"/>
<path opacity="0.5" d="M42.9849 21.3826C42.2904 22.403 42.0563 23.0408 41.6996 24.1156C41.3649 25.1356 40.9643 27.1944 40.9261 27.3903C40.9313 27.3429 40.9151 27.1246 40.9023 26.8298C40.905 26.8237 40.905 26.8237 40.9072 26.8179C41.0684 26.0299 41.2419 25.2472 41.4092 24.4622C41.5678 23.7155 41.7312 22.9569 42.0699 22.2703C42.3888 21.6321 43.1021 20.6688 43.8915 20.6191C43.9266 20.6196 43.9618 20.6196 43.9943 20.6262C43.6675 20.7171 43.2941 20.938 42.9849 21.3826Z" fill="#009245"/>
<path opacity="0.5" d="M39.8374 25.3829C39.5594 25.4593 39.2066 25.6815 38.7981 26.2122C37.8177 27.4821 37.696 28.8438 36.9168 30.4646C36.3457 31.6489 35.7246 32.5933 34.9023 33.152C35.5832 32.4224 36.1068 31.5434 36.5285 30.6368C37.1531 29.3054 37.5967 27.8994 38.2091 26.5631C38.4432 26.0453 38.7683 25.494 39.3173 25.36C39.49 25.3178 39.6696 25.3279 39.8374 25.3829Z" fill="#009245"/>
<path d="M46.6682 6.0364V26.1641C46.6682 30.7025 42.4996 34.8139 38.3311 37.786C35.334 39.9278 32.333 41.4819 30.8861 42.1847C30.3269 42.4561 29.6733 42.4561 29.1102 42.1847C27.6672 41.4819 24.6662 39.9278 21.6652 37.786C21.3116 37.5312 20.954 37.272 20.6044 37.0006C16.818 34.1107 13.332 30.3159 13.332 26.1636V6.03596C13.332 5.10298 13.9527 4.28464 14.8492 4.03821L29.4642 0.0708303C29.8139 -0.0236101 30.1837 -0.0236101 30.5329 0.0708303L38.8209 2.3194L45.1479 4.03777C46.0431 4.28507 46.6682 5.10342 46.6682 6.0364Z" fill="#FFB612"/>
<path d="M21.0475 23.1699L17.8492 25.7936L17.4381 28.1717L15.7939 30.296L18.4207 28.2403L18.74 26.5935L21.6005 24.4714L21.0475 23.1699Z" fill="#D37416"/>
<path opacity="0.7" d="M21.0475 23.1711L17.8492 25.7948L17.4381 28.1729L15.7939 30.2971L17.1297 27.959L17.5409 25.518L20.8041 22.6914L21.0475 23.1711Z" fill="#FFB612"/>
<path d="M29.2236 8.2452L31.387 5.56178L33.1976 4.50755L35.3904 2.26953L33.636 5.25736L31.7586 6.04144L30.7993 8.2452H29.2236Z" fill="#D37416"/>
<path opacity="0.7" d="M29.2236 8.2452L31.387 5.56178L33.1976 4.50755L35.3904 2.26953L33.0948 4.3626L31.2275 5.47612L29.2236 7.89116V8.2452Z" fill="#FFB612"/>
<path opacity="0.7" d="M29.9329 42.186C28.4899 41.4832 25.4889 39.9291 22.4879 37.7872C22.1343 37.5325 21.7768 37.2733 21.4271 37.0019C17.6407 34.112 14.1548 30.3172 14.1548 26.1649V6.03725C14.1548 5.10427 14.7754 4.28593 15.672 4.0395L30.2869 0.0721198C30.3274 0.0611383 30.3691 0.0558673 30.4099 0.0475214C30.0972 -0.0166102 29.773 -0.0113392 29.4642 0.0721198L14.8492 4.0395C13.9531 4.28593 13.332 5.10427 13.332 6.03725V26.1649C13.332 30.3172 16.8184 34.1115 20.6044 37.0019C20.954 37.2733 21.3116 37.532 21.6652 37.7872C24.6662 39.9291 27.6672 41.4832 29.1102 42.186C29.5196 42.3832 29.9768 42.435 30.4108 42.3454C30.2474 42.312 30.0866 42.2602 29.9329 42.186Z" fill="#FFB612"/>
<path opacity="0.5" d="M46.6683 6.03732V26.165C46.6683 30.7034 42.4997 34.8149 38.3312 37.7869C35.3341 39.9287 32.3331 41.4828 30.8862 42.1856C30.327 42.4571 29.6734 42.4571 29.1103 42.1856C27.6673 41.4828 24.6663 39.9287 21.6653 37.7869C21.3117 37.5321 20.9541 37.2729 20.6045 37.0015C36.0334 25.4863 38.5451 9.6669 38.8205 2.32031L45.1476 4.03868C46.0432 4.28599 46.6683 5.10433 46.6683 6.03732Z" fill="#FFB612"/>
<path d="M40.5016 9.79784V26.1642C40.5016 27.0932 39.2888 29.5271 34.7504 32.7666C33.213 33.8643 31.6712 34.7894 30.3925 35.4962C30.1457 35.6319 29.85 35.6319 29.6032 35.4962C28.3741 34.8136 26.8982 33.9342 25.4179 32.8896C25.3604 32.8483 25.3028 32.8075 25.2453 32.7662C20.7069 29.5267 19.498 27.0927 19.498 26.1637V9.79784C19.498 9.42799 19.7449 9.09898 20.1025 9.00454L29.7842 6.37338C29.9238 6.33648 30.0719 6.33648 30.2159 6.37338L38.1503 8.53146L39.8932 9.0041C40.2508 9.09898 40.5016 9.42799 40.5016 9.79784Z" fill="#FF5766"/>
<path d="M26.2411 32.8896C26.1836 32.8483 26.126 32.8075 26.0685 32.7662C21.5301 29.5267 20.3212 27.0927 20.3212 26.1637V9.79784C20.3212 9.42799 20.5681 9.09898 20.9256 9.00454L30.4114 6.42653L30.2159 6.37338C30.0719 6.33648 29.9238 6.33648 29.7842 6.37338L20.1025 9.00454C19.7449 9.09898 19.498 9.42799 19.498 9.79784V26.1642C19.498 27.0932 20.7069 29.5271 25.2453 32.7666C25.3028 32.8079 25.3604 32.8488 25.4179 32.8901C26.8978 33.9342 28.3737 34.814 29.6032 35.4966C29.85 35.6324 30.1457 35.6324 30.3925 35.4966C30.3978 35.4936 30.4039 35.49 30.4092 35.4874C29.1837 34.8057 27.7148 33.9293 26.2411 32.8896Z" fill="#FF5766"/>
<path opacity="0.5" d="M40.5016 9.79763V26.1639C40.5016 27.093 39.2889 29.5269 34.7504 32.7664C33.213 33.8641 31.6712 34.7892 30.3926 35.496C30.1457 35.6317 29.8501 35.6317 29.6032 35.496C28.3742 34.8134 26.8983 33.934 25.418 32.8894C33.6975 24.7864 36.9331 15.4623 38.1499 8.53125L39.8928 9.00389C40.2508 9.09877 40.5016 9.42777 40.5016 9.79763Z" fill="#B24250"/>
<path d="M30.5003 13.1886L32.1541 16.5393C32.2354 16.7044 32.3931 16.8186 32.5749 16.845L36.2726 17.3822C36.7312 17.449 36.9144 18.0125 36.5823 18.3358L33.9067 20.9437C33.775 21.072 33.7148 21.2573 33.746 21.4388L34.3776 25.1215C34.4558 25.5783 33.9766 25.9266 33.5663 25.711L30.2592 23.9724C30.0962 23.8867 29.9016 23.8867 29.7386 23.9724L26.4315 25.711C26.0212 25.9266 25.542 25.5783 25.6201 25.1215L26.2518 21.4388C26.283 21.2573 26.2228 21.0724 26.091 20.9437L23.4155 18.3358C23.0839 18.0125 23.2666 17.449 23.7252 17.3822L27.4229 16.845C27.6052 16.8186 27.7624 16.704 27.8437 16.5393L29.4975 13.1886C29.7031 12.7731 30.2956 12.7731 30.5003 13.1886Z" fill="#FFB612"/>
<path opacity="0.7" d="M26.181 25.1213L26.8126 21.4386C26.8438 21.2572 26.7836 21.0723 26.6518 20.9436L23.9763 18.3353C23.6447 18.012 23.8274 17.4484 24.286 17.3816L27.9837 16.8444C28.166 16.8181 28.3232 16.7034 28.4045 16.5387L30.0578 13.188C30.1106 13.0817 30.1887 13.0031 30.2792 12.9513C30.017 12.8006 29.6502 12.8788 29.4978 13.188L27.844 16.5387C27.7627 16.7038 27.605 16.8181 27.4232 16.8444L23.7255 17.3816C23.2669 17.4484 23.0837 18.012 23.4154 18.3353L26.0909 20.9436C26.2227 21.0718 26.2829 21.2572 26.2517 21.4386L25.62 25.1213C25.5418 25.5782 26.0211 25.9265 26.4313 25.7108L26.4568 25.6977C26.2662 25.5878 26.1375 25.373 26.181 25.1213Z" fill="#FFB612"/>
<path opacity="0.5" d="M26.433 25.7121L29.7401 23.9735C29.9031 23.8879 30.0977 23.8879 30.2607 23.9735L33.5678 25.7121C33.9781 25.9278 34.4573 25.5795 34.3791 25.1226L33.7475 21.4399C33.7163 21.2585 33.7765 21.0736 33.9083 20.9449L36.5838 18.3366C36.9154 18.0133 36.7327 17.4497 36.2737 17.3829L32.576 16.8457L26.0205 25.7512C26.1505 25.789 26.295 25.7842 26.433 25.7121Z" fill="#FFB612"/>
<path opacity="0.7" d="M28.6665 17.6829C28.75 17.9899 28.3621 18.3633 27.8003 18.5157C27.238 18.6686 26.7149 18.5434 26.6314 18.2359C26.548 17.9284 26.9358 17.5555 27.4976 17.4031C28.0594 17.2502 28.5826 17.3754 28.6665 17.6829Z" fill="#FFB612"/>
</svg>
