<svg width="60" height="42" viewBox="0 0 60 42" fill="none" xmlns="http://www.w3.org/2000/svg">
<path d="M9.26608 7L9.26344 7.01976C9.26168 7.03294 9.2608 7.03952 9.26519 7.05358C9.22083 8.30018 9.2015 9.60346 9.29946 10.8773C9.45276 13.3051 10.0115 15.6507 11.5752 17.4398L11.5818 17.4406C11.6209 17.4929 11.6613 17.5386 11.7079 17.5852C11.6033 17.5237 11.5054 17.463 11.4 17.4081C10.6155 16.9763 9.81909 16.7159 8.8826 17.069C8.65682 17.1569 8.46443 17.2891 8.32651 17.463C7.9057 17.9361 7.82839 18.6648 8.15695 19.2583C8.40161 19.6931 8.80178 20.0169 9.20677 20.3077C9.87312 20.7759 10.5803 21.1901 11.3196 21.5222C11.3121 21.5279 11.3055 21.5266 11.2989 21.5257L11.2923 21.5248C10.9361 21.6874 10.5289 21.7357 10.1428 21.8275C9.6065 21.9443 9.02448 22.1011 8.7249 22.565C8.70909 22.5826 8.699 22.608 8.68846 22.6331C8.44774 23.0587 8.53471 23.6174 8.79519 24.0343C9.07324 24.467 9.50898 24.7758 9.95043 25.0455C10.6818 25.4764 11.4984 25.6859 12.2354 26.0777C12.774 26.3676 13.5839 27.0432 14.2371 26.9962C14.0821 27.0072 13.934 27.0195 13.7781 27.0375C13.7724 27.03 13.7724 27.03 13.7649 27.0357C13.2668 27.0713 12.7599 27.1192 12.2609 27.1609C11.6051 27.2272 10.8856 27.8312 11.1544 28.4224C11.1795 28.4796 11.2177 28.538 11.2581 28.5837C11.4755 28.8345 11.8621 28.9298 12.199 28.9979C13.8796 29.3176 15.5843 29.6076 17.1173 30.3525C18.5067 31.0307 19.6874 32.052 20.7016 33.2099C21.1541 33.7278 21.6667 34.2008 22.1191 34.7183C22.4679 35.1211 22.6278 35.4505 23.1896 35.624C23.2028 35.6258 23.2085 35.6333 23.2212 35.635L23.2278 35.6359C23.2985 35.6526 23.3574 35.6609 23.4263 35.6442C23.461 35.6359 23.49 35.6201 23.5129 35.5968C23.6648 35.4655 23.5902 35.1479 23.494 34.9344C23.295 34.5061 23.1456 34.0585 23.0516 33.5982C23.0516 33.5982 23.0451 33.5973 23.0525 33.5916C22.8329 32.6072 22.8272 31.5737 22.9243 30.5678C23.0622 29.0879 23.396 27.6362 23.5467 26.1581C23.6082 25.5871 23.6073 24.9405 23.1975 24.5421C23.0688 24.4169 22.9071 24.3339 22.7327 24.2957C22.4832 24.2201 22.2074 24.2407 21.9618 24.3255C21.5542 24.474 21.2265 24.8069 21.0056 25.1887C21.0271 25.1316 21.0495 25.0683 21.0645 25.0103C21.0653 25.0037 21.0653 25.0037 21.0662 24.9971C21.3293 24.2284 21.5788 23.4576 21.8353 22.688C22.0796 21.9566 22.326 21.2116 22.3827 20.4403C22.4319 19.7208 22.3036 18.5164 21.6412 18.0688C21.6104 18.0512 21.5797 18.0332 21.5476 18.0222C21.5476 18.0222 21.5485 18.0156 21.5419 18.0147C21.1932 17.8452 20.7403 17.9805 20.4196 18.2212C20.0783 18.4659 19.8244 18.7962 19.495 19.0492L19.4875 19.0549C19.4783 19.0734 19.4568 19.0839 19.4418 19.0949C20.008 17.6027 19.9971 15.9019 19.423 14.4137C19.3044 14.1238 19.1656 13.837 18.92 13.6424C18.9143 13.6349 18.9143 13.6349 18.9077 13.6341C18.4746 13.3055 17.8355 13.3942 17.3795 13.696C16.9372 13.9929 16.6324 14.4493 16.3477 14.9017C16.3394 14.9136 16.3302 14.9325 16.3218 14.9448C16.5458 14.5903 15.858 13.1992 15.6928 12.8623C15.3634 12.1823 14.9303 11.574 14.4001 11.0385C13.6257 10.2549 12.8684 9.48705 11.9996 8.80357C11.772 8.62436 10.1046 7.65361 9.48877 7.20557C9.35085 7.10542 9.26212 7.02636 9.26608 7Z" fill="#007537"/>
<path opacity="0.5" d="M8.1597 19.2605C8.40436 19.6954 8.80453 20.0191 9.20952 20.3099C9.87587 20.7781 10.5831 21.1924 11.3223 21.5244C11.3149 21.5301 11.3083 21.5293 11.3017 21.5279C12.3374 21.6957 13.3526 22.0072 14.3027 22.4491C13.3609 21.3417 12.1815 20.4535 10.916 19.7468C10.3358 19.4239 9.73091 19.1314 9.21786 18.7114C8.92005 18.4624 8.64947 18.1637 8.46542 17.8176C8.40656 17.7156 8.37229 17.5843 8.32924 17.4648C7.90844 17.9384 7.83157 18.6671 8.1597 19.2605Z" fill="#007537"/>
<path opacity="0.5" d="M8.79801 24.0364C9.07606 24.4691 9.5118 24.7779 9.95325 25.0476C10.6846 25.4785 11.5012 25.6885 12.2387 26.0798C12.7772 26.3702 13.5872 27.0453 14.2404 26.9983C14.0853 27.0097 13.9373 27.0216 13.7814 27.0396C14.8496 27.2118 15.9161 27.3976 16.8996 27.8377C15.8441 26.5942 14.7139 25.3133 13.2002 24.7111C12.4996 24.4379 11.7502 24.3175 11.0176 24.1265C10.2862 23.9288 9.55264 23.6508 9.02246 23.1153C8.91265 22.9998 8.80679 22.8048 8.69127 22.6348C8.45055 23.0608 8.53753 23.6196 8.79801 24.0364Z" fill="#007537"/>
<path opacity="0.5" d="M11.2607 28.5859C11.4782 28.8368 11.8647 28.9321 12.2016 29.0002C13.8822 29.3199 15.587 29.6098 17.12 30.3548C18.5093 31.033 19.69 32.0543 20.7043 33.2122C21.1567 33.7301 21.6693 34.2031 22.1222 34.7206C22.471 35.1234 22.6309 35.4528 23.1927 35.6263C23.2058 35.6281 23.2115 35.6355 23.2243 35.6373C23.2054 35.5345 23.161 35.4282 23.114 35.3351C22.8162 34.7127 22.5109 34.0964 22.2056 33.4797C21.9939 33.0497 21.7752 32.6187 21.5129 32.2146C20.3041 30.3162 18.1535 29.0428 15.9076 28.9026C15.0089 28.8477 14.1141 28.9536 13.2093 28.9444C12.5513 28.9299 11.8691 28.8526 11.2607 28.5859Z" fill="#007537"/>
<path opacity="0.5" d="M9.2998 10.877C9.4531 13.3047 10.0118 15.6503 11.5756 17.4394L11.5822 17.4403C11.8751 17.5822 12.1905 17.6604 12.4835 17.8022C13.1077 18.0979 13.5773 18.6381 14.0222 19.1613C13.8382 17.7421 13.0941 16.463 12.2534 15.3033C11.4117 14.1503 10.4533 13.0671 9.75883 11.8152C9.58928 11.5112 9.43422 11.1963 9.2998 10.877Z" fill="#007537"/>
<path opacity="0.3" d="M8.32651 17.4617C7.9057 17.9348 7.82839 18.6635 8.15695 19.257C8.40161 19.6918 8.80178 20.0156 9.20677 20.3063C9.87312 20.7746 10.5803 21.1888 11.3196 21.5209C11.3121 21.5266 11.3055 21.5253 11.2989 21.5244L11.2923 21.5235C10.9361 21.686 10.5289 21.7344 10.1428 21.8262C9.6065 21.943 9.02448 22.0998 8.7249 22.5637C8.70909 22.5813 8.699 22.6067 8.68846 22.6318C8.44775 23.0574 8.53471 23.6161 8.79519 24.033C9.07324 24.4657 9.50898 24.7745 9.95043 25.0442C10.6818 25.4751 11.4984 25.6846 12.2354 26.0764C12.774 26.3663 13.5839 27.0419 14.2371 26.9949C14.0821 27.0059 13.934 27.0182 13.7781 27.0362C13.7724 27.0287 13.7724 27.0287 13.7649 27.0344C13.2668 27.07 12.7599 27.1179 12.2609 27.1596C11.6051 27.2259 10.8856 27.8299 11.1544 28.4211C11.1795 28.4782 11.2177 28.5367 11.2581 28.5823C11.4755 28.8332 11.8621 28.9285 12.199 28.9966C13.8796 29.3163 15.5843 29.6063 17.1173 30.3512C18.5067 31.0294 19.6874 32.0507 20.7016 33.2086C21.1541 33.7265 21.6667 34.1995 22.1191 34.717C22.4679 35.1198 22.6278 35.4492 23.1896 35.6227C23.2028 35.6245 23.2085 35.632 23.2212 35.6337L23.2278 35.6346C23.2985 35.6513 23.3574 35.6596 23.4263 35.6429C23.461 35.6346 23.49 35.6188 23.5129 35.5955C23.2489 34.8782 22.9221 34.178 22.6651 33.4554C22.1275 31.9457 21.9263 30.3178 22.0734 28.726C22.1134 28.3052 22.16 27.8387 21.8863 27.5132C21.3096 26.8376 21.0429 27.8659 20.7117 28.039C20.5176 28.1378 20.2712 28.0429 20.135 27.8769C19.9975 27.7175 19.9426 27.4965 19.893 27.2826C19.6083 25.9622 19.5367 24.5926 19.6821 23.2472C19.7164 22.9586 19.7585 22.6647 19.665 22.3849C19.5705 22.1117 19.2982 21.8727 19.0109 21.925C18.6415 21.9922 18.5229 22.4486 18.4056 22.8048C18.2879 23.1611 17.9185 23.5551 17.6014 23.35C17.51 23.2902 17.4569 23.1962 17.4037 23.1018C17.047 22.4244 16.8854 21.6417 16.9618 20.8725C17.0633 19.741 17.6462 18.5511 17.1599 17.5219C17.1186 17.4363 17.0646 17.3484 16.9855 17.297C16.8384 17.2092 16.6451 17.2553 16.505 17.3484C15.8667 17.7573 15.8949 18.6811 15.6339 19.3901C15.5808 19.5289 15.4714 19.687 15.3309 19.6466C15.2412 19.6207 15.1881 19.5262 15.1534 19.4415C14.4405 17.807 14.3056 15.9481 13.457 14.3742C13.0199 13.559 12.4089 12.8452 11.8555 12.0998C11.107 11.0868 10.4705 9.98957 9.95527 8.83609C9.70885 8.27428 9.48395 7.70237 9.29419 7.11553C9.28496 7.08742 9.27617 7.05316 9.26124 7.01758C9.22127 8.27824 9.20106 9.5881 9.2977 10.8747C9.451 13.3024 10.0097 15.6481 11.5735 17.4371L11.5801 17.438C11.6192 17.4903 11.6596 17.536 11.7061 17.5825C11.6016 17.521 11.5036 17.4604 11.3982 17.4055C10.6137 16.9737 9.81734 16.7132 8.88085 17.0664C8.65683 17.1556 8.46487 17.2882 8.32651 17.4617Z" fill="#007537"/>
<path opacity="0.5" d="M9.2658 7L9.26316 7.01976C9.2614 7.03294 9.26052 7.03952 9.26491 7.05358C9.49904 7.3268 9.86889 7.5864 10.0938 7.73839C11.2745 8.52641 12.3678 9.45586 13.3394 10.4938C13.5766 10.7477 13.8059 11.0069 14.0273 11.2783C14.2487 11.5498 14.4547 11.8327 14.6537 12.1208C14.8514 12.4156 15.0288 12.7143 15.1913 13.0239C15.3547 13.327 15.4966 13.6406 15.617 13.9644C15.7307 14.2872 15.8309 14.6145 15.8964 14.9505C15.9223 15.0941 15.9477 15.2444 15.9662 15.3937C15.9851 15.5431 16.0145 15.7073 15.9943 15.851C15.9737 15.9946 15.9868 16.1365 16.0347 16.27C16.0312 16.2028 16.0272 16.1356 16.0431 16.071C16.0646 15.9208 16.0988 15.7724 16.1335 15.6243C16.1511 15.547 16.1678 15.4758 16.1924 15.3994C16.2315 15.265 16.2846 15.1258 16.3303 14.9927C16.3417 14.961 16.3453 14.9347 16.3497 14.9022C16.3413 14.914 16.3321 14.9329 16.3237 14.9452C16.5478 14.5908 15.8599 13.1996 15.6947 12.8627C15.3653 12.1828 14.9322 11.5744 14.402 11.0389C13.6276 10.2553 12.8703 9.4875 12.0015 8.80402C11.7739 8.6248 10.1065 7.65405 9.4907 7.20601C9.35057 7.10542 9.26185 7.02636 9.2658 7Z" fill="#007537"/>
<path opacity="0.5" d="M19.2925 14.3085C19.622 15.2217 19.6531 16.2193 19.5543 17.1918C19.4647 18.0057 19.2903 18.8069 19.0268 19.5822C19.2424 19.4728 19.3777 19.2725 19.4884 19.0551C19.4792 19.0735 19.4577 19.0841 19.4427 19.095C20.0089 17.6029 19.9979 15.9021 19.4238 14.4139C19.3052 14.124 19.1664 13.8372 18.9209 13.6426C19.0948 13.8271 19.2003 14.0687 19.2925 14.3085Z" fill="#007537"/>
<path opacity="0.5" d="M22.0413 19.1989C22.1239 20.4433 22.0009 21.1193 21.7611 22.2381C21.53 23.298 20.825 25.2966 20.7578 25.4873C20.7776 25.4433 20.9032 25.2615 21.0657 25.0115C21.0666 25.005 21.0666 25.005 21.0675 24.9984C21.3306 24.2297 21.5801 23.4588 21.8366 22.6892C22.0808 21.9578 22.3273 21.2129 22.3839 20.4415C22.4331 19.722 22.3049 18.5176 21.6425 18.07C21.6117 18.0524 21.581 18.0344 21.5489 18.0234C21.7874 18.2699 21.9991 18.6533 22.0413 19.1989Z" fill="#007537"/>
<path opacity="0.5" d="M22.7337 24.2969C22.9371 24.506 23.1304 24.8798 23.2143 25.5518C23.4181 27.1604 22.8268 28.4087 22.6749 30.2202C22.5659 31.5441 22.623 32.6853 23.0535 33.5933C22.8339 32.6089 22.8281 31.5753 22.9252 30.5694C23.0631 29.0896 23.397 27.6378 23.5477 26.1598C23.6092 25.5887 23.6083 24.9421 23.1984 24.5437C23.0693 24.4181 22.9081 24.3351 22.7337 24.2969Z" fill="#007537"/>
<path d="M0 17.5156L0.00746658 17.5336C0.0122984 17.5455 0.0149305 17.5516 0.0259118 17.5613C0.613195 18.6471 1.25055 19.7686 1.97312 20.8057C3.32163 22.7994 4.97456 24.5204 7.20597 25.2623L7.21211 25.2597C7.27185 25.2847 7.32896 25.3036 7.39221 25.3199C7.27229 25.3199 7.15809 25.3172 7.04081 25.3234C6.15483 25.3484 5.34529 25.5259 4.7233 26.2968C4.57483 26.4848 4.47732 26.6943 4.44657 26.9117C4.3249 27.5262 4.62447 28.1864 5.20209 28.5282C5.6286 28.7764 6.13287 28.8519 6.62396 28.8967C7.42735 28.9622 8.23822 28.9604 9.03503 28.873C9.03152 28.8818 9.02537 28.884 9.01966 28.8866L9.0135 28.8892C8.7908 29.2064 8.46839 29.4519 8.18463 29.7238C7.78579 30.0924 7.36761 30.5185 7.34477 31.064C7.34038 31.0873 7.3439 31.1136 7.34785 31.1404C7.35576 31.624 7.71024 32.0572 8.14159 32.2825C8.59578 32.5122 9.12243 32.557 9.63417 32.5654C10.4745 32.5663 11.2761 32.3356 12.101 32.3001C12.7059 32.2777 13.7355 32.4472 14.2692 32.08C14.1427 32.1674 14.0223 32.2517 13.898 32.3453C13.8897 32.3418 13.8897 32.3418 13.8861 32.3501C13.479 32.6304 13.0709 32.9251 12.6663 33.2115C12.1401 33.5972 11.8296 34.4731 12.3554 34.8425C12.4054 34.8785 12.4674 34.9092 12.5245 34.9281C12.8359 35.0331 13.2132 34.9207 13.5343 34.8095C15.1284 34.2394 16.7277 33.6319 18.4092 33.4984C19.9343 33.3798 21.4536 33.6591 22.8997 34.1379C23.5454 34.3527 24.2196 34.499 24.8653 34.7138C25.3652 34.8824 25.6665 35.0832 26.2327 34.9496C26.245 34.9448 26.2534 34.9483 26.2657 34.9431L26.2718 34.9404C26.3408 34.9193 26.3953 34.8969 26.4458 34.8477C26.4708 34.8231 26.4875 34.795 26.4958 34.7638C26.5595 34.5754 26.3368 34.3422 26.1475 34.2082C25.7632 33.9424 25.4109 33.6354 25.0999 33.2906C25.0999 33.2906 25.0937 33.2928 25.0977 33.2844C24.4168 32.5548 23.8933 31.6759 23.4716 30.7693C22.847 29.4379 22.4037 28.0318 21.791 26.6956C21.5569 26.1777 21.2318 25.6265 20.6827 25.4925C20.5101 25.4503 20.3309 25.4604 20.1627 25.5153C19.9123 25.576 19.687 25.7319 19.52 25.9274C19.2468 26.2586 19.1344 26.707 19.1374 27.1432C19.1273 27.0839 19.1146 27.0185 19.0983 26.9618C19.0957 26.9557 19.0957 26.9556 19.0935 26.9499C18.9323 26.1619 18.7588 25.3792 18.5914 24.5942C18.4329 23.8475 18.2695 23.0889 17.9308 22.4023C17.6119 21.7641 16.8986 20.8008 16.1088 20.7512C16.0736 20.7516 16.0385 20.7516 16.006 20.7582C16.006 20.7582 16.0034 20.7521 15.9977 20.7547C15.6146 20.785 15.2966 21.1272 15.1437 21.4935C14.9751 21.8735 14.9245 22.2824 14.7704 22.6633L14.7669 22.672C14.7682 22.6927 14.755 22.712 14.748 22.7291C14.4827 21.1724 13.6204 19.7268 12.3843 18.7455C12.1375 18.5575 11.8753 18.3827 11.5682 18.3397C11.5599 18.3362 11.5599 18.3362 11.5537 18.3388C11.0196 18.276 10.5188 18.6722 10.2812 19.158C10.0528 19.6328 10.0216 20.1753 10.0058 20.7037C10.0049 20.7182 10.0062 20.7389 10.0049 20.7534C10.0181 20.3387 8.7337 19.4971 8.42359 19.2924C7.80116 18.8778 7.1269 18.576 6.40608 18.3849C5.35231 18.1051 4.32183 17.8297 3.23775 17.6821C2.95399 17.6434 1.04454 17.6518 0.294293 17.5784C0.125619 17.5631 0.0101029 17.5398 0 17.5156Z" fill="#009245"/>
<path opacity="0.5" d="M5.20544 28.5286C5.63196 28.7767 6.13578 28.8519 6.62731 28.8971C7.4307 28.9625 8.24157 28.9608 9.03838 28.8734C9.03487 28.8822 9.02871 28.8844 9.02256 28.887C9.99024 28.5106 11.0124 28.2672 12.0442 28.1679C10.6856 27.6957 9.23429 27.5297 7.80012 27.5613C7.143 27.5771 6.4806 27.6303 5.83226 27.5297C5.45362 27.4664 5.07279 27.3474 4.74247 27.1445C4.64144 27.0874 4.54569 26.9925 4.44949 26.9121C4.32826 27.5271 4.62782 28.1873 5.20544 28.5286Z" fill="#009245"/>
<path opacity="0.5" d="M8.14521 32.2821C8.5994 32.5118 9.12605 32.5566 9.63779 32.5654C10.4781 32.5659 11.2797 32.3357 12.1046 32.3001C12.7095 32.2777 13.7391 32.4473 14.2728 32.0801C14.1463 32.1675 14.0259 32.2523 13.9016 32.3454C14.8996 31.9566 15.9024 31.5802 16.9619 31.462C15.4377 30.9305 13.8314 30.4047 12.2382 30.6498C11.5033 30.7684 10.804 31.0412 10.0832 31.2459C9.36018 31.444 8.595 31.5749 7.87418 31.3843C7.7222 31.3408 7.53463 31.2275 7.35059 31.1405C7.35937 31.6237 7.71386 32.0568 8.14521 32.2821Z" fill="#009245"/>
<path opacity="0.5" d="M12.5283 34.9283C12.8398 35.0333 13.2171 34.9208 13.5382 34.8097C15.1322 34.2395 16.7315 33.632 18.413 33.4985C19.9385 33.3799 21.4575 33.6593 22.9035 34.1381C23.5492 34.3529 24.2235 34.4991 24.8692 34.7139C25.3691 34.8826 25.6704 35.0833 26.2366 34.9498C26.2484 34.945 26.2572 34.9485 26.2691 34.9436C26.2019 34.8655 26.1101 34.7974 26.0235 34.7411C25.4573 34.3599 24.8881 33.9865 24.3179 33.6136C23.9217 33.3527 23.5189 33.0948 23.0928 32.8818C21.1096 31.8684 18.6362 31.861 16.6503 32.8677C15.8561 33.2714 15.1458 33.8104 14.3692 34.2567C13.8017 34.5747 13.1811 34.851 12.5283 34.9283Z" fill="#009245"/>
<path opacity="0.5" d="M1.97266 20.8047C3.32117 22.7985 4.9741 24.5195 7.20551 25.2614L7.21165 25.2587C7.53274 25.2328 7.8411 25.1414 8.1622 25.1155C8.84304 25.0545 9.51423 25.2798 10.1564 25.5029C9.28801 24.3846 8.01154 23.6669 6.71266 23.0994C5.41642 22.538 4.05561 22.0948 2.83536 21.3753C2.53755 21.2009 2.24719 21.0098 1.97266 20.8047Z" fill="#009245"/>
<path opacity="0.3" d="M4.44638 26.9104C4.32471 27.5249 4.62428 28.1851 5.2019 28.5269C5.62842 28.775 6.13268 28.8506 6.62377 28.8954C7.42716 28.9608 8.23803 28.9591 9.03484 28.8717C9.03133 28.8805 9.02518 28.8827 9.01947 28.8853L9.01331 28.8879C8.79061 29.2051 8.4682 29.4506 8.18444 29.7225C7.7856 30.0911 7.36743 30.5171 7.34459 31.0627C7.3402 31.086 7.34371 31.1123 7.34766 31.1391C7.35557 31.6227 7.71005 32.0558 8.1414 32.2812C8.59559 32.5109 9.12225 32.5557 9.63398 32.5641C10.4743 32.5649 11.2759 32.3343 12.1008 32.2987C12.7057 32.2763 13.7353 32.4459 14.269 32.0787C14.1425 32.1661 14.0221 32.2504 13.8978 32.344C13.8895 32.3405 13.8895 32.3405 13.886 32.3488C13.4788 32.6291 13.0707 32.9238 12.6662 33.2102C12.1399 33.5959 11.8294 34.4717 12.3552 34.8412C12.4052 34.8772 12.4672 34.9079 12.5243 34.9268C12.8357 35.0318 13.213 34.9193 13.5341 34.8082C15.1282 34.238 16.7275 33.6306 18.409 33.497C19.9341 33.3784 21.4534 33.6578 22.8995 34.1366C23.5452 34.3514 24.2194 34.4977 24.8651 34.7125C25.365 34.8811 25.6663 35.0819 26.2325 34.9483C26.2448 34.9435 26.2532 34.947 26.2655 34.9417L26.2716 34.9391C26.3406 34.918 26.3951 34.8956 26.4456 34.8464C26.4706 34.8218 26.4873 34.7937 26.4957 34.7625C25.9106 34.2829 25.2811 33.8498 24.6991 33.3622C23.4832 32.344 22.4954 31.0561 21.8224 29.6246C21.6454 29.2455 21.4512 28.8242 21.0546 28.6837C20.224 28.3968 20.5121 29.4076 20.3162 29.7212C20.2003 29.903 19.9424 29.9452 19.743 29.8719C19.5458 29.8047 19.3881 29.6434 19.2387 29.4862C18.3334 28.5027 17.5858 27.3703 17.035 26.1496C16.9199 25.8865 16.8083 25.6146 16.5883 25.4227C16.3708 25.2369 16.0185 25.1696 15.7994 25.3585C15.5178 25.601 15.6456 26.0499 15.7243 26.4127C15.8029 26.7756 15.6852 27.297 15.3114 27.2811C15.2033 27.2759 15.1106 27.2223 15.0184 27.1687C14.3744 26.7698 13.8438 26.183 13.5236 25.489C13.0426 24.4725 12.9429 23.1653 12.0121 22.5315C11.9339 22.4788 11.8439 22.4313 11.7503 22.4274C11.5808 22.4265 11.4389 22.5622 11.3664 22.712C11.0273 23.381 11.5144 24.1545 11.6475 24.8907C11.6721 25.0361 11.6581 25.2254 11.5175 25.2614C11.4279 25.2843 11.3352 25.2307 11.2632 25.1753C9.83516 24.1387 8.78798 22.6206 7.27518 21.7039C6.49331 21.2273 5.61436 20.9251 4.76836 20.5671C3.6219 20.0782 2.5286 19.4615 1.51041 18.7363C1.01844 18.381 0.53966 18.0058 0.0837136 17.6004C0.0617508 17.5811 0.0371445 17.556 0.00683594 17.5332C0.605101 18.6283 1.24466 19.7558 1.9725 20.8052C3.32102 22.799 4.97393 24.52 7.20534 25.2619L7.21149 25.2592C7.27123 25.2843 7.32834 25.3032 7.39159 25.3194C7.27167 25.3194 7.15746 25.3168 7.04018 25.3229C6.1542 25.348 5.34466 25.5254 4.72267 26.2963C4.57464 26.4839 4.47713 26.6934 4.44638 26.9104Z" fill="#009245"/>
<path opacity="0.5" d="M0 17.5156L0.00746658 17.5336C0.0122984 17.5455 0.0149305 17.5516 0.0259118 17.5613C0.36282 17.6768 0.808221 17.7129 1.07617 17.7295C2.47827 17.8099 3.8773 18.0541 5.22669 18.4526C5.55613 18.5501 5.88205 18.6564 6.20666 18.7767C6.53171 18.8975 6.84929 19.035 7.16336 19.1813C7.48006 19.3333 7.78096 19.4993 8.07482 19.682C8.36604 19.8586 8.64453 20.055 8.9094 20.2706C9.16856 20.4889 9.41806 20.7182 9.64208 20.9717C9.73652 21.0811 9.83315 21.1966 9.92408 21.3147C10.015 21.4325 10.1226 21.5576 10.1771 21.6907C10.2316 21.8234 10.3141 21.938 10.4213 22.0277C10.3844 21.9723 10.3475 21.917 10.3286 21.8541C10.2715 21.7153 10.2267 21.5713 10.1815 21.4276C10.1578 21.3525 10.1362 21.2836 10.1187 21.2062C10.0848 21.0718 10.0602 20.9264 10.0321 20.7898C10.026 20.7573 10.0159 20.7332 10.0036 20.7029C10.0027 20.7174 10.004 20.738 10.0027 20.7525C10.0159 20.3378 8.7315 19.4962 8.42139 19.2915C7.79897 18.8769 7.1247 18.5751 6.40389 18.384C5.35011 18.1042 4.31963 17.8288 3.23555 17.6812C2.95179 17.6426 1.04234 17.6509 0.292095 17.5776C0.125617 17.5631 0.0101029 17.5398 0 17.5156Z" fill="#009245"/>
<path opacity="0.5" d="M12.2188 18.7216C12.9581 19.3352 13.4847 20.1707 13.888 21.0496C14.2196 21.7884 14.4731 22.5598 14.6369 23.3535C14.766 23.1523 14.7805 22.9134 14.766 22.6722C14.7674 22.6929 14.7542 22.7122 14.7472 22.7293C14.4818 21.1726 13.6196 19.727 12.3835 18.7457C12.1367 18.5577 11.8744 18.3829 11.5674 18.3398C11.8085 18.4101 12.0198 18.5634 12.2188 18.7216Z" fill="#009245"/>
<path opacity="0.5" d="M17.0157 21.5154C17.7102 22.5358 17.9443 23.1736 18.301 24.2484C18.6352 25.2684 19.0363 27.3272 19.0745 27.5231C19.0692 27.4756 19.0855 27.2573 19.0982 26.9626C19.0956 26.9564 19.0956 26.9564 19.0934 26.9507C18.9322 26.1627 18.7587 25.38 18.5913 24.595C18.4327 23.8483 18.2693 23.0897 17.9307 22.4031C17.6118 21.7649 16.8984 20.8016 16.1086 20.752C16.0735 20.7524 16.0384 20.7524 16.0059 20.759C16.3331 20.8499 16.7065 21.0709 17.0157 21.5154Z" fill="#009245"/>
<path opacity="0.5" d="M20.1631 25.5157C20.4416 25.5921 20.7939 25.8144 21.2024 26.345C22.1828 27.6149 22.3045 28.9766 23.0837 30.5974C23.6547 31.7816 24.2758 32.726 25.0981 33.2848C24.4173 32.5552 23.8937 31.6762 23.472 30.7696C22.8474 29.4382 22.4042 28.0322 21.7914 26.6959C21.5573 26.1781 21.2322 25.6268 20.6832 25.4928C20.5101 25.4507 20.3309 25.4608 20.1631 25.5157Z" fill="#009245"/>
<path d="M50.7339 7L50.7366 7.01976C50.7383 7.03294 50.7392 7.03952 50.7348 7.05358C50.7792 8.30018 50.7985 9.60346 50.7006 10.8773C50.5473 13.3051 49.9885 15.6507 48.4244 17.4398L48.4178 17.4406C48.3787 17.4929 48.3383 17.5386 48.2917 17.5852C48.3962 17.5237 48.4942 17.463 48.5996 17.4081C49.3841 16.9763 50.1805 16.7159 51.117 17.069C51.3428 17.1569 51.5352 17.2891 51.6731 17.463C52.0939 17.9361 52.1712 18.6648 51.8426 19.2583C51.598 19.6931 51.1978 20.0169 50.7928 20.3077C50.1265 20.7759 49.4193 21.1901 48.68 21.5222C48.6875 21.5279 48.6941 21.5266 48.7006 21.5257L48.7072 21.5248C49.0635 21.6874 49.4707 21.7357 49.8568 21.8275C50.3931 21.9443 50.9751 22.1011 51.2747 22.565C51.2905 22.5826 51.301 22.608 51.3111 22.6331C51.5519 23.0587 51.4649 23.6174 51.2044 24.0343C50.9263 24.467 50.4906 24.7758 50.0492 25.0455C49.3178 25.4764 48.5012 25.6859 47.7642 26.0777C47.2256 26.3676 46.4156 27.0432 45.7625 26.9962C45.9171 27.0072 46.0656 27.0195 46.2215 27.0375C46.2272 27.03 46.2272 27.03 46.2347 27.0357C46.7328 27.0713 47.2397 27.1192 47.7387 27.1609C48.3945 27.2272 49.114 27.8312 48.8452 28.4224C48.8197 28.4796 48.7815 28.538 48.7415 28.5837C48.5241 28.8345 48.1375 28.9298 47.801 28.9979C46.1205 29.3176 44.4157 29.6076 42.8827 30.3525C41.4934 31.0307 40.3126 32.052 39.2984 33.2099C38.846 33.7278 38.3334 34.2008 37.8809 34.7183C37.5317 35.1211 37.3723 35.4505 36.8105 35.624C36.7973 35.6258 36.7916 35.6333 36.7788 35.635L36.7723 35.6359C36.7015 35.6526 36.6427 35.6609 36.5737 35.6442C36.539 35.6359 36.5104 35.6201 36.4872 35.5968C36.3352 35.4655 36.4099 35.1479 36.5061 34.9344C36.705 34.5061 36.8544 34.0585 36.9484 33.5982C36.9484 33.5982 36.955 33.5973 36.9475 33.5916C37.1671 32.6072 37.1728 31.5737 37.0762 30.5678C36.9383 29.0879 36.6045 27.6362 36.4538 26.1581C36.3923 25.5871 36.3932 24.9405 36.803 24.5421C36.9317 24.4169 37.0933 24.3339 37.2677 24.2957C37.5168 24.2201 37.7931 24.2407 38.0386 24.3255C38.4462 24.474 38.7739 24.8069 38.9949 25.1887C38.9734 25.1316 38.951 25.0683 38.936 25.0103C38.9351 25.0037 38.9351 25.0037 38.9343 24.9971C38.6711 24.2284 38.4212 23.4576 38.1647 22.688C37.9205 21.9566 37.674 21.2116 37.6174 20.4403C37.5682 19.7208 37.696 18.5164 38.3588 18.0688C38.3896 18.0512 38.4203 18.0332 38.4519 18.0222C38.4519 18.0222 38.4511 18.0156 38.4577 18.0147C38.8064 17.8452 39.2593 17.9805 39.58 18.2212C39.9213 18.4659 40.1751 18.7962 40.5046 19.0492L40.5121 19.0549C40.5213 19.0734 40.5428 19.0839 40.5577 19.0949C39.9915 17.6027 40.0025 15.9019 40.5766 14.4137C40.6952 14.1238 40.8345 13.837 41.0796 13.6424C41.0853 13.6349 41.0853 13.6349 41.0919 13.6341C41.525 13.3055 42.1641 13.3942 42.62 13.696C43.0624 13.9929 43.3672 14.4493 43.6519 14.9017C43.6602 14.9136 43.6694 14.9325 43.6778 14.9448C43.4537 14.5903 44.1421 13.1992 44.3068 12.8623C44.6362 12.1823 45.0693 11.574 45.5995 11.0385C46.3743 10.2549 47.1308 9.48705 47.9996 8.80357C48.2271 8.62436 49.895 7.65361 50.5108 7.20557C50.6487 7.10542 50.7375 7.02636 50.7339 7Z" fill="#007537"/>
<path opacity="0.5" d="M51.8402 19.2605C51.5956 19.6954 51.1954 20.0191 50.7904 20.3099C50.1241 20.7781 49.4169 21.1924 48.6776 21.5244C48.6851 21.5301 48.6917 21.5293 48.6983 21.5279C47.6625 21.6957 46.6474 22.0072 45.6973 22.4491C46.639 21.3417 47.8184 20.4535 49.0839 19.7468C49.6642 19.4239 50.269 19.1314 50.7821 18.7114C51.0799 18.4624 51.3505 18.1637 51.5341 17.8176C51.5929 17.7156 51.6276 17.5843 51.6702 17.4648C52.0915 17.9384 52.1688 18.6671 51.8402 19.2605Z" fill="#007537"/>
<path opacity="0.5" d="M51.2022 24.0364C50.9242 24.4691 50.4884 24.7779 50.047 25.0476C49.3156 25.4785 48.499 25.6885 47.762 26.0798C47.2234 26.3702 46.4135 27.0453 45.7603 26.9983C45.9153 27.0097 46.0638 27.0216 46.2193 27.0396C45.151 27.2118 44.0845 27.3976 43.1006 27.8377C44.1561 26.5942 45.2863 25.3133 46.8 24.7111C47.5006 24.4379 48.25 24.3175 48.9827 24.1265C49.714 23.9288 50.4476 23.6508 50.9777 23.1153C51.088 22.9998 51.1934 22.8048 51.3089 22.6348C51.5497 23.0608 51.4627 23.6196 51.2022 24.0364Z" fill="#007537"/>
<path opacity="0.5" d="M48.739 28.5859C48.5216 28.8368 48.1355 28.9321 47.7986 29.0002C46.118 29.3199 44.4132 29.6098 42.8802 30.3548C41.4909 31.033 40.3102 32.0543 39.2959 33.2122C38.8431 33.7301 38.3309 34.2031 37.8785 34.7206C37.5293 35.1234 37.3698 35.4528 36.808 35.6263C36.7948 35.6281 36.7891 35.6355 36.7764 35.6373C36.7953 35.5345 36.8396 35.4282 36.8866 35.3351C37.1844 34.7127 37.4897 34.0964 37.795 33.4797C38.0067 33.0497 38.225 32.6187 38.4877 32.2146C39.6965 30.3162 41.8476 29.0428 44.093 28.9026C44.9917 28.8477 45.8865 28.9536 46.7914 28.9444C47.4485 28.9299 48.1307 28.8526 48.739 28.5859Z" fill="#007537"/>
<path opacity="0.5" d="M50.7004 10.877C50.5471 13.3047 49.9884 15.6503 48.4242 17.4394L48.4176 17.4403C48.1246 17.5822 47.8092 17.6604 47.5162 17.8022C46.8921 18.0979 46.4225 18.6381 45.9775 19.1613C46.1616 17.7421 46.9057 16.463 47.7464 15.3033C48.5885 14.1503 49.5465 13.0671 50.2409 11.8152C50.4114 11.5112 50.566 11.1963 50.7004 10.877Z" fill="#007537"/>
<path opacity="0.3" d="M51.6732 17.4617C52.094 17.9348 52.1713 18.6635 51.8428 19.257C51.5981 19.6918 51.1979 20.0156 50.7929 20.3063C50.1266 20.7746 49.4194 21.1888 48.6801 21.5209C48.6876 21.5266 48.6942 21.5253 48.7008 21.5244L48.7074 21.5235C49.0636 21.686 49.4708 21.7344 49.8569 21.8262C50.3932 21.943 50.9752 22.0998 51.2748 22.5637C51.2906 22.5813 51.3012 22.6067 51.3113 22.6318C51.552 23.0574 51.465 23.6161 51.2045 24.033C50.9265 24.4657 50.4907 24.7745 50.0493 25.0442C49.3179 25.4751 48.5014 25.6846 47.7643 26.0764C47.2258 26.3663 46.4158 27.0419 45.7626 26.9949C45.9172 27.0059 46.0657 27.0182 46.2216 27.0362C46.2273 27.0287 46.2273 27.0287 46.2348 27.0344C46.7329 27.07 47.2398 27.1179 47.7388 27.1596C48.3946 27.2259 49.1141 27.8299 48.8453 28.4211C48.8198 28.4782 48.7816 28.5367 48.7416 28.5823C48.5242 28.8332 48.1377 28.9285 47.8012 28.9966C46.1206 29.3163 44.4159 29.6063 42.8829 30.3512C41.4935 31.0294 40.3128 32.0507 39.2985 33.2086C38.8461 33.7265 38.3335 34.1995 37.8811 34.717C37.5319 35.1198 37.3724 35.4492 36.8106 35.6227C36.7974 35.6245 36.7917 35.632 36.779 35.6337L36.7724 35.6346C36.7017 35.6513 36.6428 35.6596 36.5738 35.6429C36.5391 35.6346 36.5106 35.6188 36.4873 35.5955C36.7513 34.8782 37.0781 34.178 37.3351 33.4554C37.8727 31.9457 38.0739 30.3178 37.9267 28.726C37.8868 28.3052 37.8402 27.8387 38.1139 27.5132C38.6906 26.8376 38.9572 27.8659 39.2884 28.039C39.4826 28.1378 39.729 28.0429 39.8652 27.8769C40.0022 27.7175 40.0576 27.4965 40.1068 27.2826C40.3918 25.9622 40.463 24.5926 40.3176 23.2472C40.2833 22.9586 40.2412 22.6647 40.3347 22.3849C40.4292 22.1117 40.7015 21.8727 40.9888 21.925C41.3582 21.9922 41.4768 22.4486 41.5941 22.8048C41.7118 23.1611 42.0812 23.5551 42.3984 23.35C42.4897 23.2902 42.5429 23.1962 42.596 23.1018C42.9527 22.4244 43.1143 21.6417 43.0379 20.8725C42.9364 19.741 42.3536 18.5511 42.8398 17.5219C42.8811 17.4363 42.9351 17.3484 43.0142 17.297C43.1618 17.2092 43.3546 17.2553 43.4947 17.3484C44.133 17.7573 44.1049 18.6811 44.3658 19.3901C44.4189 19.5289 44.5283 19.687 44.6693 19.6466C44.7589 19.6207 44.8121 19.5262 44.8468 19.4415C45.5601 17.807 45.6945 15.9481 46.5432 14.3742C46.9802 13.559 47.5912 12.8452 48.1447 12.0998C48.8932 11.0868 49.5297 9.98957 50.0449 8.83609C50.2913 8.27428 50.5162 7.70237 50.706 7.11553C50.7152 7.08742 50.7236 7.05316 50.7389 7.01758C50.7789 8.27824 50.7991 9.5881 50.7025 10.8747C50.5492 13.3024 49.9904 15.6481 48.4262 17.4371L48.4197 17.438C48.3806 17.4903 48.3401 17.536 48.2936 17.5825C48.3981 17.521 48.4961 17.4604 48.6015 17.4055C49.386 16.9737 50.1824 16.7132 51.1189 17.0664C51.3429 17.1556 51.5353 17.2882 51.6732 17.4617Z" fill="#007537"/>
<path opacity="0.5" d="M50.7346 7L50.7373 7.01976C50.739 7.03294 50.7399 7.03952 50.7355 7.05358C50.5014 7.3268 50.1315 7.5864 49.9066 7.73839C48.7264 8.52641 47.6326 9.45586 46.661 10.4938C46.4238 10.7477 46.1945 11.0069 45.9731 11.2783C45.7517 11.5498 45.5457 11.8327 45.3467 12.1208C45.1491 12.4156 44.9716 12.7143 44.8091 13.0239C44.6457 13.327 44.5038 13.6406 44.3834 13.9644C44.2697 14.2872 44.1695 14.6145 44.1041 14.9505C44.0781 15.0941 44.0527 15.2444 44.0342 15.3937C44.0153 15.5431 43.9855 15.7073 44.0061 15.851C44.0268 15.9946 44.0136 16.1365 43.9657 16.27C43.9697 16.2028 43.9732 16.1356 43.9574 16.071C43.9358 15.9208 43.9016 15.7724 43.8669 15.6243C43.8493 15.547 43.8326 15.4758 43.808 15.3994C43.7689 15.265 43.7158 15.1258 43.6701 14.9927C43.6591 14.961 43.6552 14.9347 43.6503 14.9022C43.6587 14.914 43.6679 14.9329 43.6762 14.9452C43.4522 14.5908 44.1405 13.1996 44.3052 12.8627C44.6347 12.1828 45.0678 11.5744 45.598 11.0389C46.3728 10.2553 47.1292 9.4875 47.9981 8.80402C48.2256 8.6248 49.8934 7.65405 50.5093 7.20601C50.6494 7.10542 50.7381 7.02636 50.7346 7Z" fill="#007537"/>
<path opacity="0.5" d="M40.7071 14.3085C40.3777 15.2217 40.3465 16.2193 40.4453 17.1918C40.5345 18.0057 40.7089 18.8069 40.9729 19.5822C40.7572 19.4728 40.6224 19.2725 40.5112 19.0551C40.5205 19.0735 40.542 19.0841 40.5569 19.095C39.9907 17.6029 40.0017 15.9021 40.5758 14.4139C40.6944 14.124 40.8336 13.8372 41.0787 13.6426C40.9048 13.8271 40.7994 14.0687 40.7071 14.3085Z" fill="#007537"/>
<path opacity="0.5" d="M37.959 19.1989C37.8764 20.4433 37.9994 21.1193 38.2392 22.2381C38.4703 23.298 39.1753 25.2966 39.2425 25.4873C39.2227 25.4433 39.0971 25.2615 38.9345 25.0115C38.9337 25.005 38.9337 25.005 38.9328 24.9984C38.6697 24.2297 38.4197 23.4588 38.1632 22.6892C37.919 21.9578 37.6726 21.2129 37.6159 20.4415C37.5667 19.722 37.6945 18.5176 38.3574 18.07C38.3881 18.0524 38.4189 18.0344 38.4505 18.0234C38.2128 18.2699 38.0011 18.6533 37.959 19.1989Z" fill="#007537"/>
<path opacity="0.5" d="M37.2662 24.2969C37.0628 24.506 36.8695 24.8798 36.7852 25.5518C36.5814 27.1604 37.1726 28.4087 37.3246 30.2202C37.4335 31.5441 37.3764 32.6853 36.946 33.5933C37.1656 32.6089 37.1713 31.5753 37.0747 30.5694C36.9367 29.0896 36.6029 27.6378 36.4522 26.1598C36.3907 25.5887 36.3916 24.9421 36.8014 24.5437C36.9301 24.4181 37.0918 24.3351 37.2662 24.2969Z" fill="#007537"/>
<path d="M59.9998 17.5156L59.9923 17.5336C59.9875 17.5455 59.9848 17.5516 59.9739 17.5613C59.3866 18.6471 58.7492 19.7686 58.0271 20.8057C56.6786 22.7994 55.0257 24.5204 52.7942 25.2623L52.7881 25.2597C52.7284 25.2847 52.6713 25.3036 52.608 25.3199C52.7279 25.3199 52.8421 25.3172 52.9594 25.3234C53.8454 25.3484 54.6549 25.5259 55.2769 26.2968C55.4254 26.4848 55.5229 26.6943 55.5536 26.9117C55.6753 27.5262 55.3757 28.1864 54.7981 28.5282C54.3716 28.7764 53.8678 28.8519 53.3763 28.8967C52.5729 28.9622 51.762 28.9604 50.9652 28.873C50.9687 28.8818 50.9749 28.884 50.981 28.8866L50.9872 28.8892C51.2099 29.2064 51.5323 29.4519 51.816 29.7238C52.2153 30.0924 52.633 30.5185 52.6559 31.064C52.6607 31.0873 52.6568 31.1136 52.6528 31.1404C52.6449 31.624 52.2904 32.0572 51.8591 32.2825C51.4049 32.5122 50.8782 32.557 50.3665 32.5654C49.5262 32.5663 48.7245 32.3356 47.8996 32.3001C47.2948 32.2777 46.2652 32.4472 45.7315 32.08C45.858 32.1674 45.9783 32.2517 46.1022 32.3453C46.1105 32.3418 46.1105 32.3418 46.1145 32.3501C46.5217 32.6304 46.9298 32.9251 47.3348 33.2115C47.861 33.5972 48.1715 34.4731 47.6457 34.8425C47.5957 34.8785 47.5337 34.9092 47.4762 34.9281C47.1652 35.0331 46.7874 34.9207 46.4663 34.8095C44.8723 34.2394 43.273 33.6319 41.5915 33.4984C40.066 33.3798 38.547 33.6591 37.101 34.1379C36.4553 34.3527 35.781 34.499 35.1353 34.7138C34.6355 34.8824 34.3341 35.0832 33.7679 34.9496C33.7556 34.9448 33.7473 34.9483 33.7354 34.9431L33.7293 34.9404C33.6603 34.9193 33.6058 34.8969 33.5553 34.8477C33.5303 34.8231 33.5136 34.795 33.5053 34.7638C33.4416 34.5754 33.6643 34.3422 33.8536 34.2082C34.2379 33.9424 34.5898 33.6354 34.9012 33.2906C34.9012 33.2906 34.9074 33.2928 34.9034 33.2844C35.5842 32.5548 36.1078 31.6759 36.5295 30.7693C37.1541 29.4379 37.5978 28.0318 38.2101 26.6956C38.4442 26.1777 38.7693 25.6265 39.3184 25.4925C39.491 25.4503 39.6702 25.4604 39.8384 25.5153C40.0888 25.576 40.3141 25.7319 40.4811 25.9274C40.7543 26.2586 40.8667 26.707 40.8637 27.1432C40.8738 27.0839 40.8865 27.0185 40.9032 26.9618C40.9054 26.9557 40.9054 26.9556 40.908 26.9499C41.0692 26.1619 41.2427 25.3792 41.4101 24.5942C41.5687 23.8475 41.7321 23.0889 42.0707 22.4023C42.3892 21.7641 43.103 20.8008 43.8923 20.7512C43.9274 20.7516 43.9626 20.7516 43.9951 20.7582C43.9951 20.7582 43.9977 20.7521 44.0034 20.7547C44.386 20.785 44.7045 21.1272 44.8573 21.4935C45.026 21.8735 45.0765 22.2824 45.2307 22.6633L45.2342 22.672C45.2329 22.6927 45.2461 22.712 45.2531 22.7291C45.5184 21.1724 46.3807 19.7268 47.6168 18.7455C47.8632 18.5575 48.1254 18.3827 48.4329 18.3397C48.4417 18.3362 48.4417 18.3362 48.4474 18.3388C48.9815 18.276 49.4818 18.6722 49.7199 19.158C49.9483 19.6328 49.9795 20.1753 49.9953 20.7037C49.9962 20.7182 49.9949 20.7389 49.9962 20.7534C49.983 20.3387 51.2674 19.4971 51.5771 19.2924C52.1995 18.8778 52.8738 18.576 53.5946 18.3849C54.6483 18.1051 55.6788 17.8297 56.7629 17.6821C57.0471 17.6434 58.9561 17.6518 59.7064 17.5784C59.8746 17.5631 59.9897 17.5398 59.9998 17.5156Z" fill="#009245"/>
<path opacity="0.5" d="M54.7948 28.5286C54.3683 28.7767 53.8645 28.8519 53.3729 28.8971C52.57 28.9625 51.7587 28.9608 50.9619 28.8734C50.9654 28.8822 50.9715 28.8844 50.9777 28.887C50.01 28.5106 48.9879 28.2672 47.9561 28.1679C49.3147 27.6957 50.766 27.5297 52.2001 27.5613C52.8573 27.5771 53.5201 27.6303 54.168 27.5297C54.5471 27.4664 54.9275 27.3474 55.2578 27.1445C55.3588 27.0874 55.4541 26.9925 55.5508 26.9121C55.6724 27.5271 55.3729 28.1873 54.7948 28.5286Z" fill="#009245"/>
<path opacity="0.5" d="M51.8547 32.2821C51.4005 32.5118 50.8739 32.5566 50.3621 32.5654C49.5218 32.5659 48.7202 32.3357 47.8948 32.3001C47.29 32.2777 46.2604 32.4473 45.7267 32.0801C45.8532 32.1675 45.9735 32.2523 46.0974 32.3454C45.0994 31.9566 44.0966 31.5802 43.0371 31.462C44.5613 30.9305 46.1677 30.4047 47.7609 30.6498C48.4957 30.7684 49.195 31.0412 49.9158 31.2459C50.6389 31.444 51.404 31.5749 52.1248 31.3843C52.2768 31.3408 52.4644 31.2275 52.6484 31.1405C52.6405 31.6237 52.2861 32.0568 51.8547 32.2821Z" fill="#009245"/>
<path opacity="0.5" d="M47.4712 34.9283C47.1598 35.0333 46.7829 34.9208 46.4614 34.8097C44.8678 34.2395 43.268 33.632 41.5865 33.4985C40.061 33.3799 38.5421 33.6593 37.096 34.1381C36.4503 34.3529 35.7761 34.4991 35.1304 34.7139C34.6305 34.8826 34.3292 35.0833 33.763 34.9498C33.7507 34.945 33.7423 34.9485 33.7305 34.9436C33.7981 34.8655 33.8895 34.7974 33.976 34.7411C34.5422 34.3599 35.1115 33.9865 35.6812 33.6136C36.0774 33.3527 36.4802 33.0948 36.9063 32.8818C38.8895 31.8684 41.363 31.861 43.3488 32.8677C44.143 33.2714 44.8533 33.8104 45.6299 34.2567C46.1978 34.5747 46.8185 34.851 47.4712 34.9283Z" fill="#009245"/>
<path opacity="0.5" d="M58.0265 20.8047C56.678 22.7985 55.0251 24.5195 52.7937 25.2614L52.7875 25.2587C52.4664 25.2328 52.1581 25.1414 51.837 25.1155C51.1561 25.0545 50.485 25.2798 49.8428 25.5029C50.7116 24.3846 51.9877 23.6669 53.2865 23.0994C54.5828 22.538 55.9436 22.0948 57.1638 21.3753C57.4612 21.2009 57.7515 21.0098 58.0265 20.8047Z" fill="#009245"/>
<path opacity="0.3" d="M55.5533 26.9104C55.675 27.5249 55.3754 28.1851 54.7978 28.5269C54.3712 28.775 53.8674 28.8506 53.3759 28.8954C52.5725 28.9608 51.7616 28.9591 50.9648 28.8717C50.9683 28.8805 50.9745 28.8827 50.9806 28.8853L50.9868 28.8879C51.2095 29.2051 51.5319 29.4506 51.8157 29.7225C52.2149 30.0911 52.6327 30.5171 52.6555 31.0627C52.6603 31.086 52.6564 31.1123 52.6524 31.1391C52.6445 31.6227 52.2901 32.0558 51.8587 32.2812C51.4045 32.5109 50.8779 32.5557 50.3661 32.5641C49.5258 32.5649 48.7242 32.3343 47.8993 32.2987C47.2944 32.2763 46.2648 32.4459 45.7311 32.0787C45.8576 32.1661 45.978 32.2504 46.1018 32.344C46.1102 32.3405 46.1102 32.3405 46.1141 32.3488C46.5213 32.6291 46.9294 32.9238 47.3344 33.2102C47.8606 33.5959 48.1712 34.4717 47.6454 34.8412C47.5953 34.8772 47.5334 34.9079 47.4758 34.9268C47.1648 35.0318 46.7871 34.9193 46.466 34.8082C44.8719 34.238 43.2726 33.6306 41.5911 33.497C40.0656 33.3784 38.5467 33.6578 37.1006 34.1366C36.4549 34.3514 35.7807 34.4977 35.135 34.7125C34.6351 34.8811 34.3338 35.0819 33.7676 34.9483C33.7553 34.9435 33.7469 34.947 33.7351 34.9417L33.7289 34.9391C33.6599 34.918 33.6055 34.8956 33.555 34.8464C33.5299 34.8218 33.5132 34.7937 33.5049 34.7625C34.09 34.2829 34.7199 33.8498 35.3014 33.3622C36.5173 32.344 37.5052 31.0561 38.1777 29.6246C38.3547 29.2455 38.5489 28.8242 38.9455 28.6837C39.7761 28.3968 39.488 29.4076 39.6839 29.7212C39.7998 29.903 40.0577 29.9452 40.2571 29.8719C40.4543 29.8047 40.612 29.6434 40.7614 29.4862C41.6662 28.5027 42.4139 27.3703 42.9651 26.1496C43.0802 25.8865 43.1918 25.6146 43.4118 25.4227C43.6293 25.2369 43.9815 25.1696 44.2003 25.3585C44.4819 25.601 44.354 26.0499 44.2754 26.4127C44.1968 26.7756 44.3145 27.297 44.6879 27.2811C44.7959 27.2759 44.8886 27.2223 44.9809 27.1687C45.6248 26.7698 46.155 26.183 46.4756 25.489C46.9566 24.4725 47.0559 23.1653 47.9871 22.5315C48.0653 22.4788 48.1554 22.4313 48.2489 22.4274C48.4185 22.4265 48.5603 22.5622 48.6328 22.712C48.9719 23.381 48.4848 24.1545 48.3517 24.8907C48.3271 25.0361 48.3412 25.2254 48.4817 25.2614C48.5713 25.2843 48.664 25.2307 48.736 25.1753C50.1641 24.1387 51.2112 22.6206 52.724 21.7039C53.5059 21.2273 54.3853 20.9251 55.2309 20.5671C56.3773 20.0782 57.4706 19.4615 58.4888 18.7363C58.9808 18.381 59.4596 18.0058 59.9155 17.6004C59.9375 17.5811 59.9621 17.556 59.9924 17.5332C59.3941 18.6283 58.7546 19.7558 58.0272 20.8052C56.6786 22.799 55.0257 24.52 52.7943 25.2619L52.7882 25.2592C52.7284 25.2843 52.6713 25.3032 52.6081 25.3194C52.728 25.3194 52.8422 25.3168 52.9595 25.3229C53.8455 25.348 54.655 25.5254 55.277 26.2963C55.4255 26.4839 55.523 26.6934 55.5533 26.9104Z" fill="#009245"/>
<path opacity="0.5" d="M59.9994 17.5156L59.9919 17.5336C59.9871 17.5455 59.9844 17.5516 59.9734 17.5613C59.6365 17.6768 59.1911 17.7129 58.9232 17.7295C57.5211 17.8099 56.122 18.0541 54.7727 18.4526C54.4432 18.5501 54.1173 18.6564 53.7922 18.7767C53.4676 18.8975 53.1496 19.035 52.8355 19.1813C52.5188 19.3333 52.218 19.4993 51.9241 19.682C51.6329 19.8586 51.3544 20.055 51.0895 20.2706C50.8303 20.4889 50.5808 20.7182 50.3568 20.9717C50.2624 21.0811 50.1657 21.1966 50.0748 21.3147C49.9839 21.4325 49.8763 21.5576 49.8218 21.6907C49.7673 21.8234 49.6848 21.938 49.5771 22.0277C49.614 21.9723 49.6509 21.917 49.6698 21.8541C49.7269 21.7153 49.7717 21.5713 49.817 21.4276C49.8407 21.3525 49.8622 21.2836 49.8798 21.2062C49.9136 21.0718 49.9382 20.9264 49.9663 20.7898C49.9729 20.7573 49.9826 20.7332 49.9949 20.7029C49.9958 20.7174 49.9944 20.738 49.9958 20.7525C49.9826 20.3378 51.267 19.4962 51.5766 19.2915C52.1991 18.8769 52.8733 18.5751 53.5941 18.384C54.6479 18.1042 55.6784 17.8288 56.7625 17.6812C57.0467 17.6426 58.9557 17.6509 59.7059 17.5776C59.8742 17.5631 59.9893 17.5398 59.9994 17.5156Z" fill="#009245"/>
<path opacity="0.5" d="M47.7805 18.7216C47.0413 19.3352 46.5146 20.1707 46.1114 21.0496C45.7797 21.7884 45.5263 22.5598 45.3624 23.3535C45.2333 23.1523 45.2188 22.9134 45.2328 22.6722C45.2315 22.6929 45.2447 22.7122 45.2517 22.7293C45.517 21.1726 46.3793 19.727 47.6154 18.7457C47.8618 18.5577 48.124 18.3829 48.4315 18.3398C48.1908 18.4101 47.9795 18.5634 47.7805 18.7216Z" fill="#009245"/>
<path opacity="0.5" d="M42.9843 21.5154C42.2899 22.5358 42.0557 23.1736 41.699 24.2484C41.3643 25.2684 40.9637 27.3272 40.9251 27.5231C40.9304 27.4756 40.9141 27.2573 40.9014 26.9626C40.9036 26.9564 40.9036 26.9564 40.9062 26.9507C41.0674 26.1627 41.2409 25.38 41.4083 24.595C41.5668 23.8483 41.7302 23.0897 42.0689 22.4031C42.3874 21.7649 43.1012 20.8016 43.8905 20.752C43.9256 20.7524 43.9608 20.7524 43.9933 20.759C43.6669 20.8499 43.294 21.0709 42.9843 21.5154Z" fill="#009245"/>
<path opacity="0.5" d="M39.8374 25.5157C39.5589 25.5921 39.2066 25.8144 38.7981 26.345C37.8177 27.6149 37.696 28.9766 36.9168 30.5974C36.3457 31.7816 35.7246 32.726 34.9023 33.2848C35.5832 32.5552 36.1068 31.6762 36.5285 30.7696C37.1531 29.4382 37.5967 28.0322 38.2091 26.6959C38.4432 26.1781 38.7682 25.6268 39.3173 25.4928C39.4899 25.4507 39.6691 25.4608 39.8374 25.5157Z" fill="#009245"/>
<path d="M41.7737 1.18869V6.51367C41.7737 7.16729 41.2386 7.70237 40.585 7.70237H19.1906C18.5328 7.70237 18.002 7.16771 18.002 6.51367V1.18869C18.002 0.53127 18.5328 0 19.1906 0H40.585C41.239 0 41.7737 0.530847 41.7737 1.18869Z" fill="#FFB612"/>
<path opacity="0.7" d="M18.7614 6.51367V1.18869C18.7614 0.53127 19.2922 0 19.9501 0H19.1906C18.5328 0 18.002 0.530847 18.002 1.18869V6.51367C18.002 7.16729 18.5328 7.70237 19.1906 7.70237H19.9501C19.2922 7.70194 18.7614 7.16729 18.7614 6.51367Z" fill="#FFB612"/>
<path opacity="0.5" d="M41.7735 1.18827V6.51325C41.7735 7.16686 41.2384 7.70194 40.5848 7.70194H23.3623C30.3789 5.38425 33.6834 1.97311 35.0939 2.53008e-07H40.5852C41.2388 -0.00042307 41.7735 0.530424 41.7735 1.18827Z" fill="#FFB612"/>
<path d="M39.731 6.20125H20.0419C19.8446 6.20125 19.6846 6.04123 19.6846 5.84397V4.34752C19.6846 4.15025 19.8446 3.99023 20.0419 3.99023H39.731C39.9283 3.99023 40.0883 4.15025 40.0883 4.34752V5.84397C40.0883 6.04123 39.9283 6.20125 39.731 6.20125Z" fill="#A35713"/>
<path d="M39.7245 4.8142V19.0374C39.7245 19.1445 39.6809 19.2436 39.6098 19.3189L37.621 21.3077L35.8304 23.0984L32.6372 26.2915C32.5619 26.363 32.4628 26.4062 32.3557 26.4062H27.4151C27.308 26.4062 27.209 26.3626 27.134 26.2915L23.9447 23.1022L22.1498 21.3035L20.1649 19.3185C20.0895 19.2432 20.0459 19.1441 20.0459 19.037V4.8142C20.0459 4.59619 20.2241 4.41797 20.4421 4.41797H39.3287C39.5463 4.41839 39.7245 4.59661 39.7245 4.8142Z" fill="#FF5766"/>
<path d="M20.5416 4.83494C20.5416 4.6055 20.7219 4.41797 20.9425 4.41797H20.4421C20.2241 4.41797 20.0459 4.59619 20.0459 4.8142V19.0374C20.0459 19.1445 20.0895 19.2436 20.1649 19.3189L20.5416 19.6957V4.83494Z" fill="#FF5766"/>
<path opacity="0.5" d="M39.7246 4.81378V19.037C39.7246 19.1441 39.681 19.2432 39.6099 19.3185L37.6211 21.3073L35.8305 23.098L32.6373 26.2911C32.562 26.3626 32.4629 26.4058 32.3558 26.4058H31.4131V4.41797H39.3292C39.5464 4.41797 39.7246 4.59619 39.7246 4.81378Z" fill="#B24250"/>
<path d="M23.9443 4.41797V23.1022L22.1494 21.3035V4.41797H23.9443Z" fill="#FFB612"/>
<path d="M37.6212 4.41797V21.3077L35.8301 23.0984V4.41797H37.6212Z" fill="#FFB612"/>
<path d="M29.8855 41.9996C36.4497 41.9996 41.7711 36.6782 41.7711 30.114C41.7711 23.5499 36.4497 18.2285 29.8855 18.2285C23.3213 18.2285 18 23.5499 18 30.114C18 36.6782 23.3213 41.9996 29.8855 41.9996Z" fill="#FFB612"/>
<path opacity="0.7" d="M18.7939 30.5108C18.7939 23.8418 24.2001 18.4355 30.8692 18.4355C31.5359 18.4355 32.1891 18.4918 32.8262 18.5955C31.886 18.3564 30.9013 18.2285 29.8866 18.2285C23.3222 18.2285 18.001 23.5501 18.001 30.1142C18.001 34.5307 20.4114 38.3817 23.9868 40.4306C20.8495 38.25 18.7939 34.6217 18.7939 30.5108Z" fill="#FFB612"/>
<path opacity="0.5" d="M32.0208 18.4238C34.888 20.7204 36.7261 24.2488 36.7261 28.2081C36.7261 35.0117 31.3033 40.5454 24.5449 40.7317C26.1514 41.5415 27.965 42.0004 29.8864 42.0004C36.4509 42.0004 41.7721 36.6788 41.7721 30.1147C41.7721 24.2792 37.5659 19.4296 32.0208 18.4238Z" fill="#FFB612"/>
<path d="M37.5191 31.3619C38.2074 27.1455 35.3473 23.1695 31.1309 22.4812C26.9145 21.7929 22.9384 24.653 22.2501 28.8694C21.5619 33.0858 24.422 37.0619 28.6384 37.7501C32.8548 38.4384 36.8308 35.5783 37.5191 31.3619Z" fill="#D37416"/>
<path opacity="0.5" d="M22.87 30.6731C22.87 26.4898 26.2613 23.099 30.4441 23.099C32.9625 23.099 35.187 24.333 36.5645 26.2235C35.223 23.9266 32.7381 22.3789 29.8862 22.3789C25.6136 22.3789 22.1504 25.8425 22.1504 30.1147C22.1504 32.9666 23.6981 35.4515 25.995 36.7931C24.104 35.4164 22.87 33.1914 22.87 30.6731Z" fill="#D37416"/>
<path d="M30.2408 25.7639L31.4125 28.1384C31.4701 28.2552 31.5818 28.3365 31.711 28.3551L34.3313 28.7357C34.6564 28.7827 34.786 29.1823 34.551 29.4113L32.655 31.2595C32.5618 31.3505 32.5191 31.4818 32.5411 31.61L32.9886 34.2198C33.044 34.5437 32.7045 34.7905 32.4137 34.6376L30.0702 33.4058C29.9546 33.3452 29.817 33.3452 29.7015 33.4058L27.3579 34.6376C27.0671 34.7905 26.7276 34.5437 26.7831 34.2198L27.2305 31.61C27.2525 31.4813 27.2098 31.3505 27.1166 31.2595L25.2206 29.4113C24.9856 29.1819 25.1152 28.7827 25.4403 28.7357L28.0606 28.3551C28.1898 28.3365 28.3011 28.2552 28.3591 28.1384L29.5308 25.7639C29.6756 25.4693 30.0956 25.4693 30.2408 25.7639Z" fill="#FFB612"/>
<path opacity="0.7" d="M27.1796 34.2191L27.627 31.6097C27.649 31.481 27.6063 31.3502 27.5132 31.2588L25.6171 29.4106C25.3817 29.1811 25.5117 28.7819 25.8368 28.7349L28.4567 28.3544C28.5859 28.3357 28.6972 28.2545 28.7552 28.1376L29.927 25.7632C29.9642 25.6879 30.0197 25.6324 30.0836 25.5956C29.8977 25.4889 29.6378 25.5443 29.5299 25.7632L28.3581 28.1376C28.3005 28.2545 28.1888 28.3357 28.0597 28.3544L25.4393 28.7349C25.1142 28.7819 24.9847 29.1815 25.2196 29.4106L27.1157 31.2588C27.2092 31.3498 27.2515 31.481 27.2295 31.6097L26.7821 34.2191C26.7266 34.5429 27.0661 34.7897 27.357 34.6369L27.3752 34.6276C27.2405 34.5497 27.1491 34.3977 27.1796 34.2191Z" fill="#FFB612"/>
<path opacity="0.5" d="M27.3575 34.638L29.701 33.4061C29.8166 33.3456 29.9542 33.3456 30.0698 33.4061L32.4133 34.638C32.7041 34.7908 33.0436 34.544 32.9881 34.2202L32.5407 31.6108C32.5187 31.4821 32.5614 31.3513 32.6546 31.2599L34.5506 29.4117C34.786 29.1822 34.656 28.783 34.3309 28.736L31.7106 28.3555L27.0654 34.666C27.1577 34.6926 27.2597 34.6892 27.3575 34.638Z" fill="#FFB612"/>
<path opacity="0.7" d="M28.9415 28.9474C29.0008 29.165 28.7256 29.4296 28.3277 29.5375C27.9293 29.6459 27.5585 29.557 27.4992 29.3394C27.44 29.1218 27.7151 28.8573 28.1131 28.7493C28.5114 28.6409 28.8822 28.7298 28.9415 28.9474Z" fill="#FFB612"/>
</svg>
