<svg width="60" height="42" viewBox="0 0 60 42" fill="none" xmlns="http://www.w3.org/2000/svg">
<path d="M9.26608 6L9.26344 6.01976C9.26168 6.03294 9.2608 6.03952 9.26519 6.05358C9.22083 7.30018 9.2015 8.60346 9.29946 9.8773C9.45276 12.3051 10.0115 14.6507 11.5752 16.4398L11.5818 16.4406C11.6209 16.4929 11.6613 16.5386 11.7079 16.5852C11.6033 16.5237 11.5054 16.463 11.4 16.4081C10.6155 15.9763 9.81909 15.7159 8.8826 16.069C8.65682 16.1569 8.46443 16.2891 8.32651 16.463C7.9057 16.9361 7.82839 17.6648 8.15695 18.2583C8.40161 18.6931 8.80178 19.0169 9.20677 19.3077C9.87312 19.7759 10.5803 20.1901 11.3196 20.5222C11.3121 20.5279 11.3055 20.5266 11.2989 20.5257L11.2923 20.5248C10.9361 20.6874 10.5289 20.7357 10.1428 20.8275C9.6065 20.9443 9.02448 21.1011 8.7249 21.565C8.70909 21.5826 8.699 21.608 8.68846 21.6331C8.44774 22.0587 8.53471 22.6174 8.79519 23.0343C9.07324 23.467 9.50898 23.7758 9.95043 24.0455C10.6818 24.4764 11.4984 24.6859 12.2354 25.0777C12.774 25.3676 13.5839 26.0432 14.2371 25.9962C14.0821 26.0072 13.934 26.0195 13.7781 26.0375C13.7724 26.03 13.7724 26.03 13.7649 26.0357C13.2668 26.0713 12.7599 26.1192 12.2609 26.1609C11.6051 26.2272 10.8856 26.8312 11.1544 27.4224C11.1795 27.4796 11.2177 27.538 11.2581 27.5837C11.4755 27.8345 11.8621 27.9298 12.199 27.9979C13.8796 28.3176 15.5843 28.6076 17.1173 29.3525C18.5067 30.0307 19.6874 31.052 20.7016 32.2099C21.1541 32.7278 21.6667 33.2008 22.1191 33.7183C22.4679 34.1211 22.6278 34.4505 23.1896 34.624C23.2028 34.6258 23.2085 34.6333 23.2212 34.635L23.2278 34.6359C23.2985 34.6526 23.3574 34.6609 23.4263 34.6442C23.461 34.6359 23.49 34.6201 23.5129 34.5968C23.6648 34.4655 23.5902 34.1479 23.494 33.9344C23.295 33.5061 23.1456 33.0585 23.0516 32.5982C23.0516 32.5982 23.0451 32.5973 23.0525 32.5916C22.8329 31.6072 22.8272 30.5737 22.9243 29.5678C23.0622 28.0879 23.396 26.6362 23.5467 25.1581C23.6082 24.5871 23.6073 23.9405 23.1975 23.5421C23.0688 23.4169 22.9071 23.3339 22.7327 23.2957C22.4832 23.2201 22.2074 23.2407 21.9618 23.3255C21.5542 23.474 21.2265 23.8069 21.0056 24.1887C21.0271 24.1316 21.0495 24.0683 21.0645 24.0103C21.0653 24.0037 21.0653 24.0037 21.0662 23.9971C21.3293 23.2284 21.5788 22.4576 21.8353 21.688C22.0796 20.9566 22.326 20.2116 22.3827 19.4403C22.4319 18.7208 22.3036 17.5164 21.6412 17.0688C21.6104 17.0512 21.5797 17.0332 21.5476 17.0222C21.5476 17.0222 21.5485 17.0156 21.5419 17.0147C21.1932 16.8452 20.7403 16.9805 20.4196 17.2212C20.0783 17.4659 19.8244 17.7962 19.495 18.0492L19.4875 18.0549C19.4783 18.0734 19.4568 18.0839 19.4418 18.0949C20.008 16.6027 19.9971 14.9019 19.423 13.4137C19.3044 13.1238 19.1656 12.837 18.92 12.6424C18.9143 12.6349 18.9143 12.6349 18.9077 12.6341C18.4746 12.3055 17.8355 12.3942 17.3795 12.696C16.9372 12.9929 16.6324 13.4493 16.3477 13.9017C16.3394 13.9136 16.3302 13.9325 16.3218 13.9448C16.5458 13.5903 15.858 12.1992 15.6928 11.8623C15.3634 11.1823 14.9303 10.574 14.4001 10.0385C13.6257 9.25488 12.8684 8.48705 11.9996 7.80357C11.772 7.62436 10.1046 6.65361 9.48877 6.20557C9.35085 6.10542 9.26212 6.02636 9.26608 6Z" fill="#007537"/>
<path opacity="0.5" d="M8.1597 18.2605C8.40436 18.6954 8.80453 19.0191 9.20952 19.3099C9.87587 19.7781 10.5831 20.1924 11.3223 20.5244C11.3149 20.5301 11.3083 20.5293 11.3017 20.5279C12.3374 20.6957 13.3526 21.0072 14.3027 21.4491C13.3609 20.3417 12.1815 19.4535 10.916 18.7468C10.3358 18.4239 9.73091 18.1314 9.21786 17.7114C8.92005 17.4624 8.64947 17.1637 8.46542 16.8176C8.40656 16.7156 8.37229 16.5843 8.32924 16.4648C7.90844 16.9384 7.83157 17.6671 8.1597 18.2605Z" fill="#007537"/>
<path opacity="0.5" d="M8.79801 23.0364C9.07606 23.4691 9.5118 23.7779 9.95325 24.0476C10.6846 24.4785 11.5012 24.6885 12.2387 25.0798C12.7772 25.3702 13.5872 26.0453 14.2404 25.9983C14.0853 26.0097 13.9373 26.0216 13.7814 26.0396C14.8496 26.2118 15.9161 26.3976 16.8996 26.8377C15.8441 25.5942 14.7139 24.3133 13.2002 23.7111C12.4996 23.4379 11.7502 23.3175 11.0176 23.1265C10.2862 22.9288 9.55264 22.6508 9.02246 22.1153C8.91265 21.9998 8.80679 21.8048 8.69127 21.6348C8.45055 22.0608 8.53753 22.6196 8.79801 23.0364Z" fill="#007537"/>
<path opacity="0.5" d="M11.2607 27.5859C11.4782 27.8368 11.8647 27.9321 12.2016 28.0002C13.8822 28.3199 15.587 28.6098 17.12 29.3548C18.5093 30.033 19.69 31.0543 20.7043 32.2122C21.1567 32.7301 21.6693 33.2031 22.1222 33.7206C22.471 34.1234 22.6309 34.4528 23.1927 34.6263C23.2058 34.6281 23.2115 34.6355 23.2243 34.6373C23.2054 34.5345 23.161 34.4282 23.114 34.3351C22.8162 33.7127 22.5109 33.0964 22.2056 32.4797C21.9939 32.0497 21.7752 31.6187 21.5129 31.2146C20.3041 29.3162 18.1535 28.0428 15.9076 27.9026C15.0089 27.8477 14.1141 27.9536 13.2093 27.9444C12.5513 27.9299 11.8691 27.8526 11.2607 27.5859Z" fill="#007537"/>
<path opacity="0.5" d="M9.2998 9.87695C9.4531 12.3047 10.0118 14.6503 11.5756 16.4394L11.5822 16.4403C11.8751 16.5822 12.1905 16.6604 12.4835 16.8022C13.1077 17.0979 13.5773 17.6381 14.0222 18.1613C13.8382 16.7421 13.0941 15.463 12.2534 14.3033C11.4117 13.1503 10.4533 12.0671 9.75883 10.8152C9.58928 10.5112 9.43422 10.1963 9.2998 9.87695Z" fill="#007537"/>
<path opacity="0.3" d="M8.32651 16.4617C7.9057 16.9348 7.82839 17.6635 8.15695 18.257C8.40161 18.6918 8.80178 19.0156 9.20677 19.3063C9.87312 19.7746 10.5803 20.1888 11.3196 20.5209C11.3121 20.5266 11.3055 20.5253 11.2989 20.5244L11.2923 20.5235C10.9361 20.686 10.5289 20.7344 10.1428 20.8262C9.6065 20.943 9.02448 21.0998 8.7249 21.5637C8.70909 21.5813 8.699 21.6067 8.68846 21.6318C8.44775 22.0574 8.53471 22.6161 8.79519 23.033C9.07324 23.4657 9.50898 23.7745 9.95043 24.0442C10.6818 24.4751 11.4984 24.6846 12.2354 25.0764C12.774 25.3663 13.5839 26.0419 14.2371 25.9949C14.0821 26.0059 13.934 26.0182 13.7781 26.0362C13.7724 26.0287 13.7724 26.0287 13.7649 26.0344C13.2668 26.07 12.7599 26.1179 12.2609 26.1596C11.6051 26.2259 10.8856 26.8299 11.1544 27.4211C11.1795 27.4782 11.2177 27.5367 11.2581 27.5823C11.4755 27.8332 11.8621 27.9285 12.199 27.9966C13.8796 28.3163 15.5843 28.6063 17.1173 29.3512C18.5067 30.0294 19.6874 31.0507 20.7016 32.2086C21.1541 32.7265 21.6667 33.1995 22.1191 33.717C22.4679 34.1198 22.6278 34.4492 23.1896 34.6227C23.2028 34.6245 23.2085 34.632 23.2212 34.6337L23.2278 34.6346C23.2985 34.6513 23.3574 34.6596 23.4263 34.6429C23.461 34.6346 23.49 34.6188 23.5129 34.5955C23.2489 33.8782 22.9221 33.178 22.6651 32.4554C22.1275 30.9457 21.9263 29.3178 22.0734 27.726C22.1134 27.3052 22.16 26.8387 21.8863 26.5132C21.3096 25.8376 21.0429 26.8659 20.7117 27.039C20.5176 27.1378 20.2712 27.0429 20.135 26.8769C19.9975 26.7175 19.9426 26.4965 19.893 26.2826C19.6083 24.9622 19.5367 23.5926 19.6821 22.2472C19.7164 21.9586 19.7585 21.6647 19.665 21.3849C19.5705 21.1117 19.2982 20.8727 19.0109 20.925C18.6415 20.9922 18.5229 21.4486 18.4056 21.8048C18.2879 22.1611 17.9185 22.5551 17.6014 22.35C17.51 22.2902 17.4569 22.1962 17.4037 22.1018C17.047 21.4244 16.8854 20.6417 16.9618 19.8725C17.0633 18.741 17.6462 17.5511 17.1599 16.5219C17.1186 16.4363 17.0646 16.3484 16.9855 16.297C16.8384 16.2092 16.6451 16.2553 16.505 16.3484C15.8667 16.7573 15.8949 17.6811 15.6339 18.3901C15.5808 18.5289 15.4714 18.687 15.3309 18.6466C15.2412 18.6207 15.1881 18.5262 15.1534 18.4415C14.4405 16.807 14.3056 14.9481 13.457 13.3742C13.0199 12.559 12.4089 11.8452 11.8555 11.0998C11.107 10.0868 10.4705 8.98957 9.95527 7.83609C9.70885 7.27428 9.48395 6.70237 9.29419 6.11553C9.28496 6.08742 9.27617 6.05316 9.26124 6.01758C9.22127 7.27824 9.20106 8.5881 9.2977 9.87468C9.451 12.3024 10.0097 14.6481 11.5735 16.4371L11.5801 16.438C11.6192 16.4903 11.6596 16.536 11.7061 16.5825C11.6016 16.521 11.5036 16.4604 11.3982 16.4055C10.6137 15.9737 9.81734 15.7132 8.88085 16.0664C8.65683 16.1556 8.46487 16.2882 8.32651 16.4617Z" fill="#007537"/>
<path opacity="0.5" d="M9.2658 6L9.26316 6.01976C9.2614 6.03294 9.26052 6.03952 9.26491 6.05358C9.49904 6.3268 9.86889 6.5864 10.0938 6.73839C11.2745 7.52641 12.3678 8.45586 13.3394 9.49382C13.5766 9.74771 13.8059 10.0069 14.0273 10.2783C14.2487 10.5498 14.4547 10.8327 14.6537 11.1208C14.8514 11.4156 15.0288 11.7143 15.1913 12.0239C15.3547 12.327 15.4966 12.6406 15.617 12.9644C15.7307 13.2872 15.8309 13.6145 15.8964 13.9505C15.9223 14.0941 15.9477 14.2444 15.9662 14.3937C15.9851 14.5431 16.0145 14.7073 15.9943 14.851C15.9737 14.9946 15.9868 15.1365 16.0347 15.27C16.0312 15.2028 16.0272 15.1356 16.0431 15.071C16.0646 14.9208 16.0988 14.7724 16.1335 14.6243C16.1511 14.547 16.1678 14.4758 16.1924 14.3994C16.2315 14.265 16.2846 14.1258 16.3303 13.9927C16.3417 13.961 16.3453 13.9347 16.3497 13.9022C16.3413 13.914 16.3321 13.9329 16.3237 13.9452C16.5478 13.5908 15.8599 12.1996 15.6947 11.8627C15.3653 11.1828 14.9322 10.5744 14.402 10.0389C13.6276 9.25531 12.8703 8.4875 12.0015 7.80402C11.7739 7.6248 10.1065 6.65405 9.4907 6.20601C9.35057 6.10542 9.26185 6.02636 9.2658 6Z" fill="#007537"/>
<path opacity="0.5" d="M19.2925 13.3085C19.622 14.2217 19.6531 15.2193 19.5543 16.1918C19.4647 17.0057 19.2903 17.8069 19.0268 18.5822C19.2424 18.4728 19.3777 18.2725 19.4884 18.0551C19.4792 18.0735 19.4577 18.0841 19.4427 18.095C20.0089 16.6029 19.9979 14.9021 19.4238 13.4139C19.3052 13.124 19.1664 12.8372 18.9209 12.6426C19.0948 12.8271 19.2003 13.0687 19.2925 13.3085Z" fill="#007537"/>
<path opacity="0.5" d="M22.0413 18.1989C22.1239 19.4433 22.0009 20.1193 21.7611 21.2381C21.53 22.298 20.825 24.2966 20.7578 24.4873C20.7776 24.4433 20.9032 24.2615 21.0657 24.0115C21.0666 24.005 21.0666 24.005 21.0675 23.9984C21.3306 23.2297 21.5801 22.4588 21.8366 21.6892C22.0808 20.9578 22.3273 20.2129 22.3839 19.4415C22.4331 18.722 22.3049 17.5176 21.6425 17.07C21.6117 17.0524 21.581 17.0344 21.5489 17.0234C21.7874 17.2699 21.9991 17.6533 22.0413 18.1989Z" fill="#007537"/>
<path opacity="0.5" d="M22.7337 23.2969C22.9371 23.506 23.1304 23.8798 23.2143 24.5518C23.4181 26.1604 22.8268 27.4087 22.6749 29.2202C22.5659 30.5441 22.623 31.6853 23.0535 32.5933C22.8339 31.6089 22.8281 30.5753 22.9252 29.5694C23.0631 28.0896 23.397 26.6378 23.5477 25.1598C23.6092 24.5887 23.6083 23.9421 23.1984 23.5437C23.0693 23.4181 22.9081 23.3351 22.7337 23.2969Z" fill="#007537"/>
<path d="M0 16.5156L0.00746658 16.5336C0.0122984 16.5455 0.0149305 16.5516 0.0259118 16.5613C0.613195 17.6471 1.25055 18.7686 1.97312 19.8057C3.32163 21.7994 4.97456 23.5204 7.20597 24.2623L7.21211 24.2597C7.27185 24.2847 7.32896 24.3036 7.39221 24.3199C7.27229 24.3199 7.15809 24.3172 7.04081 24.3234C6.15483 24.3484 5.34529 24.5259 4.7233 25.2968C4.57483 25.4848 4.47732 25.6943 4.44657 25.9117C4.3249 26.5262 4.62447 27.1864 5.20209 27.5282C5.6286 27.7764 6.13287 27.8519 6.62396 27.8967C7.42735 27.9622 8.23822 27.9604 9.03503 27.873C9.03152 27.8818 9.02537 27.884 9.01966 27.8866L9.0135 27.8892C8.7908 28.2064 8.46839 28.4519 8.18463 28.7238C7.78579 29.0924 7.36761 29.5185 7.34477 30.064C7.34038 30.0873 7.3439 30.1136 7.34785 30.1404C7.35576 30.624 7.71024 31.0572 8.14159 31.2825C8.59578 31.5122 9.12243 31.557 9.63417 31.5654C10.4745 31.5663 11.2761 31.3356 12.101 31.3001C12.7059 31.2777 13.7355 31.4472 14.2692 31.08C14.1427 31.1674 14.0223 31.2517 13.898 31.3453C13.8897 31.3418 13.8897 31.3418 13.8861 31.3501C13.479 31.6304 13.0709 31.9251 12.6663 32.2115C12.1401 32.5972 11.8296 33.4731 12.3554 33.8425C12.4054 33.8785 12.4674 33.9092 12.5245 33.9281C12.8359 34.0331 13.2132 33.9207 13.5343 33.8095C15.1284 33.2394 16.7277 32.6319 18.4092 32.4984C19.9343 32.3798 21.4536 32.6591 22.8997 33.1379C23.5454 33.3527 24.2196 33.499 24.8653 33.7138C25.3652 33.8824 25.6665 34.0832 26.2327 33.9496C26.245 33.9448 26.2534 33.9483 26.2657 33.9431L26.2718 33.9404C26.3408 33.9193 26.3953 33.8969 26.4458 33.8477C26.4708 33.8231 26.4875 33.795 26.4958 33.7638C26.5595 33.5754 26.3368 33.3422 26.1475 33.2082C25.7632 32.9424 25.4109 32.6354 25.0999 32.2906C25.0999 32.2906 25.0937 32.2928 25.0977 32.2844C24.4168 31.5548 23.8933 30.6759 23.4716 29.7693C22.847 28.4379 22.4037 27.0318 21.791 25.6956C21.5569 25.1777 21.2318 24.6265 20.6827 24.4925C20.5101 24.4503 20.3309 24.4604 20.1627 24.5153C19.9123 24.576 19.687 24.7319 19.52 24.9274C19.2468 25.2586 19.1344 25.707 19.1374 26.1432C19.1273 26.0839 19.1146 26.0185 19.0983 25.9618C19.0957 25.9557 19.0957 25.9556 19.0935 25.9499C18.9323 25.1619 18.7588 24.3792 18.5914 23.5942C18.4329 22.8475 18.2695 22.0889 17.9308 21.4023C17.6119 20.7641 16.8986 19.8008 16.1088 19.7512C16.0736 19.7516 16.0385 19.7516 16.006 19.7582C16.006 19.7582 16.0034 19.7521 15.9977 19.7547C15.6146 19.785 15.2966 20.1272 15.1437 20.4935C14.9751 20.8735 14.9245 21.2824 14.7704 21.6633L14.7669 21.672C14.7682 21.6927 14.755 21.712 14.748 21.7291C14.4827 20.1724 13.6204 18.7268 12.3843 17.7455C12.1375 17.5575 11.8753 17.3827 11.5682 17.3397C11.5599 17.3362 11.5599 17.3362 11.5537 17.3388C11.0196 17.276 10.5188 17.6722 10.2812 18.158C10.0528 18.6328 10.0216 19.1753 10.0058 19.7037C10.0049 19.7182 10.0062 19.7389 10.0049 19.7534C10.0181 19.3387 8.7337 18.4971 8.42359 18.2924C7.80116 17.8778 7.1269 17.576 6.40608 17.3849C5.35231 17.1051 4.32183 16.8297 3.23775 16.6821C2.95399 16.6434 1.04454 16.6518 0.294293 16.5784C0.125619 16.5631 0.0101029 16.5398 0 16.5156Z" fill="#009245"/>
<path opacity="0.5" d="M5.20544 27.5286C5.63196 27.7767 6.13578 27.8519 6.62731 27.8971C7.4307 27.9625 8.24157 27.9608 9.03838 27.8734C9.03487 27.8822 9.02871 27.8844 9.02256 27.887C9.99024 27.5106 11.0124 27.2672 12.0442 27.1679C10.6856 26.6957 9.23429 26.5297 7.80012 26.5613C7.143 26.5771 6.4806 26.6303 5.83226 26.5297C5.45362 26.4664 5.07279 26.3474 4.74247 26.1445C4.64144 26.0874 4.54569 25.9925 4.44949 25.9121C4.32826 26.5271 4.62782 27.1873 5.20544 27.5286Z" fill="#009245"/>
<path opacity="0.5" d="M8.14521 31.2821C8.5994 31.5118 9.12605 31.5566 9.63779 31.5654C10.4781 31.5659 11.2797 31.3357 12.1046 31.3001C12.7095 31.2777 13.7391 31.4473 14.2728 31.0801C14.1463 31.1675 14.0259 31.2523 13.9016 31.3454C14.8996 30.9566 15.9024 30.5802 16.9619 30.462C15.4377 29.9305 13.8314 29.4047 12.2382 29.6498C11.5033 29.7684 10.804 30.0412 10.0832 30.2459C9.36018 30.444 8.595 30.5749 7.87418 30.3843C7.7222 30.3408 7.53463 30.2275 7.35059 30.1405C7.35937 30.6237 7.71386 31.0568 8.14521 31.2821Z" fill="#009245"/>
<path opacity="0.5" d="M12.5283 33.9283C12.8398 34.0333 13.2171 33.9208 13.5382 33.8097C15.1322 33.2395 16.7315 32.632 18.413 32.4985C19.9385 32.3799 21.4575 32.6593 22.9035 33.1381C23.5492 33.3529 24.2235 33.4991 24.8692 33.7139C25.3691 33.8826 25.6704 34.0833 26.2366 33.9498C26.2484 33.945 26.2572 33.9485 26.2691 33.9436C26.2019 33.8655 26.1101 33.7974 26.0235 33.7411C25.4573 33.3599 24.8881 32.9865 24.3179 32.6136C23.9217 32.3527 23.5189 32.0948 23.0928 31.8818C21.1096 30.8684 18.6362 30.861 16.6503 31.8677C15.8561 32.2714 15.1458 32.8104 14.3692 33.2567C13.8017 33.5747 13.1811 33.851 12.5283 33.9283Z" fill="#009245"/>
<path opacity="0.5" d="M1.97266 19.8047C3.32117 21.7985 4.9741 23.5195 7.20551 24.2614L7.21165 24.2587C7.53274 24.2328 7.8411 24.1414 8.1622 24.1155C8.84304 24.0545 9.51423 24.2798 10.1564 24.5029C9.28801 23.3846 8.01154 22.6669 6.71266 22.0994C5.41642 21.538 4.05561 21.0948 2.83536 20.3753C2.53755 20.2009 2.24719 20.0098 1.97266 19.8047Z" fill="#009245"/>
<path opacity="0.3" d="M4.44638 25.9104C4.32471 26.5249 4.62428 27.1851 5.2019 27.5269C5.62842 27.775 6.13268 27.8506 6.62377 27.8954C7.42716 27.9608 8.23803 27.9591 9.03484 27.8717C9.03133 27.8805 9.02518 27.8827 9.01947 27.8853L9.01331 27.8879C8.79061 28.2051 8.4682 28.4506 8.18444 28.7225C7.7856 29.0911 7.36743 29.5171 7.34459 30.0627C7.3402 30.086 7.34371 30.1123 7.34766 30.1391C7.35557 30.6227 7.71005 31.0558 8.1414 31.2812C8.59559 31.5109 9.12225 31.5557 9.63398 31.5641C10.4743 31.5649 11.2759 31.3343 12.1008 31.2987C12.7057 31.2763 13.7353 31.4459 14.269 31.0787C14.1425 31.1661 14.0221 31.2504 13.8978 31.344C13.8895 31.3405 13.8895 31.3405 13.886 31.3488C13.4788 31.6291 13.0707 31.9238 12.6662 32.2102C12.1399 32.5959 11.8294 33.4717 12.3552 33.8412C12.4052 33.8772 12.4672 33.9079 12.5243 33.9268C12.8357 34.0318 13.213 33.9193 13.5341 33.8082C15.1282 33.238 16.7275 32.6306 18.409 32.497C19.9341 32.3784 21.4534 32.6578 22.8995 33.1366C23.5452 33.3514 24.2194 33.4977 24.8651 33.7125C25.365 33.8811 25.6663 34.0819 26.2325 33.9483C26.2448 33.9435 26.2532 33.947 26.2655 33.9417L26.2716 33.9391C26.3406 33.918 26.3951 33.8956 26.4456 33.8464C26.4706 33.8218 26.4873 33.7937 26.4957 33.7625C25.9106 33.2829 25.2811 32.8498 24.6991 32.3622C23.4832 31.344 22.4954 30.0561 21.8224 28.6246C21.6454 28.2455 21.4512 27.8242 21.0546 27.6837C20.224 27.3968 20.5121 28.4076 20.3162 28.7212C20.2003 28.903 19.9424 28.9452 19.743 28.8719C19.5458 28.8047 19.3881 28.6434 19.2387 28.4862C18.3334 27.5027 17.5858 26.3703 17.035 25.1496C16.9199 24.8865 16.8083 24.6146 16.5883 24.4227C16.3708 24.2369 16.0185 24.1696 15.7994 24.3585C15.5178 24.601 15.6456 25.0499 15.7243 25.4127C15.8029 25.7756 15.6852 26.297 15.3114 26.2811C15.2033 26.2759 15.1106 26.2223 15.0184 26.1687C14.3744 25.7698 13.8438 25.183 13.5236 24.489C13.0426 23.4725 12.9429 22.1653 12.0121 21.5315C11.9339 21.4788 11.8439 21.4313 11.7503 21.4274C11.5808 21.4265 11.4389 21.5622 11.3664 21.712C11.0273 22.381 11.5144 23.1545 11.6475 23.8907C11.6721 24.0361 11.6581 24.2254 11.5175 24.2614C11.4279 24.2843 11.3352 24.2307 11.2632 24.1753C9.83516 23.1387 8.78798 21.6206 7.27518 20.7039C6.49331 20.2273 5.61436 19.9251 4.76836 19.5671C3.6219 19.0782 2.5286 18.4615 1.51041 17.7363C1.01844 17.381 0.53966 17.0058 0.0837136 16.6004C0.0617508 16.5811 0.0371445 16.556 0.00683594 16.5332C0.605101 17.6283 1.24466 18.7558 1.9725 19.8052C3.32102 21.799 4.97393 23.52 7.20534 24.2619L7.21149 24.2592C7.27123 24.2843 7.32834 24.3032 7.39159 24.3194C7.27167 24.3194 7.15746 24.3168 7.04018 24.3229C6.1542 24.348 5.34466 24.5254 4.72267 25.2963C4.57464 25.4839 4.47713 25.6934 4.44638 25.9104Z" fill="#009245"/>
<path opacity="0.5" d="M0 16.5156L0.00746658 16.5336C0.0122984 16.5455 0.0149305 16.5516 0.0259118 16.5613C0.36282 16.6768 0.808221 16.7129 1.07617 16.7295C2.47827 16.8099 3.8773 17.0541 5.22669 17.4526C5.55613 17.5501 5.88205 17.6564 6.20666 17.7767C6.53171 17.8975 6.84929 18.035 7.16336 18.1813C7.48006 18.3333 7.78096 18.4993 8.07482 18.682C8.36604 18.8586 8.64453 19.055 8.9094 19.2706C9.16856 19.4889 9.41806 19.7182 9.64208 19.9717C9.73652 20.0811 9.83315 20.1966 9.92408 20.3147C10.015 20.4325 10.1226 20.5576 10.1771 20.6907C10.2316 20.8234 10.3141 20.938 10.4213 21.0277C10.3844 20.9723 10.3475 20.917 10.3286 20.8541C10.2715 20.7153 10.2267 20.5713 10.1815 20.4276C10.1578 20.3525 10.1362 20.2836 10.1187 20.2062C10.0848 20.0718 10.0602 19.9264 10.0321 19.7898C10.026 19.7573 10.0159 19.7332 10.0036 19.7029C10.0027 19.7174 10.004 19.738 10.0027 19.7525C10.0159 19.3378 8.7315 18.4962 8.42139 18.2915C7.79897 17.8769 7.1247 17.5751 6.40389 17.384C5.35011 17.1042 4.31963 16.8288 3.23555 16.6812C2.95179 16.6426 1.04234 16.6509 0.292095 16.5776C0.125617 16.5631 0.0101029 16.5398 0 16.5156Z" fill="#009245"/>
<path opacity="0.5" d="M12.2188 17.7216C12.9581 18.3352 13.4847 19.1707 13.888 20.0496C14.2196 20.7884 14.4731 21.5598 14.6369 22.3535C14.766 22.1523 14.7805 21.9134 14.766 21.6722C14.7674 21.6929 14.7542 21.7122 14.7472 21.7293C14.4818 20.1726 13.6196 18.727 12.3835 17.7457C12.1367 17.5577 11.8744 17.3829 11.5674 17.3398C11.8085 17.4101 12.0198 17.5634 12.2188 17.7216Z" fill="#009245"/>
<path opacity="0.5" d="M17.0157 20.5154C17.7102 21.5358 17.9443 22.1736 18.301 23.2484C18.6352 24.2684 19.0363 26.3272 19.0745 26.5231C19.0692 26.4756 19.0855 26.2573 19.0982 25.9626C19.0956 25.9564 19.0956 25.9564 19.0934 25.9507C18.9322 25.1627 18.7587 24.38 18.5913 23.595C18.4327 22.8483 18.2693 22.0897 17.9307 21.4031C17.6118 20.7649 16.8984 19.8016 16.1086 19.752C16.0735 19.7524 16.0384 19.7524 16.0059 19.759C16.3331 19.8499 16.7065 20.0709 17.0157 20.5154Z" fill="#009245"/>
<path opacity="0.5" d="M20.1631 24.5157C20.4416 24.5921 20.7939 24.8144 21.2024 25.345C22.1828 26.6149 22.3045 27.9766 23.0837 29.5974C23.6547 30.7816 24.2758 31.726 25.0981 32.2848C24.4173 31.5552 23.8937 30.6762 23.472 29.7696C22.8474 28.4382 22.4042 27.0322 21.7914 25.6959C21.5573 25.1781 21.2322 24.6268 20.6832 24.4928C20.5101 24.4507 20.3309 24.4608 20.1631 24.5157Z" fill="#009245"/>
<path d="M50.7339 6L50.7366 6.01976C50.7383 6.03294 50.7392 6.03952 50.7348 6.05358C50.7792 7.30018 50.7985 8.60346 50.7006 9.8773C50.5473 12.3051 49.9885 14.6507 48.4244 16.4398L48.4178 16.4406C48.3787 16.4929 48.3383 16.5386 48.2917 16.5852C48.3962 16.5237 48.4942 16.463 48.5996 16.4081C49.3841 15.9763 50.1805 15.7159 51.117 16.069C51.3428 16.1569 51.5352 16.2891 51.6731 16.463C52.0939 16.9361 52.1712 17.6648 51.8426 18.2583C51.598 18.6931 51.1978 19.0169 50.7928 19.3077C50.1265 19.7759 49.4193 20.1901 48.68 20.5222C48.6875 20.5279 48.6941 20.5266 48.7006 20.5257L48.7072 20.5248C49.0635 20.6874 49.4707 20.7357 49.8568 20.8275C50.3931 20.9443 50.9751 21.1011 51.2747 21.565C51.2905 21.5826 51.301 21.608 51.3111 21.6331C51.5519 22.0587 51.4649 22.6174 51.2044 23.0343C50.9263 23.467 50.4906 23.7758 50.0492 24.0455C49.3178 24.4764 48.5012 24.6859 47.7642 25.0777C47.2256 25.3676 46.4156 26.0432 45.7625 25.9962C45.9171 26.0072 46.0656 26.0195 46.2215 26.0375C46.2272 26.03 46.2272 26.03 46.2347 26.0357C46.7328 26.0713 47.2397 26.1192 47.7387 26.1609C48.3945 26.2272 49.114 26.8312 48.8452 27.4224C48.8197 27.4796 48.7815 27.538 48.7415 27.5837C48.5241 27.8345 48.1375 27.9298 47.801 27.9979C46.1205 28.3176 44.4157 28.6076 42.8827 29.3525C41.4934 30.0307 40.3126 31.052 39.2984 32.2099C38.846 32.7278 38.3334 33.2008 37.8809 33.7183C37.5317 34.1211 37.3723 34.4505 36.8105 34.624C36.7973 34.6258 36.7916 34.6333 36.7788 34.635L36.7723 34.6359C36.7015 34.6526 36.6427 34.6609 36.5737 34.6442C36.539 34.6359 36.5104 34.6201 36.4872 34.5968C36.3352 34.4655 36.4099 34.1479 36.5061 33.9344C36.705 33.5061 36.8544 33.0585 36.9484 32.5982C36.9484 32.5982 36.955 32.5973 36.9475 32.5916C37.1671 31.6072 37.1728 30.5737 37.0762 29.5678C36.9383 28.0879 36.6045 26.6362 36.4538 25.1581C36.3923 24.5871 36.3932 23.9405 36.803 23.5421C36.9317 23.4169 37.0933 23.3339 37.2677 23.2957C37.5168 23.2201 37.7931 23.2407 38.0386 23.3255C38.4462 23.474 38.7739 23.8069 38.9949 24.1887C38.9734 24.1316 38.951 24.0683 38.936 24.0103C38.9351 24.0037 38.9351 24.0037 38.9343 23.9971C38.6711 23.2284 38.4212 22.4576 38.1647 21.688C37.9205 20.9566 37.674 20.2116 37.6174 19.4403C37.5682 18.7208 37.696 17.5164 38.3588 17.0688C38.3896 17.0512 38.4203 17.0332 38.4519 17.0222C38.4519 17.0222 38.4511 17.0156 38.4577 17.0147C38.8064 16.8452 39.2593 16.9805 39.58 17.2212C39.9213 17.4659 40.1751 17.7962 40.5046 18.0492L40.5121 18.0549C40.5213 18.0734 40.5428 18.0839 40.5577 18.0949C39.9915 16.6027 40.0025 14.9019 40.5766 13.4137C40.6952 13.1238 40.8345 12.837 41.0796 12.6424C41.0853 12.6349 41.0853 12.6349 41.0919 12.6341C41.525 12.3055 42.1641 12.3942 42.62 12.696C43.0624 12.9929 43.3672 13.4493 43.6519 13.9017C43.6602 13.9136 43.6694 13.9325 43.6778 13.9448C43.4537 13.5903 44.1421 12.1992 44.3068 11.8623C44.6362 11.1823 45.0693 10.574 45.5995 10.0385C46.3743 9.25488 47.1308 8.48705 47.9996 7.80357C48.2271 7.62436 49.895 6.65361 50.5108 6.20557C50.6487 6.10542 50.7375 6.02636 50.7339 6Z" fill="#007537"/>
<path opacity="0.5" d="M51.8402 18.2605C51.5956 18.6954 51.1954 19.0191 50.7904 19.3099C50.1241 19.7781 49.4169 20.1924 48.6776 20.5244C48.6851 20.5301 48.6917 20.5293 48.6983 20.5279C47.6625 20.6957 46.6474 21.0072 45.6973 21.4491C46.639 20.3417 47.8184 19.4535 49.0839 18.7468C49.6642 18.4239 50.269 18.1314 50.7821 17.7114C51.0799 17.4624 51.3505 17.1637 51.5341 16.8176C51.5929 16.7156 51.6276 16.5843 51.6702 16.4648C52.0915 16.9384 52.1688 17.6671 51.8402 18.2605Z" fill="#007537"/>
<path opacity="0.5" d="M51.2022 23.0364C50.9242 23.4691 50.4884 23.7779 50.047 24.0476C49.3156 24.4785 48.499 24.6885 47.762 25.0798C47.2234 25.3702 46.4135 26.0453 45.7603 25.9983C45.9153 26.0097 46.0638 26.0216 46.2193 26.0396C45.151 26.2118 44.0845 26.3976 43.1006 26.8377C44.1561 25.5942 45.2863 24.3133 46.8 23.7111C47.5006 23.4379 48.25 23.3175 48.9827 23.1265C49.714 22.9288 50.4476 22.6508 50.9777 22.1153C51.088 21.9998 51.1934 21.8048 51.3089 21.6348C51.5497 22.0608 51.4627 22.6196 51.2022 23.0364Z" fill="#007537"/>
<path opacity="0.5" d="M48.739 27.5859C48.5216 27.8368 48.1355 27.9321 47.7986 28.0002C46.118 28.3199 44.4132 28.6098 42.8802 29.3548C41.4909 30.033 40.3102 31.0543 39.2959 32.2122C38.8431 32.7301 38.3309 33.2031 37.8785 33.7206C37.5293 34.1234 37.3698 34.4528 36.808 34.6263C36.7948 34.6281 36.7891 34.6355 36.7764 34.6373C36.7953 34.5345 36.8396 34.4282 36.8866 34.3351C37.1844 33.7127 37.4897 33.0964 37.795 32.4797C38.0067 32.0497 38.225 31.6187 38.4877 31.2146C39.6965 29.3162 41.8476 28.0428 44.093 27.9026C44.9917 27.8477 45.8865 27.9536 46.7914 27.9444C47.4485 27.9299 48.1307 27.8526 48.739 27.5859Z" fill="#007537"/>
<path opacity="0.5" d="M50.7004 9.87695C50.5471 12.3047 49.9884 14.6503 48.4242 16.4394L48.4176 16.4403C48.1246 16.5822 47.8092 16.6604 47.5162 16.8022C46.8921 17.0979 46.4225 17.6381 45.9775 18.1613C46.1616 16.7421 46.9057 15.463 47.7464 14.3033C48.5885 13.1503 49.5465 12.0671 50.2409 10.8152C50.4114 10.5112 50.566 10.1963 50.7004 9.87695Z" fill="#007537"/>
<path opacity="0.3" d="M51.6732 16.4617C52.094 16.9348 52.1713 17.6635 51.8428 18.257C51.5981 18.6918 51.1979 19.0156 50.7929 19.3063C50.1266 19.7746 49.4194 20.1888 48.6801 20.5209C48.6876 20.5266 48.6942 20.5253 48.7008 20.5244L48.7074 20.5235C49.0636 20.686 49.4708 20.7344 49.8569 20.8262C50.3932 20.943 50.9752 21.0998 51.2748 21.5637C51.2906 21.5813 51.3012 21.6067 51.3113 21.6318C51.552 22.0574 51.465 22.6161 51.2045 23.033C50.9265 23.4657 50.4907 23.7745 50.0493 24.0442C49.3179 24.4751 48.5014 24.6846 47.7643 25.0764C47.2258 25.3663 46.4158 26.0419 45.7626 25.9949C45.9172 26.0059 46.0657 26.0182 46.2216 26.0362C46.2273 26.0287 46.2273 26.0287 46.2348 26.0344C46.7329 26.07 47.2398 26.1179 47.7388 26.1596C48.3946 26.2259 49.1141 26.8299 48.8453 27.4211C48.8198 27.4782 48.7816 27.5367 48.7416 27.5823C48.5242 27.8332 48.1377 27.9285 47.8012 27.9966C46.1206 28.3163 44.4159 28.6063 42.8829 29.3512C41.4935 30.0294 40.3128 31.0507 39.2985 32.2086C38.8461 32.7265 38.3335 33.1995 37.8811 33.717C37.5319 34.1198 37.3724 34.4492 36.8106 34.6227C36.7974 34.6245 36.7917 34.632 36.779 34.6337L36.7724 34.6346C36.7017 34.6513 36.6428 34.6596 36.5738 34.6429C36.5391 34.6346 36.5106 34.6188 36.4873 34.5955C36.7513 33.8782 37.0781 33.178 37.3351 32.4554C37.8727 30.9457 38.0739 29.3178 37.9267 27.726C37.8868 27.3052 37.8402 26.8387 38.1139 26.5132C38.6906 25.8376 38.9572 26.8659 39.2884 27.039C39.4826 27.1378 39.729 27.0429 39.8652 26.8769C40.0022 26.7175 40.0576 26.4965 40.1068 26.2826C40.3918 24.9622 40.463 23.5926 40.3176 22.2472C40.2833 21.9586 40.2412 21.6647 40.3347 21.3849C40.4292 21.1117 40.7015 20.8727 40.9888 20.925C41.3582 20.9922 41.4768 21.4486 41.5941 21.8048C41.7118 22.1611 42.0812 22.5551 42.3984 22.35C42.4897 22.2902 42.5429 22.1962 42.596 22.1018C42.9527 21.4244 43.1143 20.6417 43.0379 19.8725C42.9364 18.741 42.3536 17.5511 42.8398 16.5219C42.8811 16.4363 42.9351 16.3484 43.0142 16.297C43.1618 16.2092 43.3546 16.2553 43.4947 16.3484C44.133 16.7573 44.1049 17.6811 44.3658 18.3901C44.4189 18.5289 44.5283 18.687 44.6693 18.6466C44.7589 18.6207 44.8121 18.5262 44.8468 18.4415C45.5601 16.807 45.6945 14.9481 46.5432 13.3742C46.9802 12.559 47.5912 11.8452 48.1447 11.0998C48.8932 10.0868 49.5297 8.98957 50.0449 7.83609C50.2913 7.27428 50.5162 6.70237 50.706 6.11553C50.7152 6.08742 50.7236 6.05316 50.7389 6.01758C50.7789 7.27824 50.7991 8.5881 50.7025 9.87468C50.5492 12.3024 49.9904 14.6481 48.4262 16.4371L48.4197 16.438C48.3806 16.4903 48.3401 16.536 48.2936 16.5825C48.3981 16.521 48.4961 16.4604 48.6015 16.4055C49.386 15.9737 50.1824 15.7132 51.1189 16.0664C51.3429 16.1556 51.5353 16.2882 51.6732 16.4617Z" fill="#007537"/>
<path opacity="0.5" d="M50.7346 6L50.7373 6.01976C50.739 6.03294 50.7399 6.03952 50.7355 6.05358C50.5014 6.3268 50.1315 6.5864 49.9066 6.73839C48.7264 7.52641 47.6326 8.45586 46.661 9.49382C46.4238 9.74771 46.1945 10.0069 45.9731 10.2783C45.7517 10.5498 45.5457 10.8327 45.3467 11.1208C45.1491 11.4156 44.9716 11.7143 44.8091 12.0239C44.6457 12.327 44.5038 12.6406 44.3834 12.9644C44.2697 13.2872 44.1695 13.6145 44.1041 13.9505C44.0781 14.0941 44.0527 14.2444 44.0342 14.3937C44.0153 14.5431 43.9855 14.7073 44.0061 14.851C44.0268 14.9946 44.0136 15.1365 43.9657 15.27C43.9697 15.2028 43.9732 15.1356 43.9574 15.071C43.9358 14.9208 43.9016 14.7724 43.8669 14.6243C43.8493 14.547 43.8326 14.4758 43.808 14.3994C43.7689 14.265 43.7158 14.1258 43.6701 13.9927C43.6591 13.961 43.6552 13.9347 43.6503 13.9022C43.6587 13.914 43.6679 13.9329 43.6762 13.9452C43.4522 13.5908 44.1405 12.1996 44.3052 11.8627C44.6347 11.1828 45.0678 10.5744 45.598 10.0389C46.3728 9.25531 47.1292 8.4875 47.9981 7.80402C48.2256 7.6248 49.8934 6.65405 50.5093 6.20601C50.6494 6.10542 50.7381 6.02636 50.7346 6Z" fill="#007537"/>
<path opacity="0.5" d="M40.7071 13.3085C40.3777 14.2217 40.3465 15.2193 40.4453 16.1918C40.5345 17.0057 40.7089 17.8069 40.9729 18.5822C40.7572 18.4728 40.6224 18.2725 40.5112 18.0551C40.5205 18.0735 40.542 18.0841 40.5569 18.095C39.9907 16.6029 40.0017 14.9021 40.5758 13.4139C40.6944 13.124 40.8336 12.8372 41.0787 12.6426C40.9048 12.8271 40.7994 13.0687 40.7071 13.3085Z" fill="#007537"/>
<path opacity="0.5" d="M37.959 18.1989C37.8764 19.4433 37.9994 20.1193 38.2392 21.2381C38.4703 22.298 39.1753 24.2966 39.2425 24.4873C39.2227 24.4433 39.0971 24.2615 38.9345 24.0115C38.9337 24.005 38.9337 24.005 38.9328 23.9984C38.6697 23.2297 38.4197 22.4588 38.1632 21.6892C37.919 20.9578 37.6726 20.2129 37.6159 19.4415C37.5667 18.722 37.6945 17.5176 38.3574 17.07C38.3881 17.0524 38.4189 17.0344 38.4505 17.0234C38.2128 17.2699 38.0011 17.6533 37.959 18.1989Z" fill="#007537"/>
<path opacity="0.5" d="M37.2662 23.2969C37.0628 23.506 36.8695 23.8798 36.7852 24.5518C36.5814 26.1604 37.1726 27.4087 37.3246 29.2202C37.4335 30.5441 37.3764 31.6853 36.946 32.5933C37.1656 31.6089 37.1713 30.5753 37.0747 29.5694C36.9367 28.0896 36.6029 26.6378 36.4522 25.1598C36.3907 24.5887 36.3916 23.9421 36.8014 23.5437C36.9301 23.4181 37.0918 23.3351 37.2662 23.2969Z" fill="#007537"/>
<path d="M59.9998 16.5156L59.9923 16.5336C59.9875 16.5455 59.9848 16.5516 59.9739 16.5613C59.3866 17.6471 58.7492 18.7686 58.0271 19.8057C56.6786 21.7994 55.0257 23.5204 52.7942 24.2623L52.7881 24.2597C52.7284 24.2847 52.6713 24.3036 52.608 24.3199C52.7279 24.3199 52.8421 24.3172 52.9594 24.3234C53.8454 24.3484 54.6549 24.5259 55.2769 25.2968C55.4254 25.4848 55.5229 25.6943 55.5536 25.9117C55.6753 26.5262 55.3757 27.1864 54.7981 27.5282C54.3716 27.7764 53.8678 27.8519 53.3763 27.8967C52.5729 27.9622 51.762 27.9604 50.9652 27.873C50.9687 27.8818 50.9749 27.884 50.981 27.8866L50.9872 27.8892C51.2099 28.2064 51.5323 28.4519 51.816 28.7238C52.2153 29.0924 52.633 29.5185 52.6559 30.064C52.6607 30.0873 52.6568 30.1136 52.6528 30.1404C52.6449 30.624 52.2904 31.0572 51.8591 31.2825C51.4049 31.5122 50.8782 31.557 50.3665 31.5654C49.5262 31.5663 48.7245 31.3356 47.8996 31.3001C47.2948 31.2777 46.2652 31.4472 45.7315 31.08C45.858 31.1674 45.9783 31.2517 46.1022 31.3453C46.1105 31.3418 46.1105 31.3418 46.1145 31.3501C46.5217 31.6304 46.9298 31.9251 47.3348 32.2115C47.861 32.5972 48.1715 33.4731 47.6457 33.8425C47.5957 33.8785 47.5337 33.9092 47.4762 33.9281C47.1652 34.0331 46.7874 33.9207 46.4663 33.8095C44.8723 33.2394 43.273 32.6319 41.5915 32.4984C40.066 32.3798 38.547 32.6591 37.101 33.1379C36.4553 33.3527 35.781 33.499 35.1353 33.7138C34.6355 33.8824 34.3341 34.0832 33.7679 33.9496C33.7556 33.9448 33.7473 33.9483 33.7354 33.9431L33.7293 33.9404C33.6603 33.9193 33.6058 33.8969 33.5553 33.8477C33.5303 33.8231 33.5136 33.795 33.5053 33.7638C33.4416 33.5754 33.6643 33.3422 33.8536 33.2082C34.2379 32.9424 34.5898 32.6354 34.9012 32.2906C34.9012 32.2906 34.9074 32.2928 34.9034 32.2844C35.5842 31.5548 36.1078 30.6759 36.5295 29.7693C37.1541 28.4379 37.5978 27.0318 38.2101 25.6956C38.4442 25.1777 38.7693 24.6265 39.3184 24.4925C39.491 24.4503 39.6702 24.4604 39.8384 24.5153C40.0888 24.576 40.3141 24.7319 40.4811 24.9274C40.7543 25.2586 40.8667 25.707 40.8637 26.1432C40.8738 26.0839 40.8865 26.0185 40.9032 25.9618C40.9054 25.9557 40.9054 25.9556 40.908 25.9499C41.0692 25.1619 41.2427 24.3792 41.4101 23.5942C41.5687 22.8475 41.7321 22.0889 42.0707 21.4023C42.3892 20.7641 43.103 19.8008 43.8923 19.7512C43.9274 19.7516 43.9626 19.7516 43.9951 19.7582C43.9951 19.7582 43.9977 19.7521 44.0034 19.7547C44.386 19.785 44.7045 20.1272 44.8573 20.4935C45.026 20.8735 45.0765 21.2824 45.2307 21.6633L45.2342 21.672C45.2329 21.6927 45.2461 21.712 45.2531 21.7291C45.5184 20.1724 46.3807 18.7268 47.6168 17.7455C47.8632 17.5575 48.1254 17.3827 48.4329 17.3397C48.4417 17.3362 48.4417 17.3362 48.4474 17.3388C48.9815 17.276 49.4818 17.6722 49.7199 18.158C49.9483 18.6328 49.9795 19.1753 49.9953 19.7037C49.9962 19.7182 49.9949 19.7389 49.9962 19.7534C49.983 19.3387 51.2674 18.4971 51.5771 18.2924C52.1995 17.8778 52.8738 17.576 53.5946 17.3849C54.6483 17.1051 55.6788 16.8297 56.7629 16.6821C57.0471 16.6434 58.9561 16.6518 59.7064 16.5784C59.8746 16.5631 59.9897 16.5398 59.9998 16.5156Z" fill="#009245"/>
<path opacity="0.5" d="M54.7948 27.5286C54.3683 27.7767 53.8645 27.8519 53.3729 27.8971C52.57 27.9625 51.7587 27.9608 50.9619 27.8734C50.9654 27.8822 50.9715 27.8844 50.9777 27.887C50.01 27.5106 48.9879 27.2672 47.9561 27.1679C49.3147 26.6957 50.766 26.5297 52.2001 26.5613C52.8573 26.5771 53.5201 26.6303 54.168 26.5297C54.5471 26.4664 54.9275 26.3474 55.2578 26.1445C55.3588 26.0874 55.4541 25.9925 55.5508 25.9121C55.6724 26.5271 55.3729 27.1873 54.7948 27.5286Z" fill="#009245"/>
<path opacity="0.5" d="M51.8547 31.2821C51.4005 31.5118 50.8739 31.5566 50.3621 31.5654C49.5218 31.5659 48.7202 31.3357 47.8948 31.3001C47.29 31.2777 46.2604 31.4473 45.7267 31.0801C45.8532 31.1675 45.9735 31.2523 46.0974 31.3454C45.0994 30.9566 44.0966 30.5802 43.0371 30.462C44.5613 29.9305 46.1677 29.4047 47.7609 29.6498C48.4957 29.7684 49.195 30.0412 49.9158 30.2459C50.6389 30.444 51.404 30.5749 52.1248 30.3843C52.2768 30.3408 52.4644 30.2275 52.6484 30.1405C52.6405 30.6237 52.2861 31.0568 51.8547 31.2821Z" fill="#009245"/>
<path opacity="0.5" d="M47.4712 33.9283C47.1598 34.0333 46.7829 33.9208 46.4614 33.8097C44.8678 33.2395 43.268 32.632 41.5865 32.4985C40.061 32.3799 38.5421 32.6593 37.096 33.1381C36.4503 33.3529 35.7761 33.4991 35.1304 33.7139C34.6305 33.8826 34.3292 34.0833 33.763 33.9498C33.7507 33.945 33.7423 33.9485 33.7305 33.9436C33.7981 33.8655 33.8895 33.7974 33.976 33.7411C34.5422 33.3599 35.1115 32.9865 35.6812 32.6136C36.0774 32.3527 36.4802 32.0948 36.9063 31.8818C38.8895 30.8684 41.363 30.861 43.3488 31.8677C44.143 32.2714 44.8533 32.8104 45.6299 33.2567C46.1978 33.5747 46.8185 33.851 47.4712 33.9283Z" fill="#009245"/>
<path opacity="0.5" d="M58.0265 19.8047C56.678 21.7985 55.0251 23.5195 52.7937 24.2614L52.7875 24.2587C52.4664 24.2328 52.1581 24.1414 51.837 24.1155C51.1561 24.0545 50.485 24.2798 49.8428 24.5029C50.7116 23.3846 51.9877 22.6669 53.2865 22.0994C54.5828 21.538 55.9436 21.0948 57.1638 20.3753C57.4612 20.2009 57.7515 20.0098 58.0265 19.8047Z" fill="#009245"/>
<path opacity="0.3" d="M55.5533 25.9104C55.675 26.5249 55.3754 27.1851 54.7978 27.5269C54.3712 27.775 53.8674 27.8506 53.3759 27.8954C52.5725 27.9608 51.7616 27.9591 50.9648 27.8717C50.9683 27.8805 50.9745 27.8827 50.9806 27.8853L50.9868 27.8879C51.2095 28.2051 51.5319 28.4506 51.8157 28.7225C52.2149 29.0911 52.6327 29.5171 52.6555 30.0627C52.6603 30.086 52.6564 30.1123 52.6524 30.1391C52.6445 30.6227 52.2901 31.0558 51.8587 31.2812C51.4045 31.5109 50.8779 31.5557 50.3661 31.5641C49.5258 31.5649 48.7242 31.3343 47.8993 31.2987C47.2944 31.2763 46.2648 31.4459 45.7311 31.0787C45.8576 31.1661 45.978 31.2504 46.1018 31.344C46.1102 31.3405 46.1102 31.3405 46.1141 31.3488C46.5213 31.6291 46.9294 31.9238 47.3344 32.2102C47.8606 32.5959 48.1712 33.4717 47.6454 33.8412C47.5953 33.8772 47.5334 33.9079 47.4758 33.9268C47.1648 34.0318 46.7871 33.9193 46.466 33.8082C44.8719 33.238 43.2726 32.6306 41.5911 32.497C40.0656 32.3784 38.5467 32.6578 37.1006 33.1366C36.4549 33.3514 35.7807 33.4977 35.135 33.7125C34.6351 33.8811 34.3338 34.0819 33.7676 33.9483C33.7553 33.9435 33.7469 33.947 33.7351 33.9417L33.7289 33.9391C33.6599 33.918 33.6055 33.8956 33.555 33.8464C33.5299 33.8218 33.5132 33.7937 33.5049 33.7625C34.09 33.2829 34.7199 32.8498 35.3014 32.3622C36.5173 31.344 37.5052 30.0561 38.1777 28.6246C38.3547 28.2455 38.5489 27.8242 38.9455 27.6837C39.7761 27.3968 39.488 28.4076 39.6839 28.7212C39.7998 28.903 40.0577 28.9452 40.2571 28.8719C40.4543 28.8047 40.612 28.6434 40.7614 28.4862C41.6662 27.5027 42.4139 26.3703 42.9651 25.1496C43.0802 24.8865 43.1918 24.6146 43.4118 24.4227C43.6293 24.2369 43.9815 24.1696 44.2003 24.3585C44.4819 24.601 44.354 25.0499 44.2754 25.4127C44.1968 25.7756 44.3145 26.297 44.6879 26.2811C44.7959 26.2759 44.8886 26.2223 44.9809 26.1687C45.6248 25.7698 46.155 25.183 46.4756 24.489C46.9566 23.4725 47.0559 22.1653 47.9871 21.5315C48.0653 21.4788 48.1554 21.4313 48.2489 21.4274C48.4185 21.4265 48.5603 21.5622 48.6328 21.712C48.9719 22.381 48.4848 23.1545 48.3517 23.8907C48.3271 24.0361 48.3412 24.2254 48.4817 24.2614C48.5713 24.2843 48.664 24.2307 48.736 24.1753C50.1641 23.1387 51.2112 21.6206 52.724 20.7039C53.5059 20.2273 54.3853 19.9251 55.2309 19.5671C56.3773 19.0782 57.4706 18.4615 58.4888 17.7363C58.9808 17.381 59.4596 17.0058 59.9155 16.6004C59.9375 16.5811 59.9621 16.556 59.9924 16.5332C59.3941 17.6283 58.7546 18.7558 58.0272 19.8052C56.6786 21.799 55.0257 23.52 52.7943 24.2619L52.7882 24.2592C52.7284 24.2843 52.6713 24.3032 52.6081 24.3194C52.728 24.3194 52.8422 24.3168 52.9595 24.3229C53.8455 24.348 54.655 24.5254 55.277 25.2963C55.4255 25.4839 55.523 25.6934 55.5533 25.9104Z" fill="#009245"/>
<path opacity="0.5" d="M59.9994 16.5156L59.9919 16.5336C59.9871 16.5455 59.9844 16.5516 59.9734 16.5613C59.6365 16.6768 59.1911 16.7129 58.9232 16.7295C57.5211 16.8099 56.122 17.0541 54.7727 17.4526C54.4432 17.5501 54.1173 17.6564 53.7922 17.7767C53.4676 17.8975 53.1496 18.035 52.8355 18.1813C52.5188 18.3333 52.218 18.4993 51.9241 18.682C51.6329 18.8586 51.3544 19.055 51.0895 19.2706C50.8303 19.4889 50.5808 19.7182 50.3568 19.9717C50.2624 20.0811 50.1657 20.1966 50.0748 20.3147C49.9839 20.4325 49.8763 20.5576 49.8218 20.6907C49.7673 20.8234 49.6848 20.938 49.5771 21.0277C49.614 20.9723 49.6509 20.917 49.6698 20.8541C49.7269 20.7153 49.7717 20.5713 49.817 20.4276C49.8407 20.3525 49.8622 20.2836 49.8798 20.2062C49.9136 20.0718 49.9382 19.9264 49.9663 19.7898C49.9729 19.7573 49.9826 19.7332 49.9949 19.7029C49.9958 19.7174 49.9944 19.738 49.9958 19.7525C49.9826 19.3378 51.267 18.4962 51.5766 18.2915C52.1991 17.8769 52.8733 17.5751 53.5941 17.384C54.6479 17.1042 55.6784 16.8288 56.7625 16.6812C57.0467 16.6426 58.9557 16.6509 59.7059 16.5776C59.8742 16.5631 59.9893 16.5398 59.9994 16.5156Z" fill="#009245"/>
<path opacity="0.5" d="M47.7805 17.7216C47.0413 18.3352 46.5146 19.1707 46.1114 20.0496C45.7797 20.7884 45.5263 21.5598 45.3624 22.3535C45.2333 22.1523 45.2188 21.9134 45.2328 21.6722C45.2315 21.6929 45.2447 21.7122 45.2517 21.7293C45.517 20.1726 46.3793 18.727 47.6154 17.7457C47.8618 17.5577 48.124 17.3829 48.4315 17.3398C48.1908 17.4101 47.9795 17.5634 47.7805 17.7216Z" fill="#009245"/>
<path opacity="0.5" d="M42.9843 20.5154C42.2899 21.5358 42.0557 22.1736 41.699 23.2484C41.3643 24.2684 40.9637 26.3272 40.9251 26.5231C40.9304 26.4756 40.9141 26.2573 40.9014 25.9626C40.9036 25.9564 40.9036 25.9564 40.9062 25.9507C41.0674 25.1627 41.2409 24.38 41.4083 23.595C41.5668 22.8483 41.7302 22.0897 42.0689 21.4031C42.3874 20.7649 43.1012 19.8016 43.8905 19.752C43.9256 19.7524 43.9608 19.7524 43.9933 19.759C43.6669 19.8499 43.294 20.0709 42.9843 20.5154Z" fill="#009245"/>
<path opacity="0.5" d="M39.8374 24.5157C39.5589 24.5921 39.2066 24.8144 38.7981 25.345C37.8177 26.6149 37.696 27.9766 36.9168 29.5974C36.3457 30.7816 35.7246 31.726 34.9023 32.2848C35.5832 31.5552 36.1068 30.6762 36.5285 29.7696C37.1531 28.4382 37.5967 27.0322 38.2091 25.6959C38.4432 25.1781 38.7682 24.6268 39.3173 24.4928C39.4899 24.4507 39.6691 24.4608 39.8374 24.5157Z" fill="#009245"/>
<path d="M38.4314 8.29254C38.2456 19.1704 22.065 19.1686 21.8809 8.29221C22.0666 -2.58532 38.2472 -2.58356 38.4314 8.29254Z" fill="#ADC8DB"/>
<path d="M23.0885 10.0778C22.8228 2.62867 32.9109 -1.05701 37.5563 4.59098C31.5634 -6.19571 16.1754 4.15773 23.9631 13.7797C23.4048 12.6655 23.0885 11.4089 23.0885 10.0778Z" fill="#C8DDEC"/>
<path d="M38.4311 8.29342C38.5901 16.55 27.1487 19.6249 23.0889 12.601C30.3184 16.3215 38.1583 7.71335 33.8088 0.867188C36.5475 2.21503 38.4311 5.03388 38.4311 8.29342Z" fill="#A0BACC"/>
<path d="M46.2279 34.4246C46.7224 38.2302 44.4284 42.0101 40.3121 41.9996C40.3123 41.9997 19.9996 41.9997 19.9996 41.9997C18.4674 41.9997 17.0709 41.418 16.0206 40.4629C14.287 39.0275 13.9297 36.5777 14.0842 34.4247C14.0886 27.682 18.2244 21.8633 24.263 19.4674C34.6633 15.2769 46.3225 23.2055 46.2279 34.4246Z" fill="#ADC8DB"/>
<path d="M16.3701 41.8125C16.3786 41.8161 16.3883 41.8198 16.3981 41.821V41.8222C16.3883 41.8185 16.3798 41.8161 16.3701 41.8125Z" fill="white"/>
<path d="M16.4523 41.9L16.3749 41.8725C16.3642 41.8699 16.3551 41.866 16.3483 41.8631L16.3649 41.8224H16.3428L16.3651 41.822L16.3898 41.7617L16.4047 41.7669L16.4525 41.7728L16.4523 41.9Z" fill="black"/>
<path d="M41.548 23.0904C31.4578 15.3071 15.6386 23.2484 16.0146 36.0807C16.0143 36.0803 16.0143 40.2568 16.0143 40.2568C16.0143 40.3259 16.0167 40.396 16.0202 40.4638C15.0531 39.5835 14.3786 38.3893 14.1609 37.0402H14.0847C13.4 29.853 16.898 22.7214 23.3633 19.8548C27.9302 17.6938 33.5384 17.878 37.9484 20.3675C37.9508 20.3675 37.9531 20.3687 37.9543 20.3711C39.2739 21.1007 40.4833 22.0229 41.548 23.0904Z" fill="#C8DDEC"/>
<path d="M46.2266 34.4265C46.7213 38.2372 44.4287 42.0078 40.312 42.0003C40.3122 42.0004 19.9994 42.0004 19.9994 42.0004C17.0841 42.0023 14.6233 39.8825 14.1611 37.04H34.5537C36.4319 37.04 37.9521 35.5186 37.9521 33.6426C38.2566 28.4148 37.6202 22.6149 33.8946 18.791C35.3116 19.1283 36.6833 19.6613 37.9545 20.3707C42.9873 23.1166 46.2836 28.6868 46.2266 34.4265Z" fill="#A0BACC"/>
</svg>
