<svg width="140" height="140" viewBox="0 0 140 140" fill="none" xmlns="http://www.w3.org/2000/svg">
<g clip-path="url(#clip0_760_5136)">
<path d="M90.5934 8.80268C89.1559 8.80268 87.9907 9.96784 87.9907 11.4053C87.9907 11.7461 88.0605 12.0694 88.1792 12.3679L77.2146 15.039L71.3305 4.84707C72.1079 4.39697 72.6372 3.56589 72.6372 2.60264C72.6372 1.16515 71.472 0 70.0345 0C68.597 0 67.4319 1.16515 67.4319 2.60264C67.4319 3.56589 67.9611 4.39697 68.7386 4.84707L62.8545 15.039L51.8898 12.3679C52.0086 12.0694 52.0783 11.7461 52.0783 11.4053C52.0783 9.96784 50.9132 8.80268 49.4757 8.80268C48.0382 8.80268 46.873 9.96784 46.873 11.4053C46.873 12.8428 48.0382 14.008 49.4757 14.008C49.7024 14.008 49.9184 13.9697 50.1284 13.9154L55.6744 32.0641H70.0352H84.396L89.942 13.9154C90.152 13.9697 90.368 14.008 90.5947 14.008C92.0322 14.008 93.1974 12.8428 93.1974 11.4053C93.196 9.96784 92.0309 8.80268 90.5934 8.80268Z" fill="#E6DAEB"/>
<path d="M70.0342 4.84766V32.0654H84.395L89.941 13.9166L88.1796 12.3691L77.2149 15.0402L71.3301 4.84766H70.0342Z" fill="#AF89BE"/>
<path d="M70.0333 21.9785C60.7349 21.9785 53.1973 23.5441 53.1973 25.476V39.1405H86.8699V25.476C86.8699 23.5441 79.3317 21.9785 70.0333 21.9785Z" fill="#E6DAEB"/>
<path d="M70.0333 42.6395C79.3315 42.6395 86.8693 41.0736 86.8693 39.142C86.8693 37.2104 79.3315 35.6445 70.0333 35.6445C60.735 35.6445 53.1973 37.2104 53.1973 39.142C53.1973 41.0736 60.735 42.6395 70.0333 42.6395Z" fill="#433959"/>
<path d="M87.4385 26.943C87.1018 26.943 86.7644 26.8276 86.4893 26.5935C86.3854 26.511 82.4049 23.4456 69.9512 23.4456C57.6738 23.4456 53.4097 26.5996 53.3674 26.6311C52.7308 27.1188 51.8139 27.0081 51.3188 26.3776C50.8238 25.7464 50.9217 24.8408 51.5469 24.3384C51.7407 24.1821 56.455 20.5176 69.9512 20.5176C83.6097 20.5176 87.9537 23.9835 88.4038 24.3786C89.0115 24.9119 89.0719 25.8369 88.5386 26.4446C88.2501 26.774 87.845 26.943 87.4385 26.943Z" fill="#F7F3F9"/>
<path d="M75.1703 23.646C78.3129 23.9023 80.6788 24.3698 82.4121 24.8595C83.3518 25.1244 84.2822 24.4275 84.2822 23.4515V23.4354C84.2822 22.7733 83.8382 22.1991 83.2002 22.02C81.2758 21.4801 78.7268 20.9884 75.4051 20.7234C74.5532 20.6557 73.8193 21.3318 73.8193 22.1864C73.8193 22.9491 74.4096 23.5843 75.1703 23.646Z" fill="#F8FFE1"/>
<path d="M87.4385 39.3427C87.1018 39.3427 86.7644 39.2274 86.4893 38.9933C86.3854 38.9108 82.4049 35.8453 69.9512 35.8453C57.6738 35.8453 53.4097 38.9993 53.3674 39.0308C52.7308 39.5185 51.8139 39.4078 51.3188 38.7773C50.8238 38.1461 50.9217 37.2405 51.5469 36.7381C51.7407 36.5818 56.455 32.918 69.9512 32.918C83.6097 32.918 87.9537 36.3839 88.4038 36.779C89.0115 37.3123 89.0719 38.2373 88.5386 38.845C88.2501 39.1744 87.845 39.3427 87.4385 39.3427Z" fill="#F7F3F9"/>
<path d="M75.1703 36.0464C78.3129 36.302 80.6788 36.7702 82.4121 37.2599C83.3518 37.5248 84.2822 36.8279 84.2822 35.8519V35.8358C84.2822 35.1737 83.8382 34.5995 83.2002 34.4204C81.2758 33.8805 78.7268 33.3888 75.4051 33.1238C74.5532 33.0561 73.8193 33.7322 73.8193 34.5875C73.8193 35.3495 74.4096 35.9847 75.1703 36.0464Z" fill="#F8FFE1"/>
<path d="M67.4307 28.6504C67.4307 27.2565 68.5603 26.127 69.9542 26.127C71.348 26.127 72.4776 27.2565 72.4776 28.6504C72.4776 30.0443 71.348 31.1739 69.9542 31.1739C68.5609 31.1739 67.4307 30.0443 67.4307 28.6504Z" fill="#F7F3F9"/>
<path d="M50.6738 31.1739C50.6738 29.78 51.8034 28.6504 53.1973 28.6504C54.5912 28.6504 55.7208 29.78 55.7208 31.1739C55.7208 32.5678 54.5912 33.6974 53.1973 33.6974C51.8034 33.6974 50.6738 32.5671 50.6738 31.1739Z" fill="#F7F3F9"/>
<path d="M84.3457 31.1739C84.3457 29.78 85.4753 28.6504 86.8692 28.6504C88.2631 28.6504 89.3927 29.78 89.3927 31.1739C89.3927 32.5678 88.2631 33.6974 86.8692 33.6974C85.4753 33.6974 84.3457 32.5671 84.3457 31.1739Z" fill="#F7F3F9"/>
<path d="M109.028 111.802V66.6829L69.9537 44.123L30.8799 66.6829V111.802L69.9537 134.362L109.028 111.802Z" fill="#AF89BE"/>
<path d="M69.9544 139.999L26 114.621V63.8673L69.9544 38.4902L113.909 63.8673V114.621L69.9544 139.999ZM35.7606 108.987L69.9551 128.729L104.15 108.987V69.5026L69.9551 49.7601L35.7606 69.5026V108.987Z" fill="#AF89BE"/>
<path d="M69.9544 38.4902V49.7601L35.7606 69.5019L26 63.8673L69.9544 38.4902Z" fill="#E6DAEB"/>
<path d="M113.909 114.622L104.149 108.986L69.9541 128.728V139.998L113.909 114.622Z" fill="#E6DAEB"/>
<path d="M26 114.622L35.7606 108.986L69.9544 128.728V139.998L26 114.622Z" fill="#F7F3F9"/>
<path d="M69.9541 38.4902V49.7601L104.149 69.5019L113.909 63.8673L69.9541 38.4902Z" fill="#F7F3F9"/>
<path d="M35.7598 108.985L69.9543 128.726L104.149 108.985V69.5003L69.9543 49.7578L35.7598 69.5003V108.985Z" stroke="#F8FFE1" stroke-width="2" stroke-miterlimit="10"/>
<path d="M51.8877 12.3672L60.8447 18.8174L62.853 15.0382L51.8877 12.3672Z" fill="#AF89BE"/>
<path d="M79.9869 18.8174L77.2139 15.0382L88.1785 12.3672L79.9869 18.8174Z" fill="#E6DAEB"/>
<path d="M71.1504 73.9227L74.9452 81.6123C75.1316 81.9907 75.4935 82.2539 75.9117 82.3142L84.3978 83.5467C85.4507 83.6989 85.8702 84.993 85.1093 85.7347L78.9689 91.7203C78.6673 92.015 78.5288 92.44 78.6001 92.8554L80.0492 101.307C80.2288 102.356 79.1293 103.155 78.1874 102.66L70.5979 98.6709C70.2237 98.4749 69.7781 98.4749 69.4039 98.6709L61.8143 102.66C60.8725 103.155 59.773 102.356 59.9526 101.307L61.4017 92.8554C61.473 92.4386 61.3345 92.015 61.0329 91.7203L54.8925 85.7347C54.1316 84.9917 54.5511 83.6989 55.604 83.5467L64.0901 82.3142C64.5082 82.2539 64.8688 81.9907 65.0566 81.6123L68.8514 73.9227C69.3202 72.9685 70.6802 72.9685 71.1504 73.9227Z" fill="white"/>
<path opacity="0.7" d="M61.236 101.305L62.6851 92.8544C62.7564 92.4376 62.6179 92.014 62.3163 91.7179L56.1759 85.7323C55.4137 84.9893 55.8345 83.6965 56.8874 83.5443L65.3721 82.3118C65.7903 82.2515 66.1508 81.9883 66.3386 81.6099L70.1334 73.9203C70.254 73.6762 70.4336 73.4966 70.6406 73.3774C70.0388 73.0319 69.197 73.2115 68.8475 73.9203L65.0527 81.6099C64.8663 81.9883 64.5043 82.2515 64.0862 82.3118L55.6001 83.5443C54.5472 83.6965 54.1277 84.9906 54.8886 85.7323L61.029 91.7179C61.332 92.0126 61.4691 92.4376 61.3978 92.8544L59.9487 101.305C59.7691 102.354 60.8686 103.153 61.8104 102.658L61.8694 102.628C61.4334 102.376 61.1373 101.883 61.236 101.305Z" fill="white"/>
<path opacity="0.5" d="M61.8161 102.663L69.4056 98.6731C69.7798 98.4771 70.2254 98.4771 70.5997 98.6731L78.1892 102.663C79.131 103.158 80.2305 102.358 80.0509 101.309L78.6018 92.859C78.5305 92.4422 78.669 92.0186 78.9706 91.7225L85.111 85.7369C85.8733 84.9939 85.4524 83.7011 84.3995 83.5489L75.9134 82.3164L60.8701 102.753C61.169 102.839 61.4994 102.828 61.8161 102.663Z" fill="white"/>
<path opacity="0.7" d="M66.9429 84.2365C67.1348 84.9411 66.2437 85.798 64.955 86.1476C63.665 86.4985 62.464 86.2106 62.2721 85.506C62.0802 84.8013 62.9713 83.9445 64.26 83.5949C65.55 83.2439 66.7509 83.5318 66.9429 84.2365Z" fill="white"/>
</g>
<defs>
<clipPath id="clip0_760_5136">
<rect width="140" height="140" fill="white"/>
</clipPath>
</defs>
</svg>
