<svg width="140" height="140" viewBox="0 0 140 140" fill="none" xmlns="http://www.w3.org/2000/svg">
<g clip-path="url(#clip0_763_5221)">
<path d="M91.1501 9.00973C89.7126 9.00973 88.5475 10.1749 88.5475 11.6124C88.5475 11.9531 88.6172 12.2765 88.736 12.575L77.7713 15.246L71.8872 5.05411C72.6646 4.60401 73.1939 3.77293 73.1939 2.80968C73.1939 1.37219 72.0287 0.207031 70.5912 0.207031C69.1537 0.207031 67.9886 1.37219 67.9886 2.80968C67.9886 3.77293 68.5178 4.60401 69.2953 5.05411L63.4111 15.246L52.4465 12.575C52.5652 12.2765 52.635 11.9531 52.635 11.6124C52.635 10.1749 51.4698 9.00973 50.0323 9.00973C48.5948 9.00973 47.4297 10.1749 47.4297 11.6124C47.4297 13.0499 48.5948 14.215 50.0323 14.215C50.2591 14.215 50.4751 14.1768 50.685 14.1225L56.2311 32.2712H70.5919H84.9527L90.4988 14.1225C90.7087 14.1768 90.9247 14.215 91.1515 14.215C92.5889 14.215 93.7541 13.0499 93.7541 11.6124C93.7528 10.1749 92.5876 9.00973 91.1501 9.00973Z" fill="#FF9797"/>
<path d="M70.5908 5.05273V32.2705H84.9517L90.4977 14.1217L88.7362 12.5742L77.7716 15.2453L71.8868 5.05273H70.5908Z" fill="#FF6D59"/>
<path d="M70.5909 22.1836C61.2925 22.1836 53.7549 23.7492 53.7549 25.6811V39.3456H87.4276V25.6811C87.4276 23.7492 79.8893 22.1836 70.5909 22.1836Z" fill="#FF9797"/>
<path d="M70.5909 42.8485C79.8892 42.8485 87.4269 41.2826 87.4269 39.351C87.4269 37.4194 79.8892 35.8535 70.5909 35.8535C61.2926 35.8535 53.7549 37.4194 53.7549 39.351C53.7549 41.2826 61.2926 42.8485 70.5909 42.8485Z" fill="#433959"/>
<path d="M87.9972 27.1481C87.6604 27.1481 87.323 27.0327 87.048 26.7986C86.944 26.7161 82.9636 23.6506 70.5098 23.6506C58.2324 23.6506 53.9683 26.8047 53.926 26.8362C53.2894 27.3239 52.3725 27.2132 51.8774 26.5826C51.3824 25.9514 51.4803 25.0459 52.1055 24.5435C52.2993 24.3872 57.0136 20.7227 70.5098 20.7227C84.1683 20.7227 88.5123 24.1886 88.9624 24.5837C89.5702 25.117 89.6305 26.042 89.0973 26.6497C88.8088 26.9791 88.4037 27.1481 87.9972 27.1481Z" fill="#FFF0EE"/>
<path d="M75.7279 23.855C78.8705 24.1113 81.2364 24.5788 82.9697 25.0685C83.9095 25.3334 84.8399 24.6365 84.8399 23.6605V23.6444C84.8399 22.9823 84.3958 22.4081 83.7579 22.229C81.8334 21.6891 79.2844 21.1974 75.9627 20.9324C75.1108 20.8647 74.377 21.5408 74.377 22.3954C74.377 23.1581 74.9672 23.7933 75.7279 23.855Z" fill="#F8FFE1"/>
<path d="M87.9972 39.5517C87.6604 39.5517 87.323 39.4364 87.048 39.2023C86.944 39.1198 82.9636 36.0543 70.5098 36.0543C58.2324 36.0543 53.9683 39.2083 53.926 39.2398C53.2894 39.7275 52.3725 39.6168 51.8774 38.9863C51.3824 38.3551 51.4803 37.4495 52.1055 36.9471C52.2993 36.7908 57.0136 33.127 70.5098 33.127C84.1683 33.127 88.5123 36.5929 88.9624 36.988C89.5702 37.5213 89.6305 38.4463 89.0973 39.054C88.8088 39.3834 88.4037 39.5517 87.9972 39.5517Z" fill="#FFF0EE"/>
<path d="M75.7279 36.2554C78.8705 36.511 81.2364 36.9792 82.9697 37.4689C83.9095 37.7338 84.8399 37.0369 84.8399 36.0609V36.0448C84.8399 35.3827 84.3958 34.8085 83.7579 34.6294C81.8334 34.0894 79.2844 33.5978 75.9627 33.3328C75.1108 33.2651 74.377 33.9412 74.377 34.7965C74.377 35.5585 74.9672 36.1937 75.7279 36.2554Z" fill="#F8FFE1"/>
<path d="M67.9883 28.8536C67.9883 27.4597 69.1179 26.3301 70.5118 26.3301C71.9057 26.3301 73.0353 27.4597 73.0353 28.8536C73.0353 30.2475 71.9057 31.3771 70.5118 31.3771C69.1186 31.3771 67.9883 30.2475 67.9883 28.8536Z" fill="#FFF0EE"/>
<path d="M51.2314 31.379C51.2314 29.9851 52.361 28.8555 53.7549 28.8555C55.1488 28.8555 56.2784 29.9851 56.2784 31.379C56.2784 32.7729 55.1488 33.9025 53.7549 33.9025C52.361 33.9025 51.2314 32.7722 51.2314 31.379Z" fill="#FFF0EE"/>
<path d="M84.9033 31.379C84.9033 29.9851 86.0329 28.8555 87.4268 28.8555C88.8207 28.8555 89.9503 29.9851 89.9503 31.379C89.9503 32.7729 88.8207 33.9025 87.4268 33.9025C86.0329 33.9025 84.9033 32.7722 84.9033 31.379Z" fill="#FFF0EE"/>
<path d="M52.4453 12.5742L61.4023 19.0245L63.4106 15.2453L52.4453 12.5742Z" fill="#FF6D59"/>
<path d="M80.5445 19.0245L77.7715 15.2453L88.7361 12.5742L80.5445 19.0245Z" fill="#FF9797"/>
<path d="M26.9713 80.9673H16.2387C9.7556 80.9673 4.5 75.7117 4.5 69.2285H26.9713V80.9673Z" fill="#E66250"/>
<path d="M26.9717 92.7075H18.9223C12.4392 92.7075 7.18359 87.4519 7.18359 80.9688H26.9717V92.7075Z" fill="#FF6D59"/>
<path d="M26.9715 104.446H22.9467C16.4636 104.446 11.208 99.1902 11.208 92.707H26.9715V104.446Z" fill="#BF5243"/>
<path d="M25.6292 104.445H26.9708V69.2285H21.6045L25.6292 104.445Z" fill="#433959"/>
<path d="M112.194 80.9673H122.927C129.41 80.9673 134.666 75.7117 134.666 69.2285H112.194V80.9673Z" fill="#E66250"/>
<path d="M112.194 92.7075H120.244C126.727 92.7075 131.982 87.4519 131.982 80.9688H112.194V92.7075Z" fill="#FF6D59"/>
<path d="M112.194 104.446H116.219C122.702 104.446 127.958 99.1902 127.958 92.707H112.194V104.446Z" fill="#BF5243"/>
<path d="M113.536 104.445H112.194V69.2285H117.561L113.536 104.445Z" fill="#433959"/>
<path d="M108.659 112.011V66.8919L69.5843 44.332L30.5098 66.8919V112.011L69.5843 134.571L108.659 112.011Z" fill="#E66250"/>
<path d="M69.5844 140.208L25.6299 114.831V64.0764L69.5844 38.6992L113.539 64.0764V114.831L69.5844 140.208ZM35.3898 109.196L69.5844 128.938L103.779 109.196V69.7123L69.5844 49.9697L35.3898 69.7123V109.196Z" fill="#FF6D59"/>
<path d="M69.5844 38.6992V49.9697L35.3898 69.7116L25.6299 64.077L69.5844 38.6992Z" fill="#E66250"/>
<path d="M113.539 114.828L103.78 109.193L69.585 128.935V140.205L113.539 114.828Z" fill="#E66250"/>
<path d="M25.6299 114.828L35.3898 109.193L69.5844 128.935V140.205L25.6299 114.828Z" fill="#BF5243"/>
<path d="M69.585 38.6992V49.9697L103.78 69.7116L113.539 64.077L69.585 38.6992Z" fill="#BF5243"/>
<path d="M35.3896 109.191L69.5843 128.933L103.779 109.191V69.7074L69.5843 49.9648L35.3896 69.7074V109.191Z" stroke="#F8FFE1" stroke-width="2" stroke-miterlimit="10"/>
<path d="M34.3655 30.9766L39.5352 34.1856L45.5998 34.6739L44.1455 40.5822L45.5555 46.5012L39.4869 46.9433L34.293 50.1134L31.9976 44.4788L27.3779 40.5185L32.0271 36.5937L34.3655 30.9766Z" fill="#FF6D59"/>
<path d="M104.803 30.9766L99.6336 34.1856L93.5684 34.6739L95.0233 40.5822L93.6133 46.5012L99.6819 46.9433L104.875 50.1134L107.171 44.4788L111.791 40.5185L107.141 36.5937L104.803 30.9766Z" fill="#FF6D59"/>
<path d="M70.5715 72.6402L73.9665 79.5197C74.1333 79.8582 74.4571 80.0937 74.8312 80.1477L82.4232 81.2503C83.3652 81.3864 83.7405 82.5443 83.0598 83.2078L77.5663 88.5627C77.2964 88.8264 77.1725 89.2066 77.2363 89.5783L78.5328 97.1397C78.6934 98.078 77.7098 98.793 76.8672 98.3502L70.0772 94.7811C69.7424 94.6057 69.3438 94.6057 69.0089 94.7811L62.219 98.3502C61.3764 98.793 60.3927 98.078 60.5534 97.1397L61.8498 89.5783C61.9136 89.2054 61.7897 88.8264 61.5199 88.5627L56.0264 83.2078C55.3456 82.543 55.721 81.3864 56.6629 81.2503L64.255 80.1477C64.6291 80.0937 64.9516 79.8582 65.1197 79.5197L68.5146 72.6402C68.9341 71.7866 70.1508 71.7866 70.5715 72.6402Z" fill="#FFF9E6"/>
<path opacity="0.7" d="M61.7012 97.1414L62.9976 89.5813C63.0614 89.2084 62.9375 88.8294 62.6677 88.5645L57.1741 83.2096C56.4922 82.5448 56.8687 81.3882 57.8107 81.2521L65.4015 80.1494C65.7756 80.0955 66.0982 79.86 66.2662 79.5215L69.6612 72.642C69.7691 72.4237 69.9298 72.263 70.115 72.1563C69.5766 71.8472 68.8235 72.0079 68.5107 72.642L65.1158 79.5215C64.949 79.86 64.6252 80.0955 64.2511 80.1494L56.659 81.2521C55.7171 81.3882 55.3417 82.546 56.0224 83.2096L61.516 88.5645C61.787 88.8282 61.9097 89.2084 61.8459 89.5813L60.5495 97.1414C60.3888 98.0797 61.3725 98.7948 62.2151 98.352L62.2678 98.325C61.8778 98.0993 61.6129 97.659 61.7012 97.1414Z" fill="#FFF9E6"/>
<path opacity="0.5" d="M62.2193 98.3549L69.0093 94.7858C69.3441 94.6104 69.7427 94.6104 70.0776 94.7858L76.8675 98.3549C77.7101 98.7977 78.6938 98.0826 78.5331 97.1444L77.2367 89.5842C77.1729 89.2113 77.2968 88.8323 77.5666 88.5674L83.0601 83.2125C83.7421 82.5477 83.3655 81.3911 82.4236 81.255L74.8315 80.1523L61.373 98.4359C61.6404 98.5132 61.936 98.5033 62.2193 98.3549Z" fill="#FFF9E6"/>
<path opacity="0.7" d="M66.8074 81.8699C66.9792 82.5003 66.1819 83.2669 65.029 83.5797C63.8749 83.8937 62.8004 83.6361 62.6287 83.0057C62.457 82.3752 63.2543 81.6087 64.4072 81.2959C65.5613 80.9819 66.6357 81.2395 66.8074 81.8699Z" fill="#FFF9E6"/>
<path d="M90.1796 84.4372L92.2285 88.5891C92.3292 88.7934 92.5246 88.9355 92.7504 88.9681L97.3324 89.6336C97.9009 89.7157 98.1274 90.4145 97.7165 90.815L94.4011 94.0468C94.2382 94.2059 94.1635 94.4354 94.202 94.6597L94.9844 99.2232C95.0813 99.7895 94.4877 100.221 93.9791 99.9538L89.8813 97.7997C89.6792 97.6939 89.4386 97.6939 89.2365 97.7997L85.1386 99.9538C84.6301 100.221 84.0364 99.7895 84.1334 99.2232L84.9158 94.6597C84.9543 94.4347 84.8795 94.2059 84.7167 94.0468L81.4012 90.815C80.9904 90.4138 81.2169 89.7157 81.7854 89.6336L86.3674 88.9681C86.5932 88.9355 86.7878 88.7934 86.8893 88.5891L88.9382 84.4372C89.1914 83.922 89.9257 83.922 90.1796 84.4372Z" fill="#FFF9E6"/>
<path opacity="0.7" d="M84.8265 99.2239L85.6089 94.6611C85.6474 94.4361 85.5727 94.2073 85.4098 94.0475L82.0943 90.8156C81.6828 90.4144 81.91 89.7164 82.4785 89.6342L87.0598 88.9688C87.2855 88.9362 87.4802 88.7941 87.5816 88.5898L89.6306 84.4378C89.6957 84.3061 89.7927 84.2091 89.9045 84.1447C89.5795 83.9582 89.125 84.0551 88.9363 84.4378L86.8873 88.5898C86.7866 88.7941 86.5912 88.9362 86.3654 88.9688L81.7834 89.6342C81.2149 89.7164 80.9884 90.4152 81.3993 90.8156L84.7147 94.0475C84.8783 94.2066 84.9524 94.4361 84.9139 94.6611L84.1314 99.2239C84.0345 99.7901 84.6281 100.222 85.1367 99.9545L85.1685 99.9382C84.9331 99.802 84.7732 99.5362 84.8265 99.2239Z" fill="#FFF9E6"/>
<path opacity="0.5" d="M85.1387 99.9564L89.2366 97.8023C89.4387 97.6965 89.6792 97.6965 89.8813 97.8023L93.9792 99.9564C94.4878 100.224 95.0814 99.7921 94.9844 99.2258L94.202 94.663C94.1635 94.438 94.2383 94.2093 94.4011 94.0494L97.7166 90.8176C98.1282 90.4164 97.9009 89.7183 97.3324 89.6362L92.7504 88.9707L84.6279 100.005C84.7893 100.052 84.9677 100.046 85.1387 99.9564Z" fill="#FFF9E6"/>
<path opacity="0.7" d="M87.9071 90.0053C88.0107 90.3858 87.5296 90.8484 86.8338 91.0372C86.1372 91.2267 85.4888 91.0712 85.3851 90.6908C85.2815 90.3103 85.7626 89.8476 86.4585 89.6589C87.155 89.4694 87.8035 89.6248 87.9071 90.0053Z" fill="#FFF9E6"/>
<path d="M50.4911 84.4372L52.54 88.5891C52.6407 88.7934 52.8361 88.9355 53.0619 88.9681L57.6439 89.6336C58.2124 89.7157 58.4389 90.4145 58.0281 90.815L54.7126 94.0468C54.5498 94.2059 54.475 94.4354 54.5135 94.6597L55.2959 99.2232C55.3929 99.7895 54.7992 100.221 54.2907 99.9538L50.1928 97.7997C49.9907 97.6939 49.7501 97.6939 49.548 97.7997L45.4501 99.9538C44.9416 100.221 44.3479 99.7895 44.4449 99.2232L45.2273 94.6597C45.2658 94.4347 45.1911 94.2059 45.0282 94.0468L41.7127 90.815C41.3019 90.4138 41.5284 89.7157 42.0969 89.6336L46.6789 88.9681C46.9047 88.9355 47.0994 88.7934 47.2008 88.5891L49.2497 84.4372C49.5029 83.922 50.2372 83.922 50.4911 84.4372Z" fill="#FFF9E6"/>
<path opacity="0.7" d="M45.1371 99.2239L45.9195 94.6611C45.958 94.4361 45.8832 94.2073 45.7204 94.0475L42.4049 90.8156C41.9933 90.4144 42.2206 89.7164 42.7891 89.6342L47.3703 88.9688C47.5961 88.9362 47.7908 88.7941 47.8922 88.5898L49.9411 84.4378C50.0063 84.3061 50.1032 84.2091 50.215 84.1447C49.8901 83.9582 49.4356 84.0551 49.2468 84.4378L47.1979 88.5898C47.0972 88.7941 46.9018 88.9362 46.676 88.9688L42.094 89.6342C41.5255 89.7164 41.299 90.4152 41.7098 90.8156L45.0253 94.0475C45.1889 94.2066 45.2629 94.4361 45.2244 94.6611L44.442 99.2239C44.345 99.7901 44.9387 100.222 45.4472 99.9545L45.479 99.9382C45.2437 99.802 45.0838 99.5362 45.1371 99.2239Z" fill="#FFF9E6"/>
<path opacity="0.5" d="M45.4502 99.9564L49.5481 97.8023C49.7502 97.6965 49.9908 97.6965 50.1928 97.8023L54.2907 99.9564C54.7993 100.224 55.3929 99.7921 55.296 99.2258L54.5135 94.663C54.4751 94.438 54.5498 94.2093 54.7127 94.0494L58.0281 90.8176C58.4397 90.4164 58.2125 89.7183 57.644 89.6362L53.062 88.9707L44.9395 100.005C45.1008 100.052 45.2792 100.046 45.4502 99.9564Z" fill="#FFF9E6"/>
<path opacity="0.7" d="M48.2186 90.0053C48.3222 90.3858 47.8411 90.8484 47.1453 91.0372C46.4487 91.2267 45.8003 91.0712 45.6967 90.6908C45.593 90.3103 46.0742 89.8476 46.77 89.6589C47.4665 89.4694 48.115 89.6248 48.2186 90.0053Z" fill="#FFF9E6"/>
</g>
<defs>
<clipPath id="clip0_763_5221">
<rect width="140" height="140" fill="white"/>
</clipPath>
</defs>
</svg>
