<svg width="95" height="109" viewBox="0 0 95 109" fill="none" xmlns="http://www.w3.org/2000/svg">
<path d="M88.9837 78.5731V30.2173L47.1065 6.03906L5.22852 30.2173V78.5731L47.1065 102.751L88.9837 78.5731Z" fill="#3FC07B"/>
<path d="M48.108 108.213C47.4892 108.571 46.7268 108.571 46.108 108.213L1 82.1703C0.381199 81.813 0 81.1528 0 80.4382V28.3524C0 27.6378 0.3812 26.9776 1.00001 26.6203L46.108 0.577344C46.7268 0.220082 47.4892 0.220082 48.108 0.577343L93.2161 26.6203C93.8349 26.9776 94.2161 27.6378 94.2161 28.3524V80.4382C94.2161 81.1528 93.8349 81.813 93.2161 82.1703L48.108 108.213ZM10.4601 74.3994C10.4601 75.114 10.8414 75.7742 11.4602 76.1315L46.1081 96.1349C46.7268 96.4922 47.4892 96.4922 48.108 96.1349L82.7559 76.1315C83.3747 75.7742 83.7559 75.114 83.7559 74.3994V34.3919C83.7559 33.6773 83.3747 33.0171 82.7559 32.6598L48.108 12.6557C47.4892 12.2984 46.7268 12.2984 46.108 12.6557L11.4601 32.6598C10.8413 33.0171 10.4601 33.6773 10.4601 34.3919V74.3994Z" fill="#3FC07B"/>
<path d="M47.108 0V12.0783L10.4601 33.2365L0 27.1976L47.108 0Z" fill="#25B868"/>
<path d="M91.2153 83.3257C92.5486 82.5558 92.5486 80.6312 91.2152 79.8615L84.7546 76.1319C84.1358 75.7747 83.3734 75.7748 82.7547 76.132L48.1074 96.1355C47.4886 96.4927 47.1074 97.153 47.1074 97.8675V105.327C47.1074 106.867 48.7741 107.829 50.1074 107.059L91.2153 83.3257Z" fill="#25B868"/>
<path d="M0 81.5935L10.4601 75.5547L47.108 96.7128V108.791L0 81.5935Z" fill="#BBE9D0"/>
<path d="M47.1074 0V12.0783L83.7546 33.2365L94.2155 27.1976L47.1074 0Z" fill="#BBE9D0"/>
<path d="M10.459 75.5539L47.1069 96.712L83.7548 75.5539V33.237L47.1069 12.0781L10.459 33.237V75.5539Z" stroke="#F8FFE1" stroke-width="2" stroke-miterlimit="10"/>
<path d="M49.1305 36.9312L53.9853 46.7687C54.2238 47.2528 54.6868 47.5895 55.2218 47.6667L66.0784 49.2434C67.4254 49.4381 67.962 51.0938 66.9886 52.0427L59.133 59.7002C58.7471 60.0772 58.5699 60.621 58.6611 61.1524L60.515 71.9651C60.7448 73.3068 59.3382 74.3293 58.1332 73.6962L48.4237 68.5924C47.9449 68.3416 47.3749 68.3416 46.8961 68.5924L37.1865 73.6962C35.9816 74.3293 34.575 73.3068 34.8047 71.9651L36.6586 61.1524C36.7498 60.6192 36.5726 60.0772 36.1868 59.7002L28.3311 52.0427C27.3577 51.0921 27.8944 49.4381 29.2414 49.2434L40.098 47.6667C40.6329 47.5895 41.0942 47.2528 41.3345 46.7687L46.1892 36.9312C46.7891 35.7104 48.5289 35.7104 49.1305 36.9312Z" fill="white"/>
<path opacity="0.7" d="M36.4467 71.9659L38.3006 61.155C38.3918 60.6218 38.2147 60.0798 37.8288 59.701L29.9731 52.0435C28.998 51.0929 29.5364 49.439 30.8834 49.2443L41.7382 47.6675C42.2732 47.5904 42.7345 47.2536 42.9747 46.7696L47.8295 36.932C47.9838 36.6198 48.2136 36.39 48.4784 36.2374C47.7085 35.7955 46.6316 36.0252 46.1843 36.932L41.3296 46.7696C41.091 47.2536 40.628 47.5904 40.0931 47.6675L29.2365 49.2443C27.8895 49.439 27.3528 51.0947 28.3262 52.0435L36.1819 59.701C36.5695 60.0781 36.7449 60.6218 36.6537 61.155L34.7998 71.9659C34.5701 73.3077 35.9767 74.3302 37.1816 73.697L37.257 73.6584C36.6993 73.3357 36.3205 72.7061 36.4467 71.9659Z" fill="white"/>
<path opacity="0.5" d="M37.1877 73.7014L46.8973 68.5975C47.3761 68.3467 47.9461 68.3467 48.4249 68.5975L58.1345 73.7014C59.3394 74.3345 60.746 73.312 60.5162 71.9703L58.6624 61.1593C58.5712 60.6261 58.7483 60.0842 59.1342 59.7053L66.9898 52.0478C67.965 51.0972 67.4266 49.4433 66.0796 49.2486L55.223 47.6719L35.9775 73.8171C36.3599 73.9276 36.7826 73.9136 37.1877 73.7014Z" fill="white"/>
<path opacity="0.7" d="M43.748 50.1274C43.9936 51.0289 42.8536 52.1251 41.2049 52.5723C39.5545 53.0213 38.0181 52.653 37.7725 51.7515C37.527 50.85 38.667 49.7538 40.3157 49.3066C41.9661 48.8576 43.5025 49.2259 43.748 50.1274Z" fill="white"/>
</svg>
