<svg width="96" height="111" viewBox="0 0 96 111" fill="none" xmlns="http://www.w3.org/2000/svg">
<path d="M90.6201 80.0179V30.7731L47.973 6.15039L5.3252 30.7731V80.0179L47.973 104.641L90.6201 80.0179Z" fill="#FFC200"/>
<path d="M48.9741 110.213C48.3553 110.57 47.5929 110.57 46.9741 110.213L1 83.6703C0.3812 83.313 0 82.6527 0 81.9382V28.8523C0 28.1378 0.3812 27.4776 1.00001 27.1203L46.9741 0.577342C47.5929 0.220081 48.3553 0.220082 48.9741 0.577343L94.9481 27.1203C95.5669 27.4776 95.9481 28.1378 95.9481 28.8523V81.9382C95.9481 82.6527 95.5669 83.313 94.9481 83.6703L48.9741 110.213ZM10.6524 75.7884C10.6524 76.5029 11.0337 77.1632 11.6525 77.5204L46.9741 97.9129C47.5929 98.2701 48.3553 98.2701 48.974 97.9129L84.2957 77.5204C84.9145 77.1632 85.2957 76.5029 85.2957 75.7884V35.0029C85.2957 34.2884 84.9145 33.6281 84.2957 33.2709L48.9741 12.8777C48.3553 12.5205 47.5929 12.5205 46.9741 12.8777L11.6524 33.2708C11.0336 33.6281 10.6524 34.2884 10.6524 35.0029V75.7884Z" fill="#FFC200"/>
<path d="M47.9741 0V12.3004L10.6524 33.8475L0 27.6976L47.9741 0Z" fill="#FFECB0"/>
<path d="M92.9475 84.8253C94.2809 84.0555 94.2808 82.1309 92.9474 81.3612L86.2945 77.5206C85.6757 77.1634 84.9134 77.1634 84.2946 77.5207L48.9736 97.9131C48.3548 98.2704 47.9736 98.9306 47.9736 99.6451V107.327C47.9736 108.866 49.6403 109.829 50.9736 109.059L92.9475 84.8253Z" fill="#FFECB0"/>
<path d="M0 83.0932L10.6524 76.9434L47.9741 98.4904V110.791L0 83.0932Z" fill="#FFF9E6"/>
<path d="M47.9736 0V12.3004L85.2945 33.8475L95.9477 27.6976L47.9736 0Z" fill="#FFF9E6"/>
<path d="M10.6514 76.9415L47.973 98.4886L85.2946 76.9415V33.8466L47.973 12.2988L10.6514 33.8466V76.9415Z" stroke="#F8FFE1" stroke-width="2" stroke-miterlimit="10"/>
<path d="M49.2411 36.6346L53.2377 44.7332C53.4341 45.1317 53.8152 45.4089 54.2556 45.4724L63.1932 46.7705C64.302 46.9308 64.7439 48.2938 63.9425 49.0749L57.4754 55.3788C57.1578 55.6893 57.012 56.1369 57.087 56.5744L58.6132 65.4758C58.8024 66.5803 57.6444 67.4221 56.6524 66.9009L48.6592 62.6992C48.265 62.4928 47.7958 62.4928 47.4016 62.6992L39.4083 66.9009C38.4164 67.4221 37.2584 66.5803 37.4476 65.4758L38.9737 56.5744C39.0488 56.1354 38.903 55.6893 38.5853 55.3788L32.1182 49.0749C31.3169 48.2923 31.7587 46.9308 32.8676 46.7705L41.8051 45.4724C42.2455 45.4089 42.6253 45.1317 42.8231 44.7332L46.8197 36.6346C47.3135 35.6296 48.7458 35.6296 49.2411 36.6346Z" fill="#FFF9E6"/>
<path opacity="0.7" d="M38.7985 65.4752L40.3246 56.5752C40.3997 56.1363 40.2539 55.6901 39.9362 55.3783L33.4691 49.0743C32.6664 48.2918 33.1096 46.9302 34.2185 46.7699L43.1546 45.4719C43.595 45.4084 43.9747 45.1311 44.1725 44.7326L48.1692 36.634C48.2962 36.377 48.4854 36.1878 48.7034 36.0622C48.0695 35.6984 47.183 35.8875 46.8148 36.634L42.8182 44.7326C42.6218 45.1311 42.2406 45.4084 41.8003 45.4719L32.8627 46.7699C31.7538 46.9302 31.312 48.2932 32.1134 49.0743L38.5804 55.3783C38.8995 55.6887 39.0439 56.1363 38.9688 56.5752L37.4427 65.4752C37.2535 66.5798 38.4115 67.4216 39.4034 66.9003L39.4655 66.8685C39.0064 66.6029 38.6945 66.0845 38.7985 65.4752Z" fill="#FFF9E6"/>
<path opacity="0.5" d="M39.4084 66.903L47.4016 62.7014C47.7958 62.4949 48.2651 62.4949 48.6592 62.7014L56.6525 66.903C57.6444 67.4243 58.8024 66.5825 58.6133 65.4779L57.0871 56.5779C57.012 56.139 57.1578 55.6929 57.4755 55.381L63.9426 49.0771C64.7454 48.2945 64.3021 46.9329 63.1932 46.7726L54.2557 45.4746L38.4121 66.9984C38.7269 67.0893 39.0748 67.0777 39.4084 66.903Z" fill="#FFF9E6"/>
<path opacity="0.7" d="M44.8099 47.4973C45.0121 48.2395 44.0736 49.1419 42.7163 49.5101C41.3576 49.8797 40.0928 49.5765 39.8907 48.8343C39.6885 48.0922 40.627 47.1898 41.9843 46.8216C43.343 46.452 44.6078 46.7552 44.8099 47.4973Z" fill="#FFF9E6"/>
<path d="M72.3242 50.5193L74.7363 55.4071C74.8548 55.6476 75.0848 55.8149 75.3506 55.8532L80.7446 56.6366C81.4139 56.7333 81.6805 57.556 81.1969 58.0274L77.2939 61.832C77.1021 62.0193 77.0141 62.2894 77.0594 62.5535L77.9805 67.9257C78.0947 68.5923 77.3958 69.1004 76.7971 68.7858L71.973 66.25C71.7351 66.1254 71.4519 66.1254 71.214 66.25L66.3899 68.7858C65.7912 69.1004 65.0924 68.5923 65.2065 67.9257L66.1276 62.5535C66.1729 62.2886 66.0849 62.0193 65.8932 61.832L61.9902 58.0274C61.5065 57.5551 61.7732 56.7333 62.4424 56.6366L67.8364 55.8532C68.1022 55.8149 68.3314 55.6476 68.4508 55.4071L70.8628 50.5193C71.1609 49.9128 72.0253 49.9128 72.3242 50.5193Z" fill="#FFF9E6"/>
<path opacity="0.7" d="M66.0219 67.9261L66.9429 62.5548C66.9882 62.2899 66.9002 62.0206 66.7085 61.8324L62.8055 58.0278C62.321 57.5555 62.5885 56.7338 63.2577 56.637L68.6509 55.8536C68.9167 55.8153 69.1459 55.648 69.2652 55.4075L71.6773 50.5198C71.754 50.3647 71.8681 50.2505 71.9997 50.1747C71.6172 49.9551 71.0821 50.0692 70.8599 50.5198L68.4479 55.4075C68.3293 55.648 68.0993 55.8153 67.8335 55.8536L62.4395 56.637C61.7702 56.7338 61.5036 57.5564 61.9872 58.0278L65.8903 61.8324C66.0829 62.0197 66.17 62.2899 66.1247 62.5548L65.2036 67.9261C65.0894 68.5928 65.7883 69.1008 66.387 68.7862L66.4244 68.7671C66.1473 68.6067 65.9591 68.2939 66.0219 67.9261Z" fill="#FFF9E6"/>
<path opacity="0.5" d="M66.3903 68.7881L71.2145 66.2522C71.4524 66.1276 71.7356 66.1276 71.9735 66.2522L76.7976 68.7881C77.3962 69.1026 78.0951 68.5946 77.981 67.928L77.0599 62.5566C77.0146 62.2917 77.1026 62.0224 77.2943 61.8342L81.1973 58.0296C81.6818 57.5573 81.4143 56.7356 80.7451 56.6389L75.351 55.8555L65.7891 68.8456C65.979 68.9005 66.189 68.8935 66.3903 68.7881Z" fill="#FFF9E6"/>
<path opacity="0.7" d="M69.6495 57.0751C69.7715 57.5231 69.2051 58.0677 68.3859 58.2899C67.5659 58.513 66.8026 58.33 66.6806 57.8821C66.5586 57.4342 67.125 56.8895 67.9441 56.6673C68.7641 56.4443 69.5275 56.6272 69.6495 57.0751Z" fill="#FFF9E6"/>
<path d="M25.6015 50.5193L28.0136 55.4071C28.1321 55.6476 28.3622 55.8149 28.6279 55.8532L34.022 56.6366C34.6912 56.7333 34.9579 57.556 34.4742 58.0274L30.5712 61.832C30.3795 62.0193 30.2915 62.2894 30.3368 62.5535L31.2579 67.9257C31.372 68.5923 30.6732 69.1004 30.0745 68.7858L25.2504 66.25C25.0125 66.1254 24.7293 66.1254 24.4914 66.25L19.6672 68.7858C19.0686 69.1004 18.3697 68.5923 18.4839 67.9257L19.405 62.5535C19.4503 62.2886 19.3623 62.0193 19.1705 61.832L15.2675 58.0274C14.7839 57.5551 15.0505 56.7333 15.7198 56.6366L21.1138 55.8532C21.3796 55.8149 21.6087 55.6476 21.7281 55.4071L24.1402 50.5193C24.4382 49.9128 25.3027 49.9128 25.6015 50.5193Z" fill="#FFF9E6"/>
<path opacity="0.7" d="M19.2992 67.9261L20.2203 62.5548C20.2656 62.2899 20.1776 62.0206 19.9859 61.8324L16.0828 58.0278C15.5983 57.5555 15.8658 56.7338 16.5351 56.637L21.9282 55.8536C22.194 55.8153 22.4232 55.648 22.5426 55.4075L24.9546 50.5198C25.0313 50.3647 25.1455 50.2505 25.2771 50.1747C24.8945 49.9551 24.3595 50.0692 24.1373 50.5198L21.7252 55.4075C21.6067 55.648 21.3766 55.8153 21.1109 55.8536L15.7168 56.637C15.0476 56.7338 14.7809 57.5564 15.2646 58.0278L19.1676 61.8324C19.3602 62.0197 19.4473 62.2899 19.402 62.5548L18.4809 67.9261C18.3668 68.5928 19.0657 69.1008 19.6643 68.7862L19.7018 68.7671C19.4247 68.6067 19.2365 68.2939 19.2992 67.9261Z" fill="#FFF9E6"/>
<path opacity="0.5" d="M19.6677 68.7881L24.4918 66.2522C24.7297 66.1276 25.0129 66.1276 25.2508 66.2522L30.0749 68.7881C30.6736 69.1026 31.3725 68.5946 31.2583 67.928L30.3372 62.5566C30.2919 62.2917 30.3799 62.0224 30.5716 61.8342L34.4747 58.0296C34.9592 57.5573 34.6917 56.7356 34.0224 56.6389L28.6284 55.8555L19.0664 68.8456C19.2564 68.9005 19.4664 68.8935 19.6677 68.7881Z" fill="#FFF9E6"/>
<path opacity="0.7" d="M22.9268 57.0751C23.0488 57.5231 22.4824 58.0677 21.6633 58.2899C20.8433 58.513 20.0799 58.33 19.9579 57.8821C19.8359 57.4342 20.4024 56.8895 21.2215 56.6673C22.0415 56.4443 22.8048 56.6272 22.9268 57.0751Z" fill="#FFF9E6"/>
</svg>
