<svg width="140" height="140" viewBox="0 0 140 140" fill="none" xmlns="http://www.w3.org/2000/svg">
<g clip-path="url(#clip0_763_5166)">
<path d="M90.6434 9.22112C89.1714 9.22112 87.9782 10.4143 87.9782 11.8863C87.9782 12.2352 88.0497 12.5663 88.1712 12.872L76.9433 15.6072L70.9179 5.17051C71.714 4.7096 72.2559 3.85856 72.2559 2.87218C72.2559 1.40017 71.0628 0.207031 69.5908 0.207031C68.1188 0.207031 66.9256 1.40017 66.9256 2.87218C66.9256 3.85856 67.4676 4.7096 68.2637 5.17051L62.2383 15.6072L51.0103 12.872C51.1319 12.5663 51.2033 12.2352 51.2033 11.8863C51.2033 10.4143 50.0102 9.22112 48.5382 9.22112C47.0662 9.22112 45.873 10.4143 45.873 11.8863C45.873 13.3583 47.0662 14.5514 48.5382 14.5514C48.7704 14.5514 48.9915 14.5123 49.2065 14.4566L54.8858 33.0412H69.5915H84.2972L89.9764 14.4566C90.1914 14.5123 90.4126 14.5514 90.6447 14.5514C92.1168 14.5514 93.3099 13.3583 93.3099 11.8863C93.3085 10.4143 92.1154 9.22112 90.6434 9.22112Z" fill="#B0EBEC"/>
<path d="M69.5898 5.17188V33.0432H84.2955L89.9748 14.4587L88.171 12.874L76.943 15.6092L70.9169 5.17188H69.5898Z" fill="#00C0C3"/>
<path d="M69.5899 22.7129C60.0682 22.7129 52.3496 24.3161 52.3496 26.2944V40.287H86.831V26.2944C86.831 24.3161 79.1117 22.7129 69.5899 22.7129Z" fill="#B0EBEC"/>
<path d="M69.5899 43.8758C79.1115 43.8758 86.8303 42.2724 86.8303 40.2944C86.8303 38.3164 79.1115 36.7129 69.5899 36.7129C60.0684 36.7129 52.3496 38.3164 52.3496 40.2944C52.3496 42.2724 60.0684 43.8758 69.5899 43.8758Z" fill="#433959"/>
<path d="M87.4151 27.7966C87.0703 27.7966 86.7248 27.6784 86.4431 27.4387C86.3367 27.3542 82.2606 24.2151 69.5078 24.2151C56.9356 24.2151 52.569 27.4449 52.5257 27.4771C51.8739 27.9765 50.9349 27.8632 50.4279 27.2175C49.921 26.5711 50.0213 25.6438 50.6615 25.1293C50.86 24.9693 55.6875 21.2168 69.5078 21.2168C83.4943 21.2168 87.9426 24.766 88.4035 25.1706C89.0258 25.7166 89.0877 26.6639 88.5416 27.2862C88.2462 27.6234 87.8313 27.7966 87.4151 27.7966Z" fill="#E6F9F9"/>
<path d="M74.8522 24.4273C78.0702 24.6897 80.4929 25.1684 82.2679 25.6699C83.2302 25.9412 84.1829 25.2275 84.1829 24.2281V24.2116C84.1829 23.5336 83.7282 22.9456 83.0749 22.7622C81.1042 22.2093 78.4941 21.7058 75.0926 21.4345C74.2202 21.3651 73.4688 22.0575 73.4688 22.9326C73.4688 23.7136 74.0732 24.3641 74.8522 24.4273Z" fill="#F8FFE1"/>
<path d="M87.4151 40.5009C87.0703 40.5009 86.7248 40.3828 86.4431 40.1431C86.3367 40.0586 82.2606 36.9195 69.5078 36.9195C56.9356 36.9195 52.569 40.1493 52.5257 40.1815C51.8739 40.6809 50.9349 40.5676 50.4279 39.9219C49.921 39.2755 50.0213 38.3482 50.6615 37.8337C50.86 37.6737 55.6875 33.9219 69.5078 33.9219C83.4943 33.9219 87.9426 37.4711 88.4035 37.8756C89.0258 38.4217 89.0877 39.3689 88.5416 39.9913C88.2462 40.3285 87.8313 40.5009 87.4151 40.5009Z" fill="#E6F9F9"/>
<path d="M74.8522 37.1245C78.0702 37.3862 80.4929 37.8657 82.2679 38.3671C83.2302 38.6384 84.1829 37.9248 84.1829 36.9253V36.9089C84.1829 36.2309 83.7282 35.6429 83.0749 35.4595C81.1042 34.9066 78.4941 34.4031 75.0926 34.1317C74.2202 34.0624 73.4688 34.7548 73.4688 35.6306C73.4688 36.4109 74.0732 37.0613 74.8522 37.1245Z" fill="#F8FFE1"/>
<path d="M66.9268 29.547C66.9268 28.1196 68.0835 26.9629 69.5109 26.9629C70.9382 26.9629 72.0949 28.1196 72.0949 29.547C72.0949 30.9743 70.9382 32.1311 69.5109 32.1311C68.0842 32.1311 66.9268 30.9743 66.9268 29.547Z" fill="#E6F9F9"/>
<path d="M49.7666 32.129C49.7666 30.7017 50.9233 29.5449 52.3507 29.5449C53.7781 29.5449 54.9348 30.7017 54.9348 32.129C54.9348 33.5564 53.7781 34.7131 52.3507 34.7131C50.9233 34.7131 49.7666 33.5557 49.7666 32.129Z" fill="#E6F9F9"/>
<path d="M84.2471 32.129C84.2471 30.7017 85.4038 29.5449 86.8312 29.5449C88.2585 29.5449 89.4153 30.7017 89.4153 32.129C89.4153 33.5564 88.2585 34.7131 86.8312 34.7131C85.4038 34.7131 84.2471 33.5557 84.2471 32.129Z" fill="#E6F9F9"/>
<path d="M109.522 114.695V68.4922L69.5093 45.3906L29.4971 68.4922V114.695L69.5093 137.796L109.522 114.695Z" fill="#00C0C3"/>
<path d="M70.1504 73.9227L73.9452 81.6123C74.1316 81.9907 74.4935 82.2539 74.9117 82.3142L83.3978 83.5467C84.4507 83.6989 84.8702 84.993 84.1093 85.7347L77.9689 91.7203C77.6673 92.015 77.5288 92.44 77.6001 92.8554L79.0492 101.307C79.2288 102.356 78.1293 103.155 77.1874 102.66L69.5979 98.6709C69.2237 98.4749 68.7781 98.4749 68.4039 98.6709L60.8143 102.66C59.8725 103.155 58.773 102.356 58.9526 101.307L60.4017 92.8554C60.473 92.4386 60.3345 92.015 60.0329 91.7203L53.8925 85.7347C53.1316 84.9917 53.5511 83.6989 54.604 83.5467L63.0901 82.3142C63.5082 82.2539 63.8688 81.9907 64.0566 81.6123L67.8514 73.9227C68.3202 72.9685 69.6802 72.9685 70.1504 73.9227Z" fill="white"/>
<path opacity="0.7" d="M60.236 101.305L61.6851 92.8544C61.7564 92.4376 61.6179 92.014 61.3163 91.7179L55.1759 85.7323C54.4137 84.9893 54.8345 83.6965 55.8874 83.5443L64.3721 82.3118C64.7903 82.2515 65.1508 81.9883 65.3386 81.6099L69.1334 73.9203C69.254 73.6762 69.4336 73.4966 69.6406 73.3774C69.0388 73.0319 68.197 73.2115 67.8475 73.9203L64.0527 81.6099C63.8663 81.9883 63.5043 82.2515 63.0862 82.3118L54.6001 83.5443C53.5472 83.6965 53.1277 84.9906 53.8886 85.7323L60.029 91.7179C60.332 92.0126 60.4691 92.4376 60.3978 92.8544L58.9487 101.305C58.7691 102.354 59.8686 103.153 60.8104 102.658L60.8694 102.628C60.4334 102.376 60.1373 101.883 60.236 101.305Z" fill="white"/>
<path opacity="0.5" d="M60.8161 102.663L68.4056 98.6731C68.7798 98.4771 69.2254 98.4771 69.5997 98.6731L77.1892 102.663C78.131 103.158 79.2305 102.358 79.0509 101.309L77.6018 92.859C77.5305 92.4422 77.669 92.0186 77.9706 91.7225L84.111 85.7369C84.8733 84.9939 84.4524 83.7011 83.3995 83.5489L74.9134 82.3164L59.8701 102.753C60.169 102.839 60.4994 102.828 60.8161 102.663Z" fill="white"/>
<path opacity="0.7" d="M65.9429 84.2365C66.1348 84.9411 65.2437 85.798 63.955 86.1476C62.665 86.4985 61.464 86.2106 61.2721 85.506C61.0802 84.8013 61.9713 83.9445 63.26 83.5949C64.55 83.2439 65.7509 83.5318 65.9429 84.2365Z" fill="white"/>
<path d="M69.51 143.573L24.5 117.587V65.6135L69.51 39.627L114.52 65.6135V117.587L69.51 143.573ZM34.495 111.817L69.5107 132.033L104.526 111.817V71.3841L69.5107 51.1674L34.495 71.3841V111.817Z" fill="#00C0C3"/>
<path d="M69.51 39.627V51.1674L34.495 71.3834L24.5 65.6135L69.51 39.627Z" fill="#B0EBEC"/>
<path d="M114.521 117.585L104.526 111.814L69.5107 132.03V143.571L114.521 117.585Z" fill="#B0EBEC"/>
<path d="M24.5 117.585L34.495 111.814L69.51 132.03V143.571L24.5 117.585Z" fill="#E6F9F9"/>
<path d="M69.5107 39.627V51.1674L104.526 71.3834L114.521 65.6135L69.5107 39.627Z" fill="#E6F9F9"/>
<path d="M34.4951 111.813L69.5109 132.029L104.527 111.813V71.3807L69.5109 51.1641L34.4951 71.3807V111.813Z" stroke="#F8FFE1" stroke-width="2" stroke-miterlimit="10"/>
<path d="M51.0107 12.873L60.1828 19.4782L62.2394 15.6083L51.0107 12.873Z" fill="#00C0C3"/>
<path d="M79.784 19.4782L76.9443 15.6083L88.1723 12.873L79.784 19.4782Z" fill="#B0EBEC"/>
<path d="M31.2442 40.9626L30.207 41.3713L31.2442 41.78C34.4252 43.0343 36.9427 45.5524 38.1977 48.7327L38.6064 49.7699L39.0151 48.7327C40.2693 45.5517 42.7875 43.0343 45.9685 41.78L47.005 41.3713L45.9685 40.9626C42.7875 39.7083 40.27 37.1902 39.0151 34.0099L38.6064 32.9727L38.1977 34.0099C36.9434 37.1902 34.4252 39.7083 31.2442 40.9626Z" fill="#00C0C3"/>
<path d="M93.0607 40.9626L92.0234 41.3713L93.0607 41.78C96.2417 43.0343 98.7591 45.5524 100.014 48.7327L100.423 49.7699L100.831 48.7327C102.086 45.5517 104.604 43.0343 107.785 41.78L108.822 41.3713L107.785 40.9626C104.604 39.7083 102.086 37.1902 100.831 34.0099L100.423 32.9727L100.014 34.0099C98.7598 37.1902 96.2417 39.7083 93.0607 40.9626Z" fill="#00C0C3"/>
</g>
<defs>
<clipPath id="clip0_763_5166">
<rect width="140" height="140" fill="white"/>
</clipPath>
</defs>
</svg>
