<svg width="60" height="53" viewBox="0 0 60 53" fill="none" xmlns="http://www.w3.org/2000/svg">
<path d="M4.70922 15.8496C4.70922 15.8496 1.55034 15.9546 0.28191 19.1278C-0.98652 22.301 2.43663 24.807 2.43663 24.807" fill="#E3841F"/>
<path d="M51.4067 28.1223L44.6859 27.1114C45.0846 25.0178 47.2228 10.5932 31.1236 8.79744C14.6575 6.96081 13.8424 20.4333 13.8136 22.4787L7.11337 21.4701C7.11337 21.4701 6.39346 -1.41278 31.9861 1.43476C56.9396 4.21822 51.4067 28.1223 51.4067 28.1223Z" fill="#F1CD30"/>
<path d="M25.1386 6.29997L24.7379 1.41121C24.6894 0.820659 25.1488 0.310653 25.7415 0.300658C27.9106 0.264208 32.9123 0.361509 37.0694 1.79483C37.6383 1.9909 37.9043 2.64465 37.6524 3.19111C36.1714 6.40345 34.9141 9.62372 34.9141 9.62372" fill="#E8A226"/>
<path d="M14.9225 15.2038C14.9225 15.2038 9.70823 11.5882 6.85449 12.0133C4.00074 12.4383 -0.812239 26.2812 0.876846 28.9597C2.56593 31.6382 8.76845 30.6932 8.76845 30.6932L14.9225 15.2038Z" fill="#E8A226"/>
<path d="M56.3525 21.6113C56.3525 21.6113 59.4106 22.4097 59.9488 25.7843C60.4868 29.1592 56.5956 30.8491 56.5956 30.8491" fill="#E3841F"/>
<path d="M46.5332 18.7302C46.5332 18.7302 52.4159 16.3521 55.1059 17.3956C57.7959 18.4391 59.4406 33.002 57.2027 35.2428C54.9651 37.4833 49.123 35.1949 49.123 35.1949L46.5332 18.7302Z" fill="#E8A226"/>
<path d="M43.6284 52.8996C43.6284 52.8996 32.843 52.8996 11.1319 52.8996C10.4596 48.6537 11.5093 44.879 12.6599 42.2473C13.6987 39.8674 14.8204 38.4259 14.8204 38.4259L38.5197 36.0137C40.436 37.6313 41.6941 39.5764 42.5101 41.5609C44.7786 47.0719 43.6284 52.8996 43.6284 52.8996Z" fill="#363636"/>
<path d="M22.195 38.4259C22.195 38.4259 20.1355 44.8117 20.6652 52.9005C29.6683 52.9005 34.1403 52.9005 34.1403 52.9005C34.1403 52.9005 35.023 42.1156 32.022 36.0137L22.195 38.4259Z" fill="#F2F2F2"/>
<path opacity="0.2" d="M42.5105 41.5606C28.2414 47.6578 16.852 44.0557 12.6602 42.2473C13.699 39.8674 14.8208 38.4259 14.8208 38.4259L38.52 36.0137C40.436 37.631 41.6944 39.5761 42.5105 41.5606Z" fill="#302F3B"/>
<path d="M52.3279 38.1905C50.8557 40.1403 45.7717 41.1359 39.4366 41.3464C32.048 41.5892 22.9617 40.7641 15.9252 39.137C11.1149 38.025 7.26316 36.5411 5.56938 34.7642C4.33681 33.4758 3.8409 31.4454 3.97553 29.0241C4.52876 19.0391 15.8494 2.43301 30.8889 4.11913C45.6465 5.77115 54.2768 26.0252 53.3661 35.0323C53.2309 36.3612 52.8905 37.4465 52.3279 38.1905Z" fill="#363636"/>
<path d="M34.1309 7.52664C33.311 8.56782 37.9456 11.6355 38.9771 10.5993C40.0086 9.56345 35.6359 5.61564 34.1309 7.52664Z" fill="white"/>
<path d="M47.6973 31.9927C46.5565 35.5425 42.7174 38.9606 39.4359 41.3466C32.0473 41.5894 22.961 40.7643 15.9245 39.1373C12.8048 36.7362 8.35365 32.2049 9.39191 26.4655C10.9575 17.8032 17.5257 13.8222 22.7406 15.2279C26.0755 16.1271 26.6232 22.5353 27.4871 25.8981C27.9742 27.7936 29.4161 27.6422 29.4161 27.6422C29.4161 27.6422 30.7321 28.004 31.5002 25.9625C32.6625 22.8736 33.9033 16.9214 37.9917 16.7947C44.7786 16.5839 49.8056 25.4299 47.6973 31.9927Z" fill="#F2F2F2"/>
<path opacity="0.2" d="M52.3279 38.1898C50.8557 40.1396 45.7717 41.1352 39.4366 41.3457C32.048 41.5885 22.9617 40.7634 15.9252 39.1364C11.1149 38.0243 7.26316 36.5404 5.56938 34.7635C4.33681 33.4751 3.8409 31.4447 3.97553 29.0234C7.02594 31.8357 15.3782 38.3647 27.9596 39.1896C40.5331 40.0168 49.8765 36.576 53.3661 35.0316C53.2309 36.3605 52.8905 37.4458 52.3279 38.1898Z" fill="#302F3B"/>
<path d="M29.3591 30.3981C31.0893 30.4939 32.3986 28.4627 32.3128 28.0259C32.227 27.5894 27.1597 27.5479 26.6997 27.7984C26.2396 28.0485 27.3223 30.2852 29.3591 30.3981Z" fill="#E3841F"/>
<path d="M29.4084 29.7734C30.549 29.8122 31.4315 28.6387 31.3788 28.3897C31.3262 28.1408 27.9836 28.164 27.6779 28.3113C27.3722 28.4588 28.0656 29.7278 29.4084 29.7734Z" fill="white"/>
<path d="M29.4968 24.9922C31.7938 24.9907 33.3797 27.7739 33.2345 28.3456C33.0893 28.9174 26.3794 28.6055 25.7885 28.241C25.1979 27.8765 26.7927 24.994 29.4968 24.9922Z" fill="#E8A226"/>
<path d="M20.4937 19.5781C17.9166 19.4706 16.3077 23.7964 19.6312 24.9651C22.9544 26.1339 23.7713 19.7148 20.4937 19.5781Z" fill="#302F3B"/>
<path d="M12.2837 24.0597C9.78914 26.8246 14.3934 33.1781 17.7813 27.7411C19.8737 24.383 14.7782 21.2947 12.2837 24.0597Z" fill="#DC4167"/>
<path d="M46.5145 28.6362C48.1781 31.9679 42.0414 36.8575 40.2321 30.7121C39.1147 26.9166 44.851 25.3045 46.5145 28.6362Z" fill="#DC4167"/>
<path d="M45.2025 38.9779C45.226 39.1037 45.2468 39.2272 45.2657 39.3583C45.9318 44.0454 42.9839 49.2981 42.9839 49.2981L40.8336 47.3497L38.1201 44.8932C38.1201 44.8932 40.5485 41.8681 40.4403 38.268C40.3233 34.6941 44.37 34.6712 45.2025 38.9779Z" fill="#363636"/>
<path opacity="0.2" d="M45.2018 38.9766C45.2253 39.1024 45.2462 39.2258 45.265 39.3569C45.9311 44.044 42.9833 49.2967 42.9833 49.2967L40.833 47.3484C41.7922 46.3969 44.7544 43.156 45.2018 38.9766Z" fill="#302F3B"/>
<path d="M6.65767 16.2411C7.21128 16.2411 7.66006 15.7923 7.66006 15.2387C7.66006 14.6851 7.21128 14.2363 6.65767 14.2363C6.10406 14.2363 5.65527 14.6851 5.65527 15.2387C5.65527 15.7923 6.10406 16.2411 6.65767 16.2411Z" fill="#E3841F"/>
<path d="M55.1584 20.9762C55.1584 21.9242 54.39 22.6926 53.442 22.6926C52.494 22.6926 51.7256 21.9242 51.7256 20.9762C51.7256 20.0282 52.494 19.2598 53.442 19.2598C54.39 19.2598 55.1584 20.0282 55.1584 20.9762Z" fill="#E3841F"/>
<path d="M16.6565 19.5921C16.4393 19.5921 16.2241 19.4963 16.0795 19.3128C15.8284 18.9951 15.881 18.535 16.1979 18.2831C16.3314 18.1773 19.5044 15.709 23.1444 17.5083C23.5084 17.6882 23.6574 18.1288 23.4775 18.4927C23.2976 18.8563 22.8573 19.0054 22.493 18.8261C19.701 17.4456 17.215 19.3537 17.1104 19.4351C16.976 19.5407 16.8158 19.5921 16.6565 19.5921Z" fill="#302F3B"/>
<path d="M43.1594 23.0911C42.9136 23.0911 42.6734 22.968 42.5344 22.744C42.4609 22.627 40.7709 19.9946 37.6779 20.3444C37.2749 20.3906 36.9107 20.1001 36.8651 19.6968C36.8193 19.2935 37.1094 18.9296 37.5127 18.8838C41.547 18.4284 43.6947 21.8254 43.784 21.97C43.9971 22.3154 43.8901 22.7684 43.5447 22.9812C43.4242 23.0559 43.291 23.0911 43.1594 23.0911Z" fill="#302F3B"/>
<path d="M21.0378 21.5641C21.0378 22.0062 20.6777 22.3646 20.2333 22.3646C19.7888 22.3646 19.4287 22.0062 19.4287 21.5641C19.4287 21.122 19.7891 20.7637 20.2333 20.7637C20.6774 20.7634 21.0378 21.122 21.0378 21.5641Z" fill="white"/>
<path d="M20.4354 24.6914C20.8798 24.6914 21.24 24.5121 21.24 24.291C21.24 24.0699 20.8798 23.8906 20.4354 23.8906C19.9911 23.8906 19.6309 24.0699 19.6309 24.291C19.6309 24.5121 19.9911 24.6914 20.4354 24.6914Z" fill="white"/>
<path d="M39.6479 22.7326C41.9831 23.8282 41.411 28.4077 37.9238 27.9086C34.4363 27.4095 36.6777 21.3393 39.6479 22.7326Z" fill="#302F3B"/>
<path d="M38.2476 24.2423C38.0433 24.6344 38.197 25.1189 38.5912 25.3241C38.9854 25.5292 39.4705 25.3779 39.6748 24.9857C39.8791 24.5936 39.7253 24.1091 39.3311 23.904C38.9372 23.6988 38.4519 23.8505 38.2476 24.2423Z" fill="white"/>
<path d="M36.809 26.5662C36.7067 26.7622 36.9436 27.0876 37.3375 27.2928C37.7317 27.4983 38.1338 27.5056 38.2361 27.3096C38.3384 27.1135 38.1015 26.7881 37.7076 26.5829C37.3134 26.3774 36.911 26.3701 36.809 26.5662Z" fill="white"/>
</svg>
