<svg width="190" height="154" viewBox="0 0 190 154" fill="none" xmlns="http://www.w3.org/2000/svg">
<path d="M187.917 127.529C183.543 135.755 164.993 142.556 141.26 147.149C113.578 152.496 78.863 154.84 51.387 152.934C32.6025 151.632 17.2059 148.355 9.76095 142.679C4.34512 138.566 1.25997 131.217 0.314913 122.017C-3.5931 84.0789 29.0802 14.7448 86.7328 12.0711C143.304 9.43887 187.959 80.542 189.933 115.011C190.221 120.097 189.59 124.389 187.917 127.529Z" fill="#363636"/>
<path d="M100.99 22.9623C98.5275 27.3759 117.822 36.1482 121.085 31.6269C124.349 27.1068 105.512 14.8626 100.99 22.9623Z" fill="white"/>
<path d="M166.762 106.962C164.596 121.015 152.188 136.192 141.26 147.147C113.578 152.495 78.8629 154.839 51.3869 152.933C38.1966 145.763 18.7148 131.366 19.1801 109.128C19.8796 75.5642 42.2279 56.6295 62.7119 58.7954C75.8114 60.181 81.7183 83.9878 86.9906 96.1345C89.9625 102.981 95.3021 101.546 95.3021 101.546C95.3021 101.546 100.476 102.119 102.144 93.9697C104.669 81.6392 105.771 58.477 121.092 55.5465C146.524 50.6789 170.765 80.98 166.762 106.962Z" fill="#F2F2F2"/>
<path opacity="0.2" d="M187.917 127.529C183.543 135.755 164.993 142.555 141.26 147.148C113.578 152.496 78.863 154.84 51.387 152.934C32.6025 151.631 17.2059 148.355 9.76098 142.679C4.34515 138.565 1.25999 131.217 0.314941 122.016C13.4907 130.777 48.8646 150.357 96.7416 145.914C144.592 141.486 177.717 122.921 189.933 115.01C190.221 120.097 189.59 124.389 187.917 127.529Z" fill="#302F3B"/>
<path d="M96.6686 109.938C103.243 109.261 106.954 100.825 106.369 99.2319C105.784 97.6388 86.6755 100.523 85.0926 101.742C83.5108 102.961 88.93 110.736 96.6686 109.938Z" fill="#E3841F"/>
<path d="M94.0185 91.5215C102.669 90.137 110.311 99.6683 110.108 101.908C109.904 104.148 84.447 107 82.003 105.981C79.5591 104.963 83.836 93.1515 94.0185 91.5215Z" fill="#E8A226"/>
<path d="M53.2916 71.997C38.803 73.6865 33.6865 99.3991 53.2916 103.003C72.8967 106.606 71.7196 69.848 53.2916 71.997Z" fill="#302F3B"/>
<path d="M52.6257 98.6766C52.193 101.645 61.5 100.091 61.463 97.9692C61.426 95.8481 52.906 96.7607 52.6257 98.6766Z" fill="white"/>
<path d="M45.2526 92.1971C43.4197 93.863 46.3356 97.8517 49.4633 95.5659C52.5922 93.2789 47.9006 89.7902 45.2526 92.1971Z" fill="white"/>
<path d="M51.7738 77.2748C47.6741 81.0012 54.1953 89.9214 61.1907 84.8083C68.1872 79.6962 57.6941 71.8937 51.7738 77.2748Z" fill="white"/>
<path d="M131.762 71.997C146.251 73.6865 151.367 99.3991 131.762 103.003C112.157 106.606 113.334 69.848 131.762 71.997Z" fill="#302F3B"/>
<path d="M26.6093 102.241C23.0555 107.712 38.4197 118.513 42.7828 108.172C45.4778 101.786 30.1642 96.7701 26.6093 102.241Z" fill="#DC4167"/>
<path d="M158.754 97.7413C163.358 102.363 150.546 116.095 144.148 106.875C140.196 101.178 154.151 93.118 158.754 97.7413Z" fill="#DC4167"/>
<path d="M132.53 98.3653C132.964 101.334 123.656 99.7801 123.693 97.659C123.73 95.538 132.25 96.4494 132.53 98.3653Z" fill="white"/>
<path d="M139.904 91.886C141.737 93.553 138.821 97.5406 135.693 95.2547C132.564 92.9689 137.256 89.4802 139.904 91.886Z" fill="white"/>
<path d="M133.382 76.9627C137.482 80.6902 130.961 89.6094 123.965 84.4962C116.969 79.3842 127.462 71.5805 133.382 76.9627Z" fill="white"/>
<path d="M21.7745 7.97751L14.7277 12.2979L18.5867 13.7097C19.0782 13.8895 19.3384 14.4267 19.1749 14.9237L18.1838 17.9378C18.0173 18.4441 17.4735 18.7212 16.966 18.5585L8.98667 15.9991C8.27205 15.7699 7.85913 15.0242 8.04407 14.2968L8.73149 11.5939C8.82435 11.2286 9.05867 10.9153 9.38268 10.7229L17.3705 5.97933L12.3927 4.54075C11.8563 4.38574 11.5611 3.81089 11.7478 3.28458L12.6834 0.646142C12.8637 0.137635 13.4242 -0.126055 13.931 0.0593366L22.2073 3.08718C22.9456 3.35729 23.3424 4.15879 23.1095 4.90963L22.4125 7.15689C22.3064 7.49875 22.0796 7.79041 21.7745 7.97751Z" fill="#8E8E8E"/>
<path d="M35.5303 20.1818L31.2408 24.3069L34.1724 24.7046C34.5457 24.7553 34.8116 25.0929 34.7733 25.4678L34.5411 27.7403C34.5021 28.122 34.1624 28.4008 33.7804 28.3646L27.7741 27.7952C27.2362 27.7442 26.8308 27.2835 26.8487 26.7434L26.9153 24.7365C26.9243 24.4654 27.0408 24.2088 27.2389 24.0235L32.125 19.4557L28.4025 19.2117C28.0012 19.1854 27.7051 18.8267 27.7551 18.4277L28.0063 16.4279C28.0546 16.0425 28.4082 15.7706 28.7931 15.8228L35.0805 16.6759C35.6414 16.752 36.044 17.2545 35.9961 17.8184L35.8524 19.5063C35.8304 19.7631 35.716 20.0033 35.5303 20.1818Z" fill="#8E8E8E"/>
<path d="M21.9415 36.3802L17.3017 38.1354L19.4182 39.4013C19.6877 39.5625 19.7807 39.9084 19.6285 40.1832L18.7055 41.8487C18.5504 42.1285 18.1987 42.2308 17.9178 42.0778L13.5012 39.6725C13.1056 39.457 12.946 38.971 13.1368 38.563L13.8457 37.0467C13.9415 36.8418 14.1148 36.6833 14.3276 36.6063L19.5697 34.7072L16.7967 33.2999C16.4979 33.1482 16.3885 32.7762 16.5577 32.4869L17.4057 31.0365C17.5691 30.757 17.9292 30.6645 18.2071 30.8307L22.7462 33.5456C23.1511 33.7879 23.2949 34.3049 23.0733 34.7214L22.4099 35.9679C22.3089 36.1576 22.1425 36.3041 21.9415 36.3802Z" fill="#8E8E8E"/>
</svg>
