<svg width="210" height="158" viewBox="0 0 210 158" fill="none" xmlns="http://www.w3.org/2000/svg">
<path d="M200.96 108.859C200.949 110.466 200.861 111.994 200.672 113.423C200.285 116.459 199.476 119.051 198.224 121.089C195.321 125.82 187.378 129.73 176.345 132.766C169.066 134.771 160.436 136.399 151.02 137.629C123.391 141.241 89.0156 141.462 62.0293 137.928C51.9482 136.61 42.8973 134.771 35.6301 132.378C29.5814 130.406 24.7624 128.058 21.583 125.31C16.4871 120.923 13.8837 113.49 13.507 104.361C11.9339 66.7069 48.3367 0.282329 105.367 1.11319C161.323 1.92189 201.082 74.7385 200.96 108.859Z" fill="#363636"/>
<path d="M118.77 12.7165C116.075 16.9218 134.579 26.7348 138.069 22.4719C141.56 18.2102 123.716 4.99949 118.77 12.7165Z" fill="white"/>
<path d="M178.59 99.5276C175.608 113.259 162.456 127.483 151.019 137.631C123.393 141.239 89.0108 141.464 62.0234 137.931C49.4453 130.065 31.0943 114.692 32.8923 92.7855C35.6009 59.7216 58.783 42.3899 78.8577 45.7599C91.6951 47.9146 96.0897 71.7514 100.559 84.0492C103.078 90.9808 108.431 89.8863 108.431 89.8863C108.431 89.8863 113.499 90.7626 115.635 82.8251C118.868 70.8153 121.347 48.0353 136.636 46.0656C162.016 42.7954 184.102 74.141 178.59 99.5276Z" fill="#F2F2F2"/>
<path d="M181.581 72.9613C191.291 77.5233 187.812 105 171.842 94.4352C161.979 87.9102 171.871 68.3993 181.581 72.9613Z" fill="#DC4167"/>
<path d="M29.5754 71.4672C19.8654 76.0292 23.345 103.506 39.3142 92.9422C49.1782 86.416 39.2843 66.9052 29.5754 71.4672Z" fill="#DC4167"/>
<path d="M109.275 98.2446C115.8 97.9721 119.969 89.875 119.487 88.2687C119.005 86.6624 99.9841 88.3585 98.3501 89.4652C96.7171 90.5719 101.595 98.5659 109.275 98.2446Z" fill="#E3841F"/>
<path d="M107.77 79.9203C116.385 79.0761 123.35 88.9356 123.014 91.1335C122.679 93.3314 97.3972 94.6121 95.0476 93.46C92.6979 92.3089 97.6276 80.9151 107.77 79.9203Z" fill="#E8A226"/>
<path d="M79.865 82.9143C74.758 84.5206 70.1716 86.4261 66.0506 88.5642C58.1629 86.271 54.9835 80.3552 55.0721 74.3398C55.194 66.563 60.7885 58.6532 68.7758 58.21C81.0504 57.5343 84.6175 73.653 79.865 82.9143Z" fill="#302F3B"/>
<path d="M79.8649 82.9143C55.7699 96.1749 42.3654 117.799 35.6299 132.378C31.7636 131.115 28.4069 129.708 25.6485 128.135C24.0975 127.238 22.7349 126.307 21.5828 125.31C20.2091 124.125 19.0238 122.729 18.0156 121.134C15.2461 116.802 13.7838 111.031 13.5068 104.362C26.8228 79.8678 55.072 74.3398 55.072 74.3398L60.6554 76.2674L71.7446 80.1005L79.8649 82.9143Z" fill="#7BB4FF"/>
<path opacity="0.2" d="M71.7446 80.1006C39.1416 89.8937 28.8833 113.789 25.6484 128.135C24.0975 127.238 22.7349 126.308 21.5828 125.311C20.2091 124.125 19.0237 122.729 18.0156 121.134C21.8487 93.4387 46.1652 81.1752 60.6554 76.2676L71.7446 80.1006Z" fill="#302F3B"/>
<path d="M66.7157 71.588C62.3996 72.8597 67.9321 78.6193 75.1838 77.1027C82.4367 75.5872 72.9471 69.7523 66.7157 71.588Z" fill="white"/>
<path d="M63.0365 63.0241C60.8574 64.6603 62.9921 69.836 66.5981 67.6968C70.2051 65.5577 66.1826 60.6611 63.0365 63.0241Z" fill="white"/>
<path d="M131.948 82.9143C137.055 84.5206 141.642 86.4261 145.763 88.5642C153.65 86.271 156.83 80.3552 156.741 74.3398C156.619 66.563 151.025 58.6532 143.037 58.21C130.762 57.5343 127.196 73.653 131.948 82.9143Z" fill="#302F3B"/>
<path d="M200.672 113.424C200.484 114.908 200.196 116.282 199.808 117.534C199.387 118.852 198.866 120.048 198.224 121.09C196.618 123.704 193.482 126.064 189.129 128.157C185.606 129.875 181.285 131.403 176.345 132.766C169.687 118.187 156.26 96.2856 131.943 82.9143L144.096 78.7157L154.62 75.071L156.736 74.3398C156.736 74.3398 184.985 79.8678 198.301 104.362C199.431 107.608 200.207 110.621 200.672 113.424Z" fill="#7BB4FF"/>
<path opacity="0.2" d="M199.809 117.533C199.388 118.851 198.867 120.048 198.224 121.089C196.618 123.703 193.483 126.063 189.129 128.157C181.618 102.677 157.28 86.082 144.097 78.715L154.621 75.0703C175.625 83.3789 190.293 101.325 199.809 117.533Z" fill="#302F3B"/>
<path opacity="0.2" d="M198.22 121.087C193.411 128.938 174.705 134.529 151.019 137.632C123.393 141.24 89.0109 141.465 62.0234 137.932C43.5739 135.517 28.5841 131.358 21.5827 125.312C16.4878 120.93 13.8878 113.495 13.5078 104.363C25.9763 113.797 59.6893 135.237 107.181 133.736C154.644 132.247 188.434 115.929 200.96 108.861C200.939 113.895 200.058 118.09 198.22 121.087Z" fill="#302F3B"/>
<path d="M145.097 71.588C149.412 72.8597 143.88 78.6193 136.629 77.1027C129.376 75.5872 138.865 69.7523 145.097 71.588Z" fill="white"/>
<path d="M148.777 63.0241C150.956 64.6603 148.821 69.836 145.214 67.6968C141.607 65.5577 145.63 60.6611 148.777 63.0241Z" fill="white"/>
<path d="M66.3893 63.0937C61.5071 63.0937 57.8081 61.956 57.5156 61.864C56.0578 61.4032 55.2491 59.8467 55.711 58.3877C56.1719 56.932 57.725 56.1233 59.1818 56.582C59.3446 56.6296 70.4172 59.9619 78.0335 53.8966C79.231 52.9428 80.9725 53.1411 81.9252 54.3375C82.8779 55.534 82.6807 57.2766 81.4843 58.2293C76.6465 62.0811 70.9922 63.0937 66.3893 63.0937Z" fill="#302F3B"/>
<path d="M145.351 63.0932C140.747 63.0932 135.094 62.0818 130.256 58.2288C129.06 57.2761 128.862 55.5335 129.815 54.3371C130.769 53.1406 132.51 52.9434 133.707 53.8961C141.393 60.0179 152.443 56.6181 152.554 56.5826C154.014 56.1195 155.57 56.9293 156.03 58.3872C156.492 59.8451 155.684 61.4016 154.226 61.8635C153.933 61.9555 150.232 63.0932 145.351 63.0932Z" fill="#302F3B"/>
<path d="M1.68716 118.485C-3.04874 122.81 3.16058 131.235 8.31856 127.551C13.4754 123.867 7.58184 113.102 1.68716 118.485Z" fill="#7BB4FF"/>
<path d="M7.24465 132.649C-1.32872 139.699 9.91226 153.433 19.2489 147.429C28.5845 141.423 17.914 123.875 7.24465 132.649Z" fill="#7BB4FF"/>
<path d="M207.287 129.537C202.195 125.638 194.997 133.237 199.534 137.664C204.07 142.091 213.625 134.389 207.287 129.537Z" fill="#7BB4FF"/>
<path d="M207.86 150.538C204.175 147.716 198.967 153.216 202.249 156.419C205.532 159.623 212.447 154.05 207.86 150.538Z" fill="#7BB4FF"/>
<path d="M192.623 137.207C185.257 130.936 175.205 142.691 181.792 149.776C188.378 156.861 201.79 145.009 192.623 137.207Z" fill="#7BB4FF"/>
</svg>
