<svg width="220" height="237" viewBox="0 0 220 237" fill="none" xmlns="http://www.w3.org/2000/svg">
<path d="M246.443 236.207C246.443 236.207 196.578 244.975 96.1983 262.623C89.6229 243.563 91.3938 225.279 94.5641 212.19C97.4238 200.356 101.433 192.786 101.433 192.786L209.034 162.381C219.215 168.294 226.62 176.253 232.014 184.754C247.003 208.361 246.443 236.207 246.443 236.207Z" fill="#363636"/>
<path d="M135.536 186.791C135.536 186.791 131.229 217.948 140.282 254.862C181.9 247.545 202.573 243.911 202.573 243.911C202.573 243.911 197.848 193.401 178.993 167.668L135.536 186.791Z" fill="#F2F2F2"/>
<path opacity="0.2" d="M232.024 184.76C171.028 224.523 115.425 217.145 94.5665 212.201C97.4263 200.364 101.435 192.793 101.435 192.793L209.043 162.383C219.223 168.298 226.63 176.257 232.024 184.76Z" fill="#302F3B"/>
<path d="M270.122 135.331C270.457 137.302 270.681 139.195 270.76 140.987C270.943 144.791 270.513 148.142 269.42 150.91C266.887 157.333 257.994 163.836 245.119 169.933C236.628 173.958 226.397 177.812 215.114 181.348C182.011 191.724 139.898 199.399 106.032 200.88C93.3813 201.435 81.8814 201.13 72.4488 199.763C64.6022 198.649 58.182 196.808 53.6862 194.125C46.484 189.846 41.6778 181.296 39.2348 170.189C29.1338 124.377 59.3667 35.1258 129.495 23.8618C198.3 12.8021 262.867 93.4854 270.122 135.331Z" fill="#363636"/>
<path d="M148.499 35.2314C146.106 40.9664 170.931 49.009 174.288 43.0321C177.644 37.0566 152.891 24.7072 148.499 35.2314Z" fill="white"/>
<path d="M240.649 128.694C239.971 146.167 226.926 166.435 215.1 181.337C181.999 191.709 139.876 199.39 106.008 200.872C88.873 193.939 63.0284 179.05 60.4794 151.811C56.6259 110.7 81.2987 84.4634 106.653 84.2704C122.866 84.1465 133.43 112.417 141.58 126.529C146.174 134.482 152.503 131.988 152.503 131.988C152.503 131.988 158.909 131.97 159.806 121.781C161.165 106.364 159.262 77.9081 177.587 72.2008C208.008 62.726 241.901 96.39 240.649 128.694Z" fill="#F2F2F2"/>
<path d="M238.589 95.4555C251.485 98.9547 253.18 133.372 231.306 123.865C217.795 117.993 225.693 91.9562 238.589 95.4555Z" fill="#DC4167"/>
<path d="M51.762 126.449C40.8453 134.13 51.0736 167.049 68.3631 150.666C79.0425 140.546 62.6773 118.769 51.762 126.449Z" fill="#DC4167"/>
<path d="M155.355 142.052C163.3 140.312 166.656 129.488 165.716 127.623C164.776 125.757 141.812 131.934 140.048 133.643C138.285 135.351 146.003 144.1 155.355 142.052Z" fill="#E3841F"/>
<path d="M149.535 119.92C159.92 117.029 170.604 127.616 170.669 130.383C170.734 133.15 140.001 140.166 136.869 139.259C133.736 138.355 137.311 123.324 149.535 119.92Z" fill="#E8A226"/>
<path d="M115.947 129.628C110.033 132.696 104.822 136.019 100.232 139.526C90.0622 138.415 84.8797 131.85 83.6832 124.46C82.1453 114.904 87.2895 104.007 96.9881 101.744C111.894 98.2728 119.765 117.256 115.947 129.628Z" fill="#302F3B"/>
<path d="M115.915 129.622C89.2417 151.062 77.4946 180.45 72.3976 199.768C67.3818 199.052 62.9598 198.051 59.2354 196.717C57.1386 195.951 55.2655 195.104 53.6362 194.131C51.6942 192.974 49.9376 191.518 48.355 189.781C44.0184 185.068 40.9725 178.31 39.1857 170.197C50.2015 137.311 83.6475 124.453 83.6475 124.453L90.9134 125.613L105.345 127.923L115.915 129.622Z" fill="#7BB4FF"/>
<path opacity="0.2" d="M105.345 127.928C67.4863 146.95 60.0908 178.442 59.2367 196.719C57.14 195.954 55.267 195.107 53.6377 194.133C51.6959 192.976 49.9393 191.521 48.3568 189.783C47.0478 155.018 74.2079 134.753 90.9134 125.619L105.345 127.928Z" fill="#302F3B"/>
<path d="M97.3622 118.579C92.3439 121.068 100.38 126.937 108.947 123.515C117.514 120.095 104.608 114.986 97.3622 118.579Z" fill="white"/>
<path d="M90.9949 108.887C88.6776 111.361 92.4187 117.244 96.3767 113.846C100.336 110.448 94.3405 105.314 90.9949 108.887Z" fill="white"/>
<path d="M179.866 118.369C186.478 119.237 192.515 120.585 198.033 122.317C207.208 117.809 209.823 109.875 208.409 102.523C206.572 93.0196 197.996 84.5317 188.105 85.7085C172.905 87.5237 172.029 108.043 179.866 118.369Z" fill="#302F3B"/>
<path d="M270.765 140.922C270.856 142.782 270.801 144.527 270.597 146.145C270.367 147.851 269.988 149.43 269.426 150.844C268.023 154.394 264.69 157.961 259.805 161.465C255.857 164.328 250.89 167.132 245.126 169.866C233.797 153.433 212.577 129.483 179.853 118.332L193.846 110.57L205.963 103.837L208.399 102.485C208.399 102.485 244.245 103.176 265.891 130.327C267.981 134.061 269.586 137.587 270.765 140.922Z" fill="#7BB4FF"/>
<path opacity="0.2" d="M270.6 146.141C270.37 147.847 269.991 149.426 269.429 150.84C268.026 154.39 264.693 157.957 259.808 161.46C245.068 131.853 211.618 116.757 193.852 110.568L205.968 103.835C233.53 109.494 255.412 128.329 270.6 146.141Z" fill="#302F3B"/>
<path opacity="0.2" d="M269.412 150.847C265.217 161.516 243.48 172.408 215.094 181.321C181.985 191.703 139.852 199.391 105.976 200.875C82.8165 201.89 63.5234 200.019 53.6212 194.11C46.4192 189.832 41.6155 181.271 39.167 170.15C56.5119 179.036 102.527 198.072 160.467 185.992C218.374 173.933 256.286 146.629 270.12 135.258C271.187 141.438 271.017 146.775 269.412 150.847Z" fill="#302F3B"/>
<path d="M193.531 101.659C199.1 102.289 193.565 110.541 184.341 110.244C175.115 109.949 185.489 100.751 193.531 101.659Z" fill="white"/>
<path d="M196.196 90.3717C199.224 91.9076 197.729 98.7099 192.841 96.8651C187.953 95.0204 191.824 88.1537 196.196 90.3717Z" fill="white"/>
<path d="M227.535 168.376C227.834 168.897 228.118 169.411 228.405 169.963C238.626 189.676 233.721 217.479 233.721 217.479L221.175 212.181L205.347 205.504C205.347 205.504 211.409 188.363 205.345 172.597C199.282 156.958 217.168 150.601 227.535 168.376Z" fill="#363636"/>
<path opacity="0.2" d="M227.539 168.375C227.838 168.896 228.122 169.41 228.409 169.961C238.627 189.674 233.723 217.474 233.723 217.474L221.181 212.177C223.952 206.48 232.04 187.56 227.539 168.375Z" fill="#302F3B"/>
<path d="M94.1415 191.846C94.0389 192.438 93.9496 193.018 93.8681 193.634C91.0302 215.642 105.182 240.096 105.182 240.096L115.153 230.842L127.735 219.173C127.735 219.173 116.155 205.132 116.442 188.25C116.771 171.488 97.7831 171.61 94.1415 191.846Z" fill="#363636"/>
<path opacity="0.2" d="M94.1363 191.851C94.0337 192.443 93.9445 193.022 93.863 193.638C91.0257 215.645 105.175 240.098 105.175 240.098L115.143 230.844C110.585 226.436 96.4898 211.413 94.1363 191.851Z" fill="#302F3B"/>
<path d="M95.1271 108.253C89.1374 109.306 84.3527 108.71 83.9739 108.66C82.0854 108.41 80.756 106.677 81.0066 104.789C81.2566 102.906 82.9868 101.58 84.8735 101.828C85.0836 101.851 99.3903 103.546 107.42 94.4702C108.683 93.043 110.862 92.9103 112.29 94.171C113.718 95.4317 113.854 97.6097 112.593 99.0354C107.492 104.799 100.774 107.26 95.1271 108.253Z" fill="#302F3B"/>
<path d="M192.012 91.2001C186.364 92.1933 179.209 92.1733 172.438 88.4952C170.764 87.5858 170.145 85.4928 171.054 83.8211C171.965 82.1491 174.059 81.5317 175.733 82.4412C186.49 88.2852 199.31 81.7349 199.439 81.6675C201.13 80.7851 203.213 81.442 204.095 83.1292C204.977 84.8161 204.322 86.898 202.634 87.7786C202.295 87.9544 198.001 90.1471 192.012 91.2001Z" fill="#302F3B"/>
<path d="M27.7201 190.065C22.8478 196.385 32.2898 205.367 37.8189 199.742C43.3463 194.116 33.7847 182.2 27.7201 190.065Z" fill="#7BB4FF"/>
<path d="M37.6039 206.211C28.6145 216.697 45.3792 231.098 55.5314 221.728C65.6821 212.358 48.7909 193.161 37.6039 206.211Z" fill="#7BB4FF"/>
</svg>
