<svg width="190" height="142" viewBox="0 0 190 142" fill="none" xmlns="http://www.w3.org/2000/svg">
<path d="M187.917 115.529C183.543 123.755 164.993 130.556 141.26 135.149C113.578 140.496 78.863 142.84 51.387 140.934C32.6025 139.632 17.2059 136.355 9.76095 130.679C4.34512 126.566 1.25997 119.217 0.314913 110.017C-3.5931 72.0789 29.0802 2.74484 86.7328 0.071116C143.304 -2.56113 187.959 68.542 189.933 103.011C190.221 108.097 189.59 112.389 187.917 115.529Z" fill="#363636"/>
<path d="M100.99 10.9623C98.527 15.3759 117.822 24.1482 121.085 19.6269C124.348 15.1068 105.511 2.86264 100.99 10.9623Z" fill="white"/>
<path d="M166.762 94.9616C164.596 109.015 152.188 124.192 141.26 135.147C113.578 140.495 78.8629 142.839 51.3869 140.933C38.1966 133.763 18.7148 119.366 19.1801 97.1275C19.8796 63.5642 42.2279 44.6295 62.7119 46.7954C75.8114 48.181 81.7183 71.9878 86.9906 84.1345C89.9625 90.9808 95.3021 89.5458 95.3021 89.5458C95.3021 89.5458 100.476 90.1187 102.144 81.9697C104.669 69.6392 105.771 46.477 121.092 43.5465C146.524 38.6789 170.765 68.98 166.762 94.9616Z" fill="#F2F2F2"/>
<path opacity="0.2" d="M187.917 115.529C183.542 123.755 164.992 130.555 141.259 135.148C113.577 140.496 78.8625 142.84 51.3865 140.934C32.6021 139.631 17.2054 136.355 9.76049 130.679C4.34466 126.565 1.25951 119.217 0.314453 110.016C13.4903 118.777 48.8641 138.357 96.7412 133.914C144.591 129.486 177.716 110.921 189.932 103.01C190.221 108.097 189.589 112.389 187.917 115.529Z" fill="#302F3B"/>
<path d="M96.6686 97.938C103.243 97.2609 106.954 88.8249 106.369 87.2319C105.784 85.6388 86.6755 88.5233 85.0926 89.7419C83.5108 90.9605 88.93 98.7362 96.6686 97.938Z" fill="#E3841F"/>
<path d="M94.0181 79.5215C102.668 78.137 110.31 87.6683 110.107 89.9081C109.903 92.148 84.4465 95 82.0026 93.9809C79.5586 92.963 83.8355 81.1515 94.0181 79.5215Z" fill="#E8A226"/>
<path d="M53.2919 59.997C38.8033 61.6865 33.6868 87.3991 53.2919 91.0033C72.8969 94.6063 71.7198 57.848 53.2919 59.997Z" fill="#302F3B"/>
<path d="M52.626 86.6766C52.1932 89.6451 61.5003 88.0914 61.4633 85.9692C61.4263 83.8481 52.9062 84.7607 52.626 86.6766Z" fill="white"/>
<path d="M45.2524 80.1971C43.4195 81.863 46.3353 85.8517 49.4631 83.5659C52.592 81.2789 47.9003 77.7902 45.2524 80.1971Z" fill="white"/>
<path d="M51.7743 65.2748C47.6745 69.0012 54.1957 77.9214 61.1911 72.8083C68.1877 67.6962 57.6946 59.8937 51.7743 65.2748Z" fill="white"/>
<path d="M131.762 59.997C146.25 61.6865 151.367 87.3991 131.762 91.0033C112.157 94.6063 113.334 57.848 131.762 59.997Z" fill="#302F3B"/>
<path d="M26.6088 90.2408C23.0551 95.7116 38.4192 106.513 42.7823 96.1723C45.4774 89.7857 30.1637 84.7701 26.6088 90.2408Z" fill="#DC4167"/>
<path d="M158.754 85.7413C163.358 90.3634 150.545 104.095 144.147 94.8745C140.196 89.1784 154.151 81.118 158.754 85.7413Z" fill="#DC4167"/>
<path d="M132.531 86.3653C132.965 89.3339 123.656 87.7801 123.693 85.659C123.73 83.538 132.251 84.4494 132.531 86.3653Z" fill="white"/>
<path d="M139.903 79.886C141.736 81.553 138.82 85.5406 135.693 83.2547C132.564 80.9689 137.255 77.4802 139.903 79.886Z" fill="white"/>
<path d="M133.383 64.9627C137.482 68.6902 130.961 77.6094 123.966 72.4962C116.969 67.3842 127.462 59.5805 133.383 64.9627Z" fill="white"/>
</svg>
