<svg width="237" height="266" viewBox="0 0 237 266" fill="none" xmlns="http://www.w3.org/2000/svg">
<path d="M71.5095 258.032C71.9491 258.427 72.3856 258.804 72.8583 259.192C89.7336 273.038 117.487 273.972 117.487 273.972L114.959 260.82L111.776 244.229C111.776 244.229 94.042 246.577 80.1146 237.534C66.3106 228.518 56.5314 244.439 71.5095 258.032Z" fill="#363636"/>
<path opacity="0.2" d="M71.5166 258.039C71.9561 258.434 72.3925 258.811 72.8652 259.198C89.7375 273.041 117.486 273.975 117.486 273.975L114.959 260.826C108.911 262.335 89.0524 266.272 71.5166 258.039Z" fill="#302F3B"/>
<path d="M259.131 262.534C259.131 262.534 210.169 271.195 111.606 288.63C105.161 269.869 106.911 251.866 110.031 238.978C112.846 227.325 116.786 219.871 116.786 219.871L222.447 189.874C232.439 195.688 239.705 203.52 244.995 211.886C259.697 235.118 259.131 262.534 259.131 262.534Z" fill="#363636"/>
<path d="M150.261 213.941C150.261 213.941 146.013 244.632 154.883 280.987C195.761 273.755 216.067 270.163 216.067 270.163C216.067 270.163 211.456 220.414 192.954 195.079L150.261 213.941Z" fill="#F2F2F2"/>
<path opacity="0.2" d="M244.986 211.881C185.083 251.049 130.504 243.822 110.03 238.968C112.845 227.318 116.785 219.865 116.785 219.865L222.439 189.874C232.431 195.686 239.696 203.516 244.986 211.881Z" fill="#302F3B"/>
<path d="M282.555 178.94C278.452 189.445 257.124 200.24 229.264 209.116C196.768 219.455 155.406 227.179 122.146 228.772C99.4064 229.861 80.4595 228.099 70.7275 222.33C63.6505 218.152 58.9187 209.754 56.4993 198.831C46.5111 153.785 76.0675 65.8309 144.929 54.4695C212.496 43.3097 276.047 122.46 283.229 163.61C284.284 169.682 284.125 174.93 282.555 178.94Z" fill="#363636"/>
<path d="M163.52 65.5104C161.178 71.1636 185.573 78.9796 188.86 73.0848C192.148 67.1897 167.819 55.1363 163.52 65.5104Z" fill="white"/>
<path d="M253.563 150.961C253.142 170.045 240.598 192.081 229.175 208.264C196.763 219.321 155.439 227.361 122.148 228.698C105.196 220.98 79.5654 204.496 76.6742 174.714C72.3047 129.765 96.2028 101.306 121.138 101.304C137.085 101.305 147.873 132.282 156.089 147.767C160.721 156.496 166.909 153.823 166.909 153.823C166.909 153.823 173.211 153.857 173.951 142.733C175.069 125.899 172.797 94.7922 190.74 88.7112C220.527 78.612 254.339 115.676 253.563 150.961Z" fill="#F2F2F2"/>
<path opacity="0.2" d="M282.558 179.01C278.456 189.504 257.135 200.287 229.284 209.152C196.799 219.48 155.45 227.196 122.201 228.787C99.4685 229.875 80.5276 228.114 70.7988 222.351C63.7241 218.178 58.9939 209.79 56.5752 198.879C73.6153 207.537 118.812 226.049 175.67 213.956C232.495 201.884 269.67 174.919 283.232 163.697C284.286 169.763 284.128 175.005 282.558 179.01Z" fill="#302F3B"/>
<path d="M170.602 169.551C178.613 168.343 181.558 151.95 180.291 149.253C179.023 146.556 154.921 153.669 153.345 155.751C151.77 157.832 161.17 170.974 170.602 169.551Z" fill="#E3841F"/>
<path d="M169.816 164.432C175.717 163.421 178.252 152.132 177.384 150.315C176.516 148.498 158.681 153.922 157.478 155.383C156.276 156.844 162.868 165.623 169.816 164.432Z" fill="#DD4C12"/>
<path d="M163.046 140.502C174.638 137.452 186.382 147.678 186.417 150.402C186.452 153.126 152.165 160.634 148.692 159.802C145.22 158.969 149.398 144.092 163.046 140.502Z" fill="#E8A226"/>
<path d="M111.51 117.722C94.3428 121.802 91.7875 153.438 115.839 154.998C139.891 156.558 133.345 112.534 111.51 117.722Z" fill="#302F3B"/>
<path d="M110.419 124.282C106.016 129.341 115.093 139.14 122.781 132.006C130.468 124.872 116.777 116.977 110.419 124.282Z" fill="white"/>
<path d="M202.636 101.917C220.275 101.9 230.01 132.088 206.966 139.192C183.919 146.295 180.201 101.938 202.636 101.917Z" fill="#302F3B"/>
<path d="M205.268 107.653C210.712 111.554 204.127 123.198 195.012 118.04C185.896 112.882 197.408 102.02 205.268 107.653Z" fill="white"/>
<path d="M90.552 146.509C90.2795 146.305 124.456 131.364 132.254 154.569C140.051 177.776 101.747 160.049 101.975 159.925" fill="#F2F2F2"/>
<path d="M228.06 122.206C228.247 121.921 191.038 119.608 191.621 144.09C192.206 168.573 222.155 138.771 221.9 138.734" fill="#F2F2F2"/>
<path d="M111.442 181.129C119.563 175.944 121.955 165.149 116.785 157.016C111.615 148.884 100.841 146.494 92.7204 151.679C84.5997 156.863 82.2076 167.659 87.3775 175.791C92.5474 183.924 103.322 186.313 111.442 181.129Z" fill="#DC4167"/>
<path d="M235.163 159.267C243.284 154.083 245.676 143.287 240.506 135.155C235.336 127.022 224.562 124.633 216.441 129.817C208.32 135.002 205.928 145.798 211.098 153.93C216.268 162.063 227.042 164.452 235.163 159.267Z" fill="#DC4167"/>
<path d="M111.325 42.1996C111.031 43.4229 110.075 44.9561 108.618 46.6194C105.607 50.0874 100.456 54.0721 94.6406 56.7831C86.6749 60.495 77.476 61.8079 70.7742 56.0931C67.7164 53.4937 65.8205 42.2985 66.1679 34.0812C66.328 30.2091 66.991 27.0057 68.2719 25.6766C72.8566 20.8967 77.3469 18.324 81.5925 17.3376C99.2707 13.2 112.768 36.3783 111.325 42.1996Z" fill="#FF6D59"/>
<path opacity="0.2" d="M94.6511 56.7818C86.6846 60.4941 77.4849 61.807 70.7826 56.0918C67.7245 53.4922 65.8284 42.2961 66.1758 34.0781C75.8027 35.7481 89.452 40.9629 94.6511 56.7818Z" fill="#302F3B"/>
<path opacity="0.2" d="M111.32 42.2024C111.025 43.4258 110.069 44.9593 108.613 46.6228C99.5547 43.5703 87.0518 36.0299 81.5821 17.3366C99.2634 13.1983 112.763 36.3802 111.32 42.2024Z" fill="#302F3B"/>
<path d="M212.432 55.5059C211.175 55.5123 209.461 54.9493 207.503 53.9294C203.426 51.8287 198.342 47.7723 194.337 42.7643C188.853 35.9047 185.406 27.2736 189.367 19.3912C191.167 15.796 201.582 11.2779 209.638 9.65368C213.433 8.88485 216.698 8.76389 218.291 9.69131C224.013 13.0078 227.571 16.7601 229.53 20.6523C237.723 36.8551 218.421 55.5181 212.432 55.5059Z" fill="#FFDE00"/>
<path d="M194.338 42.7559C188.854 35.8959 185.407 27.2643 189.368 19.3813C191.168 15.7859 201.584 11.2676 209.641 9.64328C210.295 19.4023 208.46 33.9202 194.338 42.7559Z" fill="#E8A226"/>
<path d="M212.432 55.5122C211.175 55.5186 209.461 54.9555 207.503 53.9356C208.326 44.399 212.687 30.4426 229.532 20.6588C237.724 36.861 218.421 55.5244 212.432 55.5122Z" fill="#E8A226"/>
<path d="M36.3304 222.747C35.5275 221.781 34.8717 220.099 34.4112 217.937C33.4379 213.45 33.3304 206.939 34.642 200.654C36.4393 192.046 40.8966 183.88 49.4866 181.912C53.3988 181.01 63.501 186.168 69.8741 191.35C72.8792 193.789 75.0479 196.232 75.3455 198.053C76.4284 204.585 75.7994 209.723 74.0476 213.719C66.7744 230.376 40.129 227.379 36.3304 222.747Z" fill="#00C0C3"/>
<path opacity="0.2" d="M34.639 200.643C36.4358 192.038 40.892 183.875 49.4799 181.907C53.3911 181.005 63.4907 186.161 69.8622 191.342C62.762 198.068 50.4168 205.907 34.639 200.643Z" fill="#302F3B"/>
<path opacity="0.2" d="M36.3461 222.752C35.5434 221.786 34.8879 220.105 34.4275 217.945C42.2928 212.502 55.811 206.971 74.049 213.73C66.7796 230.376 40.1433 227.38 36.3461 222.752Z" fill="#302F3B"/>
</svg>
