<svg width="206" height="236" viewBox="0 0 206 236" fill="none" xmlns="http://www.w3.org/2000/svg">
<path d="M39.7787 227.623C40.2181 228.017 40.6544 228.394 41.1255 228.78C57.9908 242.593 85.7097 243.551 85.7097 243.551L83.1717 230.445L79.9763 213.912C79.9763 213.912 62.2682 216.234 48.3505 207.21C34.5572 198.214 24.807 214.066 39.7787 227.623Z" fill="#363636"/>
<path opacity="0.2" d="M33.2994 228.755C33.7388 229.149 34.1752 229.525 34.6464 229.912C51.5144 243.728 79.2377 244.686 79.2377 244.686L76.6992 231.577C70.6607 233.075 50.8257 236.978 33.2994 228.755Z" fill="#302F3B"/>
<path d="M227.641 231.901C227.641 231.901 178.725 240.501 80.2552 257.814C73.8049 239.116 75.5421 221.18 78.6521 208.341C81.4573 196.731 85.3899 189.305 85.3899 189.305L190.944 159.48C200.931 165.28 208.195 173.088 213.486 181.427C228.189 204.584 227.641 231.901 227.641 231.901Z" fill="#363636"/>
<path d="M118.843 183.424C118.843 183.424 114.619 213.988 123.499 250.2C164.326 243.022 184.605 239.457 184.605 239.457C184.605 239.457 179.97 189.908 161.474 164.665L118.843 183.424Z" fill="#F2F2F2"/>
<path opacity="0.2" d="M213.495 181.431C153.66 220.437 99.1158 213.2 78.6542 208.35C81.4595 196.739 85.3923 189.311 85.3923 189.311L190.952 159.48C200.94 165.282 208.204 173.09 213.495 181.431Z" fill="#302F3B"/>
<path d="M249.418 139.346C245.948 150.033 225.323 161.985 198.073 172.397C166.285 184.529 125.504 194.562 92.4359 198.034C69.8282 200.407 50.8332 199.729 40.7875 194.539C33.4831 190.783 28.2691 182.696 25.21 171.963C12.5826 127.705 36.8435 38.5079 104.827 23.2951C171.533 8.35748 239.583 83.5123 249.181 124.053C250.594 130.036 250.746 135.266 249.418 139.346Z" fill="#363636"/>
<path d="M124.113 33.2947C122.113 39.0534 146.9 45.4483 149.829 39.3947C152.758 33.3424 127.784 22.7265 124.113 33.2947Z" fill="white"/>
<path d="M219.928 119.312C220.309 136.462 208.75 157.086 198.061 172.384C166.272 184.517 125.49 194.55 92.42 198.022C75.2284 192.256 49.036 179.218 44.9107 152.698C38.6815 112.673 61.2699 85.5093 86.0808 83.8061C101.948 82.7175 113.979 109.771 122.803 123.102C127.777 130.616 133.824 127.797 133.824 127.797C133.824 127.797 140.096 127.397 140.365 117.366C140.773 102.189 137.21 74.4378 154.811 67.7571C184.026 56.6637 219.222 87.6055 219.928 119.312Z" fill="#F2F2F2"/>
<path opacity="0.2" d="M249.416 139.28C245.945 149.977 225.314 161.941 198.056 172.362C166.259 184.506 125.467 194.548 92.3892 198.023C69.7752 200.399 50.7747 199.72 40.7262 194.526C33.4198 190.766 28.2043 182.672 25.1443 171.928C42.6576 179.593 88.8471 195.485 144.851 180.197C200.827 164.932 236.315 135.932 249.179 123.971C250.592 129.961 250.744 135.196 249.416 139.28Z" fill="#302F3B"/>
<path d="M137.215 137.48C144.89 135.302 147.529 124.502 146.498 122.731C145.467 120.96 123.352 128.378 121.726 130.157C120.102 131.935 128.182 140.044 137.215 137.48Z" fill="#E3841F"/>
<path d="M130.193 116.155C140.187 112.704 151.28 122.434 151.51 125.139C151.738 127.843 122.068 136.548 118.948 135.847C115.827 135.148 118.428 120.219 130.193 116.155Z" fill="#E8A226"/>
<path d="M77.6563 101.499C60.7849 106.533 60.1044 138.14 84.1715 138.324C108.238 138.507 99.1149 95.0964 77.6563 101.499Z" fill="#302F3B"/>
<path d="M82.4653 133.323C82.5746 136.94 93.3163 133.149 92.8263 130.635C92.3365 128.123 82.3959 130.988 82.4653 133.323Z" fill="white"/>
<path d="M72.3363 127.172C70.5069 129.533 74.8123 133.662 78.0511 130.293C81.2909 126.923 74.9791 123.759 72.3363 127.172Z" fill="white"/>
<path d="M76.9638 108.088C72.872 113.37 82.5007 122.603 89.7443 115.068C96.9894 107.534 82.8727 100.459 76.9638 108.088Z" fill="white"/>
<path d="M52.269 142.996C49.1947 150.237 69.7341 159.863 72.7463 146.666C74.607 138.516 55.3447 135.754 52.269 142.996Z" fill="#DC4167"/>
<path d="M208.493 109.994C214.939 114.524 202.595 133.513 193.049 123.894C187.152 117.952 202.048 105.462 208.493 109.994Z" fill="#DC4167"/>
<path d="M170.991 85.0726C188.573 84.0505 200.058 113.517 177.503 121.895C154.949 130.272 148.627 86.3723 170.991 85.0726Z" fill="#302F3B"/>
<path d="M177.439 116.225C178.579 119.66 167.182 119.761 166.781 117.233C166.379 114.706 176.703 114.007 177.439 116.225Z" fill="white"/>
<path d="M184.851 106.987C187.381 108.584 184.751 113.93 180.551 111.869C176.35 109.808 181.197 104.684 184.851 106.987Z" fill="white"/>
<path d="M173.962 90.6364C179.62 94.2065 173.739 106.163 164.346 101.552C154.953 96.9435 165.791 85.4816 173.962 90.6364Z" fill="white"/>
</svg>
