<svg width="231" height="266" viewBox="0 0 231 266" fill="none" xmlns="http://www.w3.org/2000/svg">
<path d="M53.7907 148.976C53.7907 148.976 40.145 154.476 39.6412 170.391C39.1375 186.306 58.0877 191.814 58.0877 191.814" fill="#E3841F"/>
<path d="M277.362 128.221L246.379 134.518C244.796 124.721 231.228 58.1862 158.005 76.0089C83.1128 94.2381 100.951 154.496 104.075 163.492L73.1854 169.767C73.1854 169.767 33.6884 70.777 150.079 42.4132C263.574 14.7884 277.362 128.221 277.362 128.221Z" fill="#F1CD30"/>
<path d="M127.849 74.5985L118.332 53.8426C117.182 51.3355 118.38 48.3705 120.954 47.3814C130.378 43.7615 152.396 36.2082 172.845 35.8491C175.643 35.7998 177.845 38.2365 177.612 41.0299C176.241 57.4509 175.861 73.5497 175.861 73.5497" fill="#E8A226"/>
<path d="M97.4065 129.868C97.4065 129.868 68.865 122.362 57.0637 128.776C45.2624 135.19 46.2147 203.462 57.8552 212.491C69.4958 221.521 95.1118 207.487 95.1118 207.487L97.4065 129.868Z" fill="#E8A226"/>
<path d="M273.513 259.82C273.513 259.82 224.112 268.558 124.667 286.15C118.165 267.22 119.93 249.057 123.078 236.053C125.918 224.296 129.894 216.775 129.894 216.775L236.501 186.509C246.582 192.376 253.913 200.278 259.25 208.719C274.085 232.158 273.513 259.82 273.513 259.82Z" fill="#363636"/>
<path d="M175.089 208.77C175.089 208.77 175.308 238.942 183.098 275.831C204.657 272.018 215.365 270.123 215.365 270.123C215.365 270.123 208.781 220.266 196.674 193.54L175.089 208.77Z" fill="#F2F2F2"/>
<path opacity="0.2" d="M259.241 208.71C198.803 248.229 143.734 240.937 123.078 236.04C125.917 224.286 129.893 216.766 129.893 216.766L236.493 186.507C246.573 192.371 253.904 200.271 259.241 208.71Z" fill="#302F3B"/>
<path d="M299.375 172.349C295.855 183.17 275.001 195.295 247.456 205.87C215.324 218.193 174.11 228.403 140.697 231.962C117.854 234.395 98.6631 233.734 88.521 228.496C81.1465 224.704 75.8899 216.526 72.8138 205.666C60.1165 160.888 84.7483 70.575 153.452 55.0851C220.865 39.8754 289.514 115.85 299.157 156.87C300.576 162.925 300.723 168.219 299.375 172.349Z" fill="#363636"/>
<path d="M172.825 65.0994C170.797 70.9291 195.827 77.3664 198.794 71.2382C201.761 65.1086 176.548 54.4005 172.825 65.0994Z" fill="white"/>
<path d="M269.635 152.149C269.997 169.504 258.291 190.392 247.472 205.887C215.342 218.209 174.13 228.418 140.718 231.976C123.358 226.165 96.9165 213.006 92.7864 186.173C86.5479 145.676 109.404 118.156 134.47 116.398C150.501 115.275 162.618 142.637 171.514 156.116C176.529 163.714 182.641 160.852 182.641 160.852C182.641 160.852 188.978 160.439 189.263 150.288C189.696 134.927 186.133 106.848 203.924 100.063C233.451 88.7987 268.964 120.063 269.635 152.149Z" fill="#F2F2F2"/>
<path opacity="0.2" d="M299.378 172.433C295.858 183.241 275.013 195.352 247.477 205.915C215.357 218.223 174.157 228.42 140.756 231.975C117.921 234.405 98.7373 233.745 88.5988 228.513C81.227 224.725 75.9722 216.557 72.8972 205.71C90.5692 213.429 137.183 229.417 193.748 213.9C250.285 198.407 286.155 169.07 299.159 156.972C300.578 163.021 300.725 168.308 299.378 172.433Z" fill="#302F3B"/>
<path d="M180.449 162.788C188.964 161.51 193.301 150.301 192.448 148.263C191.593 146.224 166.897 151.133 164.909 152.815C162.92 154.497 170.425 164.293 180.449 162.788Z" fill="#E3841F"/>
<path d="M175.922 138.96C187.098 136.637 197.598 148.585 197.464 151.515C197.329 154.445 164.369 159.692 161.13 158.514C157.89 157.335 162.767 141.697 175.922 138.96Z" fill="#E8A226"/>
<path d="M224.719 183.53C225.273 184 225.807 184.47 226.361 184.981C246.102 203.257 251.938 237.014 251.938 237.014L235.474 236.151L214.706 235.072C214.706 235.072 214.567 213.003 201.182 197.516C187.852 182.174 205.608 167.528 224.719 183.53Z" fill="#363636"/>
<path opacity="0.2" d="M224.704 183.531C225.259 184.002 225.793 184.472 226.347 184.983C246.098 203.262 251.937 237.025 251.937 237.025L235.465 236.162C236.282 228.515 237.722 203.573 224.704 183.531Z" fill="#302F3B"/>
<path d="M146.456 197.36C146.095 197.993 145.753 198.618 145.407 199.288C133.082 223.241 139.096 256.967 139.096 256.967L154.273 250.502L173.421 242.355C173.421 242.355 166.035 221.57 173.338 202.42C180.636 183.425 158.963 175.761 146.456 197.36Z" fill="#363636"/>
<path opacity="0.2" d="M146.469 197.348C146.108 197.981 145.766 198.606 145.42 199.277C133.088 223.234 139.105 256.965 139.105 256.965L154.29 250.499C150.916 243.594 141.066 220.651 146.469 197.348Z" fill="#302F3B"/>
<path d="M125.783 134.158C108.738 139.268 108.032 171.288 132.342 171.46C156.652 171.631 147.463 127.659 125.783 134.158Z" fill="#302F3B"/>
<path d="M130.63 166.398C130.738 170.061 141.587 166.215 141.094 163.671C140.601 161.127 130.562 164.034 130.63 166.398Z" fill="white"/>
<path d="M120.403 160.167C118.554 162.56 122.9 166.739 126.173 163.325C129.447 159.91 123.074 156.709 120.403 160.167Z" fill="white"/>
<path d="M125.075 140.826C120.939 146.18 130.659 155.526 137.979 147.889C145.301 140.253 131.048 133.095 125.075 140.826Z" fill="white"/>
<path d="M220.016 117.507C237.776 116.462 249.36 146.309 226.575 154.809C203.789 163.308 197.428 118.835 220.016 117.507Z" fill="#302F3B"/>
<path d="M226.519 149.069C227.668 152.547 216.16 152.655 215.756 150.096C215.352 147.537 225.777 146.824 226.519 149.069Z" fill="white"/>
<path d="M234.002 139.706C236.556 141.322 233.898 146.738 229.658 144.652C225.416 142.567 230.313 137.374 234.002 139.706Z" fill="white"/>
<path d="M223.012 123.135C228.724 126.749 222.778 138.863 213.295 134.198C203.81 129.534 214.763 117.918 223.012 123.135Z" fill="white"/>
</svg>
