<svg width="379" height="383" viewBox="0 0 379 383" fill="none" xmlns="http://www.w3.org/2000/svg">
<path d="M310.565 382.998C310.565 382.998 231.284 382.998 71.6894 382.998C66.7476 351.787 74.4639 324.04 82.9214 304.694C90.5578 287.2 98.8034 276.603 98.8034 276.603L273.012 258.871C287.098 270.762 296.346 285.06 302.345 299.648C319.022 340.159 310.565 382.998 310.565 382.998Z" fill="#363636"/>
<path d="M171.349 276.597C171.349 276.597 163.438 323.539 165.471 382.998C200.055 382.998 217.234 382.998 217.234 382.998C217.234 382.998 220.624 303.72 209.096 258.865L171.349 276.597Z" fill="#F2F2F2"/>
<path opacity="0.2" d="M302.347 299.648C197.458 344.468 113.737 317.989 82.9233 304.696C90.5597 287.202 98.8054 276.605 98.8054 276.605L273.014 258.873C287.098 270.762 296.349 285.06 302.347 299.648Z" fill="#302F3B"/>
<path d="M374.735 254.316C366.303 270.172 330.548 283.279 284.803 292.132C231.446 302.44 164.533 306.958 111.574 303.284C75.369 300.774 45.69 294.457 31.3399 283.517C20.901 275.589 14.9545 261.425 13.1329 243.691C5.60022 170.566 68.5776 36.9254 179.703 31.7718C288.742 26.6982 374.815 163.749 378.62 230.188C379.175 239.994 377.959 248.265 374.735 254.316Z" fill="#363636"/>
<path d="M207.184 52.7655C202.437 61.2727 239.627 78.1812 245.917 69.4688C252.208 60.7542 215.899 37.1535 207.184 52.7655Z" fill="white"/>
<path d="M333.958 214.675C329.783 241.763 305.867 271.018 284.803 292.132C231.446 302.439 164.534 306.957 111.574 303.284C86.1497 289.463 48.5989 261.714 49.4978 218.849C50.8461 154.156 93.9223 117.66 133.405 121.835C158.654 124.506 170.04 170.393 180.202 193.805C185.93 207.002 196.222 204.236 196.222 204.236C196.222 204.236 206.195 205.34 209.41 189.633C214.276 165.866 216.398 121.221 245.932 115.573C294.951 106.192 341.674 164.595 333.958 214.675Z" fill="#F2F2F2"/>
<path opacity="0.2" d="M374.735 254.319C366.303 270.176 330.548 283.283 284.803 292.136C231.446 302.443 164.533 306.962 111.574 303.288C75.3689 300.777 45.69 294.461 31.3399 283.521C20.9009 275.593 14.9544 261.429 13.1328 243.695C38.529 260.582 106.712 298.32 198.994 289.757C291.225 281.222 355.073 245.438 378.62 230.189C379.175 239.997 377.959 248.269 374.735 254.319Z" fill="#302F3B"/>
<path d="M192.291 206.662C205.892 207.021 215.702 190.782 214.93 187.376C214.157 183.969 174.385 184.799 170.832 186.867C167.278 188.934 176.282 206.241 192.291 206.662Z" fill="#E3841F"/>
<path d="M191.758 168.363C209.783 167.83 222.861 189.308 221.852 193.829C220.843 198.349 168.118 197.426 163.399 194.702C158.68 191.975 170.538 168.994 191.758 168.363Z" fill="#E8A226"/>
<path d="M193.134 321.254C193.134 321.254 153.782 300.706 138.102 262.777C122.79 225.735 163.456 197.964 191.898 232.088C212.874 197.865 264.051 223.811 248.443 262.266C232.845 300.696 193.134 321.254 193.134 321.254Z" fill="#FF4B4B"/>
<path d="M193.128 325.52L191.382 324.61C189.726 323.746 150.624 302.98 134.603 264.222C128.318 249.018 129.481 227.863 146.889 217.348C157.699 210.818 175.444 209.557 191.51 226.004C203.708 210.411 222.256 209.797 235.217 216.346C249.586 223.602 260.952 241.515 251.953 263.688C236.012 302.963 196.548 323.75 194.875 324.615L193.128 325.52ZM163.001 220.34C158.983 220.34 154.864 221.381 150.808 223.832C140.968 229.776 134.306 243.675 141.604 261.33C154.705 293.021 185.483 312.46 193.143 316.914C200.846 312.465 231.897 292.964 244.937 260.842C252.173 243.013 243.554 229.043 231.804 223.108C220.419 217.359 204.664 218.518 195.129 234.067L192.37 238.568L188.99 234.512C182.794 227.079 173.223 220.34 163.001 220.34Z" fill="#FF9797"/>
<path d="M255.496 251.006C256.231 251.89 256.933 252.767 257.654 253.713C283.373 287.548 283.23 341.616 283.23 341.616L257.853 335.745L225.838 328.353C225.838 328.353 231.651 294.017 215.058 266.266C198.513 238.754 230.136 220.88 255.496 251.006Z" fill="#363636"/>
<path opacity="0.2" d="M255.496 251.008C256.23 251.892 256.932 252.769 257.654 253.715C283.372 287.55 283.23 341.618 283.23 341.618L257.853 335.747C261.211 324.089 270.263 285.73 255.496 251.008Z" fill="#302F3B"/>
<path d="M129.892 251.006C129.157 251.89 128.455 252.767 127.733 253.713C102.015 287.548 102.157 341.616 102.157 341.616L127.534 335.745L159.549 328.353C159.549 328.353 153.736 294.017 170.329 266.266C186.873 238.754 155.249 220.88 129.892 251.006Z" fill="#363636"/>
<path opacity="0.2" d="M129.892 251.008C129.157 251.892 128.455 252.769 127.733 253.715C102.015 287.55 102.157 341.618 102.157 341.618L127.534 335.747C124.174 324.089 115.124 285.73 129.892 251.008Z" fill="#302F3B"/>
<path d="M115.026 147.15C87.0995 150.406 77.2374 199.967 115.026 206.914C152.815 213.859 150.546 143.007 115.026 147.15Z" fill="#302F3B"/>
<path d="M113.743 198.579C112.908 204.301 130.848 201.306 130.776 197.215C130.705 193.127 114.283 194.886 113.743 198.579Z" fill="white"/>
<path d="M99.5314 186.087C95.9984 189.298 101.619 196.987 107.647 192.581C113.678 188.172 104.635 181.448 99.5314 186.087Z" fill="white"/>
<path d="M112.101 157.324C104.199 164.507 116.768 181.7 130.252 171.845C143.737 161.992 123.512 146.952 112.101 157.324Z" fill="white"/>
<path d="M266.277 147.15C294.204 150.406 304.066 199.967 266.277 206.914C228.489 213.859 230.758 143.007 266.277 147.15Z" fill="#302F3B"/>
<path d="M267.758 197.978C268.594 203.7 250.653 200.705 250.724 196.616C250.795 192.528 267.217 194.285 267.758 197.978Z" fill="white"/>
<path d="M281.97 185.487C285.503 188.7 279.883 196.386 273.854 191.98C267.823 187.574 276.866 180.849 281.97 185.487Z" fill="white"/>
<path d="M269.401 156.725C277.303 163.91 264.733 181.102 251.25 171.246C237.764 161.393 257.989 146.351 269.401 156.725Z" fill="white"/>
<path d="M289.771 11.8027C289.771 24.1139 279.791 34.0937 267.481 34.0937C279.789 34.0937 289.771 44.0734 289.771 56.383C289.771 44.0734 299.75 34.0937 312.062 34.0937C299.752 34.092 289.771 24.1123 289.771 11.8027Z" fill="#FFCF01"/>
<path d="M22.2893 81.2949C22.2893 93.6045 12.3096 103.586 0 103.586C12.3079 103.586 22.2893 113.566 22.2893 125.875C22.2893 113.564 32.269 103.586 44.5802 103.586C32.2706 103.586 22.2893 93.6045 22.2893 81.2949Z" fill="#FFCF01"/>
<path d="M248.47 0C248.47 5.43124 244.067 9.83387 238.636 9.83387C244.065 9.83387 248.47 14.2365 248.47 19.6677C248.47 14.2365 252.872 9.83387 258.303 9.83387C252.872 9.83387 248.47 5.43124 248.47 0Z" fill="#FFCF01"/>
<path d="M56.3809 52.4473C56.3809 57.8785 52.2718 62.2811 47.2026 62.2811C52.2702 62.2811 56.3809 66.6838 56.3809 72.115C56.3809 66.6838 60.49 62.2811 65.5592 62.2811C60.49 62.2811 56.3809 57.8785 56.3809 52.4473Z" fill="#FFCF01"/>
</svg>
