<svg width="215" height="265" viewBox="0 0 215 265" fill="none" xmlns="http://www.w3.org/2000/svg">
<path d="M36.821 162.781C36.821 162.781 14.0562 138.216 26.0051 101.62C33.0733 107.737 36.488 106.217 36.488 106.217C36.488 106.217 19.5597 65.0398 64.6656 35.0331C74.2588 48.9835 86.3268 49.6224 86.3268 49.6224C86.3268 49.6224 76.9513 23.2152 83.7714 13.2779C102.183 29.8175 160.295 11.9108 177.43 42.6685C186.911 32.3976 198.892 29.8321 198.892 29.8321C198.892 29.8321 189.79 48.6764 206.929 64.867C224.068 81.0576 265.214 106.882 245.249 140.942" fill="#FFC200"/>
<path d="M46.5441 147.592C46.5441 147.592 32.2542 131.773 33.8748 117.5C48.5462 119.737 61.4243 112.656 61.4243 112.656C61.4243 112.656 37.8888 82.9179 56.2679 51.4326C82.5343 72.3704 113.009 62.4141 113.009 62.4141C113.009 62.4141 89.7804 53.1599 91.3803 28.504C136.543 28.8428 177.97 26.2978 173.118 75.6026" fill="#FF4B4B"/>
<path d="M232.888 257.402C232.888 257.402 183.61 266.066 84.4113 283.507C77.9132 264.671 79.6633 246.601 82.7964 233.667C85.6223 221.972 89.584 214.491 89.584 214.491L195.92 184.444C205.981 190.287 213.299 198.153 218.629 206.554C233.442 229.883 232.888 257.402 232.888 257.402Z" fill="#363636"/>
<path d="M123.285 208.572C123.285 208.572 119.029 239.362 127.974 275.842C169.103 268.611 189.532 265.02 189.532 265.02C189.532 265.02 184.863 215.104 166.23 189.674L123.285 208.572Z" fill="#F2F2F2"/>
<path opacity="0.2" d="M218.638 206.562C158.36 245.857 103.412 238.567 82.7986 233.681C85.6247 221.983 89.5866 214.501 89.5866 214.501L195.928 184.449C205.988 190.294 213.308 198.16 218.638 206.562Z" fill="#302F3B"/>
<path d="M258.895 176.288C254.918 186.885 233.617 197.977 205.717 207.219C173.174 217.986 131.675 226.233 98.2355 228.228C75.3752 229.592 56.2878 228.047 46.4135 222.37C39.2324 218.258 34.3532 209.883 31.7613 198.943C21.0645 153.834 49.5324 65.1712 118.646 52.9455C186.459 40.9384 251.533 119.656 259.351 160.887C260.501 166.972 260.416 172.242 258.895 176.288Z" fill="#363636"/>
<path d="M137.605 63.8777C135.33 69.5821 159.987 77.1418 163.209 71.1827C166.433 65.2231 141.78 53.4081 137.605 63.8777Z" fill="white"/>
<path d="M230.125 154.79C229.729 172.066 217.158 192.297 205.706 207.207C173.162 217.975 131.661 226.222 98.2195 228.218C81.1801 221.635 55.4097 207.327 52.4635 180.451C48.012 139.889 71.9805 113.578 97.0283 112.99C113.047 112.614 123.926 140.385 132.202 154.201C136.866 161.988 143.08 159.425 143.08 159.425C143.08 159.425 149.41 159.307 150.138 149.225C151.238 133.97 148.913 105.882 166.931 99.9561C196.838 90.1164 230.855 122.85 230.125 154.79Z" fill="#F2F2F2"/>
<path d="M76.4735 140.495C71.7309 151.379 75.8758 166.883 92.6356 167.769C106.13 168.484 109.862 155.097 106.732 144.052" fill="#302F3B"/>
<path d="M83.6007 143.617C80.5216 150.683 83.213 160.746 94.0923 161.322C102.852 161.785 105.274 153.096 103.243 145.925" fill="#FF4B4B"/>
<path d="M188.604 119.317C202.18 124.992 207.537 148.981 187.314 155.469C172.481 160.228 165.374 143.547 168.184 130.949" fill="#302F3B"/>
<path d="M185.296 122.172C194.628 126.073 198.312 142.567 184.409 147.027C174.212 150.299 169.325 138.831 171.256 130.17" fill="#FF4B4B"/>
<path opacity="0.2" d="M258.894 176.222C254.915 186.83 233.608 197.933 205.7 207.185C173.148 217.963 131.636 226.218 98.1869 228.215C75.32 229.58 56.227 228.034 46.3498 222.35C39.1666 218.235 34.286 209.851 31.6934 198.9C48.9717 207.41 94.7371 225.499 151.796 212.656C208.826 199.833 245.86 172.259 259.349 160.805C260.5 166.896 260.415 172.172 258.894 176.222Z" fill="#302F3B"/>
<path d="M143.653 167.825C154.025 165.994 159.655 156.216 158.685 154.584C157.714 152.952 127.589 159.27 125.122 160.856C122.656 162.444 131.443 169.982 143.653 167.825Z" fill="#E3841F"/>
<path d="M138.945 148.279C152.58 145.335 164.931 154.408 164.672 156.875C164.414 159.341 124.252 166.681 120.359 165.982C116.468 165.284 122.894 151.745 138.945 148.279Z" fill="#E8A226"/>
<path d="M82.2104 157.467C80.2617 159.761 84.4089 164.113 87.8202 160.869C91.2332 157.626 85.0239 154.154 82.2104 157.467Z" fill="white"/>
<path d="M66.953 167.891C64.97 172.033 76.6921 178.185 78.7967 170.57C80.0959 165.866 68.936 163.75 66.953 167.891Z" fill="#FF4B4B"/>
<path d="M212.556 144.615C215.906 147.203 208.819 157.095 203.928 151.701C200.907 148.37 209.205 142.027 212.556 144.615Z" fill="#FF4B4B"/>
<path d="M180.659 143.387C183.133 145.109 180.244 150.371 176.111 148.105C171.978 145.839 177.087 140.901 180.659 143.387Z" fill="white"/>
<path d="M224.397 266.036C224.535 265.46 224.662 264.894 224.781 264.291C229.002 242.771 216.625 217.747 216.625 217.747L206.196 226.23L193.034 236.924C193.034 236.924 203.547 251.517 202.172 268.145C200.765 284.652 219.499 285.755 224.397 266.036Z" fill="#363636"/>
<path opacity="0.2" d="M224.401 266.033C224.54 265.457 224.667 264.892 224.786 264.289C229.006 242.771 216.632 217.748 216.632 217.748L206.205 226.231C210.416 230.87 223.344 246.591 224.401 266.033Z" fill="#302F3B"/>
<path d="M98.5912 290.943C98.2629 290.449 97.9493 289.959 97.6308 289.434C86.2781 270.651 89.3192 242.918 89.3192 242.918L102.031 247.334L118.07 252.898C118.07 252.898 113.2 270.194 120.199 285.35C127.187 300.382 109.962 307.803 98.5912 290.943Z" fill="#363636"/>
<path opacity="0.2" d="M98.5878 290.945C98.2596 290.451 97.9461 289.961 97.6277 289.436C86.278 270.655 89.3183 242.924 89.3183 242.924L102.027 247.34C99.6625 253.136 92.9092 272.316 98.5878 290.945Z" fill="#302F3B"/>
<path d="M112.453 147.739C112.108 147.799 111.747 147.807 111.382 147.755L67.3515 141.496C65.4862 141.23 64.1898 139.506 64.4534 137.645C64.7168 135.783 66.4466 134.491 68.3071 134.753L112.337 141.013C114.203 141.278 115.499 143.002 115.235 144.863C115.024 146.361 113.868 147.49 112.453 147.739Z" fill="#302F3B"/>
<path d="M162.438 137.706C161.087 137.944 159.667 137.347 158.919 136.101C157.951 134.486 158.476 132.395 160.092 131.429L198.24 108.627C199.856 107.664 201.948 108.186 202.918 109.8C203.886 111.415 203.361 113.506 201.745 114.472L163.597 137.274C163.229 137.494 162.836 137.636 162.438 137.706Z" fill="#302F3B"/>
</svg>
