<svg width="368" height="361" viewBox="0 0 368 361" fill="none" xmlns="http://www.w3.org/2000/svg">
<path d="M350.189 306.605C349.681 307.253 349.173 307.876 348.619 308.522C328.795 331.606 290.922 339.624 290.922 339.624L291.223 320.977L291.593 297.455C291.593 297.455 316.501 296.369 333.439 280.587C350.212 264.874 367.472 284.33 350.189 306.605Z" fill="#363636"/>
<path opacity="0.2" d="M350.189 306.604C349.681 307.252 349.173 307.875 348.619 308.521C328.795 331.604 290.922 339.623 290.922 339.623L291.223 320.975C299.887 321.576 328.1 322.154 350.189 306.604Z" fill="#302F3B"/>
<path d="M43.1574 306.601C43.6657 307.249 44.1739 307.872 44.7293 308.518C64.5555 331.602 102.426 339.62 102.426 339.62L102.126 320.973L101.755 297.451C101.755 297.451 76.8472 296.365 59.9097 280.584C43.1348 264.87 25.8743 284.326 43.1574 306.601Z" fill="#363636"/>
<path opacity="0.2" d="M43.1572 306.602C43.6654 307.25 44.1737 307.873 44.7291 308.519C64.5553 331.602 102.426 339.621 102.426 339.621L102.126 320.973C93.4594 321.574 65.2467 322.152 43.1572 306.602Z" fill="#302F3B"/>
<path d="M299.701 358.266C299.701 358.266 230.383 358.266 90.8446 358.266C86.5238 330.978 93.2705 306.717 100.665 289.802C107.342 274.507 114.551 265.242 114.551 265.242L266.867 249.738C279.184 260.135 287.27 272.636 292.514 285.391C307.094 320.811 299.701 358.266 299.701 358.266Z" fill="#363636"/>
<path d="M161.95 265.24C161.95 265.24 148.714 306.283 152.118 358.27C209.982 358.27 238.723 358.27 238.723 358.27C238.723 358.27 244.397 288.954 225.109 249.736L161.95 265.24Z" fill="#F2F2F2"/>
<path opacity="0.2" d="M292.514 285.391C200.807 324.579 127.606 301.427 100.665 289.804C107.342 274.509 114.551 265.244 114.551 265.244L266.867 249.74C279.184 260.135 287.27 272.636 292.514 285.391Z" fill="#302F3B"/>
<path d="M352.038 249.46C343.875 262.872 311.999 272.496 271.619 277.899C224.523 284.185 165.887 284.729 119.849 278.832C88.3737 274.801 62.7909 267.78 50.8223 257.502C42.1146 250.053 37.6427 237.385 36.9531 221.816C34.0946 157.606 95.8534 44.1549 193.112 45.3036C288.545 46.4145 356.711 170.414 356.656 228.598C356.641 237.183 355.16 244.342 352.038 249.46Z" fill="#363636"/>
<path d="M216.031 65.0247C211.453 72.2097 243.057 88.8581 248.99 81.5711C254.924 74.2842 224.431 51.8394 216.031 65.0247Z" fill="white"/>
<path d="M318.969 204.017C313.794 230.091 291.266 257.267 271.688 276.687C224.533 283.978 165.873 284.964 119.853 278.708C98.444 264.004 67.233 235.168 70.4391 193.617C75.27 130.904 114.93 97.677 149.158 103.734C171.047 107.609 178.393 152.718 185.941 175.954C190.195 189.05 199.334 186.889 199.334 186.889C199.334 186.889 207.975 188.467 211.671 173.388C217.261 150.571 221.637 107.354 247.731 103.373C291.051 96.7588 328.534 155.81 318.969 204.017Z" fill="#F2F2F2"/>
<path opacity="0.2" d="M352.039 249.458C343.875 262.87 311.999 272.495 271.619 277.898C224.523 284.184 165.887 284.728 119.849 278.831C88.3738 274.799 62.791 267.779 50.8224 257.501C42.1146 250.052 37.6427 237.384 36.9531 221.814C58.2624 237.845 115.857 274.248 196.843 271.463C277.78 268.699 335.328 240.709 356.656 228.597C356.641 237.182 355.16 244.34 352.039 249.458Z" fill="#302F3B"/>
<path d="M200.614 209.356C211.903 209.645 219.894 187.877 218.804 183.87C217.714 179.863 182.915 183.762 180.251 186.235C177.587 188.706 187.325 209.016 200.614 209.356Z" fill="#E3841F"/>
<path d="M200.769 202.146C209.114 202.194 215.313 187.325 214.559 184.621C213.805 181.918 188.016 185.024 186.014 186.736C184.011 188.447 190.945 202.092 200.769 202.146Z" fill="#DD4C12"/>
<path d="M197.248 167.686C213.898 166.318 227.556 183.203 226.947 186.949C226.339 190.696 177.458 192.664 172.891 190.679C168.325 188.693 177.647 169.296 197.248 167.686Z" fill="#E8A226"/>
<path d="M131.973 123.984C107.431 125.409 96.3052 168.167 128.937 176.149C161.569 184.131 163.188 122.174 131.973 123.984Z" fill="#302F3B"/>
<path d="M128.904 132.714C121.642 138.582 131.74 154.227 144.011 146.311C156.28 138.395 139.39 124.241 128.904 132.714Z" fill="white"/>
<path d="M260.93 124.39C285.141 128.652 291.23 172.412 257.894 176.555C224.555 180.697 230.136 118.97 260.93 124.39Z" fill="#302F3B"/>
<path d="M263.167 132.905C269.7 139.576 257.854 153.944 246.585 144.658C235.315 135.372 253.736 123.272 263.167 132.905Z" fill="white"/>
<path d="M96.2481 158.37C95.9232 158.024 146.452 145.829 151.559 179.536C156.664 213.244 108.351 179.649 108.695 179.536" fill="#F2F2F2"/>
<path d="M290.943 158.37C291.268 158.024 240.739 145.829 235.632 179.536C230.527 213.244 278.838 179.649 278.496 179.536" fill="#F2F2F2"/>
<path d="M116.573 210.895C128.975 205.758 134.863 191.54 129.727 179.139C124.59 166.738 110.372 160.849 97.9713 165.986C85.5702 171.123 79.6813 185.34 84.8181 197.741C89.955 210.143 104.172 216.031 116.573 210.895Z" fill="#DC4167"/>
<path d="M291.755 210.889C304.156 205.752 310.045 191.535 304.908 179.133C299.771 166.732 285.554 160.843 273.153 165.98C260.752 171.117 254.863 185.334 260 197.736C265.137 210.137 279.354 216.025 291.755 210.889Z" fill="#DC4167"/>
<path d="M116.902 43.2489C116.203 44.8548 114.522 46.7252 112.122 48.6522C107.153 52.6764 99.124 56.8895 90.4899 59.1944C78.663 62.3495 65.7214 61.915 57.8998 52.4497C54.329 48.1422 54.4235 32.3288 56.8796 21.1443C58.032 15.8732 59.7135 11.6411 61.7917 10.1297C69.2355 4.68856 76.018 2.25139 82.0826 1.93021C107.342 0.551036 120.284 35.6161 116.902 43.2489Z" fill="#DC4167"/>
<path opacity="0.2" d="M90.4899 59.1947C78.663 62.3498 65.7214 61.9153 57.8998 52.45C54.329 48.1424 54.4235 32.3291 56.8796 21.1445C69.6889 25.7733 87.1648 36.2399 90.4899 59.1947Z" fill="#302F3B"/>
<path opacity="0.2" d="M116.902 43.2489C116.203 44.8547 114.522 46.7252 112.122 48.6522C100.427 42.2665 85.0865 28.8903 82.0825 1.93021C107.342 0.551036 120.284 35.6161 116.902 43.2489Z" fill="#302F3B"/>
<path d="M333.147 115.125C331.42 114.829 329.204 113.64 326.763 111.766C321.673 107.895 315.673 101.097 311.382 93.2569C305.509 82.5182 302.856 69.8449 310.19 59.998C313.527 55.5053 328.909 51.84 340.357 51.5698C345.75 51.4376 350.26 52.0648 352.223 53.7236C359.278 59.6617 363.257 65.6715 365.008 71.4848C372.35 95.6941 341.364 116.597 333.147 115.125Z" fill="#F1CD30"/>
<path d="M311.382 93.2574C305.509 82.5187 302.856 69.8454 310.19 59.9984C313.527 55.5057 328.909 51.8405 340.357 51.5703C338.904 65.1108 332.89 84.5723 311.382 93.2574Z" fill="#E8A226"/>
<path d="M333.147 115.125C331.42 114.828 329.204 113.64 326.763 111.766C330.188 98.8885 339.535 80.8099 365.01 71.4863C372.35 95.6937 341.364 116.597 333.147 115.125Z" fill="#E8A226"/>
<path d="M3.39371 249.738C2.52464 248.217 2.02965 245.751 1.91818 242.676C1.66313 236.286 3.08387 227.331 6.39768 219.031C10.9376 207.663 19.0219 197.548 31.2852 196.936C36.8718 196.649 49.4941 206.176 56.9927 214.831C60.5294 218.906 62.9175 222.783 62.8873 225.353C62.8004 234.572 60.6995 241.466 57.3328 246.52C43.3388 267.595 7.49157 257.011 3.39371 249.738Z" fill="#5BA09B"/>
<path opacity="0.2" d="M6.39746 219.031C10.9374 207.663 19.0217 197.548 31.285 196.936C36.8716 196.649 49.4939 206.176 56.9925 214.831C45.6247 222.334 26.7885 230.087 6.39746 219.031Z" fill="#302F3B"/>
<path opacity="0.2" d="M3.39399 249.736C2.52492 248.215 2.02992 245.75 1.91846 242.674C14.0288 237.116 33.921 232.812 57.3312 246.519C43.3391 267.594 7.49185 257.01 3.39399 249.736Z" fill="#302F3B"/>
</svg>
