<svg width="1920" height="854" viewBox="0 0 1920 854" fill="none" xmlns="http://www.w3.org/2000/svg">
<g clip-path="url(#clip0_382_3082)">
<rect width="1920" height="854" fill="#25B868"/>
<path opacity="0.2" d="M-439.475 65.716L-130.65 65.7161C-125.186 65.7161 -120.757 70.1457 -120.755 75.6104C-120.755 81.0738 -125.185 85.5034 -130.65 85.5047L-194.567 85.5047C-205.462 85.5047 -214.809 94.0282 -215.008 104.921C-215.211 116.019 -206.276 125.079 -195.224 125.079L-183.91 125.079C-178.744 125.079 -174.13 128.857 -173.638 134.001C-173.075 139.903 -177.702 144.867 -183.485 144.867L-280.201 144.867C-291.095 144.867 -300.442 153.39 -300.641 164.283C-300.844 175.381 -291.909 184.442 -280.857 184.442L187.126 184.442C198.02 184.442 207.368 175.918 207.566 165.025C207.77 153.927 198.834 144.867 187.783 144.867L90.8359 144.868C85.6684 144.867 81.0527 141.09 80.5633 135.946C80.0002 130.045 84.6259 125.082 90.4101 125.081L297.65 125.081C308.545 125.081 317.892 116.557 318.091 105.664C318.294 94.5663 309.359 85.5059 298.307 85.506H293.6C288.137 85.506 283.707 81.0763 283.707 75.6129C283.707 70.1494 288.137 65.7198 293.601 65.7185L399.104 65.7185C409.999 65.7186 419.346 57.195 419.545 46.3019C419.748 35.204 410.813 26.1438 399.761 26.1438L146.913 26.1412C136.019 26.1412 126.671 34.6648 126.473 45.5579C126.269 56.6557 135.205 65.716 146.257 65.716H159.808C165.271 65.716 169.701 70.1457 169.702 75.6104C169.702 81.0738 165.272 85.5034 159.808 85.5047L-67.5706 85.5047C-73.0341 85.5047 -77.4637 81.075 -77.4637 75.6116C-77.4637 70.1482 -73.0341 65.7186 -67.5707 65.7186L-57.7825 65.7185C-46.8881 65.7185 -37.5406 57.1951 -37.3421 46.302C-37.1385 35.2041 -46.0741 26.1437 -57.1258 26.1437L-440.132 26.1412C-451.183 26.1412 -460.119 35.2016 -459.915 46.2994C-459.717 57.1926 -450.369 65.716 -439.475 65.716Z" fill="#E9F8F0"/>
<path opacity="0.2" d="M1919.16 697.954L1585.51 697.952C1574.27 697.952 1564.62 706.752 1564.41 717.997C1564.2 729.454 1573.42 738.808 1584.83 738.808L1610.62 738.808C1616.26 738.808 1620.83 743.38 1620.83 749.022C1620.83 754.662 1616.26 759.235 1610.62 759.236L1492.89 759.236C1481.61 759.236 1472.46 768.382 1472.46 779.664C1472.46 790.947 1481.61 800.091 1492.89 800.091L1804.65 800.091C1815.94 800.091 1825.08 790.947 1825.08 779.664C1825.08 768.381 1815.94 759.236 1804.65 759.236L1770.78 759.236C1765.14 759.236 1760.57 754.663 1760.57 749.022C1760.57 743.382 1765.14 738.809 1770.78 738.808L1918.48 738.808C1929.72 738.808 1939.37 730.008 1939.58 718.763C1939.79 707.307 1930.57 697.954 1919.16 697.954Z" fill="#E9F8F0"/>
<rect opacity="0.2" x="440" y="705" width="212" height="39" rx="19.5" fill="#E9F8F0"/>
<rect opacity="0.2" x="664" y="705" width="39" height="39" rx="19.5" fill="#E9F8F0"/>
<path opacity="0.2" d="M1710.26 -23.6568C1710.26 -12.3191 1698.02 -3.04329 1686.68 -3.04329H1675.62C1664.29 -3.04329 1655.01 6.2325 1655.01 17.5702C1655.01 28.908 1664.29 38.1837 1675.62 38.1837H1745.19C1756.52 38.1837 1765.8 47.4595 1765.8 58.7973C1765.8 70.135 1756.52 79.4108 1745.19 79.4108H1742.32C1730.99 79.4108 1721.72 88.6866 1721.72 100.024C1721.72 111.362 1730.99 120.638 1742.32 120.638H1848.76C1860.09 120.638 1869.37 129.914 1869.37 141.251C1869.37 152.589 1860.09 161.865 1848.76 161.865H1845.95C1834.61 161.865 1825.34 171.141 1825.34 182.478C1825.34 193.816 1834.61 203.092 1845.95 203.092H1850.16C1861.5 203.092 1870.77 212.368 1870.77 223.705C1870.77 235.043 1861.5 244.319 1850.16 244.319H1818.68C1807.35 244.319 1798.08 253.595 1798.08 264.932C1798.08 276.27 1807.35 285.546 1818.68 285.546H1821.06C1832.39 285.546 1841.66 294.822 1841.66 306.159C1841.66 317.497 1832.39 326.773 1821.06 326.773H1767.95C1756.62 326.773 1747.34 336.049 1747.34 347.387C1747.34 358.724 1756.62 368 1767.95 368H1943.74C1955.08 368 1964.35 358.724 1964.35 347.387C1964.35 336.049 1955.08 326.773 1943.74 326.773H1941.58C1930.24 326.773 1920.97 317.497 1920.97 306.159C1920.97 294.822 1930.24 285.546 1941.58 285.546H2018.8C2030.14 285.546 2039.41 294.822 2039.41 306.159C2039.41 317.497 2030.14 326.773 2018.8 326.773H2015.78C2004.44 326.773 1995.17 336.049 1995.17 347.387C1995.17 358.724 2004.44 368 2015.78 368H2164.39C2175.73 368 2185 358.724 2185 347.387C2185 336.049 2175.73 326.773 2164.39 326.773H2157.3C2145.96 326.773 2136.69 317.497 2136.69 306.159C2136.69 294.822 2145.96 285.546 2157.3 285.546H2157.47C2168.8 285.546 2178.08 276.27 2178.08 264.932C2178.08 253.595 2168.8 244.319 2157.47 244.319H2034.49C2023.15 244.319 2013.88 235.043 2013.88 223.705C2013.88 212.368 2023.15 203.092 2034.49 203.092H2078.22C2089.55 203.092 2098.83 193.816 2098.83 182.478C2098.83 171.141 2089.55 161.865 2078.22 161.865H2058.67C2047.33 161.865 2038.06 152.589 2038.06 141.251C2038.06 129.914 2047.33 120.638 2058.67 120.638H2100.36C2111.7 120.638 2120.97 111.362 2120.97 100.024C2120.97 88.6866 2111.7 79.4108 2100.36 79.4108H2090.17C2078.83 79.4108 2069.56 70.135 2069.56 58.7973C2069.56 47.4595 2078.83 38.1837 2090.17 38.1837H2098.25C2109.58 38.1837 2118.86 28.908 2118.86 17.5702C2118.86 6.2325 2109.58 -3.04329 2098.25 -3.04329H2090.17C2078.83 -3.04329 2069.56 -12.3191 2069.56 -23.6568C2069.56 -34.4962 2078.04 -43.4298 2088.69 -44.1944H2157.47C2166.78 -44.1944 2174.7 -50.4696 2177.22 -59H1604C1606.52 -50.4696 1614.44 -44.1944 1623.76 -44.1944H1688.18C1699.07 -43.4298 1710.26 -34.4962 1710.26 -23.6568ZM1988.1 161.865H1969.28C1957.95 161.865 1948.67 152.589 1948.67 141.251C1948.67 129.914 1957.95 120.638 1969.28 120.638H1988.1C1999.43 120.638 2008.71 129.914 2008.71 141.251C2008.71 152.588 1999.43 161.865 1988.1 161.865ZM1875.66 -23.6568C1875.66 -34.4962 1884.14 -43.4298 1894.8 -44.1944H2014.43C2025.08 -43.4298 2033.57 -34.4962 2033.57 -23.6568C2033.57 -12.3191 2024.29 -3.04329 2012.96 -3.04329H2010.8C1999.46 -3.04329 1990.19 6.2325 1990.19 17.5702C1990.19 28.908 1999.46 38.1837 2010.8 38.1837H2012.96C2024.29 38.1837 2033.57 47.4595 2033.57 58.7973C2033.57 70.135 2024.29 79.4108 2012.96 79.4108H1953.59C1942.26 79.4108 1932.98 70.135 1932.98 58.7973C1932.98 47.4595 1942.26 38.1837 1953.59 38.1837H1956.62C1967.95 38.1837 1977.23 28.908 1977.23 17.5702C1977.23 6.2325 1967.95 -3.04329 1956.62 -3.04329H1896.27C1884.93 -3.04329 1875.66 -12.3191 1875.66 -23.6568Z" fill="#E9F8F0"/>
</g>
<defs>
<clipPath id="clip0_382_3082">
<rect width="1920" height="854" fill="white"/>
</clipPath>
</defs>
</svg>
