<svg width="1920" height="1024" viewBox="0 0 1920 1024" fill="none" xmlns="http://www.w3.org/2000/svg">
<g clip-path="url(#clip0_464_2470)">
<rect width="1920" height="1024" fill="#F5F5F5"/>
<path opacity="0.3" d="M-480.475 212.716L-171.65 212.716C-166.186 212.716 -161.757 217.146 -161.755 222.61C-161.755 228.074 -166.185 232.503 -171.65 232.505L-235.567 232.505C-246.462 232.505 -255.809 241.028 -256.008 251.921C-256.211 263.019 -247.276 272.079 -236.224 272.079L-224.91 272.079C-219.744 272.079 -215.13 275.857 -214.638 281.001C-214.075 286.903 -218.702 291.867 -224.485 291.867L-321.201 291.867C-332.095 291.867 -341.442 300.39 -341.641 311.283C-341.844 322.381 -332.909 331.442 -321.857 331.442L146.126 331.442C157.02 331.442 166.368 322.918 166.566 312.025C166.77 300.927 157.834 291.867 146.783 291.867L49.8359 291.868C44.6684 291.867 40.0527 288.09 39.5633 282.946C39.0002 277.045 43.6259 272.082 49.4101 272.081L256.65 272.081C267.545 272.081 276.892 263.557 277.091 252.664C277.294 241.566 268.359 232.506 257.307 232.506H252.6C247.137 232.506 242.707 228.076 242.707 222.613C242.707 217.149 247.137 212.72 252.601 212.719L358.104 212.719C368.999 212.719 378.346 204.195 378.545 193.302C378.748 182.204 369.813 173.144 358.761 173.144L105.913 173.141C95.0189 173.141 85.6715 181.665 85.473 192.558C85.2694 203.656 94.2049 212.716 105.257 212.716H118.808C124.271 212.716 128.701 217.146 128.702 222.61C128.702 228.074 124.272 232.503 118.808 232.505L-108.571 232.505C-114.034 232.505 -118.464 228.075 -118.464 222.612C-118.464 217.148 -114.034 212.719 -108.571 212.719L-98.7825 212.719C-87.8881 212.719 -78.5406 204.195 -78.3421 193.302C-78.1385 182.204 -87.0741 173.144 -98.1258 173.144L-481.132 173.141C-492.183 173.141 -501.119 182.202 -500.915 193.299C-500.717 204.193 -491.369 212.716 -480.475 212.716Z" fill="#BDBDBD"/>
<path opacity="0.2" d="M2097.9 697.38L1691.87 697.379C1678.19 697.379 1666.44 708.087 1666.19 721.772C1665.94 735.714 1677.16 747.097 1691.05 747.097L1722.42 747.097C1729.29 747.097 1734.85 752.662 1734.85 759.527C1734.85 766.391 1729.29 771.956 1722.42 771.958L1579.16 771.958C1565.43 771.958 1554.3 783.088 1554.3 796.817C1554.3 810.548 1565.43 821.676 1579.16 821.676L1958.56 821.676C1972.29 821.676 1983.41 810.548 1983.41 796.817C1983.41 783.086 1972.29 771.958 1958.56 771.958L1917.34 771.958C1910.47 771.958 1904.91 766.393 1904.91 759.527C1904.91 752.664 1910.47 747.099 1917.34 747.097L2097.07 747.097C2110.76 747.097 2122.5 736.389 2122.75 722.704C2123.01 708.763 2111.78 697.38 2097.9 697.38Z" fill="#BDBDBD"/>
</g>
<defs>
<clipPath id="clip0_464_2470">
<rect width="1920" height="1024" fill="white"/>
</clipPath>
</defs>
</svg>
